<svg width="28" height="28" viewBox="0 0 28 28" fill="none" xmlns="http://www.w3.org/2000/svg">
<circle cx="14" cy="14" r="14" fill="#FFB54C"/>
<path fill-rule="evenodd" clip-rule="evenodd" d="M8.55537 8.3457C7.69626 8.3457 6.99982 9.04215 6.99982 9.90126V10.5004H20.9998V9.90126C20.9998 9.04215 20.3034 8.3457 19.4443 8.3457H8.55537ZM20.9998 11.6204H6.99982V19.2346C6.99982 20.0937 7.69626 20.7901 8.55537 20.7901H19.4443C20.3034 20.7901 20.9998 20.0937 20.9998 19.2346V11.6204Z" fill="white"/>
<path d="M10.3097 7.83316C10.3097 7.48952 10.5883 7.21094 10.9319 7.21094C11.2756 7.21094 11.5541 7.48952 11.5541 7.83316V9.87834C11.5541 10.222 11.2756 10.5006 10.9319 10.5006C10.5883 10.5006 10.3097 10.222 10.3097 9.87834V7.83316Z" fill="white"/>
<path d="M16.4458 7.83316C16.4458 7.48951 16.7244 7.21094 17.068 7.21094C17.4117 7.21094 17.6903 7.48952 17.6903 7.83316L17.6902 9.87834C17.6902 10.222 17.4117 10.5006 17.068 10.5006C16.7244 10.5006 16.4458 10.222 16.4458 9.87834L16.4458 7.83316Z" fill="white"/>
<path d="M13.3376 18.022H11.4222L12.9876 16.0684C13.2167 15.7884 13.3504 15.4511 13.3567 15.1011V15.0566C13.344 14.6557 13.1849 14.2866 12.9049 14.0066C12.6186 13.7202 12.2431 13.5675 11.8486 13.5611C11.4349 13.5547 11.0467 13.7075 10.754 14.0002C10.4613 14.2866 10.2958 14.6747 10.2958 15.0884H11.1295C11.1295 14.8975 11.1995 14.7257 11.3331 14.592C11.4667 14.4584 11.6449 14.3884 11.8358 14.3884C12.2113 14.3947 12.5167 14.7002 12.5231 15.0757V15.0947C12.5231 15.2475 12.4658 15.4002 12.3576 15.5275L10.3149 18.022V18.8493H13.3376V18.022ZM16.1004 15.6866L17.1441 14.5157V13.6884H14.2932V14.5157H15.9541L14.8913 15.7884V16.4629H15.6804C16.1386 16.4629 16.5141 16.8384 16.5141 17.2966C16.5141 17.7547 16.1386 18.1238 15.6804 18.1238C15.2222 18.1238 14.8468 17.7547 14.8468 17.2966H14.0195C14.0195 18.2129 14.7641 18.9575 15.6804 18.9575C16.5968 18.9575 17.3413 18.2129 17.3413 17.2966C17.3413 16.5266 16.8132 15.8775 16.1004 15.6866Z" fill="#FFB54C"/>
</svg>
