<svg width="32" height="32" viewBox="0 0 32 32" fill="none" xmlns="http://www.w3.org/2000/svg">
<rect width="32" height="32" rx="16" fill="#0FD683"/>
<path d="M10.442 14.014H13.858C12.906 16.954 11.464 19.278 9.532 20.986L10.218 22.218C11.744 20.986 13.018 19.334 14.026 17.262C14.474 18.088 15.16 18.872 16.07 19.6C15.076 20.202 13.872 20.762 12.472 21.266L13.172 22.526C14.782 21.896 16.14 21.196 17.246 20.426C18.394 21.154 19.822 21.84 21.516 22.456L22.202 21.196C20.704 20.692 19.416 20.146 18.352 19.558C19.388 18.634 20.074 17.598 20.438 16.45V15.33H14.838C14.978 14.91 15.132 14.476 15.272 14.014H22.02V12.74H15.608C15.846 11.774 16.056 10.738 16.224 9.632L14.866 9.464C14.698 10.612 14.488 11.704 14.222 12.74H12.15L12.878 10.15L11.548 9.926L10.442 14.014ZM14.992 16.534H19.094C18.702 17.346 18.058 18.116 17.176 18.83C16.182 18.13 15.454 17.36 14.992 16.534ZM18.576 9.478L17.68 10.36C18.716 11.158 19.5 11.914 20.06 12.642L21.012 11.69C20.354 10.948 19.542 10.206 18.576 9.478Z" fill="white"/>
</svg>
