<svg width="32" height="32" viewBox="0 0 32 32" fill="none" xmlns="http://www.w3.org/2000/svg">
<rect width="32" height="32" rx="16" fill="#3081F2"/>
<path d="M10.19 19.754C11.226 19.488 12.234 19.18 13.186 18.844V22.344H14.488V21.28L15.188 22.414C16.588 21.658 17.736 20.734 18.646 19.642C19.486 20.692 20.48 21.658 21.628 22.526L22.538 21.448C21.362 20.58 20.326 19.6 19.458 18.508C20.41 16.912 20.956 15.022 21.068 12.838H22.174V11.536H17.75C17.89 10.962 18.03 10.346 18.142 9.702L16.812 9.478C16.42 11.942 15.664 13.902 14.558 15.358L15.37 16.366C15.622 16.058 15.874 15.736 16.112 15.372C16.574 16.492 17.148 17.556 17.834 18.55C16.994 19.614 15.874 20.496 14.488 21.168V9.59H13.186V17.57C12.612 17.794 12.038 17.99 11.45 18.172V10.752H10.148V18.228C10.148 18.41 10.022 18.55 9.798 18.634L10.19 19.754ZM17.344 12.838H19.808C19.71 14.56 19.318 16.072 18.618 17.36C17.918 16.324 17.33 15.19 16.882 13.958C17.05 13.594 17.204 13.23 17.344 12.838Z" fill="white"/>
</svg>
