<svg width="16" height="16" viewBox="0 0 16 16" fill="none" xmlns="http://www.w3.org/2000/svg">
<path d="M2.01214 7.6L2.51107 7.63284L2.01214 7.6ZM13.9859 8.4L13.487 8.36716L13.9859 8.4ZM2.49902 8C2.49902 7.87655 2.50308 7.75413 2.51107 7.63284L1.51322 7.56716C1.5038 7.71029 1.49902 7.85462 1.49902 8L2.49902 8ZM2.51107 7.63284C2.69972 4.76671 5.08487 2.5 7.99902 2.5L7.99902 1.5C4.55459 1.5 1.73624 4.17887 1.51322 7.56716L2.51107 7.63284ZM13.499 8C13.499 8.12345 13.495 8.24587 13.487 8.36716L14.4848 8.43284C14.4942 8.28971 14.499 8.14538 14.499 8L13.499 8ZM13.487 8.36716C13.2983 11.2333 10.9132 13.5 7.99903 13.5L7.99903 14.5C11.4435 14.5 14.2618 11.8211 14.4848 8.43284L13.487 8.36716ZM7.99902 2.5C10.0359 2.5 11.8149 3.60702 12.766 5.25464L13.6321 4.75469C12.5096 2.81035 10.4077 1.5 7.99902 1.5L7.99902 2.5ZM7.99903 13.5C5.96388 13.5 4.18625 12.3949 3.23452 10.7496L2.36891 11.2504C3.49204 13.1919 5.59248 14.5 7.99903 14.5L7.99903 13.5Z" fill="#4C6AFF"/>
<path d="M1.50907 8.44706H2.48897L1.99902 8.93701L1.50907 8.44706Z" stroke="#4C6AFF"/>
<path d="M14.489 7.55294L13.5091 7.55294L13.999 7.06299L14.489 7.55294Z" stroke="#4C6AFF"/>
</svg>
