<svg width="16" height="16" viewBox="0 0 16 16" fill="none" xmlns="http://www.w3.org/2000/svg" color="#262A33">
<path d="M5.03795 14.6171H2.10937C1.83323 14.6171 1.60938 14.3932 1.60938 14.1171V2.11707C1.60938 1.84092 1.83323 1.61707 2.10938 1.61707H13.1094C13.3855 1.61707 13.6094 1.84092 13.6094 2.11707V4.86707V8.11706" stroke="currentColor" stroke-width="1.2" stroke-linecap="round" stroke-linejoin="round"/>
<path d="M3.89197 6.04263H10.892" stroke="currentColor" stroke-width="1.2" stroke-linecap="round"/>
<path d="M4 9.5H7" stroke="currentColor" stroke-width="1.2" stroke-linecap="round"/>
<path d="M13.5747 12.2227C13.5766 12.7214 13.4065 13.2231 13.0572 13.632C12.3738 14.4317 11.2324 14.609 10.3508 14.1074" stroke="currentColor" stroke-width="1.2" stroke-linecap="round"/>
<path d="M9.20583 11.9574C9.20245 11.4587 9.37092 10.9564 9.71905 10.5465C10.4 9.74466 11.5408 9.56391 12.424 10.0627" stroke="currentColor" stroke-width="1.2" stroke-linecap="round"/>
<path d="M13.6988 10.7929C13.6239 10.7276 13.5123 10.7273 13.437 10.7921L12.2382 11.8239C12.0979 11.9447 12.1829 12.1749 12.3681 12.1755L14.7593 12.1828C14.9444 12.1834 15.0309 11.9537 14.8913 11.832L13.6988 10.7929Z" fill="currentColor"/>
<path d="M9.09402 13.4756C9.16897 13.5409 9.28052 13.5412 9.35588 13.4764L10.5546 12.4446C10.695 12.3238 10.61 12.0936 10.4248 12.093L8.03359 12.0857C7.84841 12.0852 7.76197 12.3148 7.90158 12.4365L9.09402 13.4756Z" fill="currentColor"/>
</svg>
