<svg width="16" height="16" viewBox="0 0 16 16" fill="none" xmlns="http://www.w3.org/2000/svg" color="#262A33">
<path d="M3.89197 5.99863H10.892" stroke="currentColor" stroke-width="1.2" stroke-linecap="round"/>
<path d="M3.89197 9.22885H6.89197" stroke="currentColor" stroke-width="1.2" stroke-linecap="round"/>
<path d="M13.6191 4.96295V2.10571C13.6191 1.82957 13.3953 1.60571 13.1191 1.60571H2.11914C1.843 1.60571 1.61914 1.82957 1.61914 2.10571V14.1057C1.61914 14.3819 1.843 14.6057 2.11914 14.6057H13.1191C13.3953 14.6057 13.6191 14.3819 13.6191 14.1057V10.7141" stroke="currentColor" stroke-width="1.2" stroke-linecap="round"/>
<path d="M14.0918 6.41532C14.1699 6.33721 14.2965 6.33721 14.3746 6.41532L14.9403 6.981C15.0184 7.05911 15.0184 7.18574 14.9403 7.26384L10.9538 11.2503C10.9304 11.2738 10.9015 11.291 10.8697 11.3005L10.0628 11.5418C9.91034 11.5873 9.7683 11.4453 9.81387 11.2929L10.0551 10.486C10.0646 10.4542 10.0818 10.4253 10.1053 10.4018L14.0918 6.41532Z" fill="currentColor"/>
</svg>
