<svg width="16" height="16" viewBox="0 0 16 16" fill="none" xmlns="http://www.w3.org/2000/svg" color="#262A33">
  <path d="M8.59353 10.9102L10.8784 12.6806L14.5934 8.6806" stroke="currentColor" stroke-width="1.2" stroke-linecap="round"
    stroke-linejoin="round" />
  <path
    d="M7.20743 0.550716L7.24214 0.533827L7.31451 0.506448L7.36797 0.492623L7.49226 0.478943L7.57624 0.483908L7.6428 0.49625L7.71757 0.519214L7.8024 0.558838L7.85128 0.589093L7.91288 0.637047C9.58062 2.09618 11.2223 2.87828 12.8371 3.00456L13.1396 3.02056C13.2026 3.02135 13.2629 3.02916 13.3215 3.04284L13.4467 3.08055L13.5067 3.10513L13.6277 3.16593C13.8215 3.26438 13.9544 3.45525 13.9885 3.67401L13.9971 3.78542L13.9978 7.258C13.5997 7.01318 13.1613 6.83351 12.6956 6.73283L12.6942 4.36918L12.437 4.34431C10.7734 4.14354 9.12539 3.37278 7.49749 2.04612L7.2507 2.24277C5.70296 3.44915 4.13665 4.15369 2.55134 4.34444L2.29905 4.36803L2.29978 7.63031C2.29978 9.4351 3.88773 11.4965 7.14224 13.742L7.49719 13.982L7.51002 13.975C7.71878 13.8351 7.92113 13.6959 8.1171 13.5574C8.34228 13.9562 8.62499 14.3143 8.95204 14.6208C8.59983 14.8722 8.2287 15.1249 7.83939 15.3786C7.7953 15.4069 7.75368 15.4274 7.7106 15.4432L7.6434 15.4637L7.54861 15.4789H7.44626L7.43401 15.4779C7.38545 15.4729 7.33705 15.4621 7.28973 15.4453L7.19054 15.4L7.15548 15.3786C3.2058 12.8051 1.12597 10.3263 1.00354 7.86135L0.997803 7.63031V3.78542C0.997803 3.55915 1.10307 3.35002 1.27507 3.22279L1.36645 3.16629L1.51951 3.09118L1.58657 3.06761C1.64375 3.04835 1.70209 3.03439 1.75992 3.02692L1.84608 3.02075C3.56575 2.97344 5.30647 2.18898 7.07657 0.641795L7.06935 0.648432L7.08996 0.631254L7.16917 0.572849H7.16808L7.17779 0.567257L7.16917 0.572849L7.20743 0.550716Z"
    fill="currentColor" />
</svg>