<svg width="24" height="22" viewBox="0 0 24 22" fill="none" xmlns="http://www.w3.org/2000/svg">
<path d="M19 5.5V16.5778C19 17.0687 18.602 17.4667 18.1111 17.4667H1.88889C1.39797 17.4667 1 17.0687 1 16.5778V5.5" stroke="#A9ADB7" stroke-width="1.77778" stroke-linecap="round" stroke-linejoin="round"/>
<path d="M1 3.42221C1 2.93129 1.39797 2.53333 1.88889 2.53333H18.1111C18.602 2.53333 19 2.93129 19 3.42221V5.5H1V3.42221Z" fill="#A9ADB7" stroke="#A9ADB7" stroke-width="1.77778" stroke-linejoin="round"/>
<path d="M1.5 9H19V10.5H1.5V9Z" fill="#A9ADB7"/>
<path d="M12 17.5L12 2L13.5 2L13.5 17.5L12 17.5Z" fill="#A9ADB7"/>
<path d="M17.9992 20.8C20.6502 20.8 22.7992 18.651 22.7992 16C22.7992 13.349 20.6502 11.2 17.9992 11.2C15.3483 11.2 13.1992 13.349 13.1992 16C13.1992 18.651 15.3483 20.8 17.9992 20.8Z" fill="#F74F4F"/>
<path fill-rule="evenodd" clip-rule="evenodd" d="M16.5147 17.6967C16.6319 17.8138 16.8218 17.8138 16.939 17.6967L18.0001 16.6355L19.0611 17.6966C19.1783 17.8137 19.3682 17.8137 19.4854 17.6966L19.6975 17.4844C19.8147 17.3673 19.8147 17.1773 19.6975 17.0602L18.6365 15.9991L19.6967 14.9389C19.8138 14.8218 19.8138 14.6318 19.6967 14.5147L19.4845 14.3025C19.3674 14.1854 19.1774 14.1854 19.0603 14.3025L18.0001 15.3627L16.9398 14.3025C16.8226 14.1853 16.6327 14.1853 16.5155 14.3025L16.3034 14.5146C16.1862 14.6318 16.1862 14.8217 16.3034 14.9389L17.3637 15.9991L16.3026 17.0603C16.1854 17.1774 16.1854 17.3674 16.3026 17.4845L16.5147 17.6967Z" fill="white"/>
</svg>
