<svg width="16" height="16" viewBox="0 0 16 16" fill="none" xmlns="http://www.w3.org/2000/svg">
<path d="M5.15812 12.8871L5.44874 13.2939L5.15812 12.8871ZM11.8861 7.91863L11.5955 8.32549L11.8861 7.91863ZM11.8861 8.08137L11.5955 7.67451L11.8861 8.08137ZM5.44874 2.70608L12.1767 7.51176L11.5955 8.32549L4.8675 3.51981L5.44874 2.70608ZM12.1767 8.48824L5.44874 13.2939L4.86751 12.4802L11.5955 7.67451L12.1767 8.48824ZM4.5 12.8057L4.5 3.19432L5.5 3.19432L5.5 12.8057L4.5 12.8057ZM5.44874 13.2939C5.05162 13.5776 4.5 13.2937 4.5 12.8057L5.5 12.8057C5.5 12.4803 5.13225 12.2911 4.86751 12.4802L5.44874 13.2939ZM12.1767 7.51176C12.5117 7.75105 12.5117 8.24895 12.1767 8.48824L11.5955 7.67451C11.3721 7.83404 11.3721 8.16597 11.5955 8.32549L12.1767 7.51176ZM4.8675 3.51981C5.13225 3.70892 5.5 3.51967 5.5 3.19432L4.5 3.19432C4.5 2.70629 5.05162 2.42242 5.44874 2.70608L4.8675 3.51981Z" fill="#3C3F47"/>
</svg>
