<svg width="16" height="16" viewBox="0 0 16 16" fill="none" xmlns="http://www.w3.org/2000/svg">
<path fill-rule="evenodd" clip-rule="evenodd" d="M13.4481 11.3617C12.3374 11.4646 10.4532 11.749 8.5999 12.5476V4.50372C10.4923 3.16594 12.5602 3.053 13.6561 3.11251C13.77 3.11869 13.8999 3.21835 13.8999 3.42072V10.902C13.8999 11.1196 13.7147 11.337 13.4481 11.3617ZM7.9999 3.45917C10.1764 1.96289 12.5097 1.84849 13.7211 1.91427C14.5579 1.95971 15.0999 2.67106 15.0999 3.42072V10.902C15.0999 11.789 14.392 12.4794 13.5588 12.5566C12.3366 12.6698 10.1924 13.0124 8.2834 14.0292M7.9999 3.45917C5.82336 1.96289 3.49013 1.84849 2.27866 1.91427C1.44193 1.95971 0.899902 2.67106 0.899902 3.42072V10.902C0.899902 11.789 1.60781 12.4794 2.44103 12.5566C3.66325 12.6698 5.8074 13.0124 7.71641 14.0292C7.73095 14.037 7.74573 14.0441 7.76072 14.0506C7.92723 14.123 8.11931 14.1166 8.28203 14.0299M7.3999 12.5476V4.50372C5.50749 3.16594 3.43962 3.053 2.34372 3.11251C2.22982 3.11869 2.0999 3.21835 2.0999 3.42072V10.902C2.0999 11.1196 2.28511 11.337 2.55175 11.3617C3.6624 11.4646 5.54656 11.749 7.3999 12.5476Z" fill="#A8AAAD"/>
</svg>
