<svg width="16" height="16" viewBox="0 0 16 16" fill="none" xmlns="http://www.w3.org/2000/svg">
<path fill-rule="evenodd" clip-rule="evenodd" d="M3.3999 4.50039C3.3999 2.78831 4.78782 1.40039 6.4999 1.40039C8.21199 1.40039 9.5999 2.78831 9.5999 4.50039C9.5999 6.21247 8.21199 7.60039 6.4999 7.60039C4.78782 7.60039 3.3999 6.21247 3.3999 4.50039ZM6.4999 2.60039C5.45056 2.60039 4.5999 3.45105 4.5999 4.50039C4.5999 5.54973 5.45056 6.40039 6.4999 6.40039C7.54924 6.40039 8.3999 5.54973 8.3999 4.50039C8.3999 3.45105 7.54924 2.60039 6.4999 2.60039ZM0.899902 12.0004C0.899902 10.0122 2.51168 8.40039 4.4999 8.40039H8.4999C10.4881 8.40039 12.0999 10.0122 12.0999 12.0004V13.2004C12.0999 13.9736 11.4731 14.6004 10.6999 14.6004H2.2999C1.5267 14.6004 0.899902 13.9736 0.899902 13.2004V12.0004ZM4.4999 9.60039C3.17442 9.60039 2.0999 10.6749 2.0999 12.0004V13.2004C2.0999 13.3108 2.18945 13.4004 2.2999 13.4004H10.6999C10.8104 13.4004 10.8999 13.3108 10.8999 13.2004V12.0004C10.8999 10.6749 9.82539 9.60039 8.4999 9.60039H4.4999ZM10.4999 2.40039C11.9358 2.40039 13.0999 3.56445 13.0999 5.00039C13.0999 5.69115 12.8305 6.31899 12.3911 6.7846C12.7465 6.93149 13.0981 7.12524 13.4253 7.37376C14.3867 8.10389 15.0999 9.28043 15.0999 11.0004L15.1 11.0647C15.1009 11.5139 15.1022 12.1786 14.7491 12.7082C14.3342 13.3307 13.5791 13.6004 12.4999 13.6004L12.4999 12.4004C13.4207 12.4004 13.6656 12.1701 13.7507 12.0426C13.8803 11.8481 13.8999 11.5522 13.8999 11.0004C13.8999 9.65688 13.3631 8.8334 12.6995 8.3294C12.0101 7.80578 11.1444 7.60038 10.4999 7.60039H10.4999V7.00039V6.40039C11.2731 6.40039 11.8999 5.77359 11.8999 5.00039C11.8999 4.22719 11.2731 3.60039 10.4999 3.60039V2.40039Z" fill="#A8AAAD"/>
</svg>
