<svg width="16" height="16" viewBox="0 0 16 16" fill="none" xmlns="http://www.w3.org/2000/svg">
<path d="M2 10V13.2C2 13.6418 2.35817 14 2.8 14H13.2C13.6418 14 14 13.6418 14 13.2V10" stroke="#A8AAAD" stroke-width="1.2"/>
<path d="M7.99988 11L7.58436 11.4328C7.81654 11.6557 8.18322 11.6557 8.4154 11.4328L7.99988 11ZM7.39984 1.99996L7.39988 11L8.59988 11L8.59984 1.99996L7.39984 1.99996ZM8.4154 11.4328L12.582 7.43279L11.751 6.56713L7.58435 10.5672L8.4154 11.4328ZM8.4154 10.5672L4.24869 6.56713L3.41765 7.43279L7.58436 11.4328L8.4154 10.5672Z" fill="#A8AAAD"/>
</svg>
