<svg width="40" height="40" viewBox="0 0 40 40" fill="none" xmlns="http://www.w3.org/2000/svg">
  <circle cx="20" cy="20" r="20" fill="#F4F4F5"></circle>
  <path d="M 15.792 19.307 L 16.189 19.307 L 16.412 18.979 L 20.955 12.298 C 20.955 12.298 21.184 12.096 21.337 12.096 L 22.791 12.096 C 23.064 12.096 23.277 12.332 23.25 12.603 L 22.806 17.04 L 22.724 17.865 L 23.552 17.865 L 27.938 17.865 C 28.232 17.865 28.451 18.135 28.39 18.422 L 26.517 27.249 C 26.472 27.462 26.284 27.615 26.066 27.615 L 12.558 27.615 C 12.303 27.615 12.096 27.408 12.096 27.153 L 12.096 19.769 C 12.096 19.514 12.303 19.307 12.558 19.307 L 15.792 19.307 Z" stroke="#A8AAAD" stroke-width="1.5"></path>
  <line x1="16.1346" y1="19.1348" x2="16.1346" y2="27.5001" stroke="#A8AAAD" stroke-width="1.5"></line>
</svg>