<svg width="40" height="40" viewBox="0 0 40 40" fill="none" xmlns="http://www.w3.org/2000/svg">
  <circle opacity="0.1" cx="20" cy="20" r="20" fill="#6BA9FF"></circle>
  <path fill-rule="evenodd" clip-rule="evenodd" d="M15.792 18.5572L20.3352 11.876C20.5608 11.5443 20.9359 11.3457 21.3371 11.3457H22.7906C23.5074 11.3457 24.0674 11.9646 23.9961 12.6778L23.5524 17.1149H27.9381C28.7084 17.1149 29.2831 17.8243 29.1233 18.5779L27.2509 27.4048C27.1322 27.9646 26.638 28.3649 26.0657 28.3649H12.5577C11.8886 28.3649 11.3462 27.8225 11.3462 27.1534V19.7688C11.3462 19.0997 11.8886 18.5572 12.5577 18.5572H15.792ZM14.75 20.2885C14.6226 20.2885 14.5192 20.3918 14.5192 20.5192V26.4038C14.5192 26.5313 14.6226 26.6346 14.75 26.6346H15.4423C15.5698 26.6346 15.6731 26.5313 15.6731 26.4038V20.5192C15.6731 20.3918 15.5698 20.2885 15.4423 20.2885H14.75Z" fill="#6BA9FF"></path>
</svg>