<svg width="16" height="16" viewBox="0 0 16 16" fill="none" xmlns="http://www.w3.org/2000/svg">
<path d="M13 8C13 8.11201 12.9963 8.22316 12.9891 8.33333C12.8175 10.9393 10.6494 13 7.99999 13C6.14929 13 4.53343 11.9945 3.66891 10.5M2.99999 8C2.99999 7.88799 3.00368 7.77684 3.01093 7.66667C3.18246 5.06066 5.35058 3 7.99999 3C9.8523 3 11.4694 4.00724 12.3333 5.50389" stroke="white"/>
<mask id="path-2-inside-1" fill="white">
<path d="M4.6686 7.83135L2.99998 9.49998L1.33135 7.83135L4.6686 7.83135Z"/>
</mask>
<path d="M4.6686 7.83135L6.78992 9.95267L11.9112 4.83135L4.6686 4.83135L4.6686 7.83135ZM2.99998 9.49998L0.878659 11.6213L2.99998 13.7426L5.1213 11.6213L2.99998 9.49998ZM1.33135 7.83135L1.33135 4.83135L-5.91129 4.83135L-0.789967 9.95267L1.33135 7.83135ZM2.54728 5.71003L0.878659 7.37866L5.1213 11.6213L6.78992 9.95267L2.54728 5.71003ZM5.1213 7.37866L3.45267 5.71003L-0.789967 9.95267L0.878659 11.6213L5.1213 7.37866ZM1.33135 10.8314L4.6686 10.8314L4.6686 4.83135L1.33135 4.83135L1.33135 10.8314Z" fill="white" mask="url(#path-2-inside-1)"/>
<mask id="path-4-inside-2" fill="white">
<path d="M11.3314 8.16866L13 6.50003L14.6686 8.16866L11.3314 8.16866Z"/>
</mask>
<path d="M11.3314 8.16866L9.21005 6.04734L4.08873 11.1687L11.3314 11.1687L11.3314 8.16866ZM13 6.50003L15.1213 4.37871L13 2.25739L10.8787 4.37871L13 6.50003ZM14.6686 8.16866L14.6686 11.1687L21.9113 11.1687L16.7899 6.04733L14.6686 8.16866ZM13.4527 10.29L15.1213 8.62135L10.8787 4.37871L9.21005 6.04734L13.4527 10.29ZM10.8787 8.62135L12.5473 10.29L16.7899 6.04733L15.1213 4.37871L10.8787 8.62135ZM14.6686 5.16866L11.3314 5.16866L11.3314 11.1687L14.6686 11.1687L14.6686 5.16866Z" fill="white" mask="url(#path-4-inside-2)"/>
</svg>
