<svg width="12" height="12" viewBox="0 0 12 12" fill="none" xmlns="http://www.w3.org/2000/svg">
<path fill-rule="evenodd" clip-rule="evenodd" d="M8.404 7.83856C8.56021 7.99477 8.56021 8.24803 8.404 8.40424C8.24779 8.56045 7.99452 8.56045 7.83831 8.40424L5.99985 6.56577L4.16138 8.40424C4.00517 8.56045 3.7519 8.56045 3.59569 8.40424C3.43948 8.24803 3.43948 7.99477 3.59569 7.83856L5.43416 6.00009L3.59567 4.1616C3.43946 4.00539 3.43946 3.75213 3.59567 3.59592C3.75188 3.43971 4.00515 3.43971 4.16136 3.59592L5.99985 5.4344L7.83833 3.59592C7.99454 3.43971 8.24781 3.43971 8.40402 3.59592C8.56023 3.75213 8.56023 4.00539 8.40402 4.1616L6.56553 6.00009L8.404 7.83856Z" fill="#262A33" fill-opacity="0.7"/>
</svg>
