<svg width="56" height="56" viewBox="0 0 56 56" fill="none" xmlns="http://www.w3.org/2000/svg">
<path d="M56 15.2797V40.7203C56 49.1641 49.1641 56 40.7203 56H15.2797C10.7734 56 6.72656 54.0531 3.92656 50.9469C1.4875 48.2453 0 44.6578 0 40.7203V15.2797C0 12.2828 0.864063 9.48281 2.3625 7.12031C5.06406 2.84375 9.84375 0 15.2797 0H40.7203C49.1641 0 56 6.83594 56 15.2797Z" fill="url(#paint0_linear)"/>
<path d="M32.4076 46.8672L44.4717 37.5375L17.7623 12.9062L6.19043 40.8188L30.0342 47.3484C30.8545 47.5672 31.7295 47.3922 32.4076 46.8672Z" fill="#F5F9FF"/>
<path d="M21.9844 40.8074L35.4047 29.334L49.2734 18.6262C50.1375 17.959 51.3297 18.834 50.9578 19.8621L44.4828 37.5371L21.9844 40.8074Z" fill="#F5F9FF"/>
<path d="M17.7625 12.9061L7.48125 41.1686V41.1795L3.92656 50.9467C1.4875 48.2451 0 44.6576 0 40.7201V15.2795C0 12.2826 0.864063 9.48262 2.3625 7.12012L17.7625 12.9061Z" fill="#F5F9FF"/>
<path d="M17.7626 12.9062L7.45947 41.1688L12.097 42.4266L17.7626 12.9062Z" fill="#CAD1EF"/>
<path d="M44.4717 37.5373L37.7561 27.5186L35.5029 29.2686L44.4717 37.5373Z" fill="#CAD1EF"/>
<defs>
<linearGradient id="paint0_linear" x1="43.5604" y1="10.4286" x2="9.47316" y2="48.9237" gradientUnits="userSpaceOnUse">
<stop stop-color="#4284FF"/>
<stop offset="0.9515" stop-color="#1B47EE"/>
</linearGradient>
</defs>
</svg>
