<svg width="16" height="16" color="#8D92A1" viewBox="0 0 16 16" fill="none" xmlns="http://www.w3.org/2000/svg">
<g clip-path="url(#clip0_332_22057)">
<path d="M14.664 12.1533C14.664 12.638 14.394 13.5713 13.788 14.084C13.6667 14.1773 13.5447 14.1247 13.598 13.9887C13.7747 13.5567 14.1793 12.5573 13.9893 12.3273C13.856 12.1527 13.3027 12.1653 12.8307 12.206C12.6147 12.2333 12.426 12.246 12.2787 12.276C12.1433 12.2873 12.1153 12.1673 12.2513 12.074C12.426 11.9507 12.6147 11.8573 12.8313 11.7887C13.598 11.5593 14.4847 11.6973 14.6113 11.844C14.6353 11.872 14.6647 11.9507 14.6647 12.1527L14.664 12.1533ZM13.3833 13.016C13.2073 13.1505 13.0224 13.273 12.83 13.3827C11.4153 14.2327 9.58333 14.678 7.99133 14.678C5.42933 14.678 3.13799 13.7333 1.39933 12.1527C1.25066 12.0313 1.37399 11.8553 1.54799 11.9507C3.42133 13.044 5.74 13.7053 8.14066 13.7053C9.65066 13.7053 11.2793 13.4227 12.8307 12.8147C12.9387 12.774 13.06 12.7187 13.166 12.68C13.4107 12.57 13.626 12.842 13.3833 13.016ZM9.26999 5.66267C9.26999 4.96867 9.29733 4.56 9.06733 4.20933C8.86333 3.92067 8.512 3.74733 8.022 3.77467C7.49 3.804 6.91866 4.15267 6.77266 4.792C6.74466 4.93867 6.65866 5.08267 6.48199 5.114L4.858 4.90733C4.742 4.88067 4.56599 4.792 4.62333 4.56C4.97199 2.72533 6.54 2.086 8.022 2H8.37066C9.18399 2 10.2287 2.23267 10.8973 2.84267C11.7087 3.6 11.6227 4.61733 11.6227 5.72267V8.34067C11.6227 9.126 11.9407 9.474 12.2613 9.88333C12.348 10.0293 12.3773 10.2013 12.2313 10.32C11.9113 10.61 11.302 11.1327 10.9533 11.4227C10.8373 11.5113 10.628 11.5207 10.5467 11.4527C10.0333 11.0227 9.908 10.784 9.59 10.3473C9.03666 10.928 8.57266 11.2487 8.01999 11.4227C7.63134 11.5213 7.23163 11.5697 6.83066 11.5667C5.43733 11.5667 4.33333 10.698 4.33333 8.98C4.33333 7.614 5.05999 6.68533 6.13333 6.246C7.20666 5.806 8.76666 5.666 9.26933 5.66333L9.26999 5.66267ZM8.95133 9.124C9.298 8.54267 9.26933 8.06667 9.26933 7.00067C8.83533 7.00067 8.39866 7.03067 8.022 7.11933C7.32533 7.32133 6.77266 7.76 6.77266 8.68933C6.77266 9.416 7.15066 9.91067 7.78933 9.91067C7.87733 9.91067 7.95466 9.9 8.022 9.88067C8.46866 9.75667 8.74733 9.53267 8.95133 9.124Z" fill="currentColor"/>
</g>
<defs>
<clipPath id="clip0_332_22057">
<rect width="16" height="16" fill="white"/>
</clipPath>
</defs>
</svg>
