<svg width="17" height="16" color="#8D92A1" viewBox="0 0 17 16" fill="none" xmlns="http://www.w3.org/2000/svg">
<path d="M13.4667 2H3.86666C3.5488 2.00132 3.24434 2.12817 3.01958 2.35293C2.79482 2.57768 2.66797 2.88215 2.66666 3.2V12.8C2.66797 13.1179 2.79482 13.4223 3.01958 13.6471C3.24434 13.8718 3.5488 13.9987 3.86666 14H13.4667C13.7845 13.9987 14.089 13.8718 14.3137 13.6471C14.5385 13.4223 14.6653 13.1179 14.6667 12.8V3.2C14.6653 2.88215 14.5385 2.57768 14.3137 2.35293C14.089 2.12817 13.7845 2.00132 13.4667 2V2ZM6.18916 9.2325C6.44376 9.34853 6.73404 9.35867 6.99612 9.26068C7.2582 9.16269 7.47062 8.96461 7.58666 8.71H8.41666C8.30967 9.1483 8.04579 9.53221 7.67492 9.78913C7.30405 10.0461 6.85189 10.1582 6.40395 10.1043C5.95601 10.0504 5.54334 9.83428 5.24397 9.49674C4.94459 9.1592 4.77928 8.72367 4.77928 8.2725C4.77928 7.82133 4.94459 7.3858 5.24397 7.04826C5.54334 6.71072 5.95601 6.49458 6.40395 6.4407C6.85189 6.38682 7.30405 6.49895 7.67492 6.75587C8.04579 7.01279 8.30967 7.3967 8.41666 7.835H7.58666C7.516 7.67996 7.40885 7.54433 7.27436 7.43973C7.13987 7.33512 6.98204 7.26464 6.81438 7.23432C6.64672 7.204 6.4742 7.21474 6.31159 7.26562C6.14899 7.3165 6.00112 7.40601 5.88064 7.52648C5.76016 7.64696 5.67066 7.79483 5.61978 7.95744C5.5689 8.12005 5.55816 8.29256 5.58848 8.46022C5.6188 8.62789 5.68927 8.78571 5.79388 8.9202C5.89849 9.05469 6.03411 9.16185 6.18916 9.2325V9.2325ZM11.8617 9.655C11.7047 9.79011 11.5253 9.89672 11.3317 9.97C11.0548 10.0775 10.756 10.1163 10.4608 10.0833C10.1656 10.0502 9.88287 9.94612 9.63666 9.78V9.97H8.88166V4.685H9.63166V6.74C9.8994 6.55899 10.2095 6.45046 10.5317 6.425H10.6667C11.0421 6.42441 11.4086 6.53899 11.7169 6.75326C12.0251 6.96753 12.2603 7.2712 12.3905 7.62328C12.5208 7.97537 12.5399 8.35894 12.4453 8.72224C12.3508 9.08555 12.1471 9.41111 11.8617 9.655V9.655ZM11.7502 8.272C11.7532 8.41205 11.7283 8.55129 11.6768 8.68157C11.6253 8.81185 11.5483 8.93053 11.4503 9.03066C11.3524 9.13078 11.2354 9.21034 11.1063 9.26465C10.9772 9.31896 10.8385 9.34693 10.6984 9.34693C10.5583 9.34693 10.4197 9.31896 10.2905 9.26465C10.1614 9.21034 10.0444 9.13078 9.94647 9.03066C9.8485 8.93053 9.77152 8.81185 9.72003 8.68157C9.66855 8.55129 9.6436 8.41205 9.64666 8.272C9.65265 7.99703 9.7661 7.73534 9.96268 7.54299C10.1593 7.35064 10.4234 7.24293 10.6984 7.24293C10.9734 7.24293 11.2375 7.35064 11.4341 7.54299C11.6307 7.73534 11.7442 7.99703 11.7502 8.272V8.272Z" fill="currentColor"/>
</svg>
