<svg width="17" height="16" color="#8D92A1" viewBox="0 0 17 16" fill="none" xmlns="http://www.w3.org/2000/svg">
<g clip-path="url(#clip0_1269_47680)">
<path d="M15.95 6.33754L14.58 9.08504L13.2075 6.33754H12.27L12.5425 6.85254C12.255 6.37754 11.645 6.20254 10.96 6.20254C10.165 6.20254 9.26249 6.42004 9.17249 7.28004H10.015C10.05 6.93504 10.4075 6.73504 10.89 6.73504C11.54 6.73504 11.915 6.97504 11.915 7.56004V7.64504C11.5975 7.64504 11.215 7.64754 10.8725 7.65504C9.81249 7.67754 9.13249 7.90504 8.95499 8.51504C8.97999 8.38504 8.99249 8.25004 8.99249 8.11004C8.99249 6.80754 7.99999 6.20504 7.10749 6.20504C6.57499 6.20504 6.03249 6.34254 5.63999 6.81004V4.79504H4.83749V9.03254C4.83749 9.29004 4.82249 9.60504 4.80999 9.86004H5.59749C5.61499 9.70254 5.62499 9.53754 5.62499 9.37254C5.96499 9.78754 6.50999 9.99504 7.09249 9.99504C8.01499 9.99504 8.71499 9.44754 8.92499 8.64004C8.91249 8.71004 8.90749 8.78504 8.90749 8.86504C8.90749 9.46754 9.43499 9.99004 10.4225 9.99004C11.0875 9.99004 11.5675 9.84754 11.97 9.35254C11.97 9.51754 11.9775 9.68504 11.9975 9.85754H12.7425C12.725 9.65254 12.7175 9.42004 12.7175 9.18754V7.54754C12.7175 7.31504 12.675 7.11754 12.5975 6.95254L14.135 9.85504L13.4225 11.2075H14.32L16.8 6.33754H15.95ZM6.89249 9.44504C6.15249 9.44504 5.63749 8.90754 5.63749 8.10004C5.63749 7.29004 6.15249 6.75504 6.89249 6.75504C7.63749 6.75504 8.14749 7.29004 8.14749 8.10004C8.14749 8.90754 7.63749 9.44504 6.89249 9.44504ZM11.915 8.26254C11.915 9.01254 11.4675 9.47254 10.625 9.47254C9.99749 9.47254 9.74999 9.13754 9.74999 8.82754C9.74999 8.35004 10.2025 8.21754 10.93 8.19504C11.2575 8.18254 11.62 8.18004 11.915 8.18004V8.26254ZM1.61749 8.30254H4.83749V8.09004C4.83749 6.79754 4.00999 6.20504 2.87749 6.20504C1.45749 6.20504 0.80249 6.97504 0.80249 8.14504C0.80249 9.20754 1.43499 9.99504 2.86499 9.99504C3.64999 9.99504 4.56499 9.70254 4.72499 8.84254H3.89749C3.59749 9.73754 1.70499 9.76004 1.61749 8.30254V8.30254ZM3.99249 7.76754H1.63249C1.80499 6.35254 3.93499 6.40004 3.99249 7.76754V7.76754Z" fill="currentColor"/>
</g>
<defs>
<clipPath id="clip0_1269_47680">
<rect width="16" height="16" fill="white" transform="translate(0.799988)"/>
</clipPath>
</defs>
</svg>
