<svg width="17" color="#8D92A1" height="16" viewBox="0 0 17 16" fill="none" xmlns="http://www.w3.org/2000/svg">
  <g clip-path="url(#clip0_330_21831)">
    <path
      d="M8.19999 1.33331C10.0113 1.33331 10.2373 1.33998 10.948 1.37331C11.658 1.40665 12.1413 1.51798 12.5667 1.68331C13.0067 1.85265 13.3773 2.08198 13.748 2.45198C14.087 2.78524 14.3493 3.18837 14.5167 3.63331C14.6813 4.05798 14.7933 4.54198 14.8267 5.25198C14.858 5.96265 14.8667 6.18865 14.8667 7.99998C14.8667 9.81131 14.86 10.0373 14.8267 10.748C14.7933 11.458 14.6813 11.9413 14.5167 12.3666C14.3498 12.8118 14.0874 13.2151 13.748 13.548C13.4146 13.8869 13.0115 14.1491 12.5667 14.3166C12.142 14.4813 11.658 14.5933 10.948 14.6266C10.2373 14.658 10.0113 14.6666 8.19999 14.6666C6.38866 14.6666 6.16266 14.66 5.45199 14.6266C4.74199 14.5933 4.25866 14.4813 3.83333 14.3166C3.38821 14.1496 2.98501 13.8873 2.65199 13.548C2.31293 13.2148 2.05061 12.8116 1.88333 12.3666C1.71799 11.942 1.60666 11.458 1.57333 10.748C1.54199 10.0373 1.53333 9.81131 1.53333 7.99998C1.53333 6.18865 1.53999 5.96265 1.57333 5.25198C1.60666 4.54131 1.71799 4.05865 1.88333 3.63331C2.05015 3.1881 2.31253 2.78486 2.65199 2.45198C2.98511 2.1128 3.38828 1.85047 3.83333 1.68331C4.25866 1.51798 4.74133 1.40665 5.45199 1.37331C6.16266 1.34198 6.38866 1.33331 8.19999 1.33331ZM8.19999 4.66665C7.31594 4.66665 6.46809 5.01784 5.84297 5.64296C5.21785 6.26808 4.86666 7.11592 4.86666 7.99998C4.86666 8.88403 5.21785 9.73188 5.84297 10.357C6.46809 10.9821 7.31594 11.3333 8.19999 11.3333C9.08405 11.3333 9.93189 10.9821 10.557 10.357C11.1821 9.73188 11.5333 8.88403 11.5333 7.99998C11.5333 7.11592 11.1821 6.26808 10.557 5.64296C9.93189 5.01784 9.08405 4.66665 8.19999 4.66665V4.66665ZM12.5333 4.49998C12.5333 4.27897 12.4455 4.067 12.2892 3.91072C12.133 3.75444 11.921 3.66665 11.7 3.66665C11.479 3.66665 11.267 3.75444 11.1107 3.91072C10.9545 4.067 10.8667 4.27897 10.8667 4.49998C10.8667 4.72099 10.9545 4.93296 11.1107 5.08924C11.267 5.24552 11.479 5.33331 11.7 5.33331C11.921 5.33331 12.133 5.24552 12.2892 5.08924C12.4455 4.93296 12.5333 4.72099 12.5333 4.49998ZM8.19999 5.99998C8.73043 5.99998 9.23913 6.21069 9.61421 6.58577C9.98928 6.96084 10.2 7.46955 10.2 7.99998C10.2 8.53041 9.98928 9.03912 9.61421 9.41419C9.23913 9.78927 8.73043 9.99998 8.19999 9.99998C7.66956 9.99998 7.16085 9.78927 6.78578 9.41419C6.41071 9.03912 6.19999 8.53041 6.19999 7.99998C6.19999 7.46955 6.41071 6.96084 6.78578 6.58577C7.16085 6.21069 7.66956 5.99998 8.19999 5.99998V5.99998Z"
      fill="currentColor" />
  </g>
  <defs>
    <clipPath id="clip0_330_21831">
      <rect width="16" height="16" fill="white" transform="translate(0.200012)" />
    </clipPath>
  </defs>
</svg>