<svg width="17" height="16" color="#8D92A1" viewBox="0 0 17 16" fill="none" xmlns="http://www.w3.org/2000/svg">
<path d="M7.54609 8.6438C7.60533 8.63994 11.7899 8.29863 12.0681 8.34242C12.3463 8.3875 13.4604 8.35401 13.5157 8.78805C13.5711 9.21694 13.5157 9.63424 13.5157 9.63424C13.5157 9.63424 11.0429 10.0683 10.9875 10.1249C10.9321 10.1803 10.7312 10.3812 10.7428 10.6813C10.7544 10.9827 10.7544 12.1522 10.7647 12.1857C10.7763 12.2192 10.8316 12.442 11.2554 12.3969C11.589 12.3621 11.9213 12.2436 12.0488 12.196C12.081 12.1831 12.1016 12.1522 12.0977 12.1174L12.0745 11.816C12.0707 11.7697 12.0269 11.7362 11.9818 11.7452L11.3443 11.8727V10.6697L13.4101 10.2962C13.4539 10.2885 13.4951 10.3207 13.4964 10.3658L13.5647 12.4033C13.5647 12.4033 13.6819 12.9095 12.8138 13.0885C11.9457 13.2675 9.86311 13.7905 9.66219 13.8008C9.46127 13.8123 9.12769 13.8123 8.78252 13.7222C8.5391 13.6591 8.239 13.5457 8.08445 13.4852C8.03164 13.4646 8.01361 13.3989 8.0471 13.3538L8.80699 12.3209C8.83532 12.2835 8.84949 12.2372 8.84949 12.1908V11.0523C8.84949 10.993 8.82631 10.9376 8.78638 10.8951L7.1597 9.18474C7.11591 9.13837 7.09659 9.07526 7.10561 9.01215C7.12493 8.87692 7.21122 8.66312 7.54609 8.6438Z" fill="currentColor"/>
<path d="M6.44489 9.34316C6.41655 9.31354 6.3792 9.2955 6.33928 9.28906L3.41692 8.86018C3.3757 8.85245 3.3332 8.85631 3.29585 8.87434C3.16834 8.93359 2.89014 9.10875 2.79999 9.54279V12.9765C2.79999 12.9765 2.8412 13.6617 3.78527 13.9785C4.72934 14.2953 5.88205 14.58 5.88205 14.58C5.88205 14.58 6.52474 14.7049 6.78491 14.1794C7.04379 13.6526 8.28022 12.1496 8.28022 12.1496V11.239L6.44489 9.34316ZM5.68242 13.4363C5.38104 13.4285 4.1562 13.2598 3.76981 12.9095C3.41949 12.5927 3.59465 10.094 3.59465 10.094C3.59465 10.094 3.60109 9.80424 3.76981 9.83516L5.71591 10.1855C5.71591 10.1855 5.95804 10.3272 5.95804 10.5281V13.2263C5.95804 13.2276 5.9838 13.4453 5.68242 13.4363ZM14 5.44968C14 4.11665 12.9709 3.03478 11.701 3.03478C10.9772 3.03478 10.3306 3.38639 9.90948 3.93634C9.57203 2.48224 8.36522 1.40552 6.92787 1.40552C5.23035 1.40552 3.85353 2.90727 3.85353 4.75934C3.85353 6.61141 5.23035 8.11316 6.92787 8.11316C7.01674 8.11316 7.10561 8.10801 7.19319 8.099L11.7873 7.86201C11.8079 7.86073 11.8272 7.86073 11.8478 7.85944L11.9122 7.85557L11.911 7.85429C13.0817 7.74224 14 6.70801 14 5.44968ZM7.51518 6.64361C6.65611 6.64361 5.95933 5.84251 5.95933 4.85336C5.95933 3.86422 6.65611 3.06311 7.51518 3.06311C8.37424 3.06311 9.07102 3.86422 9.07102 4.85336C9.07102 5.84251 8.37424 6.64361 7.51518 6.64361ZM12.0655 6.56118C11.4988 6.56118 11.039 6.03312 11.039 5.38013C11.039 4.72714 11.4988 4.19908 12.0655 4.19908C12.6322 4.19908 13.092 4.72714 13.092 5.38013C13.092 6.03312 12.6322 6.56118 12.0655 6.56118Z" fill="currentColor"/>
</svg>
