<svg width="17" height="16" color="#8D92A1" viewBox="0 0 17 16" fill="none" xmlns="http://www.w3.org/2000/svg">
<g clip-path="url(#clip0_330_21855)">
<path d="M13.042 7.22666C13.0418 7.31955 13.0048 7.40857 12.939 7.47419C12.8733 7.53981 12.7842 7.57666 12.6913 7.57666H11.7167V8.20199H12.6913C12.7385 8.19993 12.7857 8.20745 12.8299 8.22409C12.8741 8.24074 12.9145 8.26616 12.9486 8.29883C12.9827 8.3315 13.0099 8.37075 13.0285 8.4142C13.047 8.45765 13.0566 8.50441 13.0566 8.55166C13.0566 8.59891 13.047 8.64567 13.0285 8.68912C13.0099 8.73257 12.9827 8.77182 12.9486 8.80449C12.9145 8.83716 12.8741 8.86259 12.8299 8.87923C12.7857 8.89587 12.7385 8.90339 12.6913 8.90133H11.3667C11.2743 8.90063 11.186 8.86355 11.1209 8.79816C11.0557 8.73276 11.019 8.64431 11.0187 8.55199V5.90133C11.0187 5.70999 11.1753 5.55133 11.3687 5.55133H12.694C12.7868 5.55159 12.8757 5.58872 12.9412 5.65455C13.0066 5.72037 13.0433 5.8095 13.043 5.90233C13.0427 5.99515 13.0056 6.08407 12.9398 6.14952C12.8739 6.21497 12.7848 6.25159 12.692 6.25133H11.7173V6.87666H12.692C12.886 6.87666 13.0427 7.03466 13.0427 7.22666H13.042ZM10.31 8.88333C10.2742 8.89464 10.2369 8.90026 10.1993 8.89999C10.1444 8.90121 10.0901 8.88925 10.0408 8.86513C9.99149 8.841 9.94869 8.80541 9.91599 8.76133L8.55865 6.91866V8.55199C8.55199 8.63999 8.51232 8.72222 8.44761 8.78222C8.38289 8.84222 8.2979 8.87556 8.20965 8.87556C8.1214 8.87556 8.03641 8.84222 7.9717 8.78222C7.90698 8.72222 7.86732 8.63999 7.86065 8.55199V5.90133C7.86048 5.80915 7.89688 5.72066 7.96187 5.65529C8.02687 5.58993 8.11514 5.55301 8.20732 5.55266C8.31532 5.55266 8.41532 5.60999 8.48199 5.69333L9.84999 7.54333V5.90133C9.84999 5.70999 10.0067 5.55133 10.2 5.55133C10.3913 5.55133 10.55 5.70999 10.55 5.90133V8.55199C10.5499 8.62544 10.5266 8.69699 10.4836 8.75647C10.4405 8.81595 10.3797 8.86034 10.31 8.88333ZM7.00999 8.90133C6.91756 8.9008 6.82908 8.86381 6.76379 8.79839C6.69849 8.73297 6.66167 8.64442 6.66132 8.55199V5.90133C6.66132 5.70999 6.81865 5.55133 7.01132 5.55133C7.20399 5.55133 7.36065 5.70999 7.36065 5.90133V8.55199C7.36012 8.64471 7.32297 8.73346 7.25728 8.7989C7.1916 8.86434 7.1027 8.90115 7.00999 8.90133ZM5.98999 8.90133H4.66532C4.57277 8.9008 4.48415 8.86385 4.41864 8.79847C4.35314 8.73309 4.31602 8.64454 4.31532 8.55199V5.90133C4.32297 5.81378 4.36315 5.73227 4.42795 5.67289C4.49274 5.61351 4.57743 5.58057 4.66532 5.58057C4.7532 5.58057 4.8379 5.61351 4.90269 5.67289C4.96748 5.73227 5.00767 5.81378 5.01532 5.90133V8.20133H5.99132C6.08415 8.20133 6.17317 8.2382 6.23881 8.30384C6.30444 8.36948 6.34132 8.4585 6.34132 8.55133C6.34132 8.64415 6.30444 8.73318 6.23881 8.79881C6.17317 8.86445 6.08415 8.90133 5.99132 8.90133H5.98999ZM8.59999 1.71466C4.92465 1.71466 1.93332 4.14333 1.93332 7.12666C1.93332 9.79999 4.30532 12.0393 7.50865 12.4647C7.72532 12.51 8.02132 12.608 8.09599 12.7927C8.16265 12.9593 8.13999 13.218 8.11732 13.3927L8.02599 13.9593C8.00132 14.126 7.89265 14.618 8.60865 14.3173C9.32599 14.018 12.4513 12.052 13.8513 10.4427C14.8087 9.39266 15.2667 8.31799 15.2667 7.12666C15.2667 4.14333 12.2747 1.71466 8.59999 1.71466Z" fill="currentColor"/>
</g>
<defs>
<clipPath id="clip0_330_21855">
<rect width="16" height="16" fill="white" transform="translate(0.599976)"/>
</clipPath>
</defs>
</svg>
