<svg width="17" height="16" color="#8D92A1" viewBox="0 0 17 16" fill="none" xmlns="http://www.w3.org/2000/svg">
<g clip-path="url(#clip0_332_21911)">
<path d="M12.6233 12.226H10.8467V9.44133C10.8467 8.77733 10.8333 7.92267 9.91999 7.92267C8.99399 7.92267 8.85266 8.64533 8.85266 9.39267V12.226H7.07533V6.5H8.78199V7.28H8.80533C9.04399 6.83067 9.62399 6.35533 10.4907 6.35533C12.2907 6.35533 12.624 7.54067 12.624 9.08267V12.226H12.6233ZM5.06866 5.71667C4.93303 5.71684 4.7987 5.69025 4.67337 5.6384C4.54804 5.58656 4.43417 5.51049 4.3383 5.41456C4.24242 5.31862 4.16643 5.20471 4.11467 5.07934C4.06291 4.95398 4.0364 4.81963 4.03666 4.684C4.03679 4.47989 4.09745 4.2804 4.21095 4.11076C4.32446 3.94113 4.48572 3.80896 4.67435 3.73097C4.86297 3.65298 5.07048 3.63268 5.27065 3.67263C5.47081 3.71258 5.65463 3.81098 5.79887 3.9554C5.9431 4.09983 6.04127 4.28377 6.08096 4.48399C6.12065 4.6842 6.10008 4.89169 6.02185 5.08021C5.94362 5.26873 5.81124 5.42983 5.64145 5.54311C5.47167 5.6564 5.2721 5.7168 5.06799 5.71667H5.06866ZM5.95933 12.226H4.17733V6.5H5.95999V12.226H5.95933ZM13.5133 2H3.28599C2.79533 2 2.39999 2.38667 2.39999 2.86467V13.1353C2.39999 13.6133 2.79599 14 3.28533 14H13.5107C14 14 14.4 13.6133 14.4 13.1353V2.86467C14.4 2.38667 14 2 13.5107 2H13.5127H13.5133Z" fill="currentColor"/>
</g>
<defs>
<clipPath id="clip0_332_21911">
<rect width="16" height="16" fill="white" transform="translate(0.399994)"/>
</clipPath>
</defs>
</svg>
