<svg width="17" height="16" color="#8D92A1" viewBox="0 0 17 16" fill="none" xmlns="http://www.w3.org/2000/svg">
<g clip-path="url(#clip0_332_21908)">
<path d="M9.11335 1.39597C7.51819 1.17654 5.89751 1.54167 4.55057 2.42394C3.20362 3.30621 2.22138 4.64604 1.78521 6.19601C1.34905 7.74599 1.48842 9.40144 2.17759 10.8567C2.86676 12.3119 4.05919 13.4686 5.53468 14.1133C5.49478 13.6012 5.5314 13.086 5.64335 12.5846C5.76668 12.0253 6.50735 8.94264 6.50735 8.94264C6.35986 8.61203 6.28615 8.25327 6.29135 7.8913C6.29135 6.9013 6.86268 6.16264 7.57335 6.16264C7.70102 6.16078 7.82759 6.18643 7.94446 6.23786C8.06134 6.28928 8.16576 6.36527 8.25065 6.46065C8.33553 6.55604 8.39888 6.66858 8.43639 6.79063C8.4739 6.91268 8.48468 7.04138 8.46802 7.16797C8.46802 7.76797 8.08268 8.67597 7.88135 9.52797C7.84156 9.68422 7.83903 9.84764 7.87398 10.005C7.90892 10.1625 7.98035 10.3095 8.08252 10.4342C8.18469 10.5589 8.31473 10.6579 8.46217 10.7232C8.60961 10.7885 8.77032 10.8182 8.93135 10.81C10.1967 10.81 11.0447 9.1893 11.0447 7.27597C11.0447 5.8093 10.0733 4.71064 8.28268 4.71064C7.85427 4.69399 7.42693 4.76459 7.02664 4.91814C6.62634 5.07169 6.26142 5.305 5.95405 5.6039C5.64667 5.90279 5.40325 6.26104 5.23856 6.65689C5.07387 7.05273 4.99136 7.47792 4.99601 7.90664C4.97693 8.38219 5.13035 8.84861 5.42801 9.21997C5.48364 9.26149 5.52425 9.31997 5.54373 9.38659C5.56321 9.45321 5.5605 9.52436 5.53601 9.5893C5.50535 9.71197 5.42801 10.0046 5.39735 10.112C5.39097 10.1484 5.37613 10.1828 5.35403 10.2124C5.33193 10.242 5.30318 10.266 5.2701 10.2825C5.23702 10.299 5.20054 10.3074 5.16358 10.3072C5.12663 10.307 5.09024 10.2981 5.05735 10.2813C4.13468 9.91197 3.70001 8.89664 3.70001 7.7373C3.70001 5.8393 5.28935 3.5673 8.46935 3.5673C11 3.5673 12.6827 5.41864 12.6827 7.39864C12.6827 10.0046 11.2313 11.964 9.08668 11.964C8.76614 11.9742 8.44819 11.9035 8.16224 11.7583C7.87628 11.6131 7.63155 11.3981 7.45068 11.1333C7.45068 11.1333 7.06535 12.6773 6.98935 12.9693C6.83421 13.4738 6.60529 13.9525 6.31001 14.39C6.92535 14.5766 7.56468 14.67 8.20735 14.6673C9.08307 14.668 9.95033 14.496 10.7595 14.161C11.5686 13.8261 12.3037 13.3348 12.9227 12.7154C13.5417 12.0959 14.0325 11.3605 14.3669 10.5511C14.7012 9.74173 14.8727 8.87436 14.8713 7.99864C14.8705 6.38864 14.2872 4.8333 13.2291 3.61982C12.171 2.40635 10.7096 1.61668 9.11468 1.39664L9.11335 1.39597Z" fill="currentColor"/>
</g>
<defs>
<clipPath id="clip0_332_21908">
<rect width="16" height="16" fill="white" transform="translate(0.200012)"/>
</clipPath>
</defs>
</svg>
