<svg width="32" height="32" viewBox="0 0 32 32" fill="none" xmlns="http://www.w3.org/2000/svg">
<g opacity="0.1" filter="url(#filter0_b_948_44503)">
<rect width="32" height="32" rx="16" fill="#4C6AFF"/>
</g>
<g clip-path="url(#clip0_948_44503)">
<path d="M15.6494 14.0202C19.3218 14.0202 22.2989 12.8294 22.2989 11.3605C22.2989 9.8915 19.3218 8.70068 15.6494 8.70068C11.9771 8.70068 9 9.8915 9 11.3605C9 12.8294 11.9771 14.0202 15.6494 14.0202Z" fill="#4C6AFF"/>
<path d="M15.6893 15.3902C12.0189 15.3902 9.03992 14.2 9.03992 12.7305V15.3902C9.03992 16.8598 12.0189 18.05 15.6893 18.05C19.3598 18.05 22.3388 16.8598 22.3388 15.3902V12.7305C22.3388 14.2 19.3598 15.3902 15.6893 15.3902Z" fill="#4C6AFF"/>
<path d="M15.6893 19.38C12.0189 19.38 9.03992 18.1897 9.03992 16.7202V19.38C9.03992 20.8495 12.0189 22.0398 15.6893 22.0398C19.3598 22.0398 22.3388 20.8495 22.3388 19.38V16.7202C22.3388 18.1897 19.3598 19.38 15.6893 19.38Z" fill="#4C6AFF"/>
<path d="M21.9331 23.3828C24.7315 23.3828 27 21.1142 27 18.3159C27 15.5175 24.7315 13.249 21.9331 13.249C19.1348 13.249 16.8663 15.5175 16.8663 18.3159C16.8663 21.1142 19.1348 23.3828 21.9331 23.3828Z" fill="#EDF0FF"/>
<path d="M23.8706 14.9417C23.8236 14.9399 23.7707 14.9454 23.7237 14.9436C22.6239 14.9112 21.4666 15.3528 20.5552 16.23L20.526 16.2063C20.2631 15.9931 19.8861 16.0324 19.6729 16.2953C19.4596 16.5582 19.4989 16.9352 19.7618 17.1485L19.791 17.1722C19.12 18.2383 18.9333 19.4611 19.186 20.5379C19.1908 20.5842 19.2029 20.6364 19.2144 20.682C19.2397 20.7328 19.2717 20.783 19.3155 20.8185C19.4762 20.9489 19.7077 20.9247 19.8314 20.7647C19.8432 20.7501 19.8478 20.7296 19.8596 20.715C19.8596 20.715 19.8872 20.6586 19.8917 20.6381C19.9015 20.6037 19.904 20.5633 19.9005 20.5302C20.0621 19.7713 20.4384 18.9565 20.9981 18.1694L24.2481 20.8056C24.511 21.0188 24.888 20.9795 25.1012 20.7166C25.3145 20.4537 25.2752 20.0767 25.0123 19.8635L21.7696 17.2333C22.4375 16.5218 23.1769 15.9834 23.8862 15.6688L23.9113 15.6528C23.9694 15.6333 24.0262 15.6007 24.067 15.5429C24.1973 15.3823 24.1732 15.1508 24.0132 15.0271C23.9694 14.9915 23.9137 14.9706 23.8587 14.9563L23.8706 14.9417Z" fill="#4C6AFF"/>
</g>
<defs>
<filter id="filter0_b_948_44503" x="-9.77778" y="-9.77778" width="51.5556" height="51.5556" filterUnits="userSpaceOnUse" color-interpolation-filters="sRGB">
<feFlood flood-opacity="0" result="BackgroundImageFix"/>
<feGaussianBlur in="BackgroundImageFix" stdDeviation="4.88889"/>
<feComposite in2="SourceAlpha" operator="in" result="effect1_backgroundBlur_948_44503"/>
<feBlend mode="normal" in="SourceGraphic" in2="effect1_backgroundBlur_948_44503" result="shape"/>
</filter>
<clipPath id="clip0_948_44503">
<rect width="18" height="14.6819" fill="white" transform="translate(9 8.70068)"/>
</clipPath>
</defs>
</svg>
