<svg width="32" height="32" viewBox="0 0 32 32" fill="none" xmlns="http://www.w3.org/2000/svg">
<g opacity="0.1" filter="url(#filter0_b_948_44513)">
<rect width="32" height="32" rx="16" fill="#4C6AFF"/>
</g>
<g clip-path="url(#clip0_948_44513)">
<path d="M9.92276 20.395L12.8553 17.4625L14.977 19.5835L18.4053 16.156L19.75 17.5V13.75H16L17.3448 15.0948L14.977 17.4625L12.856 15.3408L9.14651 19.0502C8.71895 18.0903 8.49866 17.0509 8.50001 16C8.50001 11.8578 11.8578 8.5 16 8.5C20.1423 8.5 23.5 11.8578 23.5 16C23.5 20.1423 20.1423 23.5 16 23.5C14.8135 23.5008 13.6438 23.2197 12.5872 22.6798C11.5306 22.14 10.6174 21.3569 9.92276 20.395Z" fill="#4C6AFF"/>
</g>
<defs>
<filter id="filter0_b_948_44513" x="-9.77778" y="-9.77778" width="51.5556" height="51.5556" filterUnits="userSpaceOnUse" color-interpolation-filters="sRGB">
<feFlood flood-opacity="0" result="BackgroundImageFix"/>
<feGaussianBlur in="BackgroundImageFix" stdDeviation="4.88889"/>
<feComposite in2="SourceAlpha" operator="in" result="effect1_backgroundBlur_948_44513"/>
<feBlend mode="normal" in="SourceGraphic" in2="effect1_backgroundBlur_948_44513" result="shape"/>
</filter>
<clipPath id="clip0_948_44513">
<rect width="18" height="18" fill="white" transform="translate(7 7)"/>
</clipPath>
</defs>
</svg>
