<svg width="33" height="33" viewBox="0 0 33 33" fill="none" xmlns="http://www.w3.org/2000/svg">
<g opacity="0.1" filter="url(#filter0_b_942_43683)">
<rect x="0.666626" y="0.25" width="32.0833" height="32.0833" rx="16.0417" fill="#4C6AFF"/>
</g>
<path d="M21.5479 21.1338H19.5121V17.943C19.5121 17.1822 19.4968 16.2029 18.4503 16.2029C17.3892 16.2029 17.2273 17.0309 17.2273 17.8873V21.1338H15.1908V14.5728H17.1463V15.4665H17.1731C17.4465 14.9516 18.1111 14.407 19.1042 14.407C21.1667 14.407 21.5486 15.7652 21.5486 17.5321V21.1338H21.5479ZM12.8915 13.6752C12.7361 13.6754 12.5821 13.6449 12.4385 13.5855C12.2949 13.5261 12.1644 13.4389 12.0546 13.329C11.9447 13.2191 11.8577 13.0886 11.7983 12.9449C11.739 12.8013 11.7087 12.6473 11.709 12.4919C11.7091 12.258 11.7786 12.0295 11.9087 11.8351C12.0387 11.6407 12.2235 11.4893 12.4396 11.3999C12.6558 11.3105 12.8936 11.2873 13.1229 11.3331C13.3523 11.3788 13.5629 11.4916 13.7282 11.6571C13.8934 11.8226 14.0059 12.0333 14.0514 12.2627C14.0969 12.4922 14.0733 12.7299 13.9837 12.9459C13.894 13.1619 13.7423 13.3465 13.5478 13.4763C13.3532 13.6061 13.1246 13.6753 12.8907 13.6752H12.8915ZM13.912 21.1338H11.8701V14.5728H13.9128V21.1338H13.912ZM22.5676 9.4165H10.8488C10.2866 9.4165 9.83362 9.85956 9.83362 10.4073V22.1757C9.83362 22.7234 10.2874 23.1665 10.8481 23.1665H22.5646C23.1253 23.1665 23.5836 22.7234 23.5836 22.1757V10.4073C23.5836 9.85956 23.1253 9.4165 22.5646 9.4165H22.5669H22.5676Z" fill="#4C6AFF"/>
<defs>
<filter id="filter0_b_942_43683" x="-9.11115" y="-9.52778" width="51.6389" height="51.6391" filterUnits="userSpaceOnUse" color-interpolation-filters="sRGB">
<feFlood flood-opacity="0" result="BackgroundImageFix"/>
<feGaussianBlur in="BackgroundImageFix" stdDeviation="4.88889"/>
<feComposite in2="SourceAlpha" operator="in" result="effect1_backgroundBlur_942_43683"/>
<feBlend mode="normal" in="SourceGraphic" in2="effect1_backgroundBlur_942_43683" result="shape"/>
</filter>
</defs>
</svg>
