<svg width="16" height="16" color="#8D92A1" viewBox="0 0 16 16" fill="none" xmlns="http://www.w3.org/2000/svg">
<g clip-path="url(#clip0_773_41970)">
<path d="M8.87332 13.6C7.99178 13.7377 7.09019 13.6653 6.24193 13.3887C5.39367 13.1121 4.62271 12.639 3.99182 12.0081C3.36092 11.3773 2.88791 10.6063 2.6113 9.75803C2.33469 8.90977 2.26228 8.00818 2.39998 7.12665C2.05247 6.46566 1.92549 5.71084 2.03759 4.97253C2.14969 4.23421 2.495 3.55111 3.02306 3.02306C3.55111 2.495 4.23421 2.14969 4.97253 2.03759C5.71084 1.92549 6.46566 2.05247 7.12665 2.39998C8.00818 2.26228 8.90977 2.33469 9.75803 2.6113C10.6063 2.88791 11.3773 3.36092 12.0081 3.99182C12.639 4.62271 13.1121 5.39367 13.3887 6.24193C13.6653 7.09019 13.7377 7.99178 13.6 8.87332C13.9475 9.53431 14.0745 10.2891 13.9624 11.0274C13.8503 11.7658 13.505 12.4489 12.9769 12.9769C12.4489 13.505 11.7658 13.8503 11.0274 13.9624C10.2891 14.0745 9.53431 13.9475 8.87332 13.6ZM8.03465 11.4373H8.00798C9.92265 11.4373 10.8766 10.5133 10.8766 9.27532C10.8766 8.47665 10.5093 7.62798 9.05932 7.30332L7.73732 7.00998C7.23398 6.89532 6.65598 6.74332 6.65598 6.26665C6.65598 5.78998 7.06932 5.45798 7.80532 5.45798C9.29198 5.45798 9.15665 6.47665 9.89265 6.47665C10.2766 6.47665 10.6213 6.24865 10.6213 5.85665C10.6213 4.94332 9.15665 4.25665 7.91732 4.25665C6.56998 4.25665 5.13532 4.82932 5.13532 6.35265C5.13532 7.08465 5.39798 7.86598 6.84198 8.22798L8.63465 8.67532C9.17865 8.80998 9.31332 9.11465 9.31332 9.38998C9.31332 9.84798 8.85732 10.2953 8.03465 10.2953C6.42332 10.2953 6.64932 9.05732 5.78532 9.05732C5.39865 9.05732 5.11665 9.32265 5.11665 9.70465C5.11665 10.4473 6.01798 11.4367 8.03465 11.4367V11.4373Z" fill="currentColor"/>
</g>
<defs>
<clipPath id="clip0_773_41970">
<rect width="16" height="16" fill="white"/>
</clipPath>
</defs>
</svg>
