<svg width="17" height="16" color="#8D92A1" viewBox="0 0 17 16" fill="none" xmlns="http://www.w3.org/2000/svg">
  <g clip-path="url(#clip0_330_21864)">
    <path
      d="M8.71399 14.5093C7.92066 14.5093 7.39132 14.1353 6.91866 13.8053C6.58332 13.5673 6.26799 13.3413 5.89666 13.2787C5.71986 13.2483 5.54071 13.2335 5.36132 13.2347C5.04666 13.2347 4.79666 13.282 4.61866 13.318C4.50532 13.338 4.41066 13.3567 4.33599 13.3567C4.25866 13.3567 4.16066 13.3353 4.12266 13.2047C4.08932 13.098 4.06866 12.9967 4.04799 12.8987C3.99466 12.652 3.94999 12.5007 3.85732 12.4853C2.86466 12.334 2.27066 12.1053 2.15466 11.8347C2.14532 11.8053 2.13399 11.7747 2.13399 11.7513C2.12732 11.668 2.18732 11.6 2.27066 11.5847C3.05799 11.454 3.76532 11.0353 4.36266 10.346C4.82666 9.81067 5.05266 9.29333 5.07332 9.23733C5.07332 9.23067 5.07932 9.23067 5.07932 9.23067C5.19266 8.99667 5.21599 8.79733 5.14732 8.634C5.01999 8.32733 4.59732 8.19667 4.30932 8.10733C4.23532 8.08733 4.17266 8.06333 4.11932 8.04533C3.87266 7.94733 3.46199 7.73867 3.51599 7.45067C3.55466 7.24267 3.83066 7.094 4.05666 7.094C4.11932 7.094 4.17266 7.10333 4.21666 7.12733C4.46999 7.24267 4.69866 7.302 4.89466 7.302C5.13866 7.302 5.25466 7.21 5.28399 7.18067C5.27778 7.0488 5.27 6.91701 5.26066 6.78533C5.20066 5.87533 5.13266 4.746 5.42066 4.09867C6.28599 2.16067 8.12266 2.00533 8.66666 2.00533L8.90399 2H8.93732C9.48066 2 11.3173 2.15133 12.1827 4.09267C12.474 4.74 12.4027 5.87267 12.3427 6.77933L12.3373 6.824C12.3307 6.94533 12.322 7.06133 12.316 7.18067C12.346 7.204 12.4527 7.29333 12.6727 7.296C12.8633 7.29067 13.0713 7.228 13.3087 7.12067C13.3744 7.09226 13.4451 7.0773 13.5167 7.07667C13.6 7.07667 13.6833 7.09667 13.7547 7.12067H13.7607C13.96 7.19533 14.0907 7.33467 14.0907 7.48067C14.0967 7.61733 13.9893 7.82533 13.4813 8.03067C13.428 8.05067 13.3653 8.07533 13.2913 8.09267C13.0087 8.17933 12.5867 8.316 12.4527 8.61933C12.3787 8.77933 12.4087 8.98467 12.5213 9.216C12.5213 9.22267 12.5273 9.22267 12.5273 9.22267C12.56 9.30533 13.4187 11.2553 15.33 11.5733C15.3691 11.5799 15.4044 11.6004 15.4295 11.6311C15.4547 11.6617 15.4679 11.7004 15.4667 11.74C15.4667 11.7693 15.4607 11.7993 15.446 11.826C15.33 12.0993 14.7413 12.322 13.7427 12.4767C13.6507 12.4913 13.606 12.6433 13.5527 12.89C13.5313 12.9928 13.5064 13.0949 13.478 13.196C13.4487 13.294 13.386 13.3473 13.2793 13.3473H13.264C13.196 13.3473 13.104 13.3387 12.982 13.3147C12.7377 13.2626 12.4885 13.2367 12.2387 13.2373C12.0633 13.2373 11.882 13.2527 11.704 13.282C11.3353 13.342 11.0173 13.5707 10.6813 13.8087C10.2033 14.1353 9.67132 14.5093 8.88332 14.5093H8.71399V14.5093Z"
      fill="currentColor" />
  </g>
  <defs>
    <clipPath id="clip0_330_21864">
      <rect width="16" height="16" fill="white" transform="translate(0.799988)" />
    </clipPath>
  </defs>
</svg>