<svg width="17" height="16" color="#8D92A1" viewBox="0 0 17 16" fill="none" xmlns="http://www.w3.org/2000/svg">
<g clip-path="url(#clip0_330_21846)">
<path d="M8.4 14.6666C4.718 14.6666 1.73334 11.682 1.73334 7.99998C1.73334 4.31798 4.718 1.33331 8.4 1.33331C12.082 1.33331 15.0667 4.31798 15.0667 7.99998C15.0667 11.682 12.082 14.6666 8.4 14.6666ZM6.32667 8.77998L6.33534 8.77531L6.91534 10.6886C6.99 10.896 7.09267 10.9333 7.21734 10.916C7.34267 10.8993 7.40867 10.832 7.49067 10.7533L8.28267 9.98798L9.98267 11.2466C10.2933 11.418 10.5167 11.3293 10.594 10.9586L11.6987 5.74398C11.8207 5.25865 11.6073 5.06398 11.2307 5.21865L4.742 7.72531C4.29934 7.90265 4.302 8.15065 4.662 8.26065L6.32667 8.78065V8.77998Z" fill="currentColor"/>
</g>
<defs>
<clipPath id="clip0_330_21846">
<rect width="16" height="16" fill="white" transform="translate(0.399994)"/>
</clipPath>
</defs>
</svg>
