<svg width="17" height="16" color="#8D92A1" viewBox="0 0 17 16" fill="none" xmlns="http://www.w3.org/2000/svg">
<path d="M14.016 6.79551C12.8675 6.79551 11.7505 6.42227 10.8318 5.73184V10.5484C10.8318 13.008 8.93685 15 6.59896 15C4.26107 15 2.36615 13.008 2.36615 10.5484C2.36615 8.08887 4.26107 6.09687 6.59896 6.09687C6.83275 6.09687 7.0597 6.11738 7.28119 6.15566V8.70684C7.06927 8.62344 6.84369 8.58105 6.61674 8.58105C5.57357 8.58105 4.72728 9.46973 4.72728 10.5676C4.72728 11.6641 5.57357 12.5541 6.61674 12.5541C7.65853 12.5541 8.50482 11.6641 8.50482 10.5676V1H10.866C10.866 2.83887 12.2837 4.3291 14.0324 4.3291V6.79414L14.016 6.79551" fill="currentColor"/>
</svg>
