<svg width="16" height="16" color="#8D92A1" viewBox="0 0 16 16" fill="none" xmlns="http://www.w3.org/2000/svg">
<g clip-path="url(#clip0_332_21905)">
<path d="M4.17999 5.08665C5.03794 4.90151 5.80657 4.42805 6.35789 3.74512C6.9092 3.06219 7.20993 2.21101 7.20999 1.33331H9.22999V4.76798H11.6547V7.19198H9.23066V10.828C9.23066 11.1713 9.36199 11.6326 9.83666 11.9393C10.1527 12.144 10.826 12.2446 11.8567 12.2426V14.6666H9.02866C8.6307 14.6667 8.23662 14.5884 7.86892 14.4362C7.50123 14.284 7.16713 14.0608 6.88569 13.7794C6.60426 13.498 6.38102 13.164 6.2287 12.7963C6.07639 12.4287 5.99799 12.0346 5.99799 11.6366V7.19198H4.17999V5.08665Z" fill="currentColor"/>
</g>
<defs>
<clipPath id="clip0_332_21905">
<rect width="16" height="16" fill="white"/>
</clipPath>
</defs>
</svg>
