<svg width="17" height="16" color="#8D92A1" viewBox="0 0 17 16" fill="none" xmlns="http://www.w3.org/2000/svg">
<g clip-path="url(#clip0_332_21914)">
<path d="M15.5747 3.77068C15.0657 3.99581 14.526 4.14366 13.9733 4.20935C14.5558 3.86097 14.9918 3.31269 15.2 2.66668C14.6533 2.99201 14.054 3.22001 13.4293 3.34335C13.0097 2.8944 12.4536 2.59665 11.8473 2.4964C11.241 2.39615 10.6186 2.49901 10.0768 2.78898C9.53505 3.07896 9.10425 3.5398 8.8514 4.09987C8.59855 4.65995 8.53783 5.28787 8.67866 5.88601C7.57006 5.83045 6.48555 5.54236 5.49552 5.04045C4.50549 4.53855 3.63208 3.83404 2.93199 2.97268C2.68419 3.39831 2.55396 3.88216 2.55466 4.37468C2.55466 5.34135 3.04666 6.19535 3.79466 6.69535C3.352 6.68141 2.91908 6.56187 2.53199 6.34668V6.38135C2.53213 7.02515 2.75491 7.64909 3.16256 8.14739C3.57021 8.64568 4.13765 8.98766 4.76866 9.11535C4.35774 9.2267 3.92686 9.24312 3.50866 9.16335C3.68657 9.7175 4.03333 10.2021 4.50039 10.5494C4.96744 10.8967 5.53141 11.0892 6.11333 11.1C5.53498 11.5542 4.87278 11.89 4.16458 12.0881C3.45638 12.2863 2.71608 12.3428 1.98599 12.2547C3.26046 13.0743 4.74406 13.5094 6.25933 13.508C11.388 13.508 14.1927 9.25935 14.1927 5.57468C14.1927 5.45468 14.1893 5.33335 14.184 5.21468C14.7299 4.82012 15.2011 4.33136 15.5753 3.77135L15.5747 3.77068Z" fill="currentColor"/>
</g>
<defs>
<clipPath id="clip0_332_21914">
<rect width="16" height="16" fill="white" transform="translate(0.799988)"/>
</clipPath>
</defs>
</svg>
