<svg width="17" height="16" color="#8D92A1" viewBox="0 0 17 16" fill="none" xmlns="http://www.w3.org/2000/svg">
<path d="M8.33331 1.33337C3.91331 1.33337 2.33331 2.82671 2.33331 7.00004C2.33331 9.87337 3.08665 11.48 4.99998 12.2V14.3334C4.99998 14.3771 5.0086 14.4205 5.02535 14.4609C5.0421 14.5014 5.06666 14.5381 5.09761 14.5691C5.12856 14.6 5.16531 14.6246 5.20575 14.6413C5.24619 14.6581 5.28954 14.6667 5.33331 14.6667H5.53998C5.62132 14.6651 5.69938 14.6343 5.75998 14.58L7.89331 12.6667H8.33331C12.7533 12.6667 14.3333 11.1734 14.3333 7.00004C14.3333 2.82671 12.7533 1.33337 8.33331 1.33337ZM8.16665 5.70671C8.16587 5.65647 8.17692 5.60675 8.19893 5.56158C8.22094 5.51641 8.25327 5.47706 8.29331 5.44671C8.33097 5.41353 8.37619 5.39011 8.42501 5.37848C8.47382 5.36686 8.52475 5.3674 8.57331 5.38004C8.91028 5.45604 9.2188 5.62604 9.46306 5.8703C9.70732 6.11456 9.87731 6.42307 9.95331 6.76004C9.96596 6.8086 9.96649 6.85953 9.95487 6.90835C9.94325 6.95717 9.91982 7.00239 9.88665 7.04004C9.8563 7.08008 9.81694 7.11242 9.77177 7.13442C9.7266 7.15643 9.67689 7.16749 9.62665 7.16671H9.28665C9.21452 7.16671 9.14434 7.14331 9.08665 7.10004C9.02895 7.05677 8.98684 6.99595 8.96665 6.92671C8.92655 6.79451 8.85447 6.67425 8.75678 6.57657C8.6591 6.47889 8.53884 6.40681 8.40665 6.36671C8.33741 6.34651 8.27659 6.30441 8.23331 6.24671C8.19004 6.18901 8.16665 6.11883 8.16665 6.04671V5.70671ZM10.62 9.70671C10.4615 9.9567 10.2282 10.1503 9.95331 10.26C9.85751 10.3013 9.75429 10.3226 9.64998 10.3226C9.54567 10.3226 9.44245 10.3013 9.34665 10.26C7.70151 9.60275 6.33828 8.39046 5.49331 6.83337C5.32524 6.49526 5.17612 6.14806 5.04665 5.79337C5.02462 5.71703 5.00901 5.63898 4.99998 5.56004C5.00976 5.31983 5.10298 5.09054 5.26361 4.91167C5.42423 4.73279 5.6422 4.61552 5.87998 4.58004H6.00665C6.1286 4.58689 6.24425 4.63646 6.33331 4.72004C6.67396 5.04422 6.95194 5.42842 7.15331 5.85337C7.19647 5.93332 7.21011 6.0259 7.19182 6.11489C7.17353 6.20388 7.1245 6.28359 7.05331 6.34004L6.95331 6.42671C6.87784 6.46331 6.81132 6.51602 6.75844 6.58113C6.70556 6.64624 6.66761 6.72216 6.64727 6.80353C6.62692 6.8849 6.62468 6.96975 6.6407 7.05208C6.65672 7.13442 6.69061 7.21223 6.73998 7.28004C7.04479 7.91668 7.5814 8.41275 8.23998 8.66671C8.32166 8.70428 8.41337 8.71419 8.50119 8.69494C8.58901 8.67569 8.66817 8.62833 8.72665 8.56004L8.77331 8.50004C9.03998 8.05337 9.43998 8.10004 9.78665 8.35337L10.4533 8.86671C10.8333 9.13337 10.8333 9.37337 10.62 9.72671V9.70671ZM11.5666 7.04004C11.535 7.07602 11.4961 7.10477 11.4523 7.12433C11.4086 7.14388 11.3612 7.15379 11.3133 7.15337H11C10.9185 7.15255 10.84 7.12247 10.7788 7.06863C10.7176 7.01479 10.6778 6.94077 10.6666 6.86004C10.602 6.29844 10.3483 5.77549 9.94739 5.37696C9.54644 4.97843 9.02197 4.72799 8.45998 4.66671C8.37925 4.65553 8.30523 4.61572 8.25139 4.55454C8.19755 4.49335 8.16747 4.41487 8.16665 4.33337V4.00004C8.16623 3.95215 8.17614 3.90473 8.19569 3.86102C8.21525 3.8173 8.244 3.77831 8.27998 3.74671C8.31377 3.71563 8.35397 3.69235 8.39775 3.67853C8.44152 3.66471 8.4878 3.66067 8.53331 3.66671C9.33645 3.7485 10.0868 4.1049 10.6576 4.67574C11.2285 5.24658 11.5849 5.9969 11.6666 6.80004C11.6701 6.84707 11.6629 6.89428 11.6456 6.93814C11.6283 6.982 11.6013 7.02139 11.5666 7.05337V7.04004Z" fill="currentColor"/>
</svg>
