<svg width="17" height="16" color="#8D92A1" viewBox="0 0 17 16" fill="none" xmlns="http://www.w3.org/2000/svg">
<path d="M13.9201 6.0478C13.5544 6.0478 13.2137 6.34589 13.1635 6.70989L12.7919 9.42064C12.7511 9.7158 12.6094 9.97189 12.3679 10.1889C12.1258 10.4059 11.8534 10.5144 11.5512 10.5144C11.2572 10.5144 11.0186 10.4082 10.8372 10.1953C10.6546 9.98239 10.5846 9.72397 10.6266 9.42005L10.8512 7.77505C10.8582 7.44664 10.6114 7.18997 10.2719 7.18997H9.38236C9.04286 7.18997 8.72494 7.44664 8.64152 7.77505L8.40994 9.42005C8.36895 9.72217 8.21744 9.99838 7.98469 10.1953C7.74319 10.4082 7.47602 10.5144 7.18202 10.5144C7.04523 10.5181 6.90937 10.4908 6.78468 10.4344C6.65999 10.378 6.54972 10.2941 6.46219 10.1889C6.27611 9.97189 6.20377 9.7158 6.24461 9.42064L6.74277 5.8238C6.79586 5.4738 6.58819 5.10747 6.27144 4.9593C6.27144 4.9593 2.52061 3.39597 2.27619 3.29505C2.02827 3.19355 1.74769 3.42105 1.65202 3.80022L1.42277 4.70497C1.32652 5.08355 1.54352 5.51464 1.90344 5.66222L4.41761 6.70289L4.04077 9.42064C3.91419 10.3324 4.12827 11.1117 4.68244 11.7586C5.23661 12.4061 5.96752 12.7293 6.87577 12.7293C7.71402 12.7293 8.47877 12.4476 9.17061 11.8829C9.72302 12.4476 10.4149 12.7293 11.2444 12.7293C12.152 12.7293 12.9722 12.4061 13.706 11.7586C14.4393 11.1117 14.8698 10.3318 14.9958 9.42064C14.9958 9.42064 15.3895 6.55239 15.3971 6.50222C15.4315 6.25197 15.1603 6.0478 14.7951 6.0478H13.9201V6.0478Z" fill="currentColor"/>
</svg>
