<svg width="16" height="16" color="#8D92A1" viewBox="0 0 16 16" fill="none" xmlns="http://www.w3.org/2000/svg">
<g clip-path="url(#clip0_332_22033)">
<path d="M14.362 4.33196C14.6666 5.51996 14.6666 7.99996 14.6666 7.99996C14.6666 7.99996 14.6666 10.48 14.362 11.668C14.1926 12.3246 13.6973 12.8413 13.07 13.016C11.9306 13.3333 7.99998 13.3333 7.99998 13.3333C7.99998 13.3333 4.07131 13.3333 2.92998 13.016C2.29998 12.8386 1.80531 12.3226 1.63798 11.668C1.33331 10.48 1.33331 7.99996 1.33331 7.99996C1.33331 7.99996 1.33331 5.51996 1.63798 4.33196C1.80731 3.67529 2.30265 3.15863 2.92998 2.98396C4.07131 2.66663 7.99998 2.66663 7.99998 2.66663C7.99998 2.66663 11.9306 2.66663 13.07 2.98396C13.7 3.16129 14.1946 3.67729 14.362 4.33196ZM6.66665 10.3333L10.6666 7.99996L6.66665 5.66663V10.3333Z" fill="currentColor"/>
</g>
<defs>
<clipPath id="clip0_332_22033">
<rect width="16" height="16" fill="white"/>
</clipPath>
</defs>
</svg>
