<svg width="16" height="16" viewBox="0 0 16 16" fill="none" xmlns="http://www.w3.org/2000/svg">
<circle cx="8" cy="4.75" r="2.75" stroke="#626E85" stroke-width="1.3"/>
<path d="M12.85 11.9004V13.5504H14.15V11.9004H12.85ZM12.95 13.4504H3.05V14.7504H12.95V13.4504ZM3.15 13.5504V11.9004H1.85V13.5504H3.15ZM5.25 9.80039H10.75V8.50039H5.25V9.80039ZM3.05 13.4504C3.10523 13.4504 3.15 13.4952 3.15 13.5504H1.85C1.85 14.2131 2.38726 14.7504 3.05 14.7504V13.4504ZM12.85 13.5504C12.85 13.4952 12.8948 13.4504 12.95 13.4504V14.7504C13.6127 14.7504 14.15 14.2131 14.15 13.5504H12.85ZM14.15 11.9004C14.15 10.0226 12.6278 8.50039 10.75 8.50039V9.80039C11.9098 9.80039 12.85 10.7406 12.85 11.9004H14.15ZM3.15 11.9004C3.15 10.7406 4.0902 9.80039 5.25 9.80039V8.50039C3.37223 8.50039 1.85 10.0226 1.85 11.9004H3.15Z" fill="#626E85"/>
</svg>
