<svg width="16" height="16" viewBox="0 0 16 16" fill="none" xmlns="http://www.w3.org/2000/svg">
<g clip-path="url(#clip0_13314_9832)">
<path d="M5 6H11" stroke="#6F7485" stroke-width="1.3" stroke-linecap="round"/>
<path d="M5 8.5H8" stroke="#6F7485" stroke-width="1.3" stroke-linecap="round"/>
<path fill-rule="evenodd" clip-rule="evenodd" d="M9.3695 11.7601C9.37076 11.7088 9.39172 11.6599 9.42802 11.6236L13.9677 7.08395C14.1629 6.88868 14.4795 6.88868 14.6748 7.08395C14.87 7.27921 14.87 7.59579 14.6748 7.79105L10.1351 12.3307C10.0988 12.367 10.0499 12.3879 9.99861 12.3892L9.45868 12.4025C9.40155 12.4039 9.35486 12.3572 9.35626 12.3L9.3695 11.7601Z" fill="#6F7485" stroke="#6F7485" stroke-width="0.2"/>
<path fill-rule="evenodd" clip-rule="evenodd" d="M1.85001 2.5001C1.85001 1.86497 2.36488 1.3501 3.00001 1.3501H13C13.6351 1.3501 14.15 1.86497 14.15 2.5001V6.0001C14.15 6.35908 13.859 6.6501 13.5 6.6501C13.141 6.6501 12.85 6.35908 12.85 6.0001V2.6501H3.15001V13.3703H12.85V11.0001C12.85 10.6411 13.141 10.3501 13.5 10.3501C13.859 10.3501 14.15 10.6411 14.15 11.0001V13.5203C14.15 14.1555 13.6351 14.6703 13 14.6703H3.00001C2.36488 14.6703 1.85001 14.1555 1.85001 13.5203V2.5001Z" fill="#6F7485"/>
</g>
<defs>
<clipPath id="clip0_13314_9832">
<rect width="16" height="16" fill="white"/>
</clipPath>
</defs>
</svg>
