<svg width="22" height="22" viewBox="0 0 22 22" fill="none" xmlns="http://www.w3.org/2000/svg">
<circle cx="6" cy="6.24023" r="5" fill="#FDDADF"/>
<path d="M16.0553 12.4443H5.94442C5.14669 12.4443 4.5 13.091 4.5 13.8888V16.0554C4.5 16.8531 5.14669 17.4998 5.94442 17.4998H16.0553C16.8531 17.4998 17.4997 16.8531 17.4997 16.0554V13.8888C17.4997 13.091 16.8531 12.4443 16.0553 12.4443Z" stroke="#263789" stroke-width="1.3" stroke-linecap="round" stroke-linejoin="round"/>
<path d="M9.55546 4.86182H5.94442C5.14669 4.86182 4.5 5.5085 4.5 6.30623V8.47286C4.5 9.27057 5.14669 9.91727 5.94442 9.91727H9.55546" stroke="#263789" stroke-width="1.3" stroke-linecap="round" stroke-linejoin="round"/>
<path d="M14.6111 10.2777C16.2066 10.2777 17.5 8.98429 17.5 7.38883C17.5 5.79337 16.2066 4.5 14.6111 4.5C13.0157 4.5 11.7223 5.79337 11.7223 7.38883C11.7223 8.98429 13.0157 10.2777 14.6111 10.2777Z" stroke="#263789" stroke-width="1.3" stroke-linecap="round" stroke-linejoin="round"/>
<path d="M14.6105 8.47229C15.2088 8.47229 15.6938 7.98727 15.6938 7.38898C15.6938 6.79068 15.2088 6.30566 14.6105 6.30566C14.0122 6.30566 13.5272 6.79068 13.5272 7.38898C13.5272 7.98727 14.0122 8.47229 14.6105 8.47229Z" fill="#263789"/>
</svg>
