<svg width="16" height="16" viewBox="0 0 16 16" fill="none" xmlns="http://www.w3.org/2000/svg">
<path d="M5.80005 2.6C5.80005 2.54477 5.84482 2.5 5.90005 2.5H10.2C10.2553 2.5 10.3 2.54477 10.3 2.6V5.4C10.3 5.45523 10.2553 5.5 10.2 5.5H5.90005C5.84482 5.5 5.80005 5.45523 5.80005 5.4V2.6Z" stroke="#626E85" stroke-width="1.3"/>
<path d="M2.30005 10.6C2.30005 10.5448 2.34482 10.5 2.40005 10.5H6.70005C6.75528 10.5 6.80005 10.5448 6.80005 10.6V13.4C6.80005 13.4552 6.75528 13.5 6.70005 13.5H2.40005C2.34482 13.5 2.30005 13.4552 2.30005 13.4V10.6Z" stroke="#626E85" stroke-width="1.3"/>
<path d="M9.30005 10.6C9.30005 10.5448 9.34482 10.5 9.40005 10.5H13.7C13.7553 10.5 13.8 10.5448 13.8 10.6V13.4C13.8 13.4552 13.7553 13.5 13.7 13.5H9.40005C9.34482 13.5 9.30005 13.4552 9.30005 13.4V10.6Z" stroke="#626E85" stroke-width="1.3"/>
<path d="M8 6V8" stroke="#626E85" stroke-width="1.3" stroke-linecap="round"/>
<path d="M4.5 10.5V8.1C4.5 8.04477 4.54477 8 4.6 8H11.4C11.4552 8 11.5 8.04477 11.5 8.1V10.5" stroke="#626E85" stroke-width="1.3" stroke-linecap="round"/>
</svg>
