<svg width="28" height="16" viewBox="0 0 28 16" fill="none" xmlns="http://www.w3.org/2000/svg">
<path d="M5.61 7.61V13.01H6.32V6.45C6.71 5.71 7.03 4.92 7.29 4.09L6.64 3.79C6.18 5.44 5.43 6.9 4.39 8.18L4.6 8.9C4.96 8.49 5.3 8.06 5.61 7.61ZM7.12 5.54V6.24H9.07C8.59 8.08 7.8 9.58 6.68 10.74L7.05 11.36C8.28 10.03 9.15 8.32 9.65 6.24H9.77V10.25H8.24V10.94H9.77V13H10.48V10.94H12.03V10.25H10.48V6.24H10.6C11.06 8.09 11.91 9.76 13.13 11.24L13.6 10.65C12.44 9.36 11.63 7.89 11.17 6.24H13.21V5.54H10.48V3.82H9.77V5.54H7.12ZM19.33 6.77V7.39H22.14V6.77C22.48 7.14 22.86 7.49 23.29 7.82L23.68 7.22C22.44 6.26 21.56 5.15 21.06 3.87H20.4C19.8 5.26 18.93 6.39 17.81 7.26L18.19 7.84C18.59 7.53 18.97 7.17 19.33 6.77ZM22.11 6.73H19.36C19.88 6.13 20.33 5.41 20.73 4.57C21.07 5.35 21.53 6.07 22.11 6.73ZM18.1 11.96V12.65H23.56V11.96H22.05C22.45 10.86 22.78 9.6 23.06 8.18L22.37 8.01C22.07 9.58 21.73 10.9 21.35 11.96H18.1ZM19.02 8.3L18.4 8.51C18.75 9.41 19.04 10.34 19.26 11.32L19.88 11.17C19.62 10.09 19.34 9.13 19.02 8.3ZM20.56 8.01L19.94 8.2C20.24 9.06 20.48 9.96 20.66 10.89L21.29 10.74C21.07 9.71 20.83 8.8 20.56 8.01ZM16.98 4.95L16.54 8.41H15.36L15.76 5.66L15.1 5.62L14.63 9.05H17.18C17.18 10.57 17.12 11.48 17.02 11.8C16.92 12.1 16.63 12.26 16.15 12.26C16.01 12.26 15.76 12.24 15.41 12.2L15.6 12.84C15.84 12.86 16.08 12.87 16.31 12.87C16.94 12.87 17.35 12.69 17.55 12.35C17.74 12 17.84 10.69 17.84 8.41H17.22L17.7 4.29H14.56V4.95H16.98ZM16.61 9.94C15.95 10.18 15.17 10.37 14.29 10.52L14.38 11.2C15.21 11.04 15.95 10.84 16.61 10.59V9.94Z" fill="#0FD683"/>
<rect x="0.5" y="0.5" width="27" height="15" rx="7.5" stroke="#0FD683"/>
</svg>
