<svg width="32" height="16" viewBox="0 0 32 16" fill="none" xmlns="http://www.w3.org/2000/svg">
<rect width="32" height="16" rx="8" fill="#4C6AFF"/>
<path d="M7.805 7.193V7.897H9.411V9.041H7.222C7.288 8.447 7.332 7.82 7.332 7.16V6.082H9.411V7.193H7.805ZM7.112 9.767H8.652V11.846C8.652 12.11 8.52 12.297 8.256 12.396L8.476 13.089C9.62 12.858 10.61 12.594 11.446 12.286L11.292 11.56C10.764 11.791 10.148 12 9.433 12.176V9.767H10.929C11.765 11.516 13.195 12.649 15.219 13.155L15.604 12.407C14.768 12.231 14.042 11.945 13.404 11.538C13.91 11.252 14.361 10.856 14.757 10.372L14.207 9.833C13.756 10.405 13.283 10.812 12.788 11.076C12.37 10.702 12.007 10.273 11.721 9.767H15.252V9.041H13.162V7.897H14.889V7.193H13.162V6.082H14.691V3.442H6.529V7.16C6.518 9.349 6.133 11.142 5.385 12.528L6.023 13.1C6.529 12.11 6.892 10.999 7.112 9.767ZM12.392 6.082V7.193H10.17V6.082H12.392ZM10.17 9.041V7.897H12.392V9.041H10.17ZM13.899 4.168V5.367H7.332V4.168H13.899ZM21.214 3.013C19.916 4.498 18.299 5.73 16.363 6.72L16.781 7.479C18.739 6.423 20.312 5.169 21.5 3.717C22.798 5.257 24.349 6.511 26.175 7.468L26.604 6.709C24.789 5.807 23.183 4.575 21.786 3.013H21.214ZM18.816 6.39V7.138H24.217V6.39H18.816ZM17.089 8.601V9.371H19.85C19.377 10.273 18.783 11.12 18.079 11.934C17.991 12.022 17.859 12.088 17.661 12.143L17.881 12.836C20.51 12.682 22.677 12.462 24.393 12.187C24.613 12.495 24.811 12.792 24.998 13.089L25.658 12.627C25.119 11.802 24.349 10.834 23.348 9.712L22.732 10.108C23.183 10.614 23.59 11.12 23.964 11.604C22.336 11.824 20.631 11.978 18.838 12.088C19.586 11.307 20.224 10.405 20.752 9.371H25.933V8.601H17.089Z" fill="white"/>
</svg>
