<svg width="22" height="22" viewBox="0 0 22 22" fill="none" xmlns="http://www.w3.org/2000/svg">
<circle cx="11" cy="16" r="5" fill="#EED9FF"/>
<rect x="6.59985" y="10" width="1.6" height="1.6" fill="#263789"/>
<rect x="10.2002" y="10" width="1.6" height="1.6" fill="#263789"/>
<rect x="13.8003" y="10" width="1.6" height="1.6" fill="#263789"/>
<mask id="path-5-inside-1_2243_10136" fill="white">
<path fill-rule="evenodd" clip-rule="evenodd" d="M4.5 5C3.94772 5 3.5 5.44771 3.5 6V15C3.5 15.5523 3.94772 16 4.5 16H8.5L10.6464 18.1464C10.8417 18.3417 11.1583 18.3417 11.3536 18.1464L13.5 16H17.5C18.0523 16 18.5 15.5523 18.5 15V6C18.5 5.44772 18.0523 5 17.5 5H4.5Z"/>
</mask>
<path d="M8.5 16L9.41924 15.0808L9.03848 14.7H8.5V16ZM10.6464 18.1464L11.5657 17.2272L11.5657 17.2272L10.6464 18.1464ZM13.5 16V14.7H12.9615L12.5808 15.0808L13.5 16ZM4.8 6C4.8 6.16569 4.66568 6.3 4.5 6.3V3.7C3.22975 3.7 2.2 4.72974 2.2 6H4.8ZM4.8 15V6H2.2V15H4.8ZM4.5 14.7C4.66569 14.7 4.8 14.8343 4.8 15H2.2C2.2 16.2703 3.22974 17.3 4.5 17.3V14.7ZM8.5 14.7H4.5V17.3H8.5V14.7ZM7.58076 16.9192L9.72721 19.0657L11.5657 17.2272L9.41924 15.0808L7.58076 16.9192ZM9.72721 19.0657C10.4301 19.7686 11.5698 19.7686 12.2728 19.0657L10.4343 17.2272C10.7467 16.9148 11.2533 16.9148 11.5657 17.2272L9.72721 19.0657ZM12.2728 19.0657L14.4192 16.9192L12.5808 15.0808L10.4343 17.2272L12.2728 19.0657ZM17.5 14.7H13.5V17.3H17.5V14.7ZM17.2 15C17.2 14.8343 17.3343 14.7 17.5 14.7V17.3C18.7703 17.3 19.8 16.2703 19.8 15H17.2ZM17.2 6V15H19.8V6H17.2ZM17.5 6.3C17.3343 6.3 17.2 6.16569 17.2 6H19.8C19.8 4.72975 18.7703 3.7 17.5 3.7V6.3ZM4.5 6.3H17.5V3.7H4.5V6.3Z" fill="#263789" mask="url(#path-5-inside-1_2243_10136)"/>
</svg>
