<svg width="22" height="22" viewBox="0 0 22 22" fill="none" xmlns="http://www.w3.org/2000/svg">
<circle cx="11" cy="6" r="5" fill="#D1EDDE"/>
<path fill-rule="evenodd" clip-rule="evenodd" d="M5.6501 5.14961V16.8496H7.5001C7.85908 16.8496 8.1501 17.1406 8.1501 17.4996C8.1501 17.8586 7.85908 18.1496 7.5001 18.1496H5.5001C4.86497 18.1496 4.3501 17.6347 4.3501 16.9996V4.99961C4.3501 4.36448 4.86497 3.84961 5.5001 3.84961H11.793C12.098 3.84961 12.3905 3.97077 12.6062 4.18644L16.3133 7.89354C16.5289 8.10921 16.6501 8.40172 16.6501 8.70672V9.99961C16.6501 10.3586 16.3591 10.6496 16.0001 10.6496C15.6411 10.6496 15.3501 10.3586 15.3501 9.99961V8.76885L11.7309 5.14961H5.6501Z" fill="#263789"/>
<path d="M12 4.5V8.5H16" stroke="#263789" stroke-width="1.3" stroke-linejoin="round"/>
<mask id="path-4-inside-1_2243_9358" fill="white">
<path fill-rule="evenodd" clip-rule="evenodd" d="M11.75 17.9999C10.5074 17.9999 9.5 16.9813 9.5 15.7249C9.5 14.5513 10.3789 13.5853 11.5075 13.463C11.7885 12.335 12.7984 11.5 14.0012 11.5C15.2041 11.5 16.2141 12.3352 16.4949 13.4633C17.6223 13.5868 18.4998 14.5523 18.4998 15.725C18.4998 16.9813 17.4926 17.9998 16.25 18V18H11.75V17.9999Z"/>
</mask>
<path d="M11.75 17.9999H13.05V16.6999H11.75V17.9999ZM11.5075 13.463L11.6475 14.7554L12.5496 14.6576L12.7689 13.7772L11.5075 13.463ZM16.4949 13.4633L15.2334 13.7774L15.4524 14.6569L16.3534 14.7556L16.4949 13.4633ZM16.25 18L16.2499 16.7L14.95 16.7001V18H16.25ZM16.25 18V19.3H17.55V18H16.25ZM11.75 18H10.45V19.3H11.75V18ZM11.75 16.6999C11.2388 16.6999 10.8 16.277 10.8 15.7249H8.2C8.2 17.6857 9.77588 19.2999 11.75 19.2999V16.6999ZM10.8 15.7249C10.8 15.2108 11.1831 14.8057 11.6475 14.7554L11.3674 12.1705C9.57468 12.3648 8.2 13.8918 8.2 15.7249H10.8ZM12.7689 13.7772C12.9113 13.2058 13.4184 12.8 14.0012 12.8V10.2C12.1784 10.2 10.6656 11.4642 10.246 13.1487L12.7689 13.7772ZM14.0012 12.8C14.584 12.8 15.0912 13.2059 15.2334 13.7774L17.7564 13.1492C17.337 11.4644 15.8241 10.2 14.0012 10.2V12.8ZM16.3534 14.7556C16.8173 14.8064 17.1998 15.2112 17.1998 15.725H19.7998C19.7998 13.8933 18.4272 12.3672 16.6365 12.171L16.3534 14.7556ZM17.1998 15.725C17.1998 16.277 16.761 16.6999 16.2499 16.7L16.2501 19.3C18.2241 19.2998 19.7998 17.6857 19.7998 15.725H17.1998ZM14.95 18V18H17.55V18H14.95ZM16.25 16.7H11.75V19.3H16.25V16.7ZM13.05 18V17.9999H10.45V18H13.05Z" fill="#263789" mask="url(#path-4-inside-1_2243_9358)"/>
</svg>
