<svg width="16" height="16" viewBox="0 0 16 16" fill="none" xmlns="http://www.w3.org/2000/svg">
<circle cx="6.5" cy="5.5" r="2.5" stroke="#626E85" stroke-width="1.3"/>
<path d="M10.85 12V13.5H12.15V12H10.85ZM11 13.35H2V14.65H11V13.35ZM2.15 13.5V12H0.85V13.5H2.15ZM4 10.15H9V8.85H4V10.15ZM2 13.35C2.08284 13.35 2.15 13.4172 2.15 13.5H0.85C0.85 14.1351 1.36487 14.65 2 14.65V13.35ZM10.85 13.5C10.85 13.4172 10.9172 13.35 11 13.35V14.65C11.6351 14.65 12.15 14.1351 12.15 13.5H10.85ZM12.15 12C12.15 10.2603 10.7397 8.85 9 8.85V10.15C10.0217 10.15 10.85 10.9783 10.85 12H12.15ZM2.15 12C2.15 10.9783 2.97827 10.15 4 10.15V8.85C2.2603 8.85 0.85 10.2603 0.85 12H2.15Z" fill="#626E85"/>
<path d="M8.86621 1.73199C9.18628 1.58312 9.54312 1.5 9.91937 1.5C11.3001 1.5 12.4194 2.61929 12.4194 4C12.4194 5.05129 11.7705 5.95102 10.8513 6.3205" stroke="#626E85" stroke-width="1.3" stroke-linecap="round"/>
<path d="M10.8496 8H12.4195C13.8002 8 14.9195 9.11929 14.9195 10.5V12C14.9195 12.2761 14.6957 12.5 14.4195 12.5H13.4996" stroke="#626E85" stroke-width="1.3" stroke-linecap="round"/>
</svg>
