<svg width="16" height="16" viewBox="0 0 16 16" fill="none" xmlns="http://www.w3.org/2000/svg">
<g clip-path="url(#clip0_40_7857)">
<path d="M8 14.5C11.5899 14.5 14.5 11.5899 14.5 8C14.5 4.41015 11.5899 1.5 8 1.5C4.41015 1.5 1.5 4.41015 1.5 8C1.5 11.5899 4.41015 14.5 8 14.5Z" stroke="#6F7485" stroke-width="1.3"/>
<path d="M8.24016 8.02945V12.0619H6.92833V8.02945H6.92052V8.02164H6.10742V6.69772H6.92052V6.68991H6.92833V5.87982C6.92833 5.33429 7.00994 4.86632 7.23971 4.53486C7.46907 4.204 7.84706 4.00781 8.44334 4.00781H9.85843V5.32855H8.86397C8.61134 5.32855 8.45469 5.41268 8.36158 5.5422C8.26884 5.67122 8.24016 5.84391 8.24016 6.01918L8.24016 6.69055H8.24797H8.25578L9.78388 6.69055L9.78265 6.69836L9.57448 8.02164H8.24797V8.02945H8.24016Z" fill="#6F7485" stroke="#6F7485" stroke-width="0.015625"/>
</g>
<defs>
<clipPath id="clip0_40_7857">
<rect width="16" height="16" fill="white"/>
</clipPath>
</defs>
</svg>
