<svg width="16" height="16" viewBox="0 0 16 16" fill="none" xmlns="http://www.w3.org/2000/svg">
<path d="M8.46689 4.3L8.0021 4.11571C7.94104 4.26969 7.96021 4.44392 8.05329 4.58094C8.14636 4.71796 8.30125 4.8 8.46689 4.8V4.3ZM11.7 7.53313H11.2C11.2 7.69878 11.282 7.85367 11.4191 7.94674C11.5561 8.03982 11.7303 8.05898 11.8843 7.99793L11.7 7.53313ZM11.7 11.0669L11.8843 10.6021C11.7303 10.5411 11.5561 10.5603 11.4191 10.6533C11.282 10.7464 11.2 10.9013 11.2 11.0669H11.7ZM8.46688 14.3L8.00209 14.1157C7.94103 14.2697 7.9602 14.4439 8.05327 14.581C8.14634 14.718 8.30124 14.8 8.46688 14.8V14.3ZM4.93309 14.3V14.8C5.09874 14.8 5.25363 14.718 5.3467 14.581C5.43978 14.4439 5.45894 14.2697 5.39789 14.1157L4.93309 14.3ZM1.70001 11.0669L1.88431 10.6021C1.73032 10.5411 1.5561 10.5602 1.41907 10.6533C1.28205 10.7464 1.20001 10.9013 1.20001 11.0669H1.70001ZM1.70001 7.53311H1.20001C1.20001 7.69875 1.28205 7.85365 1.41907 7.94672C1.5561 8.03979 1.73032 8.05896 1.8843 7.99791L1.70001 7.53311ZM4.93308 4.3V4.8C5.09873 4.8 5.25362 4.71796 5.34669 4.58094C5.43976 4.44392 5.45893 4.26969 5.39788 4.11571L4.93308 4.3ZM8.93169 4.48429C9.04045 4.20998 9.09999 3.91135 9.09999 3.60002H8.09999C8.09999 3.78308 8.06511 3.95678 8.0021 4.11571L8.93169 4.48429ZM11.2833 3.8H8.46689V4.8H11.2833V3.8ZM12.2 4.71667C12.2 4.21041 11.7896 3.8 11.2833 3.8V4.8C11.2373 4.8 11.2 4.76269 11.2 4.71667H12.2ZM12.2 7.53313V4.71667H11.2V7.53313H12.2ZM12.4 6.90004C12.0887 6.90004 11.79 6.95957 11.5157 7.06834L11.8843 7.99793C12.0432 7.93492 12.2169 7.90004 12.4 7.90004V6.90004ZM14.8 9.30004C14.8 7.97455 13.7255 6.90004 12.4 6.90004V7.90004C13.1732 7.90004 13.8 8.52684 13.8 9.30004H14.8ZM12.4 11.7C13.7255 11.7 14.8 10.6255 14.8 9.30004H13.8C13.8 10.0732 13.1732 10.7 12.4 10.7V11.7ZM11.5157 11.5317C11.79 11.6405 12.0887 11.7 12.4 11.7V10.7C12.2169 10.7 12.0432 10.6652 11.8843 10.6021L11.5157 11.5317ZM12.2 13.8834V11.0669H11.2V13.8834H12.2ZM11.2833 14.8C11.7896 14.8 12.2 14.3896 12.2 13.8834H11.2C11.2 13.8373 11.2373 13.8 11.2833 13.8V14.8ZM8.46688 14.8H11.2833V13.8H8.46688V14.8ZM8.09999 13.6C8.09999 13.7831 8.06511 13.9568 8.00209 14.1157L8.93168 14.4843C9.04045 14.21 9.09999 13.9114 9.09999 13.6H8.09999ZM6.69999 12.2C7.47318 12.2 8.09999 12.8268 8.09999 13.6H9.09999C9.09999 12.2745 8.02547 11.2 6.69999 11.2V12.2ZM5.29999 13.6C5.29999 12.8268 5.92679 12.2 6.69999 12.2V11.2C5.3745 11.2 4.29999 12.2745 4.29999 13.6H5.29999ZM5.39789 14.1157C5.33487 13.9568 5.29999 13.7831 5.29999 13.6H4.29999C4.29999 13.9114 4.35953 14.21 4.4683 14.4843L5.39789 14.1157ZM2.11668 14.8H4.93309V13.8H2.11668V14.8ZM1.20001 13.8834C1.20001 14.3896 1.61042 14.8 2.11668 14.8V13.8C2.1627 13.8 2.20001 13.8373 2.20001 13.8834H1.20001ZM1.20001 11.0669V13.8834H2.20001V11.0669H1.20001ZM2.4 10.7C2.21694 10.7 2.04323 10.6651 1.88431 10.6021L1.51572 11.5317C1.79003 11.6405 2.08867 11.7 2.4 11.7V10.7ZM3.8 9.30001C3.8 10.0732 3.1732 10.7 2.4 10.7V11.7C3.72548 11.7 4.8 10.6255 4.8 9.30001H3.8ZM2.4 7.90001C3.1732 7.90001 3.8 8.52681 3.8 9.30001H4.8C4.8 7.97453 3.72548 6.90001 2.4 6.90001V7.90001ZM1.8843 7.99791C2.04323 7.93489 2.21694 7.90001 2.4 7.90001V6.90001C2.08867 6.90001 1.79003 6.95955 1.51572 7.06831L1.8843 7.99791ZM1.20001 4.71667V7.53311H2.20001V4.71667H1.20001ZM2.11668 3.8C1.61042 3.8 1.20001 4.21041 1.20001 4.71667H2.20001C2.20001 4.76269 2.1627 4.8 2.11668 4.8V3.8ZM4.93308 3.8H2.11668V4.8H4.93308V3.8ZM4.29999 3.60002C4.29999 3.91135 4.35952 4.20998 4.46828 4.48429L5.39788 4.11571C5.33487 3.95678 5.29999 3.78308 5.29999 3.60002H4.29999ZM6.69999 1.20001C5.3745 1.20001 4.29999 2.27453 4.29999 3.60002H5.29999C5.29999 2.82682 5.92679 2.20001 6.69999 2.20001V1.20001ZM9.09999 3.60002C9.09999 2.27453 8.02547 1.20001 6.69999 1.20001V2.20001C7.47318 2.20001 8.09999 2.82682 8.09999 3.60002H9.09999Z" fill="#EBEBEE"/>
</svg>
