<svg width="16" height="16" viewBox="0 0 16 16" fill="none" xmlns="http://www.w3.org/2000/svg">
<g clip-path="url(#clip0_3917_4802)">
<path d="M8 14.5C11.5899 14.5 14.5 11.5899 14.5 8C14.5 4.41015 11.5899 1.5 8 1.5C4.41015 1.5 1.5 4.41015 1.5 8C1.5 11.5899 4.41015 14.5 8 14.5Z" stroke="#6F7485" stroke-width="1.3"/>
<path d="M8.24065 12.0619V8.02945H8.24846V8.02164H9.57496L9.78314 6.69836L9.78437 6.69055L8.24065 12.0619ZM8.24065 12.0619H6.92882V8.02945H6.92101V8.02164H6.10791V6.69772H6.92101V6.68991H6.92882V5.87982C6.92882 5.33429 7.01042 4.86632 7.2402 4.53486C7.46956 4.204 7.84754 4.00781 8.44383 4.00781H9.85892V5.32855H8.86446C8.61182 5.32855 8.45518 5.41268 8.36207 5.5422C8.26933 5.67122 8.24065 5.84391 8.24065 6.01918L8.24065 6.69055H8.24846L8.24065 12.0619ZM8.24846 6.68273L8.24846 6.01918C8.24846 5.66982 8.36301 5.33636 8.86446 5.33636H9.85892L8.24846 6.68273Z" fill="#6F7485" stroke="#6F7485" stroke-width="0.015625"/>
</g>
<defs>
<clipPath id="clip0_3917_4802">
<rect width="16" height="16" fill="white"/>
</clipPath>
</defs>
</svg>
