<svg width="22" height="22" viewBox="0 0 22 22" fill="none" xmlns="http://www.w3.org/2000/svg">
<circle cx="7" cy="7" r="5" fill="#EED9FF"/>
<path d="M5.5 11.78L7.13543 11.5352C8.34602 11.354 9.58168 11.442 10.7543 11.7931V11.7931C11.8706 12.1273 13.0446 12.2234 14.2003 12.0751L16.37 11.7967C16.4443 11.7871 16.5 11.7239 16.5 11.6489V5.14878C16.5 5.08264 16.4388 5.03346 16.3742 5.04767L14.2237 5.52071C13.0667 5.77519 11.8598 5.6727 10.7624 5.22679V5.22679C9.60069 4.75477 8.31814 4.66823 7.10357 4.97992L5.79873 5.31477C5.62293 5.35988 5.5 5.51834 5.5 5.69984V11.78ZM5.5 11.78V17.5" stroke="#263789" stroke-width="1.3" stroke-linecap="round" stroke-linejoin="round"/>
</svg>
