<svg width="22" height="22" viewBox="0 0 22 22" fill="none" xmlns="http://www.w3.org/2000/svg">
<circle cx="16" cy="11" r="5" fill="#FDDADF"/>
<g clip-path="url(#clip0_4839_109980)">
<path d="M11 17.5C14.5899 17.5 17.5 14.5899 17.5 11C17.5 7.41015 14.5899 4.5 11 4.5C7.41015 4.5 4.5 7.41015 4.5 11C4.5 14.5899 7.41015 17.5 11 17.5Z" stroke="#263789" stroke-width="1.3"/>
<path d="M11.2485 10.5295H10.7485V11.0295V14.5697H10.421V11.0295V10.5295H9.92101H9.6001V10.1899H9.92101H10.421V9.68991V8.87982C10.421 8.36415 10.502 8.02104 10.6447 7.81527C10.7607 7.64792 10.9673 7.5 11.4438 7.5H12.3667V7.83636H11.8645C11.4915 7.83636 11.1682 7.96865 10.9624 8.25492C10.78 8.50872 10.7485 8.80671 10.7485 9.01918L10.7485 9.69054L10.7485 10.1905H11.2485H12.2075L12.1542 10.5295H11.2485Z" fill="#263789" stroke="#263789"/>
</g>
<defs>
<clipPath id="clip0_4839_109980">
<rect width="16" height="16" fill="white" transform="translate(3 3)"/>
</clipPath>
</defs>
</svg>
