<svg width="28" height="16" fill="none" xmlns="http://www.w3.org/2000/svg">
  <path d="M4.84 4.23v8.78h.7V4.92h1.65c-.26.83-.63 1.77-1.1 2.81.7.84 1.05 1.61 1.05 2.29 0 .21-.07.36-.19.45-.13.08-.38.13-.75.15-.1 0-.23-.02-.39-.04l.24.73c.72-.01 1.22-.13 1.5-.36.2-.19.31-.5.31-.93-.04-.72-.39-1.52-1.03-2.4.42-.98.78-1.91 1.08-2.81v-.58H4.84Zm4.25 2.5h2.95v1.13H9.09V6.73Zm2.95-.66H9.09V4.92h2.95v1.15Zm-1.8 2.45c.34 1.87 1.35 3.34 3.01 4.4l.4-.63c-.76-.45-1.36-.99-1.82-1.62.57-.29 1.08-.71 1.54-1.25l-.47-.47c-.45.54-.92.94-1.4 1.21-.29-.5-.49-1.05-.61-1.64h1.85V4.24H8.38v7.74c0 .1-.08.18-.22.23l.17.62c1.09-.29 1.99-.59 2.71-.9l-.16-.67c-.59.27-1.19.5-1.79.68V8.52h1.15Zm5.51-1.74V9.6h2.44c-.06.14-.12.29-.19.43-.56.96-1.72 1.77-3.46 2.41l.46.57c1.94-.75 3.19-1.7 3.73-2.86.08-.18.16-.36.23-.55h.52v2.19c0 .7.31 1.05.93 1.05h1.96c.35 0 .6-.09.76-.27.18-.21.3-.8.37-1.76l-.69-.22c-.03.75-.09 1.2-.19 1.36-.08.12-.2.19-.38.19h-1.61c-.29 0-.43-.17-.43-.5V9.6h2.28V6.57h-2.45c.41-.36.82-.8 1.24-1.32V4.7h-3.45c.18-.24.35-.49.51-.75l-.72-.17a9.522 9.522 0 0 1-3.1 2.99l.46.55c.26-.17.52-.35.78-.54Zm3.36-.21h-3.09c.46-.37.88-.77 1.27-1.21h3.04c-.4.46-.8.86-1.22 1.21Zm2.68 2.35h-2.63c.12-.51.18-1.07.2-1.68h2.43v1.68Zm-3.38 0h-1.96V7.24h2.19c-.02.61-.1 1.17-.23 1.68Z" fill="#0FD683"/>
  <rect x=".5" y=".5" width="27" height="15" rx="7.5" stroke="#0FD683"/>
</svg>