<svg width="16" height="16" viewBox="0 0 16 16" fill="none" xmlns="http://www.w3.org/2000/svg">
<mask id="path-1-inside-1_959_2426" fill="white">
<path d="M10.9004 8C10.9004 12.4254 8.00017 15 8.00017 15C8.00017 15 5.09998 12.3868 5.09998 8C5.09998 3.62939 8.00017 1 8.00017 1C8.00017 1 10.9004 3.5 10.9004 8Z"/>
</mask>
<path d="M8.00017 15L7.12996 15.9658L7.99372 16.7441L8.86321 15.9722L8.00017 15ZM8.00017 1L8.84896 0.0153388L7.97845 -0.73505L7.127 0.0368963L8.00017 1ZM9.60037 8C9.60037 9.91992 8.97259 11.4391 8.33839 12.4859C8.02131 13.0093 7.70594 13.4088 7.47528 13.6722C7.36026 13.8035 7.26727 13.9 7.20706 13.96C7.17699 13.99 7.15521 14.0107 7.14307 14.0221C7.13701 14.0278 7.13336 14.0312 7.13231 14.0321C7.13179 14.0326 7.13191 14.0325 7.13271 14.0318C7.13311 14.0314 7.13367 14.0309 7.13441 14.0302C7.13478 14.0299 7.13519 14.0295 7.13564 14.0291C7.13587 14.0289 7.13624 14.0286 7.13635 14.0285C7.13674 14.0282 7.13713 14.0278 8.00017 15C8.86321 15.9722 8.86363 15.9718 8.86405 15.9714C8.86421 15.9713 8.86465 15.9709 8.86497 15.9706C8.8656 15.9701 8.86627 15.9695 8.86699 15.9688C8.86843 15.9675 8.87005 15.9661 8.87184 15.9645C8.87542 15.9613 8.87971 15.9574 8.88467 15.9529C8.89459 15.9438 8.90724 15.9321 8.92241 15.9179C8.95276 15.8894 8.99328 15.8505 9.04251 15.8015C9.14091 15.7034 9.2745 15.5641 9.43137 15.385C9.7445 15.0274 10.1542 14.5065 10.5621 13.8331C11.378 12.4863 12.2004 10.5055 12.2004 8H9.60037ZM8.00017 15C8.87038 14.0342 8.87076 14.0346 8.87114 14.0349C8.87125 14.035 8.87161 14.0353 8.87183 14.0355C8.87227 14.0359 8.87266 14.0363 8.87301 14.0366C8.87372 14.0372 8.87425 14.0377 8.87462 14.0381C8.87536 14.0387 8.87542 14.0388 8.87483 14.0382C8.87366 14.0372 8.86989 14.0337 8.8637 14.0278C8.85131 14.016 8.82927 13.9947 8.79894 13.9641C8.73821 13.9028 8.6447 13.8047 8.52915 13.6714C8.29743 13.4042 7.98106 13.0003 7.66315 12.4734C7.02673 11.4187 6.39998 9.89905 6.39998 8H3.79998C3.79998 10.4877 4.62332 12.4681 5.43699 13.8167C5.84413 14.4914 6.25282 15.015 6.56488 15.3749C6.72122 15.5551 6.85429 15.6955 6.95217 15.7942C7.00114 15.8436 7.04141 15.8828 7.0715 15.9114C7.08655 15.9257 7.09907 15.9374 7.10887 15.9465C7.11377 15.951 7.11799 15.9549 7.12152 15.9581C7.12328 15.9597 7.12486 15.9612 7.12627 15.9624C7.12698 15.9631 7.12764 15.9637 7.12825 15.9642C7.12856 15.9645 7.12899 15.9649 7.12914 15.965C7.12956 15.9654 7.12996 15.9658 8.00017 15ZM6.39998 8C6.39998 6.10969 7.0263 4.58989 7.66365 3.5318C7.9819 3.00346 8.29868 2.59768 8.53085 2.32888C8.64661 2.19485 8.74034 2.09603 8.80128 2.03422C8.83172 2.00335 8.85386 1.98183 8.86635 1.96987C8.8726 1.9639 8.87642 1.96033 8.87764 1.95919C8.87825 1.95862 8.87822 1.95866 8.87751 1.95931C8.87715 1.95963 8.87663 1.96011 8.87594 1.96074C8.87559 1.96106 8.8752 1.96142 8.87477 1.96181C8.87455 1.962 8.8742 1.96233 8.87409 1.96243C8.87372 1.96276 8.87334 1.9631 8.00017 1C7.127 0.0368963 7.1266 0.0372596 7.12619 0.0376329C7.12603 0.037771 7.12561 0.0381554 7.12531 0.038432C7.1247 0.0389856 7.12404 0.0395807 7.12335 0.0402175C7.12195 0.0414911 7.12038 0.0429311 7.11863 0.0445372C7.11513 0.0477494 7.11094 0.0516263 7.10606 0.0561649C7.09631 0.065241 7.08384 0.0769681 7.06885 0.0913196C7.03886 0.120016 6.99869 0.15925 6.94983 0.208813C6.85216 0.307871 6.71931 0.448617 6.56318 0.629384C6.25156 0.990178 5.84329 1.51491 5.4365 2.19024C4.62375 3.5395 3.79998 5.5197 3.79998 8H6.39998ZM8.00017 1C7.15138 1.98466 7.15096 1.9843 7.15056 1.98395C7.15044 1.98385 7.15004 1.9835 7.1498 1.98329C7.14932 1.98288 7.14887 1.98249 7.14848 1.98215C7.14768 1.98145 7.14705 1.98091 7.14659 1.98051C7.14567 1.9797 7.14542 1.97948 7.14582 1.97983C7.14663 1.98055 7.15002 1.98357 7.15583 1.98888C7.16746 1.99951 7.18874 2.01926 7.21829 2.04802C7.27747 2.10559 7.3694 2.19877 7.48337 2.32649C7.7119 2.58258 8.02528 2.9733 8.34073 3.48995C8.97061 4.52157 9.60037 6.03976 9.60037 8H12.2004C12.2004 5.46024 11.38 3.47843 10.5598 2.13505C10.1502 1.4642 9.73854 0.948666 9.42328 0.595381C9.26536 0.418416 9.13072 0.281134 9.03129 0.184406C8.98154 0.136009 8.9405 0.0976612 8.90965 0.0694726C8.89422 0.0553748 8.88133 0.043807 8.87116 0.0347831C8.86607 0.0302708 8.86166 0.0263933 8.85795 0.0231524C8.8561 0.0215318 8.85442 0.0200703 8.85292 0.018768C8.85217 0.0181169 8.85147 0.0175055 8.85081 0.016934C8.85048 0.0166485 8.85001 0.0162491 8.84985 0.0161065C8.8494 0.0157178 8.84896 0.0153388 8.00017 1Z" fill="#626E85" mask="url(#path-1-inside-1_959_2426)"/>
<circle cx="8" cy="8" r="6.35" stroke="#626E85" stroke-width="1.3"/>
<path d="M1 8H15" stroke="#626E85" stroke-width="1.3"/>
</svg>
