<svg viewBox="0 0 16 16" fill="none" xmlns="http://www.w3.org/2000/svg">
  <path d="M8 16C3.58172 16 0 12.4182 0 8C0 3.58172 3.58172 0 8 0C12.4182 0 16 3.58172 16 8C16 12.4182 12.4182 16 8 16Z"
    fill="#4C6AFF" />
  <path fill-rule="evenodd" clip-rule="evenodd"
    d="M11.6845 4.016L6.62678 5.96128C6.32079 6.07897 6.07897 6.32078 5.96129 6.62677L4.016 11.6845C3.94392 11.8719 4.12806 12.0561 4.31547 11.984L9.37322 10.0387C9.67921 9.921 9.92102 9.67919 10.0387 9.3732L11.984 4.31547C12.0561 4.12806 11.8719 3.94392 11.6845 4.016ZM7.99998 8.92689C7.48804 8.92689 7.07306 8.51191 7.07306 7.99997C7.07306 7.48803 7.48804 7.07305 7.99998 7.07305C8.51193 7.07305 8.92691 7.48803 8.92691 7.99997C8.92691 8.51191 8.51193 8.92689 7.99998 8.92689Z"
    fill="white" />
</svg>