<svg width="16" height="16" viewBox="0 0 16 16" fill="none" xmlns="http://www.w3.org/2000/svg">
<circle cx="8" cy="8" r="6.5" fill="white" stroke="white"/>
<path d="M8 8.5V7.75C7.58579 7.75 7.25 8.08579 7.25 8.5H8ZM5.25 6.5C5.25 6.91421 5.58579 7.25 6 7.25C6.41421 7.25 6.75 6.91421 6.75 6.5H5.25ZM7.25 9.70001C7.25 10.1142 7.58579 10.45 8 10.45C8.41421 10.45 8.75 10.1142 8.75 9.70001H7.25ZM9.25 6.5C9.25 7.19036 8.69036 7.75 8 7.75V9.25C9.51878 9.25 10.75 8.01878 10.75 6.5H9.25ZM6.75 6.5C6.75 5.80964 7.30964 5.25 8 5.25V3.75C6.48122 3.75 5.25 4.98122 5.25 6.5H6.75ZM8 5.25C8.69036 5.25 9.25 5.80964 9.25 6.5H10.75C10.75 4.98122 9.51878 3.75 8 3.75V5.25ZM7.25 8.5V9.70001H8.75V8.5H7.25Z" fill="#373B52"/>
<path d="M7.99988 12.5002C8.38648 12.5002 8.69988 12.1868 8.69988 11.8002C8.69988 11.4136 8.38648 11.1002 7.99988 11.1002C7.61328 11.1002 7.29988 11.4136 7.29988 11.8002C7.29988 12.1868 7.61328 12.5002 7.99988 12.5002Z" fill="#373B52" stroke="#373B52" stroke-width="0.2"/>
</svg>
