<svg width="22" height="22" viewBox="0 0 22 22" fill="none" xmlns="http://www.w3.org/2000/svg">
<path d="M16 21C18.7614 21 21 18.7614 21 16C21 13.2386 18.7614 11 16 11C13.2386 11 11 13.2386 11 16C11 18.7614 13.2386 21 16 21Z" fill="#D1E4FF"/>
<path d="M6.45466 6.33082H5.94257V6.58575L6.14597 6.73942L6.45466 6.33082ZM11.2342 9.94176L10.9255 10.3504C11.1086 10.4887 11.3613 10.4883 11.544 10.3495L11.2342 9.94176ZM5.74561 9.42966C5.46278 9.42966 5.23351 9.65893 5.23351 9.94176C5.23351 10.2246 5.46278 10.4539 5.74561 10.4539V9.42966ZM7.71521 10.4539C7.99803 10.4539 8.2273 10.2246 8.2273 9.94176C8.2273 9.65893 7.99803 9.42966 7.71521 9.42966V10.4539ZM6.81576 6.48182H15.9875V5.45763H6.81576V6.48182ZM6.14597 6.73942L10.9255 10.3504L11.5429 9.53316L6.76336 5.92222L6.14597 6.73942ZM11.544 10.3495L16.2973 6.7386L15.6778 5.92304L10.9245 9.53398L11.544 10.3495ZM5.74561 10.4539H7.71521V9.42966H5.74561V10.4539ZM15.8694 6.36365V10.3029H16.8936V6.36365H15.8694ZM15.9875 6.48182C15.9223 6.48182 15.8694 6.42891 15.8694 6.36365H16.8936C16.8936 5.86327 16.4879 5.45763 15.9875 5.45763V6.48182ZM6.81576 5.45763C6.33351 5.45763 5.94257 5.84857 5.94257 6.33082H6.96676C6.96676 6.41422 6.89915 6.48182 6.81576 6.48182V5.45763Z" fill="#263789"/>
<path d="M19.2164 9.73662C19.0537 9.57296 18.8603 9.44305 18.6472 9.35435C18.4342 9.26565 18.2057 9.2199 17.9749 9.21973H17.969C17.7373 9.21904 17.5076 9.26437 17.2935 9.3531C17.0794 9.44183 16.885 9.57219 16.7216 9.73662L13.8393 12.619C13.8075 12.1758 13.6094 11.761 13.2846 11.4578C12.9598 11.1546 12.5324 10.9854 12.0881 10.9841H7.97143C7.19185 10.985 6.44446 11.2951 5.89321 11.8463C5.34196 12.3976 5.03187 13.145 5.03095 13.9246V14.3169L2 17.3004L2.94095 18.0061L6.20714 14.7085V13.9246C6.20765 13.4568 6.3937 13.0084 6.72446 12.6776C7.05521 12.3468 7.50367 12.1608 7.97143 12.1603H12.0881C12.2441 12.1603 12.3936 12.2222 12.5039 12.3325C12.6142 12.4428 12.6762 12.5924 12.6762 12.7484C12.6762 12.9044 12.6142 13.0539 12.5039 13.1642C12.3936 13.2745 12.2441 13.3365 12.0881 13.3365H9.73571V14.5127H12.6343C12.9433 14.5136 13.2495 14.4532 13.5351 14.3348C13.8206 14.2165 14.0799 14.0427 14.2977 13.8235L17.5533 10.5683C17.6077 10.5135 17.6725 10.47 17.7439 10.4404C17.8153 10.4109 17.8918 10.3957 17.969 10.396H17.971C18.0872 10.3964 18.2006 10.4312 18.297 10.4959C18.3933 10.5607 18.4684 10.6526 18.5126 10.7599C18.5569 10.8673 18.5684 10.9854 18.5456 11.0992C18.5229 11.2131 18.4669 11.3177 18.3848 11.3999L14.0247 16.3935C13.8613 16.5579 13.6668 16.6883 13.4526 16.777C13.2385 16.8657 13.0088 16.9111 12.777 16.9104H8.55952V18.0866H12.777C13.1633 18.0877 13.546 18.0121 13.9029 17.8642C14.2598 17.7163 14.5839 17.4991 14.8563 17.2251L19.2164 12.2315C19.3803 12.0677 19.5103 11.8732 19.599 11.6592C19.6877 11.4452 19.7333 11.2157 19.7333 10.9841C19.7333 10.7524 19.6877 10.523 19.599 10.3089C19.5103 10.0949 19.3803 9.90041 19.2164 9.73662Z" fill="#263789"/>
</svg>
