<svg width="16" height="16" viewBox="0 0 16 16" fill="none" xmlns="http://www.w3.org/2000/svg">
<path fill-rule="evenodd" clip-rule="evenodd" d="M3.28568 12.7137C2.6657 12.0953 2.17404 11.3605 1.83893 10.5515C1.50383 9.74255 1.3319 8.87532 1.33301 7.99967C1.33301 4.31767 4.31768 1.33301 7.99968 1.33301C11.6817 1.33301 14.6663 4.31767 14.6663 7.99967C14.6663 11.6817 11.6817 14.6663 7.99968 14.6663H2.54012C2.09467 14.6663 1.87158 14.1278 2.18657 13.8128L3.28568 12.7137ZM11.4502 6.49976C11.4502 6.08554 11.1144 5.74976 10.7002 5.74976C10.286 5.74976 9.9502 6.08554 9.9502 6.49976V9.49976C9.9502 9.91397 10.286 10.2498 10.7002 10.2498C11.1144 10.2498 11.4502 9.91397 11.4502 9.49976V6.49976ZM5.2998 5.74976C5.71402 5.74976 6.0498 6.08554 6.0498 6.49976V9.49976C6.0498 9.91397 5.71402 10.2498 5.2998 10.2498C4.88559 10.2498 4.5498 9.91397 4.5498 9.49976V6.49976C4.5498 6.08554 4.88559 5.74976 5.2998 5.74976ZM8.75 4.49976C8.75 4.08554 8.41421 3.74976 8 3.74976C7.58579 3.74976 7.25 4.08554 7.25 4.49976V11.4998C7.25 11.914 7.58579 12.2498 8 12.2498C8.41421 12.2498 8.75 11.914 8.75 11.4998V4.49976Z" fill="white"/>
</svg>
