<svg width="22" height="22" viewBox="0 0 22 22" fill="none" xmlns="http://www.w3.org/2000/svg">
<circle cx="16" cy="11" r="5" fill="#FDDADF"/>
<g clip-path="url(#clip0_1674_10472)">
<path d="M6 5V4.35C5.64101 4.35 5.35 4.64101 5.35 5H6ZM6 17H5.35C5.35 17.359 5.64101 17.65 6 17.65V17ZM16.35 9C16.35 9.35898 16.641 9.65 17 9.65C17.359 9.65 17.65 9.35898 17.65 9H16.35ZM11 17.65C11.359 17.65 11.65 17.359 11.65 17C11.65 16.641 11.359 16.35 11 16.35V17.65ZM6 5.65H16.5V4.35H6V5.65ZM6.65 17V5H5.35V17H6.65ZM16.35 5.5V9H17.65V5.5H16.35ZM11 16.35H6V17.65H11V16.35ZM16.5 5.65C16.4172 5.65 16.35 5.58284 16.35 5.5H17.65C17.65 4.86487 17.1351 4.35 16.5 4.35V5.65Z" fill="#263789"/>
<path d="M8.5 5V17.5" stroke="#263789" stroke-width="1.3"/>
<path d="M5 8H6" stroke="#263789" stroke-width="1.3" stroke-linecap="round"/>
<path d="M5 11H6" stroke="#263789" stroke-width="1.3" stroke-linecap="round"/>
<path d="M5 14H6" stroke="#263789" stroke-width="1.3" stroke-linecap="round"/>
<circle cx="15.5" cy="14" r="2.35" stroke="#263789" stroke-width="1.3"/>
<path d="M18.1022 15.683C17.8484 15.4291 17.4368 15.4291 17.183 15.683C16.9291 15.9368 16.9291 16.3484 17.183 16.6022L18.1022 15.683ZM17.9608 17.38C18.2146 17.6339 18.6262 17.6339 18.88 17.38C19.1339 17.1262 19.1339 16.7146 18.88 16.4608L17.9608 17.38ZM17.183 16.6022L17.9608 17.38L18.88 16.4608L18.1022 15.683L17.183 16.6022Z" fill="#263789"/>
</g>
<defs>
<clipPath id="clip0_1674_10472">
<rect width="16" height="16" fill="white" transform="translate(3 3)"/>
</clipPath>
</defs>
</svg>
