<svg width="22" height="22" viewBox="0 0 22 22" fill="none" xmlns="http://www.w3.org/2000/svg">
<circle cx="15" cy="14" r="5" fill="#EED9FF"/>
<g clip-path="url(#clip0_2394_10589)">
<path d="M10 15.5C13.5899 15.5 16.5 12.5899 16.5 9C16.5 5.41015 13.5899 2.5 10 2.5C6.41015 2.5 3.5 5.41015 3.5 9C3.5 12.5899 6.41015 15.5 10 15.5Z" stroke="#263789" stroke-width="1.3"/>
<mask id="path-3-inside-1_2394_10589" fill="white">
<path d="M9.36867 6L11.2727 11.7767H9.96067L9.538 10.3753H7.65467L7.22267 11.7767H6L7.91333 6H9.36867ZM13.372 6V11.7767H12.1447V6H13.372ZM8.632 7.18067H8.57333L7.89667 9.44067H9.30133L8.632 7.18067Z"/>
</mask>
<path d="M9.36867 6L11.2727 11.7767H9.96067L9.538 10.3753H7.65467L7.22267 11.7767H6L7.91333 6H9.36867ZM13.372 6V11.7767H12.1447V6H13.372ZM8.632 7.18067H8.57333L7.89667 9.44067H9.30133L8.632 7.18067Z" fill="#3F465C"/>
<path d="M9.36867 6L10.6033 5.59305L10.309 4.7H9.36867V6ZM11.2727 11.7767V13.0767H13.0699L12.5073 11.3697L11.2727 11.7767ZM9.96067 11.7767L8.71605 12.1521L8.99492 13.0767H9.96067V11.7767ZM9.538 10.3753L10.7826 9.99994L10.5037 9.07533H9.538V10.3753ZM7.65467 10.3753V9.07533H6.69506L6.41236 9.99236L7.65467 10.3753ZM7.22267 11.7767V13.0767H8.18228L8.46497 12.1596L7.22267 11.7767ZM6 11.7767L4.76593 11.3679L4.19996 13.0767H6V11.7767ZM7.91333 6V4.7H6.97446L6.67926 5.59125L7.91333 6ZM13.372 6H14.672V4.7H13.372V6ZM13.372 11.7767V13.0767H14.672V11.7767H13.372ZM12.1447 11.7767H10.8447V13.0767H12.1447V11.7767ZM12.1447 6V4.7H10.8447V6H12.1447ZM8.632 7.18067L9.87848 6.8115L9.6028 5.88067H8.632V7.18067ZM8.57333 7.18067V5.88067H7.60555L7.32796 6.80779L8.57333 7.18067ZM7.89667 9.44067L6.65129 9.06779L6.15041 10.7407H7.89667V9.44067ZM9.30133 9.44067V10.7407H11.0422L10.5478 9.0715L9.30133 9.44067ZM8.134 6.40695L10.038 12.1836L12.5073 11.3697L10.6033 5.59305L8.134 6.40695ZM11.2727 10.4767H9.96067V13.0767H11.2727V10.4767ZM11.2053 11.4013L10.7826 9.99994L8.29338 10.7507L8.71605 12.1521L11.2053 11.4013ZM9.538 9.07533H7.65467V11.6753H9.538V9.07533ZM6.41236 9.99236L5.98036 11.3937L8.46497 12.1596L8.89698 10.7583L6.41236 9.99236ZM7.22267 10.4767H6V13.0767H7.22267V10.4767ZM7.23407 12.1854L9.1474 6.40875L6.67926 5.59125L4.76593 11.3679L7.23407 12.1854ZM7.91333 7.3H9.36867V4.7H7.91333V7.3ZM12.072 6V11.7767H14.672V6H12.072ZM13.372 10.4767H12.1447V13.0767H13.372V10.4767ZM13.4447 11.7767V6H10.8447V11.7767H13.4447ZM12.1447 7.3H13.372V4.7H12.1447V7.3ZM8.632 5.88067H8.57333V8.48067H8.632V5.88067ZM7.32796 6.80779L6.65129 9.06779L9.14204 9.81354L9.81871 7.55355L7.32796 6.80779ZM7.89667 10.7407H9.30133V8.14067H7.89667V10.7407ZM10.5478 9.0715L9.87848 6.8115L7.38552 7.54983L8.05485 9.80983L10.5478 9.0715Z" fill="#263789" mask="url(#path-3-inside-1_2394_10589)"/>
</g>
<defs>
<clipPath id="clip0_2394_10589">
<rect width="16" height="16" fill="white" transform="translate(2 1)"/>
</clipPath>
</defs>
</svg>
