<svg width="22" height="22" viewBox="0 0 22 22" fill="none" xmlns="http://www.w3.org/2000/svg">
<circle cx="11" cy="6" r="5" fill="#EED9FF"/>
<path d="M6 5V4.35C5.64101 4.35 5.35 4.64101 5.35 5H6ZM6 17H5.35C5.35 17.359 5.64101 17.65 6 17.65V17ZM6 5.65H16.5V4.35H6V5.65ZM16.35 5.5V16.5H17.65V5.5H16.35ZM16.5 16.35H6V17.65H16.5V16.35ZM6.65 17V5H5.35V17H6.65ZM16.35 16.5C16.35 16.4172 16.4172 16.35 16.5 16.35V17.65C17.1351 17.65 17.65 17.1351 17.65 16.5H16.35ZM16.5 5.65C16.4172 5.65 16.35 5.58284 16.35 5.5H17.65C17.65 4.86487 17.1351 4.35 16.5 4.35V5.65Z" fill="#263789"/>
<path d="M8.5 5V17.5" stroke="#263789" stroke-width="1.3"/>
<path d="M5 8H6" stroke="#263789" stroke-width="1.3" stroke-linecap="round"/>
<path d="M5 11H6" stroke="#263789" stroke-width="1.3" stroke-linecap="round"/>
<path d="M5 14H6" stroke="#263789" stroke-width="1.3" stroke-linecap="round"/>
</svg>
