<svg width="22" height="22" viewBox="0 0 22 22" fill="none" xmlns="http://www.w3.org/2000/svg">
<circle cx="7" cy="7" r="5" fill="#D1E4FF"/>
<path d="M8.79999 5.6C8.79999 5.54477 8.84476 5.5 8.89999 5.5H13.2C13.2552 5.5 13.3 5.54477 13.3 5.6V8.4C13.3 8.45523 13.2552 8.5 13.2 8.5H8.89999C8.84476 8.5 8.79999 8.45523 8.79999 8.4V5.6Z" stroke="#263789" stroke-width="1.3"/>
<path d="M5.29999 13.6C5.29999 13.5448 5.34476 13.5 5.39999 13.5H9.69999C9.75522 13.5 9.79999 13.5448 9.79999 13.6V16.4C9.79999 16.4552 9.75522 16.5 9.69999 16.5H5.39999C5.34476 16.5 5.29999 16.4552 5.29999 16.4V13.6Z" stroke="#263789" stroke-width="1.3"/>
<path d="M12.3 13.6C12.3 13.5448 12.3448 13.5 12.4 13.5H16.7C16.7552 13.5 16.8 13.5448 16.8 13.6V16.4C16.8 16.4552 16.7552 16.5 16.7 16.5H12.4C12.3448 16.5 12.3 16.4552 12.3 16.4V13.6Z" stroke="#263789" stroke-width="1.3"/>
<path d="M11 9V11" stroke="#263789" stroke-width="1.3" stroke-linecap="round"/>
<path d="M7.5 13.5V11.1C7.5 11.0448 7.54477 11 7.6 11H14.4C14.4552 11 14.5 11.0448 14.5 11.1V13.5" stroke="#263789" stroke-width="1.3" stroke-linecap="round"/>
</svg>
