<svg width="22" height="22" viewBox="0 0 22 22" fill="none" xmlns="http://www.w3.org/2000/svg">
<circle cx="7" cy="7" r="5" fill="#EEE4FC"/>
<path d="M5.4 5.95833H4.75V6.23101L4.94454 6.42207L5.4 5.95833ZM11.4667 11.9167L11.0112 12.3804C11.2646 12.6292 11.6707 12.6287 11.9234 12.3792L11.4667 11.9167ZM4.5 9.89167C4.14101 9.89167 3.85 10.1827 3.85 10.5417C3.85 10.9007 4.14101 11.1917 4.5 11.1917V9.89167ZM7 11.1917C7.35899 11.1917 7.65 10.9007 7.65 10.5417C7.65 10.1827 7.35899 9.89167 7 9.89167V11.1917ZM4.5 12.85C4.14101 12.85 3.85 13.141 3.85 13.5C3.85 13.859 4.14101 14.15 4.5 14.15V12.85ZM9 14.15C9.35898 14.15 9.65 13.859 9.65 13.5C9.65 13.141 9.35898 12.85 9 12.85V14.15ZM5.85833 6.15H17.5V4.85H5.85833V6.15ZM17.35 6V16H18.65V6H17.35ZM17.5 15.85H5.9V17.15H17.5V15.85ZM6.05 16V15.85H4.75V16H6.05ZM4.94454 6.42207L11.0112 12.3804L11.9221 11.4529L5.85546 5.49459L4.94454 6.42207ZM11.9234 12.3792L17.9567 6.42082L17.0433 5.49585L11.0099 11.4542L11.9234 12.3792ZM4.5 11.1917H7V9.89167H4.5V11.1917ZM4.5 14.15H9V12.85H4.5V14.15ZM5.9 15.85C5.98284 15.85 6.05 15.9172 6.05 16H4.75C4.75 16.6351 5.26487 17.15 5.9 17.15V15.85ZM17.35 16C17.35 15.9172 17.4172 15.85 17.5 15.85V17.15C18.1351 17.15 18.65 16.6351 18.65 16H17.35ZM17.5 6.15C17.4172 6.15 17.35 6.08284 17.35 6H18.65C18.65 5.36487 18.1351 4.85 17.5 4.85V6.15ZM5.85833 4.85C5.24622 4.85 4.75 5.34622 4.75 5.95833H6.05C6.05 6.06419 5.96419 6.15 5.85833 6.15V4.85Z" fill="#263789"/>
</svg>
