<svg width="22" height="22" viewBox="0 0 22 22" fill="none" xmlns="http://www.w3.org/2000/svg">
<circle cx="15" cy="14" r="5" fill="#EED9FF"/>
<g clip-path="url(#clip0_1054_2750)">
<path d="M3.33301 15C3.33301 15.2761 3.55687 15.5 3.83301 15.5H16.1663C16.4425 15.5 16.6663 15.2761 16.6663 15V11.25V7.5C16.6663 7.22386 16.4425 7 16.1663 7H9.99967H3.83301C3.55686 7 3.33301 7.22386 3.33301 7.5V11.25V15Z" stroke="#263789" stroke-width="1.3"/>
<path d="M3.87005 6.96558C3.5749 6.76124 3.16998 6.83486 2.96564 7.13001C2.7613 7.42516 2.83492 7.83008 3.13007 8.03442L3.87005 6.96558ZM9.99998 12L9.62999 12.5344L10.0152 12.8011L10.39 12.52L9.99998 12ZM16.3901 8.02C16.6772 7.80461 16.7355 7.39719 16.5201 7.11C16.3047 6.82281 15.8973 6.76461 15.6101 6.98L16.3901 8.02ZM3.13007 8.03442L9.62999 12.5344L10.37 11.4656L3.87005 6.96558L3.13007 8.03442ZM10.39 12.52L16.3901 8.02L15.6101 6.98L9.60998 11.48L10.39 12.52Z" fill="#263789"/>
<path d="M6 4.7998H14" stroke="#263789" stroke-width="1.3" stroke-linecap="square" stroke-linejoin="round"/>
<path d="M7.33301 2.59961H12.6663" stroke="#263789" stroke-width="1.3" stroke-linecap="square" stroke-linejoin="round"/>
</g>
<defs>
<clipPath id="clip0_1054_2750">
<rect width="16" height="16" fill="white" transform="translate(2 1)"/>
</clipPath>
</defs>
</svg>
