<svg width="18" height="18" viewBox="0 0 18 18" fill="none" xmlns="http://www.w3.org/2000/svg">
<g opacity="0.5">
<path d="M2.54024 7.59375C2.54024 4.02116 5.4364 1.125 9.00899 1.125C12.5816 1.125 15.4777 4.02116 15.4777 7.59375V7.86707C16.478 8.43976 17.0615 9.5965 16.8498 10.7969C16.6734 11.7972 15.9887 12.5801 15.1082 12.9268C14.799 14.3622 13.7074 15.5066 12.3018 15.8917C12.1346 16.3034 11.7307 16.5938 11.259 16.5938H9.00899C8.38767 16.5938 7.88399 16.0901 7.88399 15.4688C7.88399 14.8474 8.38767 14.3438 9.00899 14.3438H11.259C11.6146 14.3438 11.9316 14.5087 12.1377 14.7662C12.9364 14.5038 13.5772 13.8933 13.8807 13.1142C13.7848 13.1073 13.6884 13.0954 13.5917 13.0783L12.3327 12.8563C12.1102 12.8171 11.9616 12.6049 12.0008 12.3824L12.8355 7.64863C12.8748 7.42613 13.0869 7.27756 13.3094 7.3168L13.7864 7.4009C13.6852 4.8497 11.585 2.8125 9.00899 2.8125C6.43298 2.8125 4.33277 4.84969 4.23156 7.40089L4.70857 7.31678C4.93107 7.27755 5.14325 7.42612 5.18249 7.64862L6.01718 12.3824C6.05641 12.6049 5.90785 12.8171 5.68534 12.8563L4.42636 13.0783C2.89665 13.348 1.43793 12.3266 1.1682 10.7969C0.956529 9.5965 1.53999 8.43977 2.54024 7.86707V7.59375Z" fill="white"/>
</g>
</svg>
