<svg width="20" height="20" viewBox="0 0 20 20" fill="none" xmlns="http://www.w3.org/2000/svg">
<path d="M18.6016 2.57706C17.4294 2.43 13.8741 2.23779 10.6903 4.66988C10.5697 4.76201 10.5 4.90706 10.5 5.05883V17.5C13.6466 15.7518 17.2138 15.4058 18.5026 15.3373C18.7784 15.3227 19 15.0965 19 14.8204V3.04485C19 2.8084 18.8362 2.60649 18.6016 2.57706Z" fill="#3F465C"/>
<path d="M9.49999 5.05701C9.5 4.90524 9.43034 4.762 9.30973 4.66987C6.12586 2.23779 2.57063 2.43 1.39838 2.57706C1.16376 2.60649 1 2.8084 1 3.04485V14.8204C1 15.0965 1.22161 15.3227 1.49737 15.3373C2.78622 15.4058 6.35342 15.7518 9.5 17.5C9.4999 15.3652 9.49992 8.89595 9.49999 5.05701Z" fill="#3F465C"/>
<path d="M12 9.66641V8.10568C12 8.01041 12.0541 7.9231 12.1403 7.88256C13.2772 7.34801 14.3919 7.12162 15.3084 7.03988C15.654 7.00906 15.9732 6.99859 16.2575 7.00015C16.3926 7.00089 16.5 7.11189 16.5 7.24703V8.24618C16.5 8.38775 16.3826 8.50072 16.241 8.50009C16.0021 8.49901 15.7331 8.50795 15.4416 8.53395C14.4407 8.62322 13.1972 8.91124 12 9.66641Z" fill="white"/>
<path d="M12 12.771V11.2103C12 11.115 12.0541 11.0277 12.1403 10.9872C12.8528 10.6522 13.5565 10.4382 14.2083 10.305C14.3602 10.2739 14.5 10.3918 14.5 10.5469V11.5724C14.5 11.6911 14.4165 11.793 14.3009 11.8198C13.5666 11.9901 12.7736 12.283 12 12.771Z" fill="white"/>
</svg>
