<svg width="22" height="22" viewBox="0 0 22 22" fill="none" xmlns="http://www.w3.org/2000/svg">
<circle cx="16" cy="11" r="5" fill="#D1EDDE"/>
<g clip-path="url(#clip0_4839_110007)">
<rect x="5" y="5" width="12" height="12" stroke="#263789" stroke-width="1.3" stroke-linejoin="round"/>
<path d="M14.0001 14.3168H14.1501V14.1668V11.4523C14.1501 10.8846 13.9246 10.3401 13.5231 9.93868C13.1217 9.53723 12.5772 9.3117 12.0095 9.3117C11.5835 9.3117 11.2061 9.45776 10.8927 9.69201V9.64267V9.49267H10.7427H10.0188H9.86882V9.64267V14.1668V14.3168H10.0188H10.7427H10.8927V14.1668V11.4523C10.8927 11.1561 11.0103 10.8721 11.2198 10.6627C11.4292 10.4532 11.7133 10.3356 12.0095 10.3356C12.3056 10.3356 12.5897 10.4532 12.7991 10.6627C13.0086 10.8721 13.1262 11.1561 13.1262 11.4523V14.1668V14.3168H13.2762H14.0001ZM7.84723 9.49267H7.69723V9.64267V14.1668V14.3168H7.84723H8.57109H8.72109V14.1668V9.64267V9.49267H8.57109H7.84723ZM7.71921 8.86586C7.84915 8.9958 8.02539 9.06881 8.20916 9.06881C8.39293 9.06881 8.56917 8.9958 8.69911 8.86586C8.82906 8.73592 8.90206 8.55967 8.90206 8.37591C8.90206 8.19214 8.82906 8.0159 8.69911 7.88595C8.56917 7.75601 8.39293 7.68301 8.20916 7.68301C8.02539 7.68301 7.84915 7.75601 7.71921 7.88595C7.58926 8.0159 7.51626 8.19214 7.51626 8.37591C7.51626 8.55967 7.58926 8.73592 7.71921 8.86586Z" fill="#263789" stroke="#263789" stroke-width="0.3"/>
</g>
<defs>
<clipPath id="clip0_4839_110007">
<rect width="16" height="16" fill="white" transform="translate(3 3)"/>
</clipPath>
</defs>
</svg>
