<svg width="16" height="16" viewBox="0 0 16 16" fill="none" xmlns="http://www.w3.org/2000/svg">
<path d="M2.97374 11.5018L3.06984 11.2157L2.91326 10.9576C2.33279 10.001 2.04307 8.96024 2.04307 7.82184C2.04307 6.99877 2.20385 6.21569 2.52571 5.46708C2.85222 4.70768 3.28624 4.06191 3.82569 3.52246C4.36513 2.98301 5.0109 2.549 5.77031 2.22249C6.51891 1.90063 7.30199 1.73984 8.12507 1.73984C8.94814 1.73984 9.73122 1.90063 10.4798 2.22249C11.2392 2.549 11.885 2.98301 12.4244 3.52246C12.9639 4.06191 13.3979 4.70768 13.7244 5.46709C14.0463 6.21569 14.2071 6.99877 14.2071 7.82184C14.2071 8.64492 14.0463 9.428 13.7244 10.1766C13.3979 10.936 12.9639 11.5818 12.4244 12.1212C11.885 12.6607 11.2392 13.0947 10.4798 13.4212C9.73122 13.7431 8.94814 13.9038 8.12507 13.9038C7.07402 13.9038 6.09597 13.6517 5.18064 13.1455L4.93472 13.0095L4.66719 13.0955L2.16878 13.8985L2.97374 11.5018Z" stroke="#626E85" stroke-width="1.3"/>
<path d="M10.8084 9.08984C10.3054 8.82784 10.0152 8.69684 9.93791 8.69684H9.93641C9.85875 8.69684 9.70391 8.84118 9.47191 9.12984C9.23991 9.41851 9.07925 9.56284 8.98991 9.56284C8.93025 9.56284 8.86475 9.54201 8.79341 9.50034C8.22808 9.21434 7.77875 8.91368 7.44541 8.59834C7.04075 8.21768 6.73725 7.81001 6.53491 7.37534C6.50525 7.32768 6.49041 7.28301 6.49041 7.24134C6.49041 7.18201 6.59308 7.04368 6.79841 6.82634C7.00375 6.60901 7.10641 6.43784 7.10641 6.31284C7.10641 6.27118 7.03208 6.04801 6.88341 5.64334C6.73475 5.23868 6.63658 4.97684 6.58891 4.85784C6.54125 4.73284 6.49508 4.65101 6.45041 4.61234C6.40575 4.57368 6.32691 4.55434 6.21391 4.55434C6.17225 4.55434 6.11575 4.54984 6.04441 4.54084C5.97308 4.53184 5.91958 4.52734 5.88391 4.52734C5.71725 4.52734 5.56241 4.59284 5.41941 4.72384C4.99708 5.12251 4.77691 5.59268 4.75891 6.13434V6.20584C4.75291 6.72351 4.96425 7.30084 5.39291 7.93784C5.84525 8.60484 6.28575 9.15551 6.71441 9.58984C7.14308 10.0242 7.64908 10.3753 8.23241 10.6433C9.02408 11.0123 9.58958 11.1968 9.92891 11.1968C10.2086 11.1972 10.5121 11.1183 10.8394 10.9603C11.1667 10.8023 11.3781 10.6073 11.4734 10.3753C11.5747 10.1193 11.6254 9.89318 11.6254 9.69684C11.6254 9.63718 11.6194 9.59251 11.6074 9.56284C11.5777 9.50951 11.3114 9.35184 10.8084 9.08984Z" fill="#626E85"/>
</svg>
