<svg width="18" height="18" viewBox="0 0 18 18" fill="none" xmlns="http://www.w3.org/2000/svg">
<g opacity="0.5">
<path fill-rule="evenodd" clip-rule="evenodd" d="M2.01943 5.17767C1.65091 5.36193 1.65091 5.88784 2.01944 6.0721L8.55279 9.33878C8.83432 9.47954 9.16569 9.47954 9.44722 9.33878L15.9806 6.0721C16.3491 5.88784 16.3491 5.36193 15.9806 5.17767L9.44722 1.91099C9.16569 1.77023 8.83432 1.77023 8.55279 1.91099L2.01943 5.17767ZM3.59862 7.98669C3.45786 7.91631 3.29217 7.91631 3.15141 7.98669L2.13125 8.49677C1.71666 8.70407 1.71666 9.29571 2.13125 9.503L8.4969 12.6858C8.81362 12.8442 9.18641 12.8442 9.50313 12.6858L15.8688 9.503C16.2834 9.29571 16.2834 8.70407 15.8688 8.49677L14.8486 7.98669C14.7079 7.91631 14.5422 7.91631 14.4014 7.98669L9.50313 10.4358C9.18641 10.5942 8.81362 10.5942 8.4969 10.4358L3.59862 7.98669ZM3.59862 11.3617C3.45786 11.2913 3.29217 11.2913 3.15141 11.3617L2.13125 11.8718C1.71666 12.0791 1.71666 12.6707 2.13125 12.878L8.4969 16.0608C8.81362 16.2192 9.18641 16.2192 9.50313 16.0608L15.8688 12.878C16.2834 12.6707 16.2834 12.0791 15.8688 11.8718L14.8486 11.3617C14.7079 11.2913 14.5422 11.2913 14.4014 11.3617L9.50313 13.8108C9.18641 13.9692 8.81362 13.9692 8.4969 13.8108L3.59862 11.3617Z" fill="white"/>
</g>
</svg>
