<svg width="18" height="18" viewBox="0 0 18 18" fill="none" xmlns="http://www.w3.org/2000/svg">
<g opacity="0.5">
<path d="M9 1.40625C5.8934 1.40625 3.375 3.92465 3.375 7.03125V12.0938H1.96875C1.50276 12.0938 1.125 12.4715 1.125 12.9375C1.125 13.4035 1.50276 13.7812 1.96875 13.7812H16.0312C16.4972 13.7812 16.875 13.4035 16.875 12.9375C16.875 12.4715 16.4972 12.0938 16.0312 12.0938H14.625V7.03125C14.625 3.92465 12.1066 1.40625 9 1.40625Z" fill="white"/>
<path d="M10.4062 16.875C10.8722 16.875 11.25 16.4972 11.25 16.0312C11.25 15.5653 10.8722 15.1875 10.4062 15.1875H7.59375C7.12776 15.1875 6.75 15.5653 6.75 16.0312C6.75 16.4972 7.12776 16.875 7.59375 16.875H10.4062Z" fill="white"/>
</g>
</svg>
