<svg width="20" height="20" viewBox="0 0 20 20" fill="none" xmlns="http://www.w3.org/2000/svg">
<g id="Frame 1597881856">
<path id="Subtract" fill-rule="evenodd" clip-rule="evenodd" d="M10.5258 15.9828L12.6628 19.6841C12.751 19.837 12.98 19.8068 13.0257 19.6363C13.5638 17.6282 15.6279 16.4365 17.6361 16.9745C17.8066 17.0202 17.9472 16.837 17.8589 16.6841L15.9394 13.3594C14.5851 14.8593 12.6706 15.8437 10.5258 15.9828Z" fill="#3F465C"/>
<path id="Subtract_2" fill-rule="evenodd" clip-rule="evenodd" d="M4.06061 13.3594L2.14108 16.6841C2.05282 16.837 2.19344 17.0202 2.36394 16.9745C4.37208 16.4365 6.4362 17.6282 6.97428 19.6363C7.01996 19.8068 7.24898 19.837 7.33723 19.6841L9.47416 15.9828C7.32935 15.8437 5.41492 14.8593 4.06061 13.3594Z" fill="#3F465C"/>
<circle id="Ellipse 1058" cx="10" cy="9" r="6" fill="#3F465C"/>
<circle id="Ellipse 1059" cx="10" cy="9" r="7.5" stroke="#3F465C"/>
<path id="Rectangle 34625365" d="M7.34 8.53516L9.46132 10.6565L12.9969 7.12094" stroke="white" stroke-width="1.5"/>
</g>
</svg>
