<svg width="14" height="14" viewBox="0 0 14 14" fill="none" xmlns="http://www.w3.org/2000/svg">
<path d="M8.83004 10.8489C8.92669 10.8489 9.00504 10.9273 9.00504 11.0239V12.7044C9.00504 12.8562 9.185 12.936 9.2975 12.8342L12.8306 9.63525C12.9091 9.56416 12.907 9.44017 12.8261 9.37183L9.29296 6.38782C9.17919 6.29174 9.00504 6.37261 9.00504 6.52152V7.8814C9.00504 7.97805 8.92669 8.0564 8.83004 8.0564H5.46388C5.36723 8.0564 5.28888 8.13475 5.28888 8.2314V10.6739C5.28888 10.7706 5.36723 10.8489 5.46388 10.8489H8.83004Z" fill="white"/>
<path d="M4.18112 7.70232C4.29459 7.79981 4.47015 7.71918 4.47015 7.56958V6.43412C4.47015 6.33747 4.5485 6.25912 4.64515 6.25912H8.02205C8.1187 6.25912 8.19705 6.18077 8.19705 6.08412V3.64157C8.19705 3.54492 8.1187 3.46657 8.02205 3.46657H4.64515C4.5485 3.46657 4.47015 3.38822 4.47015 3.29157V2.12366C4.47015 1.97236 4.29113 1.89236 4.17841 1.99329L1.07448 4.77266C0.995729 4.84318 0.996999 4.96689 1.07718 5.03577L4.18112 7.70232Z" fill="white"/>
</svg>
