<svg width="22" height="22" viewBox="0 0 22 22" fill="none" xmlns="http://www.w3.org/2000/svg">
<circle cx="15" cy="13.1743" r="5" fill="#EED9FF"/>
<g clip-path="url(#clip0_4855_60554)">
<path d="M8.89062 7.15626H8.34062V7.43006L8.55908 7.5951L8.89062 7.15626ZM13.6702 10.7672L13.3387 11.206C13.5353 11.3546 13.8067 11.3542 14.0029 11.2052L13.6702 10.7672ZM18.7562 7.59422C18.9981 7.41047 19.0452 7.06543 18.8615 6.82356C18.6777 6.58168 18.3327 6.53455 18.0908 6.7183L18.7562 7.59422ZM15 12.7757C14.6962 12.7757 14.45 13.0219 14.45 13.3257C14.45 13.6294 14.6962 13.8757 15 13.8757V12.7757ZM9.25172 7.34517H18.4235V6.24517H9.25172V7.34517ZM8.55908 7.5951L13.3387 11.206L14.0017 10.3284L9.22217 6.71742L8.55908 7.5951ZM14.0029 11.2052L18.7562 7.59422L18.0908 6.7183L13.3375 10.3292L14.0029 11.2052ZM18.2674 7.18909V11.1283H19.3674V7.18909H18.2674ZM18.2674 11.1283V12.8257H19.3674V11.1283H18.2674ZM18.3174 12.7757H15V13.8757H18.3174V12.7757ZM18.2674 12.8257C18.2674 12.7981 18.2898 12.7757 18.3174 12.7757V13.8757C18.8973 13.8757 19.3674 13.4056 19.3674 12.8257H18.2674ZM18.4235 7.34517C18.3373 7.34517 18.2674 7.27529 18.2674 7.18909H19.3674C19.3674 6.66777 18.9448 6.24517 18.4235 6.24517V7.34517ZM9.25172 6.24517C8.74854 6.24517 8.34062 6.65308 8.34062 7.15626H9.44063C9.44063 7.26059 9.35605 7.34517 9.25172 7.34517V6.24517Z" fill="#263789"/>
</g>
<g clip-path="url(#clip1_4855_60554)">
<circle cx="8.42773" cy="7.86377" r="3.9375" fill="white"/>
<circle cx="8.42728" cy="7.86381" r="2.47885" stroke="#263789" stroke-width="1.1"/>
<path fill-rule="evenodd" clip-rule="evenodd" d="M12.8808 15.8506V14.2415C12.8808 13.2784 12.1001 12.4977 11.137 12.4977H5.71875C4.7557 12.4977 3.975 13.2784 3.975 14.2415V15.8506H12.8808ZM13.9808 14.2415V16.4766C13.9808 16.7384 13.7686 16.9506 13.5068 16.9506H3.34896C3.0872 16.9506 2.875 16.7384 2.875 16.4766V14.2415C2.875 12.6709 4.14819 11.3977 5.71875 11.3977H11.137C12.7076 11.3977 13.9808 12.6709 13.9808 14.2415Z" fill="#263789"/>
</g>
<defs>
<clipPath id="clip0_4855_60554">
<rect width="8.60545" height="12.6055" fill="white" transform="translate(11 4.82568)"/>
</clipPath>
<clipPath id="clip1_4855_60554">
<rect width="14" height="14" fill="white" transform="translate(2 3.82568)"/>
</clipPath>
</defs>
</svg>
