<svg width="16" height="16" viewBox="0 0 16 16" fill="none" xmlns="http://www.w3.org/2000/svg">
<mask id="path-1-inside-1_1129_8748" fill="white">
<path d="M3 7.5C3 4.73858 5.23858 2.5 8 2.5C10.7614 2.5 13 4.73858 13 7.5V13.5H3V7.5Z"/>
</mask>
<path d="M13 13.5V14.8H14.3V13.5H13ZM3 13.5H1.7V14.8H3V13.5ZM11.7 7.5V13.5H14.3V7.5H11.7ZM13 12.2H3V14.8H13V12.2ZM4.3 13.5V7.5H1.7V13.5H4.3ZM8 3.8C10.0435 3.8 11.7 5.45655 11.7 7.5H14.3C14.3 4.02061 11.4794 1.2 8 1.2V3.8ZM8 1.2C4.52061 1.2 1.7 4.02061 1.7 7.5H4.3C4.3 5.45655 5.95655 3.8 8 3.8V1.2Z" fill="#626E85" mask="url(#path-1-inside-1_1129_8748)"/>
<path d="M2 13H14" stroke="#626E85" stroke-width="1.3" stroke-linecap="round"/>
<circle cx="8" cy="2.5" r="1" fill="#626E85"/>
<path fill-rule="evenodd" clip-rule="evenodd" d="M6.50006 14C6.50006 14.8284 7.17163 15.5 8.00006 15.5C8.82849 15.5 9.50006 14.8284 9.50006 14H8.20006C8.20006 14.1105 8.11052 14.2 8.00006 14.2C7.8896 14.2 7.80006 14.1105 7.80006 14H6.50006Z" fill="#626E85"/>
</svg>
