<svg width="16" height="16" viewBox="0 0 16 16" fill="none" xmlns="http://www.w3.org/2000/svg">
<path d="M14.25 7V3.5C14.25 3.22386 14.0261 3 13.75 3H2.25C1.97386 3 1.75 3.22386 1.75 3.5V12.5C1.75 12.7761 1.9734 13 2.24954 13C3.38795 13 6.23579 13 8.3 13" stroke="#626E85" stroke-width="1.3" stroke-linecap="round"/>
<path d="M2 3.5L8 9L14 3.5" stroke="#626E85" stroke-width="1.3" stroke-linecap="round"/>
<mask id="path-3-inside-1_1129_815" fill="white">
<path fill-rule="evenodd" clip-rule="evenodd" d="M11.0191 12.1268C10.9727 11.8777 10.9727 11.6223 11.0191 11.3732L10.513 11.0834C10.4042 11.0211 10.3671 10.8822 10.4301 10.7739L10.8966 9.97319C10.9591 9.86606 11.0962 9.82934 11.2038 9.89096L11.7129 10.1825C11.9057 10.0189 12.1284 9.89031 12.3719 9.80438V9.22569C12.3719 9.10105 12.473 9 12.5976 9H13.5337C13.6584 9 13.7594 9.10105 13.7594 9.22569V9.80438C14.0029 9.89031 14.2256 10.0189 14.4185 10.1825L14.9275 9.89096C15.0351 9.82934 15.1723 9.86606 15.2347 9.97319L15.7012 10.7739C15.7643 10.8822 15.7271 11.0211 15.6184 11.0834L15.1122 11.3732C15.1586 11.6223 15.1586 11.8777 15.1122 12.1268L15.6184 12.4166C15.7271 12.4789 15.7643 12.6178 15.7012 12.7261L15.2347 13.5268C15.1723 13.6339 15.0351 13.6707 14.9275 13.609L14.4185 13.3175C14.2242 13.4827 14.0007 13.6109 13.7594 13.6956V14.2743C13.7594 14.399 13.6584 14.5 13.5337 14.5H12.5976C12.473 14.5 12.3719 14.399 12.3719 14.2743V13.6956C12.1306 13.6109 11.9072 13.4827 11.7129 13.3175L11.2038 13.609C11.0962 13.6707 10.9591 13.6339 10.8966 13.5268L10.4301 12.7261C10.3671 12.6178 10.4042 12.4789 10.513 12.4166L11.0191 12.1268ZM13.0657 12.4375C13.248 12.4375 13.4229 12.3651 13.5518 12.2361C13.6807 12.1072 13.7532 11.9323 13.7532 11.75C13.7532 11.5677 13.6807 11.3928 13.5518 11.2639C13.4229 11.1349 13.248 11.0625 13.0657 11.0625C12.8833 11.0625 12.7085 11.1349 12.5795 11.2639C12.4506 11.3928 12.3782 11.5677 12.3782 11.75C12.3782 11.9323 12.4506 12.1072 12.5795 12.2361C12.7085 12.3651 12.8833 12.4375 13.0657 12.4375Z"/>
</mask>
<path fill-rule="evenodd" clip-rule="evenodd" d="M11.0191 12.1268C10.9727 11.8777 10.9727 11.6223 11.0191 11.3732L10.513 11.0834C10.4042 11.0211 10.3671 10.8822 10.4301 10.7739L10.8966 9.97319C10.9591 9.86606 11.0962 9.82934 11.2038 9.89096L11.7129 10.1825C11.9057 10.0189 12.1284 9.89031 12.3719 9.80438V9.22569C12.3719 9.10105 12.473 9 12.5976 9H13.5337C13.6584 9 13.7594 9.10105 13.7594 9.22569V9.80438C14.0029 9.89031 14.2256 10.0189 14.4185 10.1825L14.9275 9.89096C15.0351 9.82934 15.1723 9.86606 15.2347 9.97319L15.7012 10.7739C15.7643 10.8822 15.7271 11.0211 15.6184 11.0834L15.1122 11.3732C15.1586 11.6223 15.1586 11.8777 15.1122 12.1268L15.6184 12.4166C15.7271 12.4789 15.7643 12.6178 15.7012 12.7261L15.2347 13.5268C15.1723 13.6339 15.0351 13.6707 14.9275 13.609L14.4185 13.3175C14.2242 13.4827 14.0007 13.6109 13.7594 13.6956V14.2743C13.7594 14.399 13.6584 14.5 13.5337 14.5H12.5976C12.473 14.5 12.3719 14.399 12.3719 14.2743V13.6956C12.1306 13.6109 11.9072 13.4827 11.7129 13.3175L11.2038 13.609C11.0962 13.6707 10.9591 13.6339 10.8966 13.5268L10.4301 12.7261C10.3671 12.6178 10.4042 12.4789 10.513 12.4166L11.0191 12.1268ZM13.0657 12.4375C13.248 12.4375 13.4229 12.3651 13.5518 12.2361C13.6807 12.1072 13.7532 11.9323 13.7532 11.75C13.7532 11.5677 13.6807 11.3928 13.5518 11.2639C13.4229 11.1349 13.248 11.0625 13.0657 11.0625C12.8833 11.0625 12.7085 11.1349 12.5795 11.2639C12.4506 11.3928 12.3782 11.5677 12.3782 11.75C12.3782 11.9323 12.4506 12.1072 12.5795 12.2361C12.7085 12.3651 12.8833 12.4375 13.0657 12.4375Z" fill="#37435C"/>
<path d="M11.0191 11.3732L12.2971 11.6115L12.4663 10.7039L11.6652 10.2452L11.0191 11.3732ZM11.0191 12.1268L11.6652 13.2548L12.4663 12.7961L12.2971 11.8885L11.0191 12.1268ZM10.513 11.0834L11.1591 9.95528L11.1591 9.95528L10.513 11.0834ZM10.4301 10.7739L11.5534 11.4283H11.5534L10.4301 10.7739ZM10.8966 9.97319L12.0199 10.6276L12.0199 10.6276L10.8966 9.97319ZM11.2038 9.89096L11.8499 8.76287L11.8499 8.76287L11.2038 9.89096ZM11.7129 10.1825L11.0668 11.3106L11.8583 11.7639L12.5539 11.1738L11.7129 10.1825ZM12.3719 9.80438L12.8046 11.0303L13.6719 10.7242V9.80438H12.3719ZM13.7594 9.80438H12.4594V10.7242L13.3268 11.0303L13.7594 9.80438ZM14.4185 10.1825L13.5774 11.1738L14.273 11.7639L15.0645 11.3106L14.4185 10.1825ZM14.9275 9.89096L14.2815 8.76287L14.2815 8.76287L14.9275 9.89096ZM15.2347 9.97319L14.1114 10.6276L14.1114 10.6276L15.2347 9.97319ZM15.7012 10.7739L16.8245 10.1195L16.8245 10.1195L15.7012 10.7739ZM15.6184 11.0834L14.9723 9.95528L14.9723 9.95528L15.6184 11.0834ZM15.1122 11.3732L14.4661 10.2452L13.6651 10.7039L13.8342 11.6115L15.1122 11.3732ZM15.1122 12.1268L13.8342 11.8885L13.6651 12.7961L14.4661 13.2548L15.1122 12.1268ZM15.6184 12.4166L14.9723 13.5447L15.6184 12.4166ZM15.7012 12.7261L16.8245 13.3805L16.8245 13.3805L15.7012 12.7261ZM15.2347 13.5268L14.1114 12.8724L14.1114 12.8724L15.2347 13.5268ZM14.9275 13.609L15.5736 12.4809L15.5736 12.4809L14.9275 13.609ZM14.4185 13.3175L15.0645 12.1894L14.2722 11.7356L13.5765 12.327L14.4185 13.3175ZM13.7594 13.6956L13.3286 12.4691L12.4594 12.7744V13.6956H13.7594ZM12.3719 13.6956H13.6719V12.7744L12.8027 12.4691L12.3719 13.6956ZM11.7129 13.3175L12.5548 12.327L11.8591 11.7356L11.0668 12.1894L11.7129 13.3175ZM11.2038 13.609L11.8499 14.7371L11.8499 14.7371L11.2038 13.609ZM10.8966 13.5268L12.0199 12.8724L12.0199 12.8724L10.8966 13.5268ZM10.4301 12.7261L9.30687 13.3805L9.30687 13.3805L10.4301 12.7261ZM10.513 12.4166L9.86691 11.2885L9.86691 11.2885L10.513 12.4166ZM13.5518 12.2361L14.471 13.1554L14.471 13.1554L13.5518 12.2361ZM13.5518 11.2639L14.471 10.3446L14.471 10.3446L13.5518 11.2639ZM12.5795 11.2639L11.6603 10.3446L11.6603 10.3446L12.5795 11.2639ZM12.5795 12.2361L11.6603 13.1554L11.6603 13.1554L12.5795 12.2361ZM9.74114 11.135C9.66537 11.5416 9.66537 11.9584 9.74114 12.365L12.2971 11.8885C12.28 11.7969 12.28 11.7031 12.2971 11.6115L9.74114 11.135ZM9.86691 12.2115L10.3731 12.5013L11.6652 10.2452L11.1591 9.95528L9.86691 12.2115ZM9.30687 10.1195C8.88046 10.8514 9.13188 11.7905 9.86691 12.2115L11.1591 9.95528C11.6766 10.2517 11.8537 10.913 11.5534 11.4283L9.30687 10.1195ZM9.77338 9.31877L9.30687 10.1195L11.5534 11.4283L12.0199 10.6276L9.77338 9.31877ZM11.8499 8.76287C11.1225 8.3463 10.1953 8.59452 9.77338 9.31877L12.0199 10.6276C11.7228 11.1376 11.0699 11.3124 10.5577 11.0191L11.8499 8.76287ZM12.3589 9.05441L11.8499 8.76287L10.5577 11.0191L11.0668 11.3106L12.3589 9.05441ZM11.9393 8.57848C11.5463 8.71718 11.1852 8.92532 10.8718 9.1912L12.5539 11.1738C12.6262 11.1124 12.7106 11.0634 12.8046 11.0303L11.9393 8.57848ZM11.0719 9.22569V9.80438H13.6719V9.22569H11.0719ZM12.5976 7.7C11.755 7.7 11.0719 8.38308 11.0719 9.22569H13.6719C13.6719 9.81901 13.1909 10.3 12.5976 10.3V7.7ZM13.5337 7.7H12.5976V10.3H13.5337V7.7ZM15.0594 9.22569C15.0594 8.38308 14.3763 7.7 13.5337 7.7V10.3C12.9404 10.3 12.4594 9.81902 12.4594 9.22569H15.0594ZM15.0594 9.80438V9.22569H12.4594V9.80438H15.0594ZM15.2595 9.1912C14.9461 8.92532 14.5851 8.71718 14.1921 8.57848L13.3268 11.0303C13.4208 11.0634 13.5051 11.1124 13.5774 11.1738L15.2595 9.1912ZM14.2815 8.76287L13.7724 9.05441L15.0645 11.3106L15.5736 11.0191L14.2815 8.76287ZM16.358 9.31877C15.936 8.59452 15.0088 8.3463 14.2815 8.76287L15.5736 11.0191C15.0614 11.3124 14.4086 11.1376 14.1114 10.6276L16.358 9.31877ZM16.8245 10.1195L16.358 9.31877L14.1114 10.6276L14.5779 11.4283L16.8245 10.1195ZM16.2644 12.2115C16.9995 11.7905 17.2509 10.8514 16.8245 10.1195L14.5779 11.4283C14.2777 10.913 14.4547 10.2517 14.9723 9.95528L16.2644 12.2115ZM15.7583 12.5013L16.2644 12.2115L14.9723 9.95528L14.4661 10.2452L15.7583 12.5013ZM16.3902 12.365C16.466 11.9584 16.466 11.5416 16.3902 11.135L13.8342 11.6115C13.8513 11.7031 13.8513 11.7969 13.8342 11.8885L16.3902 12.365ZM16.2644 11.2885L15.7583 10.9987L14.4661 13.2548L14.9723 13.5447L16.2644 11.2885ZM16.8245 13.3805C17.2509 12.6486 16.9995 11.7095 16.2644 11.2885L14.9723 13.5447C14.4547 13.2483 14.2777 12.587 14.5779 12.0717L16.8245 13.3805ZM16.358 14.1812L16.8245 13.3805L14.5779 12.0717L14.1114 12.8724L16.358 14.1812ZM14.2815 14.7371C15.0088 15.1537 15.936 14.9055 16.358 14.1812L14.1114 12.8724C14.4086 12.3624 15.0614 12.1876 15.5736 12.4809L14.2815 14.7371ZM13.7724 14.4456L14.2815 14.7371L15.5736 12.4809L15.0645 12.1894L13.7724 14.4456ZM14.1902 14.9222C14.5815 14.7847 14.9443 14.5767 15.2604 14.308L13.5765 12.327C13.504 12.3887 13.42 12.437 13.3286 12.4691L14.1902 14.9222ZM15.0594 14.2743V13.6956H12.4594V14.2743H15.0594ZM13.5337 15.8C14.3763 15.8 15.0594 15.1169 15.0594 14.2743H12.4594C12.4594 13.681 12.9404 13.2 13.5337 13.2V15.8ZM12.5976 15.8H13.5337V13.2H12.5976V15.8ZM11.0719 14.2743C11.0719 15.1169 11.755 15.8 12.5976 15.8V13.2C13.1909 13.2 13.6719 13.681 13.6719 14.2743H11.0719ZM11.0719 13.6956V14.2743H13.6719V13.6956H11.0719ZM10.8709 14.308C11.187 14.5767 11.5499 14.7847 11.9411 14.9222L12.8027 12.4691C12.7114 12.437 12.6274 12.3887 12.5548 12.327L10.8709 14.308ZM11.8499 14.7371L12.3589 14.4456L11.0668 12.1894L10.5577 12.4809L11.8499 14.7371ZM9.77338 14.1812C10.1953 14.9055 11.1225 15.1537 11.8499 14.7371L10.5578 12.4809C11.0699 12.1876 11.7228 12.3624 12.0199 12.8724L9.77338 14.1812ZM9.30687 13.3805L9.77338 14.1812L12.0199 12.8724L11.5534 12.0717L9.30687 13.3805ZM9.86691 11.2885C9.13188 11.7095 8.88046 12.6486 9.30687 13.3805L11.5534 12.0717C11.8537 12.587 11.6766 13.2483 11.1591 13.5447L9.86691 11.2885ZM10.3731 10.9987L9.86691 11.2885L11.1591 13.5447L11.6652 13.2548L10.3731 10.9987ZM12.6326 11.3169C12.7474 11.202 12.9032 11.1375 13.0657 11.1375V13.7375C13.5928 13.7375 14.0983 13.5281 14.471 13.1554L12.6326 11.3169ZM12.4532 11.75C12.4532 11.5876 12.5177 11.4318 12.6326 11.3169L14.471 13.1554C14.8438 12.7826 15.0532 12.2771 15.0532 11.75H12.4532ZM12.6326 12.1831C12.5177 12.0682 12.4532 11.9124 12.4532 11.75H15.0532C15.0532 11.2229 14.8438 10.7174 14.471 10.3446L12.6326 12.1831ZM13.0657 12.3625C12.9032 12.3625 12.7474 12.298 12.6326 12.1831L14.471 10.3446C14.0983 9.97189 13.5928 9.7625 13.0657 9.7625V12.3625ZM13.4988 12.1831C13.3839 12.298 13.2281 12.3625 13.0657 12.3625V9.7625C12.5386 9.7625 12.033 9.97189 11.6603 10.3446L13.4988 12.1831ZM13.6782 11.75C13.6782 11.9124 13.6136 12.0682 13.4988 12.1831L11.6603 10.3446C11.2876 10.7174 11.0782 11.2229 11.0782 11.75H13.6782ZM13.4988 11.3169C13.6136 11.4318 13.6782 11.5876 13.6782 11.75H11.0782C11.0782 12.2771 11.2876 12.7826 11.6603 13.1554L13.4988 11.3169ZM13.0657 11.1375C13.2281 11.1375 13.3839 11.202 13.4988 11.3169L11.6603 13.1554C12.033 13.5281 12.5386 13.7375 13.0657 13.7375V11.1375Z" fill="#626E85" mask="url(#path-3-inside-1_1129_815)"/>
</svg>
