<svg width="15" height="16" viewBox="0 0 15 16" fill="none" xmlns="http://www.w3.org/2000/svg">
<path fill-rule="evenodd" clip-rule="evenodd" d="M1.64677 9.01275C1.52483 8.35855 1.52483 7.68775 1.64677 7.03355L0.272563 6.24653C0.0116043 6.09708 -0.0776554 5.76366 0.0737317 5.50382L1.3506 3.31219C1.5004 3.05506 1.82959 2.96694 2.08782 3.11483L3.469 3.90584C3.97559 3.47605 4.56053 3.13836 5.20013 2.91264V1.34147C5.20013 1.04232 5.44264 0.799805 5.7418 0.799805H8.30293C8.60209 0.799805 8.8446 1.04232 8.8446 1.34147V2.91264C9.48421 3.13836 10.0691 3.47605 10.5757 3.90584L11.9569 3.11483C12.2151 2.96694 12.5443 3.05506 12.6941 3.31219L13.971 5.50382C14.1224 5.76366 14.0331 6.09708 13.7722 6.24653L12.398 7.03355C12.5199 7.68775 12.5199 8.35855 12.398 9.01275L13.7722 9.79977C14.0331 9.94922 14.1224 10.2826 13.971 10.5425L12.6941 12.7341C12.5443 12.9912 12.2151 13.0794 11.9569 12.9315L10.5757 12.1405C10.0653 12.5743 9.47843 12.911 8.8446 13.1337V14.7048C8.8446 15.004 8.60209 15.2465 8.30293 15.2465H5.7418C5.44264 15.2465 5.20013 15.004 5.20013 14.7048V13.1337C4.56631 12.911 3.97942 12.5743 3.469 12.1405L2.08782 12.9315C1.82959 13.0794 1.5004 12.9912 1.3506 12.7341L0.0737318 10.5425C-0.0776553 10.2826 0.0116043 9.94922 0.272564 9.79977L1.64677 9.01275ZM7 10.9998C7.79565 10.9998 8.55871 10.6837 9.12132 10.1211C9.68393 9.55847 10 8.79541 10 7.99976C10 7.20411 9.68393 6.44104 9.12132 5.87843C8.55871 5.31583 7.79565 4.99976 7 4.99976C6.20435 4.99976 5.44128 5.31583 4.87867 5.87843C4.31607 6.44104 4 7.20411 4 7.99976C4 8.79541 4.31607 9.55847 4.87867 10.1211C5.44128 10.6837 6.20435 10.9998 7 10.9998Z" fill="white"/>
</svg>
