<svg width="16" height="16" viewBox="0 0 16 16" fill="none" xmlns="http://www.w3.org/2000/svg">
<circle cx="6.95996" cy="5.25" r="2.75" stroke="#626E85" stroke-width="1.3"/>
<path d="M6.5 9.54004L4 9.54004C2.61929 9.54004 1.5 10.6593 1.5 12.04V14C1.5 14.2762 1.72386 14.5 2 14.5H7.5" stroke="#626E85" stroke-width="1.3" stroke-linecap="round"/>
<path fill-rule="evenodd" clip-rule="evenodd" d="M9.61971 12.6268C9.57329 12.3777 9.57329 12.1223 9.61971 11.8732L9.11357 11.5834C9.00483 11.5211 8.96764 11.3822 9.03072 11.2739L9.49723 10.4732C9.55965 10.3661 9.69681 10.3293 9.8044 10.391L10.3135 10.6825C10.5063 10.5189 10.729 10.3903 10.9725 10.3044V9.72569C10.9725 9.60105 11.0736 9.5 11.1982 9.5H12.1343C12.259 9.5 12.36 9.60105 12.36 9.72569V10.3044C12.6035 10.3903 12.8262 10.5189 13.0191 10.6825L13.5281 10.391C13.6357 10.3293 13.7729 10.3661 13.8353 10.4732L14.3018 11.2739C14.3649 11.3822 14.3277 11.5211 14.2189 11.5834L13.7128 11.8732C13.7592 12.1223 13.7592 12.3777 13.7128 12.6268L14.2189 12.9166C14.3277 12.9789 14.3649 13.1178 14.3018 13.2261L13.8353 14.0268C13.7729 14.1339 13.6357 14.1707 13.5281 14.109L13.0191 13.8175C12.8247 13.9827 12.6013 14.1109 12.36 14.1956V14.7743C12.36 14.899 12.259 15 12.1343 15H11.1982C11.0736 15 10.9725 14.899 10.9725 14.7743V14.1956C10.7312 14.1109 10.5078 13.9827 10.3135 13.8175L9.8044 14.109C9.69681 14.1707 9.55965 14.1339 9.49723 14.0268L9.03072 13.2261C8.96764 13.1178 9.00484 12.9789 9.11357 12.9166L9.61971 12.6268ZM11.6663 12.9375C11.8486 12.9375 12.0235 12.8651 12.1524 12.7361C12.2813 12.6072 12.3538 12.4323 12.3538 12.25C12.3538 12.0677 12.2813 11.8928 12.1524 11.7639C12.0235 11.6349 11.8486 11.5625 11.6663 11.5625C11.4839 11.5625 11.3091 11.6349 11.1801 11.7639C11.0512 11.8928 10.9788 12.0677 10.9788 12.25C10.9788 12.4323 11.0512 12.6072 11.1801 12.7361C11.3091 12.8651 11.4839 12.9375 11.6663 12.9375Z" fill="#626E85"/>
</svg>
