<svg width="16" height="16" viewBox="0 0 16 16" fill="none" xmlns="http://www.w3.org/2000/svg">
<path d="M3 14.5H2.35C2.35 14.7424 2.48485 14.9646 2.69982 15.0765C2.9148 15.1885 3.17419 15.1715 3.37275 15.0325L3 14.5ZM13 14.5L12.6272 15.0325C12.8258 15.1715 13.0852 15.1885 13.3002 15.0765C13.5152 14.9646 13.65 14.7424 13.65 14.5H13ZM8 11L8.37275 10.4675L8 10.2066L7.62725 10.4675L8 11ZM3.65 14.5V2H2.35V14.5H3.65ZM3.5 2.15H12.5V0.85H3.5V2.15ZM12.35 2V14.5H13.65V2H12.35ZM13.3728 13.9675L8.37275 10.4675L7.62725 11.5325L12.6272 15.0325L13.3728 13.9675ZM7.62725 10.4675L2.62725 13.9675L3.37275 15.0325L8.37275 11.5325L7.62725 10.4675ZM12.5 2.15C12.4172 2.15 12.35 2.08284 12.35 2H13.65C13.65 1.36487 13.1351 0.85 12.5 0.85V2.15ZM3.65 2C3.65 2.08284 3.58284 2.15 3.5 2.15V0.85C2.86487 0.85 2.35 1.36487 2.35 2H3.65Z" fill="#626E85"/>
</svg>
