<svg width="16" height="16" viewBox="0 0 16 16" fill="none" xmlns="http://www.w3.org/2000/svg">
<path d="M2.97392 11.5018L3.07002 11.2157L2.91345 10.9576C2.33298 10.001 2.04325 8.96024 2.04325 7.82184C2.04325 6.99877 2.20404 6.21569 2.5259 5.46708C2.8524 4.70768 3.28642 4.06191 3.82587 3.52246C4.36532 2.98301 5.01108 2.549 5.77049 2.22249C6.51909 1.90063 7.30218 1.73984 8.12525 1.73984C8.94832 1.73984 9.73141 1.90063 10.48 2.22249C11.2394 2.549 11.8852 2.98301 12.4246 3.52246C12.9641 4.06191 13.3981 4.70768 13.7246 5.46709C14.0465 6.21569 14.2073 6.99877 14.2073 7.82184C14.2073 8.64492 14.0465 9.428 13.7246 10.1766C13.3981 10.936 12.9641 11.5818 12.4246 12.1212C11.8852 12.6607 11.2394 13.0947 10.48 13.4212C9.73141 13.7431 8.94832 13.9038 8.12525 13.9038C7.0742 13.9038 6.09616 13.6517 5.18082 13.1455L4.93491 13.0095L4.66737 13.0955L2.16896 13.8985L2.97392 11.5018Z" stroke="#626E85" stroke-width="1.3"/>
<path d="M10.8082 9.08984C10.3052 8.82784 10.015 8.69684 9.93767 8.69684H9.93617C9.8585 8.69684 9.70367 8.84118 9.47167 9.12984C9.23967 9.41851 9.079 9.56284 8.98967 9.56284C8.93 9.56284 8.8645 9.54201 8.79317 9.50034C8.22784 9.21434 7.7785 8.91368 7.44517 8.59834C7.0405 8.21768 6.737 7.81001 6.53467 7.37534C6.505 7.32768 6.49017 7.28301 6.49017 7.24134C6.49017 7.18201 6.59284 7.04368 6.79817 6.82634C7.0035 6.60901 7.10617 6.43784 7.10617 6.31284C7.10617 6.27118 7.03184 6.04801 6.88317 5.64334C6.7345 5.23868 6.63634 4.97684 6.58867 4.85784C6.541 4.73284 6.49484 4.65101 6.45017 4.61234C6.4055 4.57368 6.32667 4.55434 6.21367 4.55434C6.172 4.55434 6.1155 4.54984 6.04417 4.54084C5.97284 4.53184 5.91934 4.52734 5.88367 4.52734C5.717 4.52734 5.56217 4.59284 5.41917 4.72384C4.99684 5.12251 4.77667 5.59268 4.75867 6.13434V6.20584C4.75267 6.72351 4.964 7.30084 5.39267 7.93784C5.845 8.60484 6.2855 9.15551 6.71417 9.58984C7.14284 10.0242 7.64884 10.3753 8.23217 10.6433C9.02384 11.0123 9.58934 11.1968 9.92867 11.1968C10.2083 11.1972 10.5118 11.1183 10.8392 10.9603C11.1665 10.8023 11.3778 10.6073 11.4732 10.3753C11.5745 10.1193 11.6252 9.89318 11.6252 9.69684C11.6252 9.63718 11.6192 9.59251 11.6072 9.56284C11.5775 9.50951 11.3112 9.35184 10.8082 9.08984Z" fill="#626E85"/>
</svg>
