<svg width="16" height="16" viewBox="0 0 16 16" fill="none" xmlns="http://www.w3.org/2000/svg">
<path d="M13.9869 4.87898C12.8602 2.72217 10.6021 1.25 8.00018 1.25C5.39771 1.25 3.13924 2.72279 2.01277 4.88036M2.0127 11.1195C3.13914 13.2771 5.39766 14.75 8.00018 14.75C10.6027 14.75 12.8612 13.2771 13.9877 11.1195" stroke="#6F7485" stroke-width="1.3" stroke-linecap="round" stroke-linejoin="round"/>
<path d="M0.714355 6.6001L1.45951 9.45201C1.47174 9.4988 1.53664 9.50271 1.5544 9.45773L2.68229 6.6001L3.73516 9.45073C3.75212 9.49665 3.81812 9.49337 3.83045 9.44601L4.5715 6.6001" stroke="#6F7485" stroke-width="1.1" stroke-linecap="round" stroke-linejoin="round"/>
<path d="M6.07153 6.6001L6.81669 9.45201C6.82891 9.4988 6.89382 9.50271 6.91157 9.45773L8.03946 6.6001L9.09234 9.45073C9.10929 9.49665 9.17529 9.49337 9.18763 9.44601L9.92868 6.6001" stroke="#6F7485" stroke-width="1.1" stroke-linecap="round" stroke-linejoin="round"/>
<path d="M11.4287 6.6001L12.1739 9.45201C12.1861 9.4988 12.251 9.50271 12.2688 9.45773L13.3966 6.6001L14.4495 9.45073C14.4665 9.49665 14.5325 9.49337 14.5448 9.44601L15.2859 6.6001" stroke="#6F7485" stroke-width="1.1" stroke-linecap="round" stroke-linejoin="round"/>
</svg>
