<svg width="16" height="16" viewBox="0 0 16 16" fill="none" xmlns="http://www.w3.org/2000/svg">
<path d="M5.7998 2.6C5.7998 2.54477 5.84458 2.5 5.8998 2.5H10.1998C10.255 2.5 10.2998 2.54477 10.2998 2.6V5.4C10.2998 5.45523 10.255 5.5 10.1998 5.5H5.8998C5.84458 5.5 5.7998 5.45523 5.7998 5.4V2.6Z" stroke="#6F7485" stroke-width="1.3"/>
<path d="M2.2998 10.6C2.2998 10.5448 2.34458 10.5 2.3998 10.5H6.6998C6.75503 10.5 6.7998 10.5448 6.7998 10.6V13.4C6.7998 13.4552 6.75503 13.5 6.6998 13.5H2.3998C2.34458 13.5 2.2998 13.4552 2.2998 13.4V10.6Z" stroke="#6F7485" stroke-width="1.3"/>
<path d="M9.2998 10.6C9.2998 10.5448 9.34458 10.5 9.3998 10.5H13.6998C13.755 10.5 13.7998 10.5448 13.7998 10.6V13.4C13.7998 13.4552 13.755 13.5 13.6998 13.5H9.3998C9.34458 13.5 9.2998 13.4552 9.2998 13.4V10.6Z" stroke="#6F7485" stroke-width="1.3"/>
<path d="M8 6V8" stroke="#6F7485" stroke-width="1.3" stroke-linecap="round"/>
<path d="M4.5 10.5V8.1C4.5 8.04477 4.54477 8 4.6 8H11.4C11.4552 8 11.5 8.04477 11.5 8.1V10.5" stroke="#6F7485" stroke-width="1.3" stroke-linecap="round"/>
</svg>