<svg width="22" height="22" viewBox="0 0 22 22" fill="none" xmlns="http://www.w3.org/2000/svg">
<circle cx="11" cy="6" r="5" fill="#EED9FF"/>
<path d="M5 15V6.5C5 6.22386 5.22386 6 5.5 6H16.5C16.7761 6 17 6.22386 17 6.5V15C17 15.2761 16.7761 15.5 16.5 15.5H13L11.3 16.775C11.1222 16.9083 10.8778 16.9083 10.7 16.775L9 15.5H5.5C5.22386 15.5 5 15.2761 5 15Z" stroke="#263789" stroke-width="1.3"/>
<rect x="7.54998" y="10.45" width="0.9" height="0.9" rx="0.45" stroke="#263789" stroke-width="0.9"/>
<rect x="10.55" y="10.45" width="0.9" height="0.9" rx="0.45" stroke="#263789" stroke-width="0.9"/>
<rect x="13.55" y="10.45" width="0.9" height="0.9" rx="0.45" stroke="#263789" stroke-width="0.9"/>
</svg>
