<svg width="16" height="16" viewBox="0 0 16 16" fill="none" xmlns="http://www.w3.org/2000/svg">
<path fill-rule="evenodd" clip-rule="evenodd" d="M4.7002 0.7C4.7002 0.589543 4.78974 0.5 4.9002 0.5H5.8002C5.91065 0.5 6.0002 0.589543 6.0002 0.7V2H10V0.7C10 0.589543 10.0895 0.5 10.2 0.5H11.1C11.2105 0.5 11.3 0.589543 11.3 0.7V2H13C13.5523 2 14 2.44772 14 3V14.5C14 15.0523 13.5523 15.5 13 15.5H3C2.44772 15.5 2 15.0523 2 14.5V3C2 2.44772 2.44772 2 3 2H4.7002V0.7ZM5 5.7502C4.58579 5.7502 4.25 6.08598 4.25 6.5002C4.25 6.91441 4.58579 7.2502 5 7.2502H11C11.4142 7.2502 11.75 6.91441 11.75 6.5002C11.75 6.08598 11.4142 5.7502 11 5.7502H5ZM4.25 9.5002C4.25 9.08598 4.58579 8.7502 5 8.7502H11C11.4142 8.7502 11.75 9.08598 11.75 9.5002C11.75 9.91441 11.4142 10.2502 11 10.2502H5C4.58579 10.2502 4.25 9.91441 4.25 9.5002Z" fill="white"/>
</svg>
