<svg width="22" height="22" viewBox="0 0 22 22" fill="none" xmlns="http://www.w3.org/2000/svg">
<path d="M16 21C18.7614 21 21 18.7614 21 16C21 13.2386 18.7614 11 16 11C13.2386 11 11 13.2386 11 16C11 18.7614 13.2386 21 16 21Z" fill="#D1E4FF"/>
<path d="M18 16.8333V5.16668C18 4.52234 17.4777 4.00001 16.8333 4.00001L5.16667 4C4.52233 4 4 4.52234 4 5.16667L4.00002 16.8333C4.00002 17.4777 4.52236 18 5.16669 18H16.8333C17.4777 18 18 17.4777 18 16.8333Z" stroke="#263789" stroke-width="1.3" stroke-linecap="round" stroke-linejoin="round"/>
<path d="M10.9996 8.78906L9.87349 11.0876L7.31561 11.4585L9.16855 13.27L8.72561 15.7891L10.9996 14.5768L13.274 15.7891L12.8343 13.27L14.684 11.4585L12.1403 11.0876L10.9996 8.78906Z" stroke="#263789" stroke-width="1.3" stroke-linecap="round" stroke-linejoin="round"/>
<path d="M8.78931 6.57812H13.2104" stroke="#263789" stroke-width="1.3" stroke-linecap="round" stroke-linejoin="round"/>
</svg>
