<svg width="22" height="22" fill="none" xmlns="http://www.w3.org/2000/svg"><circle cx="13" cy="13.405" r="5" fill="#EED9FF"/><circle cx="9.038" cy="7.984" r="2.981" stroke="#263789" stroke-width="1.3"/><path d="M15 17.522v-1.788a2.98 2.98 0 0 0-2.982-2.98H6.057a2.98 2.98 0 0 0-2.98 2.98v1.788c0 .33.266.597.595.597h10.731c.33 0 .596-.267.596-.597Z" stroke="#263789" stroke-width="1.3"/><path d="M12.14 3.835a2.585 2.585 0 1 1 2.053 4.745M14.376 11.133h1.567a2.98 2.98 0 0 1 2.98 2.98v1.452c0 .33-.266.596-.595.596h-.99" stroke="#263789" stroke-width="1.3" stroke-linecap="round"/></svg>