<svg width="22" height="22" fill="none" xmlns="http://www.w3.org/2000/svg">
    <circle cx="16" cy="16" r="5" fill="#EED9FF"/>
    <path d="M8.26 4.422c0-.068.055-.122.123-.122h5.234c.068 0 .122.054.122.122V7.83a.122.122 0 0 1-.122.122H8.383a.122.122 0 0 1-.122-.122V4.422ZM4 14.16c0-.067.054-.121.122-.121h5.235c.067 0 .121.054.121.122v3.408a.122.122 0 0 1-.121.122H4.122A.122.122 0 0 1 4 17.57v-3.408ZM12.522 14.16c0-.067.054-.121.121-.121h5.235c.067 0 .122.054.122.122v3.408a.122.122 0 0 1-.122.122h-5.235a.122.122 0 0 1-.121-.122v-3.408Z" stroke="#263789" stroke-width="1.3"/>
    <path d="M10.938 8.565V11M6.68 14.043V11.12c0-.068.054-.122.121-.122h8.279c.067 0 .121.054.121.122v2.921" stroke="#263789" stroke-width="1.3" stroke-linecap="round"/>
</svg>