<svg width="16" height="16" viewBox="0 0 16 16" fill="none" xmlns="http://www.w3.org/2000/svg">
<path fill-rule="evenodd" clip-rule="evenodd" d="M6.5 12.8612C5.86512 11.7863 5.24306 10.2924 5.12139 8.45005H2.33666C2.60207 10.7882 4.28205 12.6972 6.5 13.3006V14.639C3.35482 13.9523 1 11.1512 1 7.80005C1 3.93406 4.13401 0.800049 8 0.800049H8.0002C11.4219 0.800145 14.2701 3.25526 14.8795 6.5H13.5511C13.0527 4.36357 11.3528 2.68889 9.20251 2.22713C9.8556 3.19273 10.5778 4.63286 10.8178 6.5H9.50544C9.30635 5.15746 8.82359 4.08078 8.34076 3.28999C8.23034 3.10913 8.12016 2.94371 8.01379 2.79408C7.90014 2.9559 7.78201 3.1354 7.66368 3.33185C7.17983 4.13511 6.70233 5.20446 6.5004 6.5H6.5V6.50256C6.46734 6.71251 6.44192 6.9284 6.42488 7.15005H6.5V8.45005H6.42469C6.44173 8.67337 6.46722 8.89075 6.5 9.10205V12.8612ZM2.33666 7.15005H5.12153C5.26486 4.99394 6.09772 3.31032 6.83097 2.22004C4.45068 2.71619 2.61512 4.69698 2.33666 7.15005Z" fill="#6F7485"/>
<path d="M12.2727 12.902V16H9C8.44772 16 8 15.5523 8 15V9C8 8.44772 8.44772 8 9 8H15C15.5523 8 16 8.44772 16 9V15C16 15.5523 15.5523 16 15 16H13.52V12.906H14.5597L14.7147 11.696H13.52V10.9257C13.52 10.5757 13.6173 10.3353 14.1173 10.3353H14.7577V9.25534C14.647 9.24066 14.2673 9.20834 13.8257 9.20834C12.904 9.20834 12.2727 9.77034 12.2727 10.8033V11.695H11.2297V12.902H12.2727Z" fill="#6F7485"/>
</svg>
