<svg width="22" height="22" viewBox="0 0 22 22" fill="none" xmlns="http://www.w3.org/2000/svg">
<circle cx="16" cy="7" r="5" fill="#D1EDDE"/>
<path d="M17.1629 7.78695C16.0031 5.56672 13.6786 4.05127 11.0002 4.05127C8.32122 4.05127 5.99633 5.56737 4.83675 7.78838M4.83667 14.211C5.99623 16.432 8.32116 17.9482 11.0002 17.9482C13.6792 17.9482 16.0042 16.432 17.1637 14.211" stroke="#263789" stroke-width="1.3" stroke-linecap="round" stroke-linejoin="round"/>
<path d="M3.5 9.55828L4.26707 12.494C4.27965 12.5422 4.34647 12.5462 4.36474 12.4999L5.52579 9.55828L6.60962 12.4927C6.62708 12.54 6.69502 12.5366 6.70772 12.4879L7.47055 9.55828" stroke="#263789" stroke-width="1.3" stroke-linecap="round" stroke-linejoin="round"/>
<path d="M9.01489 9.55828L9.78196 12.494C9.79454 12.5422 9.86136 12.5462 9.87963 12.4999L11.0407 9.55828L12.1245 12.4927C12.142 12.54 12.2099 12.5366 12.2226 12.4879L12.9854 9.55828" stroke="#263789" stroke-width="1.3" stroke-linecap="round" stroke-linejoin="round"/>
<path d="M14.5295 9.55828L15.2966 12.494C15.3092 12.5422 15.376 12.5462 15.3943 12.4999L16.5553 9.55828L17.6392 12.4927C17.6566 12.54 17.7246 12.5366 17.7373 12.4879L18.5001 9.55828" stroke="#263789" stroke-width="1.3" stroke-linecap="round" stroke-linejoin="round"/>
</svg>
