<svg width="16" height="16" viewBox="0 0 16 16" fill="none" xmlns="http://www.w3.org/2000/svg">
<path d="M12.9524 2.28571C13.1025 2.28571 13.2511 2.31527 13.3898 2.3727C13.5284 2.43013 13.6544 2.51432 13.7605 2.62044C13.8666 2.72656 13.9508 2.85255 14.0083 2.99121C14.0657 3.12987 14.0953 3.27848 14.0953 3.42856V10.6667C14.0953 10.8167 14.0657 10.9654 14.0083 11.104C13.9508 11.2427 13.8666 11.3687 13.7605 11.4748C13.6544 11.5809 13.5284 11.6651 13.3898 11.7225C13.2511 11.78 13.1025 11.8095 12.9524 11.8095H3.04764C2.74454 11.8095 2.45385 11.6891 2.23952 11.4748C2.02519 11.2605 1.90479 10.9698 1.90479 10.6667V3.42856C1.90479 3.12546 2.02519 2.83477 2.23952 2.62044C2.45385 2.40611 2.74454 2.28571 3.04764 2.28571H12.9524ZM12.9524 3.42856H3.04764V10.6667H12.9524V3.42856ZM11.44 4.75009V7.59771C11.44 7.70816 11.3505 7.79771 11.24 7.79771H10.4972C10.3867 7.79771 10.2972 7.70816 10.2972 7.59771V6.70285L8.1665 8.83352L6.81983 7.48647L4.80586 9.50044C4.72774 9.57856 4.60108 9.57854 4.52298 9.50041L3.99776 8.97494C3.91969 8.89683 3.9197 8.77022 3.99779 8.69213L6.81945 5.87047L8.1665 7.21713L9.49107 5.89256H8.59279C8.48233 5.89256 8.39279 5.80302 8.39279 5.69256V4.94973C8.39279 4.83926 8.48234 4.74972 8.59281 4.74973L11.44 4.75009ZM4.1905 13.1428C4.1905 12.8273 4.44634 12.5714 4.76193 12.5714H11.2381C11.5537 12.5714 11.8095 12.8273 11.8095 13.1428C11.8095 13.4584 11.5537 13.7143 11.2381 13.7143H4.76193C4.44634 13.7143 4.1905 13.4584 4.1905 13.1428Z" fill="#263789"/>
</svg>
