<svg width="14" height="14" viewBox="0 0 14 14" fill="none" xmlns="http://www.w3.org/2000/svg">
<path d="M4.19977 2.54811C4.31055 2.41215 4.47661 2.33325 4.65199 2.33325H9.48537C9.66538 2.33325 9.83531 2.41636 9.94583 2.55845L12.5209 5.8693C12.6999 6.09935 12.6815 6.42617 12.478 6.63479L7.41738 11.8219C7.18846 12.0566 6.81121 12.0566 6.5823 11.8219L1.52987 6.6432C1.32283 6.43098 1.30791 6.09721 1.49519 5.86737L4.19977 2.54811Z" stroke="white"/>
<path fill-rule="evenodd" clip-rule="evenodd" d="M4.9585 4.95825H6.60555L7.15457 6.99992L8.52712 4.95825H9.62516L6.87468 9.14258C6.77467 9.29472 6.5408 9.251 6.50251 9.07301L5.78203 5.72388H4.9585V4.95825Z" fill="white"/>
</svg>
