<svg width="80" height="16" viewBox="0 0 80 16" fill="none" xmlns="http://www.w3.org/2000/svg">
<circle cx="8" cy="8" r="6.5" stroke="#8D92A1"/>
<path d="M4.72385 8.68431L8.05402 3.98792C8.16508 3.83129 8.4116 3.90596 8.41708 4.0979L8.5 7H10.9337C11.0919 7 11.1875 7.17505 11.1019 7.30815L8.0337 12.0809C7.92885 12.244 7.67653 12.1775 7.66577 11.9839L7.5 9H4.887C4.72464 9 4.62994 8.81676 4.72385 8.68431Z" fill="#8D92A1"/>
<path d="M24.824 4.032V4.836H26.96V5.88C26.96 6.504 26.912 7.104 26.828 7.656H24.332V8.496H26.66C26.204 10.308 25.196 11.616 23.66 12.432L24.188 13.14C25.784 12.228 26.852 10.824 27.392 8.904C28.148 10.608 29.348 12.012 30.98 13.128L31.568 12.456C29.948 11.448 28.76 10.128 28.016 8.496H31.292V7.656H30.356V4.032H27.8V2.22H26.96V4.032H24.824ZM27.8 4.836H29.516V7.656H27.656C27.752 7.044 27.8 6.396 27.8 5.7V4.836ZM20.912 4.512C20.876 5.664 20.72 6.756 20.456 7.788L21.164 7.992C21.416 6.912 21.56 5.76 21.596 4.56L20.912 4.512ZM23.936 4.248L23.288 4.452C23.624 5.292 23.9 6.156 24.116 7.056L24.824 6.888C24.56 5.892 24.272 5.016 23.936 4.248ZM22.196 2.232V13.152H23.048V2.232H22.196ZM42.512 8.928V7.176H43.292V6.432H42.512V4.692H40.148V3.804H43.184V3.048H40.148V2.208H39.32V3.048H36.536V3.804H39.32V4.692H37.088V5.436H39.32V6.432H36.608V7.176H39.32V8.184H37.004V8.928H39.32V11.964C39.176 11.916 39.056 11.88 38.936 11.832C38.48 11.628 38.072 11.172 37.712 10.452C37.772 10.176 37.832 9.876 37.88 9.54L37.076 9.42C36.884 10.824 36.428 11.928 35.708 12.72L36.404 13.2C36.836 12.72 37.196 12.096 37.472 11.304C37.808 11.916 38.192 12.336 38.612 12.552C39.14 12.816 40.148 12.96 41.636 12.972C42.116 12.984 42.644 12.996 43.244 12.996L43.496 12.12C42.968 12.156 42.332 12.18 41.576 12.18C41.036 12.18 40.556 12.156 40.148 12.108V10.764H42.788V10.008H40.148V8.928H42.512ZM40.148 5.436H41.732V6.432H40.148V5.436ZM41.732 7.176V8.184H40.148V7.176H41.732ZM34.016 13.068C34.688 13.068 35.024 12.732 35.024 12.06V8.448C35.408 8.256 35.804 8.052 36.2 7.836V6.972C35.816 7.188 35.432 7.404 35.024 7.596V5.232H36.308V4.404H35.024V2.22H34.16V4.404H32.684V5.232H34.16V7.98C33.62 8.196 33.068 8.376 32.516 8.52L32.732 9.384C33.212 9.216 33.68 9.036 34.16 8.844V11.844C34.16 12.144 34.004 12.3 33.716 12.3C33.416 12.3 33.104 12.276 32.78 12.24L32.96 13.068H34.016ZM48.368 4.044V4.872H50.636C50.624 5.268 50.6 5.844 50.576 6.612C50.528 7.752 50.36 8.772 50.06 9.672C49.736 10.584 49.1 11.58 48.152 12.648L48.788 13.248C49.592 12.408 50.216 11.472 50.672 10.452C51.008 9.648 51.236 8.76 51.356 7.776H53.876C53.852 9.72 53.816 10.98 53.744 11.568C53.636 12.048 53.348 12.288 52.88 12.312C52.472 12.312 51.98 12.288 51.38 12.264L51.644 13.044C52.148 13.068 52.592 13.092 52.976 13.092C53.768 13.068 54.26 12.732 54.464 12.06C54.608 11.304 54.704 9.6 54.728 6.96H51.428C51.476 6.072 51.5 5.376 51.512 4.872H55.544V4.044H52.052L52.448 3.888C52.232 3.336 51.92 2.736 51.536 2.076L50.696 2.316C51.056 2.868 51.356 3.444 51.62 4.044H48.368ZM45.86 2.352L45.26 2.928C46.148 3.6 46.856 4.236 47.36 4.848L47.96 4.236C47.396 3.612 46.7 2.988 45.86 2.352ZM44.54 5.892V6.72H46.208V11.448C46.208 11.652 46.112 11.832 45.944 12L46.268 12.768C47.084 12.216 47.852 11.58 48.572 10.872L48.344 9.96C47.888 10.416 47.456 10.824 47.048 11.172V5.892H44.54ZM65.492 13.128C66.404 13.128 66.872 12.672 66.872 11.784V2.892H61.34V3.732H65.996V11.556C65.996 12.084 65.768 12.348 65.312 12.348L63.992 12.324L64.208 13.128H65.492ZM57.128 4.188V13.212H58.004V4.188H57.128ZM59.816 5.916V10.428H64.136V5.916H59.816ZM63.26 9.6H60.692V6.744H63.26V9.6ZM58.916 2.1L58.112 2.448C58.664 3.096 59.18 3.828 59.636 4.668L60.404 4.272C59.972 3.48 59.468 2.76 58.916 2.1ZM71 4.692C70.784 4.692 70.616 4.764 70.472 4.92C70.328 5.052 70.268 5.22 70.268 5.436C70.268 5.64 70.328 5.808 70.472 5.952C70.616 6.096 70.784 6.168 71 6.168C71.204 6.168 71.384 6.096 71.528 5.952C71.672 5.808 71.744 5.64 71.744 5.436C71.744 5.22 71.672 5.052 71.528 4.92C71.384 4.764 71.204 4.692 71 4.692ZM71 9.084C70.784 9.084 70.616 9.156 70.472 9.312C70.328 9.444 70.268 9.612 70.268 9.828C70.268 10.032 70.328 10.2 70.472 10.344C70.616 10.488 70.784 10.56 71 10.56C71.204 10.56 71.384 10.488 71.528 10.344C71.672 10.2 71.744 10.032 71.744 9.828C71.744 9.612 71.672 9.444 71.528 9.312C71.384 9.156 71.204 9.084 71 9.084Z" fill="#747A8C"/>
</svg>
