<svg width="22" height="23" viewBox="0 0 22 23" fill="none" xmlns="http://www.w3.org/2000/svg">
<circle cx="6" cy="7.125" r="5" fill="#FDDADF"/>
<path d="M16.5996 6.08333H17.2496V6.35601L17.0551 6.54707L16.5996 6.08333ZM10.5329 12.0417L10.9884 12.5054C10.735 12.7542 10.3289 12.7537 10.0762 12.5042L10.5329 12.0417ZM16.1413 6.275H4.49961V4.975H16.1413V6.275ZM4.64961 6.125V16.125H3.34961V6.125H4.64961ZM4.49961 15.975H16.0996V17.275H4.49961V15.975ZM15.9496 16.125V15.975H17.2496V16.125H15.9496ZM17.0551 6.54707L10.9884 12.5054L10.0775 11.5779L16.1441 5.61959L17.0551 6.54707ZM10.0762 12.5042L4.04287 6.54582L4.95634 5.62085L10.9897 11.5792L10.0762 12.5042ZM16.0996 15.975C16.0168 15.975 15.9496 16.0422 15.9496 16.125H17.2496C17.2496 16.7601 16.7347 17.275 16.0996 17.275V15.975ZM4.64961 16.125C4.64961 16.0422 4.58245 15.975 4.49961 15.975V17.275C3.86448 17.275 3.34961 16.7601 3.34961 16.125H4.64961ZM4.49961 6.275C4.58245 6.275 4.64961 6.20784 4.64961 6.125H3.34961C3.34961 5.48987 3.86448 4.975 4.49961 4.975V6.275ZM16.1413 4.975C16.7534 4.975 17.2496 5.47122 17.2496 6.08333H15.9496C15.9496 6.18919 16.0354 6.275 16.1413 6.275V4.975Z" fill="#263789"/>
<path d="M11.6758 14.8894L13.9324 12.6882L15.129 13.7154L17.759 10.8485" stroke="#263789" stroke-width="1.1" stroke-linecap="round" stroke-linejoin="round"/>
<path d="M18.3442 13.167L18.1087 10.117L15.1384 10.8485" stroke="#263789" stroke-width="1.1" stroke-linecap="round" stroke-linejoin="round"/>
</svg>
