<svg width="22" height="22" viewBox="0 0 22 22" fill="none" xmlns="http://www.w3.org/2000/svg">
<circle cx="7" cy="6" r="5" fill="#FDDADF"/>
<path d="M8.5 9H13.5" stroke="#263789" stroke-width="1.3" stroke-linecap="round"/>
<path d="M11 11.5L11 6.5" stroke="#263789" stroke-width="1.3" stroke-linecap="round"/>
<path d="M6 17.5H5.35C5.35 17.7424 5.48485 17.9646 5.69982 18.0765C5.9148 18.1885 6.17419 18.1715 6.37275 18.0325L6 17.5ZM16 17.5L15.6272 18.0325C15.8258 18.1715 16.0852 18.1885 16.3002 18.0765C16.5152 17.9646 16.65 17.7424 16.65 17.5H16ZM11 14L11.3728 13.4675L11 13.2066L10.6272 13.4675L11 14ZM6.65 17.5V5H5.35V17.5H6.65ZM6.5 5.15H15.5V3.85H6.5V5.15ZM15.35 5V17.5H16.65V5H15.35ZM16.3728 16.9675L11.3728 13.4675L10.6272 14.5325L15.6272 18.0325L16.3728 16.9675ZM10.6272 13.4675L5.62725 16.9675L6.37275 18.0325L11.3728 14.5325L10.6272 13.4675ZM15.5 5.15C15.4172 5.15 15.35 5.08284 15.35 5H16.65C16.65 4.36487 16.1351 3.85 15.5 3.85V5.15ZM6.65 5C6.65 5.08284 6.58284 5.15 6.5 5.15V3.85C5.86487 3.85 5.35 4.36487 5.35 5H6.65Z" fill="#263789"/>
</svg>
