<svg width="22" height="22" viewBox="0 0 22 22" fill="none" xmlns="http://www.w3.org/2000/svg">
<circle cx="11" cy="6" r="5" fill="#EED9FF"/>
<mask id="path-2-inside-1_2243_10235" fill="white">
<path d="M13.9005 11C13.9005 15.4254 11.0003 18 11.0003 18C11.0003 18 8.1001 15.3868 8.1001 11C8.1001 6.62939 11.0003 4 11.0003 4C11.0003 4 13.9005 6.5 13.9005 11Z"/>
</mask>
<path d="M11.0003 18L10.1301 18.9658L10.9938 19.7441L11.8633 18.9722L11.0003 18ZM11.0003 4L11.8491 3.01534L10.9786 2.26495L10.1271 3.0369L11.0003 4ZM12.6005 11C12.6005 12.9199 11.9727 14.4391 11.3385 15.4859C11.0214 16.0093 10.7061 16.4088 10.4754 16.6722C10.3604 16.8035 10.2674 16.9 10.2072 16.96C10.1771 16.99 10.1553 17.0107 10.1432 17.0221C10.1371 17.0278 10.1335 17.0312 10.1324 17.0321C10.1319 17.0326 10.132 17.0325 10.1328 17.0318C10.1332 17.0314 10.1338 17.0309 10.1345 17.0302C10.1349 17.0299 10.1353 17.0295 10.1358 17.0291C10.136 17.0289 10.1364 17.0286 10.1365 17.0285C10.1369 17.0282 10.1373 17.0278 11.0003 18C11.8633 18.9722 11.8637 18.9718 11.8642 18.9714C11.8643 18.9713 11.8648 18.9709 11.8651 18.9706C11.8657 18.9701 11.8664 18.9695 11.8671 18.9688C11.8686 18.9675 11.8702 18.9661 11.872 18.9645C11.8755 18.9613 11.8798 18.9574 11.8848 18.9529C11.8947 18.9438 11.9074 18.9321 11.9225 18.9179C11.9529 18.8894 11.9934 18.8505 12.0426 18.8015C12.141 18.7034 12.2746 18.5641 12.4315 18.385C12.7446 18.0274 13.1543 17.5065 13.5623 16.8331C14.3782 15.4863 15.2005 13.5055 15.2005 11H12.6005ZM11.0003 18C11.8705 17.0342 11.8709 17.0346 11.8713 17.0349C11.8714 17.035 11.8717 17.0353 11.8719 17.0355C11.8724 17.0359 11.8728 17.0363 11.8731 17.0366C11.8738 17.0372 11.8744 17.0377 11.8747 17.0381C11.8755 17.0387 11.8755 17.0388 11.875 17.0382C11.8738 17.0372 11.87 17.0337 11.8638 17.0278C11.8514 17.016 11.8294 16.9947 11.7991 16.9641C11.7383 16.9028 11.6448 16.8047 11.5293 16.6714C11.2976 16.4042 10.9812 16.0003 10.6633 15.4734C10.0268 14.4187 9.4001 12.8991 9.4001 11H6.8001C6.8001 13.4877 7.62344 15.4681 8.43712 16.8167C8.84426 17.4914 9.25294 18.015 9.565 18.3749C9.72135 18.5551 9.85441 18.6955 9.95229 18.7942C10.0013 18.8436 10.0415 18.8828 10.0716 18.9114C10.0867 18.9257 10.0992 18.9374 10.109 18.9465C10.1139 18.951 10.1181 18.9549 10.1216 18.9581C10.1234 18.9597 10.125 18.9612 10.1264 18.9624C10.1271 18.9631 10.1278 18.9637 10.1284 18.9642C10.1287 18.9645 10.1291 18.9649 10.1293 18.965C10.1297 18.9654 10.1301 18.9658 11.0003 18ZM9.4001 11C9.4001 9.10969 10.0264 7.58989 10.6638 6.5318C10.982 6.00346 11.2988 5.59768 11.531 5.32888C11.6467 5.19485 11.7405 5.09603 11.8014 5.03422C11.8318 5.00335 11.854 4.98183 11.8665 4.96987C11.8727 4.9639 11.8765 4.96033 11.8778 4.95919C11.8784 4.95862 11.8783 4.95866 11.8776 4.95931C11.8773 4.95963 11.8768 4.96011 11.8761 4.96074C11.8757 4.96106 11.8753 4.96142 11.8749 4.96181C11.8747 4.962 11.8743 4.96233 11.8742 4.96243C11.8738 4.96276 11.8735 4.9631 11.0003 4C10.1271 3.0369 10.1267 3.03726 10.1263 3.03763C10.1262 3.03777 10.1257 3.03816 10.1254 3.03843C10.1248 3.03899 10.1242 3.03958 10.1235 3.04022C10.1221 3.04149 10.1205 3.04293 10.1188 3.04454C10.1153 3.04775 10.1111 3.05163 10.1062 3.05616C10.0964 3.06524 10.084 3.07697 10.069 3.09132C10.039 3.12002 9.99881 3.15925 9.94995 3.20881C9.85228 3.30787 9.71944 3.44862 9.5633 3.62938C9.25168 3.99018 8.84341 4.51491 8.43662 5.19024C7.62388 6.5395 6.8001 8.5197 6.8001 11H9.4001ZM11.0003 4C10.1515 4.98466 10.1511 4.9843 10.1507 4.98395C10.1506 4.98385 10.1502 4.9835 10.1499 4.98329C10.1494 4.98288 10.149 4.98249 10.1486 4.98215C10.1478 4.98145 10.1472 4.98091 10.1467 4.98051C10.1458 4.9797 10.1455 4.97948 10.1459 4.97983C10.1467 4.98055 10.1501 4.98357 10.156 4.98888C10.1676 4.99951 10.1889 5.01926 10.2184 5.04802C10.2776 5.10559 10.3695 5.19877 10.4835 5.32649C10.712 5.58258 11.0254 5.9733 11.3409 6.48995C11.9707 7.52157 12.6005 9.03976 12.6005 11H15.2005C15.2005 8.46024 14.3801 6.47843 13.5599 5.13505C13.1503 4.4642 12.7387 3.94867 12.4234 3.59538C12.2655 3.41842 12.1308 3.28113 12.0314 3.18441C11.9817 3.13601 11.9406 3.09766 11.9098 3.06947C11.8943 3.05537 11.8815 3.04381 11.8713 3.03478C11.8662 3.03027 11.8618 3.02639 11.8581 3.02315C11.8562 3.02153 11.8545 3.02007 11.853 3.01877C11.8523 3.01812 11.8516 3.01751 11.8509 3.01693C11.8506 3.01665 11.8501 3.01625 11.85 3.01611C11.8495 3.01572 11.8491 3.01534 11.0003 4Z" fill="#263789" mask="url(#path-2-inside-1_2243_10235)"/>
<circle cx="11" cy="11" r="6.35" stroke="#263789" stroke-width="1.3"/>
<path d="M4 11H18" stroke="#263789" stroke-width="1.3"/>
</svg>
