<svg width="22" height="22" viewBox="0 0 22 22" fill="none" xmlns="http://www.w3.org/2000/svg">
<circle cx="16" cy="11" r="5" fill="#D1E4FF"/>
<path fill-rule="evenodd" clip-rule="evenodd" d="M10.5001 4.35001C7.10355 4.35001 4.3501 7.10345 4.3501 10.5C4.3501 13.8966 7.10355 16.65 10.5001 16.65C12.0758 16.65 13.5131 16.0574 14.6013 15.0829L14.728 15.2096L15.478 15.9596L16.978 17.4596C17.2318 17.7135 17.6434 17.7135 17.8972 17.4596C18.1511 17.2058 18.1511 16.7942 17.8972 16.5404L16.3972 15.0404L15.6472 14.2904L15.4742 14.1174C16.2138 13.1023 16.6501 11.8521 16.6501 10.5C16.6501 7.10345 13.8966 4.35001 10.5001 4.35001ZM5.6501 10.5C5.6501 7.82142 7.82152 5.65001 10.5001 5.65001C13.1787 5.65001 15.3501 7.82142 15.3501 10.5C15.3501 13.1786 13.1787 15.35 10.5001 15.35C7.82152 15.35 5.6501 13.1786 5.6501 10.5Z" fill="#3F465C"/>
<path d="M9.55272 8.75922C9.61786 8.60229 9.77106 8.5 9.94097 8.5C10.1109 8.5 10.2641 8.60229 10.3292 8.75921L11.7431 12.1654C11.8092 12.3247 11.6921 12.5 11.5197 12.5C11.4209 12.5 11.332 12.4399 11.2952 12.3481L10.907 11.3796H8.96901L8.58014 12.3498C8.54379 12.4405 8.4559 12.5 8.35817 12.5C8.18767 12.5 8.07195 12.3267 8.13731 12.1692L9.55272 8.75922ZM9.12263 10.993H10.7534L9.95574 8.993H9.93211L9.12263 10.993Z" fill="#3F465C"/>
<path d="M12.6396 8.5112C12.74 8.5112 12.8227 8.53922 12.8936 8.60644C12.9645 8.66246 13 8.7409 13 8.84174C13 8.93697 12.9645 9.01541 12.8936 9.08263C12.8227 9.14426 12.74 9.17787 12.6396 9.17787C12.5391 9.17787 12.4564 9.14426 12.3855 9.08263C12.3146 9.01541 12.2851 8.93697 12.2851 8.84174C12.2851 8.7409 12.3146 8.66246 12.3855 8.60644C12.4564 8.53922 12.5391 8.5112 12.6396 8.5112ZM12.4032 10.127C12.4032 9.99644 12.509 9.89062 12.6396 9.89062C12.7701 9.89062 12.8759 9.99644 12.8759 10.127V12.2637C12.8759 12.3942 12.7701 12.5 12.6396 12.5C12.509 12.5 12.4032 12.3942 12.4032 12.2637V10.127Z" fill="#3F465C"/>
<path d="M9.55272 8.75922C9.61786 8.60229 9.77106 8.5 9.94097 8.5C10.1109 8.5 10.2641 8.60229 10.3292 8.75921L11.7431 12.1654C11.8092 12.3247 11.6921 12.5 11.5197 12.5C11.4209 12.5 11.332 12.4399 11.2952 12.3481L10.907 11.3796H8.96901L8.58014 12.3498C8.54379 12.4405 8.4559 12.5 8.35817 12.5C8.18767 12.5 8.07195 12.3267 8.13731 12.1692L9.55272 8.75922ZM9.12263 10.993H10.7534L9.95574 8.993H9.93211L9.12263 10.993Z" stroke="#3F465C" stroke-width="0.4"/>
<path d="M12.6396 8.5112C12.74 8.5112 12.8227 8.53922 12.8936 8.60644C12.9645 8.66246 13 8.7409 13 8.84174C13 8.93697 12.9645 9.01541 12.8936 9.08263C12.8227 9.14426 12.74 9.17787 12.6396 9.17787C12.5391 9.17787 12.4564 9.14426 12.3855 9.08263C12.3146 9.01541 12.2851 8.93697 12.2851 8.84174C12.2851 8.7409 12.3146 8.66246 12.3855 8.60644C12.4564 8.53922 12.5391 8.5112 12.6396 8.5112ZM12.4032 10.127C12.4032 9.99644 12.509 9.89062 12.6396 9.89062C12.7701 9.89062 12.8759 9.99644 12.8759 10.127V12.2637C12.8759 12.3942 12.7701 12.5 12.6396 12.5C12.509 12.5 12.4032 12.3942 12.4032 12.2637V10.127Z" stroke="#3F465C" stroke-width="0.4"/>
</svg>
