<svg width="22" height="22" viewBox="0 0 22 22" fill="none" xmlns="http://www.w3.org/2000/svg">
<circle cx="14" cy="11" r="5" fill="#D1EDDE"/>
<path d="M10.9979 4.875C11.0041 4.875 11.0104 4.87623 11.0164 4.87855L15.8288 6.78305C15.8477 6.79057 15.8622 6.80902 15.8667 6.83117C16.384 9.43143 16.3765 11.4177 15.8458 12.7318C15.057 14.404 13.46 15.8677 11.1004 17.0818L11.0268 17.1194C11.0195 17.1231 11.0118 17.125 11.0039 17.125C10.9959 17.125 10.9883 17.1231 10.9809 17.1194C8.59899 15.9265 6.9801 14.4537 6.16895 12.741C5.62358 11.1034 5.61291 9.11533 6.13736 6.83145C6.14229 6.80998 6.15623 6.79275 6.17455 6.78551L10.9794 4.87855C10.9853 4.87623 10.9916 4.875 10.9979 4.875ZM10.9979 4C10.8809 3.99998 10.7651 4.02216 10.6565 4.06535L5.85176 5.9723C5.56602 6.08578 5.35383 6.33379 5.28451 6.63566C4.72109 9.08977 4.73695 11.2252 5.34508 13.0363L5.35561 13.0675L5.36955 13.0971C6.2719 15.0158 8.01916 16.6146 10.5891 17.9017C10.7178 17.9662 10.8598 17.9999 11.0037 17.9999C11.1497 17.9999 11.2937 17.9653 11.4237 17.899L11.4989 17.8604C14.0398 16.5531 15.7603 14.9689 16.6405 13.0971L16.6471 13.0832L16.6529 13.069C17.2623 11.566 17.2767 9.43484 16.7246 6.66027C16.6621 6.3465 16.446 6.08619 16.1506 5.9693L11.3384 4.06494C11.23 4.02202 11.1145 3.99999 10.9979 4Z" fill="#3F465C" stroke="#3F465C" stroke-width="0.3"/>
<path d="M13.5 12H11.5V9H13C13.275 9 13.5 8.775 13.5 8.5C13.5 8.225 13.275 8 13 8H9C8.725 8 8.5 8.225 8.5 8.5C8.5 8.775 8.725 9 9 9H10.5V12H8.5C8.225 12 8 12.225 8 12.5C8 12.775 8.225 13 8.5 13H13.5C13.775 13 14 12.775 14 12.5C14 12.225 13.775 12 13.5 12Z" fill="#3F465C"/>
</svg>
