<svg width="22" height="22" viewBox="0 0 22 22" fill="none" xmlns="http://www.w3.org/2000/svg">
<circle cx="16" cy="11" r="5" fill="#FDDADF"/>
<g clip-path="url(#clip0_2243_11002)">
<mask id="path-2-inside-1_2243_11002" fill="white">
<path d="M7.21028 12.9481L4.14637 9.96151C3.84961 9.67225 4.01337 9.16826 4.42348 9.10867L8.65769 8.4934L10.5513 4.65654C10.7347 4.28492 11.2646 4.28492 11.448 4.65654L13.3416 8.4934L17.5758 9.10867C17.9859 9.16826 18.1497 9.67225 17.8529 9.96152L14.789 12.9481L15.5123 17.1652C15.5824 17.5736 15.1537 17.8851 14.7869 17.6923L10.9997 15.7012L7.21247 17.6923C6.84566 17.8851 6.41694 17.5736 6.48699 17.1652L7.21028 12.9481Z"/>
</mask>
<path d="M4.14637 9.96151L3.23896 10.8924L4.14637 9.96151ZM7.21028 12.9481L8.49157 13.1678L8.6071 12.4942L8.11769 12.0172L7.21028 12.9481ZM8.65769 8.4934L8.84463 9.77989L9.52097 9.68161L9.82345 9.06873L8.65769 8.4934ZM4.42348 9.10867L4.23654 7.82218H4.23654L4.42348 9.10867ZM10.5513 4.65654L11.717 5.23188L11.717 5.23188L10.5513 4.65654ZM13.3416 8.4934L12.1759 9.06873L12.4783 9.68161L13.1547 9.77989L13.3416 8.4934ZM11.448 4.65654L12.6138 4.08121V4.08121L11.448 4.65654ZM17.5758 9.10867L17.7628 7.82218L17.5758 9.10867ZM14.789 12.9481L13.8816 12.0172L13.3922 12.4942L13.5077 13.1679L14.789 12.9481ZM17.8529 9.96152L16.9455 9.0306V9.0306L17.8529 9.96152ZM15.5123 17.1652L14.231 17.3849L15.5123 17.1652ZM10.9997 15.7012L11.6046 14.5505L10.9997 14.2325L10.3947 14.5505L10.9997 15.7012ZM14.7869 17.6923L15.3918 16.5416H15.3918L14.7869 17.6923ZM7.21247 17.6923L7.81742 18.8429H7.81742L7.21247 17.6923ZM6.48699 17.1652L5.2057 16.9454H5.2057L6.48699 17.1652ZM3.23896 10.8924L6.30286 13.879L8.11769 12.0172L5.05379 9.0306L3.23896 10.8924ZM8.47075 7.20691L4.23654 7.82218L4.61042 10.3952L8.84463 9.77989L8.47075 7.20691ZM9.38553 4.08121L7.49193 7.91807L9.82345 9.06873L11.717 5.23188L9.38553 4.08121ZM14.5074 7.91807L12.6138 4.08121L10.2823 5.23188L12.1759 9.06873L14.5074 7.91807ZM17.7628 7.82218L13.5286 7.20691L13.1547 9.77989L17.3889 10.3952L17.7628 7.82218ZM15.6964 13.879L18.7603 10.8924L16.9455 9.0306L13.8816 12.0172L15.6964 13.879ZM16.7936 16.9454L16.0703 12.7283L13.5077 13.1679L14.231 17.3849L16.7936 16.9454ZM10.3947 16.8519L14.1819 18.8429L15.3918 16.5416L11.6046 14.5505L10.3947 16.8519ZM7.81742 18.8429L11.6046 16.8519L10.3947 14.5505L6.60752 16.5416L7.81742 18.8429ZM5.92899 12.7283L5.2057 16.9454L7.76829 17.3849L8.49157 13.1678L5.92899 12.7283ZM6.60752 16.5416C7.19443 16.233 7.88037 16.7314 7.76829 17.3849L5.2057 16.9454C4.95351 18.4158 6.49688 19.5372 7.81742 18.8429L6.60752 16.5416ZM14.231 17.3849C14.1189 16.7314 14.8049 16.233 15.3918 16.5416L14.1819 18.8429C15.5024 19.5372 17.0458 18.4158 16.7936 16.9454L14.231 17.3849ZM17.3889 10.3952C16.7327 10.2998 16.4707 9.49343 16.9455 9.0306L18.7603 10.8924C19.8287 9.85107 19.2392 8.03672 17.7628 7.82218L17.3889 10.3952ZM11.717 5.23188C11.4236 5.82647 10.5757 5.82648 10.2823 5.23188L12.6138 4.08121C11.9535 2.74336 10.0458 2.74337 9.38553 4.08121L11.717 5.23188ZM5.05379 9.0306C5.5286 9.49343 5.2666 10.2998 4.61042 10.3952L4.23654 7.82218C2.76014 8.03671 2.17063 9.85107 3.23896 10.8924L5.05379 9.0306Z" fill="#263789" mask="url(#path-2-inside-1_2243_11002)"/>
</g>
<defs>
<clipPath id="clip0_2243_11002">
<rect width="16" height="16" fill="white" transform="translate(3 3)"/>
</clipPath>
</defs>
</svg>
