<svg width="22" height="22" viewBox="0 0 22 22" fill="none" xmlns="http://www.w3.org/2000/svg">
<circle cx="16" cy="11" r="5" fill="#D1EDDE"/>
<path fill-rule="evenodd" clip-rule="evenodd" d="M11 5C7.68629 5 5 7.68629 5 11C5 14.3137 7.68629 17 11 17C14.3137 17 17 14.3137 17 11C17 7.68629 14.3137 5 11 5ZM4 11C4 7.13401 7.13401 4 11 4C14.866 4 18 7.13401 18 11C18 14.866 14.866 18 11 18C7.13401 18 4 14.866 4 11Z" fill="#3F465C"/>
<path fill-rule="evenodd" clip-rule="evenodd" d="M10.2167 8C10.3074 8 10.3878 8.0584 10.4162 8.14485L12.1817 13.5231C12.2265 13.6595 12.1253 13.8 11.9823 13.8H11.1158C11.0236 13.8 10.9421 13.7396 10.9151 13.651L10.5687 12.5182H8.62324L8.26879 13.6523C8.24131 13.7402 8.16018 13.8 8.06842 13.8H7.29073C7.14756 13.8 7.04636 13.6593 7.09138 13.5229L8.8656 8.14455C8.89407 8.05826 8.97441 8 9.06495 8H10.2167ZM8.87242 11.5141H10.325L10.3013 11.4137L9.63195 9.18544H9.57328L8.89662 11.4137L8.87242 11.5141Z" fill="#263789"/>
<rect x="13" y="8" width="1.2" height="5.8" rx="0.2" fill="#263789"/>
<circle cx="11" cy="11" r="6.35" stroke="#263789" stroke-width="1.3"/>
</svg>
