<svg width="22" height="22" viewBox="0 0 22 22" fill="none" xmlns="http://www.w3.org/2000/svg">
<circle cx="16" cy="11" r="5" fill="#EED9FF"/>
<g clip-path="url(#clip0_2243_11129)">
<path d="M14.5 9H18" stroke="#263789" stroke-width="1.3" stroke-linecap="round"/>
<path d="M15.5 11H18" stroke="#263789" stroke-width="1.3" stroke-linecap="round"/>
<path d="M16.5 13H18" stroke="#263789" stroke-width="1.3" stroke-linecap="round"/>
<circle cx="9.5" cy="7.75" r="2.75" stroke="#263789" stroke-width="1.3"/>
<path d="M14.35 14.9004V16.5504H15.65V14.9004H14.35ZM14.45 16.4504H4.55V17.7504H14.45V16.4504ZM4.65 16.5504V14.9004H3.35V16.5504H4.65ZM6.75 12.8004H12.25V11.5004H6.75V12.8004ZM4.55 16.4504C4.60523 16.4504 4.65 16.4952 4.65 16.5504H3.35C3.35 17.2131 3.88726 17.7504 4.55 17.7504V16.4504ZM14.35 16.5504C14.35 16.4952 14.3948 16.4504 14.45 16.4504V17.7504C15.1127 17.7504 15.65 17.2131 15.65 16.5504H14.35ZM15.65 14.9004C15.65 13.0226 14.1278 11.5004 12.25 11.5004V12.8004C13.4098 12.8004 14.35 13.7406 14.35 14.9004H15.65ZM4.65 14.9004C4.65 13.7406 5.5902 12.8004 6.75 12.8004V11.5004C4.87223 11.5004 3.35 13.0226 3.35 14.9004H4.65Z" fill="#263789"/>
</g>
<defs>
<clipPath id="clip0_2243_11129">
<rect width="16" height="16" fill="white" transform="translate(3 3)"/>
</clipPath>
</defs>
</svg>
