<svg width="22" height="22" viewBox="0 0 22 22" fill="none" xmlns="http://www.w3.org/2000/svg">
<circle cx="7" cy="6" r="5" fill="#FDDADF"/>
<circle cx="9.95996" cy="8.25" r="2.75" stroke="#263789" stroke-width="1.3"/>
<path d="M9.5 12.54L7 12.54C5.61929 12.54 4.5 13.6593 4.5 15.04V17C4.5 17.2762 4.72386 17.5 5 17.5H10.5" stroke="#263789" stroke-width="1.3" stroke-linecap="round"/>
<circle cx="14.5" cy="14.5" r="2.35" stroke="#263789" stroke-width="1.3"/>
<path d="M17.1022 16.183C16.8484 15.9291 16.4368 15.9291 16.183 16.183C15.9291 16.4368 15.9291 16.8484 16.183 17.1022L17.1022 16.183ZM16.9608 17.88C17.2146 18.1339 17.6262 18.1339 17.88 17.88C18.1339 17.6262 18.1339 17.2146 17.88 16.9608L16.9608 17.88ZM16.183 17.1022L16.9608 17.88L17.88 16.9608L17.1022 16.183L16.183 17.1022Z" fill="#263789"/>
</svg>
