<svg width="16" height="16" viewBox="0 0 16 16" fill="none" xmlns="http://www.w3.org/2000/svg">
<path d="M12.2999 5.3C13.2112 5.3 13.9499 4.56126 13.9499 3.65C13.9499 2.73873 13.2112 2 12.2999 2C11.3886 2 10.6499 2.73873 10.6499 3.65C10.6499 4.56126 11.3886 5.3 12.2999 5.3Z" stroke="#6F7485" stroke-width="1.3" stroke-linejoin="round"/>
<path d="M3.70005 13.967C4.61131 13.967 5.35005 13.2283 5.35005 12.317C5.35005 11.4057 4.61131 10.667 3.70005 10.667C2.78878 10.667 2.05005 11.4057 2.05005 12.317C2.05005 13.2283 2.78878 13.967 3.70005 13.967Z" stroke="#6F7485" stroke-width="1.3" stroke-linejoin="round"/>
<path d="M12.3 5.33333V11.8347C12.3 13.0306 11.338 14 10.1513 14C8.96467 14 8.0027 13.0306 8.0027 11.8347V4.16807C8.0027 2.97067 7.0395 2 5.85134 2C4.66315 2 3.69995 2.97067 3.69995 4.16807V10.6667" stroke="#6F7485" stroke-width="1.3" stroke-linejoin="round"/>
</svg>
