<svg width="22" height="22" viewBox="0 0 22 22" fill="none" xmlns="http://www.w3.org/2000/svg">
<circle cx="7" cy="6" r="5" fill="#FDDADF"/>
<g clip-path="url(#clip0_1046_7048)">
<path d="M17.25 10V6.5C17.25 6.22386 17.0261 6 16.75 6H5.25C4.97386 6 4.75 6.22386 4.75 6.5V15.5C4.75 15.7761 4.97267 16 5.24881 16C6.2332 16 8.50365 16 10.5 16" stroke="#263789" stroke-width="1.3" stroke-linecap="round"/>
<path d="M5 6.5L11 12L17 6.5" stroke="#263789" stroke-width="1.3" stroke-linecap="round"/>
<circle cx="15.5" cy="14.5" r="2.35" stroke="#263789" stroke-width="1.3"/>
<path d="M18.1022 16.183C17.8484 15.9291 17.4368 15.9291 17.183 16.183C16.9291 16.4368 16.9291 16.8484 17.183 17.1022L18.1022 16.183ZM17.9608 17.88C18.2146 18.1339 18.6262 18.1339 18.88 17.88C19.1339 17.6262 19.1339 17.2146 18.88 16.9608L17.9608 17.88ZM17.183 17.1022L17.9608 17.88L18.88 16.9608L18.1022 16.183L17.183 17.1022Z" fill="#263789"/>
</g>
<defs>
<clipPath id="clip0_1046_7048">
<rect width="16" height="16" fill="white" transform="translate(3 3)"/>
</clipPath>
</defs>
</svg>
