<svg width="22" height="22" viewBox="0 0 22 22" fill="none" xmlns="http://www.w3.org/2000/svg">
<circle cx="11" cy="7" r="5" fill="#FCE8C4"/>
<path d="M5.5 10.05C5.14101 10.05 4.85 10.341 4.85 10.7C4.85 11.059 5.14101 11.35 5.5 11.35V10.05ZM8.3 7.5L8.92101 7.30805C8.83988 7.04558 8.60251 6.86246 8.32804 6.85061C8.05357 6.83875 7.80129 7.00074 7.69784 7.25524L8.3 7.5ZM10 13L9.37899 13.1919C9.46196 13.4604 9.70804 13.6451 9.98897 13.6499C10.2699 13.6547 10.5221 13.4784 10.6141 13.2129L10 13ZM12.6 5.5L13.2105 5.27692C13.1162 5.01868 12.8695 4.84774 12.5946 4.85002C12.3197 4.85231 12.0759 5.02732 11.9859 5.2871L12.6 5.5ZM16.5 11.35C16.859 11.35 17.15 11.059 17.15 10.7C17.15 10.341 16.859 10.05 16.5 10.05V11.35ZM14.492 10.6781L13.8815 10.9012L14.492 10.6781ZM7.00772 10.6792L7.60987 10.924L7.00772 10.6792ZM5.5 11.35H6.97684V10.05H5.5V11.35ZM7.60987 10.924L8.90216 7.74476L7.69784 7.25524L6.40556 10.4345L7.60987 10.924ZM7.67899 7.69195L9.37899 13.1919L10.621 12.8081L8.92101 7.30805L7.67899 7.69195ZM10.6141 13.2129L13.2141 5.7129L11.9859 5.2871L9.38586 12.7871L10.6141 13.2129ZM11.9895 5.72308L13.8815 10.9012L15.1025 10.455L13.2105 5.27692L11.9895 5.72308ZM14.5233 11.35H16.5V10.05H14.5233V11.35ZM13.8815 10.9012C13.98 11.1707 14.2364 11.35 14.5233 11.35V10.05C14.7823 10.05 15.0136 10.2118 15.1025 10.455L13.8815 10.9012ZM6.97684 11.35C7.25487 11.35 7.50518 11.1815 7.60987 10.924L6.40556 10.4345C6.50004 10.202 6.72593 10.05 6.97684 10.05V11.35Z" fill="#263789"/>
<path d="M5.5 16H16.5" stroke="#263789" stroke-width="1.3" stroke-linecap="round"/>
</svg>
