<svg width="22" height="22" viewBox="0 0 22 22" fill="none" xmlns="http://www.w3.org/2000/svg">
<circle cx="11" cy="6" r="5" fill="#D1E4FF"/>
<path d="M8.5 9.5C8.5 8.76596 8.5 7.7225 8.5 7.24983C8.5 7.11176 8.61193 7 8.75 7H16.25C16.3881 7 16.5 7.11193 16.5 7.25V16.25C16.5 16.3881 16.3881 16.5 16.25 16.5H8.75C8.61193 16.5 8.5 16.3881 8.5 16.25V14" stroke="#263789" stroke-width="1.3" stroke-linecap="round"/>
<path d="M8 11.75H13.5" stroke="#263789" stroke-width="1.3" stroke-linecap="round"/>
<path d="M8.5 14.9998H5.75C5.61193 14.9998 5.5 14.8879 5.5 14.7498L5.5 5.5498C5.5 5.41173 5.61193 5.2998 5.75 5.2998H13.75C13.8881 5.2998 14 5.41173 14 5.5498V6.9998" stroke="#263789" stroke-width="1.3"/>
<path d="M12 9.75L14 11.75L12 13.75" stroke="#263789" stroke-width="1.3" stroke-linecap="round" stroke-linejoin="round"/>
</svg>
