<svg width="22" height="22" viewBox="0 0 22 22" fill="none" xmlns="http://www.w3.org/2000/svg">
<circle cx="16" cy="11" r="5" fill="#EED9FF"/>
<path d="M15.2999 8.3C16.2112 8.3 16.9499 7.56126 16.9499 6.65C16.9499 5.73873 16.2112 5 15.2999 5C14.3886 5 13.6499 5.73873 13.6499 6.65C13.6499 7.56126 14.3886 8.3 15.2999 8.3Z" stroke="#263789" stroke-width="1.3" stroke-linejoin="round"/>
<path d="M6.70005 16.967C7.61131 16.967 8.35005 16.2283 8.35005 15.317C8.35005 14.4057 7.61131 13.667 6.70005 13.667C5.78878 13.667 5.05005 14.4057 5.05005 15.317C5.05005 16.2283 5.78878 16.967 6.70005 16.967Z" stroke="#263789" stroke-width="1.3" stroke-linejoin="round"/>
<path d="M15.3 8.33333V14.8347C15.3 16.0306 14.338 17 13.1513 17C11.9647 17 11.0027 16.0306 11.0027 14.8347V7.16807C11.0027 5.97067 10.0395 5 8.85134 5C7.66315 5 6.69995 5.97067 6.69995 7.16807V13.6667" stroke="#263789" stroke-width="1.3" stroke-linejoin="round"/>
</svg>
