<svg width="16" height="16" viewBox="0 0 16 16" fill="none" xmlns="http://www.w3.org/2000/svg">
<g clip-path="url(#clip0_1855_6347)">
<path d="M14.25 7V3.5C14.25 3.22386 14.0261 3 13.75 3H2.25C1.97386 3 1.75 3.22386 1.75 3.5V12.5C1.75 12.7761 1.97267 13 2.24881 13C3.2332 13 5.50365 13 7.5 13" stroke="#6F7485" stroke-width="1.3" stroke-linecap="round"/>
<path d="M2 3.5L8 9L14 3.5" stroke="#6F7485" stroke-width="1.3" stroke-linecap="round"/>
<circle cx="12.5" cy="11.5" r="2.35" stroke="#6F7485" stroke-width="1.3"/>
<path d="M15.1022 13.183C14.8484 12.9291 14.4368 12.9291 14.183 13.183C13.9291 13.4368 13.9291 13.8484 14.183 14.1022L15.1022 13.183ZM14.9608 14.88C15.2146 15.1339 15.6262 15.1339 15.88 14.88C16.1339 14.6262 16.1339 14.2146 15.88 13.9608L14.9608 14.88ZM14.183 14.1022L14.9608 14.88L15.88 13.9608L15.1022 13.183L14.183 14.1022Z" fill="#6F7485"/>
</g>
<defs>
<clipPath id="clip0_1855_6347">
<rect width="16" height="16" fill="white"/>
</clipPath>
</defs>
</svg>
