<svg width="22" height="22" viewBox="0 0 22 22" fill="none" xmlns="http://www.w3.org/2000/svg">
<circle cx="16" cy="11" r="5" fill="#D1EDDE"/>
<path d="M5 8C5 7.72386 5.22386 7.5 5.5 7.5H16.5C16.7761 7.5 17 7.72386 17 8V16C17 16.2761 16.7761 16.5 16.5 16.5H5.5C5.22386 16.5 5 16.2761 5 16V8Z" stroke="#263789" stroke-width="1.3"/>
<path d="M5 11H9.5M17 11H12.5" stroke="#263789" stroke-width="1.3" stroke-linecap="round" stroke-linejoin="round"/>
<path d="M14 7V5.75C14 5.61193 13.8881 5.5 13.75 5.5H8.25C8.11193 5.5 8 5.61193 8 5.75V7" stroke="#263789" stroke-width="1.3"/>
<rect x="10" y="9.5" width="2" height="3" stroke="#263789" stroke-width="1.3" stroke-linejoin="round"/>
</svg>
