<svg width="22" height="22" viewBox="0 0 22 22" fill="none" xmlns="http://www.w3.org/2000/svg">
<circle cx="11" cy="7" r="5" fill="#FCE8C4"/>
<path d="M9.3457 8.2998L10.9821 9.93617L12.6184 8.2998" stroke="#263789" stroke-width="1.3" stroke-linecap="round"/>
<path d="M8.7998 10.4814L13.1634 10.4814" stroke="#263789" stroke-width="1.3" stroke-linecap="round"/>
<path d="M8.7998 12.6631L13.1634 12.6631" stroke="#263789" stroke-width="1.3" stroke-linecap="round"/>
<path d="M10.9814 9.93652V14.3002" stroke="#263789" stroke-width="1.3" stroke-linecap="round"/>
<path d="M17.6495 11C17.6495 10.641 17.3585 10.35 16.9995 10.35C16.6405 10.35 16.3495 10.641 16.3495 11L17.6495 11ZM4.34951 11C4.34951 11.359 4.64053 11.65 4.99951 11.65C5.3585 11.65 5.64951 11.359 5.64951 11L4.34951 11ZM5.01263 10.6L5.66123 10.6427L5.01263 10.6ZM16.9864 11.4L16.3378 11.3573L16.9864 11.4ZM15.6366 8.32963C15.8161 8.64053 16.2136 8.74707 16.5245 8.5676C16.8354 8.38812 16.9419 7.9906 16.7624 7.6797L15.6366 8.32963ZM6.36485 13.6745C6.1851 13.3638 5.78747 13.2576 5.47673 13.4374C5.16599 13.6171 5.05981 14.0147 5.23956 14.3255L6.36485 13.6745ZM5.64951 11C5.64951 10.8798 5.65346 10.7607 5.66123 10.6427L4.36404 10.5573C4.3544 10.7037 4.34951 10.8513 4.34951 11L5.64951 11ZM5.66123 10.6427C5.84472 7.85488 8.1649 5.65 10.9995 5.65L10.9995 4.35C7.47553 4.35 4.59221 7.09069 4.36404 10.5573L5.66123 10.6427ZM16.3495 11C16.3495 11.1202 16.3456 11.2393 16.3378 11.3573L17.635 11.4427C17.6446 11.2963 17.6495 11.1487 17.6495 11L16.3495 11ZM16.3378 11.3573C16.1543 14.1451 13.8341 16.35 10.9995 16.35L10.9995 17.65C14.5235 17.65 17.4068 14.9093 17.635 11.4427L16.3378 11.3573ZM10.9995 5.65C12.9807 5.65 14.7112 6.72652 15.6366 8.32963L16.7624 7.6797C15.6143 5.69085 13.4639 4.35 10.9995 4.35L10.9995 5.65ZM10.9995 16.35C9.02008 16.35 7.29087 15.2753 6.36485 13.6745L5.23956 14.3255C6.3884 16.3115 8.53726 17.65 10.9995 17.65L10.9995 16.35Z" fill="#263789"/>
<path d="M4.87169 11.5971H5.12733L4.99951 11.7249L4.87169 11.5971Z" stroke="#263789" stroke-width="1.3"/>
<path d="M17.1273 10.4029L16.8717 10.4029L16.9995 10.2751L17.1273 10.4029Z" stroke="#263789" stroke-width="1.3"/>
</svg>
