<svg width="22" height="22" viewBox="0 0 22 22" fill="none" xmlns="http://www.w3.org/2000/svg">
<circle cx="16" cy="11" r="5" fill="#FDDCE1"/>
<path fill-rule="evenodd" clip-rule="evenodd" d="M12.5098 7.41946C12.754 7.11221 12.8999 6.72331 12.8999 6.30034C12.8999 6.25861 12.8985 6.21721 12.8957 6.17618C15.0837 6.95526 16.6501 9.04487 16.6501 11.5003C16.6501 11.8962 16.6094 12.2825 16.5319 12.6553C16.3083 12.5557 16.0607 12.5003 15.8001 12.5003C15.5934 12.5003 15.3949 12.5352 15.2101 12.5993C15.3015 12.2482 15.3501 11.88 15.3501 11.5003C15.3501 9.62871 14.1681 8.03315 12.5098 7.41946ZM11.0001 17.1503C12.4284 17.1503 13.733 16.6203 14.7278 15.7462C14.3682 15.4791 14.1118 15.0811 14.0289 14.6227C13.2457 15.3825 12.1775 15.8503 11.0001 15.8503C10.047 15.8503 9.16546 15.5438 8.44874 15.0239C8.26682 15.4378 7.93362 15.7702 7.51914 15.951C8.47852 16.7024 9.687 17.1503 11.0001 17.1503ZM5.55215 13.0032C5.42045 12.5247 5.3501 12.0207 5.3501 11.5003C5.3501 8.96862 7.01526 6.82583 9.31012 6.10742C9.30337 6.1708 9.2999 6.23517 9.2999 6.30034C9.2999 6.6985 9.42918 7.06647 9.64805 7.36456C7.90755 7.93319 6.6501 9.56991 6.6501 11.5003C6.6501 11.8446 6.69008 12.1795 6.76567 12.5007C6.29474 12.5095 5.86806 12.6992 5.55215 13.0032Z" fill="#263789"/>
<circle cx="11.0998" cy="6.3" r="1.8" stroke="#263789" stroke-width="1.3"/>
<circle cx="15.8" cy="14.3" r="1.8" stroke="#263789" stroke-width="1.3"/>
<circle cx="6.8" cy="14.3" r="1.8" stroke="#263789" stroke-width="1.3"/>
</svg>
