<svg width="22" height="22" viewBox="0 0 22 22" fill="none" xmlns="http://www.w3.org/2000/svg">
<circle cx="11" cy="6" r="5" fill="#D1E4FF"/>
<circle cx="9.5" cy="8.5" r="2.5" stroke="#263789" stroke-width="1.3"/>
<path d="M13.85 15V16.5H15.15V15H13.85ZM14 16.35H5V17.65H14V16.35ZM5.15 16.5V15H3.85V16.5H5.15ZM7 13.15H12V11.85H7V13.15ZM5 16.35C5.08284 16.35 5.15 16.4172 5.15 16.5H3.85C3.85 17.1351 4.36487 17.65 5 17.65V16.35ZM13.85 16.5C13.85 16.4172 13.9172 16.35 14 16.35V17.65C14.6351 17.65 15.15 17.1351 15.15 16.5H13.85ZM15.15 15C15.15 13.2603 13.7397 11.85 12 11.85V13.15C13.0217 13.15 13.85 13.9783 13.85 15H15.15ZM5.15 15C5.15 13.9783 5.97827 13.15 7 13.15V11.85C5.2603 11.85 3.85 13.2603 3.85 15H5.15Z" fill="#263789"/>
<path d="M11.8662 4.73199C12.1863 4.58312 12.5431 4.5 12.9194 4.5C14.3001 4.5 15.4194 5.61929 15.4194 7C15.4194 8.05129 14.7705 8.95102 13.8513 9.3205" stroke="#263789" stroke-width="1.3" stroke-linecap="round"/>
<path d="M13.8496 11H15.4195C16.8002 11 17.9195 12.1193 17.9195 13.5V15C17.9195 15.2761 17.6957 15.5 17.4195 15.5H16.4996" stroke="#263789" stroke-width="1.3" stroke-linecap="round"/>
</svg>
