<svg width="16" height="17" viewBox="0 0 16 17" fill="none" xmlns="http://www.w3.org/2000/svg">
<path d="M13.25 4.68555V3.63555C13.25 3.24895 12.9366 2.93555 12.55 2.93555H3.45C3.0634 2.93555 2.75 3.24895 2.75 3.63555V12.7355C2.75 13.1221 3.0634 13.4355 3.45 13.4355H12.55C12.9366 13.4355 13.25 13.1221 13.25 12.7355V11.6855" stroke="#386EE7"/>
<path d="M13.25 8.18555L13.6036 8.5391C13.7988 8.34384 13.7988 8.02726 13.6036 7.83199L13.25 8.18555ZM5.375 8.68555H12.8125V7.68555H5.375V8.68555ZM10.2714 5.9141L12.8964 8.5391L13.6036 7.83199L10.9786 5.20699L10.2714 5.9141ZM12.8964 7.83199L10.2714 10.457L10.9786 11.1641L13.6036 8.5391L12.8964 7.83199Z" fill="#386EE7"/>
</svg>
