<svg width="16" height="16" viewBox="0 0 16 16" fill="none" xmlns="http://www.w3.org/2000/svg">
<circle cx="8" cy="8.18555" r="7" fill="#6BA9FF" stroke="white" stroke-width="0.5"/>
<path d="M10.6175 9.25953L10.9032 9.7544L11.1889 10.2493C11.3467 10.5226 11.253 10.8721 10.9797 11.0299L9.28213 12.01C9.00882 12.1678 8.65934 12.0741 8.50155 11.8008L6.78726 8.83158C6.62947 8.55827 6.72311 8.20879 6.99642 8.05099L7.5093 7.75488L8.01318 7.46397" stroke="white"/>
<path d="M5.85717 7.22203L5.57146 6.72716L5.28574 6.23228C5.12795 5.95897 5.22159 5.60949 5.4949 5.4517L7.19305 4.47127C7.46636 4.31348 7.81584 4.40712 7.97363 4.68043L9.68792 7.64966C9.84571 7.92297 9.75207 8.27245 9.47876 8.43025L8.96567 8.72648L8.46169 9.01745" stroke="white"/>
</svg>
