<svg width="32" height="32" viewBox="0 0 32 32" fill="none" xmlns="http://www.w3.org/2000/svg">
  <circle cx="16" cy="16" r="16" fill="#4C6AFF" />
  <path fill-rule="evenodd" clip-rule="evenodd" d="M13.9187 15C15.5756 15 16.9187 13.6569 16.9187 12C16.9187 10.3431 15.5756 9 13.9187 9C12.2618 9 10.9187 10.3431 10.9187 12C10.9187 13.6569 12.2618 15 13.9187 15ZM11.1187 16C9.35139 16 7.9187 17.4327 7.9187 19.2V21.2C7.9187 21.6418 8.27687 22 8.7187 22H19.1187C19.5605 22 19.9187 21.6418 19.9187 21.2V19.2C19.9187 17.4327 18.486 16 16.7187 16H11.1187Z" fill="white" />
  <path fill-rule="evenodd" clip-rule="evenodd" d="M16.4185 14.5987C16.8597 14.8539 17.372 15 17.9185 15C19.5753 15 20.9185 13.6569 20.9185 12C20.9185 10.3431 19.5753 9 17.9185 9C17.372 9 16.8597 9.14609 16.4185 9.40135C17.3152 9.92006 17.9185 10.8896 17.9185 12C17.9185 13.1104 17.3152 14.0799 16.4185 14.5987ZM20.1185 22H23.1185C23.5603 22 23.9185 21.6418 23.9185 21.2V19.2C23.9185 17.4327 22.4858 16 20.7185 16H17.7185C19.4858 16 20.9185 17.4327 20.9185 19.2V21.2C20.9185 21.6418 20.5603 22 20.1185 22Z" fill="white" />
</svg>
  