<svg width="20" height="20" viewBox="0 0 20 20" fill="none" xmlns="http://www.w3.org/2000/svg">
<g clip-path="url(#clip0_48_164497)">
<path d="M20 0H0V20H20V0Z" fill="white" fill-opacity="0.01"/>
<path fill-rule="evenodd" clip-rule="evenodd" d="M2.49968 2.16626C1.62523 2.16626 0.916344 2.87514 0.916344 3.74959V16.2496C0.916344 17.1241 1.62523 17.8329 2.49968 17.8329H17.4997C18.3741 17.8329 19.083 17.1241 19.083 16.2496V6.24959C19.083 5.37513 18.3741 4.66626 17.4997 4.66626H10.4681C10.3939 4.66626 10.3235 4.6333 10.276 4.57631L8.79236 2.79594C8.45987 2.39695 7.96733 2.16626 7.44797 2.16626H2.49968ZM2.41634 3.74959C2.41634 3.70357 2.45365 3.66626 2.49968 3.66626H7.44797C7.52216 3.66626 7.59253 3.69922 7.64002 3.75621L9.12366 5.53658C9.45615 5.93557 9.94869 6.16626 10.4681 6.16626H17.4997C17.5457 6.16626 17.583 6.20356 17.583 6.24959V8.41626H2.41634V3.74959ZM2.41634 9.91626V16.2496C2.41634 16.2956 2.45365 16.3329 2.49968 16.3329H17.4997C17.5457 16.3329 17.583 16.2956 17.583 16.2496V9.91626H2.41634Z" fill="#3F465C"/>
</g>
<defs>
<clipPath id="clip0_48_164497">
<rect width="20" height="20" fill="white"/>
</clipPath>
</defs>
</svg>
