<svg width="20" height="20" viewBox="0 0 20 20" fill="none" xmlns="http://www.w3.org/2000/svg">
<path fill-rule="evenodd" clip-rule="evenodd" d="M1.875 3.75C1.875 3.05964 2.43464 2.5 3.125 2.5H16.875C17.5654 2.5 18.125 3.05964 18.125 3.75V16.25C18.125 16.9404 17.5654 17.5 16.875 17.5H3.125C2.43464 17.5 1.875 16.9404 1.875 16.25V3.75ZM16.875 3.75L3.125 3.75V16.25H6.25818L12.9878 10.2076C13.3908 9.84571 14.0039 9.85309 14.3981 10.2245L16.875 12.5586V3.75ZM16.875 14.2761L13.6803 11.2657L8.12917 16.25H16.875V14.2761ZM6.875 6.875C6.18464 6.875 5.625 7.43464 5.625 8.125C5.625 8.81536 6.18464 9.375 6.875 9.375C7.56536 9.375 8.125 8.81536 8.125 8.125C8.125 7.43464 7.56536 6.875 6.875 6.875ZM4.375 8.125C4.375 6.74429 5.49429 5.625 6.875 5.625C8.25571 5.625 9.375 6.74429 9.375 8.125C9.375 9.50571 8.25571 10.625 6.875 10.625C5.49429 10.625 4.375 9.50571 4.375 8.125Z" fill="#3F465C"/>
</svg>
