<svg width="28" height="28" viewBox="0 0 28 28" fill="none" xmlns="http://www.w3.org/2000/svg">
<rect width="28" height="28" rx="14" fill="#3476B0"/>
<path d="M9.52969 20.7737H6.41065V10.7931H9.52969V20.7737ZM7.89023 9.54454H7.86775C6.73915 9.54454 6.00732 8.7816 6.00732 7.81508C6.00732 6.82938 6.76115 6.08203 7.91223 6.08203C9.06246 6.08203 9.77028 6.82747 9.79286 7.81233C9.7929 8.77922 9.06249 9.54454 7.89023 9.54454ZM22.0073 20.7737H18.4709V15.6088C18.4709 14.257 17.9183 13.3346 16.7014 13.3346C15.7708 13.3346 15.254 13.957 15.0129 14.5573C14.9228 14.7723 14.9366 15.0723 14.9366 15.3731V20.7736H11.4332C11.4332 20.7736 11.4787 11.6248 11.4332 10.793H14.9366V12.3594C15.1437 11.6745 16.2628 10.697 18.0501 10.697C20.266 10.697 22.0073 12.1329 22.0073 15.2238V20.7737Z" fill="white"/>
<rect width="28" height="28" rx="14" stroke="white"/>
</svg>
