<svg width="24" height="24" viewBox="0 0 24 24" fill="none" xmlns="http://www.w3.org/2000/svg">
<g opacity="0.5">
<path d="M6.55657 14.1098L3.33128 10.966C2.88614 10.532 3.13177 9.77607 3.74694 9.68668L8.20418 9.039C8.69275 8.96801 9.11509 8.66116 9.33359 8.21844L11.3269 4.17948C11.602 3.62205 12.3969 3.62204 12.672 4.17948L14.6654 8.21844C14.8839 8.66116 15.3062 8.96801 15.7948 9.039L20.252 9.68668C20.8672 9.77607 21.1128 10.5321 20.6677 10.966L17.4424 14.1098C17.0888 14.4544 16.9275 14.9509 17.011 15.4375L17.7724 19.8767C17.8775 20.4894 17.2344 20.9566 16.6842 20.6674L12.6975 18.5714C12.2605 18.3417 11.7385 18.3417 11.3015 18.5714L7.3148 20.6674C6.76458 20.9566 6.12151 20.4894 6.22659 19.8767L6.98797 15.4375C7.07142 14.9509 6.9101 14.4544 6.55657 14.1098Z" stroke="white" stroke-width="1.5"/>
</g>
</svg>
