<svg width="16" height="16" viewBox="0 0 16 16" fill="none" xmlns="http://www.w3.org/2000/svg">
<path d="M8.10327 3.8172C8.47008 3.07395 9.52993 3.07395 9.89674 3.8172L10.8246 5.69721C10.9702 5.99236 11.2518 6.19693 11.5775 6.24425L13.6522 6.54573C14.4725 6.66491 14.8 7.67288 14.2065 8.25142L12.7052 9.71481C12.4695 9.94454 12.3619 10.2755 12.4176 10.5999L12.772 12.6663C12.9121 13.4832 12.0547 14.1061 11.321 13.7204L9.46535 12.7449C9.17402 12.5917 8.82599 12.5917 8.53466 12.7449L6.67898 13.7204C5.94535 14.1061 5.08792 13.4832 5.22803 12.6663L5.58244 10.5999C5.63807 10.2755 5.53052 9.94454 5.29484 9.71481L3.79356 8.25142C3.20004 7.67288 3.52755 6.66491 4.34777 6.54573L6.42249 6.24425C6.7482 6.19693 7.02977 5.99236 7.17543 5.69721L8.10327 3.8172Z" fill="white"/>
<path fill-rule="evenodd" clip-rule="evenodd" d="M7.89674 1.8172C7.52993 1.07395 6.47008 1.07395 6.10327 1.8172L5.17543 3.69721C5.02977 3.99236 4.7482 4.19693 4.42249 4.24425L2.34777 4.54573C1.52755 4.66491 1.20004 5.67288 1.79356 6.25142L2.56401 7.00242C2.76287 6.28657 3.34989 5.68046 4.2041 5.55633L6.27881 5.25486L7.20666 3.37485C7.43237 2.9175 7.78929 2.60086 8.19668 2.42494L7.89674 1.8172ZM8.641 3.32523L8.82458 3.69721C8.97024 3.99236 9.25181 4.19693 9.57752 4.24425L10.1485 4.32722L10.8247 5.69743C10.9704 5.99257 11.2519 6.19714 11.5776 6.24447L12.1311 6.32489L10.7052 7.71481C10.4695 7.94454 10.3619 8.27554 10.4176 8.59994L10.772 10.6663C10.9121 11.4832 10.0547 12.1061 9.32103 11.7204L7.46535 10.7449C7.17402 10.5917 6.82599 10.5917 6.53466 10.7449L5.46092 11.3094L5.58256 10.6002C5.6382 10.2758 5.53065 9.94476 5.29496 9.71502L3.79368 8.25163C3.20016 7.6731 3.52767 6.66513 4.34789 6.54594L6.42261 6.24447C6.74832 6.19714 7.02989 5.99257 7.17555 5.69743L8.10339 3.81741C8.22405 3.57293 8.4197 3.40887 8.641 3.32523ZM4.35757 11.8268L4.59695 10.4311L3.45867 9.32156L3.22803 10.6663C3.10811 11.3655 3.71902 11.9226 4.35757 11.8268ZM12.4945 5.36719L11.7214 5.25486L11.3498 4.50178L11.6522 4.54573C12.118 4.61341 12.4249 4.96769 12.4945 5.36719Z" fill="#FFB54C"/>
<path d="M8.10326 3.81699C8.47008 3.07374 9.52992 3.07374 9.89674 3.81699L10.8246 5.697C10.9702 5.99214 11.2518 6.19671 11.5775 6.24404L13.6522 6.54551C14.4725 6.6647 14.8 7.67267 14.2064 8.25121L12.7052 9.71459C12.4695 9.94433 12.3619 10.2753 12.4176 10.5997L12.772 12.6661C12.9121 13.483 12.0547 14.1059 11.321 13.7202L9.46534 12.7446C9.17402 12.5915 8.82598 12.5915 8.53466 12.7446L6.67898 13.7202C5.94535 14.1059 5.08792 13.483 5.22803 12.6661L5.58243 10.5997C5.63807 10.2753 5.53052 9.94433 5.29483 9.71459L3.79355 8.25121C3.20004 7.67267 3.52755 6.6647 4.34777 6.54551L6.42248 6.24404C6.74819 6.19671 7.02976 5.99214 7.17542 5.697L8.10326 3.81699Z" fill="#FFB54C"/>
</svg>
