<svg width="16" height="16" viewBox="0 0 16 16" fill="none" xmlns="http://www.w3.org/2000/svg">
<path d="M13.3333 8L15 10H10" stroke="#3C3F47" stroke-linejoin="round"/>
<path d="M11.5 14L10 12L15 12" stroke="#3C3F47" stroke-linejoin="round"/>
<path fill-rule="evenodd" clip-rule="evenodd" d="M2.30002 1.90039C1.52683 1.90039 0.900024 2.52719 0.900024 3.30039V12.7004C0.900024 13.4736 1.52683 14.1004 2.30002 14.1004H8.50002V12.9004H2.30002C2.18957 12.9004 2.10002 12.8108 2.10002 12.7004V3.86472L6.97571 7.92779C7.56906 8.42225 8.43095 8.42225 9.0243 7.92779L13.9 3.86468V6.90039H15.1V3.30039C15.1 2.52719 14.4732 1.90039 13.7 1.90039H2.30002ZM12.9427 3.10039H3.05729L7.74393 7.00592C7.89227 7.12954 8.10774 7.12954 8.25608 7.00592L12.9427 3.10039Z" fill="#3C3F47"/>
</svg>
