<svg width="16" height="16" viewBox="0 0 16 16" fill="none" xmlns="http://www.w3.org/2000/svg">
<path d="M4.37105 9.40656L2.22085 7.31063C1.92409 7.02137 2.08785 6.51738 2.49796 6.45779L5.46945 6.026C5.79516 5.97867 6.07673 5.77411 6.22239 5.47896L7.55129 2.78632C7.73469 2.4147 8.26462 2.4147 8.44802 2.78632L9.77692 5.47896C9.92258 5.77411 10.2041 5.97867 10.5299 6.026L13.5013 6.45779C13.9115 6.51738 14.0752 7.02137 13.7785 7.31064L11.6282 9.40655C11.3926 9.63629 11.285 9.9673 11.3406 10.2917L11.8483 13.2512C11.9183 13.6596 11.4896 13.9711 11.1228 13.7783L8.465 12.381C8.17368 12.2278 7.82564 12.2278 7.53431 12.381L4.87654 13.7782C4.50972 13.9711 4.081 13.6596 4.15106 13.2512L4.65865 10.2917C4.71428 9.96729 4.60673 9.6363 4.37105 9.40656L4.02204 9.7646L4.37105 9.40656Z" stroke="#8D92A1"/>
</svg>
