<svg width="17" height="13" viewBox="0 0 17 13" fill="none" xmlns="http://www.w3.org/2000/svg">
<path fill-rule="evenodd" clip-rule="evenodd" d="M6.91895 6C8.5758 6 9.91895 4.65685 9.91895 3C9.91895 1.34315 8.5758 0 6.91895 0C5.26209 0 3.91895 1.34315 3.91895 3C3.91895 4.65685 5.26209 6 6.91895 6ZM4.91895 7C2.70981 7 0.918945 8.79086 0.918945 11V12C0.918945 12.5523 1.36666 13 1.91895 13H11.9189C12.4712 13 12.9189 12.5523 12.9189 12V11C12.9189 8.79086 11.1281 7 8.91895 7H4.91895Z" fill="#F5F8FF"/>
<path opacity="0.5" fill-rule="evenodd" clip-rule="evenodd" d="M9.41895 5.59865C9.86021 5.85391 10.3725 6 10.9189 6C12.5758 6 13.9189 4.65685 13.9189 3C13.9189 1.34315 12.5758 0 10.9189 0C10.3725 0 9.86021 0.146091 9.41895 0.401347C10.3156 0.920061 10.9189 1.88958 10.9189 3C10.9189 4.11042 10.3156 5.07994 9.41895 5.59865ZM12.9189 13H15.9189C16.4712 13 16.9189 12.5523 16.9189 12V11C16.9189 8.79086 15.1281 7 12.9189 7H9.91895C12.1281 7 13.9189 8.79086 13.9189 11V12C13.9189 12.5523 13.4712 13 12.9189 13Z" fill="#F5F8FF"/>
</svg>
