<svg width="16" height="16" viewBox="0 0 16 16" fill="none" xmlns="http://www.w3.org/2000/svg">
<path d="M2.2868 4.44851L7.68486 2.13506C7.8861 2.04881 8.1139 2.04881 8.31514 2.13506L13.7132 4.44851C14.1981 4.65631 14.1981 5.34369 13.7132 5.55149L8.31514 7.86494C8.1139 7.95119 7.8861 7.95119 7.68486 7.86494L2.2868 5.55149C1.80194 5.34369 1.80194 4.65631 2.2868 4.44851Z" stroke="#7D8085" stroke-width="1.2" stroke-linejoin="round"/>
<path d="M4.5 6.5L2.41245 7.19585C1.90005 7.36665 1.85657 8.07456 2.34423 8.30678L7.65605 10.8362C7.87365 10.9398 8.12635 10.9398 8.34395 10.8362L13.6558 8.30678C14.1434 8.07456 14.1 7.36665 13.5875 7.19585L11.5 6.5" stroke="#7D8085" stroke-width="1.2" stroke-linejoin="round"/>
<path d="M4.5 9.5L2.41245 10.1958C1.90005 10.3667 1.85657 11.0746 2.34423 11.3068L7.65605 13.8362C7.87365 13.9398 8.12635 13.9398 8.34395 13.8362L13.6558 11.3068C14.1434 11.0746 14.1 10.3667 13.5875 10.1958L11.5 9.5" stroke="#7D8085" stroke-width="1.2" stroke-linejoin="round"/>
</svg>
