<svg width="40" height="40" viewBox="0 0 40 40" fill="none" xmlns="http://www.w3.org/2000/svg">
<rect width="40" height="40" rx="20" fill="#F4F4F5"/>
<path d="M12.8585 15.5606L19.6061 12.6688C19.8576 12.561 20.1424 12.561 20.3939 12.6688L27.1415 15.5606C27.7476 15.8204 27.7476 16.6796 27.1415 16.9394L20.3939 19.8312C20.1424 19.939 19.8576 19.939 19.6061 19.8312L12.8585 16.9394C12.2524 16.6796 12.2524 15.8204 12.8585 15.5606Z" stroke="#3C3F47" stroke-width="1.5" stroke-linejoin="round"/>
<path d="M15.625 18.125L13.0156 18.9948C12.3751 19.2083 12.3207 20.0932 12.9303 20.3835L19.5701 23.5453C19.8421 23.6748 20.1579 23.6748 20.4299 23.5453L27.0697 20.3835C27.6793 20.0932 27.6249 19.2083 26.9844 18.9948L24.375 18.125" stroke="#3C3F47" stroke-width="1.5" stroke-linejoin="round"/>
<path d="M15.625 21.875L13.0156 22.7448C12.3751 22.9583 12.3207 23.8432 12.9303 24.1335L19.5701 27.2953C19.8421 27.4248 20.1579 27.4248 20.4299 27.2953L27.0697 24.1335C27.6793 23.8432 27.6249 22.9583 26.9844 22.7448L24.375 21.875" stroke="#3C3F47" stroke-width="1.5" stroke-linejoin="round"/>
</svg>
