<svg width="16" height="16" viewBox="0 0 16 16" fill="none" xmlns="http://www.w3.org/2000/svg">
<path d="M11.1815 12.1958L11.6046 11.7705L11.1815 12.1958ZM13.2 2.6H2.8V1.4H13.2V2.6ZM2.6 2.8V11.1048H1.4V2.8H2.6ZM2.8 11.3048H10.4762V12.5048H2.8V11.3048ZM11.6046 11.7705L13.0589 13.2174L12.2126 14.0681L10.7583 12.6212L11.6046 11.7705ZM13.4 13.0756V2.8H14.6V13.0756H13.4ZM10.4762 11.3048C10.8991 11.3048 11.3048 11.4722 11.6046 11.7705L10.7583 12.6212C10.6833 12.5466 10.5819 12.5048 10.4762 12.5048V11.3048ZM13.0589 13.2174C13.1851 13.3429 13.4 13.2535 13.4 13.0756H14.6C14.6 14.3211 13.0956 14.9465 12.2126 14.0681L13.0589 13.2174ZM2.6 11.1048C2.6 11.2152 2.68954 11.3048 2.8 11.3048V12.5048C2.0268 12.5048 1.4 11.878 1.4 11.1048H2.6ZM2.8 2.6C2.68954 2.6 2.6 2.68954 2.6 2.8H1.4C1.4 2.0268 2.0268 1.4 2.8 1.4V2.6ZM13.2 1.4C13.9732 1.4 14.6 2.0268 14.6 2.8H13.4C13.4 2.68954 13.3105 2.6 13.2 2.6V1.4Z" fill="#3C3F47"/>
<path d="M5.00034 5L11 5" stroke="#3C3F47" stroke-width="1.2" stroke-linejoin="round"/>
<path d="M7 8L11 8" stroke="#3C3F47" stroke-width="1.2" stroke-linejoin="round"/>
</svg>
