<svg width="16" height="16" viewBox="0 0 16 16" fill="none" xmlns="http://www.w3.org/2000/svg">
<path d="M12.5 9.5L14.5 11.5M14.5 11.5L12.5 13.5M14.5 11.5H9.5" stroke="#3C3F47" stroke-linejoin="round"/>
<path fill-rule="evenodd" clip-rule="evenodd" d="M2.30021 1.90039C1.52701 1.90039 0.900208 2.52719 0.900208 3.30039V12.7004C0.900208 13.4736 1.52699 14.1004 2.30018 14.1004L8.49995 14.1005L8.49997 12.9005L2.3002 12.9004C2.18975 12.9004 2.10021 12.8109 2.10021 12.7004V3.86496L6.97572 7.92789C7.56907 8.42235 8.43095 8.42235 9.02431 7.92789L13.9002 3.86468L13.9 8.50049L15.1 8.50054L15.1002 3.30045C15.1002 2.52723 14.4734 1.90039 13.7002 1.90039H2.30021ZM12.9428 3.10039H3.05718L7.74394 7.00602C7.89228 7.12964 8.10775 7.12964 8.25609 7.00602L12.9428 3.10039Z" fill="#3C3F47"/>
</svg>
