<svg width="40" height="40" viewBox="0 0 40 40" fill="none" xmlns="http://www.w3.org/2000/svg">
<rect width="40" height="40" rx="20" fill="#F4F4F5"/>
<path d="M25.625 21.875L28.125 24.375M28.125 24.375L25.625 26.875M28.125 24.375H21.875" stroke="#3C3F47" stroke-width="1.25" stroke-linejoin="round"/>
<path fill-rule="evenodd" clip-rule="evenodd" d="M12.8755 12.375C11.909 12.375 11.1255 13.1585 11.1255 14.125V25.875C11.1255 26.8415 11.909 27.625 12.8755 27.625L20.6252 27.6252L20.6252 26.1252L12.8755 26.125C12.7374 26.125 12.6255 26.0131 12.6255 25.875V14.831L18.7195 19.9093C19.4612 20.5274 20.5386 20.5274 21.2802 19.9093L27.3754 14.83L27.3752 20.6251L28.8752 20.6252L28.8754 14.1251C28.8755 13.1585 28.092 12.375 27.1254 12.375H12.8755ZM26.1783 13.875H13.8214L19.6798 18.757C19.8652 18.9115 20.1345 18.9115 20.32 18.757L26.1783 13.875Z" fill="#3C3F47"/>
</svg>



