<svg width="24" height="24" fill="none" xmlns="http://www.w3.org/2000/svg">
    <path fill-rule="evenodd" clip-rule="evenodd" d="M23.145 16.457C23.697 15.079 24 13.575 24 12c0-6.627-5.373-12-12-12S0 5.373 0 12s5.373 12 12 12c3.982 0 7.51-1.94 9.693-4.925-1.938-.873-5.217-2.362-7.117-3.285-1.881 2.313-4.317 3.726-6.839 3.726-4.231 0-5.684-3.726-3.675-6.167.427-.514 1.196-1.028 2.35-1.327 1.838-.472 4.744.256 7.437 1.156.47-.9.897-1.885 1.197-2.955H6.669v-.856h4.316V7.91H5.771v-.856h5.214V4.87s0-.386.385-.386h2.094v2.527h5.172v.856h-5.172v1.5h4.232c-.428 1.627-1.026 3.169-1.796 4.496l.73.268c.988.364 1.872.69 2.561.931 2.666 1.05 3.655 1.325 3.954 1.395ZM7.178 13.2c1.942-.216 3.758.563 5.912 1.646-1.563 1.993-3.463 3.25-5.363 3.25-3.294 0-4.265-2.644-2.618-4.116.549-.477 1.52-.737 2.07-.78Z" fill="#3869F2"/>
</svg>
