<svg width="68" height="68" viewBox="0 0 68 68" fill="none" xmlns="http://www.w3.org/2000/svg">
<rect width="68" height="68" rx="34" fill="#EBEDF2"/>
<path fill-rule="evenodd" clip-rule="evenodd" d="M25.8683 19.4517C23.7116 21.6084 22.5 24.5334 22.5 27.5834C22.5 30.6334 23.7116 33.5584 25.8683 35.7151C28.0249 37.8717 30.95 39.0833 34 39.0833C37.05 39.0833 39.9751 37.8717 42.1317 35.7151C44.2884 33.5584 45.5 30.6334 45.5 27.5834C45.5 24.5334 44.2884 21.6084 42.1317 19.4517C39.9751 17.295 37.05 16.0834 34 16.0834C30.95 16.0834 28.0249 17.295 25.8683 19.4517ZM14.9297 46.8463C12.4135 49.3624 11 52.775 11 56.3333V58.2499C11 59.7749 11.6058 61.2375 12.6841 62.3158C13.0832 62.7148 13.5348 63.5969 14.0227 64.5498C14.8534 66.1721 15.7893 67.9999 16.75 67.9999H51.25C52.2107 67.9999 53.1466 66.1721 53.9773 64.5498C54.4652 63.5969 54.9168 62.7148 55.3159 62.3158C56.3942 61.2375 57 59.7749 57 58.2499V56.3333C57 52.775 55.5865 49.3624 53.0703 46.8463C50.5542 44.3302 47.1417 42.9167 43.5833 42.9167H24.4167C20.8583 42.9167 17.4458 44.3302 14.9297 46.8463Z" fill="#C9CBD6"/>
<rect width="68" height="68" rx="34" stroke="#F0F2F7"/>
</svg>
