<svg width="20" height="20" viewBox="0 0 20 20" fill="none" xmlns="http://www.w3.org/2000/svg">
<path fill-rule="evenodd" clip-rule="evenodd" d="M10.75 5.5C10.75 5.08579 10.4142 4.75 10 4.75C9.58579 4.75 9.25 5.08579 9.25 5.5V9.25H5.5C5.08579 9.25 4.75 9.58579 4.75 10C4.75 10.4142 5.08579 10.75 5.5 10.75H9.25V14.5C9.25 14.9142 9.58579 15.25 10 15.25C10.4142 15.25 10.75 14.9142 10.75 14.5V10.75H14.5C14.9142 10.75 15.25 10.4142 15.25 10C15.25 9.58579 14.9142 9.25 14.5 9.25H10.75V5.5Z" fill="#326CFE"/>
<circle cx="10" cy="10" r="9.25" stroke="#326CFE" stroke-width="1.5"/>
</svg>
