<svg width="20" height="20" viewBox="0 0 20 20" fill="none" xmlns="http://www.w3.org/2000/svg">
<circle cx="10" cy="10" r="9.25" fill="#326CFE" stroke="#326CFE" stroke-width="1.5"/>
<path fill-rule="evenodd" clip-rule="evenodd" d="M11 5.75C11 5.33579 10.6642 5 10.25 5C9.83579 5 9.5 5.33579 9.5 5.75V9.5H5.75C5.33579 9.5 5 9.83579 5 10.25C5 10.6642 5.33579 11 5.75 11H9.5V14.75C9.5 15.1642 9.83579 15.5 10.25 15.5C10.6642 15.5 11 15.1642 11 14.75V11H14.75C15.1642 11 15.5 10.6642 15.5 10.25C15.5 9.83579 15.1642 9.5 14.75 9.5H11V5.75Z" fill="white"/>
</svg>
