<svg width="150" height="150" viewBox="0 0 150 150" fill="none" xmlns="http://www.w3.org/2000/svg">
<path d="M52.1374 104.606C60.1077 104.606 66.0893 106.51 69.704 108.108C73.6234 109.841 75.6856 111.596 75.7066 111.612L75.8721 111.756L76.0902 111.777L78.3993 111.988V145.185H6.5201C7.0455 138.092 9.03674 131.64 12.4492 126.026C15.3813 121.267 19.2192 117.129 23.7451 113.848C31.7311 107.968 39.5963 106.051 39.6672 106.035C43.7604 105.106 47.9428 104.626 52.1401 104.606M52.1401 103.923C47.8924 103.941 43.6595 104.426 39.5175 105.368C39.5175 105.368 7.74164 112.931 5.7793 145.868H79.0718V111.362L76.1427 111.1C76.1427 111.1 67.8467 103.925 52.1269 103.925L52.1401 103.923Z" fill="#373B52"/>
<path fill-rule="evenodd" clip-rule="evenodd" d="M74.9765 137.766C75.0369 137.664 80.7138 128.309 94.6971 126.208C95.614 126.208 109.098 125.884 123.26 112.81C125.785 111.102 132.244 105.381 138.783 95.8135C140.191 93.7577 141.906 91.93 143.869 90.394L143.821 145.387L70.1113 145.503L74.9765 137.766Z" fill="#4C6AFF"/>
<path d="M143.524 91.1059L143.48 145.043L70.7283 145.158L75.2651 137.947C75.2782 137.924 76.681 135.583 79.7756 133.024C82.6206 130.66 87.5173 127.642 94.7125 126.559C95.6766 126.559 109.245 126.202 123.462 113.088C124.142 112.623 131.08 107.703 139.053 96.013C140.309 94.183 141.812 92.5352 143.519 91.1164M144.205 89.7109C141.987 91.349 140.059 93.3468 138.501 95.6216C130.248 107.706 123.047 112.539 123.047 112.539C108.767 125.732 95.2143 125.863 94.6757 125.863H94.66C80.3193 128.002 74.6766 137.587 74.6766 137.587L69.4805 145.847L144.152 145.728L144.22 89.7004L144.205 89.7109Z" fill="#373B52"/>
<path d="M124.313 103.92C124.375 103.921 124.435 103.94 124.487 103.975C124.538 104.01 124.578 104.059 124.602 104.117C124.625 104.174 124.631 104.238 124.619 104.299C124.606 104.36 124.576 104.416 124.532 104.459C124.488 104.503 124.432 104.533 124.37 104.545C124.309 104.557 124.246 104.55 124.189 104.527C124.131 104.503 124.082 104.462 124.048 104.41C124.013 104.359 123.995 104.298 123.995 104.236C123.995 104.194 124.003 104.153 124.019 104.114C124.035 104.076 124.058 104.041 124.088 104.012C124.117 103.982 124.153 103.959 124.191 103.944C124.23 103.928 124.271 103.92 124.313 103.92ZM118.917 100.97L117.186 101.104V103.24L118.917 100.973V100.97ZM124.313 103.24C124.115 103.24 123.922 103.298 123.758 103.408C123.594 103.518 123.466 103.674 123.39 103.856C123.315 104.039 123.295 104.239 123.333 104.433C123.372 104.627 123.467 104.804 123.607 104.944C123.746 105.084 123.924 105.179 124.118 105.217C124.311 105.256 124.512 105.236 124.695 105.16C124.877 105.085 125.033 104.957 125.143 104.793C125.252 104.629 125.311 104.436 125.311 104.238C125.31 103.974 125.205 103.72 125.018 103.533C124.831 103.346 124.577 103.241 124.313 103.24Z" fill="#373B52"/>
<path fill-rule="evenodd" clip-rule="evenodd" d="M111.428 91.9518L113.246 91.4316V93.859L111.428 91.9518Z" fill="#386EEF"/>
<path d="M112.904 91.8861V92.9946L112.063 92.1146L112.904 91.8756M113.587 90.9693L110.789 91.7573L113.587 94.689V90.9587V90.9693Z" fill="#373B52"/>
<path fill-rule="evenodd" clip-rule="evenodd" d="M95.5762 86.1855L99.4562 87.0472L97.1261 91.4237L95.5762 86.1855Z" fill="white"/>
<path d="M96.0665 86.6453L98.943 87.2836L97.2171 90.5253L96.0665 86.6453ZM95.084 85.7258L97.0332 92.3195L99.9675 86.8029L95.0971 85.7258H95.084Z" fill="#373B52"/>
<path fill-rule="evenodd" clip-rule="evenodd" d="M101.701 125.417L106.459 123.898L103.12 127.947L101.701 125.417Z" fill="black"/>
<path d="M105.455 124.576L103.172 127.345L102.203 125.614L105.455 124.576ZM107.459 123.221L101.199 125.217L103.064 128.548L107.459 123.221Z" fill="#373B52"/>
<path d="M68.0391 86.0884C68.0391 86.0884 68.4751 93.1812 77.9112 90.9798C77.9112 90.9798 90.0084 88.0008 92.8061 98.1541" stroke="#373B52" stroke-width="0.683012"/>
<path d="M119.184 109.497C119.184 109.497 120.936 108.657 121.6 110.249C121.6 110.249 122.367 112.293 124.314 111.063C126.169 109.894 127.267 108.625 127.913 112.4C128.501 115.844 129.718 117.284 132.839 113.94C135.959 110.595 138.158 110.685 141.245 116.588" stroke="#373B52" stroke-width="0.683012"/>
<path fill-rule="evenodd" clip-rule="evenodd" d="M83.3233 26.8187C83.0921 26.8187 82.8661 26.7502 82.6738 26.6217C82.4816 26.4933 82.3318 26.3107 82.2433 26.0971C82.1548 25.8835 82.1317 25.6484 82.1768 25.4217C82.2219 25.1949 82.3332 24.9866 82.4967 24.8231C82.6602 24.6596 82.8685 24.5483 83.0952 24.5032C83.322 24.4581 83.5571 24.4812 83.7707 24.5697C83.9843 24.6582 84.1668 24.808 84.2953 25.0003C84.4237 25.1925 84.4923 25.4185 84.4923 25.6497C84.4916 25.9595 84.3682 26.2565 84.1491 26.4756C83.9301 26.6946 83.6331 26.818 83.3233 26.8187Z" fill="#386EEF"/>
<path d="M83.3231 24.8249C83.4865 24.8264 83.6458 24.8763 83.7809 24.9683C83.916 25.0603 84.0208 25.1902 84.0822 25.3417C84.1435 25.4932 84.1586 25.6595 84.1256 25.8195C84.0926 25.9796 84.0129 26.1263 83.8966 26.2411C83.7803 26.356 83.6326 26.4338 83.4721 26.4648C83.3117 26.4958 83.1456 26.4786 82.9949 26.4153C82.8442 26.3521 82.7156 26.2456 82.6253 26.1093C82.5351 25.9731 82.4872 25.8132 82.4877 25.6497C82.4884 25.4307 82.5759 25.2209 82.731 25.0663C82.8861 24.9117 83.0962 24.8249 83.3152 24.8249M83.3152 24.1418C83.0163 24.1418 82.7242 24.2305 82.4757 24.3966C82.2273 24.5627 82.0337 24.7988 81.9194 25.0749C81.8052 25.3511 81.7754 25.6549 81.8339 25.948C81.8924 26.2411 82.0365 26.5102 82.248 26.7214C82.4595 26.9325 82.7289 27.0762 83.0221 27.1342C83.3153 27.1921 83.6191 27.1619 83.8951 27.0471C84.171 26.9324 84.4068 26.7384 84.5724 26.4896C84.7381 26.2409 84.8262 25.9486 84.8257 25.6497C84.825 25.2496 84.6656 24.866 84.3824 24.5833C84.0992 24.3006 83.7153 24.1418 83.3152 24.1418Z" fill="#373B52"/>
<path d="M70.1841 24.8617C70.3399 24.8617 70.4923 24.908 70.6219 24.9945C70.7515 25.0811 70.8525 25.2042 70.9122 25.3482C70.9718 25.4922 70.9874 25.6507 70.957 25.8036C70.9266 25.9564 70.8515 26.0969 70.7413 26.2071C70.6311 26.3173 70.4907 26.3924 70.3378 26.4228C70.1849 26.4532 70.0265 26.4376 69.8825 26.3779C69.7385 26.3183 69.6154 26.2173 69.5288 26.0877C69.4422 25.9581 69.396 25.8057 69.396 25.6498C69.396 25.4408 69.479 25.2404 69.6268 25.0926C69.7746 24.9448 69.9751 24.8617 70.1841 24.8617ZM70.1841 24.1787C69.8923 24.1777 69.6067 24.2633 69.3636 24.4247C69.1205 24.5861 68.9308 24.8161 68.8185 25.0854C68.7062 25.3548 68.6765 25.6514 68.7329 25.9377C68.7894 26.224 68.9296 26.4871 69.1358 26.6936C69.342 26.9001 69.6048 27.0408 69.891 27.0978C70.1772 27.1548 70.4738 27.1255 70.7434 27.0137C71.0129 26.9019 71.2432 26.7127 71.4051 26.4698C71.5669 26.227 71.6531 25.9416 71.6525 25.6498C71.6525 25.2601 71.4979 24.8863 71.2226 24.6105C70.9473 24.3347 70.5738 24.1794 70.1841 24.1787Z" fill="#373B52"/>
<path d="M74.6665 24.8617C74.8224 24.8617 74.9747 24.908 75.1043 24.9945C75.2339 25.0811 75.3349 25.2042 75.3946 25.3482C75.4542 25.4922 75.4698 25.6507 75.4394 25.8036C75.409 25.9564 75.334 26.0969 75.2237 26.2071C75.1135 26.3173 74.9731 26.3924 74.8202 26.4228C74.6674 26.4532 74.5089 26.4376 74.3649 26.3779C74.2209 26.3183 74.0978 26.2173 74.0112 26.0877C73.9246 25.9581 73.8784 25.8057 73.8784 25.6498C73.8784 25.4408 73.9614 25.2404 74.1092 25.0926C74.257 24.9448 74.4575 24.8617 74.6665 24.8617ZM74.6665 24.1787C74.3747 24.1777 74.0891 24.2633 73.846 24.4247C73.6029 24.5861 73.4132 24.8161 73.3009 25.0854C73.1887 25.3548 73.1589 25.6514 73.2154 25.9377C73.2719 26.224 73.4121 26.4871 73.6182 26.6936C73.8244 26.9001 74.0872 27.0408 74.3734 27.0978C74.6596 27.1548 74.9563 27.1255 75.2258 27.0137C75.4954 26.9019 75.7256 26.7127 75.8875 26.4698C76.0494 26.227 76.1355 25.9416 76.135 25.6498C76.135 25.2601 75.9803 24.8863 75.705 24.6105C75.4297 24.3347 75.0562 24.1794 74.6665 24.1787Z" fill="#373B52"/>
<path d="M141.994 28.7151C145.351 20.6098 141.502 11.3174 133.397 7.96001C125.291 4.60265 115.999 8.45168 112.642 16.5571C109.284 24.6624 113.133 33.9548 121.239 37.3122C129.344 40.6696 138.636 36.8205 141.994 28.7151Z" fill="#FFC470"/>
<path d="M70.9548 16.6528L70.6895 20.7824L73.8865 17.7194L71.7534 18.3866L70.9548 16.6528Z" fill="#373B52"/>
<path d="M71.7773 18.4414C71.7773 18.4414 81.8491 -2.08314 116.113 6.04208" stroke="#373B52" stroke-width="0.683012"/>
<path d="M117.816 24.2786L128.629 24.5307V11.698" stroke="#373B52" stroke-width="0.683012"/>
<path d="M6.69531 28.4553H87.5298" stroke="#373B52" stroke-width="0.683012"/>
<path d="M8.54297 25.1191H60.4755" stroke="#373B52" stroke-width="0.683012"/>
<path d="M8.54297 26.564H60.4755" stroke="#373B52" stroke-width="0.683012"/>
<path fill-rule="evenodd" clip-rule="evenodd" d="M101.285 125.343C98.9459 125.862 96.5572 126.126 94.1609 126.131C93.2993 126.131 92.8002 126.092 92.7792 126.092C91.0191 125.929 89.6452 125.22 88.6863 123.99C86.9578 121.758 87.1102 118.474 87.2231 117.284L78.3203 118.264L78.6224 111.673L81.7196 111.426L88.5497 110.375C90.0024 109.295 93.2231 106.907 93.4727 106.792C93.9088 106.592 103.676 104.895 103.736 104.895H103.765C103.949 104.911 104.109 104.924 111.856 113.937L111.938 114.032L112.077 121.027L107.551 123.36L103.043 128.687L101.285 125.343Z" fill="white"/>
<path d="M103.726 105.234C103.93 105.252 111.588 114.165 111.588 114.165L111.719 120.827L107.325 123.092L103.098 128.083L101.461 124.954C99.0657 125.505 96.6161 125.786 94.1582 125.792C93.2991 125.792 92.8026 125.753 92.8026 125.753C86.2799 125.149 87.6144 116.9 87.6144 116.9L78.6827 117.883L78.9454 111.99L81.7431 111.767L88.6704 110.703C88.6704 110.703 93.3517 107.22 93.5986 107.104C93.8455 106.988 103.429 105.239 103.72 105.239M103.72 104.556C103.479 104.556 100.76 105.047 98.5189 105.457C93.5697 106.366 93.4095 106.439 93.3149 106.484C93.2203 106.529 93.0049 106.626 88.3972 110.052L81.6643 111.089L78.8902 111.31L78.2886 111.357L78.2624 111.959L77.9997 117.854L77.9629 118.642L78.751 118.555L86.8447 117.664C86.7475 119.128 86.7895 122.096 88.4209 124.193C89.4375 125.506 90.8928 126.257 92.7448 126.428C92.7764 126.428 93.2886 126.47 94.1634 126.47C96.4964 126.466 98.8225 126.218 101.104 125.729L102.499 128.393L102.969 129.294L103.626 128.519L107.763 123.628L112.037 121.426L112.416 121.232V120.806L112.282 114.144V113.9L112.121 113.714C112.1 113.69 110.183 111.46 108.265 109.248C104.204 104.58 104.172 104.577 103.799 104.545H103.739L103.72 104.556Z" fill="#373B52"/>
<path fill-rule="evenodd" clip-rule="evenodd" d="M111.525 120.662C107.13 118.516 105.719 113.538 105.706 113.488L105.596 113.086L105.223 113.272C103.737 114.019 102.094 114.403 100.431 114.391C99.7881 114.392 99.1464 114.336 98.5134 114.223C99.3382 113.041 99.6456 111.988 99.4302 111.089C99.3499 110.771 99.203 110.474 98.9992 110.216C98.7955 109.959 98.5394 109.748 98.248 109.597C97.8735 109.394 97.4552 109.285 97.0291 109.279C94.988 109.279 93.7691 111.982 93.5221 112.589C92.0957 113.412 90.3356 113.827 88.2839 113.827C84.8163 113.827 81.2699 112.637 79.2734 111.833C85.1211 111.767 87.2594 108.754 87.3487 108.625C88.5614 106.489 89.9358 104.449 91.46 102.523C94.9853 98.6243 98.8864 96.6436 103.048 96.6436C105.659 96.6608 108.211 97.4246 110.403 98.8449C118.941 104.953 117.081 113.556 117.062 113.63C115.872 119.84 112.153 120.578 111.525 120.662Z" fill="#373B52"/>
<path d="M103.056 96.9851C105.602 96.9989 108.089 97.7419 110.225 99.1261C113.717 101.624 115.876 104.803 116.643 108.583C116.995 110.22 117.031 111.909 116.748 113.559V113.582C115.64 119.283 112.364 120.181 111.586 120.315C107.412 118.214 106.054 113.451 106.041 113.404L105.823 112.597L105.079 112.96C103.641 113.683 102.052 114.054 100.442 114.042C99.9937 114.043 99.5453 114.015 99.1001 113.958C99.7568 112.87 99.9854 111.88 99.7726 111C99.6839 110.636 99.5182 110.295 99.2866 110C99.0551 109.705 98.7631 109.463 98.4302 109.29C98.006 109.059 97.5315 108.935 97.0484 108.93C94.9074 108.93 93.6202 111.528 93.2708 112.345C91.9153 113.099 90.2446 113.48 88.3032 113.48C85.6369 113.48 82.918 112.763 80.9188 112.072C85.7288 111.528 87.5651 108.935 87.6491 108.814L87.6649 108.793L87.678 108.77C88.8745 106.661 90.2305 104.648 91.7341 102.746C95.199 98.9186 99.0108 96.9799 103.067 96.9799M103.067 96.2969C99.6518 96.2969 95.4486 97.6104 91.2166 102.3C89.6827 104.231 88.3019 106.279 87.087 108.426C87.087 108.426 84.9854 111.489 79.0957 111.489C78.5931 111.489 78.0677 111.465 77.5195 111.418C77.5195 111.418 82.9652 114.163 88.3138 114.163C90.2498 114.163 92.1754 113.803 93.8304 112.821C93.8304 112.821 95.023 109.616 97.0642 109.616C97.4404 109.622 97.8093 109.72 98.1386 109.902C98.1386 109.902 100.605 111.047 97.9547 114.436C98.7733 114.64 99.6147 114.738 100.458 114.728C102.175 114.736 103.87 114.34 105.405 113.572C105.405 113.572 106.826 118.786 111.492 121.009C111.492 121.009 116.078 120.704 117.442 113.703C117.442 113.703 119.47 104.874 110.648 98.564C108.399 97.0915 105.771 96.3039 103.083 96.2969H103.067Z" fill="#373B52"/>
<path d="M101.301 100.97C101.301 100.97 106.192 100.432 107.39 103.776C108.588 107.12 105.084 109.453 103.699 107.908C102.315 106.363 104.062 101.109 109.169 103.34C112.815 104.932 111.683 110.433 107.876 109.592C104.07 108.751 109.999 104.377 112.72 106.568C115.836 109.077 112.352 114.344 108.753 113.745C105.155 113.146 105.972 108.331 109.513 108.657C112.634 108.946 113.852 115.587 111.315 117.021" stroke="white" stroke-width="0.683012"/>
<path fill-rule="evenodd" clip-rule="evenodd" d="M76.3188 111.373L78.7408 111.864V128.225L74.1699 131.083L76.3188 111.373Z" fill="#4C6AFF"/>
<path d="M76.6173 111.783L78.3984 112.145V128.036L74.584 130.421L76.6173 111.77M76.0184 110.95L73.7539 131.732L79.0709 128.417V111.586L76.0078 110.963L76.0184 110.95Z" fill="#373B52"/>
<path fill-rule="evenodd" clip-rule="evenodd" d="M30.8565 51.0789C27.3222 51.0708 23.9017 52.3281 21.2142 54.6234C18.5266 56.9187 16.7495 60.1002 16.2044 63.5922C15.6593 67.0842 16.3823 70.656 18.2425 73.6611C20.1028 76.6663 22.9773 78.9062 26.3459 79.9756C26.3459 79.9756 27.9799 75.5386 29.0911 73.1638C30.2023 70.7891 31.3241 67.5684 35.3775 63.5045C37.71 61.1635 40.703 59.5923 43.9545 59.0018C42.7017 56.612 40.819 54.6105 38.5103 53.214C36.2015 51.8174 33.5547 51.0791 30.8565 51.0789Z" fill="#33D0DE"/>
<path d="M86.8477 23.7189V28.9334C86.8477 28.9702 87.0027 32.7163 85.4554 37.7469C83.369 44.4738 79.2231 50.3757 73.6025 54.6199C71.7121 56.0845 69.548 57.1563 67.2374 57.7723C65.0778 58.3188 62.8552 58.5759 60.6279 58.5368C58.7339 58.5368 56.7952 58.4002 54.9221 58.2741C53.0491 58.148 51.1314 58.0114 49.2531 58.0114C45.6594 58.0114 40.9782 58.4422 36.6437 61.7916C32.367 65.0963 28.9099 70.8257 26.0727 79.3056V79.3214V79.3371C24.8083 83.5005 23.1052 87.5177 20.9922 91.3214C19.0272 94.7706 16.8967 97.5473 14.6559 99.5622C12.1235 101.832 9.4414 103.116 6.6752 103.392L6.75401 23.7268H86.8477M87.5307 23.0438H6.071L5.99219 104.123C19.9519 103.613 26.7242 79.5184 26.7242 79.5184C32.7663 61.4448 40.7444 58.6891 49.2531 58.6891C52.9808 58.6891 56.8135 59.2145 60.6279 59.2145C65.1805 59.2145 69.7094 58.4632 74.0255 55.1637C88.2531 44.2749 87.5386 28.894 87.5386 28.894V23.0359L87.5307 23.0438Z" fill="#373B52"/>
<path fill-rule="evenodd" clip-rule="evenodd" d="M115.393 128.081L119.183 137.27L125.42 131.745L115.393 128.081Z" fill="#33D0DE"/>
<path d="M49.6313 118.849C49.6313 118.849 56.7477 118.849 57.6751 128.643L57.88 145.537H43.957V130.44" stroke="#373B52" stroke-width="0.683012"/>
<path fill-rule="evenodd" clip-rule="evenodd" d="M39.3516 105.985C39.3516 105.985 22.8358 114.079 20.1458 145.534L6.04688 145.56C6.04688 145.56 7.46806 112.878 39.3516 105.985Z" fill="#373B52" stroke="#373B52" stroke-width="0.683012" stroke-miterlimit="10"/>
</svg>
