<svg width="151" height="150" viewBox="0 0 151 150" fill="none" xmlns="http://www.w3.org/2000/svg">
<path fill-rule="evenodd" clip-rule="evenodd" d="M5.14184 52.6813C10.5781 50.1637 16.1681 47.9921 21.8783 46.1796C23.746 45.578 25.6769 44.9974 27.6208 44.4484C27.4474 45.8696 27.2005 49.8074 29.2574 52.8074C29.8301 53.6454 29.9956 54.3836 29.746 55.0377C29.1917 56.4615 26.8249 57.0263 26.8012 57.0316H26.7723L26.7408 57.0447C26.3756 57.2023 25.1961 57.7829 25.3459 58.5657C25.4641 59.1805 26.2338 59.8267 31.0464 59.9764C31.0963 59.9764 37.4194 60.5018 37.3669 63.62V63.6568C37.3669 63.6568 37.4142 65.1647 34.3616 66.2444C33.5863 66.5013 32.7969 66.7136 31.9974 66.8801C31.5455 66.9826 31.0753 67.0903 30.6208 67.2111C26.9431 68.212 23.2653 69.3284 19.711 70.5395L5.14184 52.6813ZM131.173 70.3293C118.188 65.937 98.6383 60.8118 77.859 60.8118C77.3003 60.8118 76.739 60.8118 76.1751 60.8118C75.324 60.8118 74.57 60.8302 73.9028 60.8302C72.6754 60.8571 71.4474 60.8132 70.225 60.6988C70.6664 60.5071 71.3914 60.2575 72.0639 60.0316C74.7749 59.099 78.4868 57.8223 78.7101 55.9703C78.9255 54.1918 77.7434 53.7426 76.8713 53.4143C76.1068 53.1253 75.6734 52.9283 75.6655 52.2952C75.6655 51.5754 76.7425 50.9029 77.8931 50.1936C79.4194 49.2505 81.1506 48.1813 81.2688 46.4554C81.3949 44.6533 78.0639 43.6892 74.5385 42.6673C72.6445 42.1183 70.8607 41.6008 69.8993 41.0123C68.2548 40.0009 68.1287 39.4178 68.1996 39.1735C68.5044 38.0675 72.7732 37.5158 75.7101 37.4764C77.0052 37.4764 78.3371 37.4948 79.6874 37.5342C90.3397 37.8442 101.772 39.3416 113.67 41.9869C114.579 43.2479 123.434 55.6472 130.687 69.3074L131.173 70.3293Z" fill="#4C6AFF"/>
<path d="M75.7101 37.8284C77.0052 37.8284 78.3371 37.8468 79.6769 37.8862C90.2688 38.1804 101.638 39.6673 113.46 42.2942C114.697 44.0202 123.295 56.1463 130.37 69.4545L130.509 69.754C117.505 65.4011 98.2706 60.4755 77.8485 60.4755C77.2863 60.4755 76.7189 60.4755 76.1594 60.4755C75.303 60.4755 74.5622 60.4939 73.8923 60.4939C73.0412 60.4939 72.3686 60.4939 71.8406 60.4676L72.1559 60.3573C75.7811 59.1121 78.8021 57.9247 79.0306 56.0149C79.2776 53.9737 77.8958 53.4484 76.9816 53.1016C76.1567 52.7864 76.0017 52.6603 75.9965 52.2951C75.9965 51.7697 77.0919 51.0867 78.0639 50.4878C79.6585 49.5 81.479 48.3862 81.5998 46.4816C81.7443 44.4037 78.2846 43.4028 74.6226 42.3415C72.8336 41.8161 70.9842 41.2907 70.0674 40.7233C68.4413 39.7224 68.5175 39.2601 68.5175 39.2548C68.5175 39.2496 68.7539 38.5324 72.0481 38.0858C73.2632 37.9337 74.4857 37.8477 75.7101 37.8284ZM27.2294 44.9212C27.077 46.6708 27.0692 50.2251 28.9737 53.0097C29.4807 53.7478 29.6331 54.3914 29.4282 54.9221C29.0263 55.9729 27.3266 56.5639 26.725 56.7058L26.6646 56.7216L26.6068 56.7452C26.063 56.9843 24.8179 57.6436 25.0122 58.6445C25.1856 59.5508 26.2732 60.1839 31.0175 60.3336C31.3222 60.3625 37.0595 60.9352 37.0254 63.6305V63.6804C37.0254 63.8144 36.8599 64.9939 34.2487 65.9265C33.4872 66.1792 32.7119 66.388 31.9264 66.5517C31.4693 66.6568 30.9965 66.7645 30.5341 66.8879C26.9142 67.8678 23.3152 68.9632 19.8292 70.1428L5.68563 52.8021C10.9809 50.37 16.4202 48.2645 21.9728 46.4974C23.6856 45.9484 25.4457 45.4151 27.2268 44.9081M75.7023 37.127C75.7023 37.127 63.211 37.2977 69.718 41.3065C72.3923 42.9536 81.0954 44.0018 80.9273 46.4343C80.725 49.3056 75.2951 50.3223 75.3214 52.303C75.3476 54.2837 78.6944 53.1725 78.3608 55.9335C77.9431 59.3906 62.0736 61.1874 73.8949 61.1874C74.5648 61.1874 75.3187 61.1874 76.1725 61.169C76.7329 61.169 77.2925 61.169 77.8511 61.169C98.6278 61.169 118.28 66.2732 131.822 70.9308L130.982 69.1603C123.266 54.6384 113.864 41.6953 113.864 41.6953C102.337 39.1261 90.6524 37.5263 79.6874 37.2058C78.3424 37.1655 77.0123 37.1463 75.697 37.148L75.7023 37.127ZM28.0333 43.9755C25.9317 44.5666 23.8301 45.1918 21.7758 45.8538C15.9112 47.713 10.174 49.9524 4.60069 52.5578L19.5981 70.9466C22.908 69.8144 26.6252 68.6559 30.7128 67.5499C31.9343 67.2189 33.2268 67.0245 34.4746 66.5753C37.8634 65.3748 37.7084 63.6331 37.7084 63.6331C37.7688 60.1524 31.0595 59.6454 31.0595 59.6454C22.2828 59.3695 26.8774 57.3652 26.8774 57.3652C26.8774 57.3652 31.9842 56.1883 29.5385 52.6156C27.0928 49.0429 28.0333 43.9755 28.0333 43.9755Z" fill="#373B52"/>
<path fill-rule="evenodd" clip-rule="evenodd" d="M117.805 42.5963C117.729 42.4729 123.484 51.042 133.49 68.9948C133.522 69.0447 146.399 52.8967 146.399 52.8967C137.854 48.4124 129.09 45.4256 117.805 42.5963Z" fill="#33D0DE"/>
<path fill-rule="evenodd" clip-rule="evenodd" d="M25.9054 78.1419C33.2782 75.6736 40.8082 73.7024 48.4448 72.2417C48.4763 72.2417 48.563 72.2417 48.6865 72.2417C49.8108 72.2417 52.4404 72.5806 52.5849 75.7093C52.6716 77.5482 51.8835 79.3135 51.1874 80.8739C50.4229 82.5841 49.7031 84.1997 50.3126 85.5631C50.7408 86.5166 51.7784 87.2469 53.486 87.7986C53.6541 87.8459 57.408 89.0044 58.1935 93.6095C58.5429 95.648 59.7487 96.8617 60.4711 97.5867C60.6547 97.757 60.8226 97.9433 60.9728 98.1436C60.8257 98.2356 60.3502 98.3722 59.0315 98.5455C54.2425 99.1792 49.5072 100.167 44.8643 101.501L25.9054 78.1419ZM107.079 101.433C106.354 100.266 105.976 98.9174 105.989 97.5441C106.003 96.1707 106.407 94.8296 107.155 93.6778C107.557 93.2758 112.117 88.6497 111.403 85.6287C111.169 84.641 110.42 83.9396 109.183 83.5271C103.947 81.8354 103.908 79.035 103.908 78.9168V78.8485L103.882 78.7828C102.156 74.5455 97.9291 72.1392 95.8905 70.9781C96.169 71.0149 96.4816 71.0595 96.7942 71.1068C106.656 72.5669 116.374 74.8687 125.843 77.9869L107.079 101.433Z" fill="#4C6AFF"/>
<path d="M97.5455 71.5744C106.949 73.0134 116.219 75.2186 125.263 78.1681L107.123 100.82C106.557 99.7436 106.285 98.5357 106.337 97.3198C106.389 96.1039 106.761 94.9234 107.418 93.8984C108.119 93.1996 112.48 88.6944 111.734 85.5499C111.471 84.4387 110.649 83.6532 109.288 83.2119C104.334 81.6095 104.252 79.0376 104.25 78.9378V78.796L104.194 78.6646C102.797 75.2312 99.7285 72.9273 97.5508 71.5718M48.6891 72.5806C49.4191 72.5748 50.1397 72.7442 50.7907 73.0744C51.718 73.5867 52.1988 74.4536 52.2566 75.7224C52.338 77.4746 51.6024 79.1375 50.8879 80.732C50.0998 82.5131 49.3432 84.197 50.0157 85.6996C50.4834 86.7504 51.5919 87.5385 53.3967 88.1191H53.4124C53.5622 88.1637 57.1217 89.2776 57.8783 93.6594C58.246 95.803 59.4991 97.0744 60.2425 97.8205L60.3923 97.9702C60.1296 98.0333 59.6883 98.1094 59 98.1988C54.2691 98.8251 49.5903 99.7961 45.0009 101.104L26.4807 78.3126C33.6827 75.9244 41.034 74.0122 48.4869 72.5884H48.6865M94.9474 70.563C93.2925 70.563 101.116 72.9273 103.556 78.9273C103.556 78.9273 103.485 82.0639 109.073 83.8686C114.752 85.7075 106.887 93.4623 106.887 93.4623C106.887 93.4623 103.997 97.4396 107.042 102.026L126.413 77.8345C116.78 74.6264 106.886 72.2672 96.8415 70.7837C96.2163 70.6763 95.5858 70.6026 94.9527 70.563H94.9474ZM51.2846 72.9168C51.1033 72.9168 50.9982 72.9168 50.9982 72.9168C43.1783 74.4104 35.4695 76.4361 27.9256 78.9798L47.3389 102.898C51.1639 101.313 55.086 99.9719 59.0814 98.8844C64.1094 98.225 59.2837 97.9151 58.5376 93.5517C57.697 88.6655 53.5911 87.4781 53.5911 87.4781C46.7425 85.2741 53.1707 80.9475 52.9264 75.6988C52.7636 72.1813 49.6532 71.9054 48.6865 71.9054L51.2846 72.9168Z" fill="#373B52"/>
<path fill-rule="evenodd" clip-rule="evenodd" d="M50.0867 108.066C54.6125 106.631 59.2663 105.637 63.9834 105.097C64.1281 105.08 64.2737 105.071 64.4195 105.071C65.7329 105.071 66.2058 105.859 66.7575 106.773C67.3091 107.687 67.9265 108.717 69.479 108.717H69.6629C71.1445 108.644 71.9352 107.813 72.6997 107.012C73.5298 106.13 74.3179 105.315 76.0149 105.315C76.3147 105.317 76.6141 105.34 76.9107 105.384C78.4668 105.617 80.037 105.742 81.6104 105.759C83.4991 105.759 84.8783 105.512 85.7111 105.021C86.8305 104.386 88.1024 104.07 89.3888 104.107C93.2373 104.107 97.8398 106.379 101.615 108.297L76.1962 140.217L50.0867 108.066Z" fill="#4C6AFF"/>
<path d="M89.3783 104.446C93.0219 104.446 97.4063 106.547 101.076 108.41L76.1935 139.671L50.6751 108.231C55.0301 106.883 59.5013 105.944 64.0306 105.426C64.1623 105.41 64.2948 105.402 64.4273 105.402C65.4939 105.402 65.88 105.956 66.4737 106.939C67.0385 107.879 67.7425 109.04 69.4869 109.04H69.6865C71.3047 108.959 72.1821 108.039 72.9545 107.23C73.7636 106.379 74.465 105.654 76.0228 105.654C76.3068 105.656 76.5903 105.678 76.8713 105.72C78.4431 105.954 80.0291 106.08 81.6182 106.098C83.57 106.098 85.007 105.835 85.8923 105.31C86.9561 104.708 88.1641 104.407 89.3862 104.44M89.3862 103.757C88.0423 103.725 86.7148 104.058 85.5455 104.722C84.6996 105.221 83.2732 105.412 81.6182 105.412C80.0616 105.395 78.508 105.27 76.9685 105.039C76.6552 104.994 76.3392 104.971 76.0228 104.968C72.5341 104.968 72.521 108.221 69.6524 108.365H69.4869C66.7207 108.365 67.3853 104.719 64.4273 104.719C64.2684 104.719 64.1096 104.728 63.9518 104.748C59.0429 105.307 54.2025 106.358 49.5035 107.884L76.1988 140.764L102.132 108.189C98.1576 106.161 93.408 103.765 89.3783 103.765L89.3862 103.757Z" fill="#373B52"/>
<path d="M20.7277 19.8021C20.7277 19.8021 15.9781 26.1357 15.9203 31.098C15.8494 37.211 20.0841 37.387 20.0841 37.387C20.0841 37.387 25.338 38.4693 24.3897 41.8161C23.7723 43.9912 20.5648 49.0534 20.5648 49.0534C20.5648 49.0534 18.2189 52.6182 18.6524 56.0832C19.1988 60.4492 23.4098 62.1252 23.4098 62.1252" stroke="#373B52" stroke-width="0.683012"/>
<path d="M106.207 31.2951C106.207 31.2951 129.587 62.9159 135.939 80.4194" stroke="#373B52" stroke-width="0.683012"/>
<path fill-rule="evenodd" clip-rule="evenodd" d="M35.3704 39.7881L37.472 38.4746C37.6795 38.9002 38.0814 39.507 38.6883 39.507C38.8264 39.5073 38.9628 39.4768 39.0876 39.4177L39.4527 39.9668C38.5176 40.5939 37.7261 41.4123 37.1305 42.3678L35.3704 39.7881Z" fill="#373B52"/>
<path d="M37.3459 38.9632C37.6217 39.4046 38.0604 39.859 38.6883 39.859C38.7765 39.8596 38.8646 39.8508 38.951 39.8328L38.9877 39.8906C38.273 40.4131 37.6453 41.0452 37.1278 41.7636L35.8564 39.8906L37.3485 38.9632M37.6348 37.9808L34.8923 39.6883L37.162 43.0298C37.7985 41.8112 38.7583 40.7915 39.9361 40.0823L39.19 38.958C39.0559 39.0893 38.8783 39.1669 38.6909 39.176C38.0315 39.176 37.6401 37.9808 37.6401 37.9808H37.6348Z" fill="#373B52"/>
<path fill-rule="evenodd" clip-rule="evenodd" d="M73.4536 83.0411L75.8126 76.781L78.6523 75.0945L81.5262 75.3624L100.9 83.9631L102.616 85.5078L101.943 89.1278L78.5473 89.3143L73.4536 83.0411Z" fill="white"/>
<path d="M78.7312 75.444L81.4396 75.7067L100.711 84.2601L102.245 85.6419L101.659 88.7942L78.7075 88.9781L73.8424 82.9834L76.0884 77.0175L78.7312 75.4413M78.5736 74.7399L75.5341 76.5447L73.0648 83.0989L78.3844 89.6664L102.227 89.4746L102.989 85.3897L101.087 83.6795L81.6156 75.0368L78.5736 74.7504V74.7399Z" fill="#373B52"/>
<path fill-rule="evenodd" clip-rule="evenodd" d="M72.8494 86.0885C69.944 86.0885 65.247 82.4895 65.1997 82.4527L64.0096 81.4361C63.5131 80.7505 55.866 70.1244 54.4501 67.9046C52.9974 65.6086 51.1401 62.7978 51.1217 62.7689L51.106 62.7452L51.0902 62.7268C45.6287 56.7531 37.8371 45.4598 36.9519 44.1699C37.1384 43.3818 38.2995 39.4808 43.2566 39.2706C44.2732 40.6235 52.2224 51.1944 54.3477 54.4072L54.366 54.4309C54.3792 54.4492 55.8634 56.2986 57.0114 57.93C58.1594 59.5613 71.2942 74.5167 71.8538 75.1524L73.0596 76.5237L72.4317 74.8083C72.416 74.7689 70.9711 70.7837 69.9807 63.9694C69.9807 63.7251 69.831 61.6051 68.4571 60.2443C68.268 60.0815 51.5762 45.5018 49.6769 42.8433C49.8503 42.0999 50.8748 38.5745 54.8231 37.3267L75.1953 57.226C75.2242 57.2522 76.9685 58.8494 77.2811 60.9274V60.9589L80.6962 74.7347C80.8196 75.3231 80.8538 76.0928 80.7251 76.3529C79.958 76.6156 75.8599 78.2286 74.8958 84.1918C74.6883 85.4869 74.0315 86.0911 72.8336 86.0911L72.8494 86.0885Z" fill="white"/>
<path d="M54.7391 37.7128L74.9667 57.4676C74.9851 57.4676 76.6375 58.9886 76.9343 60.9562V60.9877V61.0193L80.3494 74.7793C80.4396 75.2021 80.4679 75.6357 80.4334 76.0666C79.3091 76.4869 75.4816 78.3257 74.5464 84.113C74.3651 85.2426 73.8476 85.7259 72.8205 85.7259C70.1016 85.7259 65.6462 82.366 65.3914 82.169L64.2329 81.1891C63.5525 80.2487 56.0893 69.8932 54.7102 67.7075C53.2548 65.4116 51.3975 62.5955 51.3792 62.5666L51.3476 62.5219L51.3135 62.4825C46.0149 56.69 38.5096 45.8617 37.2933 44.0937C37.556 43.1322 38.7539 39.8905 43.0727 39.6121C44.4492 41.451 51.9834 51.4755 54.0403 54.5858L54.0587 54.6121L54.0771 54.6384C54.0928 54.6567 55.5718 56.4983 56.704 58.1165C57.8783 59.7872 71.0105 74.7321 71.5674 75.3678L73.979 78.113L72.7233 74.6821C72.7075 74.6427 71.2758 70.6891 70.2907 63.9273C70.2723 63.5884 70.1016 61.4238 68.6672 59.9869L68.6515 59.9711L68.6357 59.9553C63.9807 55.894 51.8993 45.1786 50.0184 42.7539C50.2653 41.8371 51.3082 38.8713 54.7049 37.6891M54.8888 36.9142C50.1287 38.3117 49.2828 42.8984 49.2828 42.8984C50.7933 45.2969 68.197 60.4702 68.197 60.4702C69.5499 61.8179 69.6208 63.9851 69.6208 63.9851C70.6322 70.9308 72.0928 74.9107 72.0928 74.9107C72.0928 74.9107 58.4326 59.3748 57.2741 57.7172C56.1156 56.0596 54.613 54.2023 54.613 54.2023C52.3196 50.7373 43.4037 38.9081 43.4037 38.9081C37.4851 39.0525 36.5736 44.2277 36.5736 44.2277C36.5736 44.2277 44.9799 56.5429 50.8222 62.9422C50.8222 62.9422 52.6769 65.7531 54.1454 68.0701C55.6138 70.387 63.7391 81.6541 63.7391 81.6541L64.9737 82.7049C64.9737 82.7049 69.7942 86.4273 72.8494 86.4273C74.0552 86.4273 74.9904 85.8494 75.2504 84.2391C76.2697 77.9343 80.9483 76.6419 80.9483 76.6419C81.3686 76.2032 81.0455 74.6454 81.0455 74.6454L77.6305 60.8722C77.2942 58.6419 75.4448 56.9764 75.4448 56.9764L54.9282 36.9352L54.8888 36.9142Z" fill="#373B52"/>
<path fill-rule="evenodd" clip-rule="evenodd" d="M88.2408 80.1225C83.7749 78.2206 81.8047 76.802 81.3056 76.4132L81.3213 76.2582C83.0367 77.5139 85.5823 78.8642 88.2408 80.1225Z" fill="black"/>
<path d="M81.0455 75.599L80.9483 76.5473C80.9483 76.5473 85.1515 80.2855 99.9466 84.528C99.9466 84.528 85.8503 79.5079 81.0455 75.5963V75.599Z" fill="#373B52"/>
<path fill-rule="evenodd" clip-rule="evenodd" d="M73.5981 77.1279C73.1767 76.485 72.8178 75.8033 72.5263 75.092V75.0657C71.4755 72.9641 70.0858 64.5263 69.9965 63.9825C69.9963 63.7339 69.9796 63.4855 69.9466 63.2391C70.5377 64.6025 71.2443 66.7041 72.0482 69.9221C72.7575 72.7881 73.3144 75.6095 73.5981 77.1279Z" fill="#373B52"/>
<path d="M70.8187 66.7487C71.0972 67.6734 71.394 68.7478 71.7067 69.9983C72.1427 71.7426 72.521 73.4685 72.8126 74.8949C72.1821 73.6103 71.3704 69.7329 70.8187 66.7513M68.4098 60.4965C69.1912 61.5035 69.6245 62.737 69.6445 64.0114C69.6445 64.0114 71.0998 72.993 72.211 75.2207C72.211 75.2207 73.1436 77.5508 74.1445 78.2233C74.1445 78.2233 71.3257 61.7785 68.4098 60.4965Z" fill="#373B52"/>
<path fill-rule="evenodd" clip-rule="evenodd" d="M62.8538 110.9C61.1147 110.9 59.8853 110.745 59.1944 110.433C58.1436 109.965 57.7863 107.729 57.7023 106.584C59.2784 106.4 66.5289 105.515 74.6068 103.86C77.1208 103.397 78.4186 102.775 78.5735 102.696C83.9168 100.513 85.9291 98.049 86.0131 97.9439L86.4177 97.4395L85.7714 97.3896C71.8301 96.3388 59.6672 86.6742 57.1821 84.5779C62.7618 82.7837 66.8047 79.1243 67.803 78.1602C69.8389 79.9991 74.528 82.9754 74.7355 83.1068L74.7592 83.1199C82.1987 87.0018 90.4522 89.0651 98.8432 89.1409C100.333 89.1409 101.407 89.0621 101.972 89.0096C101.184 92.8528 96.0823 98.9684 96.0298 99.0315C91.7872 103.96 85.0227 106.697 84.9544 106.723H84.9387H84.9229C82.8452 107.776 80.6431 108.562 78.3686 109.064H78.3529C77.3546 109.282 68.4518 110.9 62.8538 110.9Z" fill="#373B52"/>
<path d="M67.8135 78.6252C69.9807 80.4825 74.352 83.2671 74.5517 83.3932L74.5753 83.4089L74.6016 83.4247C82.0903 87.3302 90.3977 89.4061 98.8433 89.4825C100.002 89.4825 100.911 89.4352 101.531 89.3905C100.496 93.1497 95.8196 98.7504 95.7723 98.8056C91.5876 103.671 84.8967 106.392 84.8258 106.405L84.7942 106.419L84.7627 106.437C82.7136 107.474 80.5426 108.25 78.3004 108.746H78.2846C77.2916 108.93 68.4151 110.556 62.8511 110.556C60.7496 110.556 59.775 110.32 59.331 110.12C58.6217 109.799 58.2014 108.2 58.0674 106.881C60.169 106.631 67.0438 105.757 74.6673 104.194C77.1576 103.734 78.4921 103.114 78.7128 103.006C84.127 100.792 86.1918 98.2618 86.2785 98.1567L87.0876 97.1453L85.7951 97.0481C77.7382 96.4466 70.3328 92.9186 65.5412 90.063C62.8554 88.467 60.2899 86.6768 57.8652 84.7066C61.5557 83.3679 64.9384 81.2986 67.8109 78.6226M67.7899 77.6848C67.7899 77.6848 63.2294 82.4658 56.4939 84.4308C56.4939 84.4308 69.8783 96.5411 85.7531 97.7285C85.7531 97.7285 83.7671 100.208 78.437 102.384C78.437 102.384 77.1603 103.04 74.5438 103.524C65.3494 105.407 57.3503 106.279 57.3503 106.279C57.3503 106.279 57.4659 110.025 59.0604 110.745C59.8485 111.102 61.2145 111.242 62.859 111.242C68.7986 111.242 78.4343 109.416 78.437 109.416C80.7454 108.913 82.9806 108.119 85.0885 107.052C85.0885 107.052 91.9448 104.317 96.2977 99.2627C96.2977 99.2627 101.912 92.5744 102.384 88.634C101.21 88.7642 100.03 88.823 98.8485 88.81C90.5118 88.7401 82.3109 86.6899 74.9221 82.8284C74.9221 82.8284 69.6681 79.4895 67.7977 77.6979L67.7899 77.6848Z" fill="#373B52"/>
<path fill-rule="evenodd" clip-rule="evenodd" d="M58.4168 108.152C53.5149 106.608 51.5368 103.5 51.1322 102.775C51.5184 102.891 52.4037 103.461 53.6515 104.561C53.6938 104.6 53.7438 104.628 53.7981 104.646C53.8525 104.663 53.9099 104.668 53.9665 104.661C54.0231 104.654 54.0775 104.635 54.1261 104.605C54.1746 104.575 54.2162 104.535 54.2478 104.488C54.2849 104.434 54.3086 104.372 54.3168 104.307C54.325 104.242 54.3176 104.176 54.2951 104.115C54.2688 104.047 54.2505 103.989 54.2347 103.939C54.6346 104.196 55.0093 104.491 55.3538 104.819C56.7435 105.954 57.7049 106.379 58.1673 106.534C58.1883 107.081 58.272 107.624 58.4168 108.152Z" fill="white"/>
<path d="M52.359 103.936C52.669 104.173 53.0263 104.461 53.4256 104.819C53.5609 104.939 53.7357 105.005 53.9168 105.005C54.0374 105.005 54.156 104.975 54.2626 104.919C54.3692 104.863 54.4606 104.781 54.5289 104.682C54.5471 104.656 54.5637 104.629 54.5788 104.601C54.7574 104.743 54.9466 104.908 55.1042 105.068L55.1226 105.084L55.141 105.1C55.9435 105.791 56.846 106.356 57.8179 106.776C57.8397 107.064 57.8792 107.351 57.9361 107.635C55.7888 106.897 53.8649 105.624 52.3459 103.936M51.0035 102.412C50.8249 102.412 50.7198 102.515 50.7277 102.767C50.7277 102.767 52.6743 106.936 58.8975 108.657C58.8975 108.657 58.3722 106.965 58.5193 106.292C58.5193 106.292 57.4685 106.135 55.5744 104.582C55.5744 104.582 54.4396 103.513 53.9982 103.513C53.8144 103.513 53.7539 103.705 53.9562 104.246C53.9595 104.256 53.9605 104.266 53.9592 104.276C53.9579 104.286 53.9543 104.295 53.9487 104.304C53.9431 104.312 53.9357 104.319 53.9269 104.324C53.9182 104.329 53.9085 104.332 53.8984 104.333C53.8839 104.332 53.8699 104.327 53.859 104.317C53.2995 103.823 51.655 102.423 50.9982 102.423L51.0035 102.412Z" fill="#373B52"/>
<path fill-rule="evenodd" clip-rule="evenodd" d="M102.6 84.9142C98.993 84.4335 89.7276 80.2697 89.6383 80.2277C84.831 78.1419 81.8546 75.9562 81.2688 75.4992L81.0061 73.6471L82.2119 71.0753C83.8616 72.289 90.9886 77.4668 94.8502 79.3161L96.9203 80.3065L95.2285 78.7566C95.1839 78.7146 90.7627 74.6533 87.4763 70.8179C87.3371 70.6261 85.4404 67.9992 84.0797 65.8135L79.4063 57.8985C80.8161 57.5952 82.1161 56.912 83.1655 55.923L88.2565 64.4685C89.1672 65.9338 90.2358 67.2948 91.4431 68.5272L92.2916 69.3573C94.5035 71.514 98.6226 75.528 99.8572 77.3118V77.3275V77.3407C99.9124 77.3801 103.031 81.0499 102.6 84.9142Z" fill="#373B52"/>
<path d="M83.0841 56.4588L87.9781 64.6497C88.9053 66.1369 89.9913 67.519 91.2172 68.7715L92.0657 69.599C94.2697 71.7478 98.3704 75.7487 99.5893 77.5061L99.6103 77.5377L99.634 77.5639C99.6655 77.6007 102.503 80.9317 102.303 84.5201C98.5411 83.8503 89.8853 79.9571 89.7828 79.9124C86.8943 78.6907 84.1507 77.1515 81.6024 75.3231L81.3818 73.7102L82.3669 71.6086C84.4921 73.1637 91.0595 77.8818 94.7268 79.6366L98.8643 81.6173L95.4834 78.5175C95.4387 78.4781 91.0412 74.4378 87.7679 70.6182C87.5788 70.3555 85.732 67.7916 84.3949 65.6532L79.9448 58.1217C81.1036 57.8036 82.1793 57.2371 83.0972 56.4615M83.2417 55.3687C82.0829 56.5978 80.544 57.401 78.873 57.6489L83.8117 66.0079C85.2434 68.3039 87.2268 71.0412 87.2268 71.0412C90.5683 74.9422 95.0158 79.0219 95.0158 79.0219C90.7023 76.9571 82.0963 70.5657 82.0963 70.5657L80.6725 73.6051L80.9562 75.7067C80.9562 75.7067 84.0403 78.1786 89.507 80.5508C89.507 80.5508 99.458 85.0403 102.905 85.3004C103.59 81.113 100.151 77.1305 100.151 77.1305C98.7172 75.0604 93.5841 70.1427 91.6953 68.2986C90.5112 67.0842 89.4605 65.7464 88.5613 64.3082L83.2417 55.3765V55.3687Z" fill="#373B52"/>
<path fill-rule="evenodd" clip-rule="evenodd" d="M47.3599 38.7898L48.7207 37.6838C48.9915 37.9861 49.3672 38.174 49.7715 38.2092C49.9715 38.2111 50.1651 38.1391 50.3153 38.007L51.2032 38.8371C50.6896 39.5094 50.2252 40.2179 49.8135 40.9571L47.3599 38.7898Z" fill="#373B52"/>
<path d="M48.7128 38.1305C49.0039 38.3894 49.3745 38.5414 49.7636 38.5613C49.938 38.5618 50.1104 38.5232 50.2679 38.4483L50.7329 38.8818C50.369 39.3819 50.0306 39.9001 49.7189 40.4343L47.88 38.8003L48.7049 38.1305M48.739 37.2215L46.8266 38.7793L49.9002 41.5061C49.9002 41.5061 51.1742 39.2312 51.6918 38.8424L50.2679 37.5131C50.2303 37.6165 50.1632 37.7067 50.075 37.7725C49.9868 37.8383 49.8813 37.8769 49.7714 37.8835C49.5376 37.8835 49.204 37.7312 48.7469 37.2268L48.739 37.2215Z" fill="#373B52"/>
<path fill-rule="evenodd" clip-rule="evenodd" d="M46.958 38.6979C46.5771 38.6585 45.7942 38.4352 44.8564 37.3581C44.7651 37.2508 44.7177 37.1131 44.7235 36.9724C44.7294 36.8316 44.7881 36.6983 44.8879 36.5989C45.7154 35.7741 47.7408 33.8695 52.0333 30.3625C52.1074 30.3023 52.2006 30.2706 52.296 30.2732C52.3656 30.2724 52.4339 30.2916 52.493 30.3284C52.604 30.389 52.7011 30.4722 52.778 30.5727C52.8549 30.6731 52.91 30.7885 52.9396 30.9115C53.0053 31.2268 52.8792 31.6182 52.5692 32.0779C52.3774 32.3117 50.1786 35.0648 50.092 37.2951C50.089 37.39 50.0513 37.4805 49.9858 37.5493C49.9204 37.6181 49.8319 37.6604 49.7373 37.6681C49.6993 37.6678 49.6618 37.6598 49.627 37.6445C49.5751 37.6249 49.5258 37.5993 49.4799 37.5683C49.2976 37.4474 49.0839 37.3825 48.8652 37.3818C48.723 37.3807 48.5821 37.4091 48.4515 37.4652C48.3208 37.5212 48.2032 37.6037 48.106 37.7075L47.2837 38.5797C47.2489 38.6181 47.2063 38.6488 47.1587 38.6696C47.1112 38.6904 47.0598 38.701 47.0079 38.7005L46.958 38.6979Z" fill="#386EE7"/>
<path d="M52.2855 30.6147H52.3012C52.3723 30.652 52.4351 30.7033 52.4856 30.7657C52.5362 30.828 52.5736 30.9 52.5954 30.9772C52.6401 31.19 52.5271 31.5026 52.2828 31.873C52.0201 32.1882 49.8292 34.9755 49.7399 37.2793C49.7388 37.2935 49.7322 37.3067 49.7215 37.3161C49.6994 37.3058 49.6783 37.2935 49.6585 37.2793C49.4197 37.1224 49.1404 37.0384 48.8546 37.0376C48.6658 37.0368 48.4787 37.0749 48.3052 37.1494C48.1316 37.224 47.9753 37.3335 47.8459 37.4711L47.0263 38.3537C47.0223 38.3582 47.0175 38.3616 47.012 38.3639C47.0065 38.3662 47.0006 38.3672 46.9947 38.3669C46.6637 38.3327 45.9781 38.1278 45.1165 37.1401C45.0826 37.0981 45.0654 37.0451 45.0683 36.9913C45.0712 36.9374 45.094 36.8865 45.1322 36.8485C45.9545 36.0289 47.9693 34.1322 52.2513 30.6357C52.2633 30.6321 52.2761 30.6321 52.2881 30.6357M52.2881 29.9527C52.1167 29.9531 51.9506 30.0124 51.8179 30.1208C47.5543 33.6042 45.5131 35.514 44.6515 36.3783C44.4904 36.5384 44.3957 36.7536 44.3864 36.9806C44.3772 37.2076 44.454 37.4297 44.6016 37.6024C45.5972 38.7425 46.4404 39.0105 46.9264 39.0578H47C47.0986 39.058 47.1962 39.0378 47.2866 38.9985C47.377 38.9591 47.4583 38.9015 47.5254 38.8292L48.345 37.9597C48.4107 37.8897 48.49 37.834 48.5782 37.796C48.6663 37.7581 48.7613 37.7387 48.8573 37.739C49.0094 37.7397 49.1581 37.7844 49.2855 37.8678C49.35 37.9126 49.4197 37.9496 49.493 37.9781C49.568 38.0089 49.6483 38.0249 49.7294 38.0254C49.9139 38.0147 50.0873 37.9339 50.2142 37.7997C50.3412 37.6654 50.4121 37.4877 50.4124 37.303C50.4965 35.1121 52.8214 32.2776 52.8214 32.2776C53.6856 31.0087 53.1418 30.3441 52.6559 30.0368C52.542 29.9644 52.4098 29.9261 52.2749 29.9264L52.2881 29.9527Z" fill="#373B52"/>
<path fill-rule="evenodd" clip-rule="evenodd" d="M102.03 88.6339C100.69 87.633 99.5946 86.6163 99.5026 86.2696C99.8047 85.8046 101.502 85.555 102.597 85.5288L102.91 85.555H102.949C103.454 85.4818 103.963 85.4388 104.473 85.4263H104.549C104.643 85.9724 104.797 86.5064 105.009 87.0183C104.709 86.9626 104.405 86.9362 104.1 86.9395C103.576 86.944 103.054 86.9941 102.539 87.0892L102.314 87.1339L102.03 88.6339Z" fill="white"/>
<path d="M104.265 85.7706C104.326 86.0545 104.401 86.3351 104.491 86.6112C104.365 86.6112 104.229 86.598 104.097 86.598C103.552 86.6016 103.007 86.6543 102.471 86.7557L102.019 86.845L101.933 87.2968L101.796 88.0271C101.123 87.5298 100.502 86.9666 99.9413 86.3459C100.377 86.1147 101.518 85.9019 102.584 85.8756L102.847 85.8967H102.926H103.004C103.004 85.8967 103.695 85.7968 104.273 85.7732M104.478 85.0875C103.951 85.1006 103.424 85.1445 102.902 85.2189L102.61 85.1952C102.61 85.1952 99.6235 85.2557 99.1795 86.162C98.8669 86.7977 102.266 89.2329 102.266 89.2329L102.61 87.4282C103.103 87.3364 103.602 87.2881 104.102 87.2837C104.759 87.2837 105.458 87.3861 105.799 87.7671C105.293 86.9621 104.968 86.0568 104.846 85.1138C104.722 85.1003 104.597 85.0941 104.473 85.0954L104.478 85.0875Z" fill="#373B52"/>
<path d="M67.1751 48.3231C67.902 48.3231 68.4912 47.7338 68.4912 47.007C68.4912 46.2801 67.902 45.6909 67.1751 45.6909C66.4483 45.6909 65.859 46.2801 65.859 47.007C65.859 47.7338 66.4483 48.3231 67.1751 48.3231Z" fill="#386EE7"/>
<path d="M67.1751 46.0324C67.3679 46.0324 67.5563 46.0895 67.7166 46.1966C67.8769 46.3037 68.0018 46.4559 68.0755 46.634C68.1493 46.8121 68.1686 47.0081 68.131 47.1971C68.0934 47.3862 68.0006 47.5598 67.8643 47.6961C67.728 47.8324 67.5543 47.9253 67.3653 47.9629C67.1762 48.0005 66.9802 47.9812 66.8022 47.9074C66.6241 47.8336 66.4719 47.7087 66.3648 47.5484C66.2577 47.3882 66.2005 47.1997 66.2005 47.007C66.2005 46.7485 66.3032 46.5006 66.486 46.3178C66.6688 46.1351 66.9166 46.0324 67.1751 46.0324ZM67.1751 45.3494C66.8473 45.3494 66.5268 45.4466 66.2542 45.6287C65.9816 45.8109 65.7691 46.0697 65.6437 46.3726C65.5182 46.6755 65.4854 47.0088 65.5494 47.3304C65.6133 47.6519 65.7712 47.9473 66.003 48.1791C66.2348 48.4109 66.5302 48.5688 66.8517 48.6327C67.1733 48.6967 67.5066 48.6639 67.8095 48.5384C68.1124 48.413 68.3712 48.2005 68.5534 47.9279C68.7355 47.6553 68.8327 47.3348 68.8327 47.007C68.8327 46.5673 68.6581 46.1457 68.3472 45.8349C68.0364 45.524 67.6148 45.3494 67.1751 45.3494Z" fill="#373B52"/>
<path fill-rule="evenodd" clip-rule="evenodd" d="M112.186 93.8301C110.205 93.8301 107.457 92.9396 105.574 88.7023C105.474 88.479 104.967 87.5701 104.909 87.4676C104.888 87.4361 103.974 85.9912 104.294 84.7303C104.347 84.6331 104.975 83.6217 108.316 83.4825H108.348C108.745 83.4378 109.145 83.4168 109.546 83.4194C110.812 83.4194 113.223 83.6191 115.207 84.9536C115.785 85.3321 116.276 85.8286 116.648 86.4103C117.021 86.9921 117.267 87.646 117.369 88.3292C117.382 88.4658 117.729 92.2067 114.356 93.4623C113.66 93.7129 112.925 93.8383 112.186 93.8328V93.8301Z" fill="white"/>
<path d="M109.546 83.7583C110.772 83.7583 113.118 83.9501 115.015 85.2347C115.553 85.5824 116.011 86.0408 116.358 86.5794C116.705 87.118 116.933 87.7244 117.027 88.3581C117.056 88.6707 117.271 92.0096 114.237 93.1392C113.585 93.37 112.898 93.4855 112.207 93.4807C108.792 93.4807 106.903 90.8012 105.902 88.5551C105.802 88.3292 105.356 87.5306 105.222 87.2916V87.2732V87.2574C105.222 87.2443 104.405 85.9597 104.651 84.859C104.764 84.7093 105.492 83.9343 108.366 83.8082H108.429C108.812 83.7639 109.197 83.7437 109.582 83.7478M109.582 83.0648C109.166 83.0614 108.75 83.0834 108.337 83.1305C104.599 83.2854 104.029 84.5333 104.008 84.6121C103.627 86.0464 104.646 87.6252 104.646 87.6252C104.646 87.6252 105.203 88.6156 105.298 88.831C107.265 93.2732 110.197 94.1611 112.222 94.1611C113.003 94.1678 113.779 94.0353 114.513 93.7697C118.191 92.4037 117.742 88.253 117.742 88.253C117.634 87.5236 117.373 86.8254 116.975 86.2045C116.578 85.5836 116.053 85.0543 115.435 84.6515C113.428 83.2907 111.014 83.0569 109.582 83.0569V83.0648Z" fill="#373B52"/>
<path fill-rule="evenodd" clip-rule="evenodd" d="M112.28 93.8302C111.343 93.8276 110.416 93.6447 109.548 93.2917C107.909 92.6559 106.519 91.0508 105.595 88.7575C107.341 89.9843 109.611 90.1629 110.231 90.1892C110.5 90.5174 110.837 90.784 111.218 90.9707C111.599 91.1574 112.016 91.26 112.44 91.2715C112.578 91.2743 112.716 91.2602 112.85 91.2295H112.869H112.884C113.41 91.0351 113.586 90.7198 113.633 90.4887C113.672 90.231 113.619 89.9678 113.483 89.7452C113.718 89.6522 113.935 89.5188 114.124 89.3512L114.187 89.2987C115.207 88.4974 115.501 86.409 115.601 85.3372C117.408 86.8818 117.332 89.2015 117.329 89.2277C117.287 91.1927 116.391 92.1174 116.384 92.1358C115.854 92.6878 115.216 93.1242 114.51 93.4176C113.804 93.711 113.045 93.8551 112.28 93.8407V93.8302Z" fill="#373B52"/>
<path d="M115.861 86.0648C116.591 86.9456 116.99 88.0545 116.988 89.1988V89.2171C116.948 91.0219 116.171 91.8441 116.139 91.8888C115.641 92.4067 115.041 92.8161 114.377 93.0914C113.713 93.3666 112.999 93.5019 112.28 93.4886C111.392 93.4851 110.513 93.3121 109.69 92.979H109.672H109.653C108.356 92.4746 107.208 91.2951 106.346 89.6007C107.52 90.1426 108.785 90.4598 110.076 90.5359C110.374 90.8707 110.738 91.1403 111.144 91.3279C111.551 91.5155 111.993 91.617 112.44 91.6261C112.606 91.6275 112.772 91.6108 112.934 91.5762H112.968H113.003C113.686 91.3135 113.904 90.8958 113.967 90.5805C114.008 90.3653 113.995 90.1429 113.927 89.9343C114.071 89.847 114.208 89.7486 114.337 89.6401L114.4 89.5902C115.312 88.873 115.698 87.2732 115.861 86.0989M115.296 84.7066C115.296 84.7066 115.212 88.0797 113.982 89.0543C113.694 89.2828 113.441 89.514 112.982 89.514H112.858C112.858 89.514 113.935 90.5122 112.771 90.9378C112.664 90.9609 112.555 90.9714 112.446 90.9693C112.002 90.9693 111.174 90.8222 110.397 89.8896C110.397 89.8896 106.703 89.866 104.851 87.6567L105.14 88.563C105.177 88.563 106.364 92.4588 109.412 93.641C110.323 94.0155 111.3 94.2091 112.285 94.211C113.095 94.2237 113.898 94.0701 114.645 93.7596C115.393 93.4492 116.068 92.9886 116.63 92.4063C116.63 92.4063 117.629 91.4107 117.681 89.2723C117.681 89.2723 117.82 86.3537 115.317 84.7119L115.296 84.7066Z" fill="#373B52"/>
<path d="M95.7539 53.472C95.7539 53.472 106.325 60.0394 105.828 75.1944" stroke="#373B52" stroke-width="0.683012"/>
<path fill-rule="evenodd" clip-rule="evenodd" d="M18.2478 15.8065L22.556 16.1979L24.6786 20.8818L27.3161 9.23643L18.2478 15.8065Z" fill="#FFC470"/>
<path d="M79.7215 132.822C82.0458 132.822 83.9299 130.937 83.9299 128.611C83.9299 126.286 82.0458 124.4 79.7215 124.4C77.3973 124.4 75.5131 126.286 75.5131 128.611C75.5131 130.937 77.3973 132.822 79.7215 132.822Z" fill="white"/>
<path d="M79.7215 124.742C80.487 124.741 81.2354 124.968 81.872 125.393C82.5087 125.817 83.0051 126.422 83.2984 127.129C83.5917 127.836 83.6687 128.614 83.5197 129.365C83.3707 130.115 83.0023 130.805 82.4613 131.346C81.9202 131.888 81.2307 132.257 80.48 132.406C79.7294 132.556 78.9512 132.479 78.244 132.186C77.5367 131.894 76.9323 131.398 76.507 130.761C76.0816 130.125 75.8546 129.377 75.8546 128.611C75.856 127.586 76.2638 126.603 76.9886 125.877C77.7134 125.152 78.6962 124.744 79.7215 124.742ZM79.7215 124.059C78.821 124.058 77.9406 124.325 77.1916 124.825C76.4426 125.325 75.8586 126.035 75.5137 126.867C75.1687 127.699 75.0782 128.614 75.2535 129.498C75.4289 130.381 75.8623 131.192 76.4988 131.829C77.1354 132.466 77.9466 132.9 78.8298 133.076C79.713 133.252 80.6285 133.162 81.4605 132.817C82.2925 132.473 83.0037 131.889 83.504 131.141C84.0044 130.392 84.2715 129.512 84.2715 128.611C84.2718 128.013 84.1544 127.422 83.9259 126.869C83.6974 126.317 83.3623 125.815 82.9397 125.392C82.5172 124.969 82.0155 124.634 81.4633 124.405C80.9111 124.176 80.3193 124.059 79.7215 124.059Z" fill="#373B52"/>
<path fill-rule="evenodd" clip-rule="evenodd" d="M79.6533 132.772C78.9212 132.771 78.2022 132.579 77.5666 132.215C76.9311 131.852 76.4009 131.33 76.028 130.7C76.007 130.665 76.028 130.6 76.0596 130.55C76.2093 130.287 76.7794 129.898 77.7356 129.898C78.4555 129.916 79.1622 130.095 79.803 130.424C80.049 130.541 80.3185 130.601 80.5911 130.6C81.613 130.6 82.5928 129.767 83.3074 129.158C83.4913 129.003 83.7198 128.808 83.8801 128.695C83.8981 129.191 83.8164 129.686 83.64 130.15C83.4636 130.613 83.196 131.037 82.8529 131.396C82.4422 131.832 81.9463 132.179 81.3959 132.416C80.8456 132.653 80.2524 132.774 79.6533 132.772Z" fill="#FFC470"/>
<path d="M83.4755 129.449C83.3488 130.091 83.0417 130.683 82.5902 131.157C82.2139 131.559 81.759 131.879 81.2539 132.098C80.7487 132.318 80.2039 132.431 79.6532 132.431C79.0064 132.429 78.3703 132.266 77.8024 131.956C77.2345 131.647 76.7529 131.2 76.4011 130.658C76.5455 130.503 76.979 130.24 77.7356 130.24C78.4039 130.257 79.06 130.423 79.6559 130.726C79.9443 130.865 80.2604 130.937 80.5806 130.936C81.7049 130.936 82.7242 130.088 83.4702 129.449M84.0088 128.259C83.4834 128.259 82.0123 130.253 80.5753 130.253C80.3572 130.253 80.1419 130.205 79.9448 130.111C79.2576 129.763 78.5007 129.573 77.7303 129.557C76.2566 129.557 75.4475 130.4 75.7286 130.87C76.13 131.553 76.7029 132.119 77.3903 132.512C78.0778 132.905 78.8561 133.112 79.648 133.111C82.162 133.111 84.3765 131.067 84.2005 128.561C84.1848 128.346 84.1191 128.257 84.0088 128.257V128.259Z" fill="#373B52"/>
<path fill-rule="evenodd" clip-rule="evenodd" d="M80.3783 55.4921C80.0826 55.0629 79.7532 54.6579 79.3932 54.2811C79.4016 54.2325 79.4214 54.1866 79.451 54.1471C79.6085 54.1726 79.7563 54.2397 79.8792 54.3415L80.3783 55.4921Z" fill="black"/>
<path d="M79.4694 53.8056C79.2592 53.8056 79.0727 53.9448 79.028 54.4019C79.028 54.4019 80.1708 55.437 81.2688 57.6804L81.6051 57.4729L80.1629 54.1156C79.9671 53.9446 79.7264 53.8334 79.4694 53.7951V53.8056Z" fill="#373B52"/>
<path fill-rule="evenodd" clip-rule="evenodd" d="M81.6051 56.8975C81.1821 55.8047 80.042 53.0647 78.7154 51.5332C78.5584 51.3769 78.4491 51.1792 78.4002 50.9632H78.5525C78.9124 50.9632 79.5849 50.9632 81.0035 52.8493C81.7244 53.7645 82.3919 54.7206 83.0026 55.7127L81.6051 56.8975Z" fill="white"/>
<path d="M79.0464 51.4124C79.401 51.5805 79.9291 52.0009 80.7171 53.0516C81.7811 54.465 82.2933 55.2373 82.556 55.6366L81.7522 56.3275C81.2425 55.0692 80.2312 52.81 79.0543 51.4124M78.5473 50.6243H78.3686C77.9116 50.6243 77.9615 51.1996 78.4527 51.7618C80.0919 53.6348 81.4632 57.4755 81.4632 57.4755L83.4177 55.7995C83.4177 55.7995 83.3257 55.3765 81.2714 52.6471C79.8634 50.7714 79.0989 50.6243 78.5473 50.6243Z" fill="#373B52"/>
<path fill-rule="evenodd" clip-rule="evenodd" d="M102.067 85.114C101.25 84.9354 100.396 84.7042 99.5499 84.4494C100.004 84.3916 100.84 84.2944 101.286 84.2944H101.433C101.617 84.3259 101.867 84.6779 102.067 85.114ZM98.7487 84.1972C97.2592 83.7217 95.8301 83.1884 94.6953 82.7418L97.6979 83.1411L98.7487 84.1972Z" fill="#37435C"/>
<path d="M92.1576 82.0587C92.1576 82.0587 98.0867 84.7014 102.608 85.5736C102.608 85.5736 102.135 84.0237 101.468 83.958C101.407 83.9549 101.347 83.9549 101.286 83.958C100.624 83.958 99.1848 84.155 99.1848 84.155L97.8555 82.8258L92.155 82.0666L92.1576 82.0587Z" fill="#373B52"/>
<path fill-rule="evenodd" clip-rule="evenodd" d="M79.1173 57.3547C79.183 56.9712 79.9553 56.3302 80.5963 55.9099C80.7382 56.1095 80.9483 56.4353 81.1506 56.761C80.5984 57.1696 79.9248 57.3806 79.2382 57.36L79.1173 57.3547Z" fill="#373B52"/>
<path d="M80.507 56.3827L80.6883 56.6664C80.411 56.8229 80.1074 56.9271 79.7925 56.9738C80.0159 56.7596 80.2547 56.562 80.507 56.3827ZM80.6646 55.4606C80.6646 55.4606 78.2426 56.9133 78.8809 57.6804C78.9995 57.6937 79.1188 57.6999 79.2382 57.6988C79.7898 57.6988 80.8616 57.5885 81.5867 56.8161C81.5867 56.8161 80.8327 55.571 80.6646 55.4606Z" fill="#373B52"/>
<path fill-rule="evenodd" clip-rule="evenodd" d="M95.4098 54.6121C95.1983 54.6121 94.9902 54.5594 94.8043 54.4587C94.6183 54.358 94.4604 54.2125 94.3449 54.0354C94.2293 53.8583 94.1598 53.6552 94.1425 53.4444C94.1253 53.2337 94.1608 53.022 94.246 52.8284C94.3122 52.6752 94.4083 52.5367 94.5287 52.4212C94.6492 52.3057 94.7916 52.2155 94.9474 52.1559C95.0943 52.0963 95.2513 52.066 95.4098 52.0666C95.7066 52.0658 95.9943 52.1688 96.2231 52.3578C96.4519 52.5468 96.6074 52.8099 96.6626 53.1016C96.7178 53.3932 96.6692 53.6949 96.5254 53.9545C96.3815 54.214 96.1513 54.4151 95.8748 54.5228C95.727 54.5824 95.5691 54.6128 95.4098 54.6121Z" fill="#373B52"/>
<path d="M95.4098 52.408C95.6269 52.4075 95.8374 52.483 96.0047 52.6213C96.1721 52.7597 96.2857 52.9523 96.326 53.1656C96.3662 53.379 96.3305 53.5997 96.2251 53.7895C96.1196 53.9794 95.9511 54.1263 95.7487 54.2049C95.6411 54.2488 95.526 54.2711 95.4098 54.2706C95.1927 54.2711 94.9822 54.1956 94.8149 54.0573C94.6475 53.9189 94.5339 53.7263 94.4937 53.513C94.4534 53.2996 94.4891 53.0789 94.5946 52.889C94.7 52.6992 94.8685 52.5523 95.0709 52.4737C95.1785 52.43 95.2937 52.4077 95.4098 52.408ZM95.4098 51.725C95.2086 51.726 95.0092 51.7633 94.8214 51.8354C94.5549 51.9404 94.3213 52.1144 94.1443 52.3396C93.9674 52.5648 93.8537 52.833 93.8147 53.1168C93.7758 53.4005 93.8131 53.6895 93.9229 53.954C94.0326 54.2185 94.2108 54.449 94.4391 54.6219C94.6674 54.7948 94.9376 54.9038 95.222 54.9376C95.5063 54.9715 95.7946 54.9291 96.0571 54.8146C96.3197 54.7002 96.547 54.518 96.7158 54.2866C96.8846 54.0553 96.9887 53.7832 97.0175 53.4982C97.0387 53.274 97.0129 53.0479 96.9418 52.8342C96.8707 52.6205 96.7559 52.424 96.6046 52.2572C96.4534 52.0903 96.269 51.9568 96.0633 51.8652C95.8576 51.7736 95.635 51.7258 95.4098 51.725Z" fill="#373B52"/>
<path fill-rule="evenodd" clip-rule="evenodd" d="M34.9973 39.7408C34.6795 39.7408 33.5604 39.6095 32.4728 37.9019C32.3906 37.7677 32.3625 37.6073 32.3942 37.4531C32.4259 37.299 32.5151 37.1627 32.6436 37.0718L41.373 30.6856C41.4774 30.609 41.6034 30.5676 41.7329 30.5674C41.8563 30.5629 41.9776 30.6002 42.0772 30.6731C42.1768 30.746 42.2489 30.8504 42.2819 30.9694C42.4816 31.7575 42.1742 32.5981 41.3651 33.4571C39.5656 35.3722 39.1926 36.2942 39.1164 36.6095C38.9083 36.9374 38.7731 37.3063 38.72 37.6912C38.667 38.076 38.6974 38.4677 38.8091 38.8398C38.7698 38.8439 38.7302 38.8439 38.6909 38.8398C38.6089 38.8374 38.5283 38.8177 38.4545 38.7819C38.3807 38.7461 38.3153 38.6951 38.2627 38.6322C38.1531 38.5133 38.0204 38.4179 37.8727 38.352C37.725 38.286 37.5654 38.2509 37.4036 38.2487C37.1752 38.2494 36.9528 38.322 36.7679 38.4562L35.0394 39.7224L34.9973 39.7408Z" fill="white"/>
<path d="M41.7434 30.9194C41.7906 30.9163 41.8375 30.9287 41.8769 30.9548C41.9163 30.9809 41.946 31.0192 41.9615 31.0639C42.1322 31.7364 41.8511 32.4667 41.1287 33.2338C39.4081 35.0727 38.9378 36.0447 38.8117 36.4755C38.4895 37.0166 38.3342 37.6407 38.3651 38.2697C38.0967 38.0499 37.7611 37.9284 37.4142 37.9256C37.1149 37.9219 36.8222 38.014 36.5788 38.1883L34.9291 39.4045C34.5849 39.3835 33.6839 39.176 32.7618 37.7364C32.727 37.6754 32.7163 37.6034 32.7318 37.5349C32.7474 37.4663 32.7881 37.4061 32.8459 37.366L41.5753 30.9799C41.6208 30.9458 41.6761 30.9273 41.7329 30.9273M41.7329 30.2443C41.5316 30.2445 41.3356 30.3089 41.1734 30.4282L32.4413 36.8144C32.2415 36.9561 32.1032 37.1686 32.0544 37.4086C32.0056 37.6487 32.05 37.8983 32.1786 38.1068C33.3371 39.9116 34.5429 40.0902 34.9895 40.0902C35.0446 40.0946 35.0999 40.0946 35.155 40.0902L36.9623 38.7767C37.088 38.6844 37.2399 38.6346 37.3958 38.6348C37.5098 38.632 37.6233 38.6521 37.7293 38.6941C37.8354 38.7361 37.9319 38.799 38.0131 38.8792C38.0975 38.9765 38.2015 39.0549 38.3183 39.1092C38.4351 39.1635 38.5621 39.1926 38.6909 39.1944C38.8892 39.1903 39.0822 39.1302 39.2478 39.021C39.0838 38.656 39.0151 38.2553 39.0482 37.8565C39.0813 37.4577 39.215 37.0738 39.4369 36.7408C39.4369 36.7408 39.5184 35.9238 41.6147 33.6961C42.6918 32.5508 42.7863 31.5788 42.613 30.8905C42.5611 30.7005 42.4475 30.5331 42.2901 30.4147C42.1327 30.2963 41.9404 30.2336 41.7434 30.2364L41.7329 30.2443Z" fill="#373B52"/>
</svg>
