<svg width="20" height="20" viewBox="0 0 20 20" fill="none" xmlns="http://www.w3.org/2000/svg">
<path d="M13.0005 10C13.0005 12.6251 12.1409 14.7017 11.2783 16.1256C10.847 16.8375 10.4165 17.3835 10.0965 17.749C10.0641 17.786 10.0328 17.8212 10.0028 17.8544C9.97183 17.8198 9.93952 17.7831 9.90598 17.7445C9.58543 17.3748 9.15446 16.8239 8.72276 16.1084C7.85905 14.677 7 12.6002 7 10C7 7.41019 7.85885 5.33337 8.723 3.89877C9.15487 3.1818 9.58603 2.62883 9.9068 2.25745C9.94221 2.21645 9.97625 2.17769 10.0088 2.14119C10.0381 2.17311 10.0687 2.20681 10.1004 2.2423C10.4194 2.5998 10.8489 3.1362 11.2794 3.84132C12.14 5.25075 13.0005 7.32681 13.0005 10ZM9.59118 1.72254C9.59107 1.72244 9.59117 1.72253 9.59149 1.7228L9.59118 1.72254Z" stroke="#3F465C" stroke-width="1.25"/>
<circle cx="10" cy="10" r="8.125" stroke="#3F465C" stroke-width="1.25"/>
<path d="M1.25 10H18.75" stroke="#3F465C" stroke-width="1.25"/>
</svg>
