<svg width="18" height="16" viewBox="0 0 18 16" fill="none" xmlns="http://www.w3.org/2000/svg">
<path d="M7.97607 6.38086C12.3811 6.38086 15.9521 4.95245 15.9521 3.19043C15.9521 1.4284 12.3811 0 7.97607 0C3.57101 0 0 1.4284 0 3.19043C0 4.95245 3.57101 6.38086 7.97607 6.38086Z" fill="#3F465C"/>
<path d="M8.02392 8.02393C3.62113 8.02393 0.0478516 6.59621 0.0478516 4.8335V8.02393C0.0478516 9.78664 3.62113 11.2144 8.02392 11.2144C12.4267 11.2144 16 9.78664 16 8.02393V4.8335C16 6.59621 12.4267 8.02393 8.02392 8.02393Z" fill="#3F465C"/>
<path d="M8.02392 12.8096C3.62113 12.8096 0.0478516 11.3818 0.0478516 9.61913V12.8096C0.0478516 14.5723 3.62113 16 8.02392 16C12.4267 16 16 14.5723 16 12.8096V9.61913C16 11.3818 12.4267 12.8096 8.02392 12.8096Z" fill="#3F465C"/>
<path d="M13 16C15.7614 16 18 13.7614 18 11C18 8.23858 15.7614 6 13 6C10.2386 6 8 8.23858 8 11C8 13.7614 10.2386 16 13 16Z" fill="white"/>
<path d="M15.5526 8.05035C15.5036 8.04335 15.4476 8.04335 15.3985 8.03634C14.25 7.88227 12.9894 8.21843 11.9389 9.03781L11.9109 9.0098C11.6588 8.75768 11.2596 8.75768 11.0075 9.0098C10.7554 9.26192 10.7554 9.66111 11.0075 9.91322L11.0355 9.94124C10.2161 10.9847 9.88694 12.2453 10.034 13.4009C10.034 13.4499 10.041 13.5059 10.048 13.5549C10.069 13.611 10.097 13.667 10.1391 13.709C10.2931 13.8631 10.5382 13.8631 10.6853 13.709C10.6993 13.695 10.7063 13.674 10.7203 13.66C10.7203 13.66 10.7554 13.604 10.7624 13.5829C10.7764 13.5479 10.7834 13.5059 10.7834 13.4709C11.0355 12.6935 11.5187 11.8811 12.191 11.1178L15.3075 14.2343C15.5596 14.4864 15.9588 14.4864 16.2109 14.2343C16.463 13.9821 16.463 13.5829 16.2109 13.3308L13.1015 10.2214C13.8788 9.54905 14.7122 9.06583 15.4896 8.81371L15.5176 8.7997C15.5806 8.7857 15.6436 8.75768 15.6927 8.70166C15.8467 8.54758 15.8467 8.30247 15.6927 8.1554C15.6506 8.11338 15.5946 8.08537 15.5386 8.06436L15.5526 8.05035Z" fill="#3F465C"/>
</svg>
