<svg width="20" height="20" viewBox="0 0 20 20" fill="none" xmlns="http://www.w3.org/2000/svg">
<path d="M10 18C14.4183 18 18 14.4183 18 10C18 5.58172 14.4183 2 10 2C5.58172 2 2 5.58172 2 10C2 14.4183 5.58172 18 10 18Z" fill="#0FD683"/>
<path fill-rule="evenodd" clip-rule="evenodd" d="M8.97329 12.6916C9.10439 12.6941 9.23628 12.6453 9.33633 12.5452L13.3668 8.51472C13.5621 8.31946 13.5621 8.00288 13.3668 7.80762L13.0133 7.45406C12.818 7.2588 12.5014 7.2588 12.3062 7.45406L8.9652 10.795L7.69386 9.52371C7.4986 9.32845 7.18202 9.32845 6.98676 9.52371L6.6332 9.87726C6.43794 10.0725 6.43794 10.3891 6.6332 10.5844L8.5946 12.5458C8.69863 12.6498 8.83709 12.6984 8.97329 12.6916Z" fill="white"/>
</svg>
