<svg width="16" height="16" viewBox="0 0 16 16" fill="none" xmlns="http://www.w3.org/2000/svg">
<path d="M5.26401 2C5.53066 2 5.77632 2.1446 5.90576 2.37772L6.80355 3.99496C6.92109 4.20671 6.92664 4.46282 6.8183 4.67946L5.95339 6.40931C5.95339 6.40931 6.20404 7.69794 7.25303 8.74693C8.30202 9.79592 9.58636 10.0422 9.58636 10.0422L11.3159 9.17748C11.5327 9.06907 11.789 9.07469 12.0008 9.19245L13.6226 10.0941C13.8555 10.2236 14 10.4692 14 10.7356V12.5975C14 13.5457 13.1192 14.2305 12.2208 13.9274C10.3757 13.3048 7.51146 12.1193 5.69606 10.3039C3.88063 8.4885 2.6952 5.62429 2.07259 3.77913C1.76946 2.88072 2.45428 2 3.40245 2H5.26401Z" stroke="#333333" stroke-width="1.0988" stroke-linejoin="round"/>
</svg>
