<svg width="16" height="16" viewBox="0 0 16 16" fill="none" xmlns="http://www.w3.org/2000/svg">
<path d="M4.47822 4.21128C3.49234 5.01552 2.81141 6.13298 2.54866 7.37786C2.2859 8.62275 2.45715 9.92006 3.03392 11.0541C3.61069 12.1882 4.55825 13.0907 5.71905 13.6116C6.87985 14.1325 8.18396 14.2404 9.41458 13.9173C10.6452 13.5943 11.7282 12.8598 12.4835 11.8359C13.2388 10.812 13.6209 9.56048 13.5663 8.28934C13.5117 7.0182 13.0236 5.80404 12.1833 4.84872C11.343 3.89339 10.201 3.25446 8.94723 3.03815" stroke="#4C6AFF" stroke-width="1.2" stroke-linecap="round" stroke-linejoin="round"/>
<path d="M7.05695 2.81506C6.96785 2.88931 6.96785 3.02615 7.05695 3.1004L8.80971 4.56103C8.93067 4.66183 9.11431 4.57582 9.11431 4.41836L9.11431 1.49709C9.11431 1.33964 8.93067 1.25362 8.80971 1.35442L7.05695 2.81506Z" fill="#4C6AFF"/>
</svg>
