<svg width="20" height="20" viewBox="0 0 20 20" fill="none" xmlns="http://www.w3.org/2000/svg">
<path d="M10 18C14.4183 18 18 14.4183 18 10C18 5.58172 14.4183 2 10 2C5.58172 2 2 5.58172 2 10C2 14.4183 5.58172 18 10 18Z" fill="#4C6AFF"/>
<path fill-rule="evenodd" clip-rule="evenodd" d="M10.8504 6.20044C10.8504 5.9243 10.6265 5.70044 10.3504 5.70044H9.65039C9.37425 5.70044 9.15039 5.9243 9.15039 6.20044V6.90044C9.15039 7.17658 9.37425 7.40044 9.65039 7.40044H10.3504C10.6265 7.40044 10.8504 7.17658 10.8504 6.90044V6.20044ZM10.8504 9.05005C10.8504 8.77391 10.6265 8.55005 10.3504 8.55005H9.65039C9.37425 8.55005 9.15039 8.77391 9.15039 9.05005V13.75C9.15039 14.0262 9.37425 14.25 9.65039 14.25H10.3504C10.6265 14.25 10.8504 14.0262 10.8504 13.75L10.8504 9.05005Z" fill="white"/>
</svg>
