<svg width="20" height="20" viewBox="0 0 20 20" fill="none" xmlns="http://www.w3.org/2000/svg">
<path fill-rule="evenodd" clip-rule="evenodd" d="M10 2.5C5.85786 2.5 2.5 5.85786 2.5 10C2.5 14.1421 5.85786 17.5 10 17.5C14.1421 17.5 17.5 14.1421 17.5 10C17.5 5.85786 14.1421 2.5 10 2.5ZM1.25 10C1.25 5.16751 5.16751 1.25 10 1.25C14.8325 1.25 18.75 5.16751 18.75 10C18.75 14.8325 14.8325 18.75 10 18.75C5.16751 18.75 1.25 14.8325 1.25 10Z" fill="#4C6AFF"/>
<path fill-rule="evenodd" clip-rule="evenodd" d="M9.0198 6.25C9.13312 6.25 9.23364 6.323 9.26911 6.43106L11.4761 13.1539C11.532 13.3244 11.4056 13.5 11.2268 13.5H10.1437C10.0284 13.5 9.92657 13.4245 9.89273 13.3138L9.45972 11.8977H7.02795L6.58488 13.3154C6.55054 13.4252 6.44912 13.5 6.33443 13.5H5.36231C5.18335 13.5 5.05685 13.3241 5.11312 13.1536L7.3309 6.43069C7.36648 6.32283 7.46691 6.25 7.58009 6.25H9.0198ZM7.33942 10.6427H9.15509L9.12551 10.5172L8.28884 7.73179H8.21551L7.36967 10.5172L7.33942 10.6427Z" fill="#4C6AFF"/>
<rect x="12.5" y="6.25" width="1.5" height="7.25" rx="0.25" fill="#4C6AFF"/>
</svg>
