<svg width="190" height="190" viewBox="0 0 190 190" fill="none" xmlns="http://www.w3.org/2000/svg">
<g clip-path="url(#clip0_19895_113314)">
<path d="M86.4015 71.6339C92.2259 80.2845 102.307 83.8561 105.197 92.8065C108.088 101.757 102.825 109.074 106.152 116.922C108.371 122.154 115.257 128.952 126.812 137.315C97.5468 137.345 75.598 137.367 60.9655 137.382C60.5421 137.382 57.0157 136.428 55.181 133.513C52.7151 129.596 52.0947 127.302 51.3502 124.134C48.4095 111.618 49.9688 104.308 48.5477 99.9666C44.5326 87.7022 32.3972 84.3382 27.1269 75.0647C22.5982 67.0963 19.4631 56.7771 15.9855 39.1387H76.6043C77.7961 47.1067 78.876 51.0958 81.2672 56.0742" stroke="black" stroke-width="0.6"/>
<path d="M90.2335 137.34C90.2642 137.053 90.2799 136.762 90.2799 136.467C90.2799 131.972 86.6361 128.328 82.1412 128.328C77.6463 128.328 74.0025 131.972 74.0025 136.467C74.0025 140.238 76.5672 143.41 80.0475 144.334" stroke="black" stroke-width="0.6"/>
<path fill-rule="evenodd" clip-rule="evenodd" d="M90.2367 137.31C90.2653 137.033 90.2799 136.752 90.2799 136.467C90.2799 131.972 86.6361 128.328 82.1412 128.328C77.6463 128.328 74.0025 131.972 74.0025 136.467C74.0025 136.788 74.0212 137.106 74.0575 137.418C75.4377 137.418 88.3314 137.385 90.2367 137.31Z" fill="#2B6BEF" stroke="black" stroke-width="0.6"/>
<path fill-rule="evenodd" clip-rule="evenodd" d="M76.5895 144.234L80.2832 144.343L77.9635 141.664L76.5895 144.234Z" fill="black" stroke="black" stroke-width="0.6"/>
<path fill-rule="evenodd" clip-rule="evenodd" d="M27.9535 51.334C28.742 51.334 29.5184 51.6395 30.1472 52.1499C30.7697 52.6552 31.2482 53.362 31.4505 54.1775C31.6491 54.9782 31.5499 55.6751 31.1997 56.1701C30.8539 56.6588 30.2664 56.9416 29.5103 56.9416C28.7212 56.9416 27.9064 56.6174 27.2359 56.0986C26.5707 55.5839 26.0457 54.8764 25.8322 54.0944C25.6264 53.3406 25.7655 52.655 26.1491 52.1556C26.5408 51.6457 27.1832 51.334 27.9535 51.334Z" fill="black" stroke="black" stroke-width="0.6"/>
<path fill-rule="evenodd" clip-rule="evenodd" d="M39.8185 72.332C40.607 72.332 41.3834 72.6375 42.0122 73.148C42.6346 73.6532 43.1132 74.36 43.3155 75.1756C43.5141 75.9762 43.4149 76.6731 43.0647 77.1681C42.7189 77.6568 42.1314 77.9397 41.3753 77.9397C40.5862 77.9397 39.7714 77.6154 39.1008 77.0966C38.4356 76.582 37.9107 75.8745 37.6972 75.0924C37.4914 74.3387 37.6305 73.653 38.0141 73.1536C38.4058 72.6438 39.0482 72.332 39.8185 72.332Z" fill="black" stroke="black" stroke-width="0.6"/>
<path fill-rule="evenodd" clip-rule="evenodd" d="M61.8267 51.334C62.1995 52.942 62.5151 54.1146 62.7727 54.8519C63.0113 55.535 63.3349 56.2316 63.7437 56.9416H37.0207L36.5439 54.7962L35.7745 51.334H61.8267Z" fill="black" stroke="black" stroke-width="0.6"/>
<path fill-rule="evenodd" clip-rule="evenodd" d="M74.3868 72.332C75.3205 73.9595 76.1904 75.1531 76.9939 75.9152C77.703 76.5879 78.5069 77.2627 79.4056 77.9397H53.4721C51.9669 77.173 51.002 76.4358 50.5937 75.7143C50.1926 75.0054 49.4636 73.8779 48.4066 72.332H74.3868Z" fill="black" stroke="black" stroke-width="0.6"/>
<path fill-rule="evenodd" clip-rule="evenodd" d="M16.4848 41.6222H76.0895L74.6899 37.1201C74.6038 36.8432 74.3469 36.6549 74.0569 36.6563L16.2215 36.9206C15.8571 36.9222 15.5631 37.2189 15.5648 37.5833C15.565 37.6325 15.5707 37.6814 15.5818 37.7293L16.4848 41.6222Z" fill="black" stroke="black" stroke-width="0.6"/>
<path fill-rule="evenodd" clip-rule="evenodd" d="M86.3675 16.1816C87.0507 16.1816 87.6692 16.4585 88.1169 16.9062C88.5646 17.3539 88.8415 17.9724 88.8415 18.6556V36.3442C88.8415 36.6972 88.6984 37.0168 88.467 37.2482C88.2357 37.4795 87.9161 37.6226 87.5631 37.6226H86.7794C86.5517 37.6226 86.3455 37.7149 86.1963 37.8641C86.0471 38.0134 85.9548 38.2195 85.9548 38.4473V40.2145C85.9548 40.3511 85.8994 40.4748 85.8099 40.5643C85.7203 40.6539 85.5966 40.7092 85.46 40.7092L81.4481 38.1027C80.9847 37.7898 80.4383 37.6226 79.8791 37.6226H44.805C44.1218 37.6226 43.5034 37.3457 43.0557 36.898C42.608 36.4503 42.3311 35.8318 42.3311 35.1487V18.6556C42.3311 17.9724 42.608 17.3539 43.0557 16.9062C43.5034 16.4585 44.1218 16.1816 44.805 16.1816H86.3675Z" fill="white" stroke="black" stroke-width="0.6"/>
<path d="M76.5601 20.7195L50.6353 14.6914L49.2159 20.7959L75.1407 26.824L76.5601 20.7195Z" fill="#2B6BEF" stroke="black" stroke-width="0.6"/>
<path d="M52.062 29.5391H71.5518" stroke="black" stroke-width="0.6"/>
<path d="M52.062 32.2539H71.5518" stroke="black" stroke-width="0.6"/>
<path fill-rule="evenodd" clip-rule="evenodd" d="M104.186 143.248L96.7152 144.918L94.8404 151.261L88.1516 135.609L104.186 143.248Z" fill="white" stroke="black" stroke-width="0.6" stroke-linejoin="round"/>
<path d="M95.5799 143.416L88.1792 135.596" stroke="black" stroke-width="0.6"/>
<path fill-rule="evenodd" clip-rule="evenodd" d="M105.578 47.1847C109.363 47.8522 112.387 50.435 114.857 53.8477C118.532 58.9223 120.984 65.8349 122.864 71.1275C123.474 72.8447 124.023 74.3922 124.534 75.6528C126.082 79.4709 131.126 82.1954 136.305 84.9702C136.572 85.1132 136.839 85.2564 137.106 85.3999L137.781 85.7637C138.148 85.9625 138.514 86.162 138.878 86.3628L139.422 86.6651C144.031 89.2432 148.173 92.0655 149.202 96.0553C150.224 100.022 149.918 102.834 148.806 104.999C147.301 107.926 144.336 109.667 141.249 111.493C140.966 111.66 140.682 111.828 140.398 111.997L139.973 112.253C135.93 114.694 131.977 117.553 130.928 123.502C130.091 128.25 127.536 133.319 123.666 136.52C120.5 139.14 116.451 140.505 111.743 139.406C104.944 137.819 102.468 133.631 100.345 128.902L100.149 128.464C100.052 128.245 99.9554 128.024 99.8588 127.802L99.6656 127.358L99.5689 127.136C99.4985 126.973 99.428 126.811 99.3571 126.648L99.1212 126.108C97.7292 122.939 96.1652 119.706 93.3699 116.956C91.1112 114.734 87.9339 113.084 84.4592 111.282C75.5463 106.662 64.6648 101.028 62.5638 81.8763C61.2367 69.7799 65.8096 60.751 73.1188 54.8517C81.843 47.8105 94.4555 45.2236 105.578 47.1847Z" fill="#2B6BEF" stroke="black" stroke-width="0.6"/>
<path fill-rule="evenodd" clip-rule="evenodd" d="M74.3868 72.332C75.3205 73.9595 76.1905 75.1531 76.9939 75.9152C77.703 76.5879 78.5069 77.2627 79.4057 77.9397H62.3426C62.3696 76.6988 62.4049 75.7681 62.4488 75.1475C62.493 74.5233 62.6075 73.5848 62.792 72.332H74.3868Z" fill="white" stroke="black" stroke-width="0.6"/>
<path fill-rule="evenodd" clip-rule="evenodd" d="M94.5902 44.0918C90.7242 45.4379 88.2452 46.9469 87.1531 48.6187C86.061 50.2905 86.5519 51.2277 88.6258 51.4302C89.4052 52.9286 89.8628 54.0674 89.9986 54.8467C90.1343 55.626 90.0569 56.6705 89.7666 57.9802C90.0634 59.2115 90.4459 59.9361 90.9139 60.154C91.382 60.372 92.3835 60.292 93.9186 59.9138L93.6914 52.3234L97.8513 50.5051L95.1643 48.4009L94.5902 44.0918Z" fill="white"/>
<path fill-rule="evenodd" clip-rule="evenodd" d="M89.7568 57.9807C77.9089 53.5734 79.0999 32.2811 77.6809 29.0053C76.5179 28.8002 75.2783 29.1642 73.9624 30.0972C74.3004 39.7611 74.9238 46.2813 75.8326 49.658C76.7415 53.0346 79.4457 57.6515 83.9453 63.5087" fill="white"/>
<path d="M89.7568 57.9807C77.9089 53.5734 79.0999 32.2811 77.6809 29.0053C76.5179 28.8002 75.2783 29.1642 73.9624 30.0972C74.3004 39.7611 74.9238 46.2813 75.8326 49.658C76.7415 53.0346 79.4457 57.6515 83.9453 63.5087" stroke="black" stroke-width="0.6"/>
<path fill-rule="evenodd" clip-rule="evenodd" d="M97.9426 93.4164C102.686 118.96 105.057 131.732 105.057 131.732C105.057 131.732 105.165 135.578 108.971 139.363C111.508 141.887 119.804 151.193 133.857 167.281L137.742 161.758C127.701 144.607 121.126 134.63 118.017 131.827C114.908 129.024 113.475 112.614 113.721 82.599L97.7427 91.6197L97.9426 93.4164Z" fill="white" stroke="black" stroke-width="0.6"/>
<path fill-rule="evenodd" clip-rule="evenodd" d="M83.0114 88.2808L76.1154 100.33L162.039 150.642L181.823 154.13L169.058 137.974L83.0114 88.2808Z" fill="black" stroke="#202020" stroke-width="0.6"/>
<path fill-rule="evenodd" clip-rule="evenodd" d="M90.3562 92.3461L83.5143 104.728L76.1154 100.33L83.0114 88.2808L90.3562 92.3461Z" fill="white" stroke="#202020" stroke-width="0.6"/>
<path fill-rule="evenodd" clip-rule="evenodd" d="M177.495 148.97L175.575 153.029L181.823 154.131L177.495 148.97Z" fill="white" stroke="#202020" stroke-width="0.6"/>
<path fill-rule="evenodd" clip-rule="evenodd" d="M115.822 84.2432C116.053 84.284 116.555 84.0761 117.334 84.078C118.848 84.0817 120.933 84.4939 120.794 86.3743C120.755 86.9014 120.86 87.6828 120.758 88.23C120.582 89.1794 120.048 90.5903 119.156 92.4626C118.507 89.9727 117.991 88.2781 117.61 87.3787C116.857 85.6038 115.564 84.1979 115.822 84.2432Z" fill="black"/>
<path fill-rule="evenodd" clip-rule="evenodd" d="M81.2725 59.4733C82.6639 61.4577 83.6863 62.7737 84.3397 63.4215C85.4801 64.5521 86.6134 65.0914 87.557 65.4955C89.3115 66.2467 90.0177 63.8953 89.6755 58.441L81.2725 59.4733Z" fill="white"/>
<path fill-rule="evenodd" clip-rule="evenodd" d="M103.293 95.5823C111.295 123.411 117.665 137.595 122.403 138.135C127.14 138.675 139.586 136.734 159.741 132.311L159.519 126.938C138.225 129.088 126.612 128.517 124.679 125.224C121.78 120.283 121.316 90.8033 115.921 84.4874C112.324 80.2767 107.832 83.6061 102.445 94.4754L103.293 95.5823Z" fill="white" stroke="black" stroke-width="0.6"/>
<path fill-rule="evenodd" clip-rule="evenodd" d="M119.394 83.5723C103.228 78.1793 100.223 66.6746 99.6282 63.7843C99.2319 61.8575 97.9442 60.2304 95.7651 58.9032C94.9182 59.5645 93.783 59.8895 92.3594 59.8783C90.9359 59.8671 90.0761 59.1903 89.7799 57.8479C88.6421 59.5896 87.9153 60.9113 87.5994 61.8132C81.3068 79.7799 85.63 91.3789 93.4942 98.572C95.7755 100.659 99.5278 100.923 101.586 99.3499C106.269 95.7692 109.118 85.3431 115.302 84.2465C121.236 83.1943 122.521 85.9323 119.156 92.4607C119.82 91.1596 120.265 90.1152 120.491 89.3275C121.333 86.3902 120.983 84.1024 119.394 83.5723Z" fill="white" stroke="black" stroke-width="0.6" stroke-linejoin="round"/>
<path fill-rule="evenodd" clip-rule="evenodd" d="M92.0024 73.23C76.4247 76.1856 66.1864 65.5218 61.2875 41.2385C63.3467 40.5273 65.1147 40.481 66.5917 41.0995C67.0357 43.4102 68.2827 58.6083 78.6773 62.4279C81.0736 63.3085 85.1133 63.6146 88.7696 62.5391C91.212 61.8206 93.0427 59.9837 95.7233 59.1409" fill="white"/>
<path d="M92.0024 73.23C76.4247 76.1856 66.1864 65.5218 61.2875 41.2385C63.3467 40.5273 65.1147 40.481 66.5917 41.0995C67.0357 43.4102 68.2827 58.6083 78.6773 62.4279C81.0736 63.3085 85.1133 63.6146 88.7696 62.5391C91.212 61.8206 93.0427 59.9837 95.7233 59.1409" stroke="black" stroke-width="0.6"/>
<path d="M134.606 166.47C134.606 166.47 136.53 168.632 136.234 170.312C136.037 171.431 135.491 173.408 134.596 176.24C134.644 178.376 135.093 179.726 135.945 180.29C137.144 177.96 139.207 173.653 142.133 167.367L136.746 163.3" stroke="black" stroke-width="0.6"/>
<path fill-rule="evenodd" clip-rule="evenodd" d="M159.856 131.663C161.746 131.069 163.473 130.91 165.037 131.186C167.384 131.6 169.988 134.745 171.941 134.441C173.243 134.239 173.919 133.834 173.968 133.225L164.867 126.108L159.73 127.939" fill="black"/>
<path d="M159.856 131.663C161.746 131.069 163.473 130.91 165.037 131.186C167.384 131.6 169.988 134.745 171.941 134.441C173.243 134.239 173.919 133.834 173.968 133.225L164.867 126.108L159.73 127.939" stroke="black" stroke-width="0.6"/>
<path d="M95.2074 43.7277C94.6112 43.6225 83.3344 48.9002 87.4083 50.9826C88.4526 51.5164 89.3239 51.9149 90.0222 52.1782" stroke="black" stroke-width="0.6"/>
<path d="M87.9594 51.3145C89.8159 52.7185 90.415 54.9404 89.7568 57.9802" stroke="black" stroke-width="0.6"/>
<path fill-rule="evenodd" clip-rule="evenodd" d="M94.7842 44.5021C94.2529 44.4085 93.8135 44.4133 93.466 44.5167C92.144 44.91 92.0053 45.2826 92.0747 44.8889C92.2086 44.1297 97.8431 40.8374 102.807 46.7813C107.771 52.7252 109.582 57.7965 121.704 59.9339C133.825 62.0713 139.934 68.0262 137.458 70.0126C134.981 71.9989 121.858 68.1638 122.362 70.4865C122.866 72.8092 118.171 75.6818 109.111 70.1737C100.052 64.6656 117.266 87.1098 104.278 74.2197C95.6189 65.6263 92.0901 58.3278 93.6914 52.324C95.4896 51.848 96.4424 51.3052 96.5499 50.6954C96.6574 50.0856 95.8675 49.7049 94.18 49.5531C94.1915 48.4053 94.339 47.5687 94.6226 47.0432C94.9062 46.5177 94.96 45.6707 94.7842 44.5021Z" fill="black" stroke="black" stroke-width="0.6"/>
<path fill-rule="evenodd" clip-rule="evenodd" d="M108.244 138.587C108.821 139.16 116.342 141.325 132.435 135.641C148.529 129.956 140.405 143.23 144.899 145.622C149.392 148.015 159.898 143.41 160.585 145.96C161.272 148.509 153.441 149.345 155.753 149.753C158.064 150.16 157.697 152.243 154.377 152.086C151.056 151.928 150.437 157.941 144.129 153.09C137.82 148.239 137.743 154.034 133.233 155.622C130.227 156.681 126.907 156.574 123.272 155.302C112.869 143.777 107.86 138.205 108.244 138.587Z" fill="#2B6BEF" stroke="black" stroke-width="0.6"/>
<path d="M164.19 149.945C165.177 150.119 166.118 149.46 166.292 148.473C166.466 147.487 165.807 146.546 164.82 146.372C163.833 146.198 162.892 146.857 162.718 147.843C162.545 148.83 163.203 149.771 164.19 149.945Z" fill="#2B6BEF" stroke="black" stroke-width="0.6"/>
<path fill-rule="evenodd" clip-rule="evenodd" d="M61.8069 37.6804C61.8674 38.3266 61.9335 39.428 62.0052 40.9845C62.9374 40.7041 63.9761 40.6118 65.1213 40.7074C65.2383 40.1665 65.3219 39.6921 65.3723 39.2843C65.6515 37.0225 65.5317 34.9873 65.551 34.4855C65.5879 33.5292 64.7625 32.8566 64.4339 34.7199C64.2149 35.9621 63.8362 36.9489 63.2979 37.6804L61.8069 37.6804Z" fill="white" stroke="black" stroke-width="0.6"/>
<path fill-rule="evenodd" clip-rule="evenodd" d="M75.2287 26.6135C74.9057 26.7 74.6124 26.6232 74.349 26.383C73.744 25.5108 73.2252 24.8207 72.7924 24.3126C72.3596 23.8046 72.1097 23.7408 72.0426 24.1214C72.0297 24.4363 72.3157 25.084 72.9008 26.0643C73.7784 27.5348 73.4502 27.8968 73.9929 28.7657C74.3547 29.3449 74.5356 29.6346 74.5356 29.6346C74.8696 29.4702 75.1863 29.3326 75.4857 29.2216C75.7851 29.1106 76.2404 29.0155 76.8518 28.9361L76.9556 26.7793C76.9984 26.7037 76.7591 26.2776 76.2378 25.5011C76.0188 25.175 75.8186 24.8915 75.6372 24.6505C75.4047 25.7335 75.2685 26.3878 75.2287 26.6135Z" fill="white" stroke="black" stroke-width="0.6" stroke-linejoin="round"/>
<path d="M138.63 108.139L158.123 119.408" stroke="black" stroke-width="0.6"/>
<path d="M149.81 112.016L159.117 117.573" stroke="black" stroke-width="0.6"/>
<path d="M107.275 30.127C104.433 28.0374 102.648 27.053 101.919 27.1737C101.19 27.2944 101.177 27.857 101.879 28.8615C97.3371 24.3086 93.0469 23.0114 89.0079 24.9697" stroke="black" stroke-width="0.6" stroke-linejoin="round"/>
<path d="M121.985 32.8051C121.985 36.3488 118.455 39.2215 114.1 39.2215L111.508 40.9833V38.8667C108.427 37.9942 106.215 35.6098 106.215 32.8051C106.215 29.2614 109.746 26.3887 114.1 26.3887C118.455 26.3887 121.985 29.2614 121.985 32.8051Z" fill="#2B6BEF" stroke="black" stroke-width="0.6"/>
<g clip-path="url(#clip1_19895_113314)">
<path d="M118.129 30.4843C118.161 30.5129 118.161 30.5623 118.129 30.591L116.387 32.1774C116.341 32.2196 116.267 32.1867 116.267 32.124V30.9525H112.704C111.668 30.9525 110.828 31.7925 110.828 32.8286C110.828 33.8647 111.668 34.7047 112.704 34.7047H116.456V35.4262H112.704C111.269 35.4262 110.106 34.2632 110.106 32.8286C110.106 31.3939 111.269 30.2309 112.704 30.2309H116.267V28.9512C116.267 28.8885 116.341 28.8557 116.387 28.8979L118.129 30.4843Z" fill="white"/>
</g>
</g>
<defs>
<clipPath id="clip0_19895_113314">
<rect width="190" height="190" fill="white"/>
</clipPath>
<clipPath id="clip1_19895_113314">
<rect width="9.23611" height="9.23611" fill="white" transform="matrix(-1 0 0 1 118.765 27.6328)"/>
</clipPath>
</defs>
</svg>
