<svg width="190" height="190" viewBox="0 0 190 190" fill="none" xmlns="http://www.w3.org/2000/svg">
    <rect width="190" height="190" fill="white" />
    <rect x="92.9299" y="158.771" width="44.2611" height="21.1708" stroke="black" strokeWidth="0.6" />
    <path
      d="M112.062 155.833C112.062 153.448 113.995 151.515 116.38 151.515H155.963C158.348 151.515 160.281 153.448 160.281 155.833V177.053C160.281 178.505 159.104 179.682 157.652 179.682C156.785 179.682 155.954 180.031 155.347 180.651L153.135 182.907C153.006 183.038 152.798 183.051 152.654 182.937L149.901 180.75C149.031 180.059 147.953 179.682 146.842 179.682H116.38C113.995 179.682 112.062 177.749 112.062 175.364V155.833Z"
      fill="white"
      stroke="black"
      strokeWidth="0.6"
    />
    <path
      fillRule="evenodd"
      clipRule="evenodd"
      d="M41.6346 156.777C37.4971 163.365 37.266 170.65 40.9414 178.634C41.1588 179.106 41.6346 180.058 41.6346 180.058H148.522C148.522 180.058 143.8 175.564 142.055 173.588C136.93 167.784 133.232 164.184 128.707 163.484C119.607 162.077 105.173 178.69 97.0963 165.942C89.0201 153.194 76.2072 130.025 58.9209 152.534C41.6346 175.044 48.208 146.311 41.6346 156.777Z"
      fill="#2B6BEF"
      stroke="black"
      strokeWidth="0.6"
      strokeLinejoin="round"
    />
    <mask id="mask0_19895_113830" style="mask-type:alpha" maskUnits="userSpaceOnUse" x="122" y="88" width="11" height="11">
      <circle cx="127.054" cy="93.8731" r="5.02547" fill="#D8D8D8" />
    </mask>
    <g mask="url(#mask0_19895_113830)">
      <path
        d="M131.779 95.7007C131.779 96.4458 131.304 97.1633 130.446 97.7094C129.592 98.2532 128.393 98.5994 127.054 98.5994C125.714 98.5994 124.515 98.2532 123.661 97.7094C122.803 97.1633 122.328 96.4458 122.328 95.7007C122.328 94.9555 122.803 94.238 123.661 93.6919C124.515 93.1481 125.714 92.802 127.054 92.802C128.393 92.802 129.592 93.1481 130.446 93.6919C131.304 94.238 131.779 94.9555 131.779 95.7007Z"
        fill="#2B6BEF"
        stroke="black"
        strokeWidth="0.6"
      />
    </g>
    <circle cx="127.054" cy="93.8731" r="4.72547" stroke="black" strokeWidth="0.6" />
    <mask id="mask1_19895_113830" style="mask-type:alpha" maskUnits="userSpaceOnUse" x="45" y="27" width="11" height="11">
      <circle r="5.02547" transform="matrix(1 0 0 -1 50.0255 32.0253)" fill="#D8D8D8" />
    </mask>
    <g mask="url(#mask1_19895_113830)">
      <path
        d="M54.7509 30.1978C54.7509 29.4526 54.2758 28.7351 53.4179 28.189C52.5636 27.6452 51.365 27.2991 50.0255 27.2991C48.686 27.2991 47.4874 27.6452 46.633 28.189C45.7751 28.7351 45.3 29.4526 45.3 30.1978C45.3 30.943 45.7751 31.6605 46.633 32.2065C47.4874 32.7503 48.686 33.0965 50.0255 33.0965C51.365 33.0965 52.5636 32.7503 53.4179 32.2065C54.2758 31.6605 54.7509 30.943 54.7509 30.1978Z"
        fill="#2B6BEF"
        stroke="black"
        strokeWidth="0.6"
      />
    </g>
    <circle r="4.72547" transform="matrix(1 0 0 -1 50.0255 32.0253)" stroke="black" strokeWidth="0.6" />
    <path
      fillRule="evenodd"
      clipRule="evenodd"
      d="M153.471 132.022C153.471 132.022 150.521 127.88 143.193 126.807C138.877 126.175 136.377 126.807 132.012 126.807C130.683 114.72 130.235 111.2 130.235 111.2L135.973 111.089C144.41 110.925 151.609 117.156 152.658 125.529L153.471 132.022Z"
      fill="black"
      stroke="black"
      strokeWidth="0.6"
    />
    <path
      fillRule="evenodd"
      clipRule="evenodd"
      d="M151.093 129.62C151.093 129.62 153.147 131.211 153.471 132.188C154.324 134.761 152.831 135.97 147.487 138.991C146.959 134.761 145.926 126.807 145.926 126.807C145.926 126.807 147.059 127.108 148.55 127.924C150.041 128.739 151.093 129.62 151.093 129.62Z"
      stroke="black"
      strokeWidth="0.6"
      strokeLinejoin="round"
    />
    <path
      fillRule="evenodd"
      clipRule="evenodd"
      d="M154.808 134.14C154.5 129.73 153.484 123.383 153.484 123.383C153.484 123.383 155.255 123.699 156.193 123.924C157.131 124.149 168.024 130.253 154.808 134.14Z"
      fill="black"
      stroke="black"
      strokeWidth="0.6"
    />
    <path
      fillRule="evenodd"
      clipRule="evenodd"
      d="M161.202 128.391C161.202 128.391 160.331 126.536 159.629 125.926C158.041 124.549 155.772 123.999 153.471 123.557C149.766 122.845 144.218 122.527 138.086 122.527C137.323 110.298 136.377 105.16 136.377 105.16L145.13 105.789C153.082 106.36 159.488 112.539 160.345 120.466L161.202 128.391Z"
      fill="#2B6BEF"
      stroke="black"
      strokeWidth="0.6"
    />
    <path
      fillRule="evenodd"
      clipRule="evenodd"
      d="M40.9063 102.459C40.9063 102.459 43.6192 106.309 48.0718 104.642C47.5809 103.364 47.1961 102.262 46.9454 100.679C44.1933 101.412 41.4521 101.313 40.499 96.9095C40.4241 99.4152 40.9063 102.459 40.9063 102.459Z"
      fill="black"
      stroke="black"
      strokeWidth="0.6"
      strokeLinejoin="round"
    />
    <path
      fillRule="evenodd"
      clipRule="evenodd"
      d="M49.861 75.7219L51.8145 84.912C51.8145 84.912 36.6402 90.76 41.7691 103.47C40.0076 101.522 39.1227 98.6649 38.719 95.7597C37.724 88.5994 42.0167 82.0703 47.6361 77.5225L49.861 75.7219Z"
      fill="#2B6BEF"
      stroke="black"
      strokeWidth="0.6"
    />
    <path
      fillRule="evenodd"
      clipRule="evenodd"
      d="M67.2643 71.0742C63.3135 70.1032 63.8227 67.1451 64.7765 65.2834C65.7302 63.4218 69.9957 60.3263 67.8569 57.8757C65.718 55.425 67.3577 52.1077 69.3837 51.5742C71.4097 51.0408 71.6666 49.59 71.6258 49.0065C71.585 48.4231 71.286 47.2147 72.6056 45.913C73.9252 44.6112 76.4588 43.2214 76.4588 43.2214C76.4588 43.2214 80.9514 40.3613 85.4206 43.1665C89.8897 45.9718 88.4913 49.0592 89.0294 50.5923C89.5676 52.1253 89.46 54.4603 88.3879 55.9939C87.3157 57.5275 87.4775 58.4508 85.7845 58.5692C84.0914 58.6876 85.6658 62.1619 89.34 62.957C93.0142 63.7521 71.2151 72.0451 67.2643 71.0742Z"
      fill="black"
      stroke="black"
      strokeWidth="0.6"
    />
    <path
      fillRule="evenodd"
      clipRule="evenodd"
      d="M85.3799 44.2341C85.3927 44.4166 86.8696 45.7819 87.0388 48.2011C87.208 50.6203 88.0339 51.7602 88.0339 51.7602C88.0339 51.7602 87.7864 52.3101 87.3124 52.1136C87.0097 51.7903 87.346 56.6617 84.7323 55.8433C82.1186 55.0248 84.3214 61.9008 84.3214 61.9008C84.3214 61.9008 78.7307 62.1317 77.496 59.7852C79.1606 58.3687 79.5686 55.0408 79.3786 52.324C78.1451 51.646 77.7851 50.7619 77.9186 50.2014C78.2415 48.8455 79.9181 50.17 79.9181 50.17C79.9181 50.17 81.2097 50.6497 82.7644 48.5444C83.6528 47.3413 85.3755 44.1709 85.3799 44.2341Z"
      fill="white"
      stroke="black"
      strokeWidth="0.6"
    />
    <path
      d="M73.729 80.9782C73.6096 81.2341 73.3654 81.4448 72.977 81.5891C72.5869 81.734 72.0715 81.8032 71.4573 81.7839C70.2302 81.7453 68.6688 81.3553 67.0729 80.6112C65.4771 79.867 64.1747 78.9216 63.3564 78.0063C62.9468 77.5483 62.6685 77.109 62.5287 76.717C62.3896 76.3267 62.394 76.0042 62.5134 75.7482C62.6327 75.4922 62.8769 75.2816 63.2654 75.1373C63.6555 74.9924 64.1709 74.9232 64.785 74.9425C66.0122 74.9811 67.5736 75.3711 69.1694 76.1152C70.7653 76.8594 72.0676 77.8048 72.886 78.7201C73.2956 79.1781 73.5739 79.6174 73.7136 80.0094C73.8528 80.3997 73.8484 80.7222 73.729 80.9782Z"
      fill="black"
      stroke="black"
      strokeWidth="0.6"
    />
    <path
      d="M96.9437 68.4995C96.9437 69.8435 96.8408 71.0524 96.6775 71.9183C96.5953 72.3537 96.5007 72.6872 96.4037 72.9047C96.3712 72.9775 96.3417 73.03 96.3169 73.0664C96.2922 73.03 96.2626 72.9775 96.2302 72.9047C96.1332 72.6872 96.0385 72.3537 95.9564 71.9183C95.7931 71.0524 95.6901 69.8435 95.6901 68.4995C95.6901 67.1555 95.7931 65.9466 95.9564 65.0807C96.0385 64.6453 96.1332 64.3118 96.2302 64.0943C96.2626 64.0215 96.2922 63.969 96.3169 63.9326C96.3417 63.969 96.3712 64.0215 96.4037 64.0943C96.5007 64.3118 96.5953 64.6453 96.6775 65.0807C96.8408 65.9466 96.9437 67.1555 96.9437 68.4995ZM96.2671 73.1251C96.2671 73.125 96.2674 73.1248 96.2682 73.1243L96.2671 73.1251ZM96.3657 73.1243C96.3664 73.1248 96.3668 73.125 96.3668 73.1251L96.3657 73.1243ZM96.3668 63.8739C96.3668 63.874 96.3664 63.8742 96.3657 63.8746L96.3668 63.8739ZM96.2681 63.8746C96.2674 63.8742 96.2671 63.874 96.2671 63.8739L96.2681 63.8746Z"
      fill="black"
      stroke="black"
      strokeWidth="0.6"
    />
    <path
      fillRule="evenodd"
      clipRule="evenodd"
      d="M70.7553 64.9007C70.7553 64.9007 61.2655 79.7121 57.1302 83.0417C52.995 86.3713 44.704 93.7868 41.3676 95.012C38.0312 96.2371 34.7416 98.2215 33.6913 98.0925C32.641 97.9636 33.6464 99.6166 37.3724 98.4109C41.0983 97.2052 42.2659 97.1228 42.7658 98.004C43.2657 98.8853 40.7207 99.8278 39.4378 100.774C38.1549 101.72 38.1186 102.016 38.1186 102.016C38.1186 102.016 41.844 100.558 42.4777 100.35C43.1115 100.142 43.9548 99.1469 44.6964 97.9908C45.438 96.8346 45.0878 95.9391 48.9119 93.8391C52.7359 91.739 63.3215 84.6798 65.4022 82.2865C67.4829 79.8932 71.9895 74.0973 71.9895 74.0973L70.7553 64.9007Z"
      fill="white"
      stroke="black"
      strokeWidth="0.6"
    />
    <path
      fillRule="evenodd"
      clipRule="evenodd"
      d="M95.741 71.5238L107.233 67.3288C107.233 67.3288 109.05 66.2499 111.758 62.5035C114.466 58.7572 122.308 46.5947 124.501 46.4413C126.693 46.288 128.194 42.5847 128.349 41.7326C128.503 40.8805 131.18 40.5252 131.809 40.2471C132.438 39.969 132.63 39.0772 132.63 39.0772L125.727 40.9605C125.727 40.9605 123.93 41.2739 122.163 42.9804C120.396 44.6869 107.477 61.7244 103.762 63.0627C100.046 64.401 94.9161 65.191 94.9161 65.191C94.9161 65.191 94.963 66.7033 94.9062 67.8378C94.8493 68.9723 95.741 71.5238 95.741 71.5238Z"
      fill="white"
      stroke="black"
      strokeWidth="0.6"
    />
    <path
      d="M110.258 99.0646C110.274 99.9294 109.773 100.808 108.75 101.659C107.73 102.508 106.227 103.296 104.339 103.975C100.564 105.33 95.3142 106.225 89.4856 106.327C83.657 106.429 78.3788 105.718 74.5597 104.495C72.6486 103.883 71.1195 103.147 70.0701 102.335C69.0179 101.52 68.4871 100.659 68.472 99.7939C68.4569 98.929 68.9574 98.0504 69.9805 97.1991C71.0008 96.3501 72.5034 95.562 74.3919 94.8837C78.166 93.528 83.4162 92.6333 89.2448 92.5316C95.0734 92.4298 100.352 93.1408 104.171 94.3639C106.082 94.9759 107.611 95.711 108.66 96.5239C109.713 97.339 110.243 98.1997 110.258 99.0646Z"
      fill="black"
      stroke="black"
      strokeWidth="0.6"
    />
    <path
      fillRule="evenodd"
      clipRule="evenodd"
      d="M115.929 119.425L107.933 154.563L112.044 156.551C112.044 156.551 122.487 123.318 122.318 121.707C122.148 120.096 115.929 119.425 115.929 119.425Z"
      fill="black"
      stroke="black"
      strokeWidth="0.6"
    />
    <path
      fillRule="evenodd"
      clipRule="evenodd"
      d="M77.5226 103.352C77.5226 103.352 111.507 118.491 112.62 119.663C113.733 120.835 113.46 123.236 113.485 123.592C113.51 123.948 107.746 145.855 106.87 149.406C109.665 153.211 117.245 152.031 117.745 151.996C118.245 151.961 124.722 118.269 122.409 114.974C111.664 97.4612 87.9356 91.1634 87.9356 91.1634L77.5226 103.352Z"
      fill="black"
      stroke="black"
      strokeWidth="0.6"
    />
    <path
      fillRule="evenodd"
      clipRule="evenodd"
      d="M115.656 117.555L114.53 156.828L119.116 156.828L122.317 117.555L115.656 117.555Z"
      fill="white"
      stroke="black"
      strokeWidth="0.6"
    />
    <path
      fillRule="evenodd"
      clipRule="evenodd"
      d="M107.718 153.911L104.997 159.069L119.249 166.983C119.249 166.983 119.814 164.312 118.418 163.226C117.023 162.14 112.21 156.075 112.21 156.075L107.718 153.911Z"
      fill="black"
      stroke="black"
      strokeWidth="0.6"
    />
    <path
      fillRule="evenodd"
      clipRule="evenodd"
      d="M114.209 155.335L113.269 161.034L130.353 164.002C130.353 164.002 129.823 160.412 127.015 159.789C124.206 159.165 119.587 156.101 119.587 156.101L114.209 155.335Z"
      fill="white"
      stroke="black"
      strokeWidth="0.6"
    />
    <path
      fillRule="evenodd"
      clipRule="evenodd"
      d="M73.4248 97.7654C73.4248 97.7654 74.2552 103.535 82.1862 108.089C90.1173 112.642 108.81 113.502 108.81 113.502C108.81 113.502 113.538 114.259 113.063 118.467C112.587 122.674 111.806 148.97 112.086 150.028C112.365 151.087 120.005 153.725 123.918 152.541C123.611 148.159 123.918 112.446 123.918 112.446C123.918 112.446 123.428 106.496 119.519 104.795C115.609 103.093 85.6806 93.4837 85.6806 93.4837C85.6806 93.4837 79.6111 93.972 77.6571 94.6546C74.6747 95.6966 73.4248 97.7654 73.4248 97.7654Z"
      fill="white"
      stroke="black"
      strokeWidth="0.6"
    />
    <path
      fillRule="evenodd"
      clipRule="evenodd"
      d="M93.5214 72.7397C95.1177 73.1695 96.4205 73.2643 96.4205 73.2643C96.4205 73.2643 94.1477 68.8491 96.1329 63.7051C91.0943 64.0574 84.0793 61.1261 84.0793 61.1261C84.0793 61.1261 81.1466 62.8161 77.8015 59.7662C75.2028 59.8797 71.9314 61.4088 69.29 64.2264C66.7836 66.9001 62.3646 75.8361 62.3646 75.8361C62.3646 75.8361 68.7439 75.0944 74.2382 81.4779C75.4178 75.4006 75.9149 71.8498 75.9149 71.8498"
      fill="#2B6BEF"
    />
    <path
      d="M93.5214 72.7397C95.1177 73.1695 96.4205 73.2643 96.4205 73.2643C96.4205 73.2643 94.1477 68.8491 96.1329 63.7051C91.0943 64.0574 84.0793 61.1261 84.0793 61.1261C84.0793 61.1261 81.1466 62.8161 77.8015 59.7662C75.2028 59.8797 71.9314 61.4088 69.29 64.2264C66.7836 66.9001 62.3646 75.8361 62.3646 75.8361C62.3646 75.8361 68.7439 75.0944 74.2382 81.4779C75.4178 75.4006 75.9149 71.8498 75.9149 71.8498"
      stroke="black"
      strokeWidth="0.6"
      strokeLinejoin="round"
    />
    <path
      fillRule="evenodd"
      clipRule="evenodd"
      d="M71.0815 77.1973C71.0815 77.1973 70.6109 83.5275 69.6065 87.3027C68.4406 91.6852 69.9643 92.4186 70.1948 95.7158C70.365 98.1487 67.2242 101.325 68.9099 102.298C74.2951 92.7002 89.0772 94.7588 92.2418 97.0089C95.4065 99.259 96.8416 100.187 101.652 98.6272C106.463 97.0677 110.242 98.0074 110.161 100.854C111.283 98.8935 109.066 95.5509 106.24 93.8777C104.591 92.9018 101.305 92.2799 99.5295 89.7449C93.6365 81.3309 95.1522 78.7918 93.2324 73.1678C92.6164 71.3631 89.7051 64.9207 85.7257 62.2508"
      fill="#2B6BEF"
    />
    <path
      d="M71.0815 77.1973C71.0815 77.1973 70.6109 83.5275 69.6065 87.3027C68.4406 91.6852 69.9643 92.4186 70.1948 95.7158C70.365 98.1487 67.2242 101.325 68.9099 102.298C74.2951 92.7002 89.0772 94.7588 92.2418 97.0089C95.4065 99.259 96.8416 100.187 101.652 98.6272C106.463 97.0677 110.242 98.0074 110.161 100.854C111.283 98.8935 109.066 95.5508 106.24 93.8777C104.591 92.9018 101.305 92.2799 99.5295 89.7449C93.6365 81.3309 95.1522 78.7918 93.2324 73.1678C92.6164 71.3631 89.7051 64.9207 85.7257 62.2508"
      stroke="black"
      strokeWidth="0.6"
      strokeLinejoin="round"
    />
    <path
      fillRule="evenodd"
      clipRule="evenodd"
      d="M77.352 69.4221C77.352 69.4221 79.2924 75.7239 79.2924 75.7239L75.1761 76.5498L71.8744 72.9337C71.8744 72.9337 77.352 69.4221 77.352 69.4221Z"
      fill="#2B6BEF"
    />
    <path
      d="M123.348 44.9776C123.348 44.9776 124.672 44.6447 125.355 44.1816C126.037 43.7185 126.861 43.8523 127.118 44.0583C127.375 44.2643 128.39 43.8105 128.39 43.8105L126.364 42.7303L123.586 43.4564"
      stroke="black"
      strokeWidth="0.6"
      strokeLinejoin="round"
    />
    <path
      fillRule="evenodd"
      clipRule="evenodd"
      d="M132.254 55.1465C132.254 55.1465 138.106 57.0186 140.071 58.5284C145.116 62.4048 144.253 67.4562 139.798 71.8387C137.833 73.7729 135.09 74.4299 133.584 74.654C133.357 71.5278 132.254 55.1465 132.254 55.1465Z"
      fill="black"
    />
    <path
      fillRule="evenodd"
      clipRule="evenodd"
      d="M106.275 14L108.697 50.9159C108.697 50.9159 136.264 54.277 141.383 60.0386C142.583 61.3897 143.513 66.6292 142.992 61.0706C142.826 59.2986 142.211 51.175 141.597 42.9417C140.73 31.324 132.704 21.4783 121.494 18.3064L106.275 14Z"
      stroke="black"
      strokeWidth="0.6"
      strokeLinejoin="round"
    />
    <path
      d="M114.401 25.125C114.401 25.125 122.046 26.5636 126.301 28.8897C129.47 30.6216 131.211 31.7824 132.289 32.829"
      stroke="black"
      strokeWidth="0.6"
    />
    <path
      d="M114.401 32.0566C114.401 32.0566 121.556 32.5123 126.102 34.6227C130.07 36.465 131.605 37.7351 132.644 38.8908"
      stroke="black"
      strokeWidth="0.6"
    />
    <path
      fillRule="evenodd"
      clipRule="evenodd"
      d="M142.068 70.9739L143.076 77.895L144.473 75.8952L146.869 76.0918L142.068 70.9739Z"
      fill="black"
      stroke="black"
      strokeWidth="0.6"
      strokeLinejoin="round"
    />
    <path
      d="M144.541 75.998C144.541 75.998 147.51 80.3773 147.287 81.4628C147.064 82.5484 145.599 81.4386 145.599 81.4386C145.599 81.4386 152.162 88.508 148.994 94.4492"
      stroke="black"
      strokeWidth="0.6"
      strokeLinejoin="round"
    />
    <path
      fillRule="evenodd"
      clipRule="evenodd"
      d="M60.9068 120.954L59.8556 117.773L57.7367 118.962L59.9313 121.656L60.9068 120.954Z"
      fill="white"
      stroke="black"
      strokeWidth="0.6"
    />
    <circle cx="54.128" cy="110.518" r="9.23398" transform="rotate(-73 54.128 110.518)" fill="white" stroke="black" strokeWidth="0.6" />
    <circle cx="54.128" cy="110.516" r="7.50053" transform="rotate(-73 54.128 110.516)" fill="white" stroke="black" strokeWidth="0.6" />
    <path
      d="M59.0805 122.629C58.9872 122.454 59.0538 122.236 59.2292 122.143L61.6355 120.863C61.8109 120.77 62.0287 120.837 62.122 121.012L69.3693 134.642C69.4626 134.818 69.396 135.035 69.2206 135.129L66.8143 136.408C66.6389 136.501 66.4211 136.435 66.3278 136.259L59.0805 122.629Z"
      fill="black"
      stroke="black"
      strokeWidth="0.6"
    />
  </svg>