<svg width="190" height="190" viewBox="0 0 190 190" fill="none" xmlns="http://www.w3.org/2000/svg">
    <rect width="190" height="190" fill="white" />
    <path
      d="M172.705 174.217H172.444L172.408 174.476L171.396 181.8C171.216 183.096 169.689 183.698 168.674 182.873L158.096 174.284L158.013 174.217H157.907H87.7846C85.3998 174.217 83.4666 172.284 83.4666 169.899V116.462C83.4666 114.077 85.3998 112.144 87.7846 112.144H178.826C181.211 112.144 183.144 114.077 183.144 116.462V169.899C183.144 172.284 181.211 174.217 178.826 174.217H172.705Z"
      stroke="black"
      strokeWidth="0.6"
    />
    <mask id="mask0_19895_113530" style="mask-type:alpha" maskUnits="userSpaceOnUse" x="83" y="111" width="101" height="73">
      <path
        d="M172.705 174.217H172.444L172.408 174.476L171.396 181.8C171.216 183.096 169.689 183.698 168.674 182.873L158.096 174.284L158.013 174.217H157.907H87.7846C85.3998 174.217 83.4666 172.284 83.4666 169.899V116.462C83.4666 114.077 85.3998 112.144 87.7846 112.144H178.826C181.211 112.144 183.144 114.077 183.144 116.462V169.899C183.144 172.284 181.211 174.217 178.826 174.217H172.705Z"
        fill="white"
        stroke="white"
        strokeWidth="0.6"
      />
    </mask>
    <g mask="url(#mask0_19895_113530)">
      <path
        fillRule="evenodd"
        clipRule="evenodd"
        d="M81.1873 137.516C81.1873 137.516 95.7012 131.903 106.257 140.242C116.812 148.582 113.253 152.462 133.305 150.522C153.358 148.582 180.541 153.759 187.403 169.54C194.264 185.32 161.452 186.181 161.452 186.181L71.2762 179.97L81.1873 137.516Z"
        fill="black"
      />
    </g>
    <path
      fillRule="evenodd"
      clipRule="evenodd"
      d="M144.051 128.521C144.234 128.778 145.525 129.806 147.423 129.888C148.314 129.927 150.783 129.155 150.783 129.155L150.547 170.813L136.592 172.632L142.347 129.888C142.347 129.888 143.647 127.954 144.051 128.521Z"
      fill="black"
      stroke="black"
      strokeWidth="0.6"
    />
    <path
      fillRule="evenodd"
      clipRule="evenodd"
      d="M142.007 108.854C142.007 108.854 140.189 115.71 140.977 119.871C141.764 124.033 145.121 123.522 147.417 122.056C149.712 120.59 153.097 115.256 153.097 115.256L153.358 110.681C153.358 110.681 149.348 107.479 149.348 107.479C149.348 107.479 142.007 108.854 142.007 108.854Z"
      fill="white"
    />
    <path d="M142.153 106.477C142.153 106.477 137.898 125.627 146.01 122.921" stroke="black" strokeWidth="0.6" />
    <path
      fillRule="evenodd"
      clipRule="evenodd"
      d="M150.891 120.158C150.891 118.966 150.891 117.511 150.891 115.793C152.402 114.788 152.902 113.824 152.393 112.899C151.884 111.975 150.953 112.437 149.602 114.286C150.461 111.326 150.027 109.846 148.3 109.846C145.709 109.846 141.497 109.08 141.497 108.553C141.497 108.025 140.89 103.603 147.821 103.05C154.751 102.498 158.814 110.533 150.891 120.158"
      fill="black"
    />
    <path
      d="M150.891 120.158C150.891 118.966 150.891 117.511 150.891 115.793C152.402 114.788 152.902 113.824 152.393 112.899C151.884 111.975 150.953 112.437 149.602 114.286C150.461 111.326 150.027 109.846 148.3 109.846C145.709 109.846 141.497 109.08 141.497 108.553C141.497 108.025 140.89 103.603 147.821 103.05C154.751 102.498 158.814 110.533 150.891 120.158"
      stroke="black"
      strokeWidth="0.6"
      strokeLinejoin="round"
    />
    <path
      fillRule="evenodd"
      clipRule="evenodd"
      d="M129.258 145.106L119.803 174.288C119.803 174.288 131.579 174.288 137.406 174.288C139.925 166.038 144.243 126.756 144.243 126.756C144.243 126.756 125.719 127.722 109.027 152.93C110.851 158.059 112.005 160.551 113.174 163.416C118.366 158.975 128.484 145.698 130.087 144.265"
      fill="white"
    />
    <path
      d="M129.258 145.106L119.803 174.288C119.803 174.288 131.579 174.288 137.406 174.288C139.925 166.038 144.243 126.756 144.243 126.756C144.243 126.756 125.719 127.722 109.027 152.93C110.851 158.059 112.005 160.551 113.174 163.416C118.366 158.975 128.484 145.698 130.087 144.265"
      stroke="black"
      strokeWidth="0.6"
    />
    <path
      fillRule="evenodd"
      clipRule="evenodd"
      d="M169.159 165.737C165.325 166.145 139.77 170.977 139.77 170.977L140.689 174.288C140.689 174.288 161.024 174.288 168.432 174.288C175.841 174.288 176.418 167.98 176.418 167.98C176.418 167.98 175.545 158.319 170.956 144.627C166.367 130.935 151.029 126.756 151.029 126.756C151.029 126.756 148.384 149.305 148.384 169.33"
      fill="#2B6BEF"
    />
    <path
      d="M169.159 165.737C165.325 166.145 139.77 170.977 139.77 170.977L140.689 174.288C140.689 174.288 161.024 174.288 168.432 174.288C175.841 174.288 176.418 167.98 176.418 167.98C176.418 167.98 175.545 158.319 170.956 144.627C166.367 130.935 151.029 126.756 151.029 126.756C151.029 126.756 148.384 149.305 148.384 169.33"
      stroke="black"
      strokeWidth="0.6"
    />
    <path d="M161.452 145.699C161.452 145.699 164.787 162.793 164.787 166.039" stroke="black" strokeWidth="0.6" />
    <path
      fillRule="evenodd"
      clipRule="evenodd"
      d="M139.77 170.977C139.77 170.977 136.454 171.686 135.191 172.119C132.466 173.053 130.762 174.288 130.762 174.288H140.689L139.77 170.977Z"
      fill="white"
      stroke="black"
      strokeWidth="0.6"
    />
    <path
      fillRule="evenodd"
      clipRule="evenodd"
      d="M68.9533 148.289C69.5249 148.289 107.616 148.978 107.616 148.978L117.85 177.056L76.228 176.252C76.228 176.252 68.3816 148.289 68.9533 148.289Z"
      fill="white"
      stroke="black"
      strokeWidth="0.6"
    />
    <path fillRule="evenodd" clipRule="evenodd" d="M117.977 177.055L125.945 174.287L116.835 174.287" fill="black" />
    <path d="M117.977 177.055L125.945 174.287L116.835 174.287" stroke="black" strokeWidth="0.6" />
    <path d="M144.647 123.256C144.647 123.256 144.396 126.626 144.114 128.718" stroke="black" strokeWidth="0.6" />
    <path d="M150.92 119.871C150.92 119.871 150.482 126.144 151.029 126.757" stroke="black" strokeWidth="0.6" />
    <path
      fillRule="evenodd"
      clipRule="evenodd"
      d="M17.1944 66.427V92.4076C17.1944 94.9581 19.262 97.0256 21.8125 97.0256H28.8521L29.9851 104.763C30.1434 105.845 31.1486 106.593 32.2301 106.435C32.5639 106.386 32.8797 106.252 33.1475 106.047L44.9162 97.0256H121.431C123.981 97.0256 126.049 94.9581 126.049 92.4076V37.413C126.049 34.8625 123.981 32.7949 121.431 32.7949H21.8125C19.262 32.7949 17.1944 34.8625 17.1944 37.413V61.2648"
      fill="#2B6BEF"
    />
    <path
      d="M17.1944 66.427V92.4076C17.1944 94.9581 19.262 97.0256 21.8125 97.0256H28.8521L29.9851 104.763C30.1434 105.845 31.1486 106.593 32.2301 106.435C32.5639 106.386 32.8797 106.252 33.1475 106.047L44.9162 97.0256H121.431C123.981 97.0256 126.049 94.9581 126.049 92.4076V37.413C126.049 34.8625 123.981 32.7949 121.431 32.7949H21.8125C19.262 32.7949 17.1944 34.8625 17.1944 37.413V61.2648"
      stroke="black"
      strokeWidth="0.6"
    />
    <mask id="mask1_19895_113530" style="mask-type:alpha" maskUnits="userSpaceOnUse" x="16" y="32" width="111" height="75">
      <path
        fillRule="evenodd"
        clipRule="evenodd"
        d="M17.1944 66.427V92.4076C17.1944 94.9581 19.262 97.0256 21.8125 97.0256H28.8521L29.9851 104.763C30.1434 105.845 31.1486 106.593 32.2301 106.435C32.5639 106.386 32.8797 106.252 33.1475 106.047L44.9162 97.0256H121.431C123.981 97.0256 126.049 94.9581 126.049 92.4076V37.413C126.049 34.8625 123.981 32.7949 121.431 32.7949H21.8125C19.262 32.7949 17.1944 34.8625 17.1944 37.413V61.2648"
        fill="white"
      />
      <path
        d="M17.1944 66.427V92.4076C17.1944 94.9581 19.262 97.0256 21.8125 97.0256H28.8521L29.9851 104.763C30.1434 105.845 31.1486 106.593 32.2301 106.435C32.5639 106.386 32.8797 106.252 33.1475 106.047L44.9162 97.0256H121.431C123.981 97.0256 126.049 94.9581 126.049 92.4076V37.413C126.049 34.8625 123.981 32.7949 121.431 32.7949H21.8125C19.262 32.7949 17.1944 34.8625 17.1944 37.413V61.2648"
        stroke="white"
        strokeWidth="0.6"
      />
    </mask>
    <g mask="url(#mask1_19895_113530)" />
    <path
      fillRule="evenodd"
      clipRule="evenodd"
      d="M49.3406 55.7196C49.3406 55.9789 39.3129 72.2957 39.3129 72.2957V78.8024C39.3129 78.8024 61.9926 85.3757 62.7564 85.5414C63.5202 85.7072 63.5383 86.4518 64.478 83.5961C64.9319 82.2163 65.7153 80.8922 65.8795 79.6635C66.0552 78.3491 65.5957 77.168 65.5955 76.9128C65.5955 76.419 54.8268 56.4162 54.8268 56.4162L54.7702 57.2708C54.7702 57.2708 53.5025 58.019 52.0686 57.6094C50.6347 57.1997 49.3406 55.4602 49.3406 55.7196Z"
      fill="white"
    />
    <path
      fillRule="evenodd"
      clipRule="evenodd"
      d="M49.8954 48.8887C50.4113 50.7715 50.188 53.7069 49.3406 55.7196C52.3211 58.8736 54.7702 57.2708 54.7702 57.2708L55.1146 52.9242"
      fill="white"
    />
    <path
      d="M49.8954 48.8887C50.4113 50.7715 50.188 53.7069 49.3406 55.7196C52.3211 58.8736 54.7702 57.2708 54.7702 57.2708L55.1146 52.9242"
      stroke="black"
      strokeWidth="0.6"
    />
    <path
      fillRule="evenodd"
      clipRule="evenodd"
      d="M55.1559 43.3959C55.0982 43.4404 53.9159 44.5772 53.8557 44.6224C52.1275 45.9189 50.5431 46.1133 50.7421 46.1133C51.1998 46.1133 49.922 45.1731 49.5796 45.7406C49.2371 46.308 49.5796 48.0395 49.5796 48.0395C49.5796 48.0395 45.5049 45.2357 46.4189 39.1503C46.6553 37.5761 47.935 36.1357 49.5796 34.7742C51.7768 32.9552 56.406 34.5395 57.9997 36.4068C59.1146 37.7131 59.1146 42.2073 59.1146 42.2073C59.1146 42.2073 57.5078 41.583 55.1559 43.3959Z"
      fill="black"
      stroke="black"
      strokeWidth="0.6"
      strokeLinejoin="round"
    />
    <path
      fillRule="evenodd"
      clipRule="evenodd"
      d="M58.7515 39.8488C59.0139 41.1901 59.0139 41.1901 59.1002 42.8835C59.2174 45.1808 58.6332 48.4248 56.704 51.2406C53.3527 56.1319 49.7035 48.5451 49.7035 48.5451C49.7035 48.5451 47.676 45.2263 48.9962 44.6051C50.3165 43.9838 50.742 46.1135 50.742 46.1135C50.742 46.1135 53.1217 46.4015 57.4124 39.8488C57.9715 38.5039 58.6722 39.4433 58.7515 39.8488Z"
      fill="white"
      stroke="black"
      strokeWidth="0.6"
    />
    <path
      fillRule="evenodd"
      clipRule="evenodd"
      d="M49.3406 55.7188C49.3406 55.7188 41.5173 57.7704 38.1313 60.8332C35.5022 63.2112 32.2775 67.1057 30.4769 70.7701C27.5206 76.7866 26.8641 79.502 26.8641 79.502C26.8641 79.502 32.8032 81.1168 37.2255 83.5953C39.7899 77.4827 40.9444 73.5426 40.9444 73.5426"
      fill="white"
    />
    <path
      d="M49.3406 55.7188C49.3406 55.7188 41.5173 57.7704 38.1313 60.8332C35.5022 63.2112 32.2775 67.1057 30.4769 70.7701C27.5206 76.7866 26.8641 79.502 26.8641 79.502C26.8641 79.502 32.8032 81.1168 37.2255 83.5953C39.7899 77.4827 40.9444 73.5426 40.9444 73.5426"
      stroke="black"
      strokeWidth="0.6"
    />
    <ellipse cx="32.0171" cy="81.5517" rx="5.75045" ry="1.97917" transform="rotate(22 32.0171 81.5517)" fill="black" />
    <path
      fillRule="evenodd"
      clipRule="evenodd"
      d="M71.9715 96.8423C71.9715 96.8423 82.4482 82.584 88.6767 74.2038C90.7866 71.365 91.2608 70.7973 91.5867 70.2417C91.7925 69.8911 91.9245 68.7172 92.5714 67.2222C92.8796 66.5099 93.7975 65.6236 93.9758 64.9077C94.5239 62.7062 94.2506 60.9494 93.9758 60.7807C93.5988 60.5494 92.3582 62.2768 91.0305 63.7486C90.4518 64.3901 89.7896 64.9077 89.5843 65.252C89.5843 65.252 89.5843 65.4991 89.5843 65.4991C89.5843 65.1037 90.0261 63.4104 90.0261 63.4104L89.7896 62.6273L88.0578 65.6171V68.3547L87.7847 70.3807L86.9622 71.6532L70.3427 87.1013L65.3267 91.1488C65.3267 91.1488 65.8098 97.5244 65.8098 97.5244C65.8098 97.5244 71.3926 97.6709 71.3926 97.6709L71.9715 96.8423Z"
      fill="white"
    />
    <path
      fillRule="evenodd"
      clipRule="evenodd"
      d="M39.2739 78.4688C39.2739 78.4688 37.9888 89.744 37.6908 94.2619C37.3928 98.7797 37.0914 102.912 37.0914 102.912L45.0444 97.0634H65.9196C65.9196 97.0634 64.9376 86.2954 64.4809 83.9664"
      fill="white"
    />
    <path
      d="M39.2739 78.4688C39.2739 78.4688 37.9888 89.744 37.6908 94.2619C37.3928 98.7797 37.0914 102.912 37.0914 102.912L45.0444 97.0634H65.9196C65.9196 97.0634 64.9376 86.2954 64.4809 83.9664"
      stroke="black"
      strokeWidth="0.6"
    />
    <path
      fillRule="evenodd"
      clipRule="evenodd"
      d="M54.8268 56.416C54.8268 56.416 60.0825 58.685 62.1268 60.5041C66.1578 64.0909 68.7793 69.1559 70.686 73.6982C69.0195 76.5924 65.5955 80.2958 65.5955 80.2958"
      fill="white"
    />
    <path
      d="M54.8268 56.416C54.8268 56.416 60.0825 58.685 62.1268 60.5041C66.1578 64.0909 68.7793 69.1559 70.686 73.6982C69.0195 76.5924 65.5955 80.2958 65.5955 80.2958"
      stroke="black"
      strokeWidth="0.6"
    />
    <path
      fillRule="evenodd"
      clipRule="evenodd"
      d="M68.4999 77L64.9999 81.5L64.4999 83C65.4999 88 66.4999 98 66.4999 98C67.2743 98 69.6809 94.2049 69.6809 88.2181C69.6809 82.2313 69.0211 85.5408 69.0211 85.5408L68.9999 82.5L68.4999 77Z"
      fill="white"
    />
    <path d="M68.5485 76.9121C68.5485 76.9121 68.9654 86.3586 68.985 89.0807" stroke="black" strokeWidth="0.6" />
    <path
      d="M72.0608 97.0628C72.0608 97.0628 82.4482 82.584 88.6767 74.2038C90.7866 71.365 91.2608 70.7973 91.5867 70.2417C91.7925 69.8911 91.9245 68.7172 92.5714 67.2222C92.8796 66.5099 93.7975 65.6236 93.9758 64.9077C94.5239 62.7062 94.2506 60.9494 93.9758 60.7807C93.5988 60.5494 92.3582 62.2768 91.0305 63.7486C90.4518 64.3901 90.026 64.7237 89.5843 65.252"
      stroke="black"
      strokeWidth="0.6"
    />
    <path
      d="M89.5888 68.9154C89.873 68.4153 89.7399 67.0574 89.4182 65.6187C90.304 64.0827 90.1498 61.7414 89.4182 62.9754C88.5426 64.4523 88.0578 65.4525 88.0578 65.6187C88.0578 66.3524 88.1368 68.0769 87.8979 69.4837C87.676 70.7908 86.8738 71.7217 86.5228 72.0808C85.794 72.8264 70.1012 87.1961 70.1012 87.1961"
      stroke="black"
      strokeWidth="0.6"
    />
    <path
      fillRule="evenodd"
      clipRule="evenodd"
      d="M34.9858 87.336C34.9858 87.336 35.9312 84.7289 36.3882 82.054C35.6788 81.2176 33.7018 80.1568 31.5382 79.4377C30.7718 79.1829 29.5059 78.9785 29.5059 78.9785C29.5059 78.9785 22.4722 97.8227 34.1373 94.8128C45.8023 91.8029 64.481 83.9674 64.481 83.9674L68.8155 87.8266C68.8155 87.8266 68.8155 88.4435 68.8155 90.2331C68.8155 92.0227 71.4151 85.8257 70.686 84.4641C69.9569 83.1025 65.5955 80.2962 65.5955 80.2962L33.0777 87.8266"
      fill="white"
    />
    <path
      d="M34.9858 87.336C34.9858 87.336 35.9312 84.7289 36.3882 82.054C35.6788 81.2176 33.7018 80.1568 31.5382 79.4377C30.7718 79.1829 29.5059 78.9785 29.5059 78.9785C29.5059 78.9785 22.4722 97.8227 34.1373 94.8128C45.8023 91.8029 64.481 83.9674 64.481 83.9674L68.8155 87.8266C68.8155 87.8266 68.8155 88.4435 68.8155 90.2331C68.8155 92.0227 71.4151 85.8257 70.686 84.4641C69.9569 83.1025 65.5955 80.2962 65.5955 80.2962L33.0777 87.8266"
      stroke="black"
      strokeWidth="0.6"
    />
    <circle cx="45.8923" cy="33.1252" r="5.30764" fill="black" stroke="black" strokeWidth="0.6" />
    <circle cx="36.6562" cy="30.4855" r="3.98819" fill="black" stroke="black" strokeWidth="0.6" />
    <circle cx="29.7292" cy="33.4549" r="2.99861" fill="black" stroke="black" strokeWidth="0.6" />
    <circle cx="17.2604" cy="39.0629" r="2.00903" fill="black" stroke="black" strokeWidth="0.6" />
    <path
      d="M19.3912 39.0609C19.3912 39.6568 19.2532 40.1815 19.0455 40.5467C18.8328 40.9207 18.585 41.0719 18.3768 41.0719C18.1687 41.0719 17.9209 40.9207 17.7082 40.5467C17.5004 40.1815 17.3624 39.6568 17.3624 39.0609C17.3624 38.4651 17.5004 37.9404 17.7082 37.5752C17.9209 37.2012 18.1687 37.05 18.3768 37.05C18.585 37.05 18.8328 37.2012 19.0455 37.5752C19.2532 37.9404 19.3912 38.4651 19.3912 39.0609Z"
      fill="white"
      stroke="black"
      strokeWidth="0.6"
    />
    <path
      fillRule="evenodd"
      clipRule="evenodd"
      d="M66.7729 22H93.6887C93.6887 22 92.3367 28.06 95.0417 30.3278C97.7467 32.5955 99.9797 33.3753 99.9797 38.073C99.9797 42.7708 98.1737 43.7185 101.156 46.8891C104.138 50.0597 101.156 53.9396 101.156 53.9396H76.491C76.491 53.9396 79.6183 50.9384 76.491 47.9185C73.3637 44.8985 75.5117 42.3864 75.5117 38.073C75.5117 33.7597 70.3956 33.7597 68.0446 30.3278C65.6937 26.8958 66.7729 22 66.7729 22Z"
      fill="white"
      stroke="black"
      strokeWidth="0.6"
    />
    <path
      d="M105.415 66.8009H105.299L105.213 66.8789L102.926 68.9578C102.787 69.0834 102.576 69.0824 102.439 68.9555L100.2 66.8809L100.114 66.8009H99.9965H97.6805C97.1175 66.8009 96.6611 66.3445 96.6611 65.7815V52.587C96.6611 52.024 97.1175 51.5676 97.6805 51.5676H122.09C122.653 51.5676 123.11 52.024 123.11 52.587V65.7815C123.11 66.3445 122.653 66.8009 122.09 66.8009H105.415Z"
      fill="black"
      stroke="black"
      strokeWidth="0.6"
    />
    <path
      d="M104.095 65.4806H103.979L103.894 65.5586L101.606 67.6375C101.468 67.7631 101.257 67.7621 101.12 67.6352L98.8809 65.5606L98.7947 65.4806H98.677H96.3611C95.798 65.4806 95.3416 65.0242 95.3416 64.4612V51.2667C95.3416 50.7037 95.798 50.2473 96.3611 50.2473H120.771C121.334 50.2473 121.79 50.7037 121.79 51.2667V64.4612C121.79 65.0242 121.334 65.4806 120.771 65.4806H104.095Z"
      fill="white"
      stroke="black"
      strokeWidth="0.6"
    />
    <path
      d="M11.508 70.2131H11.3997L11.3164 70.2823L9.47333 71.8118C9.33913 71.9232 9.14437 71.9223 9.01124 71.8096L7.20851 70.2841L7.12462 70.2131H7.01472H5.31945C4.75642 70.2131 4.3 69.7567 4.3 69.1937V59.8429C4.3 59.2799 4.75642 58.8234 5.31944 58.8234H25.1111C25.6741 58.8234 26.1306 59.2799 26.1306 59.8429V69.1937C26.1306 69.7567 25.6741 70.2131 25.1111 70.2131H11.508Z"
      fill="#2B6BEF"
      stroke="black"
      strokeWidth="0.6"
    />
    <rect x="6.93885" y="62.5422" width="5.3375" height="4.01806" fill="white" stroke="black" strokeWidth="0.6" />
    <path
      d="M17.4301 58.825L17.4495 58.8235H25.1111C25.6741 58.8235 26.1306 59.28 26.1306 59.843V69.0791C26.1306 69.6421 25.6741 70.0985 25.1111 70.0985H17.3659C17.356 70.0812 17.3453 70.0625 17.334 70.0425C17.263 69.9173 17.1688 69.7448 17.0752 69.555C16.9812 69.3643 16.8902 69.1609 16.8237 68.973C16.7547 68.7782 16.7224 68.6277 16.7236 68.5332C16.7332 67.7848 16.8652 67.2092 16.9997 66.6885C17.014 66.6331 17.0284 66.5779 17.0429 66.5227C17.162 66.0683 17.2796 65.6198 17.2796 65.1427C17.2796 64.6983 17.1108 64.39 16.858 64.1549C16.6762 63.9859 16.4402 63.8488 16.2274 63.7251C16.174 63.6941 16.1221 63.664 16.0729 63.6344C15.8097 63.4761 15.5679 63.3068 15.3748 63.0553C15.1846 62.8076 15.0272 62.4605 14.9708 61.9272C14.8887 61.152 15.0123 60.5855 15.225 60.1687C15.4381 59.7512 15.7514 59.4629 16.0816 59.2623C16.4136 59.0605 16.7594 58.9497 17.0252 58.8897C17.1574 58.8599 17.2677 58.8431 17.3438 58.8338C17.3818 58.8292 17.4111 58.8265 17.4301 58.825Z"
      fill="white"
      stroke="black"
      strokeWidth="0.6"
    />
    <path d="M16.8595 62.1521H23.7916" stroke="black" strokeWidth="0.6" />
    <path d="M19.8333 64.7908H23.7916" stroke="black" strokeWidth="0.6" />
    <path d="M19.8333 66.7693H23.7916" stroke="black" strokeWidth="0.6" />
    <path
      fillRule="evenodd"
      clipRule="evenodd"
      d="M102.299 54.916L98.8398 62.1999H106.105L102.299 54.916Z"
      fill="#2B6BEF"
      stroke="black"
      strokeWidth="0.6"
    />
    <rect x="110.515" y="54.8664" width="7.31667" height="3.35833" fill="white" stroke="black" strokeWidth="0.6" />
    <path
      d="M90.9003 65.9232C90.9003 65.9232 91.6165 64.6159 92.7006 63.4106C93.0172 63.0585 93.3744 62.8761 93.5982 62.5783C93.8853 62.1964 94.1435 61.4238 94.1435 61.4238"
      stroke="black"
      strokeWidth="0.6"
      strokeLinecap="round"
    />
    <path
      d="M91.8796 66.6702C91.8796 66.6702 92.4925 65.4569 93.0625 64.8647C93.6325 64.2725 94.1436 63.4102 94.1436 63.4102"
      stroke="black"
      strokeWidth="0.6"
      strokeLinecap="round"
    />
    <path
      d="M127.368 64.4623C127.368 64.4623 141.583 60.9311 143.35 63.4936C145.116 66.0561 141.483 68.8875 141.483 68.8875C141.483 68.8875 199.808 59.1983 176.302 104.136"
      stroke="black"
      strokeWidth="0.6"
      strokeLinejoin="round"
    />
    <circle cx="125.389" cy="64.4616" r="1.67917" fill="black" stroke="black" strokeWidth="0.6" />
    <path
      fillRule="evenodd"
      clipRule="evenodd"
      d="M131.257 97.2433L126.693 99.3214L126.164 105.44L122.25 101.787L111.535 89.0469L131.257 97.2433Z"
      fill="white"
      stroke="black"
      strokeWidth="0.6"
      strokeLinejoin="round"
    />
    <path
      fillRule="evenodd"
      clipRule="evenodd"
      d="M111.535 89.0469L117.395 104.096L124.457 100.57L111.535 89.0469Z"
      fill="white"
      stroke="black"
      strokeWidth="0.6"
      strokeLinejoin="round"
    />
    <path d="M126.693 99.3214L111.535 89.0469" stroke="black" strokeWidth="0.6" />
    <circle cx="175.198" cy="113.041" r="8.60625" fill="white" stroke="black" strokeWidth="0.6" />
    <path
      d="M170.901 109.838C170.901 109.838 172.671 110.301 173.346 111.009C172.184 111.009 170.901 111.698 170.901 111.698"
      stroke="black"
      strokeWidth="0.6"
      strokeLinecap="round"
      strokeLinejoin="round"
    />
    <path
      d="M179.284 109.838C179.284 109.838 177.514 110.301 176.838 111.009C178.001 111.009 179.284 111.698 179.284 111.698"
      stroke="black"
      strokeWidth="0.6"
      strokeLinecap="round"
      strokeLinejoin="round"
    />
    <path d="M62.5117 70.3809C64.0287 79.7372 63.9506 79.5283 64.1022 80.6663" stroke="black" strokeWidth="0.6" />
    <rect x="78.2708" y="44.0117" width="19.1319" height="0.659722" fill="black" />
    <rect x="76.2916" y="41.3711" width="19.1319" height="0.659722" fill="black" />
    <rect x="70.1371" y="110.808" width="0.329861" height="3.62847" fill="black" stroke="black" strokeWidth="0.329861" />
    <rect x="71.7865" y="111.302" width="0.329861" height="3.13368" fill="black" stroke="black" strokeWidth="0.329861" />
    <rect x="73.4357" y="111.798" width="0.329861" height="2.63889" fill="black" stroke="black" strokeWidth="0.329861" />
    <rect x="75.085" y="112.292" width="0.329861" height="2.1441" fill="black" stroke="black" strokeWidth="0.329861" />
    <rect x="76.7343" y="112.786" width="0.329861" height="1.64931" fill="black" stroke="black" strokeWidth="0.329861" />
    <circle cx="56.4225" cy="116.376" r="3.81058" fill="black" stroke="black" strokeWidth="0.6" />
    <circle cx="56.4225" cy="116.377" r="2.89712" fill="white" stroke="black" strokeWidth="0.6" />
    <rect x="48.5014" y="110.739" width="1.68365" height="4.42404" fill="black" stroke="black" strokeWidth="0.6" />
    <rect x="50.3283" y="109.368" width="5.79423" height="6.70769" fill="white" stroke="black" strokeWidth="0.6" />
    <path d="M56.2658 116.174V109.267L63.1744 106.325V118.994L56.2658 116.174Z" fill="white" stroke="black" strokeWidth="0.6" />
    <rect x="63.1168" y="104.345" width="2.59712" height="16.7558" rx="1.29856" fill="#2B6BEF" stroke="black" strokeWidth="0.6" />
  </svg>