<svg width="190" height="190" viewBox="0 0 190 190" fill="none" xmlns="http://www.w3.org/2000/svg">
    <rect width="190" height="190" fill="white" />
    <path
      d="M79.9567 19.6181C79.9567 17.2333 81.89 15.3 84.2748 15.3H166.521C168.906 15.3 170.839 17.2333 170.839 19.6181V92.5341C170.839 94.9189 168.906 96.8521 166.521 96.8521H161.437H153.479H84.2748C81.89 96.8521 79.9567 94.9189 79.9567 92.5341V19.6181Z"
      stroke="black"
      strokeWidth="0.6"
    />
    <path
      d="M92.8138 59.1935C92.8138 70.1046 83.993 78.9484 73.1138 78.9484C62.2345 78.9484 53.4138 70.1046 53.4138 59.1935C53.4138 48.2825 62.2345 39.4387 73.1138 39.4387C83.993 39.4387 92.8138 48.2825 92.8138 59.1935Z"
      fill="white"
      stroke="black"
      strokeWidth="0.6"
    />
    <path
      d="M92.8137 59.1942C92.8137 67.4763 87.7312 74.5681 80.5231 77.5042V40.8841C87.7312 43.8202 92.8137 50.9121 92.8137 59.1942Z"
      fill="black"
      stroke="black"
      strokeWidth="0.6"
    />
    <circle cx="60.1803" cy="57.4112" r="1.48233" fill="white" stroke="black" strokeWidth="0.6" />
    <path
      fillRule="evenodd"
      clipRule="evenodd"
      d="M96.4161 108.538L93.6963 130.805C93.4134 133.122 91.4463 134.863 89.1124 134.863H54.8663C54.0933 134.863 53.3326 135.057 52.654 135.428L38.9217 142.922C38.4821 143.162 37.946 142.844 37.946 142.343V139.481C37.946 136.931 35.8784 134.863 33.3279 134.863H30.056C27.5056 134.863 25.438 132.796 25.438 130.245V68.4618C25.438 65.9113 27.5056 63.8438 30.056 63.8438H124.174C126.725 63.8438 128.792 65.9113 128.792 68.4618V89.3212"
      fill="#2B6BEF"
    />
    <path
      d="M96.4161 108.538L93.6963 130.805C93.4134 133.122 91.4463 134.863 89.1124 134.863H54.8663C54.0933 134.863 53.3326 135.057 52.654 135.428L38.9217 142.922C38.4821 143.162 37.946 142.844 37.946 142.343V139.481C37.946 136.931 35.8784 134.863 33.3279 134.863H30.056C27.5056 134.863 25.438 132.796 25.438 130.245V68.4618C25.438 65.9113 27.5056 63.8438 30.056 63.8438H124.174C126.725 63.8438 128.792 65.9113 128.792 68.4618V89.3212"
      stroke="black"
      strokeWidth="0.6"
    />
    <path
      d="M98.2063 88.6557C98.5761 86.6378 100.34 85.1926 102.398 85.1926H142.033C144.418 85.1926 146.351 87.1258 146.351 89.5106V150.725C146.351 152.837 144.639 154.549 142.527 154.549H142.2C139.937 154.549 138.103 156.384 138.103 158.646C138.103 158.836 137.895 158.952 137.734 158.853L131.893 155.274C131.12 154.8 130.23 154.549 129.323 154.549H102.467C100.38 154.549 98.599 153.063 98.253 151.011C97.038 143.802 94.5759 128.048 94.5759 118.785C94.5759 109.64 96.9762 95.367 98.2063 88.6557Z"
      fill="white"
      stroke="black"
      strokeWidth="0.6"
    />
    <path d="M125.747 22.2712H135.06" stroke="black" strokeWidth="0.6" />
    <path d="M125.747 33.7438H135.06" stroke="black" strokeWidth="0.6" />
    <path d="M125.747 26.2868H150.835" stroke="black" strokeWidth="0.6" />
    <path d="M125.747 37.7595H150.835" stroke="black" strokeWidth="0.6" />
    <path
      fillRule="evenodd"
      clipRule="evenodd"
      d="M60.1804 91.0078C60.1804 91.5601 59.7327 92.0078 59.1804 92.0078H31.8535C31.3012 92.0078 30.8535 91.5601 30.8535 91.0078V90.0078C30.8535 89.4555 31.3012 89.0078 31.8535 89.0078H59.1804C59.7327 89.0078 60.1804 89.4555 60.1804 90.0078V91.0078Z"
      fill="white"
    />
    <path
      fillRule="evenodd"
      clipRule="evenodd"
      d="M60.1804 85C60.1804 85.5523 59.7327 86 59.1804 86H31.8535C31.3012 86 30.8535 85.5523 30.8535 85V84C30.8535 83.4477 31.3012 83 31.8535 83H59.1804C59.7327 83 60.1804 83.4477 60.1804 84V85Z"
      fill="white"
    />
    <rect x="7.3" y="102.3" width="52.4" height="9.4" rx="1.7" fill="white" stroke="black" strokeWidth="0.6" />
    <path
      fillRule="evenodd"
      clipRule="evenodd"
      d="M96.152 32.8031L98.19 31.9259L97.2835 30.5966L95.6323 32.2L96.152 32.8031Z"
      fill="white"
      stroke="black"
      strokeWidth="0.6"
    />
    <circle cx="102.647" cy="27.7273" r="6.01422" transform="rotate(12 102.647 27.7273)" fill="white" stroke="black" strokeWidth="0.6" />
    <circle cx="102.647" cy="27.729" r="4.86618" transform="rotate(12 102.647 27.729)" fill="white" stroke="black" strokeWidth="0.6" />
    <path
      d="M94.8096 31.9019C94.9762 31.7937 95.199 31.8411 95.3072 32.0077L96.0475 33.1477C96.1557 33.3143 96.1084 33.5371 95.9417 33.6453L87.741 38.971C87.5744 39.0792 87.3516 39.0318 87.2434 38.8652L86.503 37.7252C86.3948 37.5585 86.4422 37.3358 86.6088 37.2276L94.8096 31.9019Z"
      fill="black"
      stroke="black"
      strokeWidth="0.6"
    />
    <path
      d="M95.2634 31.607C95.43 31.4988 95.6528 31.5462 95.761 31.7128L96.5014 32.8528C96.6096 33.0194 96.5622 33.2422 96.3956 33.3504L88.5158 38.4676C88.3492 38.5758 88.1264 38.5285 88.0182 38.3618L87.2778 37.2218C87.1696 37.0552 87.217 36.8324 87.3836 36.7242L95.2634 31.607Z"
      fill="black"
      stroke="black"
      strokeWidth="0.6"
    />
    <rect x="83.663" y="164.913" width="39.7675" height="4.14911" fill="black" stroke="black" strokeWidth="0.6" />
    <rect x="86.0375" y="142.749" width="36.6014" height="4.14911" fill="black" stroke="black" strokeWidth="0.6" />
    <rect x="87.6206" y="121.378" width="33.4353" height="4.14911" fill="black" stroke="black" strokeWidth="0.6" />
    <rect x="89.2038" y="100.009" width="30.2692" height="4.14911" fill="black" stroke="black" strokeWidth="0.6" />
    <rect x="89.9953" y="78.6379" width="28.6862" height="4.14911" fill="black" stroke="black" strokeWidth="0.6" />
    <rect x="91.5783" y="58.0578" width="25.5201" height="4.14911" fill="black" stroke="black" strokeWidth="0.6" />
    <path
      d="M90.1052 44.3649C90.1496 43.6288 90.7767 43.0647 91.5135 43.0983L92.1701 43.1282C92.9223 43.1624 93.5009 43.8057 93.4555 44.5573L85.3277 179.355C85.2833 180.091 84.6561 180.656 83.9194 180.622L83.2628 180.592C82.5106 180.558 81.932 179.915 81.9773 179.163L90.1052 44.3649Z"
      fill="black"
      stroke="black"
      strokeWidth="0.6"
    />
    <path
      d="M90.1081 44.3706C90.1511 43.6324 90.7802 43.0663 91.5188 43.1012L92.1758 43.1322C92.926 43.1676 93.5028 43.8087 93.4592 44.5584L92.6267 58.8643L89.284 58.5323L90.1081 44.3706Z"
      fill="white"
      stroke="black"
      strokeWidth="0.6"
    />
    <path
      d="M117.163 43.0983C117.9 43.0647 118.527 43.6288 118.571 44.3649L126.699 179.163C126.745 179.915 126.166 180.558 125.414 180.592L124.757 180.622C124.02 180.656 123.393 180.091 123.349 179.355L115.221 44.5573C115.176 43.8057 115.754 43.1624 116.506 43.1282L117.163 43.0983Z"
      fill="black"
      stroke="black"
      strokeWidth="0.6"
    />
    <path
      fillRule="evenodd"
      clipRule="evenodd"
      d="M83.5871 88.7539L81.9717 94.6178L86.235 99.7826L97.4707 96.0303L94.1693 90.3931L83.5871 88.7539Z"
      fill="white"
    />
    <path
      fillRule="evenodd"
      clipRule="evenodd"
      d="M79.9559 138.467L82.1344 141.612L78.5382 144.792C78.5382 144.792 77.9652 146.333 78.5382 147.945C81.5412 145.925 87.0425 142.341 87.0425 142.341L83.043 137.414"
      fill="#2B6BEF"
    />
    <path
      d="M79.9559 138.467L82.1344 141.612L78.5382 144.792C78.5382 144.792 77.9652 146.333 78.5382 147.945C81.5412 145.925 87.0425 142.341 87.0425 142.341L83.043 137.414"
      stroke="black"
      strokeWidth="0.6"
    />
    <path
      fillRule="evenodd"
      clipRule="evenodd"
      d="M100.502 157.137L101.564 162.168C101.564 162.168 101.928 162.12 100.795 163.099C99.6618 164.079 99.3079 165.36 99.3079 165.36C99.3079 165.36 101.521 165.36 103.089 165.36C104.657 165.36 106.153 165 106.153 165L105.044 161.949L103.089 156.084L100.502 157.137Z"
      fill="#2B6BEF"
      stroke="black"
      strokeWidth="0.6"
    />
    <path
      fillRule="evenodd"
      clipRule="evenodd"
      d="M85.7063 98.3388L88.3282 121.072C88.3282 121.072 88.4848 126.835 89.5701 129.667C90.6555 132.498 98.11 156.953 98.11 156.953C98.11 156.953 102.588 158.932 105.165 156.071C104.518 152.327 98.11 132.654 98.11 121.106C98.11 109.558 99.2966 89.2539 99.2966 89.2539"
      fill="white"
    />
    <path
      d="M85.7063 98.3388C85.7063 98.3388 88.3282 121.072 88.3282 121.072C88.3282 121.072 88.4848 126.835 89.5701 129.667C90.6555 132.498 98.11 156.953 98.11 156.953C98.11 156.953 102.588 158.932 105.165 156.071C104.518 152.327 98.11 132.654 98.11 121.106C98.11 109.558 99.2966 89.2539 99.2966 89.2539"
      stroke="black"
      strokeWidth="0.6"
    />
    <path
      fillRule="evenodd"
      clipRule="evenodd"
      d="M78.3912 85.957L63.1922 106.901C63.1922 106.901 60.3003 110.721 63.4991 115.939C66.698 121.158 76.8436 138.838 76.8436 138.838C76.8436 138.838 78.8591 139.056 79.6761 138.838C82.8208 137.999 84.3302 136.39 84.3302 135.26C82.8659 132.923 69.3498 112.816 72.2819 110.073C75.2139 107.33 85.3313 100.478 86.5802 96.7652"
      fill="white"
    />
    <path
      d="M78.3912 85.957L63.1922 106.901C63.1922 106.901 60.3003 110.721 63.4991 115.939C66.698 121.158 76.8436 138.838 76.8436 138.838C76.8436 138.838 78.8591 139.056 79.6761 138.838C82.8208 137.999 84.3302 136.39 84.3302 135.26C82.8659 132.923 69.3498 112.816 72.2819 110.073C75.2139 107.33 85.3313 100.478 86.5802 96.7652"
      stroke="black"
      strokeWidth="0.6"
    />
    <path
      fillRule="evenodd"
      clipRule="evenodd"
      d="M95.4568 51.0996L98.3622 67.1614L107.243 73.7256L108.583 73.1323L106.705 67.1614L101.182 57.7577L97.6645 54.2247L97.3199 51.0996H95.4568Z"
      fill="white"
    />
    <path
      fillRule="evenodd"
      clipRule="evenodd"
      d="M104.848 54.2252C104.848 54.2252 99.3413 53.0896 97.082 52.0525C94.8228 51.0155 91.3965 48.0507 91.3965 48.0507C91.3965 48.0507 97.3559 37.3272 103.289 39.3919C109.223 41.4566 104.848 54.2252 104.848 54.2252Z"
      fill="black"
      stroke="black"
      strokeWidth="0.6"
    />
    <path
      fillRule="evenodd"
      clipRule="evenodd"
      d="M93.5742 31.9501C93.5742 31.9501 94.0617 32.6058 93.0741 33.8596C92.0865 35.1135 89.3247 36.2853 89.6603 36.8223C89.9958 37.3593 92.7196 35.6914 93.0842 36.275C93.4489 36.8585 91.1699 37.5991 90.5331 37.997C89.8964 38.3949 88.2555 38.8205 88.2555 38.8205C88.2555 38.8205 86.5888 36.3151 86.279 36.5087C86.0693 36.6397 88.5717 34.551 90.8015 33.1576C91.8657 32.4927 93.5742 31.9501 93.5742 31.9501Z"
      fill="white"
      stroke="black"
      strokeWidth="0.6"
    />
    <path
      fillRule="evenodd"
      clipRule="evenodd"
      d="M95.4568 51.0998C95.4568 51.0998 94.011 54.3419 89.6952 52.2348C89.5968 52.1868 82.9142 50.0285 80.825 48.6057C79.7924 47.9025 78.0367 46.6416 78.7824 45.7578C79.528 44.8739 89.2704 39.0931 89.2704 39.0931C89.2704 39.0931 88.6191 34.4513 84.8985 36.3969C82.4142 37.5194 74.8947 41.2857 73.0496 45.2892C72.4479 46.595 72.2817 47.5984 73.4882 49.6475C76.7967 55.2667 83.5704 56.788 82.9722 59.8015C82.9128 60.1005 82.7768 60.6297 82.5617 60.9589C80.1794 64.6053 72.2817 85.6089 72.2817 85.6089C72.2817 85.6089 83.3948 102.165 103.189 95.7325C103.189 79.1867 102.766 74.1392 102.766 74.1392"
      fill="white"
    />
    <path
      d="M95.4568 51.0998C95.4568 51.0998 94.011 54.3419 89.6952 52.2348C89.5968 52.1868 82.9142 50.0285 80.825 48.6057C79.7924 47.9025 78.0367 46.6416 78.7824 45.7578C79.528 44.8739 89.2704 39.0931 89.2704 39.0931C89.2704 39.0931 88.6191 34.4513 84.8985 36.3969C82.4142 37.5194 74.8947 41.2857 73.0496 45.2892C72.4479 46.595 72.2817 47.5984 73.4882 49.6475C76.7967 55.2667 83.5704 56.788 82.9722 59.8015C82.9128 60.1005 82.7768 60.6297 82.5617 60.9589C80.1794 64.6053 72.2817 85.6089 72.2817 85.6089C72.2817 85.6089 83.3948 102.165 103.189 95.7325C103.189 79.1867 102.766 74.1392 102.766 74.1392"
      stroke="black"
      strokeWidth="0.6"
    />
    <path
      fillRule="evenodd"
      clipRule="evenodd"
      d="M108.482 72.1517L113.76 65.2109L117.321 68.164L108.482 81.4319C108.482 81.4319 106.169 83.8321 104.104 79.1129C102.039 74.3936 100.382 66.3524 100.382 65.2109"
      fill="white"
    />
    <path
      d="M108.482 72.1517L113.76 65.2109L117.321 68.164L108.482 81.4319C108.482 81.4319 106.169 83.8321 104.104 79.1129C102.039 74.3936 100.382 66.3524 100.382 65.2109"
      stroke="black"
      strokeWidth="0.6"
    />
    <path
      fillRule="evenodd"
      clipRule="evenodd"
      d="M95.4568 51.0996L98.9303 53.0086C98.9303 53.0086 97.9158 55.0763 100.242 55.9987C102.569 56.9211 106.431 56.3517 106.705 60.5996C106.978 64.8475 107.911 72.7498 108.949 73.5336"
      fill="white"
    />
    <path
      d="M95.4568 51.0996L98.9303 53.0086C98.9303 53.0086 97.9158 55.0763 100.242 55.9987C102.569 56.9211 106.431 56.3517 106.705 60.5996C106.978 64.8475 107.911 72.7498 108.949 73.5336"
      stroke="black"
      strokeWidth="0.6"
    />
    <path
      fillRule="evenodd"
      clipRule="evenodd"
      d="M116.735 60.8004C116.735 60.8004 115.841 61.9477 115.576 62.4114C115.312 62.8751 115.154 62.8751 114.654 63.7514C114.155 64.6277 114.034 65.4231 114.034 65.4231L117.128 68.005C117.128 68.005 119.376 65.2223 119.74 64.5516C119.945 64.1719 120.145 63.7642 120.214 63.0008C120.252 62.5744 119.945 60.5879 119.945 60.5879C119.945 60.5879 119.037 61.7311 118.429 62.5057C117.82 63.2803 116.72 64.2733 116.357 63.7514C116.166 63.4762 117.017 62.1041 117.128 61.1579C117.158 60.9076 116.735 60.8004 116.735 60.8004Z"
      fill="white"
      stroke="black"
      strokeWidth="0.6"
      strokeLinejoin="round"
    />
    <path
      d="M93.8557 52.8926C93.9761 53.2686 94.6444 54.56 95.9999 54.9518C96.7104 55.1571 97.6434 55.1043 98.7128 54.9518"
      stroke="black"
      strokeWidth="0.6"
    />
    <circle r="5.01963" transform="matrix(-0.951057 -0.309017 -0.309017 0.951057 163.427 111.16)" fill="#2B6BEF" stroke="black" strokeWidth="0.6" />
    <mask id="path-50-inside-1_19895_114097" fill="white">
      <path
        fillRule="evenodd"
        clipRule="evenodd"
        d="M168.546 112.609C169.322 109.872 167.8 106.988 165.071 106.102C163.891 105.719 162.675 105.769 161.595 106.166C160.819 108.903 162.342 111.787 165.071 112.673C166.25 113.056 167.466 113.006 168.546 112.609Z"
      />
    </mask>
    <path
      fillRule="evenodd"
      clipRule="evenodd"
      d="M168.546 112.609C169.322 109.872 167.8 106.988 165.071 106.102C163.891 105.719 162.675 105.769 161.595 106.166C160.819 108.903 162.342 111.787 165.071 112.673C166.25 113.056 167.466 113.006 168.546 112.609Z"
      fill="white"
    />
    <path
      d="M168.546 112.609L168.753 113.172L169.04 113.067L169.123 112.772L168.546 112.609ZM165.071 106.102L164.885 106.672L165.071 106.102ZM161.595 106.166L161.389 105.603L161.102 105.708L161.018 106.002L161.595 106.166ZM165.071 112.673L164.885 113.244H164.885L165.071 112.673ZM169.123 112.772C169.987 109.726 168.293 106.518 165.256 105.531L164.885 106.672C167.306 107.459 168.657 110.017 167.968 112.445L169.123 112.772ZM165.256 105.531C163.944 105.105 162.59 105.161 161.389 105.603L161.802 106.729C162.761 106.377 163.838 106.332 164.885 106.672L165.256 105.531ZM161.018 106.002C160.154 109.049 161.848 112.257 164.885 113.244L165.256 112.103C162.835 111.316 161.484 108.758 162.173 106.33L161.018 106.002ZM164.885 113.244C166.197 113.67 167.551 113.613 168.753 113.172L168.339 112.046C167.38 112.398 166.303 112.443 165.256 112.103L164.885 113.244Z"
      fill="black"
      mask="url(#path-50-inside-1_19895_114097)"
    />
    <path
      d="M30.8706 73.1524C30.8706 73.1524 32.1978 75.2474 33.6712 75.2474C35.1446 75.2474 35.9642 73.1524 37.6607 73.1524C39.3573 73.1524 39.7756 75.2474 41.1547 75.2474C42.5338 75.2474 42.6382 73.1524 44.1366 73.1524C45.6351 73.1524 45.6174 75.2474 47.0977 75.2474C48.5779 75.2474 48.5624 73.1524 50.0579 73.1524C51.5534 73.1524 51.5315 75.2474 53.1272 75.2474C54.7229 75.2474 54.8681 73.1524 56.439 73.1524C58.0099 73.1524 58.1854 75.2474 59.8228 75.2474"
      stroke="white"
      strokeWidth="0.6"
    />
    <path
      fillRule="evenodd"
      clipRule="evenodd"
      d="M167.216 34.8588C168.397 36.2592 170.238 37.0545 172.192 36.8146C175.266 36.4372 177.452 33.6393 177.074 30.5654C176.697 27.4915 173.899 25.3055 170.825 25.683C168.762 25.9362 167.099 27.2795 166.342 29.0647"
      fill="white"
    />
    <path
      d="M167.216 34.8588C168.397 36.2592 170.238 37.0545 172.192 36.8146C175.266 36.4372 177.452 33.6393 177.074 30.5654C176.697 27.4915 173.899 25.3055 170.825 25.683C168.762 25.9362 167.099 27.2795 166.342 29.0647"
      stroke="black"
      strokeWidth="0.6"
    />
    <path d="M166.215 27.293V29.1837L167.879 28.3392" stroke="black" strokeWidth="0.6" strokeLinecap="round" strokeLinejoin="round" />
    <path d="M171.13 28.7344V31.6574H174.983" stroke="black" strokeWidth="0.6" strokeLinecap="round" strokeLinejoin="round" />
  </svg>