<svg width="190" height="190" viewBox="0 0 190 190" fill="none" xmlns="http://www.w3.org/2000/svg">
<mask id="mask0_19895_112988" style="mask-type:alpha" maskUnits="userSpaceOnUse" x="0" y="0" width="190" height="190">
<rect width="190" height="190" fill="white"/>
</mask>
<g mask="url(#mask0_19895_112988)">
<path d="M144.484 31.0845C189.5 46.7237 179.611 105.605 164.562 110.971C155.826 124.638 134.551 149.012 119.335 137.177C100.314 122.383 82.5618 129.146 76.0103 130.203C70.769 131.048 63.5412 125.342 60.5824 122.383C52.9742 123.299 34.2917 124.581 20.4278 122.383C4.99166 110.091 17.3274 91.6961 36.1076 90.2876C53.0148 89.0195 60.5824 107.801 70.3041 81.1721C80.0257 54.5433 99.469 15.4454 144.484 31.0845Z" fill="#2B6BEF" stroke="black" stroke-width="0.6"/>
<path fill-rule="evenodd" clip-rule="evenodd" d="M20.9087 49.8189C20.9087 50.6407 21.5503 51.307 22.3721 51.307C29.005 51.307 56.2051 51.307 62.8374 51.307C63.6592 51.307 64.3008 50.6407 64.3008 49.8189V39.5701C64.3008 38.7483 63.6346 38.082 62.8127 38.082H22.3968C21.5749 38.082 20.9087 38.7483 20.9087 39.5701V49.8189Z" fill="black" stroke="black" stroke-width="0.6"/>
<g clip-path="url(#clip0_19895_112988)">
<circle cx="30.7661" cy="45.1669" r="3.95325" fill="white" stroke="black" stroke-width="0.595239"/>
<path d="M41.807 43.0254L43.2594 45.0671L41.6939 47.2754H42.2951L43.557 45.454L44.8249 47.2754H45.4261L43.8487 45.0671L45.313 43.0254H44.7118L43.557 44.6801L42.4082 43.0254H41.807ZM46.4899 43.0254L47.9423 45.0671L46.3768 47.2754H46.978L48.2399 45.454L49.5077 47.2754H50.1089L48.5315 45.0671L49.9958 43.0254H49.3946L48.2399 44.6801L47.0911 43.0254H46.4899ZM51.1727 43.0254L52.6251 45.0671L51.0596 47.2754H51.6608L52.9227 45.454L54.1906 47.2754H54.7918L53.2144 45.0671L54.6787 43.0254H54.0775L52.9227 44.6801L51.7739 43.0254H51.1727Z" fill="white"/>
</g>
<path d="M20.5797 77.2993V77.1565L20.4689 77.0665L18.9731 75.851L20.4755 74.5569L20.5797 74.4672V74.3296V73.3767C20.5797 72.3096 21.4447 71.4445 22.5118 71.4445H69.3066C70.3737 71.4445 71.2387 72.3096 71.2387 73.3767V102.673C71.2387 103.74 70.3737 104.605 69.3066 104.605H22.5118C21.4447 104.605 20.5797 103.74 20.5797 102.673V77.2993Z" fill="white" stroke="black" stroke-width="0.6"/>
<path d="M26.1212 79.757H66.3899V101.323H26.1212V79.757Z" stroke="black" stroke-width="0.6"/>
<rect x="74.5903" y="98.7531" width="13.3565" height="6.29075" rx="1.1881" fill="white" stroke="black" stroke-width="0.6"/>
<circle cx="81.2239" cy="99.434" r="3.65745" fill="white" stroke="black" stroke-width="0.6"/>
<circle cx="79.685" cy="98.4232" r="0.359575" fill="black" stroke="black" stroke-width="0.6"/>
<circle cx="82.6751" cy="98.4232" r="0.359575" fill="black" stroke="black" stroke-width="0.6"/>
<path d="M21.4832 123.535V123.408L21.3924 123.319L19.8745 121.844L21.4006 120.24L21.4832 120.153V120.033V119.508C21.4832 118.44 22.3483 117.575 23.4154 117.575H68.9765C70.0436 117.575 70.9087 118.44 70.9087 119.508V126.834C70.9087 127.901 70.0436 128.766 68.9765 128.766H23.4154C22.3483 128.766 21.4832 127.901 21.4832 126.834V123.535Z" fill="white" stroke="black" stroke-width="0.6"/>
<mask id="mask1_19895_112988" style="mask-type:alpha" maskUnits="userSpaceOnUse" x="5" y="117" width="13" height="12">
<circle cx="11.401" cy="123.099" r="5.66783" fill="#D8D8D8"/>
</mask>
<g mask="url(#mask1_19895_112988)">
<path d="M12.1511 124.033C9.9147 123.966 10.0503 122.678 5.50972 121.797L5.1709 128.71L10.1858 130.336L16.6239 128.71C17.8664 126.744 19.9311 122.61 18.2504 121.797C16.1496 120.781 14.3875 124.101 12.1511 124.033Z" fill="#2B6BEF" stroke="black" stroke-width="0.6"/>
</g>
<circle cx="11.401" cy="123.099" r="5.36783" stroke="black" stroke-width="0.6"/>
<mask id="mask2_19895_112988" style="mask-type:alpha" maskUnits="userSpaceOnUse" x="5" y="69" width="13" height="13">
<circle cx="11.401" cy="75.5682" r="5.66783" fill="#D8D8D8"/>
</mask>
<g mask="url(#mask2_19895_112988)">
<path d="M12.1511 76.5022C9.9147 76.4345 10.0503 75.1468 5.50972 74.2659L5.1709 81.1783L10.1858 82.8048L16.6239 81.1783C17.8664 79.213 19.9311 75.079 18.2504 74.2659C16.1496 73.2494 14.3875 76.57 12.1511 76.5022Z" fill="#2B6BEF" stroke="black" stroke-width="0.6"/>
</g>
<circle cx="11.401" cy="75.5682" r="5.36783" stroke="black" stroke-width="0.6"/>
<path d="M181.408 128.939C182.828 134.634 180.684 140.682 175.995 145.865C171.308 151.047 164.1 155.337 155.478 157.487C146.856 159.637 138.478 159.233 131.907 156.858C125.333 154.482 120.601 150.149 119.181 144.454C117.761 138.759 119.905 132.712 124.594 127.528C129.281 122.346 136.489 118.056 145.111 115.906C153.733 113.757 162.111 114.16 168.682 116.535C175.256 118.911 179.988 123.244 181.408 128.939Z" fill="black" stroke="black" stroke-width="0.6"/>
<path d="M106.136 78.1711C106.136 78.1711 97.7498 78.1609 96.6269 78.1711C92.9981 78.2042 89.4287 78.201 88.284 78.8155C84.5477 80.1984 84.2017 83.3276 84.2017 85.0868C84.2017 87.4021 85.6404 90.1198 88.284 91.0004C89.406 91.4799 113.041 91.3098 113.041 91.3098C113.041 91.3098 117.016 91.0256 118.259 89.0212C119.502 87.0167 119.135 82.5976 119.135 82.5976L121.776 81.131C121.891 81.0676 121.873 80.8981 121.749 80.859L118.479 79.8323" stroke="white" stroke-width="0.6" stroke-linejoin="round"/>
<circle cx="96.1211" cy="83.527" r="0.472319" fill="white"/>
<circle cx="98.9551" cy="83.527" r="0.472319" fill="white"/>
<circle cx="101.789" cy="83.527" r="0.472319" fill="white"/>
<circle cx="104.623" cy="83.527" r="0.472319" fill="white"/>
<circle cx="107.457" cy="83.527" r="0.472319" fill="white"/>
<circle cx="110.291" cy="83.527" r="0.472319" fill="white"/>
<path d="M72.2828 87.1319C72.2828 87.1319 80.359 84.7938 84.2017 86.3029" stroke="white" stroke-width="0.6"/>
<path fill-rule="evenodd" clip-rule="evenodd" d="M68.1702 87.0751L73.8305 89.4434V84.6035L68.1702 87.0751Z" fill="white" stroke="black" stroke-width="0.6"/>
<path fill-rule="evenodd" clip-rule="evenodd" d="M92.4153 90.995L87.4261 90.995C87.4261 90.995 91.0326 97.2843 95.0553 98.0276C96.8578 98.3606 99.5463 105.735 104.686 114.128C107.257 118.326 113.83 126.16 117.135 127.159C120.441 128.157 122.278 126.639 125.537 121.417C128.796 116.195 118.043 111.129 118.043 111.129L117.135 114.855L111.401 109.139L100.036 96.9691L92.4153 90.995Z" fill="white"/>
<path d="M92.4153 90.995L87.4261 90.995C87.4261 90.995 91.0326 97.2843 95.0553 98.0276C96.8578 98.3606 100.159 107.652 106.103 116.062C109.681 121.126 111.056 122.77 112.745 124.184C114.045 125.271 117.051 127.443 119.301 127.429C122.202 127.411 124.55 122.816 126.334 119.956" stroke="black" stroke-width="0.6"/>
<path fill-rule="evenodd" clip-rule="evenodd" d="M90.9217 91.4193C90.9217 91.4193 92.3014 89.3432 92.3014 87.3933C92.3014 85.4435 92.211 83.5643 93.3493 83.8549C94.4876 84.1456 93.654 85.3152 94.742 88.4332C95.83 91.5512 97.4253 91.1096 97.4253 93.4823C97.4253 94.9273 103.301 99.694 107.898 104.634C110.848 107.806 112.212 109.584 116.945 114.651" fill="white"/>
<path d="M90.9217 91.4193C90.9217 91.4193 92.3014 89.3432 92.3014 87.3933C92.3014 85.4435 92.211 83.5643 93.3493 83.8549C94.4876 84.1456 93.654 85.3152 94.742 88.4332C95.83 91.5512 97.4253 91.1096 97.4253 93.4823C97.4253 94.9273 103.301 99.694 107.898 104.634C110.848 107.806 112.212 109.584 116.945 114.651" stroke="black" stroke-width="0.6"/>
<path d="M117.615 113.758C117.615 113.758 117.135 114.856 116.274 115.544" stroke="black" stroke-width="0.6"/>
<path fill-rule="evenodd" clip-rule="evenodd" d="M127.939 81.8274C127.939 81.8274 124.951 85.2356 119.703 74.4183C114.454 63.601 119.442 55.033 127.986 56.6938C136.53 58.3546 134.597 68.9763 136.061 74.7989C137.526 80.6215 142.624 83.9534 142.624 83.9534C142.624 83.9534 139.276 87.7036 137.101 88.278C134.925 88.8524 128.989 88.278 128.989 88.278C128.989 88.278 130.134 82.6626 129.931 82.2145C129.46 81.1767 127.939 81.8274 127.939 81.8274Z" fill="white" stroke="black" stroke-width="0.6"/>
<path fill-rule="evenodd" clip-rule="evenodd" d="M117.227 66.3801C117.123 66.9195 120.126 72.6563 121.898 73.0007C123.669 73.345 122.352 68.0178 125.148 70.169C127.943 72.3201 125.209 74.7585 125.209 74.7585C125.209 74.7585 131.358 80.1217 135.616 76.7814C139.873 73.4412 138.907 54.1817 127.528 55.113C116.149 56.0444 117.332 65.8406 117.227 66.3801Z" fill="black" stroke="black" stroke-width="0.6"/>
<circle cx="137.101" cy="54.0085" r="7.94327" transform="rotate(11 137.101 54.0085)" fill="black" stroke="black" stroke-width="0.6"/>
<circle cx="149.463" cy="48.0129" r="6.56939" transform="rotate(11 149.463 48.0129)" fill="black" stroke="black" stroke-width="0.6"/>
<circle cx="161.057" cy="49.5674" r="4.50857" transform="rotate(11 161.057 49.5674)" fill="black" stroke="black" stroke-width="0.6"/>
<circle cx="167.45" cy="53.4813" r="2.44776" transform="rotate(11 167.45 53.4813)" fill="black" stroke="black" stroke-width="0.6"/>
<path fill-rule="evenodd" clip-rule="evenodd" d="M127.436 100.111C127.889 100.111 142.443 107.579 142.443 107.579L131.323 116.607L126.724 110.398C126.724 110.398 126.983 100.111 127.436 100.111Z" fill="white"/>
<path fill-rule="evenodd" clip-rule="evenodd" d="M129.106 103.665C129.106 103.665 129.194 110.227 129.136 112.326C129.02 116.525 129.234 120.438 128.818 120.357C128.37 120.27 124.549 120.617 120.615 117.115C119.025 115.7 114.792 110.678 114.792 110.678C114.792 110.678 118.428 100.697 120.058 96.4342C121.687 92.1712 129.251 85.2536 129.251 85.2536C129.251 85.2536 133.593 86.5533 136.277 85.2536C138.961 83.9539 138.961 82.9166 139.916 82.1519C142.501 80.0821 151.24 84.1629 155.141 86.0374C159.041 87.912 174.284 97.9227 174.284 97.9227C174.284 97.9227 172.485 103.757 169.916 107.001C167.347 110.244 164.791 110.993 164.791 110.993" fill="white"/>
<path d="M129.106 103.665C129.106 103.665 129.194 110.227 129.136 112.326C129.02 116.525 129.234 120.438 128.818 120.357C128.37 120.27 124.549 120.617 120.615 117.115C119.025 115.7 114.792 110.678 114.792 110.678C114.792 110.678 118.428 100.697 120.058 96.4342C121.687 92.1712 129.251 85.2536 129.251 85.2536C129.251 85.2536 133.593 86.5533 136.277 85.2536C138.961 83.9539 138.961 82.9166 139.916 82.1519C142.501 80.0821 151.24 84.1629 155.141 86.0374C159.041 87.912 174.284 97.9227 174.284 97.9227C174.284 97.9227 172.485 103.757 169.916 107.001C167.347 110.244 164.791 110.993 164.791 110.993" stroke="black" stroke-width="0.6"/>
<path fill-rule="evenodd" clip-rule="evenodd" d="M129.136 112.327L135.477 157.902C135.477 157.902 146.331 160.648 159.061 156.572C170.6 152.878 175.627 146.43 177.482 143.903C171.386 121.576 154.806 92.3604 154.806 92.3604" fill="white"/>
<path d="M129.136 112.327L135.477 157.902C135.477 157.902 146.331 160.648 159.061 156.572C170.6 152.878 175.627 146.43 177.482 143.903C171.386 121.576 154.806 92.3604 154.806 92.3604" stroke="black" stroke-width="0.6"/>
<ellipse cx="103.859" cy="37.6698" rx="13.2722" ry="13.2773" fill="white" stroke="black" stroke-width="0.6"/>
<path fill-rule="evenodd" clip-rule="evenodd" d="M103.859 25.3438V27.2468Z" fill="white"/>
<path d="M103.859 25.3438V27.2468" stroke="black" stroke-width="0.6"/>
<path fill-rule="evenodd" clip-rule="evenodd" d="M112.571 28.9543L111.226 30.3Z" fill="white"/>
<path d="M112.571 28.9543L111.226 30.3" stroke="black" stroke-width="0.6"/>
<path fill-rule="evenodd" clip-rule="evenodd" d="M116.179 37.6709H114.277Z" fill="white"/>
<path d="M116.179 37.6709H114.277" stroke="black" stroke-width="0.6"/>
<path fill-rule="evenodd" clip-rule="evenodd" d="M91.5378 37.669H93.4401Z" fill="white"/>
<path d="M91.5378 37.669H93.4401" stroke="black" stroke-width="0.6"/>
<path fill-rule="evenodd" clip-rule="evenodd" d="M95.1465 28.9536L96.4916 30.2992Z" fill="white"/>
<path d="M95.1465 28.9536L96.4916 30.2992" stroke="black" stroke-width="0.6"/>
<path d="M103.795 31.8633L103.859 38.1299L109.954 43.6822" stroke="black" stroke-width="0.6"/>
<path fill-rule="evenodd" clip-rule="evenodd" d="M103.859 32.0371C103.859 32.0371 104.633 34.0124 104.633 35.3693C104.633 36.7262 103.859 38.129 103.859 38.129" fill="black"/>
<path d="M103.859 32.0371C103.859 32.0371 104.633 34.0124 104.633 35.3693C104.633 36.7262 103.859 38.129 103.859 38.129" stroke="black" stroke-width="0.6"/>
<ellipse cx="103.822" cy="38.0855" rx="0.491563" ry="0.491751" fill="black" stroke="black" stroke-width="0.6"/>
<path fill-rule="evenodd" clip-rule="evenodd" d="M103.859 49.9961V48.0931Z" fill="white"/>
<path d="M103.859 49.9961V48.0931" stroke="black" stroke-width="0.6"/>
<path fill-rule="evenodd" clip-rule="evenodd" d="M95.1465 46.3855L96.4916 45.0399Z" fill="white"/>
<path d="M95.1465 46.3855L96.4916 45.0399" stroke="black" stroke-width="0.6"/>
<path fill-rule="evenodd" clip-rule="evenodd" d="M53.6399 144.766L57.1146 142.307L54.883 140.174L52.4241 143.842L53.6399 144.766Z" fill="white" stroke="black" stroke-width="0.6"/>
<circle cx="63.804" cy="132.651" r="11.814" fill="white" stroke="black" stroke-width="0.6"/>
<path d="M51.563 143.045L54.1448 145.627C54.3182 145.8 54.3182 146.081 54.1448 146.255L40.1418 160.258C39.9684 160.431 39.6872 160.431 39.5138 160.258L36.932 157.676C36.7586 157.502 36.7586 157.221 36.932 157.048L50.935 143.045C51.1084 142.871 51.3896 142.871 51.563 143.045Z" fill="white" stroke="black" stroke-width="0.6"/>
<path d="M28.0547 75.1962H52.9441" stroke="black" stroke-width="0.6"/>
<path d="M28.0547 77.4287H52.9441" stroke="black" stroke-width="0.6"/>
<path fill-rule="evenodd" clip-rule="evenodd" d="M66.5037 84.7559C62.2667 90.1578 57.4008 92.4643 52.0703 91.7337C43.1479 90.5108 32.6835 89.252 26.1108 93.1776C26.1108 96.073 26.1108 101.144 26.1108 101.144L66.5037 101.621C66.5037 101.621 66.6898 88.5814 66.5037 84.7559Z" fill="#2B6BEF" stroke="black" stroke-width="0.6" stroke-linecap="round" stroke-linejoin="round"/>
<path d="M81.2087 102.047C82.4415 102.047 83.4409 101.047 83.4409 99.8145H78.9766C78.9766 101.047 79.9759 102.047 81.2087 102.047Z" fill="black"/>
<mask id="mask3_19895_112988" style="mask-type:alpha" maskUnits="userSpaceOnUse" x="53" y="122" width="21" height="21">
<circle cx="63.8038" cy="132.652" r="9.61148" fill="white" stroke="black" stroke-width="0.6"/>
</mask>
<g mask="url(#mask3_19895_112988)">
<path d="M70.0479 131.438H54.2832C52.1907 129.578 54.7948 122.881 59.6312 121.765C65.1763 120.486 70.6679 123.501 71.5359 125.113L71.536 129.95C71.536 130.772 70.8697 131.438 70.0479 131.438Z" fill="#2B6BEF" stroke="black" stroke-width="0.6"/>
</g>
<circle cx="63.8038" cy="132.652" r="9.61148" stroke="black" stroke-width="0.6"/>
<path fill-rule="evenodd" clip-rule="evenodd" d="M113.203 77.4941H110.971V79.7263H111.984C111.962 80.1578 111.925 80.6664 111.865 80.909C111.752 81.3745 111.428 82.0499 111.428 82.0499H112.269C112.269 82.0499 112.802 81.4728 113.027 80.9947C113.147 80.7389 113.189 80.1856 113.202 79.7263H113.203V79.7077C113.213 79.3224 113.203 79.0078 113.203 78.9988V77.4941Z" fill="white"/>
<path fill-rule="evenodd" clip-rule="evenodd" d="M116.296 77.4941H114.064V79.7263H115.078C115.056 80.1578 115.018 80.6664 114.959 80.909C114.845 81.3745 114.521 82.0499 114.521 82.0499H115.362C115.362 82.0499 115.896 81.4728 116.121 80.9947C116.241 80.7389 116.283 80.1856 116.296 79.7263H116.296V79.7079C116.307 79.3169 116.296 78.9986 116.296 78.9986V77.4941Z" fill="white"/>
</g>
<defs>
<clipPath id="clip0_19895_112988">
<rect width="31.2501" height="9.67264" fill="white" transform="translate(26.5153 40.916)"/>
</clipPath>
</defs>
</svg>
