<svg width="12" height="12" viewBox="0 0 12 12" fill="none" xmlns="http://www.w3.org/2000/svg"><path fill-rule="evenodd" clip-rule="evenodd" d="M5.22485 2.475C5.22485 2.00556 5.60541 1.625 6.07485 1.625C6.5443 1.625 6.92485 2.00556 6.92485 2.475C6.92485 2.94444 6.5443 3.325 6.07485 3.325C5.60541 3.325 5.22485 2.94444 5.22485 2.475ZM6.07485 0.625C5.05313 0.625 4.22485 1.45327 4.22485 2.475C4.22485 3.49673 5.05313 4.325 6.07485 4.325C6.70051 4.325 7.25362 4.01442 7.58843 3.53902C8.45153 4.02345 9.07113 4.89037 9.21703 5.90992L10.2069 5.76826C10.0074 4.37366 9.13132 3.19754 7.92174 2.58327C7.92381 2.54745 7.92485 2.51135 7.92485 2.475C7.92485 1.45327 7.09658 0.625 6.07485 0.625ZM3.86557 3.9241C3.18122 4.52065 2.75 5.39719 2.75 6.37503C2.75 6.45988 2.75325 6.54396 2.75962 6.62717C2.78957 6.62573 2.8197 6.625 2.85 6.625C3.87173 6.625 4.7 7.45327 4.7 8.475C4.7 9.49673 3.87173 10.325 2.85 10.325C1.82827 10.325 1 9.49673 1 8.475C1 7.84768 1.31224 7.29328 1.78978 6.95874C1.76356 6.76792 1.75 6.57305 1.75 6.37503C1.75 5.09611 2.31553 3.94868 3.20847 3.1703L3.86557 3.9241ZM9.6 10.325C9.14205 10.325 8.72297 10.1586 8.39991 9.88298C7.71714 10.3509 6.89046 10.625 6 10.625C5.58981 10.625 5.19238 10.5668 4.81594 10.4578L5.09409 9.49723C5.38105 9.58033 5.68488 9.62503 6 9.62503C6.68395 9.62503 7.31839 9.41405 7.84209 9.05303C7.78233 8.87117 7.75 8.67686 7.75 8.475C7.75 7.45327 8.57827 6.625 9.6 6.625C10.6217 6.625 11.45 7.45327 11.45 8.475C11.45 9.49673 10.6217 10.325 9.6 10.325ZM9.6 7.625C9.13056 7.625 8.75 8.00556 8.75 8.475C8.75 8.94444 9.13056 9.325 9.6 9.325C10.0694 9.325 10.45 8.94444 10.45 8.475C10.45 8.00556 10.0694 7.625 9.6 7.625ZM2 8.475C2 8.00556 2.38056 7.625 2.85 7.625C3.31944 7.625 3.7 8.00556 3.7 8.475C3.7 8.94444 3.31944 9.325 2.85 9.325C2.38056 9.325 2 8.94444 2 8.475Z" fill="url(#paint0_linear_1011_869952)"/><defs><linearGradient id="paint0_linear_1011_869952" x1="6.24717" y1="-1.71763" x2="6.225" y2="10.625" gradientUnits="userSpaceOnUse"><stop stop-color="#4CC9FF"/><stop offset="0.579355" stop-color="#4F69FF"/><stop offset="1" stop-color="#845EFB"/></linearGradient></defs></svg>