<svg width="130" height="130" viewBox="0 0 130 130" fill="none" xmlns="http://www.w3.org/2000/svg">
<rect x="29" y="29" width="74" height="53" rx="3" fill="#E3E7F4"/>
<rect x="29" y="29" width="74" height="46" rx="3" fill="#F1F2FA"/>
<path d="M29 34C29 32.3431 30.3431 31 32 31H100C101.657 31 103 32.3431 103 34V36H29V34Z" fill="#DBDFE2"/>
<path d="M29 32C29 30.3431 30.3431 29 32 29H100C101.657 29 103 30.3431 103 32V34H29V32Z" fill="#363B54"/>
<path d="M75 82H55L52.9126 95.2202C52.4334 98.255 54.779 101 57.8514 101H76C73.6787 100.13 72.3029 97.7329 72.7218 95.2894L75 82Z" fill="#D6DCE9"/>
<rect x="38" y="44" width="21" height="5" fill="#597CFF"/>
<rect x="38" y="53" width="30" height="5" fill="white"/>
<rect x="38" y="61" width="56" height="5" fill="white"/>
<path d="M19 69H17V91C17 93.2091 18.7909 95 21 95H43C44.1046 95 45 94.1046 45 93V73C45 71.8954 44.1046 71 43 71H19V69Z" fill="#597CFF"/>
<path d="M17 68.5C17 67.1193 18.1193 66 19.5 66H29V71H19.5C18.1193 71 17 69.8807 17 68.5Z" fill="#363B54"/>
<mask id="mask0_9058_45167" style="mask-type:alpha" maskUnits="userSpaceOnUse" x="29" y="29" width="74" height="53">
<rect x="29" y="29" width="74" height="53" rx="3" fill="#E3E7F4"/>
</mask>
<g mask="url(#mask0_9058_45167)">
<path d="M85.382 28.4087C84.1297 27.1465 85.0237 25 86.8018 25H114.198C115.976 25 116.87 27.1465 115.618 28.4087L103.705 40.4152C103.334 40.7898 103.125 41.2961 103.125 41.8238V51.2632C103.125 52.0341 102.29 52.5151 101.623 52.1281L98.8709 50.5305C98.2544 50.1726 97.875 49.5137 97.875 48.8008V41.8238C97.875 41.2961 97.6664 40.7898 97.2947 40.4152L85.382 28.4087Z" fill="#DCDEE4"/>
</g>
<path d="M82.382 26.4087C81.1297 25.1465 82.0237 23 83.8018 23H111.198C112.976 23 113.87 25.1465 112.618 26.4087L100.705 38.4152C100.334 38.7898 100.125 39.2961 100.125 39.8238V49.2632C100.125 50.0341 99.2896 50.5151 98.623 50.1281L95.8709 48.5305C95.2544 48.1726 94.875 47.5137 94.875 46.8008V39.8238C94.875 39.2961 94.6664 38.7898 94.2947 38.4152L82.382 26.4087Z" fill="#597CFF"/>
<rect x="63" y="78" width="6" height="2" rx="1" fill="#363B54"/>
<g clip-path="url(#clip0_9058_45167)">
<path d="M31 80.041C30.8515 80.041 30.7091 79.982 30.6041 79.877C30.499 79.772 30.44 79.6295 30.44 79.481V76.601C30.44 76.5275 30.4545 76.4547 30.4827 76.3867C30.5108 76.3188 30.5521 76.257 30.6041 76.205C30.6561 76.153 30.7178 76.1118 30.7857 76.0836C30.8537 76.0555 30.9265 76.041 31 76.041C31.0736 76.041 31.1464 76.0555 31.2143 76.0836C31.2823 76.1118 31.344 76.153 31.396 76.205C31.448 76.257 31.4893 76.3188 31.5174 76.3867C31.5456 76.4547 31.56 76.5275 31.56 76.601V79.481C31.56 79.6295 31.501 79.772 31.396 79.877C31.291 79.982 31.1486 80.041 31 80.041ZM31 89.961C30.9265 89.961 30.8537 89.9465 30.7857 89.9184C30.7178 89.8902 30.6561 89.849 30.6041 89.797C30.5521 89.745 30.5108 89.6833 30.4827 89.6153C30.4545 89.5474 30.44 89.4746 30.44 89.401V86.521C30.44 86.4475 30.4545 86.3747 30.4827 86.3067C30.5108 86.2388 30.5521 86.177 30.6041 86.125C30.6561 86.073 30.7178 86.0318 30.7857 86.0036C30.8537 85.9755 30.9265 85.961 31 85.961C31.0736 85.961 31.1464 85.9755 31.2143 86.0036C31.2823 86.0318 31.344 86.073 31.396 86.125C31.448 86.177 31.4893 86.2388 31.5174 86.3067C31.5456 86.3747 31.56 86.4475 31.56 86.521V89.401C31.56 89.5495 31.501 89.692 31.396 89.797C31.291 89.902 31.1486 89.961 31 89.961ZM33.0931 80.908C33.0411 80.856 32.9998 80.7943 32.9717 80.7263C32.9435 80.6584 32.929 80.5856 32.929 80.512C32.929 80.4385 32.9435 80.3657 32.9717 80.2977C32.9998 80.2298 33.0411 80.1681 33.0931 80.1161L35.1296 78.0796C35.1816 78.0276 35.2433 77.9863 35.3112 77.9582C35.3792 77.93 35.452 77.9155 35.5255 77.9155C35.5991 77.9155 35.6719 77.93 35.7398 77.9582C35.8078 77.9863 35.8695 78.0276 35.9215 78.0796C35.9735 78.1316 36.0147 78.1933 36.0429 78.2612C36.071 78.3292 36.0855 78.402 36.0855 78.4755C36.0855 78.5491 36.071 78.6219 36.0429 78.6898C36.0147 78.7578 35.9735 78.8195 35.9215 78.8715L33.885 80.908C33.833 80.96 33.7713 81.0012 33.7033 81.0294C33.6354 81.0575 33.5626 81.072 33.489 81.072C33.4155 81.072 33.3427 81.0575 33.2747 81.0294C33.2068 81.0012 33.1451 80.96 33.0931 80.908ZM26.0786 87.9225C26.0266 87.8705 25.9853 87.8087 25.9572 87.7408C25.9291 87.6729 25.9146 87.6 25.9146 87.5265C25.9146 87.453 25.9291 87.3801 25.9572 87.3122C25.9853 87.2443 26.0266 87.1825 26.0786 87.1305L28.1151 85.0941C28.1671 85.0421 28.2288 85.0008 28.2967 84.9727C28.3647 84.9445 28.4375 84.93 28.511 84.93C28.5846 84.93 28.6574 84.9445 28.7253 84.9727C28.7933 85.0008 28.855 85.0421 28.907 85.0941C28.959 85.1461 29.0003 85.2078 29.0284 85.2757C29.0565 85.3437 29.071 85.4165 29.071 85.49C29.071 85.5636 29.0565 85.6364 29.0284 85.7043C29.0003 85.7723 28.959 85.834 28.907 85.886L26.8705 87.9225C26.8185 87.9745 26.7568 88.0157 26.6889 88.0439C26.6209 88.072 26.5481 88.0865 26.4746 88.0865C26.401 88.0865 26.3282 88.072 26.2603 88.0439C26.1923 88.0157 26.1306 87.9745 26.0786 87.9225ZM33.96 83.001C33.96 82.8525 34.019 82.7101 34.1241 82.605C34.2291 82.5 34.3715 82.441 34.52 82.441H37.4C37.4736 82.441 37.5464 82.4555 37.6143 82.4836C37.6823 82.5118 37.744 82.553 37.796 82.605C37.848 82.657 37.8893 82.7188 37.9174 82.7867C37.9456 82.8547 37.96 82.9275 37.96 83.001C37.96 83.0746 37.9456 83.1474 37.9174 83.2153C37.8893 83.2833 37.848 83.345 37.796 83.397C37.744 83.449 37.6823 83.4902 37.6143 83.5184C37.5464 83.5465 37.4736 83.561 37.4 83.561H34.52C34.3715 83.561 34.2291 83.502 34.1241 83.397C34.019 83.292 33.96 83.1495 33.96 83.001ZM24.04 83.001C24.04 82.8525 24.099 82.7101 24.2041 82.605C24.3091 82.5 24.4515 82.441 24.6 82.441H27.48C27.5536 82.441 27.6264 82.4555 27.6943 82.4836C27.7623 82.5118 27.824 82.553 27.876 82.605C27.928 82.657 27.9693 82.7188 27.9974 82.7867C28.0256 82.8547 28.04 82.9275 28.04 83.001C28.04 83.0746 28.0256 83.1474 27.9974 83.2153C27.9693 83.2833 27.928 83.345 27.876 83.397C27.824 83.449 27.7623 83.4902 27.6943 83.5184C27.6264 83.5465 27.5536 83.561 27.48 83.561H24.6C24.4515 83.561 24.3091 83.502 24.2041 83.397C24.099 83.292 24.04 83.1495 24.04 83.001ZM33.0931 85.0941C33.1451 85.0421 33.2068 85.0008 33.2747 84.9727C33.3427 84.9445 33.4155 84.93 33.489 84.93C33.5626 84.93 33.6354 84.9445 33.7033 84.9727C33.7713 85.0008 33.833 85.0421 33.885 85.0941L35.9215 87.1305C35.9735 87.1825 36.0147 87.2443 36.0429 87.3122C36.071 87.3801 36.0855 87.453 36.0855 87.5265C36.0855 87.6 36.071 87.6729 36.0429 87.7408C36.0147 87.8087 35.9735 87.8705 35.9215 87.9225C35.8695 87.9745 35.8078 88.0157 35.7398 88.0439C35.6719 88.072 35.5991 88.0865 35.5255 88.0865C35.452 88.0865 35.3792 88.072 35.3112 88.0439C35.2433 88.0157 35.1816 87.9745 35.1296 87.9225L33.0931 85.886C33.0411 85.834 32.9998 85.7723 32.9717 85.7043C32.9435 85.6364 32.929 85.5636 32.929 85.49C32.929 85.4165 32.9435 85.3437 32.9717 85.2757C32.9998 85.2078 33.0411 85.1461 33.0931 85.0941ZM26.0786 78.0796C26.1306 78.0276 26.1923 77.9863 26.2603 77.9582C26.3282 77.93 26.401 77.9155 26.4746 77.9155C26.5481 77.9155 26.6209 77.93 26.6889 77.9582C26.7568 77.9863 26.8185 78.0276 26.8705 78.0796L28.907 80.1161C28.959 80.1681 29.0003 80.2298 29.0284 80.2977C29.0565 80.3657 29.071 80.4385 29.071 80.512C29.071 80.5856 29.0565 80.6584 29.0284 80.7263C29.0003 80.7943 28.959 80.856 28.907 80.908C28.855 80.96 28.7933 81.0012 28.7253 81.0294C28.6574 81.0575 28.5846 81.072 28.511 81.072C28.4375 81.072 28.3647 81.0575 28.2967 81.0294C28.2288 81.0012 28.1671 80.96 28.1151 80.908L26.0786 78.8715C26.0266 78.8195 25.9853 78.7578 25.9572 78.6898C25.9291 78.6219 25.9146 78.5491 25.9146 78.4755C25.9146 78.402 25.9291 78.3292 25.9572 78.2612C25.9853 78.1933 26.0266 78.1316 26.0786 78.0796Z" fill="white" stroke="white" stroke-width="0.3"/>
</g>
<line x1="13.8" y1="106.2" x2="78.2" y2="106.2" stroke="#575E7D" stroke-width="1.6" stroke-linecap="round"/>
<line x1="85.8" y1="106.2" x2="109.2" y2="106.2" stroke="#575E7D" stroke-width="1.6" stroke-linecap="round"/>
<defs>
<clipPath id="clip0_9058_45167">
<rect width="16" height="16" fill="white" transform="translate(23 75)"/>
</clipPath>
</defs>
</svg>
