<svg width="16" height="16" viewBox="0 0 16 16" fill="none" xmlns="http://www.w3.org/2000/svg">
<path d="M5.46726 9.47213C5.17571 9.76635 5.17787 10.2412 5.47209 10.5328C5.76631 10.8243 6.24118 10.8222 6.53274 10.528L5.46726 9.47213ZM6.53274 10.528L13.9848 3.00777L12.9193 1.95195L5.46726 9.47213L6.53274 10.528Z" fill="white"/>
<path d="M6.09091 4H2.5C2.22386 4 2 4.22386 2 4.5V13.5C2 13.7761 2.22386 14 2.5 14H11.5C11.7761 14 12 13.7761 12 13.5V9.90909" stroke="white" stroke-width="1.5" stroke-linecap="round"/>
<path d="M9.5 2.5H13C13.2761 2.5 13.5 2.72386 13.5 3V6.5" stroke="white" stroke-width="1.5" stroke-linecap="round"/>
</svg>
