<svg width="14" height="14" viewBox="0 0 14 14" fill="none" xmlns="http://www.w3.org/2000/svg">
<path fill-rule="evenodd" clip-rule="evenodd" d="M1.2 7C1.2 3.79675 3.79675 1.2 7 1.2C10.2033 1.2 12.8 3.79675 12.8 7C12.8 8.50784 12.2246 9.88129 11.2814 10.9128C11.0408 9.59315 10.1858 8.48792 9.02362 7.90425C9.54784 7.40803 9.87679 6.7077 9.87679 5.92903C9.87679 4.41679 8.63607 3.2 7.13393 3.2C5.63179 3.2 4.39107 4.41679 4.39107 5.92903C4.39107 6.69732 4.71131 7.38935 5.22338 7.8843C3.98975 8.46617 3.06429 9.59404 2.75871 10.9562C1.79173 9.92002 1.2 8.52911 1.2 7ZM10.15 11.8709L10.15 11.6741C10.15 10.0084 8.79966 8.65806 7.13393 8.65806C5.34387 8.65806 3.88833 10.0903 3.85075 11.8714C4.75765 12.4589 5.83898 12.8 7 12.8C8.16133 12.8 9.24295 12.4587 10.15 11.8709ZM-3.41715e-07 7C-3.73908e-09 3.13401 3.13401 3.73891e-09 7 3.41715e-07C10.866 6.79691e-07 14 3.13401 14 7C14 10.866 10.866 14 7 14C3.13401 14 -6.79691e-07 10.866 -3.41715e-07 7ZM8.67679 5.92903C8.67679 6.76845 7.98345 7.45806 7.13393 7.45806C6.2844 7.45806 5.59107 6.76845 5.59107 5.92903C5.59107 5.08961 6.2844 4.4 7.13393 4.4C7.98345 4.4 8.67679 5.08961 8.67679 5.92903Z" fill="#7D8085"/>
</svg>
