<svg width="20" height="20" viewBox="0 0 20 20" fill="none" xmlns="http://www.w3.org/2000/svg">
<path fill-rule="evenodd" clip-rule="evenodd" d="M6.01093 5.6404C5.59671 5.6404 5.26093 5.30462 5.26093 4.8904V2.90039C5.26093 2.48618 5.59671 2.15039 6.01093 2.15039C6.42514 2.15039 6.76093 2.48618 6.76093 2.90039V4.8904C6.76093 5.30462 6.42514 5.6404 6.01093 5.6404ZM13.9861 5.58914C13.5719 5.58914 13.2361 5.25335 13.2361 4.83914V2.92566C13.2361 2.51145 13.5719 2.17566 13.9861 2.17566C14.4003 2.17566 14.7361 2.51145 14.7361 2.92566V4.83914C14.7361 5.25335 14.4003 5.58914 13.9861 5.58914ZM12.5 3.56912H7.50012V5.0696C7.50012 5.89803 6.82855 6.5696 6.00012 6.5696C5.17169 6.5696 4.50012 5.89803 4.50012 5.0696V3.56912H4.5C3.39543 3.56912 2.5 4.46455 2.5 5.56912V7.15261H17.5V5.56912C17.5 4.46455 16.6046 3.56912 15.5 3.56912V5.0696C15.5 5.89803 14.8284 6.5696 14 6.5696C13.1716 6.5696 12.5 5.89803 12.5 5.0696V3.56912ZM2.5 15.5691V8.40261H17.5V15.5691C17.5 16.6737 16.6046 17.5691 15.5 17.5691H4.5C3.39543 17.5691 2.5 16.6737 2.5 15.5691Z" fill="url(#paint0_linear_181_26449)"/>
<path fill-rule="evenodd" clip-rule="evenodd" d="M13.7461 10.2978C14.039 10.5907 14.039 11.0656 13.7461 11.3585L10.0965 15.008C9.80376 15.3008 9.32921 15.3009 9.03625 15.0084L7.00964 12.985C6.71651 12.6923 6.71614 12.2175 7.00881 11.9243C7.30147 11.6312 7.77634 11.6309 8.06947 11.9235L9.56575 13.4175L12.6854 10.2978C12.9783 10.0049 13.4532 10.0049 13.7461 10.2978Z" fill="white"/>
<defs>
<linearGradient id="paint0_linear_181_26449" x1="7.3476" y1="4.30113" x2="12.1332" y2="17.5706" gradientUnits="userSpaceOnUse">
<stop stop-color="#A5DBFF"/>
<stop offset="1" stop-color="#80B6F8"/>
</linearGradient>
</defs>
</svg>
