<svg width="39" height="37" viewBox="0 0 39 37" fill="none" xmlns="http://www.w3.org/2000/svg">
<path d="M0 0L37 37L37 8.00006C37 3.58179 33.4183 5.74624e-05 29 4.98652e-05L0 0Z" fill="#FFF0DB"/>
<path d="M21.7681 6.84479L21.1247 7.48826L23.0834 9.44695L22.1641 10.3662L20.658 8.86005L17.7023 11.8158L18.374 12.4875L18.7205 12.141L21.1317 14.5523L20.7923 14.8917L21.457 15.5563L24.4056 12.6077L22.85 11.0521L23.7692 10.1328L25.7421 12.1057L26.3855 11.4622L24.4127 9.48937L25.4451 8.457C26.1734 9.00147 26.8664 9.42573 27.524 9.74393L27.7573 8.84591C26.3714 8.1388 24.9148 7.02157 23.3803 5.48715L22.9914 6.30032C23.5642 6.87308 24.1299 7.38219 24.6814 7.84889L23.7268 8.80348L21.7681 6.84479ZM19.3498 11.5117L20.7004 10.1611L23.1116 12.5724L21.7611 13.9229L19.3498 11.5117ZM22.5106 3.71231L21.6196 3.68403C21.7964 4.53963 21.8813 5.26087 21.8742 5.83363L22.7864 5.8407C22.7652 5.19723 22.6732 4.48306 22.5106 3.71231ZM20.665 5.23259L19.7317 5.21845C19.8802 6.11647 19.9438 6.87308 19.9084 7.48826L20.8418 7.48826C20.863 6.81651 20.7994 6.05991 20.665 5.23259ZM19.4488 7.8206C18.3104 8.37922 17.1366 8.86005 15.9204 9.27017L16.2951 10.2389C17.4406 9.8005 18.6215 9.28431 19.8236 8.6762L19.4488 7.8206ZM28.8604 10.7975L28.217 11.441L30.8474 14.0714L31.4909 13.428L28.8604 10.7975ZM26.6896 12.4451L26.0391 13.0956L26.9442 14.0007C25.4309 14.8634 24.4481 15.3371 23.9814 15.422C23.9319 15.4149 23.8682 15.3937 23.7834 15.3371L23.3096 16.1362C24.3279 16.8433 25.332 17.4373 26.329 17.9252L26.0603 18.5616L26.9371 18.8444C27.3543 17.8332 27.7008 16.8645 27.9695 15.9453L27.128 15.6553C26.9866 16.122 26.8239 16.6099 26.6401 17.1191C25.9896 16.8221 25.3744 16.4897 24.8087 16.122C25.4451 15.8533 26.3714 15.3654 27.5947 14.6513L29.1857 16.2422L29.8362 15.5917L26.6896 12.4451ZM33.1243 14.227L31.7525 15.5988L30.8545 14.7007L30.2039 15.3513L31.1019 16.2493L31.0383 16.313C29.1786 18.1444 27.4038 19.0424 25.7138 19.0212L25.7704 19.9687C27.6725 19.9899 29.6453 18.9929 31.703 16.9776L31.7666 16.914L32.6434 17.7908C30.7484 19.6576 29.617 20.7465 29.2423 21.0364C28.8463 21.3193 28.4998 21.3122 28.1887 21.0011C28.0048 20.8172 27.7998 20.5839 27.5664 20.3081L27.128 21.0576C27.3967 21.3546 27.5806 21.5668 27.6937 21.6799C28.3372 22.3234 28.9665 22.4153 29.5817 21.9557C30.1827 21.4819 31.6393 20.096 33.9445 17.7908L32.4172 16.2635L33.789 14.8917L33.1243 14.227Z" fill="#E5A344"/>
</svg>
