<svg width="39" height="37" viewBox="0 0 39 37" fill="none" xmlns="http://www.w3.org/2000/svg">
<path d="M0 0L37 37L37 8.00006C37 3.58179 33.4183 5.74624e-05 29 4.98652e-05L0 0Z" fill="#FFF0DB"/>
<path d="M25.5441 6.42053L24.6673 5.79828C24.5966 6.12354 24.4834 6.46296 24.3491 6.80944L21.7681 4.2285L19.6256 6.37103C18.2326 7.73575 16.9598 8.6267 15.8143 9.03682L15.8779 10.1046C17.2568 9.60251 18.7276 8.58428 20.3044 7.04985L21.7964 5.55786L26.9795 10.741L27.6301 10.0904L25.0915 7.5519C25.2754 7.14178 25.4239 6.76701 25.5441 6.42053ZM30.7837 19.5232L26.0461 14.7856L23.3662 17.4655L24.045 18.1444L24.3844 17.8049L27.7644 21.1849L27.425 21.5243L28.1038 22.2032L30.7837 19.5232ZM25.0138 17.1756L26.0886 16.1008L29.4685 19.4808L28.3937 20.5556L25.0138 17.1756ZM28.818 13.0461L30.4019 14.63L29.4261 15.6058L26.4563 12.636L25.7986 13.2936L32.2333 19.7283L32.8909 19.0707L30.0979 16.2776L31.0737 15.3018L33.3293 17.5575L33.9728 16.914L31.7171 14.6583L32.6647 13.7108L31.9929 13.039L31.0454 13.9866L29.8574 12.7986C30.2181 12.6784 30.5787 12.5158 30.9393 12.3249L30.3595 11.5753C29.3978 12.0845 28.3584 12.2754 27.2341 12.1552L27.1068 13.0885C27.6866 13.1451 28.2523 13.131 28.818 13.0461Z" fill="#E5A344"/>
</svg>
