<svg width="16" height="16" viewBox="0 0 16 16" fill="none" xmlns="http://www.w3.org/2000/svg">
  <circle cx="8" cy="8" r="6" fill="#FE5B4C" />
  <path d="M11.0112 9.20592V6.00021H9.42546C9.63118 5.77735 9.84546 5.52021 10.0598 5.22878V4.62021H7.43689C7.52261 4.48307 7.61689 4.34592 7.71975 4.20021L6.81975 3.99449C6.09118 5.04878 5.24261 5.86307 4.26546 6.44592L4.83118 7.13164C5.00261 7.02021 5.16546 6.90878 5.32832 6.78878H10.1455V7.22592H5.61975V7.98021H10.1455V8.41735H5.29404V9.20592H11.0112ZM8.33689 6.00021H6.26261C6.46832 5.7945 6.66546 5.58021 6.86261 5.35735H8.96261C8.74832 5.59735 8.54261 5.81164 8.33689 6.00021ZM5.18261 9.57449C5.01975 10.1916 4.74546 10.7745 4.35118 11.3231L5.12261 11.8116C5.52546 11.2288 5.83404 10.5431 6.05689 9.7545L5.18261 9.57449ZM9.40832 11.9231C9.75118 11.9231 10.0083 11.8631 10.1798 11.7431C10.3683 11.6059 10.4969 11.1945 10.5655 10.5088L9.71689 10.2259C9.69118 10.6631 9.63975 10.9288 9.55404 11.0145C9.48546 11.0831 9.38261 11.1259 9.24546 11.1259H7.58261C7.40261 11.1259 7.31689 11.0231 7.31689 10.8174V9.53164H6.42546V11.0145C6.42546 11.6145 6.72546 11.9231 7.32546 11.9231H9.40832ZM8.46546 9.25735L7.72832 9.71164C8.11404 10.1145 8.41404 10.4831 8.63689 10.8088L9.38261 10.2945C9.16832 10.0031 8.85975 9.65164 8.46546 9.25735ZM10.994 9.36878L10.274 9.82307C10.7712 10.5088 11.1569 11.1345 11.4483 11.7002L12.194 11.1774C11.9112 10.6631 11.5083 10.0545 10.994 9.36878Z" fill="white" />
</svg>
