<svg width="20px" height="20px" viewBox="0 0 20px 20px" fill="none" xmlns="http://www.w3.org/2000/svg">
<path d="M10 18C5.58172 18 2 14.4183 2 10C2 5.58172 5.58172 2 10 2C14.4183 2 18 5.58172 18 10C18 14.4183 14.4183 18 10 18Z" fill="#4C6AFF"/>
<path fill-rule="evenodd" clip-rule="evenodd" d="M9.14961 6.20044C9.14961 5.9243 9.37347 5.70044 9.64961 5.70044H10.3496C10.6258 5.70044 10.8496 5.9243 10.8496 6.20044V6.90044C10.8496 7.17658 10.6258 7.40044 10.3496 7.40044H9.64961C9.37347 7.40044 9.14961 7.17658 9.14961 6.90044V6.20044ZM9.14961 9.05005C9.14961 8.77391 9.37347 8.55005 9.64961 8.55005H10.3496C10.6258 8.55005 10.8496 8.77391 10.8496 9.05005V13.75C10.8496 14.0262 10.6258 14.25 10.3496 14.25H9.64961C9.37347 14.25 9.14961 14.0262 9.14961 13.75L9.14961 9.05005Z" fill="white"/>
</svg>
