<svg width="16" height="16" viewBox="0 0 16 16" fill="none" xmlns="http://www.w3.org/2000/svg">
<path d="M16 0H0V16H16V0Z" fill="white" fill-opacity="0.01"/>
<path d="M7.99967 14.6666C9.84061 14.6666 11.5073 13.9204 12.7137 12.714C13.9201 11.5075 14.6663 9.84085 14.6663 7.99992C14.6663 6.15899 13.9201 4.49232 12.7137 3.28587C11.5073 2.07945 9.84061 1.33325 7.99967 1.33325C6.15874 1.33325 4.49207 2.07945 3.28563 3.28587C2.0792 4.49232 1.33301 6.15899 1.33301 7.99992C1.33301 9.84085 2.0792 11.5075 3.28563 12.714C4.49207 13.9204 6.15874 14.6666 7.99967 14.6666Z" stroke="white" stroke-linejoin="round"/>
<path d="M5.33301 8L7.33301 10L11.333 6" stroke="white" stroke-linecap="round" stroke-linejoin="round"/>
</svg>
