<svg width="16" height="16" viewBox="0 0 16 16" fill="none" xmlns="http://www.w3.org/2000/svg">
<path d="M2.39371 10.9385C2.14365 10.7211 1.76468 10.7475 1.54724 10.9976C1.3298 11.2477 1.35624 11.6266 1.60629 11.8441L2.39371 10.9385ZM5 14L4.60629 14.4528C4.78369 14.607 5.03484 14.6435 5.24877 14.546C5.4627 14.4485 5.6 14.2351 5.6 14H5ZM5.6 2C5.6 1.66863 5.33137 1.4 5 1.4C4.66863 1.4 4.4 1.66863 4.4 2H5.6ZM1.60629 11.8441L4.60629 14.4528L5.39371 13.5472L2.39371 10.9385L1.60629 11.8441ZM5.6 14V2H4.4V14H5.6Z" fill="#262A33" fill-opacity="0.16"/>
<path d="M13.6063 5.06146C13.8563 5.2789 14.2353 5.25246 14.4528 5.0024C14.6702 4.75235 14.6438 4.37337 14.3937 4.15593L13.6063 5.06146ZM11 2L11.3937 1.54724C11.2163 1.39297 10.9652 1.35653 10.7512 1.454C10.5373 1.55148 10.4 1.76491 10.4 2L11 2ZM10.4 14C10.4 14.3314 10.6686 14.6 11 14.6C11.3314 14.6 11.6 14.3314 11.6 14L10.4 14ZM14.3937 4.15593L11.3937 1.54724L10.6063 2.45276L13.6063 5.06146L14.3937 4.15593ZM10.4 2L10.4 14L11.6 14L11.6 2L10.4 2Z" fill="#7D8085"/>
</svg>
