<svg width="16" height="16" viewBox="0 0 16 16" fill="none" xmlns="http://www.w3.org/2000/svg">
<path fill-rule="evenodd" clip-rule="evenodd" d="M11.6861 14.0814L2.59302 1.29071L3.40675 0.709473L12.4999 13.5001L11.6861 14.0814Z" fill="#676A70"/>
<path fill-rule="evenodd" clip-rule="evenodd" d="M10.9016 9.80214C10.9666 9.79471 11.0314 9.78637 11.0962 9.77711L12.9467 9.51276C13.2642 9.4674 13.5 9.19549 13.5 8.87477V2.62832C13.5 2.23875 13.1349 1.95226 12.7565 2.04492L10.9319 2.49176C10.0358 2.71122 9.09194 2.62382 8.25133 2.24355C7.30329 1.81467 6.25111 1.68626 5.23482 1.86858L5.89672 2.79523C6.55934 2.75617 7.22629 2.87741 7.83916 3.15466C8.88361 3.62715 10.0563 3.73573 11.1698 3.46305L12.5 3.13729V8.56641L10.9548 8.78716C10.7104 8.82208 10.4647 8.84185 10.2191 8.84661L10.9016 9.80214ZM4.81512 3.00146L4 3.23436V8.40983L4.81855 8.27341C5.94921 8.08496 7.10879 8.17595 8.19622 8.53842C8.42912 8.61606 8.66592 8.67918 8.90528 8.72768L9.69696 9.83604C9.0806 9.80043 8.46957 9.68363 7.88 9.48711C6.9473 9.17621 5.95272 9.09817 4.98295 9.2598L4 9.42363V14.5001H3V9.00006V3.09434C3 2.73074 3.24104 2.41119 3.59065 2.3113L4.19816 2.13772L4.81512 3.00146Z" fill="#676A70"/>
</svg>
