<svg width="24" height="24" viewBox="0 0 24 24" fill="none" xmlns="http://www.w3.org/2000/svg">
<path d="M21 3H3V21H21V3Z" fill="white" fill-opacity="0.01"/>
<path d="M5.10408 13.5049C4.02267 14.6455 3.52416 15.6276 3.85478 16.2002C4.54506 17.3958 8.58827 16.3538 12.8856 13.8728C17.1828 11.3917 20.1069 8.41122 19.4166 7.21562C19.0503 6.58115 18.3056 6.5763 16.5139 7.08276" stroke="#394259" stroke-width="1.625"/>
<path fill-rule="evenodd" clip-rule="evenodd" d="M17.3349 13.2826C16.6034 15.7454 14.3227 17.5417 11.6224 17.5417C11.1747 17.5417 10.7386 17.4923 10.3191 17.3987C9.48368 17.7481 8.69039 18.0275 7.96623 18.2287C9.05049 18.8265 10.2967 19.1667 11.6224 19.1667C15.7994 19.1667 19.1876 15.7896 19.2057 11.6168C19.1652 11.6522 19.126 11.6889 19.0885 11.7272C18.5953 12.2299 18.0046 12.7541 17.3349 13.2826ZM8.66016 16.7543C6.86988 15.7265 5.66406 13.7957 5.66406 11.5833C5.66406 8.29264 8.3317 5.625 11.6224 5.625C14.9124 5.625 17.5796 8.29154 17.5807 11.5813C17.8724 11.303 18.14 11.0361 18.3831 10.7883C18.6123 10.5547 18.8177 10.3632 18.9975 10.1956C19.021 10.1736 19.0441 10.1521 19.0668 10.1309C18.3892 6.63756 15.3138 4 11.6224 4C7.43424 4 4.03906 7.39517 4.03906 11.5833C4.03906 13.8771 5.05744 15.933 6.66673 17.3236C6.74309 17.3005 6.82252 17.2762 6.90446 17.2511C7.2199 17.1546 7.57254 17.0467 7.93102 16.9543C8.16508 16.894 8.40841 16.8277 8.66016 16.7543Z" fill="#394259"/>
</svg>
