<svg width="16" height="17" viewBox="0 0 16 17" fill="none" xmlns="http://www.w3.org/2000/svg">
<path d="M7 5.79688V6.29688H7.5V5.79688H7ZM9 5.79688H8.5V6.29688H9V5.79688ZM7.5 2.49687C7.5 2.66256 7.36569 2.79688 7.2 2.79688V1.79688C6.8134 1.79688 6.5 2.11028 6.5 2.49687H7.5ZM7.5 5.79688V2.49687H6.5V5.79688H7.5ZM2.7 6.29688H7V5.29688H2.7V6.29688ZM3 5.99688C3 6.16256 2.86569 6.29688 2.7 6.29688V5.29688C2.3134 5.29688 2 5.61028 2 5.99688H3ZM3 8.59688V5.99688H2V8.59688H3ZM2.7 8.29688C2.86569 8.29688 3 8.43119 3 8.59688H2C2 8.98347 2.3134 9.29688 2.7 9.29688V8.29688ZM13.3 8.29688H2.7V9.29688H13.3V8.29688ZM13 8.59688C13 8.43119 13.1343 8.29688 13.3 8.29688V9.29688C13.6866 9.29688 14 8.98348 14 8.59688H13ZM13 5.99688V8.59688H14V5.99688H13ZM13.3 6.29688C13.1343 6.29688 13 6.16256 13 5.99688H14C14 5.61028 13.6866 5.29688 13.3 5.29688V6.29688ZM9 6.29688H13.3V5.29688H9V6.29688ZM8.5 2.49688V5.79688H9.5V2.49688H8.5ZM8.8 2.79688C8.63431 2.79688 8.5 2.66256 8.5 2.49688H9.5C9.5 2.11028 9.1866 1.79688 8.8 1.79688V2.79688ZM7.2 2.79688H8.8V1.79688H7.2V2.79688Z" fill="#6F7485"/>
<path d="M3.46784 8.95765C3.48654 8.86417 3.56862 8.79688 3.66396 8.79688H12.336C12.4314 8.79688 12.5135 8.86417 12.5322 8.95765L13.4522 13.5577C13.4769 13.6814 13.3822 13.7969 13.256 13.7969H2.74396C2.61775 13.7969 2.52309 13.6814 2.54784 13.5577L3.46784 8.95765Z" stroke="#6F7485"/>
<line x1="6" y1="10.7969" x2="6" y2="13.2969" stroke="#6F7485"/>
<line x1="10" y1="10.7969" x2="10" y2="13.2969" stroke="#6F7485"/>
</svg>