<svg width="16" height="16" viewBox="0 0 16 16" fill="none" xmlns="http://www.w3.org/2000/svg">
<path d="M13.5 8C13.5 8.12321 13.4959 8.24548 13.488 8.36667C13.2993 11.2333 10.9144 13.5 8 13.5C5.96422 13.5 4.18678 12.394 3.2358 10.75M2.5 8C2.5 7.87679 2.50405 7.75453 2.51203 7.63333C2.70071 4.76672 5.08564 2.5 8 2.5C10.0375 2.5 11.8163 3.60796 12.7667 5.25427" stroke="#262A33" stroke-opacity="0.9"/>
<mask id="path-2-inside-1" fill="white">
<path d="M3.91421 7.99994L2.5 9.41415L1.08579 7.99994L3.91421 7.99994Z"/>
</mask>
<path d="M3.91421 7.99994L6.03553 10.1213L11.1569 4.99994L3.91421 4.99994L3.91421 7.99994ZM2.5 9.41415L0.37868 11.5355L2.5 13.6568L4.62132 11.5355L2.5 9.41415ZM1.08579 7.99994L1.08579 4.99994L-6.15685 4.99994L-1.03553 10.1213L1.08579 7.99994ZM1.79289 5.87862L0.37868 7.29283L4.62132 11.5355L6.03553 10.1213L1.79289 5.87862ZM4.62132 7.29283L3.20711 5.87862L-1.03553 10.1213L0.37868 11.5355L4.62132 7.29283ZM1.08579 10.9999L3.91421 10.9999L3.91421 4.99994L1.08579 4.99994L1.08579 10.9999Z" fill="#262A33" fill-opacity="0.9" mask="url(#path-2-inside-1)"/>
<mask id="path-4-inside-2" fill="white">
<path d="M12.0858 8.41415L13.5 6.99994L14.9142 8.41415L12.0858 8.41415Z"/>
</mask>
<path d="M12.0858 8.41415L9.96448 6.29283L4.84316 11.4142L12.0858 11.4142L12.0858 8.41415ZM13.5 6.99994L15.6213 4.87862L13.5 2.7573L11.3787 4.87862L13.5 6.99994ZM14.9142 8.41415L14.9142 11.4142L22.1569 11.4142L17.0355 6.29283L14.9142 8.41415ZM14.2071 10.5355L15.6213 9.12126L11.3787 4.87862L9.96448 6.29283L14.2071 10.5355ZM11.3787 9.12126L12.7929 10.5355L17.0355 6.29283L15.6213 4.87862L11.3787 9.12126ZM14.9142 5.41415L12.0858 5.41415L12.0858 11.4142L14.9142 11.4142L14.9142 5.41415Z" fill="#262A33" fill-opacity="0.9" mask="url(#path-4-inside-2)"/>
</svg>
