<svg width="24" height="24" viewBox="0 0 24 24" fill="none" xmlns="http://www.w3.org/2000/svg">
<g filter="url(#filter0_b)">
<rect x="4.75" y="5.75" width="14.5" height="13.5" rx="1.25" stroke="#262A33" stroke-opacity="0.5" stroke-width="1.5" stroke-linecap="round"/>
</g>
<path d="M13.5699 8C13.5738 8 13.5543 8.04297 13.5113 8.12891C13.4723 8.21094 13.4176 8.32422 13.3473 8.46875C13.277 8.61328 13.1949 8.7793 13.1012 8.9668C13.0074 9.1543 12.9078 9.35156 12.8023 9.55859C12.7008 9.76562 12.5953 9.97461 12.4859 10.1855C12.3805 10.3965 12.277 10.5977 12.1754 10.7891C12.0777 10.9805 11.9879 11.1543 11.9059 11.3105C11.8238 11.4668 11.7555 11.5918 11.7008 11.6855C11.8141 11.6191 11.941 11.5801 12.0816 11.5684C12.2262 11.5527 12.3922 11.5488 12.5797 11.5566C12.8492 11.5645 13.0836 11.6113 13.2828 11.6973C13.4859 11.7832 13.6598 11.8906 13.8043 12.0195C13.9488 12.1484 14.068 12.293 14.1617 12.4531C14.2594 12.6094 14.3355 12.7637 14.3902 12.916C14.4449 13.0645 14.482 13.2051 14.5016 13.3379C14.525 13.4668 14.5367 13.5684 14.5367 13.6426C14.5367 13.666 14.5367 13.709 14.5367 13.7715C14.5367 13.834 14.5367 13.9043 14.5367 13.9824C14.5367 14.0566 14.5348 14.1328 14.5309 14.2109C14.5309 14.2891 14.5289 14.3555 14.525 14.4102C14.5211 14.4375 14.5074 14.5098 14.484 14.627C14.4645 14.7402 14.4254 14.877 14.3668 15.0371C14.3121 15.1934 14.232 15.3633 14.1266 15.5469C14.0211 15.7266 13.8824 15.8984 13.7105 16.0625C13.5387 16.2227 13.3297 16.3613 13.0836 16.4785C12.8375 16.5957 12.5445 16.668 12.2047 16.6953C11.8492 16.7266 11.5348 16.7031 11.2613 16.625C10.9879 16.5469 10.7516 16.4355 10.5523 16.291C10.3531 16.1465 10.1871 15.9805 10.0543 15.793C9.92148 15.6016 9.81602 15.4062 9.73789 15.207C9.66367 15.0078 9.61289 14.8164 9.58555 14.6328C9.56211 14.4492 9.5582 14.293 9.57383 14.1641C9.59727 13.9727 9.62266 13.8027 9.65 13.6543C9.67734 13.502 9.70859 13.3574 9.74375 13.2207C9.78281 13.084 9.82578 12.9492 9.87266 12.8164C9.91953 12.6836 9.97422 12.5391 10.0367 12.3828C10.0523 12.3438 10.0953 12.252 10.1656 12.1074C10.2359 11.959 10.3219 11.7773 10.4234 11.5625C10.5289 11.3477 10.6461 11.1113 10.775 10.8535C10.9039 10.5957 11.0328 10.334 11.1617 10.0684C11.4664 9.45117 11.8082 8.76172 12.1871 8H13.5699ZM13.3238 14.252C13.3238 14.1035 13.318 13.9395 13.3063 13.7598C13.2945 13.5801 13.2496 13.4102 13.1715 13.25C13.0973 13.0859 12.9742 12.9453 12.8023 12.8281C12.6305 12.7109 12.3863 12.6406 12.0699 12.6172C11.9215 12.6055 11.7867 12.6211 11.6656 12.6641C11.5445 12.707 11.4371 12.7656 11.3434 12.8398C11.2496 12.9141 11.1676 13 11.0973 13.0977C11.0309 13.1914 10.9742 13.2852 10.9273 13.3789C10.8844 13.4727 10.8531 13.5605 10.8336 13.6426C10.8141 13.7207 10.8043 13.7812 10.8043 13.8242C10.8043 13.9219 10.8062 14.0312 10.8102 14.1523C10.8141 14.2695 10.8258 14.3887 10.8453 14.5098C10.8687 14.627 10.9059 14.7422 10.9566 14.8555C11.0074 14.9648 11.0797 15.0625 11.1734 15.1484C11.2672 15.2344 11.3863 15.3047 11.5309 15.3594C11.6793 15.4141 11.8629 15.4414 12.0816 15.4414C12.2574 15.4453 12.4098 15.4238 12.5387 15.377C12.6715 15.3262 12.7828 15.2637 12.8727 15.1895C12.9664 15.1113 13.0426 15.0254 13.1012 14.9316C13.1598 14.8379 13.2047 14.7461 13.2359 14.6562C13.2711 14.5664 13.2945 14.4863 13.3063 14.416C13.318 14.3418 13.3238 14.2871 13.3238 14.252Z" fill="#262A33" fill-opacity="0.5"/>
<path d="M8 4V7.5" stroke="#676A70" stroke-width="1.5"/>
<path d="M16 4V7.5" stroke="#676A70" stroke-width="1.5"/>
<defs>
<filter id="filter0_b" x="-4" y="-3" width="32" height="31" filterUnits="userSpaceOnUse" color-interpolation-filters="sRGB">
<feFlood flood-opacity="0" result="BackgroundImageFix"/>
<feGaussianBlur in="BackgroundImage" stdDeviation="4"/>
<feComposite in2="SourceAlpha" operator="in" result="effect1_backgroundBlur"/>
<feBlend mode="normal" in="SourceGraphic" in2="effect1_backgroundBlur" result="shape"/>
</filter>
</defs>
</svg>
