<svg width="24" height="24" viewBox="0 0 24 24" fill="none" xmlns="http://www.w3.org/2000/svg">
<g filter="url(#filter0_b)">
<mask id="path-1-inside-1" fill="white">
<path fill-rule="evenodd" clip-rule="evenodd" d="M6 5C4.89543 5 4 5.89543 4 7V18C4 19.1046 4.89543 20 6 20H18C19.1046 20 20 19.1046 20 18V7C20 5.89543 19.1046 5 18 5H6ZM13.5117 8.12891C13.5547 8.04297 13.5742 8 13.5703 8H12.1875C11.8086 8.76172 11.4668 9.45117 11.1621 10.0684C11.0332 10.334 10.9043 10.5957 10.7754 10.8535C10.6465 11.1113 10.5293 11.3477 10.4238 11.5625L10.166 12.1074C10.0957 12.252 10.0527 12.3438 10.0371 12.3828C9.97462 12.5391 9.91993 12.6836 9.87305 12.8164C9.82618 12.9492 9.78321 13.084 9.74415 13.2207C9.70899 13.3574 9.67774 13.502 9.6504 13.6543C9.62305 13.8027 9.59766 13.9727 9.57422 14.1641C9.5586 14.293 9.56251 14.4492 9.58594 14.6328C9.61329 14.8164 9.66407 15.0078 9.73829 15.207C9.81641 15.4062 9.92188 15.6016 10.0547 15.793C10.1875 15.9805 10.3535 16.1465 10.5527 16.291C10.752 16.4355 10.9883 16.5469 11.2617 16.625C11.5352 16.7031 11.8496 16.7266 12.2051 16.6953C12.5449 16.668 12.8379 16.5957 13.084 16.4785C13.3301 16.3613 13.5391 16.2227 13.7109 16.0625C13.8828 15.8984 14.0215 15.7266 14.127 15.5469C14.2324 15.3633 14.3125 15.1934 14.3672 15.0371C14.4258 14.877 14.4648 14.7402 14.4844 14.627C14.5078 14.5098 14.5215 14.4375 14.5254 14.4102C14.5293 14.3555 14.5313 14.2891 14.5313 14.2109C14.5352 14.1328 14.5371 14.0566 14.5371 13.9824V13.7715V13.6426C14.5371 13.5684 14.5254 13.4668 14.502 13.3379C14.4824 13.2051 14.4453 13.0645 14.3906 12.916C14.3359 12.7637 14.2598 12.6094 14.1621 12.4531C14.0684 12.293 13.9492 12.1484 13.8047 12.0195C13.6602 11.8906 13.4863 11.7832 13.2832 11.6973C13.084 11.6113 12.8496 11.5645 12.5801 11.5566C12.3926 11.5488 12.2266 11.5527 12.082 11.5684C11.9414 11.5801 11.8145 11.6191 11.7012 11.6855C11.7559 11.5918 11.8242 11.4668 11.9063 11.3105C11.9883 11.1543 12.0781 10.9805 12.1758 10.7891C12.2773 10.5977 12.3809 10.3965 12.4863 10.1855C12.5957 9.97461 12.7012 9.76562 12.8027 9.55859C12.9082 9.35156 13.0078 9.1543 13.1016 8.9668C13.1953 8.7793 13.2773 8.61328 13.3477 8.46875C13.418 8.32422 13.4727 8.21094 13.5117 8.12891ZM13.3066 13.7598C13.3184 13.9395 13.3242 14.1035 13.3242 14.252C13.3242 14.2871 13.3184 14.3418 13.3066 14.416C13.2949 14.4863 13.2715 14.5664 13.2363 14.6562C13.2051 14.7461 13.1602 14.8379 13.1016 14.9316C13.043 15.0254 12.9668 15.1113 12.8731 15.1895C12.7832 15.2637 12.6719 15.3262 12.5391 15.377C12.4102 15.4238 12.2578 15.4453 12.082 15.4414C11.8633 15.4414 11.6797 15.4141 11.5313 15.3594C11.3867 15.3047 11.2676 15.2344 11.1738 15.1484C11.0801 15.0625 11.0078 14.9648 10.957 14.8555C10.9063 14.7422 10.8691 14.627 10.8457 14.5098C10.8262 14.3887 10.8145 14.2695 10.8106 14.1523C10.8066 14.0312 10.8047 13.9219 10.8047 13.8242C10.8047 13.7812 10.8145 13.7207 10.834 13.6426C10.8535 13.5605 10.8848 13.4727 10.9277 13.3789C10.9746 13.2852 11.0313 13.1914 11.0977 13.0977C11.168 13 11.25 12.9141 11.3438 12.8398C11.4375 12.7656 11.5449 12.707 11.666 12.6641C11.7871 12.6211 11.9219 12.6055 12.0703 12.6172C12.3867 12.6406 12.6309 12.7109 12.8027 12.8281C12.9746 12.9453 13.0977 13.0859 13.1719 13.25C13.25 13.4102 13.2949 13.5801 13.3066 13.7598Z"/>
</mask>
<path fill-rule="evenodd" clip-rule="evenodd" d="M6 5C4.89543 5 4 5.89543 4 7V18C4 19.1046 4.89543 20 6 20H18C19.1046 20 20 19.1046 20 18V7C20 5.89543 19.1046 5 18 5H6ZM13.5117 8.12891C13.5547 8.04297 13.5742 8 13.5703 8H12.1875C11.8086 8.76172 11.4668 9.45117 11.1621 10.0684C11.0332 10.334 10.9043 10.5957 10.7754 10.8535C10.6465 11.1113 10.5293 11.3477 10.4238 11.5625L10.166 12.1074C10.0957 12.252 10.0527 12.3438 10.0371 12.3828C9.97462 12.5391 9.91993 12.6836 9.87305 12.8164C9.82618 12.9492 9.78321 13.084 9.74415 13.2207C9.70899 13.3574 9.67774 13.502 9.6504 13.6543C9.62305 13.8027 9.59766 13.9727 9.57422 14.1641C9.5586 14.293 9.56251 14.4492 9.58594 14.6328C9.61329 14.8164 9.66407 15.0078 9.73829 15.207C9.81641 15.4062 9.92188 15.6016 10.0547 15.793C10.1875 15.9805 10.3535 16.1465 10.5527 16.291C10.752 16.4355 10.9883 16.5469 11.2617 16.625C11.5352 16.7031 11.8496 16.7266 12.2051 16.6953C12.5449 16.668 12.8379 16.5957 13.084 16.4785C13.3301 16.3613 13.5391 16.2227 13.7109 16.0625C13.8828 15.8984 14.0215 15.7266 14.127 15.5469C14.2324 15.3633 14.3125 15.1934 14.3672 15.0371C14.4258 14.877 14.4648 14.7402 14.4844 14.627C14.5078 14.5098 14.5215 14.4375 14.5254 14.4102C14.5293 14.3555 14.5313 14.2891 14.5313 14.2109C14.5352 14.1328 14.5371 14.0566 14.5371 13.9824V13.7715V13.6426C14.5371 13.5684 14.5254 13.4668 14.502 13.3379C14.4824 13.2051 14.4453 13.0645 14.3906 12.916C14.3359 12.7637 14.2598 12.6094 14.1621 12.4531C14.0684 12.293 13.9492 12.1484 13.8047 12.0195C13.6602 11.8906 13.4863 11.7832 13.2832 11.6973C13.084 11.6113 12.8496 11.5645 12.5801 11.5566C12.3926 11.5488 12.2266 11.5527 12.082 11.5684C11.9414 11.5801 11.8145 11.6191 11.7012 11.6855C11.7559 11.5918 11.8242 11.4668 11.9063 11.3105C11.9883 11.1543 12.0781 10.9805 12.1758 10.7891C12.2773 10.5977 12.3809 10.3965 12.4863 10.1855C12.5957 9.97461 12.7012 9.76562 12.8027 9.55859C12.9082 9.35156 13.0078 9.1543 13.1016 8.9668C13.1953 8.7793 13.2773 8.61328 13.3477 8.46875C13.418 8.32422 13.4727 8.21094 13.5117 8.12891ZM13.3066 13.7598C13.3184 13.9395 13.3242 14.1035 13.3242 14.252C13.3242 14.2871 13.3184 14.3418 13.3066 14.416C13.2949 14.4863 13.2715 14.5664 13.2363 14.6562C13.2051 14.7461 13.1602 14.8379 13.1016 14.9316C13.043 15.0254 12.9668 15.1113 12.8731 15.1895C12.7832 15.2637 12.6719 15.3262 12.5391 15.377C12.4102 15.4238 12.2578 15.4453 12.082 15.4414C11.8633 15.4414 11.6797 15.4141 11.5313 15.3594C11.3867 15.3047 11.2676 15.2344 11.1738 15.1484C11.0801 15.0625 11.0078 14.9648 10.957 14.8555C10.9063 14.7422 10.8691 14.627 10.8457 14.5098C10.8262 14.3887 10.8145 14.2695 10.8106 14.1523C10.8066 14.0312 10.8047 13.9219 10.8047 13.8242C10.8047 13.7812 10.8145 13.7207 10.834 13.6426C10.8535 13.5605 10.8848 13.4727 10.9277 13.3789C10.9746 13.2852 11.0313 13.1914 11.0977 13.0977C11.168 13 11.25 12.9141 11.3438 12.8398C11.4375 12.7656 11.5449 12.707 11.666 12.6641C11.7871 12.6211 11.9219 12.6055 12.0703 12.6172C12.3867 12.6406 12.6309 12.7109 12.8027 12.8281C12.9746 12.9453 13.0977 13.0859 13.1719 13.25C13.25 13.4102 13.2949 13.5801 13.3066 13.7598Z" fill="#386EE7"/>
<path d="M13.5117 8.12891L10.8284 6.78727L10.8155 6.81306L10.8031 6.83911L13.5117 8.12891ZM12.1875 8V5H10.3291L9.50147 6.66387L12.1875 8ZM11.1621 10.0684L8.47206 8.74036L8.46757 8.74945L8.46315 8.75857L11.1621 10.0684ZM10.4238 11.5625L7.73083 10.2405L7.72129 10.2599L7.71203 10.2795L10.4238 11.5625ZM10.166 12.1074L12.8637 13.4198L12.8709 13.4052L12.8778 13.3904L10.166 12.1074ZM9.74415 13.2207L6.85958 12.3965L6.84861 12.4349L6.83867 12.4736L9.74415 13.2207ZM9.6504 13.6543L12.6008 14.1978L12.6032 14.1843L9.6504 13.6543ZM9.57422 14.1641L6.59646 13.7994L6.59602 13.8031L9.57422 14.1641ZM9.58594 14.6328L6.61009 15.0127L6.61406 15.0438L6.61867 15.0747L9.58594 14.6328ZM9.73829 15.207L6.92704 16.2544L6.936 16.2784L6.94537 16.3023L9.73829 15.207ZM10.0547 15.793L7.58993 17.5032L7.59822 17.5152L7.60662 17.527L10.0547 15.793ZM12.2051 16.6953L11.9645 13.705L11.9534 13.7059L11.9424 13.7068L12.2051 16.6953ZM13.7109 16.0625L15.7561 18.2573L15.7693 18.245L15.7824 18.2326L13.7109 16.0625ZM14.127 15.5469L16.7142 17.0655L16.7213 17.0534L16.7283 17.0412L14.127 15.5469ZM14.3672 15.0371L11.5498 14.0064L11.5426 14.0262L11.5356 14.0461L14.3672 15.0371ZM14.4844 14.627L11.5426 14.0386L11.5348 14.0778L11.528 14.1172L14.4844 14.627ZM14.5254 14.4102L17.4952 14.8344L17.5102 14.7296L17.5178 14.6239L14.5254 14.4102ZM14.5313 14.2109L11.535 14.0611L11.5313 14.136V14.2109H14.5313ZM14.502 13.3379L11.5339 13.7744L11.5413 13.8246L11.5503 13.8745L14.502 13.3379ZM14.3906 12.916L11.567 13.9296L11.5713 13.9414L11.5756 13.9531L14.3906 12.916ZM14.1621 12.4531L11.5731 13.9687L11.5951 14.0062L11.6181 14.0431L14.1621 12.4531ZM13.2832 11.6973L12.0949 14.4519L12.1046 14.4561L12.1143 14.4602L13.2832 11.6973ZM12.5801 11.5566L12.4552 14.554L12.4742 14.5548L12.4932 14.5554L12.5801 11.5566ZM12.082 11.5684L12.3312 14.558L12.3679 14.5549L12.4045 14.551L12.082 11.5684ZM11.7012 11.6855L9.10984 10.1739L3.34062 20.064L13.2183 14.2736L11.7012 11.6855ZM12.1758 10.7891L9.52574 9.38292L9.51445 9.40419L9.5035 9.42565L12.1758 10.7891ZM12.4863 10.1855L9.82307 8.8046L9.81292 8.82418L9.80305 8.84391L12.4863 10.1855ZM12.8027 9.55859L10.1296 8.19682L10.1193 8.21699L10.1094 8.23732L12.8027 9.55859ZM13.3066 14.416L16.2658 14.9092L16.2679 14.8966L16.2699 14.8839L13.3066 14.416ZM13.2363 14.6562L10.4426 13.5631L10.4217 13.6165L10.4028 13.6707L13.2363 14.6562ZM12.8731 15.1895L14.7837 17.5024L14.7936 17.4941L12.8731 15.1895ZM12.5391 15.377L13.5643 18.1963L13.5875 18.1879L13.6105 18.1791L12.5391 15.377ZM12.082 15.4414L12.1487 12.4421L12.1154 12.4414H12.082V15.4414ZM11.5313 15.3594L10.4696 18.1652L10.4818 18.1699L10.4941 18.1744L11.5313 15.3594ZM10.957 14.8555L8.21951 16.0826L8.22764 16.1008L8.23601 16.1188L10.957 14.8555ZM10.8457 14.5098L7.88399 14.9875L7.89294 15.043L7.90397 15.0981L10.8457 14.5098ZM10.8106 14.1523L7.81211 14.2491L7.81222 14.2523L10.8106 14.1523ZM10.834 13.6426L13.7444 14.3702L13.7485 14.3538L13.7524 14.3374L10.834 13.6426ZM10.9277 13.3789L8.24446 12.0373L8.22173 12.0827L8.20055 12.1289L10.9277 13.3789ZM11.0977 13.0977L8.66306 11.3447L8.65629 11.3541L8.64959 11.3636L11.0977 13.0977ZM12.0703 12.6172L11.8342 15.6079L11.8415 15.6085L11.8487 15.609L12.0703 12.6172ZM13.1719 13.25L10.4386 14.4865L10.4565 14.5262L10.4756 14.5653L13.1719 13.25ZM7 7C7 7.55228 6.55228 8 6 8V2C3.23858 2 1 4.23858 1 7H7ZM7 18V7H1V18H7ZM6 17C6.55228 17 7 17.4477 7 18H1C1 20.7614 3.23858 23 6 23V17ZM18 17H6V23H18V17ZM17 18C17 17.4477 17.4477 17 18 17V23C20.7614 23 23 20.7614 23 18H17ZM17 7V18H23V7H17ZM18 8C17.4477 8 17 7.55228 17 7H23C23 4.23858 20.7614 2 18 2V8ZM6 8H18V2H6V8ZM13.5703 11C12.7976 11 11.9662 10.6951 11.3508 10.0181C10.8282 9.44324 10.6724 8.83014 10.6192 8.53716C10.518 7.98095 10.606 7.53728 10.6191 7.46536C10.6668 7.20313 10.741 7.00617 10.7495 6.98283C10.7894 6.87296 10.8265 6.7931 10.8275 6.79082C10.8417 6.75952 10.8466 6.75096 10.8284 6.78727L16.195 9.47055C16.2198 9.42092 16.2559 9.3479 16.2897 9.27364C16.3005 9.24987 16.3444 9.15389 16.3882 9.03329C16.3987 9.00457 16.4741 8.80358 16.5223 8.53867C16.5356 8.46541 16.6236 8.02073 16.5224 7.46385C16.4691 7.17053 16.3132 6.55718 15.7904 5.98211C15.1749 5.30498 14.3433 5 13.5703 5V11ZM12.1875 11H13.5703V5H12.1875V11ZM13.8522 11.3964C14.1553 10.7824 14.4957 10.0957 14.8735 9.33613L9.50147 6.66387C9.12152 7.4277 8.77835 8.11992 8.47206 8.74036L13.8522 11.3964ZM13.4587 12.1952C13.593 11.9265 13.7271 11.6542 13.8611 11.3782L8.46315 8.75857C8.33928 9.0138 8.2156 9.2649 8.09212 9.51187L13.4587 12.1952ZM13.1168 12.8845C13.2185 12.6774 13.3324 12.4477 13.4587 12.1952L8.09212 9.51187C7.96058 9.77495 7.84009 10.0179 7.73083 10.2405L13.1168 12.8845ZM12.8778 13.3904L13.1356 12.8455L7.71203 10.2795L7.45421 10.8244L12.8778 13.3904ZM12.8225 13.497C12.8124 13.5223 12.8044 13.5412 12.8004 13.5506C12.796 13.5608 12.793 13.5675 12.792 13.5696C12.7903 13.5734 12.7919 13.5699 12.7981 13.5565C12.8107 13.5296 12.8318 13.4854 12.8637 13.4198L7.46832 10.795C7.41424 10.9062 7.3164 11.1069 7.25169 11.2686L12.8225 13.497ZM12.702 13.8149C12.7329 13.7275 12.7725 13.6221 12.8225 13.497L7.25169 11.2686C7.17672 11.4561 7.107 11.6397 7.04408 11.8179L12.702 13.8149ZM12.6287 14.0449C12.6512 13.9662 12.6756 13.8896 12.702 13.8149L7.04408 11.8179C6.97671 12.0088 6.91523 12.2017 6.85958 12.3965L12.6287 14.0449ZM12.6032 14.1843C12.6187 14.098 12.6346 14.0263 12.6496 13.9678L6.83867 12.4736C6.7834 12.6885 6.73678 12.9059 6.69758 13.1243L12.6032 14.1843ZM12.552 14.5287C12.57 14.3817 12.5868 14.2733 12.6008 14.1978L6.70004 13.1108C6.65926 13.3322 6.62534 13.5636 6.59647 13.7994L12.552 14.5287ZM12.5618 14.2529C12.5607 14.2445 12.5635 14.2626 12.5645 14.303C12.5655 14.3422 12.5652 14.4193 12.5524 14.5251L6.59602 13.8031C6.54091 14.2577 6.56738 14.6781 6.61009 15.0127L12.5618 14.2529ZM12.5495 14.1597C12.538 14.1286 12.5457 14.1405 12.5532 14.1909L6.61867 15.0747C6.68086 15.4923 6.79017 15.887 6.92704 16.2544L12.5495 14.1597ZM12.5195 14.0827C12.5079 14.0661 12.5171 14.0757 12.5312 14.1118L6.94537 16.3023C7.11576 16.7368 7.33585 17.137 7.58993 17.5032L12.5195 14.0827ZM12.3144 13.8628C12.3615 13.8969 12.4332 13.9607 12.5028 14.0589L7.60662 17.527C7.94184 18.0003 8.34559 18.3961 8.79106 18.7193L12.3144 13.8628ZM12.0859 13.7404C12.0977 13.7438 12.1898 13.7724 12.3144 13.8628L8.79106 18.7193C9.31408 19.0987 9.87886 19.3499 10.4376 19.5096L12.0859 13.7404ZM11.9424 13.7068C11.863 13.7138 11.9293 13.6957 12.0859 13.7404L10.4376 19.5096C11.141 19.7106 11.8363 19.7393 12.4678 19.6838L11.9424 13.7068ZM11.7942 13.7699C11.9489 13.6963 12.0282 13.6999 11.9645 13.705L12.4457 19.6856C13.0617 19.6361 13.7269 19.4951 14.3738 19.1871L11.7942 13.7699ZM11.6658 13.8677C11.7506 13.7887 11.807 13.7638 11.7942 13.7699L14.3738 19.1871C14.8531 18.9588 15.3276 18.6566 15.7561 18.2573L11.6658 13.8677ZM11.5397 14.0283C11.5933 13.937 11.6377 13.8941 11.6395 13.8924L15.7824 18.2326C16.1279 17.9027 16.4497 17.5161 16.7142 17.0655L11.5397 14.0283ZM11.5356 14.0461C11.5413 14.0298 11.5459 14.0182 11.5488 14.0113C11.5516 14.0044 11.553 14.0015 11.5524 14.0028C11.5509 14.006 11.543 14.0223 11.5256 14.0525L16.7283 17.0412C16.9018 16.7393 17.0689 16.3993 17.1988 16.0282L11.5356 14.0461ZM11.528 14.1172C11.5402 14.0465 11.5524 14.0023 11.5559 13.9903C11.5597 13.9769 11.559 13.9814 11.5498 14.0064L17.1846 16.0679C17.2784 15.8113 17.3798 15.4902 17.4408 15.1367L11.528 14.1172ZM11.5555 13.9859C11.559 13.9617 11.5619 13.9437 11.5633 13.9354C11.5648 13.9261 11.5659 13.9198 11.5663 13.9177C11.5669 13.914 11.5666 13.9163 11.5645 13.9272C11.5604 13.9488 11.5534 13.9848 11.5426 14.0386L17.4261 15.2153C17.4426 15.1329 17.4767 14.9639 17.4952 14.8344L11.5555 13.9859ZM11.5313 14.2109C11.5313 14.2255 11.5311 14.2319 11.5311 14.2311C11.5311 14.2306 11.5312 14.2274 11.5315 14.222C11.5317 14.2165 11.5322 14.2079 11.533 14.1964L17.5178 14.6239C17.5284 14.4753 17.5313 14.3332 17.5313 14.2109H11.5313ZM11.5371 13.9824C11.5371 14.0041 11.5365 14.0302 11.535 14.0611L17.5275 14.3608C17.5338 14.2354 17.5371 14.1092 17.5371 13.9824H11.5371ZM11.5371 13.7715V13.9824H17.5371V13.7715H11.5371ZM11.5371 13.6426V13.7715H17.5371V13.6426H11.5371ZM11.5503 13.8745C11.5535 13.8918 11.5514 13.8833 11.5481 13.8546C11.5453 13.8305 11.5371 13.7541 11.5371 13.6426H17.5371C17.5371 13.3021 17.4888 12.995 17.4536 12.8012L11.5503 13.8745ZM11.5756 13.9531C11.571 13.9406 11.5493 13.879 11.5339 13.7744L17.47 12.9014C17.4156 12.5312 17.3197 12.1883 17.2057 11.8789L11.5756 13.9531ZM11.6181 14.0431C11.6176 14.0422 11.5939 14.0043 11.567 13.9296L17.2142 11.9024C17.078 11.5231 16.902 11.1765 16.7061 10.8631L11.6181 14.0431ZM11.8078 14.2584C11.7287 14.1878 11.6445 14.0907 11.5731 13.9687L16.7512 10.9376C16.4922 10.4952 16.1698 10.1091 15.8015 9.78064L11.8078 14.2584ZM12.1143 14.4602C12.056 14.4355 11.9402 14.3764 11.8078 14.2584L15.8015 9.78064C15.3802 9.40482 14.9167 9.13089 14.4521 8.93436L12.1143 14.4602ZM12.4932 14.5554C12.4724 14.5548 12.3174 14.5479 12.0949 14.4519L14.4715 8.94263C13.8506 8.6748 13.2269 8.57413 12.667 8.5579L12.4932 14.5554ZM12.4045 14.551C12.3823 14.5534 12.3751 14.5531 12.3855 14.5529C12.3956 14.5526 12.4184 14.5525 12.4552 14.554L12.705 8.55924C12.4087 8.5469 12.0881 8.55022 11.7596 8.58574L12.4045 14.551ZM13.2183 14.2736C12.9159 14.4509 12.6039 14.5353 12.3312 14.558L11.8329 8.57872C11.2789 8.62489 10.713 8.78734 10.184 9.09745L13.2183 14.2736ZM9.25006 9.91605C9.1777 10.0539 9.1326 10.1349 9.10984 10.1739L14.2925 13.1972C14.3791 13.0487 14.4707 12.8797 14.5624 12.705L9.25006 9.91605ZM9.5035 9.42565C9.41005 9.60881 9.32565 9.77206 9.25006 9.91605L14.5624 12.705C14.6509 12.5365 14.7462 12.3521 14.8481 12.1525L9.5035 9.42565ZM9.80305 8.84391C9.70747 9.03508 9.61503 9.21465 9.52574 9.38292L14.8258 12.1952C14.9397 11.9807 15.0543 11.7579 15.1696 11.5272L9.80305 8.84391ZM10.1094 8.23732C10.0179 8.42375 9.9225 8.61284 9.82307 8.8046L15.1496 11.5665C15.2689 11.3364 15.3844 11.1075 15.4961 10.8799L10.1094 8.23732ZM10.4183 7.62516C10.3282 7.80526 10.232 7.99578 10.1296 8.19682L15.4759 10.9204C15.5844 10.7073 15.6874 10.5033 15.7849 10.3084L10.4183 7.62516ZM10.65 7.15635C10.5856 7.2887 10.5085 7.44464 10.4183 7.62516L15.7849 10.3084C15.8821 10.114 15.9691 9.93786 16.0454 9.78115L10.65 7.15635ZM10.8031 6.83911C10.7694 6.90998 10.7189 7.01458 10.65 7.15635L16.0454 9.78115C16.117 9.63385 16.1759 9.5119 16.2203 9.41871L10.8031 6.83911ZM16.3242 14.252C16.3242 14.0264 16.3154 13.7961 16.3003 13.5645L10.313 13.955C10.3213 14.0828 10.3242 14.1806 10.3242 14.252H16.3242ZM16.2699 14.8839C16.2851 14.788 16.3242 14.5372 16.3242 14.252H10.3242C10.3242 14.1806 10.3271 14.1235 10.3295 14.0867C10.332 14.0486 10.3349 14.0188 10.3369 13.9997C10.3408 13.9633 10.344 13.9438 10.3434 13.9481L16.2699 14.8839ZM16.0301 15.7494C16.1163 15.5289 16.2103 15.2422 16.2658 14.9092L10.3475 13.9228C10.3795 13.7305 10.4266 13.6039 10.4426 13.5631L16.0301 15.7494ZM15.6456 16.5216C15.8043 16.2677 15.9542 15.9742 16.0698 15.6418L10.4028 13.6707C10.4559 13.518 10.5161 13.4081 10.5576 13.3416L15.6456 16.5216ZM14.7936 17.4941C15.1066 17.2333 15.4018 16.9116 15.6456 16.5216L10.5576 13.3416C10.6841 13.1392 10.8271 12.9893 10.9525 12.8848L14.7936 17.4941ZM13.6105 18.1791C13.9831 18.0366 14.3942 17.8241 14.7837 17.5023L10.9624 12.8766C11.1722 12.7033 11.3606 12.6157 11.4677 12.5748L13.6105 18.1791ZM12.0154 18.4407C12.463 18.4506 13.0026 18.4006 13.5643 18.1963L11.5138 12.5576C11.8177 12.4471 12.0526 12.44 12.1487 12.4421L12.0154 18.4407ZM10.4941 18.1744C11.0751 18.3884 11.6351 18.4414 12.082 18.4414V12.4414C12.0952 12.4414 12.1446 12.4421 12.2222 12.4536C12.2995 12.4651 12.4202 12.4897 12.5684 12.5443L10.4941 18.1744ZM9.14666 17.3599C9.57491 17.7525 10.043 18.0038 10.4696 18.1652L12.5929 12.5535C12.7305 12.6056 12.9603 12.7163 13.201 12.937L9.14666 17.3599ZM8.23601 16.1188C8.46233 16.6062 8.77758 17.0216 9.14666 17.3599L13.201 12.937C13.3826 13.1034 13.5533 13.3234 13.6781 13.5921L8.23601 16.1188ZM7.90397 15.0981C7.97306 15.4436 8.08055 15.7727 8.21951 16.0826L13.6946 13.6283C13.732 13.7117 13.7652 13.8103 13.7875 13.9214L7.90397 15.0981ZM7.81222 14.2523C7.82053 14.5017 7.84521 14.7471 7.88399 14.9875L13.8074 14.0321C13.8071 14.0303 13.8084 14.0374 13.8089 14.0524L7.81222 14.2523ZM7.80469 13.8242C7.80469 13.9607 7.8074 14.103 7.81211 14.2491L13.809 14.0556C13.8059 13.9595 13.8047 13.8831 13.8047 13.8242H7.80469ZM7.92356 12.915C7.88667 13.0625 7.80469 13.4081 7.80469 13.8242H13.8047C13.8047 14.0143 13.7845 14.1574 13.7737 14.2243C13.7617 14.2992 13.7493 14.3506 13.7444 14.3702L7.92356 12.915ZM8.20055 12.1289C8.09318 12.3632 7.98926 12.6382 7.91557 12.9477L13.7524 14.3374C13.7178 14.4829 13.6764 14.5821 13.6549 14.6289L8.20055 12.1289ZM8.64959 11.3636C8.50322 11.5702 8.36578 11.7946 8.24446 12.0373L13.611 14.7205C13.5835 14.7757 13.5593 14.8126 13.5457 14.8317L8.64959 11.3636ZM9.48165 10.4877C9.16886 10.7353 8.89451 11.0233 8.66306 11.3447L13.5323 14.8506C13.4414 14.9767 13.3312 15.0928 13.2059 15.192L9.48165 10.4877ZM10.6628 9.83678C10.2545 9.98167 9.85228 10.1943 9.48165 10.4877L13.2059 15.192C13.0227 15.337 12.8354 15.4324 12.6693 15.4913L10.6628 9.83678ZM12.3064 9.62649C11.8042 9.58685 11.2391 9.63228 10.6628 9.83678L12.6693 15.4913C12.3351 15.6099 12.0395 15.6241 11.8342 15.6079L12.3064 9.62649ZM14.4928 10.3494C13.7141 9.81856 12.8803 9.66896 12.2919 9.62538L11.8487 15.609C11.8466 15.6088 11.8294 15.6075 11.7992 15.6025C11.7692 15.5974 11.7217 15.588 11.6605 15.5703C11.5416 15.5361 11.3409 15.4624 11.1127 15.3068L14.4928 10.3494ZM15.9052 12.0135C15.5705 11.2736 15.0479 10.728 14.4928 10.3494L11.1127 15.3068C10.9013 15.1626 10.6248 14.8983 10.4386 14.4865L15.9052 12.0135ZM16.3003 13.5645C16.2635 12.9999 16.1191 12.4491 15.8682 11.9347L10.4756 14.5653C10.3809 14.3712 10.3264 14.1602 10.313 13.955L16.3003 13.5645Z" fill="#386EE7" mask="url(#path-1-inside-1)"/>
</g>
<path d="M8 4V7" stroke="#386EE7" stroke-width="1.5"/>
<path d="M16 4V7" stroke="#386EE7" stroke-width="1.5"/>
<defs>
<filter id="filter0_b" x="-4" y="-3" width="32" height="31" filterUnits="userSpaceOnUse" color-interpolation-filters="sRGB">
<feFlood flood-opacity="0" result="BackgroundImageFix"/>
<feGaussianBlur in="BackgroundImage" stdDeviation="4"/>
<feComposite in2="SourceAlpha" operator="in" result="effect1_backgroundBlur"/>
<feBlend mode="normal" in="SourceGraphic" in2="effect1_backgroundBlur" result="shape"/>
</filter>
</defs>
</svg>
