<svg width="16" height="16" viewBox="0 0 16 16" fill="none" xmlns="http://www.w3.org/2000/svg">
<path d="M1.5 4.78107C1.5 4.33924 1.85817 3.98107 2.3 3.98107H3.42472C3.5027 3.98107 3.57357 3.93574 3.60628 3.86494L4.02226 2.96449C4.15308 2.68131 4.43657 2.5 4.74851 2.5H6.63158H7.48834C7.80027 2.5 8.08376 2.68131 8.21458 2.96449L8.63056 3.86494C8.66327 3.93574 8.73414 3.98107 8.81213 3.98107H13.7C14.1418 3.98107 14.5 4.33924 14.5 4.78107V12.7C14.5 13.1418 14.1418 13.5 13.7 13.5H8H2.3C1.85817 13.5 1.5 13.1418 1.5 12.7V4.78107Z" stroke="white" stroke-width="1.2"/>
<circle cx="8" cy="8.5" r="2.4" stroke="white" stroke-width="1.2"/>
<path d="M12.9585 6.04169H11.6252" stroke="white" stroke-width="1.2" stroke-linejoin="round"/>
</svg>