<svg width="20" height="20" viewBox="0 0 20 20" fill="none" xmlns="http://www.w3.org/2000/svg">
<path fill-rule="evenodd" clip-rule="evenodd" d="M1.25 0C0.559644 0 0 0.559644 0 1.25V18.75C0 19.4404 0.559644 20 1.25 20H18.75C19.4404 20 20 19.4404 20 18.75V1.25C20 0.559644 19.4404 0 18.75 0H1.25ZM10.4092 4.10434C10.1743 3.90095 9.8257 3.90095 9.59084 4.10434L4.77204 8.27754C4.3346 8.65638 4.60252 9.375 5.1812 9.375H6.25V13.125C6.25 13.4702 6.52982 13.75 6.875 13.75H13.125C13.4702 13.75 13.75 13.4702 13.75 13.125V9.375H14.8188C15.3975 9.375 15.6654 8.65638 15.228 8.27754L10.4092 4.10434ZM6.875 15C6.52982 15 6.25 15.2798 6.25 15.625C6.25 15.9702 6.52982 16.25 6.875 16.25H13.125C13.4702 16.25 13.75 15.9702 13.75 15.625C13.75 15.2798 13.4702 15 13.125 15H6.875Z" fill="#A8AAAD"/>
</svg>
