<svg width="16" height="16" viewBox="0 0 16 16" fill="none" xmlns="http://www.w3.org/2000/svg">
<path d="M16 0H0V16H16V0Z" fill="white" fill-opacity="0.01"/>
<path d="M8.00016 14.6667C9.8411 14.6667 11.5078 13.9205 12.7142 12.714C13.9206 11.5076 14.6668 9.84094 14.6668 8.00001C14.6668 6.15908 13.9206 4.49241 12.7142 3.28596C11.5078 2.07954 9.8411 1.33334 8.00016 1.33334C6.15923 1.33334 4.49256 2.07954 3.28612 3.28596C2.07969 4.49241 1.3335 6.15908 1.3335 8.00001C1.3335 9.84094 2.07969 11.5076 3.28612 12.714C4.49256 13.9205 6.15923 14.6667 8.00016 14.6667Z" stroke="white" stroke-linejoin="round"/>
<path d="M5.3335 8L7.3335 10L11.3335 6" stroke="white" stroke-linecap="round" stroke-linejoin="round"/>
</svg>
