<svg width="16" height="16" viewBox="0 0 16 16" fill="none" xmlns="http://www.w3.org/2000/svg">
  <path d="M7 5.5V6H7.5V5.5H7ZM9 5.5H8.5V6H9V5.5ZM7.5 2.2C7.5 2.36568 7.36569 2.5 7.2 2.5V1.5C6.8134 1.5 6.5 1.8134 6.5 2.2H7.5ZM7.5 5.5V2.2H6.5V5.5H7.5ZM2.7 6H7V5H2.7V6ZM3 5.7C3 5.86569 2.86569 6 2.7 6V5C2.3134 5 2 5.3134 2 5.7H3ZM3 8.3V5.7H2V8.3H3ZM2.7 8C2.86569 8 3 8.13432 3 8.3H2C2 8.6866 2.3134 9 2.7 9V8ZM13.3 8H2.7V9H13.3V8ZM13 8.3C13 8.13431 13.1343 8 13.3 8V9C13.6866 9 14 8.6866 14 8.3H13ZM13 5.7V8.3H14V5.7H13ZM13.3 6C13.1343 6 13 5.86568 13 5.7H14C14 5.3134 13.6866 5 13.3 5V6ZM9 6H13.3V5H9V6ZM8.5 2.2V5.5H9.5V2.2H8.5ZM8.8 2.5C8.63431 2.5 8.5 2.36568 8.5 2.2H9.5C9.5 1.8134 9.1866 1.5 8.8 1.5V2.5ZM7.2 2.5H8.8V1.5H7.2V2.5Z" fill="#7D8085" />
  <path d="M3.46784 8.66078C3.48654 8.56729 3.56862 8.5 3.66396 8.5H12.336C12.4314 8.5 12.5135 8.56729 12.5322 8.66078L13.4522 13.2608C13.4769 13.3845 13.3822 13.5 13.256 13.5H2.74396C2.61775 13.5 2.52309 13.3845 2.54784 13.2608L3.46784 8.66078Z" stroke="#7D8085" />
  <line x1="6" y1="10.5" x2="6" y2="13" stroke="#7D8085" />
  <line x1="10" y1="10.5" x2="10" y2="13" stroke="#7D8085" />
</svg>