<svg width="16" height="16" viewBox="0 0 16 16" fill="none" xmlns="http://www.w3.org/2000/svg">
<path fill-rule="evenodd" clip-rule="evenodd" d="M5.59999 2.80039C5.59999 2.68993 5.68954 2.60039 5.79999 2.60039H13.2C13.3105 2.60039 13.4 2.68993 13.4 2.80039V10.2004C13.4 10.3108 13.3105 10.4004 13.2 10.4004H12.5999V4.80039C12.5999 4.02719 11.9731 3.40039 11.1999 3.40039H5.59999V2.80039ZM4.39999 3.40039V2.80039C4.39999 2.02719 5.02679 1.40039 5.79999 1.40039H13.2C13.9732 1.40039 14.6 2.02719 14.6 2.80039V10.2004C14.6 10.9736 13.9732 11.6004 13.2 11.6004H12.5999V13.2004C12.5999 13.9736 11.9731 14.6004 11.1999 14.6004H2.7999C2.0267 14.6004 1.3999 13.9736 1.3999 13.2004V4.80039C1.3999 4.02719 2.0267 3.40039 2.7999 3.40039H4.39999ZM2.5999 4.80039C2.5999 4.68993 2.68945 4.60039 2.7999 4.60039H11.1999C11.3104 4.60039 11.3999 4.68993 11.3999 4.80039V13.2004C11.3999 13.3108 11.3104 13.4004 11.1999 13.4004H2.7999C2.68945 13.4004 2.5999 13.3108 2.5999 13.2004V4.80039Z" fill="#A8AAAD"/>
<path d="M4.5 7.5H9.5" stroke="#A8AAAD" stroke-width="1.2"/>
<path d="M4.5 10.5H9.5" stroke="#A8AAAD" stroke-width="1.2"/>
</svg>
