<svg width="32" height="32" viewBox="0 0 32 32" fill="none" xmlns="http://www.w3.org/2000/svg">
<circle cx="16" cy="16" r="15.4" fill="white" stroke="#6BA9FF" stroke-width="1.2"/>
<mask id="path-2-inside-1" fill="white">
<path fill-rule="evenodd" clip-rule="evenodd" d="M18.8001 7.19995C17.0328 7.19995 15.6001 8.63264 15.6001 10.4V12C15.6001 13.7673 17.0328 15.2 18.8001 15.2C20.5674 15.2 22.0001 13.7673 22.0001 12V10.4C22.0001 8.63264 20.5674 7.19995 18.8001 7.19995ZM17.2001 16.8C14.1073 16.8 11.6001 19.3072 11.6001 22.4V23.2H26.0001V22.4C26.0001 19.3072 23.4929 16.8 20.4001 16.8H17.2001Z"/>
</mask>
<path fill-rule="evenodd" clip-rule="evenodd" d="M18.8001 7.19995C17.0328 7.19995 15.6001 8.63264 15.6001 10.4V12C15.6001 13.7673 17.0328 15.2 18.8001 15.2C20.5674 15.2 22.0001 13.7673 22.0001 12V10.4C22.0001 8.63264 20.5674 7.19995 18.8001 7.19995ZM17.2001 16.8C14.1073 16.8 11.6001 19.3072 11.6001 22.4V23.2H26.0001V22.4C26.0001 19.3072 23.4929 16.8 20.4001 16.8H17.2001Z" fill="#6BA9FF"/>
<path d="M11.6001 23.2H10.8001V24H11.6001V23.2ZM26.0001 23.2V24H26.8001V23.2H26.0001ZM16.4001 10.4C16.4001 9.07447 17.4746 7.99995 18.8001 7.99995V6.39995C16.591 6.39995 14.8001 8.19081 14.8001 10.4H16.4001ZM16.4001 12V10.4H14.8001V12H16.4001ZM18.8001 14.4C17.4746 14.4 16.4001 13.3254 16.4001 12H14.8001C14.8001 14.2091 16.591 16 18.8001 16V14.4ZM21.2001 12C21.2001 13.3254 20.1256 14.4 18.8001 14.4V16C21.0092 16 22.8001 14.2091 22.8001 12H21.2001ZM21.2001 10.4V12H22.8001V10.4H21.2001ZM18.8001 7.99995C20.1256 7.99995 21.2001 9.07447 21.2001 10.4H22.8001C22.8001 8.19081 21.0092 6.39995 18.8001 6.39995V7.99995ZM12.4001 22.4C12.4001 19.749 14.5491 17.6 17.2001 17.6V16C13.6655 16 10.8001 18.8653 10.8001 22.4H12.4001ZM12.4001 23.2V22.4H10.8001V23.2H12.4001ZM26.0001 22.4H11.6001V24H26.0001V22.4ZM25.2001 22.4V23.2H26.8001V22.4H25.2001ZM20.4001 17.6C23.0511 17.6 25.2001 19.749 25.2001 22.4H26.8001C26.8001 18.8653 23.9347 16 20.4001 16V17.6ZM17.2001 17.6H20.4001V16H17.2001V17.6Z" fill="white" mask="url(#path-2-inside-1)"/>
<mask id="path-4-outside-2" maskUnits="userSpaceOnUse" x="7" y="6.19995" width="17" height="18" fill="black">
<rect fill="white" x="7" y="6.19995" width="17" height="18"/>
<path fill-rule="evenodd" clip-rule="evenodd" d="M15.2 7.19995C13.4327 7.19995 12 8.63264 12 10.4V12C12 13.7673 13.4327 15.2 15.2 15.2C16.9673 15.2 18.4 13.7673 18.4 12V10.4C18.4 8.63264 16.9673 7.19995 15.2 7.19995ZM13.6 16.8C10.5072 16.8 8 19.3072 8 22.4V23.2H22.4V22.4C22.4 19.3072 19.8928 16.8 16.8 16.8H13.6Z"/>
</mask>
<path fill-rule="evenodd" clip-rule="evenodd" d="M15.2 7.19995C13.4327 7.19995 12 8.63264 12 10.4V12C12 13.7673 13.4327 15.2 15.2 15.2C16.9673 15.2 18.4 13.7673 18.4 12V10.4C18.4 8.63264 16.9673 7.19995 15.2 7.19995ZM13.6 16.8C10.5072 16.8 8 19.3072 8 22.4V23.2H22.4V22.4C22.4 19.3072 19.8928 16.8 16.8 16.8H13.6Z" fill="#6BA9FF"/>
<path d="M8 23.2H7.2V24H8V23.2ZM22.4 23.2V24H23.2V23.2H22.4ZM12.8 10.4C12.8 9.07447 13.8745 7.99995 15.2 7.99995V6.39995C12.9909 6.39995 11.2 8.19081 11.2 10.4H12.8ZM12.8 12V10.4H11.2V12H12.8ZM15.2 14.4C13.8745 14.4 12.8 13.3254 12.8 12H11.2C11.2 14.2091 12.9909 16 15.2 16V14.4ZM17.6 12C17.6 13.3254 16.5255 14.4 15.2 14.4V16C17.4091 16 19.2 14.2091 19.2 12H17.6ZM17.6 10.4V12H19.2V10.4H17.6ZM15.2 7.99995C16.5255 7.99995 17.6 9.07447 17.6 10.4H19.2C19.2 8.19081 17.4091 6.39995 15.2 6.39995V7.99995ZM8.8 22.4C8.8 19.749 10.949 17.6 13.6 17.6V16C10.0654 16 7.2 18.8653 7.2 22.4H8.8ZM8.8 23.2V22.4H7.2V23.2H8.8ZM22.4 22.4H8V24H22.4V22.4ZM21.6 22.4V23.2H23.2V22.4H21.6ZM16.8 17.6C19.451 17.6 21.6 19.749 21.6 22.4H23.2C23.2 18.8653 20.3346 16 16.8 16V17.6ZM13.6 17.6H16.8V16H13.6V17.6Z" fill="white" mask="url(#path-4-outside-2)"/>
</svg>
