<svg width="24" height="24" viewBox="0 0 24 24" fill="none" xmlns="http://www.w3.org/2000/svg">
<path d="M24 0H0V24H24V0Z" fill="white" fill-opacity="0.01"/>
<path fill-rule="evenodd" clip-rule="evenodd" d="M12.0199 3C7.04936 3 3.01993 7.02943 3.01993 12C3.01993 14.6639 4.17732 17.0575 6.01668 18.7054C6.51749 18.5701 7.04959 18.4036 7.60706 18.2072C5.66871 16.8267 4.40454 14.561 4.40454 12C4.40454 7.79414 7.81406 4.38462 12.0199 4.38462C15.9784 4.38462 19.2315 7.40489 19.6005 11.2667C20.0497 10.8795 20.4595 10.4997 20.8258 10.1318C19.9657 6.05779 16.3499 3 12.0199 3ZM21.0189 11.8604C20.5712 12.2673 20.0822 12.6816 19.5567 13.0985C19.0242 16.7839 15.8527 19.6154 12.0199 19.6154C11.0293 19.6154 10.0829 19.4262 9.21482 19.0821C8.59232 19.3299 7.99002 19.5477 7.41415 19.7338C8.76155 20.538 10.3368 21 12.0199 21C16.9905 21 21.0199 16.9706 21.0199 12C21.0199 11.9534 21.0196 11.9068 21.0189 11.8604Z" fill="#A8AAAD"/>
<path d="M3.97706 14.3657C2.6461 15.7695 2.03254 16.9782 2.43945 17.683C3.28903 19.1545 8.26529 17.872 13.5543 14.8184C18.8432 11.7648 22.442 8.09652 21.5925 6.62501C21.1416 5.84413 20.225 5.83817 18.0199 6.4615" stroke="#A8AAAD" stroke-width="1.5"/>
</svg>
