<svg width="16" height="16" viewBox="0 0 16 16" fill="none" xmlns="http://www.w3.org/2000/svg">
<path fill-rule="evenodd" clip-rule="evenodd" d="M13.656 7.19395C13.5016 7.39799 13.5101 7.67853 13.6444 7.89635C13.9499 8.39184 14.1188 8.94923 14.1188 9.51977C14.1188 10.4607 13.6802 11.3392 12.9184 11.9879C12.7023 12.172 12.5504 12.4272 12.4957 12.7135C12.4751 12.8217 12.3612 12.8963 12.2599 12.8529C11.9818 12.7337 11.6771 12.7212 11.4001 12.8041C10.9864 12.928 10.5403 12.996 10.0731 12.996C9.3496 12.996 8.68917 12.8385 8.1212 12.5681C7.86148 12.4444 7.54142 12.5025 7.37375 12.7363C7.19412 12.9867 7.25886 13.3389 7.53365 13.4785C8.28225 13.8587 9.14911 14.076 10.0731 14.076C10.6454 14.076 11.1958 13.9926 11.7098 13.8388C11.7509 13.8265 11.7951 13.8286 11.8345 13.8455L13.1771 14.4209C13.3552 14.4973 13.5534 14.3666 13.5534 14.1728L13.5534 12.9498C13.5534 12.8959 13.5777 12.845 13.6187 12.8101C14.5925 11.9808 15.1988 10.8132 15.1988 9.51977C15.1988 8.66693 14.9352 7.86882 14.4765 7.18631C14.2816 6.89633 13.8669 6.91538 13.656 7.19395Z" fill="#3C3F47"/>
<mask id="path-2-inside-1_26529_170834" fill="white">
<path fill-rule="evenodd" clip-rule="evenodd" d="M6.98662 12.0508C10.3418 12.0508 13.0616 9.55756 13.0616 6.48202C13.0616 3.40648 10.3418 0.913269 6.98662 0.913269C3.63149 0.913269 0.911621 3.40648 0.911621 6.48202C0.911621 7.88113 1.47449 9.15973 2.40399 10.1379C2.44257 10.1785 2.46106 10.2344 2.45314 10.2898L2.26412 11.6132C2.2141 11.9634 2.5691 12.2317 2.89236 12.0881L4.20862 11.5031C4.25573 11.4821 4.3095 11.4825 4.35667 11.5033C5.15246 11.8542 6.0445 12.0508 6.98662 12.0508Z"/>
</mask>
<path d="M2.26412 11.6132L3.33327 11.7659L2.26412 11.6132ZM2.89236 12.0881L3.33098 13.075H3.33098L2.89236 12.0881ZM4.20862 11.5031L4.64725 12.49L4.20862 11.5031ZM4.35667 11.5033L3.92097 12.4915L4.35667 11.5033ZM2.45314 10.2898L3.52229 10.4425L2.45314 10.2898ZM11.9816 6.48202C11.9816 8.87455 9.83566 10.9708 6.98662 10.9708V13.1308C10.8478 13.1308 14.1416 10.2406 14.1416 6.48202H11.9816ZM6.98662 1.99327C9.83566 1.99327 11.9816 4.08949 11.9816 6.48202H14.1416C14.1416 2.72348 10.8478 -0.166731 6.98662 -0.166731V1.99327ZM1.99162 6.48202C1.99162 4.08949 4.13758 1.99327 6.98662 1.99327V-0.166731C3.1254 -0.166731 -0.168379 2.72348 -0.168379 6.48202H1.99162ZM3.1869 9.39398C2.43214 8.59967 1.99162 7.58184 1.99162 6.48202H-0.168379C-0.168379 8.18042 0.51685 9.71978 1.62107 10.8819L3.1869 9.39398ZM3.33327 11.7659L3.52229 10.4425L1.38399 10.1371L1.19497 11.4605L3.33327 11.7659ZM2.45374 11.1011C2.9063 10.9 3.4033 11.2756 3.33327 11.7659L1.19497 11.4605C1.02491 12.6512 2.23191 13.5634 3.33098 13.075L2.45374 11.1011ZM3.77 10.5161L2.45374 11.1011L3.33098 13.075L4.64725 12.49L3.77 10.5161ZM6.98662 10.9708C6.19536 10.9708 5.45165 10.8058 4.79238 10.5151L3.92097 12.4915C4.85328 12.9026 5.89363 13.1308 6.98662 13.1308V10.9708ZM4.64725 12.49C4.40938 12.5957 4.14557 12.5906 3.92097 12.4915L4.79238 10.5151C4.47344 10.3745 4.10209 10.3685 3.77 10.5161L4.64725 12.49ZM1.62107 10.8819C1.4385 10.6897 1.34393 10.4176 1.38399 10.1371L3.52229 10.4425C3.57819 10.0512 3.44664 9.66732 3.1869 9.39398L1.62107 10.8819Z" fill="#3C3F47" mask="url(#path-2-inside-1_26529_170834)"/>
<path d="M5.11865 7.10077C6.46865 7.55077 7.36865 7.55077 8.71865 7.10077" stroke="#3C3F47" stroke-width="1.08" stroke-linecap="round"/>
</svg>
