<svg width="16" height="16" viewBox="0 0 16 16" fill="none" xmlns="http://www.w3.org/2000/svg">
<g clip-path="url(#clip0)">
<path fill-rule="evenodd" clip-rule="evenodd" d="M4 2.5H12C12.2761 2.5 12.5 2.72386 12.5 3V9H10.5C9.67157 9 9 9.67157 9 10.5V13.4925C8.95965 13.4975 8.91879 13.5 8.87763 13.5H4C3.72386 13.5 3.5 13.2761 3.5 13V3C3.5 2.72386 3.72386 2.5 4 2.5ZM10 12.6917L12.1229 10H10.5C10.2239 10 10 10.2239 10 10.5V12.6917ZM13.3997 9.8005C13.3271 10.021 13.2161 10.2287 13.0704 10.4135L10.448 13.7385C10.0687 14.2194 9.49006 14.5 8.87763 14.5H4C3.17157 14.5 2.5 13.8284 2.5 13V3C2.5 2.17157 3.17157 1.5 4 1.5H12C12.8284 1.5 13.5 2.17157 13.5 3V9.17497C13.5 9.24764 13.496 9.31997 13.4882 9.39165C13.4959 9.42654 13.5 9.4628 13.5 9.5C13.5 9.61278 13.4627 9.71685 13.3997 9.8005Z" fill="#262A33" fill-opacity="0.5"/>
</g>
<defs>
<clipPath id="clip0">
<rect width="16" height="16" fill="white"/>
</clipPath>
</defs>
</svg>
