<svg width="16" height="16" viewBox="0 0 16 16" fill="none" xmlns="http://www.w3.org/2000/svg">
    <path d="M8 3H2.8C2.35817 3 2 3.35817 2 3.8V13.2C2 13.6418 2.35817 14 2.8 14H12.2C12.6418 14 13 13.6418 13 13.2V8" stroke="#A8AAAD"/>
    <path d="M13.9853 2.00736L14.4853 2.00736C14.4853 1.73122 14.2614 1.50736 13.9853 1.50736L13.9853 2.00736ZM7.97487 8.72487L13.9853 2.71447L13.2782 2.00736L7.26777 8.01777L7.97487 8.72487ZM9.74264 2.50736L13.9853 2.50736L13.9853 1.50736L9.74264 1.50736L9.74264 2.50736ZM13.4853 2.00736L13.4853 6.25H14.4853L14.4853 2.00736L13.4853 2.00736Z" fill="#A8AAAD"/>
</svg>
    