<svg width="16" height="16" viewBox="0 0 16 16" fill="none" xmlns="http://www.w3.org/2000/svg">
<path d="M14.6804 7.27954C14.5164 7.03615 14.1563 7.16383 14.1111 7.45378C13.6459 10.4372 10.924 12.7272 7.63583 12.7272C7.48926 12.7272 7.34382 12.7226 7.19965 12.7137C6.87985 12.6938 6.68966 13.0689 6.95014 13.2555C7.84257 13.8947 8.97736 14.2774 10.2127 14.2774C10.7937 14.2774 11.3525 14.1927 11.8742 14.0366C11.916 14.0241 11.9608 14.0262 12.0008 14.0434L13.3638 14.6275C13.5446 14.705 13.7458 14.5724 13.7458 14.3756L13.7458 13.134C13.7458 13.0794 13.7704 13.0278 13.812 12.9923C14.8006 12.1504 15.4162 10.9651 15.4162 9.65209C15.4162 8.78478 15.1476 7.97322 14.6804 7.27954Z" fill="#5FC375"/>
<mask id="path-2-inside-1_27715_195974" fill="white">
<path fill-rule="evenodd" clip-rule="evenodd" d="M13.0611 6.48232C13.0611 9.55786 10.3413 12.0511 6.98613 12.0511C6.04446 12.0511 5.15284 11.8547 4.35734 11.5041C4.30945 11.483 4.25487 11.4826 4.20704 11.5039L2.90303 12.0834C2.57487 12.2293 2.2145 11.9569 2.26527 11.6014L2.45238 10.2914C2.46042 10.2351 2.44165 10.1784 2.40249 10.1372C1.4736 9.15911 0.911133 7.88093 0.911133 6.48232C0.911133 3.40679 3.631 0.913574 6.98613 0.913574C10.3413 0.913574 13.0611 3.40679 13.0611 6.48232ZM5.3589 6.67648C5.07168 6.58074 4.76123 6.73597 4.6655 7.02318C4.56976 7.3104 4.72498 7.62085 5.0122 7.71658C5.73249 7.95668 6.36434 8.08733 7.01282 8.08733C7.6613 8.08733 8.29315 7.95668 9.01344 7.71658C9.30066 7.62085 9.45588 7.3104 9.36014 7.02318C9.2644 6.73597 8.95396 6.58074 8.66674 6.67648C8.01658 6.8932 7.50638 6.99096 7.01282 6.99096C6.51926 6.99096 6.00905 6.8932 5.3589 6.67648Z"/>
</mask>
<path fill-rule="evenodd" clip-rule="evenodd" d="M13.0611 6.48232C13.0611 9.55786 10.3413 12.0511 6.98613 12.0511C6.04446 12.0511 5.15284 11.8547 4.35734 11.5041C4.30945 11.483 4.25487 11.4826 4.20704 11.5039L2.90303 12.0834C2.57487 12.2293 2.2145 11.9569 2.26527 11.6014L2.45238 10.2914C2.46042 10.2351 2.44165 10.1784 2.40249 10.1372C1.4736 9.15911 0.911133 7.88093 0.911133 6.48232C0.911133 3.40679 3.631 0.913574 6.98613 0.913574C10.3413 0.913574 13.0611 3.40679 13.0611 6.48232ZM5.3589 6.67648C5.07168 6.58074 4.76123 6.73597 4.6655 7.02318C4.56976 7.3104 4.72498 7.62085 5.0122 7.71658C5.73249 7.95668 6.36434 8.08733 7.01282 8.08733C7.6613 8.08733 8.29315 7.95668 9.01344 7.71658C9.30066 7.62085 9.45588 7.3104 9.36014 7.02318C9.2644 6.73597 8.95396 6.58074 8.66674 6.67648C8.01658 6.8932 7.50638 6.99096 7.01282 6.99096C6.51926 6.99096 6.00905 6.8932 5.3589 6.67648Z" fill="#5FC375"/>
<path d="M4.35734 11.5041L3.91522 12.5074L3.91523 12.5074L4.35734 11.5041ZM4.20704 11.5039L4.65231 12.5057L4.65231 12.5057L4.20704 11.5039ZM2.90303 12.0834L2.45776 11.0815L2.90303 12.0834ZM2.26527 11.6014L3.35062 11.7564L2.26527 11.6014ZM2.45238 10.2914L1.36703 10.1364L1.36703 10.1364L2.45238 10.2914ZM2.40249 10.1372L1.60752 10.8922L1.60753 10.8922L2.40249 10.1372ZM5.3589 6.67648L5.0122 7.71658H5.0122L5.3589 6.67648ZM5.0122 7.71658L4.6655 8.75669H4.6655L5.0122 7.71658ZM9.01344 7.71658L9.36014 8.75669H9.36014L9.01344 7.71658ZM9.36014 7.02318L10.4002 6.67648L10.4002 6.67648L9.36014 7.02318ZM6.98613 13.1474C10.855 13.1474 14.1575 10.2512 14.1575 6.48232H11.9648C11.9648 8.86451 9.82751 10.9547 6.98613 10.9547V13.1474ZM3.91523 12.5074C4.84927 12.919 5.89139 13.1474 6.98613 13.1474V10.9547C6.19754 10.9547 5.45641 10.7904 4.79945 10.5009L3.91523 12.5074ZM4.65231 12.5057C4.4108 12.6131 4.14307 12.6078 3.91522 12.5074L4.79945 10.5009C4.47583 10.3582 4.09893 10.3522 3.76177 10.502L4.65231 12.5057ZM3.3483 13.0853L4.65231 12.5057L3.76177 10.502L2.45776 11.0815L3.3483 13.0853ZM1.17992 11.4464C1.00729 12.6551 2.23257 13.5812 3.3483 13.0853L2.45776 11.0815C2.91718 10.8774 3.42171 11.2587 3.35062 11.7564L1.17992 11.4464ZM1.36703 10.1364L1.17992 11.4464L3.35062 11.7564L3.53773 10.4464L1.36703 10.1364ZM1.60753 10.8922C1.4224 10.6972 1.32636 10.4211 1.36703 10.1364L3.53773 10.4464C3.59448 10.0491 3.4609 9.65954 3.19746 9.38215L1.60753 10.8922ZM-0.185231 6.48232C-0.185231 8.18464 0.501355 9.72746 1.60752 10.8922L3.19746 9.38216C2.44584 8.59076 2.0075 7.57722 2.0075 6.48232H-0.185231ZM6.98613 -0.18279C3.11725 -0.18279 -0.185231 2.71344 -0.185231 6.48232H2.0075C2.0075 4.10014 4.14476 2.00994 6.98613 2.00994V-0.18279ZM14.1575 6.48232C14.1575 2.71344 10.855 -0.18279 6.98613 -0.18279V2.00994C9.82751 2.00994 11.9648 4.10014 11.9648 6.48232H14.1575ZM5.7056 7.36988C5.60986 7.6571 5.29941 7.81232 5.0122 7.71658L5.7056 5.63638C4.84395 5.34916 3.91261 5.81483 3.62539 6.67648L5.7056 7.36988ZM5.3589 6.67648C5.64611 6.77222 5.80134 7.08267 5.7056 7.36988L3.62539 6.67648C3.33818 7.53813 3.80385 8.46947 4.6655 8.75669L5.3589 6.67648ZM7.01282 6.99096C6.51924 6.99096 6.00904 6.89319 5.3589 6.67648L4.6655 8.75669C5.45595 9.02017 6.20943 9.18369 7.01282 9.18369V6.99096ZM8.66674 6.67648C8.0166 6.89319 7.5064 6.99096 7.01282 6.99096V9.18369C7.81621 9.18369 8.56969 9.02017 9.36014 8.75669L8.66674 6.67648ZM8.32004 7.36988C8.2243 7.08267 8.37953 6.77222 8.66674 6.67648L9.36014 8.75669C10.2218 8.46947 10.6875 7.53813 10.4002 6.67648L8.32004 7.36988ZM9.01344 7.71658C8.72623 7.81232 8.41578 7.6571 8.32004 7.36989L10.4002 6.67648C10.113 5.81484 9.18169 5.34916 8.32004 5.63638L9.01344 7.71658ZM7.01282 8.08733C7.66132 8.08733 8.29317 7.95668 9.01344 7.71658L8.32004 5.63638C7.74 5.82973 7.35144 5.8946 7.01282 5.8946V8.08733ZM5.0122 7.71658C5.73247 7.95668 6.36432 8.08733 7.01282 8.08733V5.8946C6.6742 5.8946 6.28564 5.82973 5.7056 5.63638L5.0122 7.71658Z" fill="#5FC375" mask="url(#path-2-inside-1_27715_195974)"/>
</svg>
