<svg width="16" height="16" viewBox="0 0 16 16" fill="none" xmlns="http://www.w3.org/2000/svg">
<path d="M16 0H0V16H16V0Z" fill="white" fill-opacity="0.01"/>
<path d="M6.33333 6.66667C7.622 6.66667 8.66667 5.622 8.66667 4.33333C8.66667 3.04467 7.622 2 6.33333 2C5.04467 2 4 3.04467 4 4.33333C4 5.622 5.04467 6.66667 6.33333 6.66667Z" stroke="white" stroke-width="1.33333" stroke-linecap="square" stroke-linejoin="round"/>
<path d="M10.8691 2.33325C11.5467 2.74155 11.9999 3.48449 11.9999 4.33325C11.9999 5.18202 11.5467 5.92495 10.8691 6.33325" stroke="white" stroke-width="1.33333" stroke-linecap="square" stroke-linejoin="round"/>
<path d="M1.3335 13.5999V13.9999H11.3335V13.5999C11.3335 12.1065 11.3335 11.3597 11.0429 10.7893C10.7872 10.2875 10.3792 9.87955 9.87746 9.62389C9.30703 9.33325 8.5603 9.33325 7.06683 9.33325H5.60016C4.1067 9.33325 3.35996 9.33325 2.78952 9.62389C2.28776 9.87955 1.87981 10.2875 1.62415 10.7893C1.3335 11.3597 1.3335 12.1065 1.3335 13.5999Z" stroke="white" stroke-width="1.33333" stroke-linecap="square" stroke-linejoin="round"/>
<path d="M14.6665 14.0001V13.6001C14.6665 12.1066 14.6665 11.3599 14.3758 10.7894C14.1202 10.2877 13.7122 9.87969 13.2104 9.62402" stroke="white" stroke-width="1.33333" stroke-linecap="square" stroke-linejoin="round"/>
</svg>
