<svg width="16" height="16" viewBox="0 0 16 16" fill="none" xmlns="http://www.w3.org/2000/svg">
<path fill-rule="evenodd" clip-rule="evenodd" d="M8 13C10.8528 13 13.3071 10.2773 14.3975 8.85021C14.7854 8.34256 14.7854 7.65744 14.3975 7.14979C13.3071 5.72272 10.8528 3 8 3C5.14716 3 2.69292 5.72271 1.6025 7.14979C1.2146 7.65744 1.2146 8.34256 1.6025 8.85021C2.69292 10.2773 5.14716 13 8 13Z" stroke="#A8AAAD" stroke-width="1.2" stroke-linecap="round" stroke-linejoin="round"/>
<path fill-rule="evenodd" clip-rule="evenodd" d="M8 10C9.10457 10 10 9.10457 10 8C10 6.89543 9.10457 6 8 6C6.89543 6 6 6.89543 6 8C6 9.10457 6.89543 10 8 10Z" stroke="#A8AAAD" stroke-width="1.2" stroke-linejoin="round"/>
</svg>
