<svg width="20" height="20" viewBox="0 0 20 20" color="#3F465C" fill="none" xmlns="http://www.w3.org/2000/svg">
  <path
    d="M11.9975 13.303C11.2846 13.303 10.7293 13.2493 10.5716 13.2314C10.2062 13.1884 9.94107 12.8624 9.98406 12.4969C10.0235 12.1315 10.3495 11.87 10.7185 11.9094C12.3773 12.0921 14.921 11.9344 15.3653 11.0101C15.5229 10.6805 15.9206 10.5372 16.2538 10.6984C16.587 10.8561 16.7267 11.2573 16.5655 11.5869C15.8597 13.0451 13.5488 13.303 11.9975 13.303Z"
    fill="currentColor" />
  <path
    d="M17.9774 12.6402C17.6084 12.6402 17.311 12.3428 17.311 11.9738V9.67731L16.4189 9.35845C16.1538 9.2653 15.9747 9.01093 15.9747 8.73148C15.9747 5.42465 13.2841 2.73405 9.97727 2.73405C6.67045 2.73405 3.97985 5.42465 3.97985 8.73148C3.97985 8.94644 3.87596 9.14707 3.7004 9.27246L3.31347 9.54833V11.9702C3.31347 12.3392 3.01611 12.6366 2.64709 12.6366C2.27808 12.6366 1.98071 12.3392 1.98071 11.9702V9.20439C1.98071 8.98943 2.08461 8.7888 2.26016 8.66341L2.65426 8.38037C2.83698 4.50032 6.05065 1.39771 9.97727 1.39771C13.8609 1.40129 17.0495 4.43583 17.2967 8.25856L18.2031 8.581C18.4682 8.67415 18.6474 8.92852 18.6474 9.20797V11.9738C18.6438 12.3428 18.3464 12.6402 17.9774 12.6402Z"
    fill="currentColor" />
  <path
    d="M12.6427 15.6353V15.4347C13.2267 14.9797 13.6924 14.539 13.9683 13.9192C13.3628 14.016 12.6857 13.9801 12.1411 13.9801C11.4747 13.9801 10.9051 13.998 10.5576 13.9586C9.8267 13.8762 9.30005 13.1525 9.37887 12.4217C9.46127 11.6908 10.1241 11.157 10.8514 11.243C12.3346 11.4006 13.9719 11.2286 14.6275 10.9528C14.6562 10.3437 14.649 9.70239 14.649 9.21515C14.649 6.36333 12.915 4.67229 10.1348 4.61139C10.1205 4.61139 9.7443 4.61139 9.72997 4.61139C6.9498 4.66871 5.28385 6.38124 5.28385 9.23665C5.28385 10.9993 5.31252 13.8762 7.31166 15.4383V15.6389C4.64614 16.0545 2.604 17.1508 2.604 18.5982C2.604 18.9672 2.91212 19.3112 3.28113 19.3112H16.3615C16.7305 19.3112 17.1927 18.9672 17.1927 18.5982C17.1963 17.1472 15.3118 16.0545 12.6427 15.6353Z"
    fill="currentColor" />
</svg>