<svg width="20" height="20" viewBox="0 0 20 20" fill="none" xmlns="http://www.w3.org/2000/svg">
<path d="M10 5.2505C12.9849 2.95733 16.3657 3.04889 17.6211 3.18173C17.9169 3.21303 18.125 3.46649 18.125 3.764V14.252C18.125 14.5972 17.847 14.8801 17.5025 14.9007C16.1633 14.9808 12.8954 15.3324 10 16.875" stroke="currentColor" stroke-width="1.25" stroke-linejoin="round"/>
<path d="M10 5.2505C7.01514 2.95733 3.63431 3.04889 2.37894 3.18173C2.08308 3.21303 1.875 3.46649 1.875 3.764V14.252C1.875 14.5972 2.15296 14.8801 2.49752 14.9007C3.83669 14.9808 7.10464 15.3324 10 16.875C9.9999 14.877 9.99992 8.73716 10 5.2505Z" stroke="currentColor" stroke-width="1.25" stroke-linejoin="round"/>
</svg>
