<svg width="19" height="18" viewBox="0 0 19 18" fill="none" xmlns="http://www.w3.org/2000/svg">
<mask id="path-1-inside-1" fill="white">
<path fill-rule="evenodd" clip-rule="evenodd" d="M11.7996 1.19995C10.0323 1.19995 8.59961 2.63264 8.59961 4.39995V5.99995C8.59961 7.76726 10.0323 9.19995 11.7996 9.19995C13.5669 9.19995 14.9996 7.76726 14.9996 5.99995V4.39995C14.9996 2.63264 13.5669 1.19995 11.7996 1.19995ZM10.1996 10.8C7.10682 10.8 4.59961 13.3072 4.59961 16.4V17.2H18.9996V16.4C18.9996 13.3072 16.4924 10.8 13.3996 10.8H10.1996Z"/>
</mask>
<path fill-rule="evenodd" clip-rule="evenodd" d="M11.7996 1.19995C10.0323 1.19995 8.59961 2.63264 8.59961 4.39995V5.99995C8.59961 7.76726 10.0323 9.19995 11.7996 9.19995C13.5669 9.19995 14.9996 7.76726 14.9996 5.99995V4.39995C14.9996 2.63264 13.5669 1.19995 11.7996 1.19995ZM10.1996 10.8C7.10682 10.8 4.59961 13.3072 4.59961 16.4V17.2H18.9996V16.4C18.9996 13.3072 16.4924 10.8 13.3996 10.8H10.1996Z" fill="white"/>
<path d="M4.59961 17.2H3.79961V18H4.59961V17.2ZM18.9996 17.2V18H19.7996V17.2H18.9996ZM9.39961 4.39995C9.39961 3.07447 10.4741 1.99995 11.7996 1.99995V0.399951C9.59047 0.399951 7.79961 2.19081 7.79961 4.39995H9.39961ZM9.39961 5.99995V4.39995H7.79961V5.99995H9.39961ZM11.7996 8.39995C10.4741 8.39995 9.39961 7.32543 9.39961 5.99995H7.79961C7.79961 8.20909 9.59047 9.99995 11.7996 9.99995V8.39995ZM14.1996 5.99995C14.1996 7.32543 13.1251 8.39995 11.7996 8.39995V9.99995C14.0087 9.99995 15.7996 8.20909 15.7996 5.99995H14.1996ZM14.1996 4.39995V5.99995H15.7996V4.39995H14.1996ZM11.7996 1.99995C13.1251 1.99995 14.1996 3.07447 14.1996 4.39995H15.7996C15.7996 2.19081 14.0087 0.399951 11.7996 0.399951V1.99995ZM5.39961 16.4C5.39961 13.749 7.54864 11.6 10.1996 11.6V9.99995C6.66499 9.99995 3.79961 12.8653 3.79961 16.4H5.39961ZM5.39961 17.2V16.4H3.79961V17.2H5.39961ZM18.9996 16.4H4.59961V18H18.9996V16.4ZM18.1996 16.4V17.2H19.7996V16.4H18.1996ZM13.3996 11.6C16.0506 11.6 18.1996 13.749 18.1996 16.4H19.7996C19.7996 12.8653 16.9342 9.99995 13.3996 9.99995V11.6ZM10.1996 11.6H13.3996V9.99995H10.1996V11.6Z" fill="#386EE7" mask="url(#path-1-inside-1)"/>
<mask id="path-3-outside-2" maskUnits="userSpaceOnUse" x="0" y="0.199951" width="17" height="18" fill="black">
<rect fill="white" y="0.199951" width="17" height="18"/>
<path fill-rule="evenodd" clip-rule="evenodd" d="M8.2 1.19995C6.43269 1.19995 5 2.63264 5 4.39995V5.99995C5 7.76726 6.43269 9.19995 8.2 9.19995C9.96731 9.19995 11.4 7.76726 11.4 5.99995V4.39995C11.4 2.63264 9.96731 1.19995 8.2 1.19995ZM6.6 10.8C3.50721 10.8 1 13.3072 1 16.4V17.2H15.4V16.4C15.4 13.3072 12.8928 10.8 9.8 10.8H6.6Z"/>
</mask>
<path fill-rule="evenodd" clip-rule="evenodd" d="M8.2 1.19995C6.43269 1.19995 5 2.63264 5 4.39995V5.99995C5 7.76726 6.43269 9.19995 8.2 9.19995C9.96731 9.19995 11.4 7.76726 11.4 5.99995V4.39995C11.4 2.63264 9.96731 1.19995 8.2 1.19995ZM6.6 10.8C3.50721 10.8 1 13.3072 1 16.4V17.2H15.4V16.4C15.4 13.3072 12.8928 10.8 9.8 10.8H6.6Z" fill="white"/>
<path d="M1 17.2H0.2V18H1V17.2ZM15.4 17.2V18H16.2V17.2H15.4ZM5.8 4.39995C5.8 3.07447 6.87452 1.99995 8.2 1.99995V0.399951C5.99086 0.399951 4.2 2.19081 4.2 4.39995H5.8ZM5.8 5.99995V4.39995H4.2V5.99995H5.8ZM8.2 8.39995C6.87452 8.39995 5.8 7.32543 5.8 5.99995H4.2C4.2 8.20909 5.99086 9.99995 8.2 9.99995V8.39995ZM10.6 5.99995C10.6 7.32543 9.52548 8.39995 8.2 8.39995V9.99995C10.4091 9.99995 12.2 8.20909 12.2 5.99995H10.6ZM10.6 4.39995V5.99995H12.2V4.39995H10.6ZM8.2 1.99995C9.52548 1.99995 10.6 3.07447 10.6 4.39995H12.2C12.2 2.19081 10.4091 0.399951 8.2 0.399951V1.99995ZM1.8 16.4C1.8 13.749 3.94903 11.6 6.6 11.6V9.99995C3.06538 9.99995 0.2 12.8653 0.2 16.4H1.8ZM1.8 17.2V16.4H0.2V17.2H1.8ZM15.4 16.4H1V18H15.4V16.4ZM14.6 16.4V17.2H16.2V16.4H14.6ZM9.8 11.6C12.451 11.6 14.6 13.749 14.6 16.4H16.2C16.2 12.8653 13.3346 9.99995 9.8 9.99995V11.6ZM6.6 11.6H9.8V9.99995H6.6V11.6Z" fill="#386EE7" mask="url(#path-3-outside-2)"/>
</svg>
