<svg width="38" height="46" viewBox="0 0 38 46" fill="none" xmlns="http://www.w3.org/2000/svg">
<path d="M34.8333 19.3036H31.3333V11.6643C31.3333 5.175 25.8333 0 19 0C12.1667 0 6.58333 5.175 6.58333 11.6643V19.3036H3.08333C1.33333 19.3036 0 20.5357 0 22.1786V43.125C0 44.6857 1.33333 46 3.08333 46H34.9167C36.5833 46 38 44.6857 38 43.125V22.1786C37.9167 20.5357 36.5833 19.3036 34.8333 19.3036ZM20.6667 33.1857V37.7857C20.6667 37.95 20.5 38.1964 20.25 38.1964H17.5833C17.3333 38.1964 17.1667 38.0321 17.1667 37.7857V33.1857C15.9167 32.6107 15.0833 31.3786 15.0833 29.9821C15.0833 28.0107 16.75 26.3679 18.9167 26.3679C21 26.3679 22.75 28.0107 22.75 29.9821C22.75 31.3786 21.9167 32.6107 20.6667 33.1857ZM26.5833 19.3036H11.3333V11.8286C11.3333 7.88572 14.75 4.68214 19 4.68214C23.25 4.68214 26.6667 7.88572 26.6667 11.8286L26.5833 19.3036Z" fill="white"/>
</svg>
