<svg width="16" height="16" viewBox="0 0 16 16" fill="none" xmlns="http://www.w3.org/2000/svg">
<path fill-rule="evenodd" clip-rule="evenodd" d="M2.33333 2C1.59695 2 1 2.59695 1 3.33333V12.6667C1 13.403 1.59695 14 2.33333 14H13.6667C14.403 14 15 13.403 15 12.6667V3.33333C15 2.59695 14.403 2 13.6667 2H2.33333ZM4.69209 4.9387C4.47414 4.74056 4.13684 4.75662 3.9387 4.97457C3.74056 5.19253 3.75662 5.52983 3.97457 5.72797L6.74434 8.24594C7.45633 8.8932 8.54367 8.8932 9.25566 8.24594L12.0254 5.72797C12.2434 5.52983 12.2594 5.19253 12.0613 4.97457C11.8632 4.75662 11.5259 4.74056 11.3079 4.9387L8.53814 7.45667C8.233 7.73407 7.767 7.73407 7.46186 7.45667L4.69209 4.9387Z" fill="#386EE7"/>
</svg>
