<svg width="16" height="16" viewBox="0 0 16 16" fill="none" xmlns="http://www.w3.org/2000/svg">
<path fill-rule="evenodd" clip-rule="evenodd" d="M5.82961 3.60386C5.73433 3.65217 5.63994 3.70395 5.54658 3.75927L5.03682 2.89895C5.14904 2.83246 5.26265 2.77013 5.37746 2.71193C8.09556 1.33402 11.4532 2.28446 13.0289 4.94385C14.1309 6.80356 14.0807 9.02595 13.0931 10.7819L12.2215 10.2917C13.0411 8.83435 13.0811 6.99352 12.1686 5.45361C10.8632 3.25043 8.08097 2.46257 5.82961 3.60386ZM3.79726 5.54703C2.97965 7.00376 2.94058 8.84273 3.85223 10.3813C5.15768 12.5845 7.93989 13.3724 10.1912 12.2311C10.2865 12.1828 10.3809 12.131 10.4743 12.0757L10.984 12.936C10.8718 13.0025 10.7582 13.0648 10.6434 13.123C7.9253 14.5009 4.56768 13.5505 2.99192 10.8911C1.89094 9.03297 1.94008 6.81281 2.92522 5.05759L3.79726 5.54703Z" fill="#3C3F47"/>
<path fill-rule="evenodd" clip-rule="evenodd" d="M12.6187 11.2207L10.5448 9.14691L11.2519 8.43978L13.2706 10.4469L13.0998 10.7527C13.0314 10.875 12.9382 10.9816 12.826 11.0655L12.6187 11.2207Z" fill="#3C3F47"/>
<path fill-rule="evenodd" clip-rule="evenodd" d="M4.89257 7.26881L2.84114 5.20983L2.95306 5.02336C3.01057 4.92754 3.07991 4.83932 3.15943 4.7608L3.48105 4.44321L5.59966 6.56169L4.89257 7.26881Z" fill="#3C3F47"/>
</svg>
