<svg width="18" height="16" viewBox="0 0 18 16" fill="none"
    xmlns="http://www.w3.org/2000/svg">
    <g filter="url(#filter0_b)">
        <mask id="path-1-inside-1" fill="white">
            <path fill-rule="evenodd" clip-rule="evenodd" d="M2 0.5C0.895431 0.5 0 1.39543 0 2.5V13.5C0 14.6046 0.89543 15.5 2 15.5H16C17.1046 15.5 18 14.6046 18 13.5V2.5C18 1.39543 17.1046 0.5 16 0.5H2ZM4.53033 4.46967C4.23744 4.17678 3.76256 4.17678 3.46967 4.46967C3.17678 4.76256 3.17678 5.23744 3.46967 5.53033L7.76256 9.82322C8.44598 10.5066 9.55402 10.5066 10.2374 9.82322L14.5303 5.53033C14.8232 5.23744 14.8232 4.76256 14.5303 4.46967C14.2374 4.17678 13.7626 4.17678 13.4697 4.46967L9.17678 8.76256C9.07915 8.8602 8.92085 8.86019 8.82322 8.76256L4.53033 4.46967Z"/>
        </mask>
        <path fill-rule="evenodd" clip-rule="evenodd" d="M2 0.5C0.895431 0.5 0 1.39543 0 2.5V13.5C0 14.6046 0.89543 15.5 2 15.5H16C17.1046 15.5 18 14.6046 18 13.5V2.5C18 1.39543 17.1046 0.5 16 0.5H2ZM4.53033 4.46967C4.23744 4.17678 3.76256 4.17678 3.46967 4.46967C3.17678 4.76256 3.17678 5.23744 3.46967 5.53033L7.76256 9.82322C8.44598 10.5066 9.55402 10.5066 10.2374 9.82322L14.5303 5.53033C14.8232 5.23744 14.8232 4.76256 14.5303 4.46967C14.2374 4.17678 13.7626 4.17678 13.4697 4.46967L9.17678 8.76256C9.07915 8.8602 8.92085 8.86019 8.82322 8.76256L4.53033 4.46967Z" fill="#386EE7"/>
        <path d="M3.46967 4.46967L1.34835 2.34835L1.34835 2.34835L3.46967 4.46967ZM4.53033 4.46967L6.65165 2.34835L6.65165 2.34835L4.53033 4.46967ZM3.46967 5.53033L1.34835 7.65165L1.34835 7.65165L3.46967 5.53033ZM10.2374 9.82322L8.11612 7.7019H8.11612L10.2374 9.82322ZM14.5303 5.53033L16.6516 7.65165L14.5303 5.53033ZM14.5303 4.46967L12.409 6.59099L12.409 6.59099L14.5303 4.46967ZM13.4697 4.46967L15.591 6.59099L15.591 6.59099L13.4697 4.46967ZM9.17678 8.76256L7.05546 6.64124L7.05545 6.64125L9.17678 8.76256ZM3 2.5C3 3.05228 2.55228 3.5 2 3.5V-2.5C-0.761423 -2.5 -3 -0.261424 -3 2.5H3ZM3 13.5V2.5H-3V13.5H3ZM2 12.5C2.55228 12.5 3 12.9477 3 13.5H-3C-3 16.2614 -0.761424 18.5 2 18.5V12.5ZM16 12.5H2V18.5H16V12.5ZM15 13.5C15 12.9477 15.4477 12.5 16 12.5V18.5C18.7614 18.5 21 16.2614 21 13.5H15ZM15 2.5V13.5H21V2.5H15ZM16 3.5C15.4477 3.5 15 3.05228 15 2.5H21C21 -0.261423 18.7614 -2.5 16 -2.5V3.5ZM2 3.5H16V-2.5H2V3.5ZM5.59099 6.59099C4.71231 7.46967 3.28769 7.46967 2.40901 6.59099L6.65165 2.34835C5.18718 0.883884 2.81282 0.883884 1.34835 2.34835L5.59099 6.59099ZM5.59099 3.40901C6.46967 4.28769 6.46967 5.71231 5.59099 6.59099L1.34835 2.34835C-0.116116 3.81282 -0.116116 6.18718 1.34835 7.65165L5.59099 3.40901ZM9.88388 7.7019L5.59099 3.40901L1.34835 7.65165L5.64124 11.9445L9.88388 7.7019ZM8.11612 7.7019C8.60427 7.21375 9.39573 7.21374 9.88388 7.7019L5.64124 11.9445C7.49624 13.7995 10.5038 13.7995 12.3588 11.9445L8.11612 7.7019ZM12.409 3.40901L8.11612 7.7019L12.3588 11.9445L16.6516 7.65165L12.409 3.40901ZM12.409 6.59099C11.5303 5.71231 11.5303 4.28769 12.409 3.40901L16.6516 7.65165C18.1161 6.18718 18.1161 3.81282 16.6516 2.34835L12.409 6.59099ZM15.591 6.59099C14.7123 7.46967 13.2877 7.46967 12.409 6.59099L16.6517 2.34835C15.1872 0.883883 12.8128 0.883883 11.3483 2.34835L15.591 6.59099ZM11.2981 10.8839L15.591 6.59099L11.3484 2.34835L7.05546 6.64124L11.2981 10.8839ZM6.7019 10.8839C7.9711 12.1531 10.0289 12.1531 11.2981 10.8839L7.05545 6.64125C8.1294 5.56729 9.87061 5.56731 10.9445 6.64124L6.7019 10.8839ZM2.40901 6.59099L6.7019 10.8839L10.9445 6.64124L6.65165 2.34835L2.40901 6.59099Z" fill="#386EE7" mask="url(#path-1-inside-1)"/>
    </g>
    <defs>
        <filter id="filter0_b" x="-8" y="-7.5" width="34" height="31" filterUnits="userSpaceOnUse" color-interpolation-filters="sRGB">
            <feFlood flood-opacity="0" result="BackgroundImageFix"/>
            <feGaussianBlur in="BackgroundImage" stdDeviation="4"/>
            <feComposite in2="SourceAlpha" operator="in" result="effect1_backgroundBlur"/>
            <feBlend mode="normal" in="SourceGraphic" in2="effect1_backgroundBlur" result="shape"/>
        </filter>
    </defs>
</svg>
