<svg width="16" height="16" viewBox="0 0 16 16" fill="none" xmlns="http://www.w3.org/2000/svg">
  <path d="M6.28809 11.648L10.1121 8.38401L14.0641 5.34401C14.3041 5.15201 14.6561 5.40802 14.5441 5.69602L12.7041 10.72L6.28809 11.648Z" fill="#4C6AFF"/>
  <path d="M9.26391 13.36L12.7039 10.704L5.10391 3.69601L2.15991 11.744L8.57591 13.504C8.81591 13.568 9.07191 13.52 9.26391 13.36Z" fill="#4C6AFF"/>
  <path d="M5.088 3.696L2.16 11.744L1.008 14.912C0.383998 14.272 0 13.392 0 12.432V3.56801C0 2.97601 0.144 2.432 0.4 1.936L5.088 3.696Z" fill="#4C6AFF"/>
  <path d="M5.08791 3.69601L2.15991 11.744L3.47191 12.096L5.08791 3.69601Z" fill="#3D55CC"/>
  <path d="M12.688 10.704L10.784 7.85602L10.144 8.35201L12.688 10.704Z" fill="#3D55CC"/>
</svg>
