<svg width="16" height="16" viewBox="0 0 16 16" fill="none" xmlns="http://www.w3.org/2000/svg">
<path d="M13.3333 8L15 10H10" stroke="#7D8085" stroke-linejoin="round"/>
<path d="M11.5 14L10 12L15 12" stroke="#7D8085" stroke-linejoin="round"/>
<path fill-rule="evenodd" clip-rule="evenodd" d="M2.2999 1.8999C1.5267 1.8999 0.899902 2.5267 0.899902 3.2999V12.6999C0.899902 13.4731 1.5267 14.0999 2.2999 14.0999H8.4999V12.8999H2.2999C2.18945 12.8999 2.0999 12.8104 2.0999 12.6999V3.86423L6.97559 7.9273C7.56894 8.42176 8.43082 8.42176 9.02418 7.9273L13.8999 3.8642V6.8999H15.0999V3.2999C15.0999 2.5267 14.4731 1.8999 13.6999 1.8999H2.2999ZM12.9426 3.0999H3.05717L7.74381 7.00543C7.89215 7.12905 8.10762 7.12905 8.25596 7.00543L12.9426 3.0999Z" fill="#7D8085"/>
</svg>
