<svg width="16" height="16" viewBox="0 0 16 16" fill="none" xmlns="http://www.w3.org/2000/svg">
<path d="M2.13379 1.92023C2.13379 1.44894 2.51584 1.06689 2.98712 1.06689H10.5038C10.7743 1.06689 11.0287 1.1951 11.1896 1.41246L13.6996 4.80255C13.8084 4.94949 13.8671 5.12748 13.8671 5.31032V14.0802C13.8671 14.5515 13.4851 14.9336 13.0138 14.9336H2.98712C2.51584 14.9336 2.13379 14.5515 2.13379 14.0802V1.92023Z" fill="url(#paint0_linear_23017_111477)"/>
<path d="M7.70473 4.44378C7.81404 4.18096 8.18635 4.18096 8.29566 4.44378L9.19475 6.60545C9.24083 6.71625 9.34503 6.79195 9.46464 6.80154L11.7984 6.98863C12.0821 7.01138 12.1971 7.36546 11.981 7.55064L10.2029 9.07372C10.1118 9.15179 10.072 9.27427 10.0998 9.391L10.643 11.6683C10.7091 11.9452 10.4079 12.164 10.165 12.0156L8.167 10.7953C8.06459 10.7327 7.9358 10.7327 7.83339 10.7953L5.83541 12.0156C5.5925 12.164 5.2913 11.9452 5.35734 11.6683L5.90056 9.391C5.92841 9.27427 5.88861 9.15179 5.79747 9.07372L4.01943 7.55064C3.80326 7.36546 3.91831 7.01138 4.20204 6.98863L6.53575 6.80154C6.65536 6.79195 6.75956 6.71625 6.80564 6.60545L7.70473 4.44378Z" fill="white"/>
<defs>
<linearGradient id="paint0_linear_23017_111477" x1="8.00046" y1="1.06689" x2="8.00046" y2="14.9336" gradientUnits="userSpaceOnUse">
<stop stop-color="#FF9A70"/>
<stop offset="1" stop-color="#FF7033"/>
</linearGradient>
</defs>
</svg>
