<svg width="12" height="10" viewBox="0 0 12 10" fill="none" xmlns="http://www.w3.org/2000/svg">
<path fill-rule="evenodd" clip-rule="evenodd" d="M1.53711 9.11367V7.88867H10.4621V9.11367H1.53711ZM10.5496 7.01367H1.44961C1.01491 7.01367 0.662109 7.36647 0.662109 7.80117V9.20117C0.662109 9.41003 0.745078 9.61033 0.892763 9.75802C1.04045 9.9057 1.24075 9.98867 1.44961 9.98867H10.5496C10.9843 9.98867 11.3371 9.63587 11.3371 9.20117V7.80117C11.3371 7.36647 10.9843 7.01367 10.5496 7.01367ZM1.53711 4.91367V0.888672H7.66211V1.58057V4.22237V4.91367H1.53711ZM8.53711 4.65963V5.00117C8.53711 5.43587 8.18431 5.78867 7.74961 5.78867H1.44961C1.24075 5.78867 1.04045 5.7057 0.892763 5.55802C0.745078 5.41033 0.662109 5.21003 0.662109 5.00117V0.801172C0.662109 0.366472 1.01491 0.0136719 1.44961 0.0136719H7.74961C8.18431 0.0136719 8.53711 0.366472 8.53711 0.801172V1.14307L10.1975 0.312867V0.313567C10.3176 0.25356 10.451 0.22523 10.585 0.231266C10.7191 0.237301 10.8494 0.277502 10.9636 0.348052C11.0777 0.418602 11.172 0.517161 11.2374 0.634372C11.3027 0.751583 11.3371 0.883558 11.3371 1.01777V4.78517C11.3371 4.91938 11.3027 5.05135 11.2374 5.16856C11.172 5.28578 11.0777 5.38434 10.9636 5.45489C10.8494 5.52544 10.7191 5.56564 10.585 5.57167C10.451 5.57771 10.3176 5.54938 10.1975 5.48937L8.53711 4.65963ZM8.53711 3.68127L10.4621 4.64377V1.15847L8.53711 2.12097V3.68057V3.68127Z" fill="#FFFFFF" fill-opacity="1"/>
</svg>
