<svg xmlns="http://www.w3.org/2000/svg" width="16" height="16" viewBox="0 0 16 16" fill="none">
  <path d="M8 16C3.58172 16 1.08564e-06 12.4183 6.99382e-07 8C3.13124e-07 3.58172 3.58172 1.08564e-06 8 6.99382e-07C12.4183 3.13124e-07 16 3.58172 16 8C16 12.4183 12.4183 16 8 16Z" fill="#FE5B4C"/>
  <path fill-rule="evenodd" clip-rule="evenodd" d="M7.15059 11.7498C7.15059 12.0259 7.37444 12.2498 7.65059 12.2498L8.35059 12.2498C8.62673 12.2498 8.85059 12.0259 8.85059 11.7498L8.85059 11.0498C8.85059 10.7736 8.62673 10.5498 8.35059 10.5498L7.65059 10.5498C7.37444 10.5498 7.15059 10.7736 7.15059 11.0498L7.15059 11.7498ZM7.15059 8.90015C7.15059 9.17629 7.37444 9.40015 7.65059 9.40015L8.35059 9.40015C8.62673 9.40015 8.85059 9.17629 8.85059 8.90015L8.85059 4.20015C8.85059 3.924 8.62673 3.70015 8.35059 3.70015L7.65059 3.70015C7.37444 3.70015 7.15059 3.924 7.15059 4.20015L7.15059 8.90015Z" fill="white"/>
</svg>