<svg width="16" height="16" viewBox="0 0 16 16" fill="none" xmlns="http://www.w3.org/2000/svg">
  <path d="M4.26423 2.8705C4.41107 2.63974 4.66564 2.5 4.93916 2.5H11.0608C11.3344 2.5 11.5889 2.63974 11.7358 2.8705L14.8749 7.80346C14.9566 7.93182 15 8.08081 15 8.23296V12.2C15 12.6418 14.6418 13 14.2 13H1.8C1.35817 13 1 12.6418 1 12.2V8.23296C1 8.08081 1.04339 7.93182 1.12507 7.80346L4.26423 2.8705Z" stroke="#7D8085" stroke-width="1.2"/>
  <path d="M1.5 8H4.6C4.85181 8 5.08892 8.11856 5.24 8.32L6.26 9.68C6.41108 9.88144 6.64819 10 6.9 10H9.1C9.35181 10 9.58892 9.88144 9.74 9.68L10.76 8.32C10.9111 8.11856 11.1482 8 11.4 8H14.5" stroke="#7D8085" stroke-width="1.2"/>
</svg>
