<svg width="12" height="12" viewBox="0 0 12 12" fill="none" xmlns="http://www.w3.org/2000/svg">
<path d="M0.5 3.5V3C0.223858 3 0 3.22386 0 3.5H0.5ZM0.5 8.5H0C0 8.77614 0.223858 9 0.5 9L0.5 8.5ZM6 8.5H6.5C6.5 8.22386 6.27614 8 6 8V8.5ZM6 11H5.5C5.5 11.1979 5.61673 11.3772 5.79772 11.4573C5.97871 11.5373 6.1899 11.5031 6.33634 11.37L6 11ZM11.5 6L11.8363 6.36997C11.9406 6.27521 12 6.14087 12 6C12 5.85913 11.9406 5.72479 11.8363 5.63003L11.5 6ZM6 1L6.33634 0.63003C6.1899 0.496902 5.97871 0.462678 5.79772 0.542743C5.61673 0.622808 5.5 0.802091 5.5 1H6ZM6 3.5V4C6.27614 4 6.5 3.77614 6.5 3.5H6ZM0 3.5V8.5H1V3.5H0ZM0.5 9H6V8H0.5V9ZM5.5 8.5V11H6.5V8.5H5.5ZM6.33634 11.37L11.8363 6.36997L11.1637 5.63003L5.66366 10.63L6.33634 11.37ZM11.8363 5.63003L6.33634 0.63003L5.66366 1.36997L11.1637 6.36997L11.8363 5.63003ZM5.5 1V3.5H6.5V1H5.5ZM6 3H0.5V4H6V3Z" fill="#262A33" fill-opacity="0.9"/>
</svg>
