<svg width="19" height="12" viewBox="0 0 19 12" fill="none" xmlns="http://www.w3.org/2000/svg">
<path d="M17.4215 6.52648C16.6991 7.32655 15.6015 8.40264 14.2671 9.27498C12.9296 10.1494 11.3968 10.7915 9.79106 10.7915C8.18533 10.7915 6.65248 10.1494 5.31498 9.27498C3.9806 8.40264 2.88298 7.32655 2.16065 6.52648C1.77488 6.09919 1.77488 5.48377 2.16065 5.05648C2.88298 4.25641 3.9806 3.18032 5.31498 2.30798C6.65248 1.4336 8.18533 0.791504 9.79106 0.791504C11.3968 0.791504 12.9296 1.4336 14.2671 2.30798C15.6015 3.18032 16.6992 4.25641 17.4215 5.05648C17.8072 5.48377 17.8072 6.09919 17.4215 6.52648Z" stroke="#A8AAAD" stroke-width="1.25" stroke-linecap="round" stroke-linejoin="round"/>
<path d="M11.7962 5.79166C11.7962 6.89848 10.899 7.79573 9.79215 7.79573C8.68534 7.79573 7.78809 6.89848 7.78809 5.79166C7.78809 4.68485 8.68534 3.7876 9.79215 3.7876C10.899 3.7876 11.7962 4.68485 11.7962 5.79166Z" stroke="#A8AAAD" stroke-width="1.25" stroke-linejoin="round"/>
</svg>
