<svg width="32" height="32" viewBox="0 0 32 32" fill="none" xmlns="http://www.w3.org/2000/svg">
<path d="M10.2868 12.4485L15.6849 10.1351C15.8861 10.0488 16.1139 10.0488 16.3151 10.1351L21.7132 12.4485C22.1981 12.6563 22.1981 13.3437 21.7132 13.5515L16.3151 15.8649C16.1139 15.9512 15.8861 15.9512 15.6849 15.8649L10.2868 13.5515C9.80194 13.3437 9.80194 12.6563 10.2868 12.4485Z" stroke="white" stroke-width="1.2" stroke-linejoin="round"/>
<path d="M12.5 14.5L10.4125 15.1958C9.90005 15.3667 9.85657 16.0746 10.3442 16.3068L15.6561 18.8362C15.8736 18.9398 16.1264 18.9398 16.3439 18.8362L21.6558 16.3068C22.1434 16.0746 22.1 15.3667 21.5875 15.1958L19.5 14.5" stroke="white" stroke-width="1.2" stroke-linejoin="round"/>
<path d="M12.5 17.5L10.4125 18.1958C9.90005 18.3667 9.85657 19.0746 10.3442 19.3068L15.6561 21.8362C15.8736 21.9398 16.1264 21.9398 16.3439 21.8362L21.6558 19.3068C22.1434 19.0746 22.1 18.3667 21.5875 18.1958L19.5 17.5" stroke="white" stroke-width="1.2" stroke-linejoin="round"/>
<g clip-path="url(#clip0_20164_100198)">
<path d="M15.9996 0C7.23637 0 0.150391 7.08598 0.150391 15.8492C0.150391 24.6125 7.23637 31.6985 15.9996 31.6985C24.744 31.6985 31.8489 24.6125 31.8489 15.8492C31.8489 7.08598 24.744 0 15.9996 0Z" fill="#6BA9FF"/>
<path d="M18.2427 9.04664C18.2427 7.80282 17.2251 6.78516 15.9813 6.78516C14.7374 6.78516 13.7198 7.80282 13.7198 9.04664C13.7198 10.2905 14.7374 11.3081 15.9813 11.3081C17.2251 11.3081 18.2427 10.2905 18.2427 9.04664Z" fill="white"/>
<path d="M9.1968 14.7192V15.8499V17.5461H10.3275V15.8499H21.635V17.5461H22.7657V14.7192H16.5466V13.0231H15.4159V14.7192H9.1968Z" fill="white"/>
<path d="M7.51953 20.9383C7.51953 22.1821 8.5372 23.1998 9.78102 23.1998C11.0248 23.1998 12.0425 22.1821 12.0425 20.9383C12.0425 19.6945 11.0248 18.6768 9.78102 18.6768C8.5372 18.6768 7.51953 19.6945 7.51953 20.9383Z" fill="white"/>
<path d="M13.7198 20.9383C13.7198 22.1821 14.7374 23.1998 15.9813 23.1998C17.2439 23.1998 18.2616 22.1821 18.2427 20.9383C18.2427 19.6945 17.2251 18.6768 15.9813 18.6768C14.7374 18.6768 13.7198 19.6945 13.7198 20.9383Z" fill="white"/>
<path d="M19.9577 20.9383C19.9577 22.1821 20.9754 23.1998 22.2192 23.1998C23.463 23.1998 24.4807 22.1821 24.4807 20.9383C24.4807 19.6945 23.463 18.6768 22.2192 18.6768C20.9754 18.6768 19.9577 19.6945 19.9577 20.9383Z" fill="white"/>
</g>
<defs>
<clipPath id="clip0_20164_100198">
<rect width="32" height="32" fill="white"/>
</clipPath>
</defs>
</svg>
