<svg width="17" height="17" viewBox="0 0 17 17" fill="none" xmlns="http://www.w3.org/2000/svg">
    <path fill-rule="evenodd" clip-rule="evenodd" d="M1.14766 3.30273C0.705828 3.30273 0.347656 3.66091 0.347656 4.10273V13.5027C0.347656 13.9446 0.705828 14.3027 1.14766 14.3027H12.5477C12.9895 14.3027 13.3477 13.9446 13.3477 13.5027V4.10273C13.3477 3.66091 12.9895 3.30273 12.5477 3.30273H1.14766ZM1.91479 5.76799L6.07124 8.53896C6.5415 8.85246 7.15414 8.85246 7.6244 8.53896L11.7808 5.76799L11.1152 4.76953L6.95876 7.5405C6.89158 7.58528 6.80406 7.58528 6.73688 7.5405L2.58044 4.76953L1.91479 5.76799Z" fill="#C4C4C4"/>
    <path d="M11.9727 14.959C14.3889 14.959 16.3477 13.0002 16.3477 10.584C16.3477 8.16774 14.3889 6.20898 11.9727 6.20898C9.55641 6.20898 7.59766 8.16774 7.59766 10.584C7.59766 13.0002 9.55641 14.959 11.9727 14.959Z" fill="#FFAA00"/>
    <path d="M15.2269 10.5836C15.2269 8.78631 13.7699 7.32932 11.9727 7.32932L11.9727 13.8379C13.7699 13.8379 15.2269 12.3809 15.2269 10.5836Z" fill="white"/>
    </svg>
