<svg width="20" height="20" viewBox="0 0 20 20" fill="none" xmlns="http://www.w3.org/2000/svg">
<path d="M2.5 2.5H16.875C17.2202 2.5 17.5 2.77982 17.5 3.125V16.875C17.5 17.2202 17.2202 17.5 16.875 17.5H2.5V2.5Z" stroke="currentColor" stroke-width="1.25" stroke-linejoin="round"/>
<path d="M5.625 2.5V18.125" stroke="currentColor" stroke-width="1.25"/>
<path d="M7.64642 7.61581H10.9246C10.7131 7.23243 10.4528 6.873 10.1437 6.52955L10.9165 6.25C11.2093 6.63339 11.4859 7.08866 11.7381 7.61581H14.821V8.36661H13.5765C13.186 9.58067 12.6085 10.595 11.8438 11.4177C12.6898 12.0966 13.7473 12.6637 15 13.111L14.5689 13.75C13.2592 13.2708 12.1692 12.6717 11.3069 11.9529C10.3877 12.7516 9.25705 13.3427 7.91486 13.726L7.5 13.0551C8.81779 12.7196 9.89967 12.1925 10.7619 11.4657C9.86714 10.5871 9.24078 9.54872 8.891 8.36661H7.64642V7.61581ZM9.63124 8.36661C9.97289 9.34904 10.526 10.2117 11.2988 10.9465C11.9577 10.2356 12.4539 9.373 12.7793 8.36661H9.63124Z" fill="currentColor" stroke="currentColor" stroke-width="0.125"/>
</svg>
