<svg width="16" height="17" viewBox="0 0 16 17" fill="none" xmlns="http://www.w3.org/2000/svg">
    <path d="M6.34916 4.07812L9.06626 4.07812L9.06626 7.02164L10.4248 7.02164L7.70771 9.96516L4.99062 7.02164L6.34916 7.02164L6.34916 4.07812Z" fill="#5FC375"/>
    <path d="M9.06626 4.07812L9.33797 4.07812C9.33797 3.92806 9.21632 3.80642 9.06626 3.80642L9.06626 4.07812ZM6.34916 4.07812L6.34916 3.80642C6.1991 3.80642 6.07745 3.92806 6.07745 4.07812L6.34916 4.07812ZM6.34916 7.02164L6.34916 7.29335C6.49922 7.29335 6.62087 7.1717 6.62087 7.02164L6.34916 7.02164ZM4.99062 7.02164L4.99062 6.74993C4.88269 6.74993 4.785 6.81381 4.74172 6.91267C4.69843 7.01153 4.71776 7.12664 4.79096 7.20594L4.99062 7.02164ZM7.70771 9.96516L7.50806 10.1495C7.55949 10.2052 7.63188 10.2369 7.70771 10.2369C7.78354 10.2369 7.85593 10.2052 7.90736 10.1495L7.70771 9.96516ZM10.4248 7.02164L10.6245 7.20594C10.6977 7.12664 10.717 7.01153 10.6737 6.91267C10.6304 6.81381 10.5327 6.74993 10.4248 6.74993L10.4248 7.02164ZM9.06626 7.02164L8.79455 7.02164C8.79455 7.1717 8.9162 7.29335 9.06626 7.29335L9.06626 7.02164ZM9.06626 3.80642L6.34916 3.80642L6.34916 4.34983L9.06626 4.34983L9.06626 3.80642ZM6.07745 4.07812L6.07745 7.02164L6.62087 7.02164L6.62087 4.07812L6.07745 4.07812ZM6.34916 6.74993L4.99062 6.74993L4.99062 7.29335L6.34916 7.29335L6.34916 6.74993ZM4.79096 7.20594L7.50806 10.1495L7.90736 9.78087L5.19027 6.83735L4.79096 7.20594ZM7.90736 10.1495L10.6245 7.20594L10.2252 6.83735L7.50806 9.78087L7.90736 10.1495ZM10.4248 6.74993L9.06626 6.74993L9.06626 7.29335L10.4248 7.29335L10.4248 6.74993ZM9.33797 7.02164L9.33797 4.07812L8.79455 4.07812L8.79455 7.02164L9.33797 7.02164Z" fill="#5FC375"/>
    <path d="M2.51453 10.4799H4.37934C4.78549 10.4799 5.08928 10.5765 5.2907 10.7696C5.49378 10.9628 5.59532 11.2377 5.59532 11.5943C5.59532 11.9608 5.4847 12.2473 5.26346 12.4537C5.04388 12.66 4.7079 12.7632 4.25552 12.7632H3.64134V14.1105H2.51453V10.4799ZM3.64134 12.0277H3.91624C4.13252 12.0277 4.28441 11.9906 4.37192 11.9163C4.45942 11.8403 4.50317 11.7437 4.50317 11.6265C4.50317 11.5126 4.4652 11.416 4.38925 11.3368C4.3133 11.2575 4.17049 11.2179 3.96081 11.2179H3.64134V12.0277Z" fill="#5FC375"/>
    <path d="M6.04357 12.2976C6.04357 11.7049 6.20867 11.2435 6.53887 10.9133C6.86907 10.5831 7.32888 10.418 7.91829 10.418C8.52256 10.418 8.98815 10.5806 9.31505 10.9058C9.64195 11.2294 9.8054 11.6835 9.8054 12.2679C9.8054 12.6922 9.73358 13.0406 9.58994 13.313C9.44795 13.5838 9.24158 13.7951 8.97081 13.947C8.7017 14.0972 8.36571 14.1724 7.96287 14.1724C7.55342 14.1724 7.21413 14.1072 6.94502 13.9767C6.67755 13.8463 6.46045 13.6399 6.29369 13.3576C6.12694 13.0753 6.04357 12.722 6.04357 12.2976ZM7.16543 12.3026C7.16543 12.6691 7.23312 12.9325 7.3685 13.0926C7.50554 13.2528 7.69128 13.3328 7.92572 13.3328C8.16677 13.3328 8.35333 13.2544 8.48541 13.0976C8.61749 12.9407 8.68353 12.6592 8.68353 12.2531C8.68353 11.9113 8.61419 11.662 8.47551 11.5052C8.33847 11.3467 8.15191 11.2674 7.91581 11.2674C7.68962 11.2674 7.50801 11.3475 7.37098 11.5076C7.23395 11.6678 7.16543 11.9328 7.16543 12.3026Z" fill="#5FC375"/>
    <path d="M10.4047 10.4799H12.2695C12.6757 10.4799 12.9795 10.5765 13.1809 10.7696C13.384 10.9628 13.4855 11.2377 13.4855 11.5943C13.4855 11.9608 13.3749 12.2473 13.1537 12.4537C12.9341 12.66 12.5981 12.7632 12.1457 12.7632H11.5315V14.1105H10.4047V10.4799ZM11.5315 12.0277H11.8064C12.0227 12.0277 12.1746 11.9906 12.2621 11.9163C12.3496 11.8403 12.3934 11.7437 12.3934 11.6265C12.3934 11.5126 12.3554 11.416 12.2794 11.3368C12.2035 11.2575 12.0607 11.2179 11.851 11.2179H11.5315V12.0277Z" fill="#5FC375"/>
    </svg>
    