<svg width="24" height="24" viewBox="0 0 24 24" fill="none" xmlns="http://www.w3.org/2000/svg">
<path d="M4.66667 0H16.6667L22 5.33333V21.3333C22 22.8061 20.8061 24 19.3333 24H4.66667C3.19391 24 2 22.8061 2 21.3333V2.66667C2 1.19391 3.19391 0 4.66667 0Z" fill="url(#paint0_linear)"/>
<path d="M12.2672 14.4266H10.4405V17.9999H8.58716V8.50659H12.2672C13.2272 8.50659 13.9872 8.79104 14.5472 9.35993C15.116 9.91992 15.4005 10.6221 15.4005 11.4666C15.4005 12.3021 15.116 13.0044 14.5472 13.5733C13.9783 14.1421 13.2183 14.4266 12.2672 14.4266ZM12.1738 10.1599H10.4405V12.7599H12.1738C12.5916 12.7599 12.9249 12.6444 13.1738 12.4133C13.4227 12.1821 13.5472 11.8666 13.5472 11.4666C13.5472 11.0755 13.4227 10.7599 13.1738 10.5199C12.9249 10.2799 12.5916 10.1599 12.1738 10.1599Z" fill="white"/>
<path d="M16.6667 4V0L22 5.33333H18C17.2636 5.33333 16.6667 4.73638 16.6667 4Z" fill="white" fill-opacity="0.5"/>
<defs>
<linearGradient id="paint0_linear" x1="12" y1="0" x2="12" y2="24" gradientUnits="userSpaceOnUse">
<stop stop-color="#FF9A70"/>
<stop offset="1" stop-color="#FF7033"/>
</linearGradient>
</defs>
</svg>
