<svg width="24" height="24" viewBox="0 0 24 24" fill="none" xmlns="http://www.w3.org/2000/svg">
<path d="M7.20274 6.20508L6.2286 7.02478C7.96305 8.31968 9.5787 9.80465 10.9983 11.2896C8.82433 13.4814 7.11958 15.6376 6.22266 16.5049L8.0759 18.0552C8.73523 16.6949 10.1667 14.6338 12.0853 12.4717C14.0039 14.6457 15.4414 16.7187 16.1007 18.0849C16.1007 18.0849 17.9064 16.1663 18.0668 16.4633C17.3718 15.6792 15.673 13.3983 13.3921 11.0639C14.6989 9.7215 16.166 8.39096 17.7342 7.2208L17.3065 6.42485C15.5305 7.3099 13.8376 8.62262 12.317 10.0185C10.7845 8.56322 9.05005 7.17922 7.20274 6.20508Z" fill="#A8AAAD"/>
</svg>
