<svg width="12" height="12" viewBox="0 0 12 12" fill="none" xmlns="http://www.w3.org/2000/svg">
<path d="M6 11C7.38071 11 8.63071 10.4404 9.53553 9.53553C10.4404 8.63071 11 7.38071 11 6C11 4.61929 10.4404 3.36929 9.53553 2.46447C8.63071 1.55964 7.38071 1 6 1C4.61929 1 3.36929 1.55964 2.46447 2.46447C1.55964 3.36929 1 4.61929 1 6C1 7.38071 1.55964 8.63071 2.46447 9.53553C3.36929 10.4404 4.61929 11 6 11Z" stroke="#A8AAAD" stroke-width="0.428571" stroke-linejoin="round"/>
<path d="M6 7.15625V6.15625C6.82843 6.15625 7.5 5.48468 7.5 4.65625C7.5 3.82782 6.82843 3.15625 6 3.15625C5.17157 3.15625 4.5 3.82782 4.5 4.65625" stroke="#A8AAAD" stroke-width="0.857143" stroke-linecap="round" stroke-linejoin="round"/>
<path fill-rule="evenodd" clip-rule="evenodd" d="M6 9.40625C6.34518 9.40625 6.625 9.12643 6.625 8.78125C6.625 8.43607 6.34518 8.15625 6 8.15625C5.65482 8.15625 5.375 8.43607 5.375 8.78125C5.375 9.12643 5.65482 9.40625 6 9.40625Z" fill="#A8AAAD"/>
</svg>
