<svg width="14" height="14" viewBox="0 0 14 14" fill="none" xmlns="http://www.w3.org/2000/svg">
<path d="M0.875 7C0.875 3.61726 3.61726 0.875 7 0.875C10.3827 0.875 13.125 3.61726 13.125 7C13.125 10.3827 10.3827 13.125 7 13.125C3.61726 13.125 0.875 10.3827 0.875 7Z" fill="#5FC375"/>
<path d="M5.25 5.8166V5.78452C5.25 5.25791 5.51318 4.76615 5.95135 4.47404V4.47404C6.48039 4.12134 7.16961 4.12134 7.69865 4.47404L7.76962 4.52135C8.16344 4.7839 8.4 5.22591 8.4 5.69923V5.69923C8.4 6.10745 8.22378 6.49579 7.91657 6.76461L7.46667 7.15827C7.17011 7.41776 7 7.79263 7 8.18669V8.9666" stroke="white" stroke-width="1.2285"/>
<path d="M6.854 10.1084H7.14567" stroke="white" stroke-width="1.02375" stroke-linecap="round"/>
</svg>
