<svg width="30" height="7" viewBox="0 0 30 7" fill="none" xmlns="http://www.w3.org/2000/svg">
<g clip-path="url(#clip0_25017_162609)">
<path fill-rule="evenodd" clip-rule="evenodd" d="M16.4142 1.41489C15.6332 0.63384 14.3668 0.633839 13.5858 1.41489L9.75834 5.24234C8.63312 6.36756 7.10699 6.9997 5.5157 6.9997H0.5C0.223858 6.9997 0 7.22356 0 7.4997C0 7.77584 0.223857 7.9997 0.5 7.9997H6.29318C6.55437 7.9997 6.68518 8.31549 6.50049 8.50019C6.3158 8.68488 6.4466 9.00068 6.7078 9.00068H23.2922C23.5534 9.00068 23.6842 8.68488 23.4995 8.50019C23.3148 8.31549 23.4456 7.9997 23.7068 7.9997H29.5C29.7761 7.9997 30 7.77584 30 7.4997C30 7.22356 29.7761 6.9997 29.5 6.9997H24.4843C22.893 6.9997 21.3669 6.36756 20.2417 5.24234L16.4142 1.41489Z" fill="#5F90FD"/>
</g>
<defs>
<clipPath id="clip0_25017_162609">
<rect width="30" height="7" fill="white"/>
</clipPath>
</defs>
</svg>
