<svg width="17" height="17" viewBox="0 0 17 17" fill="none" xmlns="http://www.w3.org/2000/svg">
    <path fill-rule="evenodd" clip-rule="evenodd" d="M1.3 3.30273C0.858172 3.30273 0.5 3.66091 0.5 4.10273V13.5027C0.5 13.9446 0.858172 14.3027 1.3 14.3027H12.7C13.1418 14.3027 13.5 13.9446 13.5 13.5027V4.10273C13.5 3.66091 13.1418 3.30273 12.7 3.30273H1.3ZM2.06714 5.76799L6.22359 8.53896C6.69384 8.85246 7.30649 8.85246 7.77675 8.53896L11.9332 5.76799L11.2676 4.76953L7.11111 7.5405C7.04393 7.58528 6.95641 7.58528 6.88923 7.5405L2.73278 4.76953L2.06714 5.76799Z" fill="#C4C4C4"/>
    <path d="M7.75 10.5918C7.75 8.17555 9.70875 6.2168 12.125 6.2168C14.5412 6.2168 16.5 8.17555 16.5 10.5918C16.5 13.008 14.5412 14.9668 12.125 14.9668C9.70875 14.9668 7.75 13.008 7.75 10.5918Z" fill="#5FC375"/>
    <path d="M9.75012 10.3699L11.6457 12.2655L14.7496 9.16211" stroke="white" stroke-width="1.2" stroke-linejoin="round"/>
    </svg>
    