<svg width="16" height="16" viewBox="0 0 16 16" fill="none" xmlns="http://www.w3.org/2000/svg">
<path d="M13 2.5V9L11.0255 9.28207C10.0223 9.42539 8.99949 9.33316 8.03811 9.0127C7.02805 8.67602 5.95096 8.59151 4.90075 8.76654L3.5 9V3.09428C3.5 2.95392 3.59305 2.83056 3.72801 2.792L4.86925 2.46593C5.92212 2.16511 7.04758 2.24772 8.04525 2.69904C8.98778 3.12542 10.0461 3.22341 11.0509 2.97734L13 2.5Z" fill="#F74F4F"/>
<path d="M13 9H13.5C13.5 9.24883 13.317 9.45979 13.0707 9.49497L13 9ZM13 2.5L12.8811 2.01435C13.0302 1.97783 13.1879 2.01185 13.3087 2.10664C13.4295 2.20142 13.5 2.34645 13.5 2.5H13ZM4.90075 8.76654L4.81855 8.27334H4.81855L4.90075 8.76654ZM11.0255 9.28207L11.0962 9.77705L11.0255 9.28207ZM4.86925 2.46593L4.73188 1.98517H4.73189L4.86925 2.46593ZM3.72801 2.792L3.86537 3.27276L3.86537 3.27276L3.72801 2.792ZM11.0509 2.97734L10.9319 2.49169L11.0509 2.97734ZM8.04525 2.69904L7.83916 3.1546L8.04525 2.69904ZM8.03811 9.0127L7.88 9.48705V9.48704L8.03811 9.0127ZM12.5 9V2.5H13.5V9H12.5ZM3.4178 8.5068L4.81855 8.27334L4.98295 9.25974L3.5822 9.4932L3.4178 8.5068ZM10.9548 8.7871L12.9293 8.50503L13.0707 9.49497L11.0962 9.77705L10.9548 8.7871ZM5.00661 2.94669L3.86537 3.27276L3.59065 2.31124L4.73188 1.98517L5.00661 2.94669ZM13.1189 2.98565L11.1698 3.46299L10.9319 2.49169L12.8811 2.01435L13.1189 2.98565ZM4 3.09428V9H3V3.09428H4ZM4 9V14.5H3V9H4ZM11.1698 3.46299C10.0563 3.73567 8.88361 3.62708 7.83916 3.1546L8.25133 2.24349C9.09194 2.62376 10.0358 2.71116 10.9319 2.49169L11.1698 3.46299ZM4.73189 1.98517C5.89861 1.65182 7.14578 1.74336 8.25133 2.24349L7.83916 3.1546C6.94938 2.75208 5.94562 2.6784 5.00661 2.94669L4.73189 1.98517ZM8.19622 8.53836C9.08397 8.83428 10.0284 8.91944 10.9548 8.7871L11.0962 9.77705C10.0161 9.93134 8.91502 9.83205 7.88 9.48705L8.19622 8.53836ZM4.81855 8.27334C5.94921 8.0849 7.10879 8.17588 8.19622 8.53836L7.88 9.48704C6.9473 9.17615 5.95272 9.09811 4.98295 9.25974L4.81855 8.27334ZM3.86537 3.27276C3.94506 3.24999 4 3.17716 4 3.09428H3C3 2.73068 3.24104 2.41112 3.59065 2.31123L3.86537 3.27276Z" fill="#F74F4F"/>
</svg>
