<svg width="16" height="16" viewBox="0 0 16 16" fill="none" xmlns="http://www.w3.org/2000/svg">
<path d="M16 0H0V16H16V0Z" fill="white" fill-opacity="0.01"/>
<path d="M7.33333 6.66667C8.622 6.66667 9.66667 5.622 9.66667 4.33333C9.66667 3.04467 8.622 2 7.33333 2C6.04467 2 5 3.04467 5 4.33333C5 5.622 6.04467 6.66667 7.33333 6.66667Z" stroke="#262A33" stroke-opacity="0.9" stroke-linejoin="round"/>
<path d="M11.5858 10.2528L14.4142 13.0813M14.4142 10.2528L11.5858 13.0813L14.4142 10.2528Z" stroke="#262A33" stroke-opacity="0.9" stroke-linecap="round" stroke-linejoin="round"/>
<path d="M10 9.33301H7.26667C5.7732 9.33301 5.02647 9.33301 4.45603 9.62364C3.95426 9.87931 3.54631 10.2873 3.29065 10.789C3 11.3595 3 11.5065 3 13V13.5H10" stroke="#262A33" stroke-opacity="0.9" stroke-linecap="round" stroke-linejoin="round"/>
</svg>
