<svg width="16" height="16" viewBox="0 0 16 16" fill="none" xmlns="http://www.w3.org/2000/svg">
<path d="M4.5 7.5L4.14645 7.14645C3.95118 7.34171 3.95118 7.65829 4.14645 7.85355L4.5 7.5ZM9 3H9.5C9.5 2.79777 9.37818 2.61545 9.19134 2.53806C9.0045 2.46067 8.78945 2.50345 8.64645 2.64645L9 3ZM9 5.50002H8.5C8.5 5.77616 8.72386 6.00002 9 6.00002V5.50002ZM14 11.5L13.6464 11.8536L14.5 12.7071V11.5H14ZM9 9.5V9C8.72386 9 8.5 9.22386 8.5 9.5H9ZM9 12L8.64645 12.3536C8.78945 12.4966 9.0045 12.5393 9.19134 12.4619C9.37818 12.3845 9.5 12.2022 9.5 12H9ZM4.85355 7.85355L9.35355 3.35355L8.64645 2.64645L4.14645 7.14645L4.85355 7.85355ZM8.5 3V5.50002H9.5V3H8.5ZM9 6.00002C9.15849 6.00002 9.52745 6.06851 10.0138 6.26747C10.4877 6.46133 11.0361 6.7643 11.5549 7.19662C12.5832 8.05353 13.5 9.41952 13.5 11.5H14.5C14.5 9.08048 13.4168 7.44648 12.1951 6.4284C11.5889 5.92322 10.9498 5.56994 10.3924 5.34193C9.84755 5.11902 9.34151 5.00002 9 5.00002V6.00002ZM14.3536 11.1464C12.736 9.52886 10.5946 9 9 9V10C10.4054 10 12.264 10.4711 13.6464 11.8536L14.3536 11.1464ZM8.5 9.5V12H9.5V9.5H8.5ZM9.35355 11.6464L4.85355 7.14645L4.14645 7.85355L8.64645 12.3536L9.35355 11.6464Z" fill="white"/>
<path d="M2 7.5L1.64645 7.14645C1.45118 7.34171 1.45118 7.65829 1.64645 7.85355L2 7.5ZM6.35355 3.85355C6.54882 3.65829 6.54882 3.34171 6.35355 3.14645C6.15829 2.95118 5.84171 2.95118 5.64645 3.14645L6.35355 3.85355ZM5.64645 11.8536C5.84171 12.0488 6.15829 12.0488 6.35355 11.8536C6.54882 11.6583 6.54882 11.3417 6.35355 11.1464L5.64645 11.8536ZM2.35355 7.85355L6.35355 3.85355L5.64645 3.14645L1.64645 7.14645L2.35355 7.85355ZM6.35355 11.1464L2.35355 7.14645L1.64645 7.85355L5.64645 11.8536L6.35355 11.1464Z" fill="white"/>
</svg>
