<svg width="14" height="14" viewBox="0 0 14 14" fill="none" xmlns="http://www.w3.org/2000/svg">
<path fill-rule="evenodd" clip-rule="evenodd" d="M7 14C10.866 14 14 10.866 14 7C14 3.13401 10.866 0 7 0C3.13401 0 0 3.13401 0 7C0 10.866 3.13401 14 7 14ZM7.39961 2.99962C7.39961 2.84267 7.30782 2.70022 7.1649 2.63536C7.02197 2.57051 6.85433 2.59523 6.73621 2.69859L2.73621 6.19859C2.6494 6.27454 2.59961 6.38427 2.59961 6.49962C2.59961 6.61496 2.6494 6.72469 2.73621 6.80065L6.73621 10.3006C6.85433 10.404 7.02197 10.4287 7.1649 10.3639C7.30782 10.299 7.39961 10.1566 7.39961 9.99962V8.31482C7.84235 8.34699 8.36333 8.43219 8.88439 8.58892C9.57505 8.79666 10.2378 9.12157 10.7222 9.58782L11.3996 10.2398V9.29963C11.3996 7.3993 10.5001 6.23203 9.49584 5.5554C8.74388 5.04876 7.93355 4.81574 7.39961 4.73475V2.99962ZM6.59961 9.11811L3.60705 6.49962L6.59961 3.88112V5.09963C6.59961 5.32054 6.7787 5.49963 6.99961 5.49963C7.28952 5.49963 8.21052 5.65405 9.04883 6.21886C9.70337 6.65985 10.3081 7.34943 10.5198 8.43457C10.0748 8.16443 9.58943 7.96558 9.11482 7.82282C8.3488 7.59241 7.58262 7.49962 6.99961 7.49962C6.7787 7.49962 6.59961 7.6787 6.59961 7.89962V9.11811Z" fill="#386EE7"/>
</svg>
