<svg width="24" height="28" viewBox="0 0 24 28" fill="none" xmlns="http://www.w3.org/2000/svg">
<path d="M0 18.5781C0 11.9507 5.37258 6.57812 12 6.57812C18.6274 6.57812 24 11.9507 24 18.5781V19.4773C24 23.5876 21.7791 27.0934 17.6871 27.4812C16.1575 27.6262 14.2841 27.721 12 27.721C9.71588 27.721 7.84246 27.6262 6.31288 27.4812C2.22087 27.0934 0 23.5876 0 19.4773V18.5781Z" fill="url(#paint0_linear_498_56740)"/>
<path fill-rule="evenodd" clip-rule="evenodd" d="M14.9128 1.01048C16.6004 0.00202826 18.6499 0.0891053 19.9014 1.35605C21.4163 2.88961 21.1884 5.57116 19.3922 7.34545C17.9628 8.75745 15.971 9.16936 14.4537 8.50579C13.8713 8.9105 13.1913 9.14286 12.465 9.14286C11.7387 9.14286 11.0588 8.91052 10.4764 8.50583C8.95907 9.16934 6.96736 8.75742 5.53799 7.34545C3.74184 5.57116 3.51385 2.88961 5.02875 1.35605C6.28025 0.0891305 8.32973 0.00203185 10.0173 1.01042C10.6868 0.378371 11.5382 0 12.465 0C13.3919 0 14.2433 0.378395 14.9128 1.01048Z" fill="url(#paint1_linear_498_56740)"/>
<path d="M5.81679 8.23103C5.82113 7.91836 6.1367 7.7402 6.43909 7.81981C7.45799 8.08804 9.76861 8.60444 12.315 8.55937C14.8619 8.5143 17.145 8.17934 18.1493 8.01036C18.4523 7.95939 18.7532 8.15163 18.7633 8.45871C18.7754 8.82615 18.459 9.09764 18.0951 9.15001C17.1348 9.28823 15.0691 9.5363 12.315 9.59031C9.51651 9.64518 7.40245 9.21013 6.44831 8.96568C6.0945 8.87504 5.81172 8.59623 5.81679 8.23103Z" fill="#FFB54C"/>
<path d="M9.91674 10.9557C9.81517 11.2545 9.97506 11.5791 10.2739 11.6806C10.5727 11.7822 10.8972 11.6223 10.9988 11.3235L9.91674 10.9557ZM11.1914 8.68375C10.793 9.28324 10.2021 10.1161 9.91674 10.9557L10.9988 11.3235C11.2242 10.6605 11.7038 9.97758 12.1433 9.31625L11.1914 8.68375Z" fill="#FFB54C"/>
<path d="M15.0894 10.9557C15.1909 11.2545 15.031 11.5791 14.7322 11.6806C14.4334 11.7822 14.1089 11.6223 14.0073 11.3235L15.0894 10.9557ZM13.8147 8.68375C14.2131 9.28324 14.804 10.1161 15.0894 10.9557L14.0073 11.3235C13.7819 10.6605 13.3023 9.97758 12.8628 9.31625L13.8147 8.68375Z" fill="#FFB54C"/>
<circle cx="10.2998" cy="11.3606" r="0.762974" fill="#FFB54C"/>
<circle cx="14.591" cy="11.361" r="0.763393" fill="#FFB54C"/>
<circle cx="12.4653" cy="18.8142" r="6.98214" fill="url(#paint2_linear_498_56740)"/>
<circle cx="12.4654" cy="18.815" r="6.45854" stroke="#CB493D" stroke-width="0.228571" stroke-dasharray="0.69 0.69"/>
<g clip-path="url(#clip0_498_56740)">
<path d="M11.9328 21.1327C11.8527 20.32 11.8338 19.5011 11.7448 18.6891C11.7259 18.5149 11.7871 18.4443 11.9442 18.4607C12.1934 18.4859 12.4635 18.4771 12.685 18.5736C13.0504 18.7326 13.4006 18.6922 13.7609 18.6216C14.4197 18.4916 15.0728 18.3294 15.736 18.2323C15.9499 18.2007 16.1973 18.3061 16.4118 18.3925C16.5728 18.4575 16.7046 18.5932 16.8504 18.696C17.0681 18.8493 17.1331 19.0317 17.0258 19.2948C16.9564 19.4639 16.9299 19.6595 16.9217 19.8443C16.887 20.6096 16.8693 21.3762 16.8403 22.1422C16.8214 22.6324 16.6005 22.9731 16.1153 23.134C15.813 23.2337 15.5619 23.1902 15.4104 22.9081C15.2413 22.5946 15.0021 22.5075 14.6645 22.5447C14.2474 22.5914 13.8259 22.5927 13.4082 22.6349C13.3053 22.6457 13.145 22.7226 13.1248 22.7996C13.0586 23.0501 12.9286 23.1996 12.6699 23.1914C12.3676 23.1819 12.1114 23.0596 11.9953 22.7624C11.9436 22.6305 11.9385 22.4753 11.9354 22.3302C11.9278 21.9308 11.9328 21.5321 11.9328 21.1327C11.9511 21.1308 11.9133 21.1346 11.9328 21.1327ZM15.618 20.0828C15.7493 19.2481 15.7101 19.19 15.0286 19.284C15.0103 19.2866 14.9933 19.303 14.9876 19.3068C14.9662 19.5459 14.9453 19.7762 14.9302 19.9434C15.1801 19.9938 15.3864 20.0361 15.618 20.0828ZM13.1469 20.2651C13.8278 20.2424 13.9281 20.0929 13.6915 19.4752C13.0901 19.4462 13.034 19.5238 13.1469 20.2651ZM15.5751 20.898C15.3183 20.9301 15.105 20.956 14.8772 20.9844C14.8772 21.2033 14.8772 21.3876 14.8772 21.5907C15.1132 21.5794 15.3366 21.568 15.5751 21.5567C15.5751 21.3605 15.5751 21.156 15.5751 20.898ZM13.7237 21.0576C13.6334 21.0664 13.5419 21.0784 13.4498 21.0822C13.3476 21.0866 13.2454 21.0835 13.1419 21.0835C13.1419 21.2948 13.1419 21.5068 13.1419 21.7169C13.7868 21.756 13.8347 21.7005 13.7237 21.0576Z" fill="#C11404"/>
<path d="M10.7679 18.2406C10.9275 18.3315 11.0411 18.3864 11.1446 18.4558C11.6172 18.7731 11.6437 19.57 11.1768 19.9012C11.1029 19.9536 10.9237 19.9176 10.8278 19.8621C10.7294 19.8053 10.6738 19.6747 10.5489 19.5101C10.5325 19.7252 10.5142 19.8646 10.5129 20.0047C10.5085 20.7618 10.5154 21.5189 10.5016 22.2761C10.4971 22.5259 10.4624 22.7796 10.4031 23.0225C10.3236 23.3468 10.1431 23.4174 9.83331 23.2856C9.39537 23.0994 9.12529 22.5606 9.17704 21.9966C9.23825 21.3284 9.29125 20.659 9.35562 19.8981C8.59271 20.4281 7.89921 20.9114 7.03155 20.9795C7.00757 20.9543 6.98296 20.9297 6.95898 20.9044C7.03597 20.7978 7.10412 20.6823 7.19183 20.5852C7.90994 19.7908 8.63941 19.0066 9.34742 18.2028C9.53041 17.9952 9.64715 17.7289 9.79418 17.4898C9.77588 17.4646 9.75695 17.4387 9.73865 17.4135C9.5159 17.5024 9.28558 17.5769 9.07103 17.6822C8.25637 18.0823 7.86009 17.6791 7.56351 17.0223C7.47327 16.8223 7.56603 16.7119 7.77427 16.7201C8.6047 16.7529 9.3348 16.4355 10.0516 16.0753C10.3274 15.9365 10.5785 15.9415 10.8095 16.1478C11.0127 16.3295 11.2108 16.5175 11.3989 16.7144C11.5705 16.8942 11.551 17.0759 11.4027 17.2791C11.1805 17.5826 10.9862 17.9062 10.7679 18.2406Z" fill="#C11404"/>
<path d="M12.5283 15.8514C13.2149 16.0666 13.9317 15.8779 14.6511 15.7328C14.7432 15.7139 14.8467 15.7019 14.9211 15.6521C15.4746 15.2823 15.8702 15.6476 16.2709 15.9454C16.3403 15.9972 16.3864 16.1555 16.363 16.2445C16.2501 16.6805 16.146 17.1253 15.9655 17.5348C15.8702 17.7505 15.6399 17.919 15.4398 18.0679C15.3679 18.1215 15.1515 18.1013 15.0947 18.0345C14.901 17.8061 14.6643 17.8616 14.4315 17.878C14.2018 17.8944 13.9702 17.919 13.7455 17.9657C13.6446 17.9865 13.5297 18.0496 13.4679 18.1297C13.3045 18.3411 13.1051 18.3468 12.8747 18.2963C12.6444 18.2452 12.5024 18.1184 12.4633 17.8799C12.363 17.2698 12.2544 16.6609 12.161 16.0502C12.1181 15.7694 12.3333 15.8628 12.5283 15.8514ZM13.5039 17.1366C13.926 17.0792 14.3065 17.0193 14.6889 16.9777C14.9691 16.9467 15.0051 16.8054 14.9035 16.5373C14.4371 16.5865 13.9752 16.6357 13.5039 16.6855C13.5039 16.842 13.5039 16.9625 13.5039 17.1366Z" fill="#C11404"/>
<path d="M12.4471 15.6225C11.912 15.6521 11.6028 15.3821 11.3529 15.0225C11.1983 14.7997 11.2563 14.7196 11.5472 14.6698C12.7676 14.4616 13.9868 14.2458 15.2059 14.0319C15.2678 14.0212 15.3283 14.001 15.3889 13.9833C16.167 13.7574 16.4244 13.8458 16.88 14.4956C17.0491 14.7366 16.9879 14.9486 16.7172 14.9903C15.3176 15.2061 13.9167 15.413 12.5159 15.6218C12.4742 15.6275 12.4313 15.6225 12.4471 15.6225Z" fill="#C11404"/>
<path d="M11.1042 14.9214C11.0966 14.9567 11.0997 15.0854 11.043 15.1756C10.9199 15.3693 10.8013 15.6154 10.6151 15.7081C10.3734 15.8287 10.251 15.5384 10.1065 15.3857C9.73294 14.9901 9.36001 14.5933 9.00032 14.1857C8.93028 14.1062 8.87664 13.9642 8.8981 13.8696C8.91135 13.8122 9.08866 13.7453 9.18079 13.7598C9.61368 13.8254 10.051 13.8879 10.4693 14.0097C10.8978 14.1333 11.1048 14.4501 11.1042 14.9214Z" fill="#C11404"/>
</g>
<defs>
<linearGradient id="paint0_linear_498_56740" x1="12" y1="6.57813" x2="12" y2="27.721" gradientUnits="userSpaceOnUse">
<stop stop-color="#FF6D50"/>
<stop offset="1" stop-color="#E7402E"/>
</linearGradient>
<linearGradient id="paint1_linear_498_56740" x1="12.4651" y1="8.07438" x2="12.0125" y2="1.45201" gradientUnits="userSpaceOnUse">
<stop stop-color="#FF5833"/>
<stop offset="1" stop-color="#FE824D"/>
</linearGradient>
<linearGradient id="paint2_linear_498_56740" x1="12.4653" y1="25.7963" x2="12.4653" y2="13.2004" gradientUnits="userSpaceOnUse">
<stop stop-color="#FFB54C"/>
<stop offset="1" stop-color="#FFCE8C"/>
</linearGradient>
<clipPath id="clip0_498_56740">
<rect width="10.2857" height="9.77947" fill="white" transform="translate(6.85767 13.6758)"/>
</clipPath>
</defs>
</svg>
