<svg width="16" height="16" viewBox="0 0 16 16" fill="none" xmlns="http://www.w3.org/2000/svg">
<path d="M16 0H0V16H16V0Z" fill="white" fill-opacity="0.01"/>
<path d="M6.33333 6.66667C7.622 6.66667 8.66667 5.622 8.66667 4.33333C8.66667 3.04467 7.622 2 6.33333 2C5.04467 2 4 3.04467 4 4.33333C4 5.622 5.04467 6.66667 6.33333 6.66667Z" stroke="#A8AAAD" stroke-linejoin="round"/>
<path d="M10 11.668H14M12 9.66797V13.668V9.66797Z" stroke="#A8AAAD" stroke-linecap="round" stroke-linejoin="round"/>
<path d="M9 9.33203H6.26667C4.7732 9.33203 4.02647 9.33203 3.45603 9.62266C2.95426 9.87833 2.54631 10.2863 2.29065 10.7881C2 11.3585 2 12.1052 2 13.5987V13.9987H9" stroke="#A8AAAD" stroke-linecap="round" stroke-linejoin="round"/>
</svg>
