<svg width="16" height="16" viewBox="0 0 16 16" fill="none" xmlns="http://www.w3.org/2000/svg">
<path d="M16 0H0V16H16V0Z" fill="white" fill-opacity="0.01"/>
<path d="M6.33333 6.66667C7.622 6.66667 8.66667 5.622 8.66667 4.33333C8.66667 3.04467 7.622 2 6.33333 2C5.04467 2 4 3.04467 4 4.33333C4 5.622 5.04467 6.66667 6.33333 6.66667Z" stroke="#386EE7" stroke-linejoin="round"/>
<path d="M10 11.667H14M12 9.66699V13.667V9.66699Z" stroke="#386EE7" stroke-linecap="round" stroke-linejoin="round"/>
<path d="M9 9.33301H6.26667C4.7732 9.33301 4.02647 9.33301 3.45603 9.62364C2.95426 9.87931 2.54631 10.2873 2.29065 10.789C2 11.3595 2 12.1062 2 13.5997V13.9997H9" stroke="#386EE7" stroke-linecap="round" stroke-linejoin="round"/>
</svg>
