<svg width="16" height="16" viewBox="0 0 16 16" fill="none" xmlns="http://www.w3.org/2000/svg">
<g clip-path="url(#clip0)">
<path d="M2.37318 12.8805L1.89884 12.7223L2.37318 12.8805ZM3.06389 13.4893L3.28025 13.9401L3.06389 13.4893ZM13.5609 7.54924L13.3445 8L13.5609 7.54924ZM13.5609 8.45076L13.3445 8L13.5609 8.45076ZM13.7773 7.09848L3.28025 2.0599L2.84752 2.96143L13.3445 8L13.7773 7.09848ZM1.89884 3.27766L3.52566 8.15811L4.47434 7.84189L2.84752 2.96143L1.89884 3.27766ZM3.52566 7.84189L1.89884 12.7223L2.84752 13.0386L4.47434 8.15811L3.52566 7.84189ZM3.28025 13.9401L13.7773 8.90152L13.3445 8L2.84752 13.0386L3.28025 13.9401ZM4 8.5H7V7.5H4V8.5ZM1.89884 12.7223C1.61956 13.5602 2.48407 14.3223 3.28025 13.9401L2.84752 13.0386H2.84752L1.89884 12.7223ZM3.28025 2.0599C2.48408 1.67774 1.61956 2.43982 1.89884 3.27766L2.84752 2.96143L2.84752 2.96143L3.28025 2.0599ZM13.3445 8L13.3445 8L13.7773 8.90152C14.5336 8.53847 14.5336 7.46153 13.7773 7.09848L13.3445 8Z" fill="#262A33" fill-opacity="0.5"/>
</g>
<defs>
<clipPath id="clip0">
<rect width="16" height="16" fill="white"/>
</clipPath>
</defs>
</svg>
