<svg width="12" height="12" viewBox="0 0 12 12" fill="none" xmlns="http://www.w3.org/2000/svg">
<g id="&#231;&#148;&#159;&#230;&#151;&#165;" clip-path="url(#clip0_1627_31771)">
<path id="Rectangle 34625300" d="M2.625 5.99756C2.625 5.37624 3.12868 4.87256 3.75 4.87256H8.25C8.87132 4.87256 9.375 5.37624 9.375 5.99756V7.49756C9.375 7.70467 9.20711 7.87256 9 7.87256H3C2.79289 7.87256 2.625 7.70467 2.625 7.49756V5.99756Z" stroke="#CC913D" stroke-width="0.75"/>
<path id="Rectangle 34625301" d="M1.125 9C1.125 8.37868 1.62868 7.875 2.25 7.875H9.75C10.3713 7.875 10.875 8.37868 10.875 9V10.5C10.875 10.7071 10.7071 10.875 10.5 10.875H1.5C1.29289 10.875 1.125 10.7071 1.125 10.5V9Z" stroke="#CC913D" stroke-width="0.75"/>
<rect id="Rectangle 34625302" x="5.625" y="3.3772" width="0.75" height="1.8761" rx="0.375" fill="#CC913D"/>
<path id="Vector 947" d="M6.93555 2.63224C6.98215 1.93307 6.17553 1.13881 5.69209 0.85228C5.67994 0.845075 5.66633 0.858478 5.67125 0.871724C6.01178 1.78872 5.07203 1.7452 5.07203 2.58221C5.07203 3.13252 5.44306 3.50772 6.01838 3.50356C6.5937 3.49939 6.90494 3.09153 6.93555 2.63224Z" stroke="#CC913D" stroke-width="0.75"/>
</g>
<defs>
<clipPath id="clip0_1627_31771">
<rect width="12" height="12" fill="white"/>
</clipPath>
</defs>
</svg>
