<svg width="16" height="16" viewBox="0 0 16 16" fill="none" xmlns="http://www.w3.org/2000/svg">
<path d="M7.45381 1.70051C7.66704 1.23178 8.33285 1.23177 8.54609 1.7005L9.92598 4.73364C10.102 5.12056 10.4696 5.38548 10.8923 5.4301L14.2698 5.78658C14.7862 5.84108 14.9943 6.48134 14.6085 6.82897L12.0901 9.09855C11.7719 9.38531 11.6307 9.81994 11.7196 10.239L12.423 13.5554C12.5307 14.0634 11.9861 14.4591 11.5363 14.1996L8.59954 12.5058C8.22849 12.2918 7.7715 12.2918 7.40044 12.5058L4.46371 14.1996C4.01389 14.4591 3.46925 14.0634 3.577 13.5554L4.28041 10.239C4.36929 9.81994 4.22807 9.38531 3.90987 9.09855L1.39146 6.82897C1.00571 6.48134 1.21374 5.84108 1.73015 5.78658L5.10766 5.4301C5.5304 5.38548 5.89798 5.12055 6.074 4.73362L7.45381 1.70051Z" fill="#FFAA00" stroke="#FFAA00" stroke-width="1.2"/>
</svg>