<svg width="16" height="16" viewBox="0 0 16 16" fill="none" xmlns="http://www.w3.org/2000/svg">
<path d="M13.5 8C13.5 8.12321 13.4959 8.24548 13.488 8.36667C13.2993 11.2333 10.9144 13.5 8 13.5C5.96422 13.5 4.18678 12.394 3.2358 10.75M2.5 8C2.5 7.87679 2.50405 7.75453 2.51203 7.63333C2.70071 4.76672 5.08564 2.5 8 2.5C10.0375 2.5 11.8163 3.60796 12.7667 5.25427" stroke="#262A33"/>
<mask id="path-2-inside-1" fill="white">
<path d="M3.91421 8L2.5 9.41421L1.08579 8L3.91421 8Z"/>
</mask>
<path d="M3.91421 8L6.03553 10.1213L11.1569 5L3.91421 5L3.91421 8ZM2.5 9.41421L0.37868 11.5355L2.5 13.6569L4.62132 11.5355L2.5 9.41421ZM1.08579 8L1.08579 5L-6.15685 5L-1.03553 10.1213L1.08579 8ZM1.79289 5.87868L0.37868 7.29289L4.62132 11.5355L6.03553 10.1213L1.79289 5.87868ZM4.62132 7.29289L3.20711 5.87868L-1.03553 10.1213L0.37868 11.5355L4.62132 7.29289ZM1.08579 11L3.91421 11L3.91421 5L1.08579 5L1.08579 11Z" fill="#262A33" mask="url(#path-2-inside-1)"/>
<mask id="path-4-inside-2" fill="white">
<path d="M12.0858 8.41427L13.5 7.00006L14.9142 8.41427L12.0858 8.41427Z"/>
</mask>
<path d="M12.0858 8.41427L9.96448 6.29295L4.84316 11.4143L12.0858 11.4143L12.0858 8.41427ZM13.5 7.00006L15.6213 4.87874L13.5 2.75742L11.3787 4.87874L13.5 7.00006ZM14.9142 8.41427L14.9142 11.4143L22.1569 11.4143L17.0355 6.29295L14.9142 8.41427ZM14.2071 10.5356L15.6213 9.12138L11.3787 4.87874L9.96448 6.29295L14.2071 10.5356ZM11.3787 9.12138L12.7929 10.5356L17.0355 6.29295L15.6213 4.87874L11.3787 9.12138ZM14.9142 5.41427L12.0858 5.41427L12.0858 11.4143L14.9142 11.4143L14.9142 5.41427Z" fill="#262A33" mask="url(#path-4-inside-2)"/>
</svg>
