<svg width="16" height="17" viewBox="0 0 16 17" fill="none" xmlns="http://www.w3.org/2000/svg">
    <path fill-rule="evenodd" clip-rule="evenodd" d="M10.8202 7.92326C11.8026 7.08009 11.8026 4.51739 10.6196 3.78181C9.43669 3.04622 5.88788 2.54759 4.94153 4.91092C4.62557 5.69996 4.87491 7.44047 5.17812 7.75057C5.63605 8.22932 5.88704 8.28753 6.32416 8.18345C6.76128 8.07938 6.81331 8.18345 6.6572 8.41242C6.49068 8.64139 5.31462 9.38033 4.65894 9.40114C4.37834 9.41005 4.19495 9.38083 4.05901 9.35918C3.8773 9.33023 3.78038 9.31479 3.6494 9.42196C3.42044 9.60929 3.39962 10.0984 3.6494 10.1817C3.89919 10.265 4.51324 10.3066 4.78383 10.1817C5.05443 10.0568 5.2938 9.97356 5.62685 9.95274C5.81563 9.94094 5.85727 9.88902 5.92806 9.80076C5.98216 9.73331 6.05327 9.64464 6.22008 9.53644C6.28045 9.49831 6.35221 9.4551 6.43107 9.4076C6.86889 9.14393 7.3074 8.77479 7.66673 8.36038C7.78563 8.22325 7.84062 8.15086 7.86659 8.11667C7.88181 8.09664 7.88706 8.08973 7.88936 8.0906C7.89057 8.09106 7.89097 8.09368 7.89157 8.09768C7.89378 8.11229 7.89877 8.1453 7.95653 8.1587L7.95656 8.15871C7.97452 8.16288 7.99412 8.16743 8.01575 8.17175L8.07314 8.18345C8.15703 8.20072 8.2366 8.19154 8.3218 8.18171H8.32181C8.41851 8.17056 8.52247 8.15857 8.64824 8.18345C8.7117 8.18345 8.7759 8.18371 8.8407 8.18397C9.50066 8.18661 10.2212 8.1895 10.8202 7.92326ZM5.65825 10.8998C6.137 10.7021 7.73977 9.56767 7.90629 9.42196C7.96538 9.37075 8.04983 9.32102 8.13366 9.27166L8.13366 9.27166C8.27129 9.19062 8.40727 9.11056 8.42667 9.02647C8.44633 8.96748 8.4242 8.93636 8.39537 8.89581C8.36317 8.8505 8.3226 8.79344 8.3226 8.67261C8.3226 8.4908 8.4276 8.44023 8.60633 8.35416L8.60634 8.35415C8.65269 8.33183 8.70399 8.30713 8.75971 8.27713C8.97524 8.15643 9.1979 8.23569 9.35081 8.29012C9.3825 8.3014 9.41119 8.31161 9.4362 8.31876C9.51772 8.34205 9.68721 8.33928 9.88997 8.33596H9.88998C10.0496 8.33335 10.2299 8.3304 10.4041 8.33957C10.7892 8.36039 11.7987 9.14096 12.1318 9.59889C12.4648 10.0464 12.5481 10.8062 12.5273 11.2641C12.5064 11.722 12.4232 12.1488 12.2775 12.3985C12.1996 12.5265 12.1306 12.586 12.0102 12.6901C11.9053 12.7806 11.7614 12.9049 11.5385 13.1375C11.0598 13.637 9.91495 14.0637 9.5611 14.147C9.32367 14.2046 9.18074 14.1527 9.03949 14.1014C8.97641 14.0786 8.91366 14.0558 8.84298 14.0429C8.67615 14.0112 8.50326 13.6944 8.3567 13.4259C8.31125 13.3426 8.26834 13.264 8.22892 13.1999C8.0624 12.9397 8.12485 12.6275 8.41626 12.6067C8.52951 12.5986 8.57045 12.6439 8.62766 12.7073C8.71767 12.807 8.84794 12.9513 9.36335 13.0022C10.2064 13.0854 10.9245 12.3777 11.3824 11.7845C11.7327 11.3228 11.7054 11.1351 11.664 10.8489C11.6512 10.7608 11.6371 10.6635 11.6322 10.546C11.6114 10.0568 11.2679 9.84867 10.9141 9.82786C10.7645 9.81879 10.6366 9.84527 10.5364 9.86601C10.4067 9.89287 10.3235 9.91009 10.3 9.82786C10.2892 9.78975 10.2825 9.73101 10.275 9.66391C10.2536 9.47442 10.2248 9.21829 10.0711 9.17218C9.86292 9.10973 9.2905 9.0681 9.16561 9.23462C9.08235 9.34564 8.34228 9.93769 7.71012 10.4434L7.7101 10.4434L7.71009 10.4434C7.39401 10.6963 7.1049 10.9276 6.93838 11.0664C6.43882 11.4827 5.29398 12.0551 4.89849 12.0967C4.67908 12.1198 4.62624 12.1749 4.58359 12.2195C4.54936 12.2552 4.52168 12.284 4.41975 12.284C4.35829 12.284 4.30208 12.299 4.24549 12.3141C4.09123 12.3553 3.9341 12.3972 3.65999 12.1383C3.29572 11.7949 3.64959 11.3161 4.15956 11.3578C4.58209 11.3923 5.00463 11.1981 5.4094 11.0121L5.4094 11.0121L5.40943 11.0121L5.40948 11.0121C5.49321 10.9736 5.57619 10.9355 5.65825 10.8998ZM9.70557 10.2328C9.61598 10.2485 9.55814 10.2587 9.50496 10.2803C9.40805 10.3198 9.32664 10.3973 9.09686 10.6161C9.0297 10.68 8.94985 10.756 8.85323 10.8467C8.17674 11.4816 6.70927 12.3662 6.45949 12.4703C6.43978 12.4785 6.4151 12.489 6.38603 12.5013C6.0466 12.6453 5.1101 13.0427 4.54449 13.0427C3.93044 13.0427 3.93044 13.8025 4.21145 13.969C4.50286 14.1355 4.95039 14.1355 5.17935 14.0106C5.25327 13.9703 5.30549 13.93 5.35318 13.8932C5.45321 13.8159 5.53329 13.7541 5.75177 13.74C6.08481 13.7192 6.80293 13.2092 6.99027 13.0635C7.0664 13.0043 7.17519 12.9588 7.28451 12.9132C7.44419 12.8464 7.60498 12.7792 7.66676 12.668C7.74966 12.5188 7.96464 12.5016 8.10654 12.4903C8.14279 12.4874 8.17426 12.4849 8.19755 12.4807C8.25797 12.4706 8.25993 12.4021 8.26235 12.3175C8.26493 12.2273 8.26804 12.1188 8.34326 12.0436C8.43743 11.9494 8.50552 11.8987 8.70771 11.7482L8.70774 11.7481C8.81837 11.6658 8.96913 11.5535 9.18628 11.3879C9.26488 11.3266 9.3382 11.2699 9.4063 11.2173L9.40654 11.2171C9.87023 10.8586 10.0917 10.6874 10.0917 10.5241C10.1021 10.3471 10.0813 10.1598 9.82114 10.2118C9.7772 10.2202 9.73916 10.2269 9.70557 10.2328ZM7.05412 6.90592C7.35884 7.2179 7.78328 7.37389 8.32743 7.37389C8.54509 7.37389 8.75912 7.3485 8.96953 7.29771C9.18719 7.24692 9.39034 7.1526 9.57898 7.01475C9.62977 6.97122 9.66241 6.92769 9.67693 6.88415C9.69144 6.84062 9.69869 6.79709 9.69869 6.75356C9.69869 6.65924 9.66604 6.57943 9.60074 6.51413C9.53545 6.44158 9.46289 6.4053 9.38308 6.4053C9.32504 6.4053 9.27788 6.41981 9.2416 6.44883C9.12552 6.5359 8.98767 6.60119 8.82805 6.64473C8.67569 6.68826 8.51607 6.71002 8.3492 6.71002C8.12428 6.71002 7.92113 6.65561 7.73975 6.54678C7.56562 6.43069 7.44953 6.27108 7.39149 6.06793C7.36972 5.98812 7.39512 5.94821 7.46767 5.94821H9.36132C9.49191 5.94821 9.59712 5.90831 9.67693 5.8285C9.76399 5.74869 9.80752 5.62898 9.80752 5.46936C9.80752 5.07032 9.66604 4.73657 9.38308 4.46812C9.10013 4.19242 8.72285 4.05457 8.25125 4.05457C7.76514 4.05457 7.3661 4.2033 7.05412 4.50077C6.74939 4.79824 6.59703 5.17915 6.59703 5.64349C6.59703 6.17313 6.74939 6.59394 7.05412 6.90592ZM9.02394 5.317C9.02394 5.36053 9.00218 5.3823 8.95865 5.3823L7.48944 5.37141C7.43139 5.37141 7.39875 5.36053 7.39149 5.33876C7.39149 5.317 7.39512 5.2916 7.40237 5.26258V5.2517C7.43865 5.08483 7.54022 4.9506 7.7071 4.84903C7.88123 4.74745 8.06261 4.69666 8.25125 4.69666C8.46891 4.69666 8.65029 4.75833 8.7954 4.88168C8.94776 5.00502 9.02394 5.15012 9.02394 5.317Z" fill="#FF0000"/>
    </svg>
    