<svg width="20" height="20" viewBox="0 0 20 20" color="black" fill="none" xmlns="http://www.w3.org/2000/svg">
<g clip-path="url(#clip0_6307_230009)">
<path d="M14.1667 1.66667H16.6667C16.8877 1.66667 17.0996 1.75446 17.2559 1.91074C17.4122 2.06702 17.5 2.27899 17.5 2.5V17.5C17.5 17.721 17.4122 17.933 17.2559 18.0893C17.0996 18.2455 16.8877 18.3333 16.6667 18.3333H3.33333C3.11232 18.3333 2.90036 18.2455 2.74408 18.0893C2.5878 17.933 2.5 17.721 2.5 17.5V2.5C2.5 2.27899 2.5878 2.06702 2.74408 1.91074C2.90036 1.75446 3.11232 1.66667 3.33333 1.66667H5.83333V0H7.5V1.66667H12.5V0H14.1667V1.66667ZM14.1667 3.33333V5H12.5V3.33333H7.5V5H5.83333V3.33333H4.16667V16.6667H15.8333V3.33333H14.1667ZM5.83333 6.66667H14.1667V8.33333H5.83333V6.66667ZM5.83333 10H14.1667V11.6667H5.83333V10Z" fill="currentColor"/>
</g>
<defs>
<clipPath id="clip0_6307_230009">
<rect width="20" height="20" fill="white"/>
</clipPath>
</defs>
</svg>
