<svg width="16" height="16" viewBox="0 0 16 16" fill="none" xmlns="http://www.w3.org/2000/svg">
  <g clip-path="url(#clip0_9582_12137)">
  <path d="M8.42418 1.62227C8.28748 1.62227 8.17773 1.5106 8.17773 1.37582V0.187856C8.17773 0.0511535 8.28941 -0.0585938 8.42418 -0.0585938C8.55896 -0.0585938 8.67063 0.0530789 8.67063 0.187856V1.37582C8.67063 1.51253 8.56089 1.62227 8.42418 1.62227Z" fill="#FFB54C"/>
  <path d="M13.0179 3.51299C12.9544 3.51299 12.8908 3.48796 12.8427 3.43983C12.7464 3.34356 12.7464 3.18568 12.8427 3.08941L13.6822 2.24994C13.7784 2.15367 13.9363 2.15367 14.0326 2.24994C14.1289 2.34621 14.1289 2.50409 14.0326 2.60036L13.1931 3.43983C13.145 3.48989 13.0815 3.51299 13.0179 3.51299Z" fill="#FFB54C"/>
  <path d="M3.61813 3.51299C3.5546 3.51299 3.49106 3.48796 3.44292 3.43983L2.60345 2.60036C2.50718 2.50409 2.50718 2.34621 2.60345 2.24994C2.69972 2.15367 2.8576 2.15367 2.95387 2.24994L3.79334 3.08941C3.88961 3.18568 3.88961 3.34356 3.79334 3.43983C3.74521 3.48989 3.68167 3.51299 3.61813 3.51299Z" fill="#FFB54C"/>
  <path d="M13.2929 7.33579C13.2929 4.54397 11.046 2.30859 8.21758 2.30859C5.38918 2.30859 3.04021 4.54397 3.04983 7.33579C3.05754 9.41714 4.38606 11.2078 6.19785 11.9818C6.45393 12.1127 6.48473 12.3187 6.48666 12.6152V13.2217C6.48666 13.9514 7.07775 14.5425 7.80748 14.5425H8.59303C9.32276 14.5425 9.89075 13.9514 9.89075 13.2217V12.4227C9.9177 12.2301 9.99279 12.0742 10.1796 11.9779C12.0029 11.2 13.2929 9.41906 13.2929 7.33579ZM10.7129 6.1459L8.68545 8.15793V10.2624C8.6816 10.4395 8.5603 10.5839 8.38124 10.5839H8.17523C7.99424 10.5839 7.87294 10.428 7.87486 10.2508L7.87679 8.19644L5.94562 6.1459C5.81855 6.02075 5.81855 5.81473 5.94562 5.68958C6.0727 5.56443 6.28064 5.5625 6.40772 5.68958L8.32926 7.58609L10.2508 5.68958C10.3779 5.56443 10.5858 5.56443 10.7129 5.68958C10.84 5.81473 10.84 6.01882 10.7129 6.1459Z" fill="#FFB54C"/>
  </g>
  <defs>
  <clipPath id="clip0_9582_12137">
  <rect width="16" height="16" fill="white"/>
  </clipPath>
  </defs>
  </svg>
  