<svg width="20" height="20" viewBox="0 0 20 20" fill="none" xmlns="http://www.w3.org/2000/svg">
<path fill-rule="evenodd" clip-rule="evenodd" d="M6.01077 5.63748C5.59656 5.63748 5.26077 5.30169 5.26077 4.88748V2.89746C5.26077 2.48325 5.59656 2.14746 6.01077 2.14746C6.42499 2.14746 6.76077 2.48325 6.76077 2.89746V4.88748C6.76077 5.30169 6.42499 5.63748 6.01077 5.63748ZM13.9861 5.58743C13.5719 5.58743 13.2361 5.25164 13.2361 4.83743V2.92395C13.2361 2.50974 13.5719 2.17395 13.9861 2.17395C14.4003 2.17395 14.7361 2.50974 14.7361 2.92395V4.83743C14.7361 5.25164 14.4003 5.58743 13.9861 5.58743ZM12.5 3.56594H7.49997V5.06509C7.49997 5.89351 6.8284 6.56509 5.99997 6.56509C5.17154 6.56509 4.49997 5.89351 4.49997 5.06509V3.56594C3.39541 3.56596 2.5 4.46138 2.5 5.56594V7.1498H17.5V5.56594C17.5 4.46137 16.6046 3.56594 15.5 3.56594V5.06509C15.5 5.89351 14.8284 6.56509 14 6.56509C13.1716 6.56509 12.5 5.89351 12.5 5.06509V3.56594ZM2.5 15.5659V8.3998H17.5V15.5659C17.5 16.6705 16.6046 17.5659 15.5 17.5659H4.5C3.39543 17.5659 2.5 16.6705 2.5 15.5659Z" fill="url(#paint0_linear_1348_67408)"/>
<path fill-rule="evenodd" clip-rule="evenodd" d="M13.7462 10.2968C14.0391 10.5897 14.0391 11.0646 13.7462 11.3575L10.0966 15.0071C9.80388 15.2998 9.32933 15.3 9.03637 15.0075L7.00976 12.984C6.71664 12.6914 6.71626 12.2165 7.00893 11.9234C7.30159 11.6302 7.77646 11.6299 8.06959 11.9225L9.56587 13.4165L12.6855 10.2968C12.9784 10.0039 13.4533 10.0039 13.7462 10.2968Z" fill="white"/>
<defs>
<linearGradient id="paint0_linear_1348_67408" x1="7.3476" y1="4.29814" x2="12.133" y2="17.5674" gradientUnits="userSpaceOnUse">
<stop stop-color="#A5DBFF"/>
<stop offset="1" stop-color="#80B6F8"/>
</linearGradient>
</defs>
</svg>
