<svg width="68" height="68" viewBox="0 0 68 68" fill="none" xmlns="http://www.w3.org/2000/svg">
  <path d="M43.4771 11.5802C45.7267 9.04104 47.246 5.51302 46.8327 2C43.5905 2.12185 39.6651 4.00583 37.3368 6.54218C35.2513 8.79265 33.4283 12.3778 33.9157 15.8271C37.5337 16.0896 41.2248 14.1147 43.4771 11.5802V11.5802ZM51.5942 33.8825C51.5136 26.2818 58.2528 22.6376 58.5556 22.4539C54.7679 17.2996 48.8666 16.592 46.768 16.5114C41.7497 16.0371 36.9722 19.2624 34.4246 19.2624C31.8836 19.2624 27.9516 16.5807 23.79 16.6492C18.3161 16.7251 13.2715 19.612 10.454 24.1738C4.76922 33.3529 8.99928 46.9569 14.5397 54.4076C17.2485 58.0499 20.4775 62.1469 24.7141 61.9969C28.798 61.847 30.3399 59.5393 35.2748 59.5393C40.2134 59.5393 41.5978 61.9969 45.9169 61.921C50.3082 61.847 53.092 58.2102 55.7793 54.5547C58.8892 50.3237 60.1687 46.2258 60.2455 46.0196C60.1471 45.9756 51.6823 42.9565 51.5942 33.8825V33.8825Z" fill="#7D8085"/>
  </svg>
  