<svg width="68" height="68" viewBox="0 0 68 68" fill="none" xmlns="http://www.w3.org/2000/svg">
  <path d="M57.3806 22.7626C55.2593 22.7626 53.5021 24.4421 53.5021 26.4815V40.9444C53.5021 42.9839 55.1994 44.6648 57.3806 44.6648C59.5005 44.6648 61.2577 42.9839 61.2577 40.9431V26.4829C61.1977 24.4435 59.5005 22.7639 57.3806 22.7639V22.7626ZM10.6042 22.7626C8.48566 22.7626 6.72705 24.4421 6.72705 26.4802V40.9444C6.72705 42.9839 8.42295 44.6648 10.6042 44.6648C12.7854 44.6648 14.4827 42.9839 14.4827 40.9431V26.4829C14.4827 24.4435 12.7854 22.7639 10.6042 22.7639V22.7626ZM16.8452 22.8825V49.3435C16.8452 50.9031 18.1785 52.2227 19.8744 52.2227H23.3289V60.2633C23.3289 62.3041 25.0248 63.9837 27.206 63.9837C29.3273 63.9837 31.0845 62.3041 31.0845 60.2633V52.2227H37.1429V60.2633C37.1429 62.3041 38.8402 63.9837 41.0214 63.9837C43.1399 63.9837 44.8985 62.3041 44.8985 60.2633V52.2227H48.3517C50.0489 52.2227 51.3822 50.9631 51.3822 49.3435V22.8812H16.8452V22.8825ZM42.172 9.20077L45.3838 4.88058C45.5038 4.58066 45.5038 4.22076 45.2012 4.10079C44.9585 3.92084 44.5959 4.04081 44.4132 4.28074L41.1414 8.78089C38.8481 7.95461 36.4299 7.52853 33.9924 7.52123C31.4472 7.52123 29.0246 7.94111 26.8434 8.78089L23.5716 4.28211C23.3889 3.98219 23.0263 3.92084 22.7836 4.10079C22.6656 4.18916 22.5867 4.3201 22.5638 4.46575C22.5409 4.6114 22.5757 4.76024 22.6609 4.88058L25.8728 9.20214C20.845 11.4215 17.2706 15.6218 16.8452 20.5418H51.3222C50.7769 15.6204 47.2611 11.4215 42.172 9.20077ZM26.7221 16.0416C25.6315 16.0416 24.8435 15.2619 24.8435 14.2421C24.8435 13.221 25.6915 12.4426 26.7221 12.4426C27.8127 12.4426 28.5993 13.221 28.5993 14.2421C28.5993 15.2619 27.7513 16.0416 26.7221 16.0416ZM41.5053 16.0416C40.4147 16.0416 39.6268 15.2619 39.6268 14.2421C39.6268 13.221 40.4761 12.4426 41.5053 12.4426C42.596 12.4426 43.3839 13.221 43.3839 14.2421C43.3839 15.2619 42.536 16.0416 41.5053 16.0416Z" fill="#5FC375" />
</svg>
  