<svg width="68" height="68" viewBox="0 0 68 68" fill="none" xmlns="http://www.w3.org/2000/svg">
  <path d="M34 4C50.569 4 64 17.431 64 34C64 50.569 50.569 64 34 64C17.431 64 4 50.569 4 34C4 17.431 17.431 4 34 4ZM24.469 44.029C23.284 42.598 21.811 42.088 20.032 42.502L19.582 42.625L17.812 45.673C17.4782 46.2164 17.3676 46.868 17.5035 47.4911C17.6393 48.1143 18.011 48.6607 18.5407 49.0159C19.0704 49.3711 19.717 49.5075 20.3451 49.3967C20.9732 49.2858 21.534 48.9361 21.91 48.421L22.096 48.142L24.466 44.029H24.469ZM37.63 23.98C36.166 25.192 34.69 28.771 36.76 32.341L45.88 48.139C46.1958 48.6757 46.7026 49.0734 47.2989 49.2527C47.8953 49.4319 48.5373 49.3795 49.0967 49.1059C49.6561 48.8323 50.0916 48.3576 50.3162 47.7768C50.5407 47.1959 50.5378 46.5518 50.308 45.973L50.161 45.673L47.755 41.497H51.325C51.6493 41.4978 51.9706 41.4344 52.2703 41.3106C52.5701 41.1868 52.8424 41.0049 53.0716 40.7754C53.3007 40.546 53.4823 40.2734 53.6058 39.9735C53.7292 39.6737 53.7922 39.3523 53.791 39.028C53.7926 38.4264 53.5736 37.8451 53.1756 37.394C52.7776 36.943 52.2281 36.6534 51.631 36.58L51.322 36.562H44.902L38.32 25.171L37.63 23.983V23.98ZM38.464 14.848C37.9459 14.5504 37.3377 14.4503 36.7516 14.5661C36.1654 14.6819 35.641 15.0058 35.275 15.478L35.089 15.754L33.988 17.653L32.911 15.754C32.5952 15.2173 32.0884 14.8196 31.4921 14.6403C30.8957 14.461 30.2537 14.5135 29.6943 14.7871C29.1349 15.0607 28.6994 15.5354 28.4748 16.1162C28.2502 16.6971 28.2532 17.3412 28.483 17.92L28.63 18.22L31.144 22.591L23.089 36.55H16.798C16.4739 36.5492 16.1529 36.6125 15.8534 36.7361C15.5538 36.8597 15.2817 37.0414 15.0525 37.2705C14.8234 37.4997 14.6417 37.7718 14.5181 38.0714C14.3945 38.3709 14.3312 38.6919 14.332 39.016C14.332 40.279 15.268 41.314 16.489 41.467L16.798 41.485H39.238C40.258 39.565 39.058 36.838 36.808 36.571L36.445 36.55H28.786L39.37 18.22C39.697 17.6527 39.7852 16.9787 39.6153 16.3464C39.4454 15.714 39.0313 15.175 38.464 14.848V14.848Z" fill="#4C6AFF"/>
</svg>
  