<svg width="16" height="16" viewBox="0 0 16 16" fill="none" xmlns="http://www.w3.org/2000/svg">
<g clip-path="url(#clip0)">
<path d="M6.40251 6.20238L6.40251 6.20238L5.93169 5.49615C5.65021 5.07392 5.5 4.57782 5.5 4.07037V4C5.5 2.61929 6.61929 1.5 8 1.5C9.38071 1.5 10.5 2.61929 10.5 4V4.07037C10.5 4.57782 10.3498 5.07392 10.0683 5.49615L9.59749 6.20237C9.59749 6.20237 9.59749 6.20238 9.59749 6.20238C9.53392 6.29774 9.5 6.40977 9.5 6.52436V7.01753C9.5 8.11699 10.3084 9.04914 11.3969 9.20463L12.2367 9.3246C12.7566 9.39887 13.1797 9.78052 13.3071 10.29L13.549 11.2575C13.7068 11.8886 13.2294 12.5 12.5788 12.5H3.42116C2.77059 12.5 2.29324 11.8886 2.45102 11.2575L2.69289 10.29C2.82026 9.78052 3.24342 9.39887 3.7633 9.3246L4.60315 9.20463C5.69155 9.04914 6.5 8.11699 6.5 7.01753V6.52436C6.5 6.40976 6.46608 6.29773 6.40251 6.20238Z" stroke="#262A33" stroke-opacity="0.5" stroke-linecap="round" stroke-linejoin="round"/>
<path d="M2.5 14.5H14" stroke="#262A33" stroke-opacity="0.5"/>
</g>
<defs>
<clipPath id="clip0">
<rect width="16" height="16" fill="white"/>
</clipPath>
</defs>
</svg>
