<svg width="24" height="24" viewBox="0 0 24 24" fill="none" xmlns="http://www.w3.org/2000/svg">
<path fill-rule="evenodd" clip-rule="evenodd" d="M12 0C5.37258 0 0 5.37258 0 12C0 18.6274 5.37258 24 12 24H22.9091C23.5116 24 24 23.5116 24 22.9091C24 22.3066 23.5116 21.8182 22.9091 21.8182H18.9013C21.9852 19.6465 24 16.0585 24 12C24 5.37258 18.6274 0 12 0ZM9.27272 7.09126C9.27272 5.58501 10.4937 4.36399 12 4.36399C13.5062 4.36399 14.7273 5.58501 14.7273 7.09126C14.7273 8.59752 13.5062 9.81854 12 9.81854C10.4937 9.81854 9.27272 8.59752 9.27272 7.09126ZM9.27272 16.9094C9.27272 15.4032 10.4937 14.1822 12 14.1822C13.5062 14.1822 14.7273 15.4032 14.7273 16.9094C14.7273 18.4157 13.5062 19.6367 12 19.6367C10.4937 19.6367 9.27272 18.4157 9.27272 16.9094ZM4.36363 12.0004C4.36363 10.4941 5.58464 9.27308 7.0909 9.27308C8.59715 9.27308 9.81817 10.4941 9.81817 12.0004C9.81817 13.5066 8.59715 14.7276 7.0909 14.7276C5.58464 14.7276 4.36363 13.5066 4.36363 12.0004ZM14.1818 12.0004C14.1818 10.4941 15.4028 9.27308 16.9091 9.27308C18.4153 9.27308 19.6364 10.4941 19.6364 12.0004C19.6364 13.5066 18.4153 14.7276 16.9091 14.7276C15.4028 14.7276 14.1818 13.5066 14.1818 12.0004Z" fill="white"/>
</svg>
