<svg width="115" height="120" viewBox="0 0 115 120" fill="none" xmlns="http://www.w3.org/2000/svg">
<path d="M115 32.7V87.2C115 105.3 100.3 119.9 82.3001 119.9H27.7001C18.0001 119.9 9.4001 115.7 3.4001 109.1L11.0001 88.2L17.1001 89.9L59.3001 101.5C61.1001 102 62.9001 101.6 64.4001 100.5L90.2001 80.5L104.1 42.6C104.9 40.4 102.3 38.5 100.5 40L75.9001 59L71.1001 62.7L33.1001 27.6L0.100098 15.2C5.9001 6.1 16.1001 0 27.7001 0H82.2001C100.3 0 115 14.7 115 32.7Z" fill="#262A33" fill-opacity="0.1"/>
</svg>
