<svg width="16" height="16" viewBox="0 0 16 16" fill="none" xmlns="http://www.w3.org/2000/svg">
<g clip-path="url(#clip0)">
<path fill-rule="evenodd" clip-rule="evenodd" d="M5.50001 2.5H10.5C10.7761 2.5 11 2.72386 11 3C11 3.27614 10.7761 3.5 10.5 3.5H5.50001C5.22387 3.5 5.00001 3.27614 5.00001 3C5.00001 2.72386 5.22387 2.5 5.50001 2.5ZM11.9207 2.5174C11.7198 1.92573 11.1596 1.5 10.5 1.5H5.50001C4.84037 1.5 4.28018 1.92579 4.07929 2.51752C3.18697 2.64142 2.5 3.40739 2.5 4.33381V12.5C2.5 13.6046 3.39543 14.5 4.5 14.5H11.5C12.6046 14.5 13.5 13.6046 13.5 12.5V4.33286C13.5 3.40662 12.813 2.64086 11.9207 2.5174ZM11.9023 3.53366C11.6872 4.09861 11.1405 4.5 10.5 4.5H5.50001C4.85963 4.5 4.31297 4.09871 4.0978 3.53387C3.75224 3.63567 3.5 3.95528 3.5 4.33381V12.5C3.5 13.0523 3.94772 13.5 4.5 13.5H11.5C12.0523 13.5 12.5 13.0523 12.5 12.5V4.33286C12.5 3.95455 12.2478 3.63515 11.9023 3.53366Z" fill="#262A33" fill-opacity="0.5"/>
<path d="M6 8.5L7.50001 10L10.5 7" stroke="#262A33" stroke-opacity="0.5" stroke-linejoin="round"/>
</g>
<defs>
<clipPath id="clip0">
<rect width="16" height="16" fill="white"/>
</clipPath>
</defs>
</svg>
