<svg width="16" height="16" viewBox="0 0 16 16" fill="none" xmlns="http://www.w3.org/2000/svg">
<path d="M8 0.5C12.1421 0.5 15.5 3.85794 15.5 8C15.5 12.1421 12.1421 15.5 8 15.5C3.85794 15.5 0.5 12.1421 0.5 8C0.5 3.85794 3.85794 0.5 8 0.5ZM8 10.0625C7.80109 10.0625 7.61032 10.1415 7.46967 10.2822C7.32902 10.4228 7.25 10.6136 7.25 10.8125C7.25 11.0114 7.32902 11.2022 7.46967 11.3428C7.61032 11.4835 7.80109 11.5625 8 11.5625C8.19891 11.5625 8.38968 11.4835 8.53033 11.3428C8.67098 11.2022 8.75 11.0114 8.75 10.8125C8.75 10.6136 8.67098 10.4228 8.53033 10.2822C8.38968 10.1415 8.19891 10.0625 8 10.0625ZM8 3.6875C7.80109 3.6875 7.61032 3.76652 7.46967 3.90717C7.32902 4.04782 7.25 4.23859 7.25 4.4375V8.5625C7.25 8.76141 7.32902 8.95218 7.46967 9.09283C7.61032 9.23348 7.80109 9.3125 8 9.3125C8.19891 9.3125 8.38968 9.23348 8.53033 9.09283C8.67098 8.95218 8.75 8.76141 8.75 8.5625V4.4375C8.75 4.23859 8.67098 4.04782 8.53033 3.90717C8.38968 3.76652 8.19891 3.6875 8 3.6875Z" fill="#FF3164"/>
</svg>
