<svg width="16" height="16" viewBox="0 0 16 16" fill="none" xmlns="http://www.w3.org/2000/svg">
<path d="M11.0509 2.97734L10.9319 2.49169L11.0509 2.97734ZM4.86925 2.46593L4.73189 1.98517L4.86925 2.46593ZM11.0255 9.28207L10.9548 8.7871L11.0255 9.28207ZM3.72801 2.792L3.59065 2.31123L3.72801 2.792ZM12.8754 2.53051L12.9944 3.01616L12.8754 2.53051ZM12.876 9.01772L12.8053 8.52274L12.876 9.01772ZM12.5 8.87471V2.62825H13.5V8.87471H12.5ZM3.4178 8.5068L4.81855 8.27334L4.98295 9.25974L3.5822 9.4932L3.4178 8.5068ZM10.9548 8.7871L12.8053 8.52274L12.9467 9.51269L11.0962 9.77705L10.9548 8.7871ZM5.00661 2.94669L3.86537 3.27276L3.59065 2.31123L4.73189 1.98517L5.00661 2.94669ZM12.9944 3.01616L11.1698 3.46299L10.9319 2.49169L12.7565 2.04486L12.9944 3.01616ZM4 3.09428V9H3V3.09428H4ZM4 9V14.5H3V9H4ZM11.1698 3.46299C10.0563 3.73567 8.88361 3.62708 7.83916 3.1546L8.25133 2.24349C9.09194 2.62376 10.0358 2.71116 10.9319 2.49169L11.1698 3.46299ZM4.73189 1.98517C5.89861 1.65182 7.14578 1.74336 8.25133 2.24349L7.83916 3.1546C6.94938 2.75208 5.94562 2.6784 5.00661 2.94669L4.73189 1.98517ZM8.19622 8.53836C9.08397 8.83428 10.0284 8.91944 10.9548 8.7871L11.0962 9.77705C10.0161 9.93134 8.91502 9.83205 7.88 9.48704L8.19622 8.53836ZM4.81855 8.27334C5.94921 8.0849 7.10879 8.17588 8.19622 8.53836L7.88 9.48704C6.9473 9.17615 5.95272 9.09811 4.98295 9.25974L4.81855 8.27334ZM3.86537 3.27276C3.94506 3.24999 4 3.17716 4 3.09428H3C3 2.73068 3.24104 2.41112 3.59065 2.31123L3.86537 3.27276ZM12.5 2.62825C12.5 2.88728 12.7428 3.07777 12.9944 3.01616L12.7565 2.04486C13.1349 1.95219 13.5 2.23869 13.5 2.62825H12.5ZM13.5 8.87471C13.5 9.19543 13.2642 9.46734 12.9467 9.51269L12.8053 8.52274C12.6301 8.54777 12.5 8.69778 12.5 8.87471H13.5Z" fill="white"/>
</svg>
