<svg width="16" height="17" viewBox="0 0 16 17" fill="none" xmlns="http://www.w3.org/2000/svg">
    <path d="M8.82715 5.22705L5 5.22754V2.92773L0.333007 6.37598L5 9.82422V7.52441L8.82715 7.52393C10.0957 7.52393 11.1226 8.55225 11.1226 9.8208C11.1226 11.0894 10.0942 12.1177 8.82715 12.1177H2.42871V14.4146H8.82715C11.3628 14.4116 13.4194 12.3564 13.4194 9.81934C13.4194 7.28223 11.3628 5.22705 8.82715 5.22705Z" fill="#C4C4C4"/>
    <path d="M11.625 14.959C14.0412 14.959 16 13.0002 16 10.584C16 8.16774 14.0412 6.20898 11.625 6.20898C9.20875 6.20898 7.25 8.16774 7.25 10.584C7.25 13.0002 9.20875 14.959 11.625 14.959Z" fill="#F74F4F"/>
    <path fill-rule="evenodd" clip-rule="evenodd" d="M11.0252 11.1964L11.0252 7.84375L12.2252 7.84375L12.2252 11.1964L11.0252 11.1964Z" fill="white"/>
    <path fill-rule="evenodd" clip-rule="evenodd" d="M11.0249 13.323L11.0249 12.123L12.2249 12.123L12.2249 13.323L11.0249 13.323Z" fill="white"/>
    </svg>
    