<svg width="16" height="17" viewBox="0 0 16 17" fill="none" xmlns="http://www.w3.org/2000/svg">
    <path d="M8.82715 5.22705L5 5.22754V2.92773L0.333007 6.37598L5 9.82422V7.52441L8.82715 7.52393C10.0957 7.52393 11.1226 8.55225 11.1226 9.8208C11.1226 11.0894 10.0942 12.1177 8.82715 12.1177H2.42871V14.4146H8.82715C11.3628 14.4116 13.4194 12.3564 13.4194 9.81934C13.4194 7.28223 11.3628 5.22705 8.82715 5.22705Z" fill="#C4C4C4"/>
    <path d="M7.25 10.5918C7.25 8.17555 9.20875 6.2168 11.625 6.2168C14.0412 6.2168 16 8.17555 16 10.5918C16 13.008 14.0412 14.9668 11.625 14.9668C9.20875 14.9668 7.25 13.008 7.25 10.5918Z" fill="#5FC375"/>
    <path d="M9.25012 10.3699L11.1457 12.2655L14.2496 9.16211" stroke="white" stroke-width="1.2" stroke-linejoin="round"/>
    </svg>
    