<svg width="24" height="24" viewBox="0 0 24 24" fill="none" xmlns="http://www.w3.org/2000/svg">
<path d="M4.66667 0H16.6667L22 5.33333V21.3333C22 22.8061 20.8061 24 19.3333 24H4.66667C3.19391 24 2 22.8061 2 21.3333V2.66667C2 1.19391 3.19391 0 4.66667 0Z" fill="url(#paint0_linear)"/>
<path d="M13.8364 17.9999L11.9964 14.6933L10.1697 17.9999H8.04974L10.9964 13.1333L8.23641 8.50659H10.3431L11.9964 11.5733L13.6631 8.50659H15.7564L12.9964 13.1333L15.9564 17.9999H13.8364Z" fill="white"/>
<path d="M16.6667 4V0L22 5.33333H18C17.2636 5.33333 16.6667 4.73638 16.6667 4Z" fill="white" fill-opacity="0.5"/>
<defs>
<linearGradient id="paint0_linear" x1="12" y1="0" x2="12" y2="24" gradientUnits="userSpaceOnUse">
<stop stop-color="#2BC491"/>
<stop offset="1" stop-color="#1EA87A"/>
</linearGradient>
</defs>
</svg>
