<svg width="24" height="24" viewBox="0 0 48 48" fill="none" xmlns="http://www.w3.org/2000/svg">
<path d="M41.8113 25.2639C40.0777 27.1841 37.4434 29.7667 34.2409 31.8603C31.0309 33.9589 27.3521 35.4999 23.4983 35.4999C19.6445 35.4999 15.9657 33.9589 12.7557 31.8603C9.5532 29.7667 6.9189 27.1841 5.18532 25.264C4.25946 24.2384 4.25946 22.7614 5.18532 21.7359C6.9189 19.8158 9.5532 17.2332 12.7557 15.1395C15.9657 13.041 19.6445 11.5 23.4983 11.5C27.3521 11.5 31.0309 13.041 34.2409 15.1395C37.4434 17.2332 40.0777 19.8158 41.8113 21.7359C42.7371 22.7614 42.7371 24.2384 41.8113 25.2639Z" stroke="#A8AAAD" stroke-width="3" stroke-linecap="round" stroke-linejoin="round"/>
<path d="M28.3099 23.4999C28.3099 26.1563 26.1565 28.3097 23.5002 28.3097C20.8438 28.3097 18.6904 26.1563 18.6904 23.4999C18.6904 20.8436 20.8438 18.6902 23.5002 18.6902C26.1565 18.6902 28.3099 20.8436 28.3099 23.4999Z" stroke="#A8AAAD" stroke-width="3" stroke-linejoin="round"/>
</svg>
