<svg width="25" height="27" viewBox="0 0 25 27" fill="none" xmlns="http://www.w3.org/2000/svg">
<path d="M17.5117 26.947H5.67512C1.74706 26.947 -1.44775 23.714 -1.44775 19.739V7.76098C-1.44775 3.78598 1.74706 0.552979 5.67512 0.552979H17.5117C21.4397 0.552979 24.6345 3.78598 24.6345 7.76098V19.739C24.6345 23.714 21.4397 26.947 17.5117 26.947Z" fill="url(#paint0_linear_14681_88316)"/>
<path d="M8.7915 19.7917L15.0502 14.3857L21.4922 9.35075C21.885 9.03275 22.4611 9.45675 22.2778 9.93375L19.2663 18.2547L8.7915 19.7917Z" fill="#F5F9FF"/>
<path d="M13.6358 22.6273L19.266 18.2548L6.82714 6.64783L1.43262 19.7918L12.5359 22.8658C12.9287 22.9718 13.3215 22.8923 13.6358 22.6273Z" fill="#F5F9FF"/>
<path d="M6.82747 6.64785L2.03525 19.9508L0.359279 24.6413C-0.79295 23.3428 -1.5 21.6468 -1.5 19.7653V7.73435C-1.5 6.30335 -1.10719 5.00485 -0.400145 3.89185L6.82747 6.64785Z" fill="#F5F9FF"/>
<path d="M6.82738 6.64783L2.03516 19.9508L4.18249 20.5338L6.82738 6.64783Z" fill="#CAD1EF"/>
<path d="M19.2661 18.2549L16.1237 13.5114L15.0762 14.3329L19.2661 18.2549Z" fill="#CAD1EF"/>
<defs>
<linearGradient id="paint0_linear_14681_88316" x1="23.1335" y1="1.08126" x2="-0.563802" y2="26.4855" gradientUnits="userSpaceOnUse">
<stop stop-color="#4284FF"/>
<stop offset="0.1653" stop-color="#3A77FB"/>
<stop offset="0.6763" stop-color="#2454F2"/>
<stop offset="0.9515" stop-color="#1B47EE"/>
</linearGradient>
</defs>
</svg>
