<svg width="16" height="16" viewBox="0 0 16 16" fill="none" xmlns="http://www.w3.org/2000/svg">
<path d="M14.5 13.5L14.1139 13.8177C14.254 13.9879 14.489 14.0463 14.6924 13.9615C14.8959 13.8767 15.0198 13.6686 14.9974 13.4493L14.5 13.5ZM6.5 10.2L6.41957 9.70651L6 9.7749V10.2H6.5ZM6.5 13.5L6.13668 13.8435C6.27737 13.9923 6.49458 14.0403 6.68485 13.9646C6.87513 13.8889 7 13.7048 7 13.5H6.5ZM1.3 8L0.93668 7.65649C0.754444 7.84924 0.754444 8.15076 0.93668 8.34351L1.3 8ZM6.5 2.5H7C7 2.29522 6.87513 2.11113 6.68485 2.03542C6.49458 1.95972 6.27737 2.00769 6.13668 2.15649L6.5 2.5ZM6.5 5.8H6V6.29608L6.49607 6.29998L6.5 5.8ZM12.0006 8L11.6455 8.352L11.6455 8.35201L12.0006 8ZM14.8861 13.1823C13.2608 11.2073 11.4947 10.0046 10.1035 9.71079L9.89687 10.6892C10.974 10.9167 12.5587 11.9279 14.1139 13.8177L14.8861 13.1823ZM10.1035 9.71079C8.78512 9.43232 7.56663 9.51954 6.41957 9.70651L6.58044 10.6935C7.66515 10.5167 8.74703 10.4463 9.89687 10.6892L10.1035 9.71079ZM6 10.2V13.5H7V10.2H6ZM6.86333 13.1565L1.66333 7.65649L0.93668 8.34351L6.13668 13.8435L6.86333 13.1565ZM1.66333 8.34351L6.86333 2.84351L6.13668 2.15649L0.93668 7.65649L1.66333 8.34351ZM6 2.5V5.8H7V2.5H6ZM6.49607 6.29998C8.44706 6.31534 10.3066 7.00133 11.6455 8.352L12.3557 7.648C10.8049 6.08354 8.67947 5.31714 6.50394 5.30002L6.49607 6.29998ZM11.6455 8.35201C13.0018 9.72024 13.7915 11.4788 14.0026 13.5507L14.9974 13.4493C14.7656 11.1737 13.8891 9.19489 12.3557 7.64799L11.6455 8.35201Z" fill="#3F465C"/>
</svg>
