<svg width="16" height="16" viewBox="0 0 16 16" fill="none" xmlns="http://www.w3.org/2000/svg">
<g clip-path="url(#clip0_5325_70430)">
<path d="M7.40245 2.10327C7.78362 1.93773 8.21638 1.93773 8.59755 2.10327L13.8544 4.38641C14.5764 4.69997 14.5764 5.72386 13.8544 6.03742L8.59755 8.32056C8.21638 8.4861 7.78362 8.4861 7.40245 8.32056L2.14558 6.03742C1.42362 5.72386 1.42361 4.69997 2.14558 4.38641M7.40245 2.10327L2.14558 4.38641M7.40245 2.10327L2.14558 4.38641M7.40245 2.10327L2.34476 4.84502L2.14558 4.38641" stroke="#3F465C"/>
<path fill-rule="evenodd" clip-rule="evenodd" d="M3.41976 6.04565L1.94638 6.68556C0.823332 7.17332 0.823333 8.76604 1.94638 9.2538L7.20326 11.5369C7.71148 11.7577 8.2885 11.7577 8.79672 11.5369L14.0536 9.2538C15.1767 8.76604 15.1766 7.17332 14.0536 6.68556L12.5802 6.04565L11.3251 6.59078L13.2449 7.42456L13.245 7.42463L13.2625 7.4322L13.6552 7.60279C13.9761 7.74215 13.9761 8.19721 13.6552 8.33657L13.2624 8.50716L13.245 8.51473L13.2449 8.5148L8.39836 10.6197C8.14425 10.7301 7.85574 10.7301 7.60163 10.6197L2.75512 8.5148L2.75496 8.51473L2.73753 8.50716L2.34475 8.33657C2.02388 8.19721 2.02388 7.74215 2.34475 7.60279L2.73753 7.4322L2.75496 7.42463L2.75512 7.42456L4.67489 6.59078L3.41976 6.04565Z" fill="#3F465C"/>
<path fill-rule="evenodd" clip-rule="evenodd" d="M3.42001 8.80372L1.94642 9.44372C0.823362 9.93148 0.823364 11.5242 1.94642 12.012L7.20329 14.2951C7.71151 14.5158 8.28853 14.5158 8.79675 14.2951L14.0536 12.012C15.1767 11.5242 15.1767 9.93148 14.0536 9.44372L12.58 8.80371L11.3249 9.34883L13.2449 10.1827L13.2451 10.1828L13.2625 10.1904L13.6553 10.361C13.9761 10.5003 13.9761 10.9554 13.6553 11.0947L13.2625 11.2653L13.2451 11.2729L13.2449 11.273L8.39839 13.3779C8.14428 13.4882 7.85577 13.4882 7.60166 13.3779L2.75515 11.273L2.75499 11.2729L2.73756 11.2653L2.34478 11.0947C2.02391 10.9554 2.02391 10.5003 2.34478 10.361L2.73756 10.1904L2.75499 10.1828L2.75515 10.1827L4.67514 9.34884L3.42001 8.80372Z" fill="#3F465C"/>
</g>
<defs>
<clipPath id="clip0_5325_70430">
<rect width="16" height="16" fill="white"/>
</clipPath>
</defs>
</svg>
