<svg width="16" height="16" viewBox="0 0 16 16" fill="none" xmlns="http://www.w3.org/2000/svg">
<path d="M2.5 8.78L4.13543 8.53518C5.34602 8.35396 6.58168 8.44203 7.75432 8.79311V8.79311C8.87057 9.12731 10.0446 9.22337 11.2003 9.07508L13.37 8.79668C13.4443 8.78714 13.5 8.72386 13.5 8.64892V2.14878C13.5 2.08264 13.4388 2.03346 13.3742 2.04767L11.2237 2.52071C10.0667 2.77519 8.85983 2.6727 7.76238 2.22679V2.22679C6.60069 1.75477 5.31814 1.66823 4.10357 1.97992L2.79873 2.31477C2.62293 2.35988 2.5 2.51834 2.5 2.69984V8.78ZM2.5 8.78V14.5" stroke="#3F465C" stroke-linecap="round" stroke-linejoin="round"/>
</svg>
