<svg width="16" height="16" viewBox="0 0 16 16" fill="none" xmlns="http://www.w3.org/2000/svg">
<path d="M1.5 5.25L1.5 4.75C1.22386 4.75 1 4.97386 1 5.25L1.5 5.25ZM1.5 10.75L1 10.75C1 11.0261 1.22386 11.25 1.5 11.25L1.5 10.75ZM8.59091 10.75L9.09091 10.75C9.09091 10.4739 8.86705 10.25 8.59091 10.25L8.59091 10.75ZM8.59091 13.5L8.09091 13.5C8.09091 13.699 8.20889 13.879 8.39132 13.9584C8.57375 14.0379 8.78592 14.0016 8.93157 13.866L8.59091 13.5ZM14.5 8L14.8407 8.366C14.9423 8.27141 15 8.13883 15 8C15 7.86117 14.9423 7.72859 14.8407 7.634L14.5 8ZM8.59091 2.5L8.93157 2.134C8.78592 1.99844 8.57375 1.96214 8.39132 2.04156C8.20889 2.12099 8.09091 2.30103 8.09091 2.5L8.59091 2.5ZM8.59091 5.25L8.59091 5.75C8.86705 5.75 9.09091 5.52614 9.09091 5.25L8.59091 5.25ZM1 5.25L1 10.75L2 10.75L2 5.25L1 5.25ZM1.5 11.25L8.59091 11.25L8.59091 10.25L1.5 10.25L1.5 11.25ZM8.93157 13.866L14.8407 8.366L14.1593 7.634L8.25025 13.134L8.93157 13.866ZM14.8407 7.634L8.93157 2.134L8.25025 2.866L14.1593 8.366L14.8407 7.634ZM8.09091 2.5L8.09091 5.25L9.09091 5.25L9.09091 2.5L8.09091 2.5ZM8.59091 4.75L1.5 4.75L1.5 5.75L8.59091 5.75L8.59091 4.75ZM8.09091 10.75L8.09091 12.125L9.09091 12.125L9.09091 10.75L8.09091 10.75ZM8.09091 12.125L8.09091 13.5L9.09091 13.5L9.09091 12.125L8.09091 12.125Z" fill="#3F465C"/>
</svg>
