<svg width="16" height="16" viewBox="0 0 16 16" fill="none" xmlns="http://www.w3.org/2000/svg">
<path fill-rule="evenodd" clip-rule="evenodd" d="M11.2275 9.57557C11.2396 9.57406 11.2518 9.57253 11.2639 9.57098L13.4024 9.29659C13.744 9.25274 14 8.96189 14 8.61741V2.1797C14 1.77823 13.6286 1.47971 13.2365 1.56595L11.1162 2.03235C10.0581 2.26509 8.95427 2.17136 7.95055 1.76353C6.97591 1.36751 5.92289 1.22148 4.88615 1.33183L5.62828 2.2966C6.29168 2.30523 6.95186 2.43713 7.57412 2.68997C8.76531 3.17397 10.0753 3.28522 11.331 3.009L13 2.6419V8.34002L11.1366 8.57911C10.926 8.60613 10.7148 8.62452 10.5034 8.63432L11.2275 9.57557ZM4.45478 2.41118C4.37887 2.42717 4.3032 2.44484 4.22781 2.46419L2.99995 2.77928V8.19954L4.06136 8.04065C5.34469 7.84855 6.65458 7.94191 7.89769 8.31408C8.32604 8.44233 8.76344 8.53327 9.20503 8.5865L10.0168 9.64184C9.20361 9.63038 8.39384 9.50649 7.61087 9.27207C6.50868 8.94208 5.34726 8.8593 4.20941 9.02963L2.99995 9.21069V14.5C2.99995 14.7761 2.7761 15 2.49995 15C2.22381 15 1.99995 14.7761 1.99995 14.5V8.77996V2.6998C1.99995 2.29003 2.27749 1.93228 2.6744 1.83043L3.78819 1.5446L4.45478 2.41118Z" fill="#3F465C"/>
<path d="M3 1L13 14" stroke="#3F465C" stroke-linecap="round"/>
</svg>
