<svg width="18" height="19" viewBox="0 0 18 19" fill="none" xmlns="http://www.w3.org/2000/svg">
<g filter="url(#filter0_d_5198_57585)">
<mask id="path-1-outside-1_5198_57585" maskUnits="userSpaceOnUse" x="6" y="6" width="11" height="11" fill="black">
<rect fill="white" x="6" y="6" width="11" height="11"/>
<path fill-rule="evenodd" clip-rule="evenodd" d="M15 11.5C15 13.433 13.433 15 11.5 15C10.7138 15 9.98822 14.7408 9.40393 14.3032L14.3032 9.40393C14.7408 9.98822 15 10.7138 15 11.5ZM8.69682 13.5961L13.5961 8.69682C13.0118 8.25921 12.2862 8 11.5 8C9.567 8 8 9.567 8 11.5C8 12.2862 8.25921 13.0118 8.69682 13.5961ZM16 11.5C16 13.9853 13.9853 16 11.5 16C9.01472 16 7 13.9853 7 11.5C7 9.01472 9.01472 7 11.5 7C13.9853 7 16 9.01472 16 11.5Z"/>
</mask>
<path fill-rule="evenodd" clip-rule="evenodd" d="M15 11.5C15 13.433 13.433 15 11.5 15C10.7138 15 9.98822 14.7408 9.40393 14.3032L14.3032 9.40393C14.7408 9.98822 15 10.7138 15 11.5ZM8.69682 13.5961L13.5961 8.69682C13.0118 8.25921 12.2862 8 11.5 8C9.567 8 8 9.567 8 11.5C8 12.2862 8.25921 13.0118 8.69682 13.5961ZM16 11.5C16 13.9853 13.9853 16 11.5 16C9.01472 16 7 13.9853 7 11.5C7 9.01472 9.01472 7 11.5 7C13.9853 7 16 9.01472 16 11.5Z" fill="#7D8085"/>
<path d="M9.40393 14.3032L8.97966 13.8789L8.49015 14.3685L9.04425 14.7834L9.40393 14.3032ZM14.3032 9.40393L14.7834 9.04425L14.3685 8.49015L13.8789 8.97966L14.3032 9.40393ZM8.69682 13.5961L8.21658 13.9558L8.63157 14.5099L9.12108 14.0204L8.69682 13.5961ZM13.5961 8.69682L14.0204 9.12108L14.5099 8.63157L13.9558 8.21658L13.5961 8.69682ZM11.5 15.6C13.7644 15.6 15.6 13.7644 15.6 11.5H14.4C14.4 13.1016 13.1016 14.4 11.5 14.4V15.6ZM9.04425 14.7834C9.72877 15.2961 10.5798 15.6 11.5 15.6V14.4C10.8479 14.4 10.2477 14.1855 9.7636 13.823L9.04425 14.7834ZM13.8789 8.97966L8.97966 13.8789L9.82819 14.7275L14.7275 9.82819L13.8789 8.97966ZM15.6 11.5C15.6 10.5798 15.2961 9.72877 14.7834 9.04425L13.823 9.7636C14.1855 10.2477 14.4 10.8479 14.4 11.5H15.6ZM9.12108 14.0204L14.0204 9.12108L13.1718 8.27255L8.27255 13.1718L9.12108 14.0204ZM13.9558 8.21658C13.2713 7.7039 12.4203 7.4 11.5 7.4V8.6C12.1521 8.6 12.7524 8.81451 13.2364 9.17706L13.9558 8.21658ZM11.5 7.4C9.23563 7.4 7.4 9.23563 7.4 11.5H8.6C8.6 9.89837 9.89837 8.6 11.5 8.6V7.4ZM7.4 11.5C7.4 12.4203 7.7039 13.2713 8.21658 13.9558L9.17706 13.2364C8.81451 12.7524 8.6 12.1521 8.6 11.5H7.4ZM11.5 16.6C14.3167 16.6 16.6 14.3167 16.6 11.5H15.4C15.4 13.6539 13.6539 15.4 11.5 15.4V16.6ZM6.4 11.5C6.4 14.3167 8.68335 16.6 11.5 16.6V15.4C9.34609 15.4 7.6 13.6539 7.6 11.5H6.4ZM11.5 6.4C8.68335 6.4 6.4 8.68335 6.4 11.5H7.6C7.6 9.34609 9.34609 7.6 11.5 7.6V6.4ZM16.6 11.5C16.6 8.68335 14.3167 6.4 11.5 6.4V7.6C13.6539 7.6 15.4 9.34609 15.4 11.5H16.6Z" fill="white" mask="url(#path-1-outside-1_5198_57585)"/>
</g>
<g filter="url(#filter1_d_5198_57585)">
<path d="M5.57143 11L2 1L12 6L7.71429 7.07143L5.57143 11Z" fill="#262A33"/>
<path d="M5.57143 11L2 1L12 6L7.71429 7.07143L5.57143 11Z" stroke="white" stroke-width="0.6"/>
</g>
<defs>
<filter id="filter0_d_5198_57585" x="5.39999" y="6.3999" width="12.2" height="12.2002" filterUnits="userSpaceOnUse" color-interpolation-filters="sRGB">
<feFlood flood-opacity="0" result="BackgroundImageFix"/>
<feColorMatrix in="SourceAlpha" type="matrix" values="0 0 0 0 0 0 0 0 0 0 0 0 0 0 0 0 0 0 127 0" result="hardAlpha"/>
<feOffset dy="1"/>
<feGaussianBlur stdDeviation="0.5"/>
<feColorMatrix type="matrix" values="0 0 0 0 0 0 0 0 0 0 0 0 0 0 0 0 0 0 0.1 0"/>
<feBlend mode="normal" in2="BackgroundImageFix" result="effect1_dropShadow_5198_57585"/>
<feBlend mode="normal" in="SourceGraphic" in2="effect1_dropShadow_5198_57585" result="shape"/>
</filter>
<filter id="filter1_d_5198_57585" x="0.46637" y="0.397705" width="13.3932" height="13.3337" filterUnits="userSpaceOnUse" color-interpolation-filters="sRGB">
<feFlood flood-opacity="0" result="BackgroundImageFix"/>
<feColorMatrix in="SourceAlpha" type="matrix" values="0 0 0 0 0 0 0 0 0 0 0 0 0 0 0 0 0 0 127 0" result="hardAlpha"/>
<feOffset dy="1"/>
<feGaussianBlur stdDeviation="0.5"/>
<feColorMatrix type="matrix" values="0 0 0 0 0 0 0 0 0 0 0 0 0 0 0 0 0 0 0.1 0"/>
<feBlend mode="normal" in2="BackgroundImageFix" result="effect1_dropShadow_5198_57585"/>
<feBlend mode="normal" in="SourceGraphic" in2="effect1_dropShadow_5198_57585" result="shape"/>
</filter>
</defs>
</svg>
