<svg width="16" height="16" viewBox="0 0 16 16" fill="none" xmlns="http://www.w3.org/2000/svg">
<path d="M5.8 2.6C5.8 2.54477 5.84477 2.5 5.9 2.5H10.2C10.2552 2.5 10.3 2.54477 10.3 2.6V5.4C10.3 5.45523 10.2552 5.5 10.2 5.5H5.9C5.84477 5.5 5.8 5.45523 5.8 5.4V2.6Z" stroke="#3F465C"/>
<path d="M2.3 10.6C2.3 10.5448 2.34477 10.5 2.4 10.5H6.7C6.75523 10.5 6.8 10.5448 6.8 10.6V13.4C6.8 13.4552 6.75523 13.5 6.7 13.5H2.4C2.34477 13.5 2.3 13.4552 2.3 13.4V10.6Z" stroke="#3F465C"/>
<path d="M9.3 10.6C9.3 10.5448 9.34477 10.5 9.4 10.5H13.7C13.7552 10.5 13.8 10.5448 13.8 10.6V13.4C13.8 13.4552 13.7552 13.5 13.7 13.5H9.4C9.34477 13.5 9.3 13.4552 9.3 13.4V10.6Z" stroke="#3F465C"/>
<path d="M8 6V8" stroke="#3F465C" stroke-linecap="round"/>
<path d="M4.5 10.5V8.1C4.5 8.04477 4.54477 8 4.6 8H11.4C11.4552 8 11.5 8.04477 11.5 8.1V10.5" stroke="#3F465C" stroke-linecap="round"/>
</svg>
