<svg width="24" height="24" viewBox="0 0 24 24" fill="none" xmlns="http://www.w3.org/2000/svg">
<g clip-path="url(#clip0_2746_102170)">
<rect width="24" height="24" rx="12" fill="#FFB54C"/>
<rect x="8" y="5" width="1.6" height="3" rx="0.8" fill="white"/>
<rect x="14.3999" y="5" width="1.6" height="3" rx="0.8" fill="white"/>
<path fill-rule="evenodd" clip-rule="evenodd" d="M5 7.75C5 6.7835 5.7835 6 6.75 6H17.25C18.2165 6 19 6.7835 19 7.75V16.25C19 17.2165 18.2165 18 17.25 18H6.75C5.7835 18 5 17.2165 5 16.25V7.75ZM8 10C8 9.55817 8.35817 9.2 8.8 9.2H15.2C15.6418 9.2 16 9.55817 16 10C16 10.4418 15.6418 10.8 15.2 10.8H8.8C8.35817 10.8 8 10.4418 8 10ZM8.8 12.7C8.35817 12.7 8 13.0582 8 13.5C8 13.9418 8.35817 14.3 8.8 14.3H12.2C12.6418 14.3 13 13.9418 13 13.5C13 13.0582 12.6418 12.7 12.2 12.7H8.8Z" fill="white"/>
</g>
<defs>
<clipPath id="clip0_2746_102170">
<rect width="24" height="24" fill="white"/>
</clipPath>
</defs>
</svg>
