<svg width="16" height="16" viewBox="0 0 16 16" fill="none" xmlns="http://www.w3.org/2000/svg">
<g filter="url(#filter0_d_5198_57582)">
<mask id="path-1-outside-1_5198_57582" maskUnits="userSpaceOnUse" x="5" y="1.20142" width="6" height="13" fill="black">
<rect fill="white" x="5" y="1.20142" width="6" height="13"/>
<path fill-rule="evenodd" clip-rule="evenodd" d="M6 2.69995C6 2.75518 6.04486 2.79973 6.10005 2.80178C6.64205 2.82194 7.02454 3.00654 7.27663 3.27958C7.54743 3.57288 7.69997 4.0033 7.69998 4.54045C7.69998 4.54045 7.69998 4.54046 7.69999 4.54046C7.69999 4.54046 7.7 4.54047 7.7 4.54047V7.69978C7.7 7.75501 7.65523 7.79978 7.6 7.79978H6.87734C6.82212 7.79978 6.77734 7.84455 6.77734 7.89978V8.29978C6.77734 8.35501 6.82212 8.39978 6.87734 8.39978H7.6C7.65523 8.39978 7.7 8.44455 7.7 8.49978V11.5442C7.7 11.5443 7.69999 11.5443 7.69999 11.5443C7.69998 11.5443 7.69998 11.5443 7.69998 11.5443C7.69997 12.0808 7.548 12.4858 7.28286 12.7562C7.03371 13.0102 6.65056 13.18 6.10007 13.1983C6.04487 13.2001 6 13.2447 6 13.2999V13.6999C6 13.7552 6.04488 13.8001 6.10009 13.7986C6.77528 13.7798 7.32548 13.5696 7.71123 13.1763C7.7832 13.1029 7.84823 13.0244 7.90651 12.9412C7.95085 12.8779 8.04915 12.8779 8.0935 12.9412C8.15177 13.0244 8.2168 13.1029 8.28877 13.1763C8.67452 13.5696 9.22472 13.7798 9.89991 13.7986C9.95512 13.8001 10 13.7552 10 13.6999V13.2999C10 13.2447 9.95513 13.2001 9.89993 13.1983C9.34944 13.18 8.96629 13.0102 8.71714 12.7562C8.452 12.4858 8.30003 12.0808 8.30002 11.5443C8.30002 11.5443 8.30002 11.5443 8.30001 11.5443C8.30001 11.5443 8.3 11.5443 8.3 11.5442V8.49978C8.3 8.44455 8.34477 8.39978 8.4 8.39978H9.04453C9.09976 8.39978 9.14453 8.35501 9.14453 8.29978V7.89978C9.14453 7.84455 9.09976 7.79978 9.04453 7.79978H8.4C8.34477 7.79978 8.3 7.75501 8.3 7.69978V4.54047C8.3 4.54047 8.30001 4.54046 8.30001 4.54046C8.30002 4.54046 8.30002 4.54045 8.30002 4.54045C8.30003 4.0033 8.45257 3.57288 8.72337 3.27958C8.97546 3.00654 9.35795 2.82194 9.89995 2.80178C9.95514 2.79973 10 2.75518 10 2.69995V2.29995C10 2.24472 9.95512 2.19978 9.89991 2.20146C9.21619 2.22231 8.66532 2.45797 8.28254 2.87256C8.21346 2.94738 8.1508 3.02699 8.09442 3.11087C8.05048 3.17624 7.94952 3.17624 7.90558 3.11087C7.8492 3.02699 7.78654 2.94738 7.71746 2.87256C7.33468 2.45797 6.78381 2.22231 6.10009 2.20146C6.04488 2.19978 6 2.24472 6 2.29995V2.69995Z"/>
</mask>
<path fill-rule="evenodd" clip-rule="evenodd" d="M6 2.69995C6 2.75518 6.04486 2.79973 6.10005 2.80178C6.64205 2.82194 7.02454 3.00654 7.27663 3.27958C7.54743 3.57288 7.69997 4.0033 7.69998 4.54045C7.69998 4.54045 7.69998 4.54046 7.69999 4.54046C7.69999 4.54046 7.7 4.54047 7.7 4.54047V7.69978C7.7 7.75501 7.65523 7.79978 7.6 7.79978H6.87734C6.82212 7.79978 6.77734 7.84455 6.77734 7.89978V8.29978C6.77734 8.35501 6.82212 8.39978 6.87734 8.39978H7.6C7.65523 8.39978 7.7 8.44455 7.7 8.49978V11.5442C7.7 11.5443 7.69999 11.5443 7.69999 11.5443C7.69998 11.5443 7.69998 11.5443 7.69998 11.5443C7.69997 12.0808 7.548 12.4858 7.28286 12.7562C7.03371 13.0102 6.65056 13.18 6.10007 13.1983C6.04487 13.2001 6 13.2447 6 13.2999V13.6999C6 13.7552 6.04488 13.8001 6.10009 13.7986C6.77528 13.7798 7.32548 13.5696 7.71123 13.1763C7.7832 13.1029 7.84823 13.0244 7.90651 12.9412C7.95085 12.8779 8.04915 12.8779 8.0935 12.9412C8.15177 13.0244 8.2168 13.1029 8.28877 13.1763C8.67452 13.5696 9.22472 13.7798 9.89991 13.7986C9.95512 13.8001 10 13.7552 10 13.6999V13.2999C10 13.2447 9.95513 13.2001 9.89993 13.1983C9.34944 13.18 8.96629 13.0102 8.71714 12.7562C8.452 12.4858 8.30003 12.0808 8.30002 11.5443C8.30002 11.5443 8.30002 11.5443 8.30001 11.5443C8.30001 11.5443 8.3 11.5443 8.3 11.5442V8.49978C8.3 8.44455 8.34477 8.39978 8.4 8.39978H9.04453C9.09976 8.39978 9.14453 8.35501 9.14453 8.29978V7.89978C9.14453 7.84455 9.09976 7.79978 9.04453 7.79978H8.4C8.34477 7.79978 8.3 7.75501 8.3 7.69978V4.54047C8.3 4.54047 8.30001 4.54046 8.30001 4.54046C8.30002 4.54046 8.30002 4.54045 8.30002 4.54045C8.30003 4.0033 8.45257 3.57288 8.72337 3.27958C8.97546 3.00654 9.35795 2.82194 9.89995 2.80178C9.95514 2.79973 10 2.75518 10 2.69995V2.29995C10 2.24472 9.95512 2.19978 9.89991 2.20146C9.21619 2.22231 8.66532 2.45797 8.28254 2.87256C8.21346 2.94738 8.1508 3.02699 8.09442 3.11087C8.05048 3.17624 7.94952 3.17624 7.90558 3.11087C7.8492 3.02699 7.78654 2.94738 7.71746 2.87256C7.33468 2.45797 6.78381 2.22231 6.10009 2.20146C6.04488 2.19978 6 2.24472 6 2.29995V2.69995Z" fill="black"/>
<path d="M7.27663 3.27958L6.98274 3.55092L7.27663 3.27958ZM7.28286 12.7562L6.99728 12.4761H6.99728L7.28286 12.7562ZM7.71123 13.1763L7.99681 13.4564H7.99681L7.71123 13.1763ZM8.28877 13.1763L8.00319 13.4564H8.00319L8.28877 13.1763ZM8.71714 12.7562L9.00272 12.4761H9.00272L8.71714 12.7562ZM8.72337 3.27958L8.42948 3.00823L8.42948 3.00823L8.72337 3.27958ZM8.28254 2.87256L8.57643 3.1439V3.1439L8.28254 2.87256ZM7.71746 2.87256L7.42357 3.1439V3.1439L7.71746 2.87256ZM8.09442 3.11087L7.76244 2.88773L8.09442 3.11087ZM7.90558 3.11087L8.23756 2.88773L7.90558 3.11087ZM8.30002 11.5443L8.70002 11.5443L8.30002 11.5443ZM9.89993 13.1983L9.88666 13.5981L9.89993 13.1983ZM9.89991 13.7986L9.8888 14.1984L9.89991 13.7986ZM7.90651 12.9412L7.57892 12.7117L7.90651 12.9412ZM8.0935 12.9412L8.42108 12.7117L8.0935 12.9412ZM6.10007 13.1983L6.0868 12.7985H6.0868L6.10007 13.1983ZM7.69998 11.5443L8.09998 11.5443L7.69998 11.5443ZM8.30002 4.54045L8.70002 4.54045L8.30002 4.54045ZM7.69998 4.54045L8.09998 4.54045L7.69998 4.54045ZM6.10009 13.7986L6.08897 13.3987L6.10009 13.7986ZM7.57052 3.00823C7.23507 2.64492 6.74569 2.42552 6.11492 2.40206L6.08518 3.20151C6.5384 3.21837 6.814 3.36816 6.98274 3.55092L7.57052 3.00823ZM8.09998 4.54045C8.09997 3.9297 7.92587 3.3931 7.57052 3.00823L6.98274 3.55092C7.16899 3.75265 7.29997 4.0769 7.29998 4.54045L8.09998 4.54045ZM8.1 7.69978V4.54047H7.3V7.69978H8.1ZM6.87734 8.19978H7.6V7.39978H6.87734V8.19978ZM7.17734 8.29978V7.89978H6.37734V8.29978H7.17734ZM7.6 7.99978H6.87734V8.79978H7.6V7.99978ZM8.1 11.5442V8.49978H7.3V11.5442H8.1ZM7.56844 13.0363C7.92564 12.672 8.09997 12.1553 8.09998 11.5443L7.29998 11.5443C7.29997 12.0062 7.17035 12.2996 6.99728 12.4761L7.56844 13.0363ZM6.11334 13.5981C6.74148 13.5772 7.23141 13.3799 7.56844 13.0363L6.99728 12.4761C6.83601 12.6405 6.55965 12.7828 6.0868 12.7985L6.11334 13.5981ZM6.4 13.6999V13.2999H5.6V13.6999H6.4ZM7.42565 12.8962C7.12911 13.1986 6.68717 13.3821 6.08897 13.3987L6.1112 14.1984C6.86339 14.1775 7.52184 13.9407 7.99681 13.4564L7.42565 12.8962ZM7.57892 12.7117C7.53305 12.7772 7.48203 12.8387 7.42565 12.8962L7.99681 13.4564C8.08438 13.3671 8.16342 13.2716 8.23409 13.1708L7.57892 12.7117ZM8.57435 12.8962C8.51798 12.8387 8.46696 12.7772 8.42108 12.7117L7.76591 13.1708C7.83658 13.2716 7.91562 13.3671 8.00319 13.4564L8.57435 12.8962ZM9.91103 13.3987C9.31283 13.3821 8.87089 13.1986 8.57435 12.8962L8.00319 13.4564C8.47816 13.9407 9.13661 14.1775 9.8888 14.1984L9.91103 13.3987ZM9.6 13.2999V13.6999H10.4V13.2999H9.6ZM8.43156 13.0363C8.76859 13.3799 9.25852 13.5772 9.88666 13.5981L9.9132 12.7985C9.44035 12.7828 9.16399 12.6405 9.00272 12.4761L8.43156 13.0363ZM7.90002 11.5443C7.90003 12.1553 8.07436 12.672 8.43156 13.0363L9.00272 12.4761C8.82965 12.2996 8.70003 12.0062 8.70002 11.5443L7.90002 11.5443ZM7.9 8.49978V11.5442H8.7V8.49978H7.9ZM9.04453 7.99978H8.4V8.79978H9.04453V7.99978ZM8.74453 7.89978V8.29978H9.54453V7.89978H8.74453ZM8.4 8.19978H9.04453V7.39978H8.4V8.19978ZM7.9 4.54047V7.69978H8.7V4.54047H7.9ZM8.42948 3.00823C8.07413 3.3931 7.90003 3.9297 7.90002 4.54045L8.70002 4.54045C8.70003 4.0769 8.83101 3.75265 9.01726 3.55092L8.42948 3.00823ZM9.88508 2.40206C9.25431 2.42552 8.76493 2.64492 8.42948 3.00823L9.01726 3.55092C9.186 3.36816 9.4616 3.21837 9.91482 3.20151L9.88508 2.40206ZM9.6 2.29995V2.69995H10.4V2.29995H9.6ZM8.57643 3.1439C8.87437 2.82121 9.31665 2.61944 9.91211 2.60128L9.88772 1.80165C9.11572 1.82519 8.45627 2.09474 7.98865 2.60121L8.57643 3.1439ZM8.4264 3.33401C8.47158 3.26679 8.52155 3.20334 8.57643 3.1439L7.98865 2.60121C7.90536 2.69142 7.83002 2.7872 7.76244 2.88773L8.4264 3.33401ZM7.42357 3.1439C7.47845 3.20334 7.52842 3.26679 7.5736 3.33401L8.23756 2.88773C8.16998 2.7872 8.09464 2.69142 8.01135 2.60121L7.42357 3.1439ZM6.08789 2.60128C6.68335 2.61944 7.12563 2.82121 7.42357 3.1439L8.01135 2.60121C7.54373 2.09474 6.88428 1.82519 6.11228 1.80165L6.08789 2.60128ZM6.4 2.69995V2.29995H5.6V2.69995H6.4ZM6.11228 1.80165C5.82396 1.79285 5.6 2.02663 5.6 2.29995H6.4C6.4 2.4628 6.26581 2.6067 6.08789 2.60128L6.11228 1.80165ZM7.76244 2.88773C7.87701 2.71729 8.12299 2.71729 8.23756 2.88773L7.5736 3.33401C7.77604 3.6352 8.22396 3.6352 8.4264 3.33401L7.76244 2.88773ZM10.4 2.29995C10.4 2.02663 10.176 1.79285 9.88772 1.80165L9.91211 2.60128C9.73419 2.6067 9.6 2.4628 9.6 2.29995H10.4ZM9.54453 7.89978C9.54453 7.62364 9.32067 7.39978 9.04453 7.39978V8.19978C8.87885 8.19978 8.74453 8.06547 8.74453 7.89978H9.54453ZM9.04453 8.79978C9.32067 8.79978 9.54453 8.57592 9.54453 8.29978H8.74453C8.74453 8.1341 8.87885 7.99978 9.04453 7.99978V8.79978ZM8.7 8.49978C8.7 8.66547 8.56569 8.79978 8.4 8.79978V7.99978C8.12386 7.99978 7.9 8.22364 7.9 8.49978H8.7ZM8.30001 11.1443C8.52192 11.1443 8.7 11.3243 8.7 11.5442H7.9C7.9 11.7642 8.07809 11.9443 8.30001 11.9443V11.1443ZM8.70002 11.5443C8.70002 11.3273 8.5249 11.1443 8.30001 11.1443V11.9443C8.07514 11.9443 7.90003 11.7612 7.90002 11.5443L8.70002 11.5443ZM10.4 13.2999C10.4 13.0199 10.1749 12.8072 9.9132 12.7985L9.88666 13.5981C9.73534 13.5931 9.6 13.4695 9.6 13.2999H10.4ZM9.8888 14.1984C10.176 14.2064 10.4 13.9735 10.4 13.6999H9.6C9.6 13.5368 9.73421 13.3938 9.91103 13.3987L9.8888 14.1984ZM8.23409 13.1708C8.11918 13.3347 7.88082 13.3348 7.76591 13.1708L8.42108 12.7117C8.21748 12.4211 7.78252 12.4211 7.57892 12.7117L8.23409 13.1708ZM6.0868 12.7985C5.82509 12.8072 5.6 13.0199 5.6 13.2999H6.4C6.4 13.4695 6.26466 13.5931 6.11334 13.5981L6.0868 12.7985ZM7.69999 11.1443C7.47398 11.1443 7.29998 11.3285 7.29998 11.5443L8.09998 11.5443C8.09997 11.7601 7.92598 11.9443 7.69999 11.9443V11.1443ZM7.3 11.5442C7.3 11.3233 7.47908 11.1443 7.69999 11.1443V11.9443C7.92091 11.9443 8.1 11.7652 8.1 11.5442H7.3ZM7.6 8.79978C7.43432 8.79978 7.3 8.66547 7.3 8.49978H8.1C8.1 8.22364 7.87614 7.99978 7.6 7.99978V8.79978ZM6.37734 8.29978C6.37734 8.57592 6.6012 8.79978 6.87734 8.79978V7.99978C7.04303 7.99978 7.17734 8.1341 7.17734 8.29978H6.37734ZM9.91482 3.20151C10.1749 3.19183 10.4 2.98025 10.4 2.69995H9.6C9.6 2.5301 9.73537 2.40763 9.88508 2.40206L9.91482 3.20151ZM6.87734 7.39978C6.6012 7.39978 6.37734 7.62364 6.37734 7.89978H7.17734C7.17734 8.06547 7.04303 8.19978 6.87734 8.19978V7.39978ZM7.3 7.69978C7.3 7.5341 7.43431 7.39978 7.6 7.39978V8.19978C7.87614 8.19978 8.1 7.97592 8.1 7.69978H7.3ZM8.30001 4.94046C8.5226 4.94046 8.70002 4.7597 8.70002 4.54045L7.90002 4.54045C7.90003 4.32121 8.07744 4.14046 8.30001 4.14046V4.94046ZM7.69999 4.94046C7.47569 4.94046 7.3 4.75797 7.3 4.54047H8.1C8.1 4.32296 7.9243 4.14046 7.69999 4.14046V4.94046ZM8.7 4.54047C8.7 4.76138 8.52092 4.94046 8.30001 4.94046V4.14046C8.07909 4.14046 7.9 4.31955 7.9 4.54047H8.7ZM7.29998 4.54045C7.29998 4.75813 7.47584 4.94046 7.69999 4.94046V4.14046C7.92412 4.14046 8.09997 4.32278 8.09998 4.54045L7.29998 4.54045ZM5.6 13.6999C5.6 13.9735 5.82397 14.2064 6.1112 14.1984L6.08897 13.3987C6.26579 13.3938 6.4 13.5368 6.4 13.6999H5.6ZM8.4 7.39978C8.56568 7.39978 8.7 7.5341 8.7 7.69978H7.9C7.9 7.97592 8.12386 8.19978 8.4 8.19978V7.39978ZM6.11492 2.40206C6.26463 2.40763 6.4 2.5301 6.4 2.69995H5.6C5.6 2.98025 5.82509 3.19183 6.08518 3.20151L6.11492 2.40206Z" fill="white" mask="url(#path-1-outside-1_5198_57582)"/>
</g>
<defs>
<filter id="filter0_d_5198_57582" x="4.64001" y="1.37485" width="6.71999" height="14.317" filterUnits="userSpaceOnUse" color-interpolation-filters="sRGB">
<feFlood flood-opacity="0" result="BackgroundImageFix"/>
<feColorMatrix in="SourceAlpha" type="matrix" values="0 0 0 0 0 0 0 0 0 0 0 0 0 0 0 0 0 0 127 0" result="hardAlpha"/>
<feOffset dy="0.533333"/>
<feGaussianBlur stdDeviation="0.48"/>
<feColorMatrix type="matrix" values="0 0 0 0 0 0 0 0 0 0 0 0 0 0 0 0 0 0 0.65 0"/>
<feBlend mode="normal" in2="BackgroundImageFix" result="effect1_dropShadow_5198_57582"/>
<feBlend mode="normal" in="SourceGraphic" in2="effect1_dropShadow_5198_57582" result="shape"/>
</filter>
</defs>
</svg>
