<svg width="16" height="16" viewBox="0 0 16 16" fill="none" xmlns="http://www.w3.org/2000/svg">
<path d="M8 14.5C9.79493 14.5 11.4199 13.7725 12.5962 12.5962C13.7725 11.4199 14.5 9.79493 14.5 8C14.5 6.20507 13.7725 4.58007 12.5962 3.40381C11.4199 2.22754 9.79493 1.5 8 1.5C6.20507 1.5 4.58007 2.22754 3.40381 3.40381C2.22754 4.58007 1.5 6.20507 1.5 8C1.5 9.79493 2.22754 11.4199 3.40381 12.5962C4.58007 13.7725 6.20507 14.5 8 14.5Z" stroke="#3F465C" stroke-linejoin="round"/>
<path d="M8 9.40652V9.08139C8 8.63957 8.37756 8.29763 8.77051 8.09564C9.31513 7.81568 9.68769 7.2482 9.68769 6.5937C9.68769 5.66161 8.93208 4.90601 8 4.90601C7.06791 4.90601 6.3123 5.66161 6.3123 6.5937" stroke="#3F465C" stroke-linecap="round" stroke-linejoin="round"/>
<path fill-rule="evenodd" clip-rule="evenodd" d="M8.00005 11.9979C8.38625 11.9979 8.69932 11.6848 8.69932 11.2986C8.69932 10.9124 8.38625 10.5994 8.00005 10.5994C7.61386 10.5994 7.30078 10.9124 7.30078 11.2986C7.30078 11.6848 7.61386 11.9979 8.00005 11.9979Z" fill="#3F465C"/>
</svg>
