<svg width="16" height="16" viewBox="0 0 16 16" fill="none" xmlns="http://www.w3.org/2000/svg">
<path fill-rule="evenodd" clip-rule="evenodd" d="M15.3333 7.66667C15.3333 11.3486 12.1247 14.3333 8.16667 14.3333C7.20734 14.3333 6.29204 14.158 5.45578 13.8399L2.8499 14.228C2.61307 14.2632 2.41741 14.0448 2.47849 13.8132L2.90576 12.1938C1.72292 11.0049 1 9.41433 1 7.66667C1 3.98477 4.20863 1 8.16667 1C12.1247 1 15.3333 3.98477 15.3333 7.66667ZM5.33222 6.45984C5.4109 6.20925 5.64822 6.04287 5.91062 6.05432C6.29117 6.07094 6.55256 6.44377 6.43845 6.80718L5.86783 8.62454C5.78915 8.87513 5.55183 9.04152 5.28943 9.03006C4.90888 9.01344 4.64749 8.64062 4.7616 8.2772L5.33222 6.45984ZM11.2442 6.05432C10.9818 6.04287 10.7445 6.20925 10.6658 6.45984L10.0952 8.2772C9.98109 8.64062 10.2425 9.01344 10.623 9.03006C10.8854 9.04152 11.1227 8.87513 11.2014 8.62454L11.772 6.80718C11.8862 6.44377 11.6248 6.07094 11.2442 6.05432ZM7.99941 6.45984C8.07809 6.20925 8.31541 6.04287 8.57781 6.05432C8.95836 6.07094 9.21975 6.44377 9.10564 6.80718L8.53502 8.62454C8.45634 8.87513 8.21902 9.04152 7.95662 9.03006C7.57607 9.01344 7.31468 8.64062 7.42879 8.2772L7.99941 6.45984Z" fill="#3F465C"/>
</svg>
