<svg width="16" height="16" viewBox="0 0 16 16" fill="none" xmlns="http://www.w3.org/2000/svg">
<path d="M14 2.5L3 13.3333" stroke="#3F465C" stroke-linecap="round"/>
<path fill-rule="evenodd" clip-rule="evenodd" d="M5.45751 13.0151C6.18846 13.318 7.03274 13.5 8 13.5C10.1568 13.5 11.7021 12.595 12.743 11.4635C13.7717 10.3454 14.3082 9.00833 14.4903 8.09806L14.5099 8L14.4903 7.90194C14.3465 7.18319 13.9818 6.19836 13.3282 5.2653L12.604 5.97838C13.0818 6.70054 13.3637 7.44453 13.4888 8C13.3185 8.75631 12.8574 9.86212 12.007 10.7865C11.1313 11.7384 9.84324 12.5 8 12.5C7.34776 12.5 6.76504 12.4046 6.24551 12.2392L5.45751 13.0151ZM5.26007 11.8061C4.7647 11.5219 4.34544 11.1696 3.99296 10.7865C3.14256 9.86212 2.68151 8.75631 2.51116 8C2.68151 7.24369 3.14256 6.13788 3.99296 5.21353C4.86872 4.26162 6.15676 3.5 8 3.5C9.82607 3.5 11.1072 4.2475 11.9825 5.18698L12.6952 4.48514C11.655 3.37779 10.124 2.5 8 2.5C5.84324 2.5 4.29795 3.40504 3.25703 4.53647C2.22831 5.65465 1.69176 6.99167 1.50971 7.90194L1.4901 8L1.50971 8.09806C1.69176 9.00833 2.22831 10.3454 3.25703 11.4635C3.61769 11.8555 4.03889 12.2204 4.5251 12.5298L5.26007 11.8061ZM8.01188 10.5C9.37025 10.4937 10.4727 9.40399 10.4995 8.05056L8.01188 10.5ZM10.2447 6.89807C9.83736 6.06992 8.98523 5.5 8 5.5C6.61929 5.5 5.5 6.61929 5.5 8C5.5 8.97146 6.0541 9.81351 6.86349 10.2273L7.64507 9.45776C6.98795 9.29833 6.5 8.70615 6.5 8C6.5 7.17157 7.17157 6.5 8 6.5C8.71422 6.5 9.31186 6.99918 9.46306 7.66768L10.2447 6.89807Z" fill="#3F465C"/>
</svg>
