<svg width="16" height="16" viewBox="0 0 16 16" fill="none" xmlns="http://www.w3.org/2000/svg">
<mask id="path-1-inside-1_5124_53512" fill="white">
<path d="M12 4H13.2C14.3046 4 15.2 4.89543 15.2 6C15.2 7.10457 14.3046 8 13.2 8H12V4Z"/>
</mask>
<path d="M12 4V3H11V4H12ZM12 8H11V9H12V8ZM12 5H13.2V3H12V5ZM13.2 7H12V9H13.2V7ZM13 8V4H11V8H13ZM14.2 6C14.2 6.55228 13.7523 7 13.2 7V9C14.8569 9 16.2 7.65685 16.2 6H14.2ZM13.2 5C13.7523 5 14.2 5.44772 14.2 6H16.2C16.2 4.34315 14.8569 3 13.2 3V5Z" fill="#3F465C" mask="url(#path-1-inside-1_5124_53512)"/>
<path d="M12.57 4.5H13.07V4H12.57V4.5ZM3.33117 5H12.57V4H3.33117V5ZM12.07 4.5V6.995H13.07V4.5H12.07ZM3.39999 6.995V4.93118H2.39999V6.995H3.39999ZM7.73499 11.33C5.34084 11.33 3.39999 9.38915 3.39999 6.995H2.39999C2.39999 9.94144 4.78855 12.33 7.73499 12.33V11.33ZM12.07 6.995C12.07 9.38915 10.1291 11.33 7.73499 11.33V12.33C10.6814 12.33 13.07 9.94144 13.07 6.995H12.07ZM3.33117 4C2.8169 4 2.39999 4.4169 2.39999 4.93118H3.39999C3.39999 4.96919 3.36918 5 3.33117 5V4Z" fill="#3F465C"/>
<path d="M4.40039 1.91992V2.87992" stroke="#3F465C" stroke-linecap="round"/>
<path d="M8.06641 1.91992V2.87992" stroke="#3F465C" stroke-linecap="round"/>
<path d="M11.4004 1.91992V2.87992" stroke="#3F465C" stroke-linecap="round"/>
<path d="M2.61328 14L13.0133 14" stroke="#3F465C" stroke-linecap="round"/>
</svg>
