<!-- <svg width="78" height="78" viewBox="0 0 78 78" fill="none" xmlns="http://www.w3.org/2000/svg">
<path fill-rule="evenodd" clip-rule="evenodd" d="M39.5 35.4518C41.6547 33.9058 44.0423 33.943 45 34.038V42.4016C45 42.4024 44.9999 42.4029 44.9998 42.4034C44.9997 42.4037 44.9996 42.404 44.9995 42.4044C44.999 42.4056 44.9977 42.408 44.9949 42.4109C44.9888 42.4172 44.9807 42.4209 44.9721 42.4214C43.9874 42.4803 41.704 42.7182 39.5 43.7002V35.4518ZM39 34.5805C41.4585 32.8606 44.1371 32.941 45.1495 33.0481C45.6643 33.1026 46 33.542 46 34.0112V42.4016C46 42.9541 45.5596 43.3881 45.0318 43.4196C43.9843 43.4823 41.4567 43.7579 39.2361 44.9407C39.0895 45.0193 38.9127 45.02 38.7649 44.9412C36.5441 43.758 34.0159 43.4823 32.9682 43.4196C32.4404 43.3881 32 42.9541 32 42.4016V34.0112C32 33.542 32.3358 33.1026 32.8505 33.0481C33.8629 32.941 36.5415 32.8606 39 34.5805ZM38.5 43.7002V35.4518C36.3453 33.9058 33.9577 33.943 33 34.038V42.4016C33 42.4029 33.0002 42.4035 33.0005 42.4044C33.001 42.4056 33.0023 42.408 33.0051 42.4109C33.0112 42.4172 33.0193 42.4209 33.0279 42.4214C34.0126 42.4803 36.296 42.7182 38.5 43.7002Z" fill="#3F465C"/>
</svg> -->
<svg xmlns="http://www.w3.org/2000/svg" width="14" height="14" viewBox="0 0 14 14" fill="none">
<path d="M7 3.67537C9.0894 2.07015 11.456 2.13425 12.3347 2.22723C12.5418 2.24915 12.6875 2.42656 12.6875 2.63482V9.97645C12.6875 10.2181 12.4929 10.4161 12.2517 10.4305C11.3143 10.4866 9.02676 10.7327 7 11.8125" stroke="#8D92A1" stroke-width="0.875" stroke-linejoin="round"/>
<path d="M7 3.67537C4.9106 2.07015 2.54402 2.13425 1.66526 2.22723C1.45816 2.24915 1.3125 2.42656 1.3125 2.63482V9.97645C1.3125 10.2181 1.50707 10.4161 1.74827 10.4305C2.68568 10.4866 4.97324 10.7327 7 11.8125C6.99993 10.4139 6.99994 6.11604 7 3.67537Z" stroke="#8D92A1" stroke-width="0.875" stroke-linejoin="round"/>
</svg>
