<svg width="16" height="16" viewBox="0 0 16 16" fill="none" xmlns="http://www.w3.org/2000/svg">
<path d="M5.5 10H10.5V9H5.5V10ZM13 12.5V13H14V12.5H13ZM12.5 13.5H3.5V14.5H12.5V13.5ZM3 13V12.5H2V13H3ZM3.5 13.5C3.22386 13.5 3 13.2761 3 13H2C2 13.8284 2.67157 14.5 3.5 14.5V13.5ZM13 13C13 13.2761 12.7761 13.5 12.5 13.5V14.5C13.3284 14.5 14 13.8284 14 13H13ZM10.5 10C11.8807 10 13 11.1193 13 12.5H14C14 10.567 12.433 9 10.5 9V10ZM5.5 9C3.567 9 2 10.567 2 12.5H3C3 11.1193 4.11929 10 5.5 10V9Z" fill="#3F465C"/>
<circle cx="8" cy="5" r="2.5" stroke="#3F465C"/>
</svg>
