<svg width="16" height="16" viewBox="0 0 16 16" fill="none" xmlns="http://www.w3.org/2000/svg">
<path fill-rule="evenodd" clip-rule="evenodd" d="M8 13C8.41421 13 8.75 12.6642 8.75 12.25C8.75 11.8358 8.41421 11.5 8 11.5C7.58579 11.5 7.25 11.8358 7.25 12.25C7.25 12.6642 7.58579 13 8 13Z" fill="#4C6AFF"/>
<path fill-rule="evenodd" clip-rule="evenodd" d="M7.40387 10.7343C7.58675 10.655 7.78855 10.6109 8.00063 10.6109C8.43542 10.6109 8.82701 10.7959 9.10098 11.0915C9.21205 11.2113 9.40597 11.2371 9.52151 11.1216L10.144 10.4991C10.2285 10.4146 10.2423 10.2812 10.1684 10.1872C9.82348 9.74836 9.34906 9.41612 8.80272 9.24805L7.40387 10.7343Z" fill="#4C6AFF"/>
<path fill-rule="evenodd" clip-rule="evenodd" d="M7.9693 6.48999C6.40146 6.49224 4.99967 7.15207 4.01537 8.21681C3.88546 8.35734 3.89861 8.57443 4.03544 8.70824L4.6495 9.30875C4.80499 9.4608 5.05671 9.44551 5.20971 9.29095C5.39093 9.10789 5.59179 8.93788 5.80812 8.78627L7.9693 6.48999ZM9.59722 8.40371C10.0411 8.60736 10.4345 8.8978 10.7651 9.26332C10.9151 9.42929 11.175 9.45517 11.3375 9.30136L11.9174 8.75251C12.0552 8.62208 12.073 8.40757 11.9478 8.26506C11.5985 7.86768 11.1798 7.51439 10.7022 7.22967L9.59722 8.40371Z" fill="#4C6AFF"/>
<path fill-rule="evenodd" clip-rule="evenodd" d="M10.3027 4.01078C9.57687 3.815 8.79969 3.71558 7.97736 3.71558C5.65919 3.71558 3.52403 4.71165 2.03148 6.26245C1.89476 6.40451 1.90379 6.62932 2.04495 6.76697L2.67786 7.38415C2.8293 7.53183 3.07288 7.52204 3.22132 7.37134C4.42778 6.14654 6.14147 5.28779 7.97736 5.28779C8.33803 5.28779 8.68923 5.31328 9.02974 5.36327L10.3027 4.01078ZM11.5685 6.30916C12.015 6.59927 12.4235 6.94775 12.7887 7.35017C12.934 7.51027 13.1838 7.52836 13.3409 7.37984L13.9523 6.80188C14.0923 6.66956 14.1079 6.45115 13.9811 6.30609C13.5191 5.77735 13.0017 5.32686 12.434 4.95711L12.6499 5.16024L11.5685 6.30916Z" fill="#4C6AFF"/>
<path fill-rule="evenodd" clip-rule="evenodd" d="M12.9519 2.94606C13.2254 3.20345 13.2384 3.63381 12.981 3.90729L5.6888 11.6554C5.43141 11.9289 5.00105 11.9419 4.72757 11.6845C4.45409 11.4271 4.44105 10.9968 4.69844 10.7233L11.9907 2.9752C12.2481 2.70172 12.6784 2.68867 12.9519 2.94606Z" fill="#4C6AFF"/>
</svg>
