<svg width="16" height="16" viewBox="0 0 16 16" fill="none" xmlns="http://www.w3.org/2000/svg">
<mask id="path-1-inside-1_5124_53882" fill="white">
<path d="M4.21028 9.94808L1.14637 6.96151C0.849614 6.67225 1.01337 6.16826 1.42348 6.10867L5.65769 5.4934L7.55129 1.65654C7.73469 1.28492 8.26462 1.28492 8.44802 1.65654L10.3416 5.4934L14.5758 6.10867C14.9859 6.16826 15.1497 6.67225 14.8529 6.96152L11.789 9.94808L12.5123 14.1652C12.5824 14.5736 12.1537 14.8851 11.7869 14.6923L7.99966 12.7012L4.21247 14.6923C3.84566 14.8851 3.41694 14.5736 3.48699 14.1652L4.21028 9.94808Z"/>
</mask>
<path d="M4.21028 9.94808L1.14637 6.96151C0.849614 6.67225 1.01337 6.16826 1.42348 6.10867L5.65769 5.4934L7.55129 1.65654C7.73469 1.28492 8.26462 1.28492 8.44802 1.65654L10.3416 5.4934L14.5758 6.10867C14.9859 6.16826 15.1497 6.67225 14.8529 6.96152L11.789 9.94808L12.5123 14.1652C12.5824 14.5736 12.1537 14.8851 11.7869 14.6923L7.99966 12.7012L4.21247 14.6923C3.84566 14.8851 3.41694 14.5736 3.48699 14.1652L4.21028 9.94808Z" fill="#3F465C"/>
<path d="M1.14637 6.96151L0.448361 7.6776L1.14637 6.96151ZM4.21028 9.94808L5.19589 10.1171L5.28476 9.59896L4.90829 9.232L4.21028 9.94808ZM5.65769 5.4934L5.80149 6.48301L6.32175 6.40741L6.55442 5.93596L5.65769 5.4934ZM1.42348 6.10867L1.27968 5.11906L1.42348 6.10867ZM7.55129 1.65654L8.44802 2.09911L8.44802 2.09911L7.55129 1.65654ZM10.3416 5.4934L9.44489 5.93596L9.67756 6.40741L10.1978 6.48301L10.3416 5.4934ZM8.44802 1.65654L9.34476 1.21398V1.21398L8.44802 1.65654ZM14.5758 6.10867L14.7196 5.11906L14.5758 6.10867ZM11.789 9.94808L11.091 9.23199L10.7145 9.59896L10.8034 10.1171L11.789 9.94808ZM14.8529 6.96152L14.1549 6.24543L14.8529 6.96152ZM12.5123 14.1652L11.5267 14.3342V14.3342L12.5123 14.1652ZM7.99966 12.7012L8.465 11.8161L7.99966 11.5714L7.53431 11.8161L7.99966 12.7012ZM11.7869 14.6923L12.2522 13.8071L11.7869 14.6923ZM4.21247 14.6923L4.67782 15.5774L4.67782 15.5774L4.21247 14.6923ZM3.48699 14.1652L2.50139 13.9961L3.48699 14.1652ZM0.448361 7.6776L3.51227 10.6642L4.90829 9.232L1.84438 6.24543L0.448361 7.6776ZM5.51389 4.50379L1.27968 5.11906L1.56728 7.09828L5.80149 6.48301L5.51389 4.50379ZM6.65455 1.21398L4.76095 5.05083L6.55442 5.93596L8.44802 2.09911L6.65455 1.21398ZM11.2384 5.05083L9.34476 1.21398L7.55129 2.09911L9.44489 5.93596L11.2384 5.05083ZM14.7196 5.11906L10.4854 4.50379L10.1978 6.48301L14.432 7.09828L14.7196 5.11906ZM12.487 10.6642L15.5509 7.67761L14.1549 6.24543L11.091 9.23199L12.487 10.6642ZM13.4979 13.9961L12.7746 9.77903L10.8034 10.1171L11.5267 14.3342L13.4979 13.9961ZM7.53431 13.5863L11.3215 15.5774L12.2522 13.8071L8.465 11.8161L7.53431 13.5863ZM4.67782 15.5774L8.465 13.5863L7.53431 11.8161L3.74713 13.8071L4.67782 15.5774ZM3.22467 9.77904L2.50139 13.9961L4.4726 14.3342L5.19589 10.1171L3.22467 9.77904ZM3.74713 13.8071C4.11394 13.6143 4.54266 13.9258 4.4726 14.3342L2.50139 13.9961C2.29122 15.2215 3.57737 16.1559 4.67782 15.5774L3.74713 13.8071ZM11.5267 14.3342C11.4567 13.9258 11.8854 13.6143 12.2522 13.8071L11.3215 15.5774C12.422 16.1559 13.7081 15.2215 13.4979 13.9961L11.5267 14.3342ZM14.432 7.09828C14.0219 7.03868 13.8582 6.5347 14.1549 6.24543L15.5509 7.67761C16.4412 6.8098 15.95 5.29784 14.7196 5.11906L14.432 7.09828ZM8.44802 2.09911C8.26462 2.47073 7.7347 2.47073 7.55129 2.09911L9.34476 1.21398C8.79454 0.099103 7.20477 0.0991094 6.65455 1.21398L8.44802 2.09911ZM1.84438 6.24543C2.14114 6.53469 1.97739 7.03868 1.56728 7.09828L1.27968 5.11906C0.0493447 5.29784 -0.441911 6.8098 0.448361 7.6776L1.84438 6.24543Z" fill="#3F465C" mask="url(#path-1-inside-1_5124_53882)"/>
</svg>
