<svg width="16" height="16" viewBox="0 0 16 16" fill="none" xmlns="http://www.w3.org/2000/svg">
<path fill-rule="evenodd" clip-rule="evenodd" d="M8 9.5C8 9.22386 7.77614 9 7.5 9H5.5C3.567 9 2 10.567 2 12.5V13C2 13.8284 2.67157 14.5 3.5 14.5H7.5C7.77614 14.5 8 14.2761 8 14C8 13.7239 7.77614 13.5 7.5 13.5H3.5C3.22386 13.5 3 13.2761 3 13V12.5C3 11.1193 4.11929 10 5.5 10H7.5C7.77614 10 8 9.77614 8 9.5Z" fill="#3F465C"/>
<circle cx="8" cy="5" r="2.5" stroke="#3F465C"/>
<path fill-rule="evenodd" clip-rule="evenodd" d="M9.61971 12.1268C9.57329 11.8777 9.57329 11.6223 9.61971 11.3732L9.11357 11.0834C9.00483 11.0211 8.96764 10.8822 9.03072 10.7739L9.49723 9.97319C9.55965 9.86606 9.69681 9.82934 9.8044 9.89096L10.3135 10.1825C10.5063 10.0189 10.729 9.89031 10.9725 9.80438V9.22569C10.9725 9.10105 11.0736 9 11.1982 9H12.1343C12.259 9 12.36 9.10105 12.36 9.22569V9.80438C12.6035 9.89031 12.8262 10.0189 13.0191 10.1825L13.5281 9.89096C13.6357 9.82934 13.7729 9.86606 13.8353 9.97319L14.3018 10.7739C14.3649 10.8822 14.3277 11.0211 14.2189 11.0834L13.7128 11.3732C13.7592 11.6223 13.7592 11.8777 13.7128 12.1268L14.2189 12.4166C14.3277 12.4789 14.3649 12.6178 14.3018 12.7261L13.8353 13.5268C13.7729 13.6339 13.6357 13.6707 13.5281 13.609L13.0191 13.3175C12.8247 13.4827 12.6013 13.6109 12.36 13.6956V14.2743C12.36 14.399 12.259 14.5 12.1343 14.5H11.1982C11.0736 14.5 10.9725 14.399 10.9725 14.2743V13.6956C10.7312 13.6109 10.5078 13.4827 10.3135 13.3175L9.8044 13.609C9.69681 13.6707 9.55965 13.6339 9.49723 13.5268L9.03072 12.7261C8.96764 12.6178 9.00484 12.4789 9.11357 12.4166L9.61971 12.1268ZM11.6663 12.4375C11.8486 12.4375 12.0235 12.3651 12.1524 12.2361C12.2813 12.1072 12.3538 11.9323 12.3538 11.75C12.3538 11.5677 12.2813 11.3928 12.1524 11.2639C12.0235 11.1349 11.8486 11.0625 11.6663 11.0625C11.4839 11.0625 11.3091 11.1349 11.1801 11.2639C11.0512 11.3928 10.9788 11.5677 10.9788 11.75C10.9788 11.9323 11.0512 12.1072 11.1801 12.2361C11.3091 12.3651 11.4839 12.4375 11.6663 12.4375Z" fill="#3F465C"/>
</svg>
