<svg width="16" height="16" viewBox="0 0 16 16" fill="none" xmlns="http://www.w3.org/2000/svg">
<path d="M2.5 7.2C2.22386 7.2 2 7.42386 2 7.7C2 7.97614 2.22386 8.2 2.5 8.2V7.2ZM5.3 4.5L5.7777 4.35235C5.7153 4.15045 5.5327 4.00958 5.32157 4.00047C5.11044 3.99135 4.91638 4.11595 4.8368 4.31172L5.3 4.5ZM7 10L6.5223 10.1477C6.58613 10.3542 6.77541 10.4963 6.99152 10.4999C7.20763 10.5036 7.40162 10.368 7.47242 10.1638L7 10ZM9.6 2.5L10.0696 2.3284C9.99705 2.12976 9.80733 1.99826 9.59585 2.00002C9.38436 2.00177 9.19686 2.1364 9.12758 2.33623L9.6 2.5ZM13.5 8.2C13.7761 8.2 14 7.97614 14 7.7C14 7.42386 13.7761 7.2 13.5 7.2V8.2ZM11.492 7.67811L11.0224 7.8497L11.492 7.67811ZM4.00772 7.67922L4.47091 7.8675L4.00772 7.67922ZM2.5 8.2H3.97684V7.2H2.5V8.2ZM4.47091 7.8675L5.7632 4.68828L4.8368 4.31172L3.54452 7.49094L4.47091 7.8675ZM4.8223 4.64765L6.5223 10.1477L7.4777 9.85235L5.7777 4.35235L4.8223 4.64765ZM7.47242 10.1638L10.0724 2.66377L9.12758 2.33623L6.52758 9.83623L7.47242 10.1638ZM9.13037 2.6716L11.0224 7.8497L11.9616 7.50651L10.0696 2.3284L9.13037 2.6716ZM11.5233 8.2H13.5V7.2H11.5233V8.2ZM11.0224 7.8497C11.0992 8.06007 11.2993 8.2 11.5233 8.2V7.2C11.7193 7.2 11.8944 7.32244 11.9616 7.50651L11.0224 7.8497ZM3.97684 8.2C4.19384 8.2 4.3892 8.06852 4.47091 7.8675L3.54452 7.49094C3.61602 7.31504 3.78696 7.2 3.97684 7.2V8.2Z" fill="#3F465C"/>
<path d="M2.5 13H13.5" stroke="#3F465C" stroke-linecap="round"/>
</svg>
