<svg width="16" height="16" viewBox="0 0 16 16" fill="none" xmlns="http://www.w3.org/2000/svg">
<path d="M8.59378 8.98324C11.9075 8.98324 14 10.1191 14 11.4998C14 12.8805 11.3137 13.9998 8 13.9998C4.68629 13.9998 2 12.8805 2 11.4998C2 10.5745 2.62131 9.93929 4.41472 9.50703" stroke="#3F465C" stroke-linecap="round"/>
<path d="M7.29432 12L6.19631 8.82267M6.19631 8.82267L4.00024 2.46784C4.78445 2.1148 6.72935 1.62054 8.23532 2.46784C9.74129 3.31514 11.3728 2.82092 12.0002 2.46789C12 3.5 11.5 5.5 9 6C7.10793 6.37841 6.2485 8.11658 6.19631 8.82267Z" stroke="#3F465C" stroke-linecap="round"/>
</svg>
