<svg width="16" height="16" viewBox="0 0 16 16" fill="none" xmlns="http://www.w3.org/2000/svg">
<path fill-rule="evenodd" clip-rule="evenodd" d="M2.33333 1.99951C1.59695 1.99951 1 2.59647 1 3.33284V12.6662C1 13.4026 1.59695 13.9995 2.33333 13.9995H7.87463L7.8 13.9C7.45911 13.4455 7.40427 12.8374 7.65836 12.3292C7.71883 12.2082 7.79432 12.0979 7.88192 12C7.64442 11.7346 7.5 11.3842 7.5 11C7.5 10.1716 8.17157 9.5 9 9.5H10.9187C10.7157 8.92546 10.8775 8.26061 11.3731 7.84767C12.0095 7.31732 12.9553 7.40331 13.4857 8.03972L15 9.85692V3.33284C15 2.59647 14.403 1.99951 13.6667 1.99951H2.33333ZM12.7708 4.42042C13.0006 4.26724 13.0627 3.95681 12.9095 3.72704C12.7563 3.49728 12.4459 3.43519 12.2161 3.58837L8.16638 6.28819C8.06561 6.35537 7.93433 6.35537 7.83356 6.28819L3.78754 3.59084C3.55778 3.43766 3.24734 3.49975 3.09417 3.72951C2.94099 3.95928 3.00308 4.26971 3.23284 4.42289L7.27886 7.12024C7.71553 7.41135 8.28441 7.41135 8.72108 7.12024L12.7708 4.42042Z" fill="#3F465C"/>
<path d="M12.3333 9L14 11H9" stroke="#3F465C" stroke-linecap="round" stroke-linejoin="round"/>
<path d="M10.5 15L9 13L14 13" stroke="#3F465C" stroke-linecap="round" stroke-linejoin="round"/>
</svg>
