<svg width="16" height="16" viewBox="0 0 16 16" fill="none" xmlns="http://www.w3.org/2000/svg">
<path d="M14.25 7V3.5C14.25 3.22386 14.0261 3 13.75 3H2.25C1.97386 3 1.75 3.22386 1.75 3.5V12.5C1.75 12.7761 1.97267 13 2.24881 13C3.2332 13 5.50365 13 7.5 13" stroke="#3F465C" stroke-linecap="round"/>
<path d="M2 3L7.55624 6.70416C7.82496 6.88331 8.17504 6.88331 8.44376 6.70416L14 3" stroke="#3F465C"/>
<circle cx="12.5" cy="11.5" r="2.5" stroke="#3F465C"/>
<path d="M14.9961 13.2893C14.8009 13.094 14.4843 13.094 14.289 13.2893C14.0938 13.4845 14.0938 13.8011 14.289 13.9964L14.9961 13.2893ZM15.0668 14.7742C15.2621 14.9695 15.5787 14.9695 15.7739 14.7742C15.9692 14.5789 15.9692 14.2623 15.7739 14.0671L15.0668 14.7742ZM14.289 13.9964L15.0668 14.7742L15.7739 14.0671L14.9961 13.2893L14.289 13.9964Z" fill="#3F465C"/>
</svg>
