<svg width="16" height="16" viewBox="0 0 16 16" fill="none" xmlns="http://www.w3.org/2000/svg">
<mask id="path-1-inside-1_5124_53711" fill="white">
<path d="M10.9004 8C10.9004 12.4254 8.0002 15 8.0002 15C8.0002 15 5.10001 12.3868 5.10001 8C5.10001 3.62939 8.0002 1 8.0002 1C8.0002 1 10.9004 3.5 10.9004 8Z"/>
</mask>
<path d="M8.0002 15L7.33081 15.7429L7.99524 16.3416L8.66408 15.7478L8.0002 15ZM8.0002 1L8.65312 0.242568L7.98349 -0.334654L7.32853 0.259151L8.0002 1ZM9.9004 8C9.9004 9.98749 9.25017 11.5599 8.59501 12.6414C8.26744 13.1821 7.94119 13.5955 7.70101 13.8698C7.58116 14.0067 7.48349 14.1081 7.41888 14.1725C7.38659 14.2046 7.36265 14.2275 7.34841 14.2409C7.34129 14.2475 7.33661 14.2518 7.33454 14.2537C7.3335 14.2547 7.33312 14.255 7.33341 14.2548C7.33355 14.2546 7.33387 14.2543 7.33435 14.2539C7.33459 14.2537 7.33488 14.2534 7.33521 14.2531C7.33537 14.253 7.33565 14.2528 7.33573 14.2527C7.33602 14.2524 7.33633 14.2522 8.0002 15C8.66408 15.7478 8.6644 15.7476 8.66473 15.7473C8.66486 15.7471 8.66521 15.7468 8.66546 15.7466C8.66596 15.7462 8.66651 15.7457 8.66711 15.7451C8.66829 15.7441 8.66966 15.7429 8.6712 15.7415C8.67428 15.7387 8.67805 15.7353 8.6825 15.7312C8.69141 15.7231 8.70301 15.7124 8.71713 15.6991C8.74538 15.6726 8.78374 15.6359 8.83076 15.589C8.92475 15.4953 9.05366 15.361 9.2057 15.1873C9.50931 14.8406 9.90811 14.3338 10.3056 13.6777C11.1005 12.3655 11.9004 10.4379 11.9004 8H9.9004ZM8.0002 15C8.66959 14.2571 8.66989 14.2574 8.67017 14.2576C8.67025 14.2577 8.67052 14.2579 8.67068 14.2581C8.67099 14.2584 8.67127 14.2586 8.6715 14.2588C8.67196 14.2592 8.67225 14.2595 8.67237 14.2596C8.67261 14.2598 8.67218 14.2594 8.6711 14.2584C8.66893 14.2564 8.66415 14.252 8.65694 14.2451C8.6425 14.2314 8.61836 14.208 8.58588 14.1752C8.52087 14.1096 8.42279 14.0067 8.30254 13.868C8.06154 13.5901 7.73452 13.1724 7.40632 12.6284C6.74944 11.5398 6.10001 9.96698 6.10001 8H4.10001C4.10001 10.4198 4.90067 12.347 5.69389 13.6617C6.09073 14.3194 6.48876 14.8291 6.79156 15.1783C6.94319 15.3532 7.0717 15.4886 7.16529 15.583C7.21211 15.6303 7.25027 15.6674 7.27832 15.6941C7.29235 15.7074 7.30386 15.7182 7.31267 15.7263C7.31707 15.7304 7.3208 15.7338 7.32383 15.7366C7.32534 15.738 7.32669 15.7392 7.32785 15.7402C7.32843 15.7408 7.32897 15.7412 7.32946 15.7417C7.32971 15.7419 7.33005 15.7422 7.33017 15.7423C7.33049 15.7426 7.33081 15.7429 8.0002 15ZM6.10001 8C6.10001 6.04161 6.74911 4.46869 7.4067 3.377C7.73517 2.8317 8.06251 2.4122 8.30384 2.13279C8.42426 1.99336 8.5225 1.88971 8.58768 1.8236C8.62024 1.79057 8.64447 1.767 8.65898 1.75312C8.66623 1.74618 8.67105 1.74166 8.67326 1.73961C8.67436 1.73858 8.67481 1.73817 8.67459 1.73837C8.67448 1.73848 8.6742 1.73873 8.67375 1.73915C8.67352 1.73935 8.67325 1.7396 8.67294 1.73988C8.67278 1.74002 8.67252 1.74026 8.67244 1.74034C8.67216 1.74059 8.67187 1.74085 8.0002 1C7.32853 0.259151 7.32822 0.259433 7.3279 0.259725C7.32778 0.259835 7.32744 0.260138 7.3272 0.26036C7.32671 0.260804 7.32618 0.26129 7.3256 0.261817C7.32445 0.26287 7.32311 0.264089 7.32161 0.265472C7.3186 0.268239 7.31489 0.271664 7.3105 0.275744C7.30174 0.283905 7.29027 0.294691 7.27628 0.308076C7.24831 0.33484 7.21023 0.372031 7.16349 0.419437C7.07006 0.514197 6.94172 0.650106 6.79025 0.825479C6.4878 1.17566 6.09009 1.68666 5.69351 2.34504C4.901 3.6607 4.10001 5.58778 4.10001 8H6.10001ZM8.0002 1C7.34729 1.75743 7.34697 1.75716 7.34666 1.75689C7.34657 1.75682 7.34628 1.75656 7.3461 1.75641C7.34575 1.7561 7.34544 1.75583 7.34517 1.7556C7.34464 1.75514 7.34428 1.75483 7.34409 1.75466C7.3437 1.75432 7.34399 1.75457 7.34493 1.75541C7.34681 1.75708 7.3513 1.76108 7.35823 1.76741C7.37208 1.78006 7.39563 1.80197 7.42751 1.83298C7.49133 1.89507 7.58819 1.99335 7.70724 2.12675C7.94577 2.39405 8.2705 2.79917 8.59681 3.33361C9.24865 4.4012 9.9004 5.97289 9.9004 8H11.9004C11.9004 5.52711 11.102 3.5988 10.3038 2.29139C9.90505 1.63833 9.50473 1.1372 9.19948 0.795125C9.04663 0.623842 8.91691 0.491647 8.82213 0.399438C8.77471 0.353308 8.73595 0.317105 8.70732 0.290942C8.693 0.277858 8.6812 0.267277 8.67211 0.259212C8.66756 0.255179 8.66369 0.251775 8.66052 0.249001C8.65893 0.247614 8.65752 0.246384 8.65629 0.245312C8.65567 0.244776 8.6551 0.244279 8.65457 0.243822C8.6543 0.243593 8.65394 0.243279 8.65381 0.243165C8.65346 0.242862 8.65312 0.242568 8.0002 1Z" fill="#3F465C" mask="url(#path-1-inside-1_5124_53711)"/>
<circle cx="8" cy="8" r="6.5" stroke="#3F465C"/>
<path d="M1 8H15" stroke="#3F465C"/>
</svg>
