<svg width="16" height="16" viewBox="0 0 16 16" fill="none" xmlns="http://www.w3.org/2000/svg">
<path d="M9.3125 12L10.7708 13.5313L13.6875 10.4688" stroke="#3F465C" stroke-linecap="round" stroke-linejoin="round"/>
<path fill-rule="evenodd" clip-rule="evenodd" d="M8 9.5C8 9.22386 7.77614 9 7.5 9H5.5C3.567 9 2 10.567 2 12.5V13C2 13.8284 2.67157 14.5 3.5 14.5H7.5C7.77614 14.5 8 14.2761 8 14C8 13.7239 7.77614 13.5 7.5 13.5H3.5C3.22386 13.5 3 13.2761 3 13V12.5C3 11.1193 4.11929 10 5.5 10H7.5C7.77614 10 8 9.77614 8 9.5Z" fill="#3F465C"/>
<circle cx="8" cy="5" r="2.5" stroke="#3F465C"/>
</svg>
