<svg width="16" height="16" viewBox="0 0 16 16" fill="none" xmlns="http://www.w3.org/2000/svg">
<path d="M5 3.5H14M5 8H14M5 12.5H14" stroke="#3F465C" stroke-linecap="round"/>
<path d="M3 3.5C3 3.91421 2.66421 4.25 2.25 4.25C1.83579 4.25 1.5 3.91421 1.5 3.5C1.5 3.08579 1.83579 2.75 2.25 2.75C2.66421 2.75 3 3.08579 3 3.5Z" fill="#3F465C"/>
<path d="M3 8C3 8.41421 2.66421 8.75 2.25 8.75C1.83579 8.75 1.5 8.41421 1.5 8C1.5 7.58579 1.83579 7.25 2.25 7.25C2.66421 7.25 3 7.58579 3 8Z" fill="#3F465C"/>
<path d="M2.99999 12.5C2.99999 12.9142 2.6642 13.25 2.24999 13.25C1.83577 13.25 1.49999 12.9142 1.49999 12.5C1.49999 12.0858 1.83577 11.75 2.24999 11.75C2.6642 11.75 2.99999 12.0858 2.99999 12.5Z" fill="#3F465C"/>
</svg>
