<svg width="16" height="16" viewBox="0 0 16 16" fill="none" xmlns="http://www.w3.org/2000/svg">
<path d="M13.3333 8L15 10H10" stroke="#3F465C" stroke-linecap="round" stroke-linejoin="round"/>
<path d="M11.5 14L10 12L15 12" stroke="#3F465C" stroke-linecap="round" stroke-linejoin="round"/>
<path fill-rule="evenodd" clip-rule="evenodd" d="M2.00003 2C1.44775 2 1.00003 2.44772 1.00003 3V13C1.00003 13.5523 1.44775 14 2.00003 14H8.50003C8.77617 14 9.00003 13.7761 9.00003 13.5C9.00003 13.2239 8.77617 13 8.50003 13H2.00003V3.60095L7.27889 7.12018C7.71556 7.4113 8.28444 7.4113 8.72111 7.12018L14 3.60091V6.5C14 6.77614 14.2239 7 14.5 7C14.7762 7 15 6.77614 15 6.5V3C15 2.44772 14.5523 2 14 2H2.00003ZM14 3.00005V3H14L14 3.00005ZM13.0986 3L2.90139 3L7.83359 6.28813C7.93436 6.35531 8.06564 6.35531 8.16641 6.28813L13.0986 3Z" fill="#3F465C"/>
</svg>
