<svg width="16" height="16" viewBox="0 0 16 16" fill="none" xmlns="http://www.w3.org/2000/svg">
<path d="M6.9998 4.5879V5.3239H7.4798C7.6718 5.8359 7.95981 6.2679 8.3518 6.6199C7.8238 6.8359 7.1918 7.0119 6.4638 7.1559L6.8558 7.8519C7.7358 7.6679 8.4798 7.4279 9.0878 7.1319C9.66381 7.4519 10.3838 7.6599 11.2638 7.7639L11.5598 7.0359C10.9118 6.9719 10.3518 6.8439 9.87181 6.6679C10.3998 6.2759 10.7518 5.8119 10.9358 5.2759V4.5879H6.9998ZM8.2958 5.3239H10.0638C9.84781 5.6759 9.5198 5.9799 9.0878 6.2519C8.73581 5.9959 8.47181 5.6919 8.2958 5.3239ZM7.2318 8.2199V8.9719H8.6478V9.6599H6.8878V10.4439H8.6478V11.7639H9.4798V10.4439H11.3918V9.6599H9.4798V8.9719H10.9998V8.2199H9.4798V7.5879H8.6478V8.2199H7.2318ZM5.2238 4.3799L4.6318 4.9559C5.1998 5.3719 5.6398 5.7639 5.9438 6.1319L6.5198 5.5479C6.1598 5.1639 5.7278 4.7719 5.2238 4.3799ZM4.1038 6.6919V7.4919H5.1678V10.2999C5.1678 10.4839 5.0878 10.6359 4.9438 10.7639L5.2638 11.5159C5.7998 11.1079 6.3118 10.6439 6.7918 10.1319L6.5678 9.2439C6.3598 9.4679 6.1678 9.6839 5.9758 9.8839V6.6919H4.1038Z" fill="#3F465C"/>
<rect x="2.5" y="2.5" width="11" height="11" rx="0.5" stroke="#3F465C" stroke-linecap="round"/>
</svg>
