<svg width="16" height="16" viewBox="0 0 16 16" fill="none" xmlns="http://www.w3.org/2000/svg">
<path fill-rule="evenodd" clip-rule="evenodd" d="M8.00018 5.16382C8.00018 4.88768 7.77633 4.66382 7.50018 4.66382C7.22404 4.66382 7.00018 4.88768 7.00018 5.16382V8.49707V8.49715C7.00018 8.77329 7.22404 8.99715 7.50018 8.99715C7.50322 8.99715 7.50625 8.99712 7.50928 8.99707H10.8335C11.1097 8.99707 11.3335 8.77321 11.3335 8.49707C11.3335 8.22093 11.1097 7.99707 10.8335 7.99707H8.00018V5.16382Z" fill="#3F465C"/>
<path fill-rule="evenodd" clip-rule="evenodd" d="M1.4996 8C1.4996 4.41015 4.40975 1.5 7.9996 1.5C9.74631 1.5 11.3321 2.18933 12.4996 3.30962V2.33337C12.4996 2.05722 12.7235 1.83337 12.9996 1.83337C13.2757 1.83337 13.4996 2.05722 13.4996 2.33337V4.6667C13.4996 4.94284 13.2757 5.1667 12.9996 5.1667C12.9996 5.1667 12.9995 5.1667 12.9995 5.1667C12.9994 5.1667 12.9994 5.1667 12.9993 5.1667H10.666C10.3899 5.1667 10.166 4.94284 10.166 4.6667C10.166 4.39056 10.3899 4.1667 10.666 4.1667H11.9437C10.9439 3.13807 9.54633 2.5 7.9996 2.5C4.96203 2.5 2.4996 4.96244 2.4996 8C2.4996 11.0376 4.96203 13.5 7.9996 13.5C11.0372 13.5 13.4996 11.0376 13.4996 8C13.4996 7.72386 13.7235 7.5 13.9996 7.5C14.2757 7.5 14.4996 7.72386 14.4996 8C14.4996 11.5899 11.5895 14.5 7.9996 14.5C4.40975 14.5 1.4996 11.5899 1.4996 8Z" fill="#3F465C"/>
</svg>
