<svg width="16" height="16" viewBox="0 0 16 16" fill="none" xmlns="http://www.w3.org/2000/svg">
<path fill-rule="evenodd" clip-rule="evenodd" d="M2.5004 1.5C1.94811 1.5 1.5004 1.94772 1.5004 2.5V10.5C1.5004 11.0523 1.94811 11.5 2.5004 11.5H5.76186L5.03616 13.3143L4.76188 14H5.50039H10.5004H11.2389L10.9646 13.3143L10.2389 11.5H13.5004C14.0527 11.5 14.5004 11.0523 14.5004 10.5V2.5C14.5004 1.94772 14.0527 1.5 13.5004 1.5H2.5004ZM6.8389 11.5H9.16189L9.76188 13H6.23891L6.8389 11.5ZM9.83893 10.5H13.5004V2.5L2.5004 2.5V10.5H6.16186L6.16188 10.5H6.50039H9.50039H9.83891L9.83893 10.5Z" fill="#3F465C"/>
<rect x="3.5" y="13" width="9" height="1" rx="0.5" fill="#3F465C"/>
</svg>
