<svg width="16" height="16" viewBox="0 0 16 16" fill="none" xmlns="http://www.w3.org/2000/svg">
<path d="M8.19436 7.03083C7.9991 7.2261 7.9991 7.54268 8.19436 7.73794C8.38962 7.9332 8.7062 7.9332 8.90147 7.73794L8.19436 7.03083ZM8.90147 7.73794L13.8056 2.83378L13.0985 2.12667L8.19436 7.03083L8.90147 7.73794Z" fill="#3F465C"/>
<path d="M7 2.5H3C2.72386 2.5 2.5 2.72386 2.5 3V13C2.5 13.2761 2.72386 13.5 3 13.5H13C13.2761 13.5 13.5 13.2761 13.5 13V9M9.5 2.5H13C13.2761 2.5 13.5 2.72386 13.5 3V6.5" stroke="#3F465C" stroke-linecap="round"/>
</svg>
