<svg width="16" height="16" viewBox="0 0 16 16" fill="none" xmlns="http://www.w3.org/2000/svg">
<path d="M2 14.7639H14" stroke="#3F465C" stroke-linecap="round"/>
<path fill-rule="evenodd" clip-rule="evenodd" d="M11.2053 1.46308C10.8148 1.07253 10.1816 1.07253 9.79106 1.46308L2.59594 8.65862C2.42198 8.83259 2.31826 9.06459 2.30461 9.31024L2.13651 12.3362C2.12862 12.4782 2.1816 12.6169 2.28219 12.7174C2.38278 12.818 2.52145 12.871 2.66348 12.8631L5.68919 12.695C5.93486 12.6814 6.16687 12.5776 6.34084 12.4036L13.536 5.20807C13.9265 4.81755 13.9265 4.18441 13.536 3.79389L11.2053 1.46308ZM10.4982 2.17017L12.8289 4.50098L12.0184 5.31145L9.68774 2.98067L10.4982 2.17017ZM11.3114 6.01858L8.98065 3.68779L3.30307 9.36571L3.16597 11.8337L5.63372 11.6966L11.3114 6.01858Z" fill="#3F465C"/>
</svg>
