<svg width="16" height="16" viewBox="0 0 16 16" fill="none" xmlns="http://www.w3.org/2000/svg">
<path d="M4.5 6.5C4.5 6.77614 4.72386 7 5 7C5.27614 7 5.5 6.77614 5.5 6.5H4.5ZM10.5 6.5C10.5 6.77614 10.7239 7 11 7C11.2761 7 11.5 6.77614 11.5 6.5H10.5ZM5.5 6.5V5.05556H4.5V6.5H5.5ZM5.5 5.05556C5.5 3.63547 6.62791 2.5 8 2.5V1.5C6.05841 1.5 4.5 3.10056 4.5 5.05556H5.5ZM8 2.5C9.37209 2.5 10.5 3.63547 10.5 5.05556H11.5C11.5 3.10056 9.94159 1.5 8 1.5V2.5ZM10.5 5.05556V6.5H11.5V5.05556H10.5Z" fill="#3F465C"/>
<path d="M8.5 9C8.5 8.72386 8.27614 8.5 8 8.5C7.72386 8.5 7.5 8.72386 7.5 9H8.5ZM7.5 11C7.5 11.2761 7.72386 11.5 8 11.5C8.27614 11.5 8.5 11.2761 8.5 11H7.5ZM7.5 9V11H8.5V9H7.5Z" fill="#3F465C"/>
<rect x="3" y="6.5" width="10" height="7" rx="0.5" stroke="#3F465C"/>
</svg>
