<svg width="16" height="16" viewBox="0 0 16 16" fill="none" xmlns="http://www.w3.org/2000/svg">
<path d="M13 10L15 12M15 12L13 14M15 12H10" stroke="#3F465C" stroke-linecap="round" stroke-linejoin="round"/>
<path fill-rule="evenodd" clip-rule="evenodd" d="M2.00018 2C1.4479 2 1.00018 2.44772 1.00018 3V13C1.00018 13.5523 1.44789 14 2.00017 14L8.49993 14.0001C8.77607 14.0001 8.99993 13.7763 8.99994 13.5001C8.99994 13.224 8.77609 13.0001 8.49995 13.0001L2.00018 13V3.60105L7.27889 7.12018C7.71556 7.4113 8.28444 7.4113 8.72111 7.12018L14.0001 3.60083L13.9999 8.5001C13.9999 8.77624 14.2238 9.00011 14.4999 9.00012C14.7761 9.00013 14.9999 8.77628 14.9999 8.50014L15.0002 3.00004C15.0002 2.44774 14.5525 2 14.0002 2H2.00018ZM14.0002 3.00024V3H14L14.0002 3.00024ZM13.0986 3L2.90139 3L7.83359 6.28813C7.93436 6.35531 8.06564 6.35531 8.16641 6.28813L13.0986 3Z" fill="#3F465C"/>
</svg>
