<svg width="16" height="16" viewBox="0 0 16 16" fill="none" xmlns="http://www.w3.org/2000/svg">
<path d="M3 14H2.5C2.5 14.1801 2.5969 14.3463 2.75365 14.4351C2.9104 14.5239 3.10278 14.5214 3.25725 14.4287L3 14ZM13 14L12.7428 14.4287C12.8972 14.5214 13.0896 14.5239 13.2463 14.4351C13.4031 14.3463 13.5 14.1801 13.5 14H13ZM8 11L8.25725 10.5713L8 10.4169L7.74275 10.5713L8 11ZM3.5 14V2.5H2.5V14H3.5ZM3.5 2.5H12.5V1.5H3.5V2.5ZM12.5 2.5V14H13.5V2.5H12.5ZM13.2572 13.5713L8.25725 10.5713L7.74275 11.4287L12.7428 14.4287L13.2572 13.5713ZM7.74275 10.5713L2.74275 13.5713L3.25725 14.4287L8.25725 11.4287L7.74275 10.5713ZM12.5 2.5H13.5C13.5 1.94772 13.0523 1.5 12.5 1.5V2.5ZM3.5 2.5V2.5V1.5C2.94771 1.5 2.5 1.94772 2.5 2.5H3.5Z" fill="#3F465C"/>
</svg>
