<svg width="16" height="16" viewBox="0 0 16 16" fill="none" xmlns="http://www.w3.org/2000/svg">
<mask id="path-1-inside-1_5124_53489" fill="white">
<path d="M2 3C2 2.44772 2.44772 2 3 2H13C13.5523 2 14 2.44772 14 3V5V13C14 13.5523 13.5523 14 13 14H3C2.44772 14 2 13.5523 2 13V5V3Z"/>
</mask>
<path d="M2 4.5C1.72386 4.5 1.5 4.72386 1.5 5C1.5 5.27614 1.72386 5.5 2 5.5V4.5ZM14 5.5C14.2761 5.5 14.5 5.27614 14.5 5C14.5 4.72386 14.2761 4.5 14 4.5V5.5ZM5.85355 8.14645C5.65829 7.95118 5.34171 7.95118 5.14645 8.14645C4.95118 8.34171 4.95118 8.65829 5.14645 8.85355L5.85355 8.14645ZM7.62132 10.6213L7.26777 10.9749L7.62132 11.3284L7.97487 10.9749L7.62132 10.6213ZM11.4397 7.51005C11.635 7.31479 11.635 6.99821 11.4397 6.80294C11.2444 6.60768 10.9279 6.60768 10.7326 6.80294L11.4397 7.51005ZM2 5.5H14V4.5H2V5.5ZM5.14645 8.85355L7.26777 10.9749L7.97487 10.2678L5.85355 8.14645L5.14645 8.85355ZM7.97487 10.9749L11.4397 7.51005L10.7326 6.80294L7.26777 10.2678L7.97487 10.9749ZM3 3H13V1H3V3ZM13 13H3V15H13V13ZM3 13V5H1V13H3ZM3 5V3H1V5H3ZM13 3V5H15V3H13ZM13 5V13H15V5H13ZM3 13H3H1C1 14.1046 1.89543 15 3 15V13ZM13 15C14.1046 15 15 14.1046 15 13H13V15ZM13 3H15C15 1.89543 14.1046 1 13 1V3ZM3 1C1.89543 1 1 1.89543 1 3H3V3V1Z" fill="#3F465C" mask="url(#path-1-inside-1_5124_53489)"/>
</svg>
