<svg width="16" height="16" viewBox="0 0 16 16" fill="none" xmlns="http://www.w3.org/2000/svg">
<path d="M8 14L7.7 14.4C7.87778 14.5333 8.12222 14.5333 8.3 14.4L8 14ZM6 12.5L6.3 12.1L6.16667 12H6V12.5ZM10 12.5V12H9.83333L9.7 12.1L10 12.5ZM2.5 3.5H13.5V2.5H2.5V3.5ZM13.5 3.5V12H14.5V3.5H13.5ZM2.5 12V3.5H1.5V12H2.5ZM8.3 13.6L6.3 12.1L5.7 12.9L7.7 14.4L8.3 13.6ZM6 12H2.5V13H6V12ZM13.5 12H10V13H13.5V12ZM9.7 12.1L7.7 13.6L8.3 14.4L10.3 12.9L9.7 12.1ZM1.5 12C1.5 12.5523 1.94772 13 2.5 13V12H1.5ZM13.5 12V13C14.0523 13 14.5 12.5523 14.5 12H13.5ZM13.5 3.5H14.5C14.5 2.94771 14.0523 2.5 13.5 2.5V3.5ZM2.5 2.5C1.94772 2.5 1.5 2.94771 1.5 3.5H2.5V3.5V2.5Z" fill="#3F465C"/>
<circle cx="8" cy="7.75" r="0.75" fill="#3F465C"/>
<circle cx="10.75" cy="7.75" r="0.75" fill="#3F465C"/>
<circle cx="5.25" cy="7.75" r="0.75" fill="#3F465C"/>
</svg>
