<svg width="16" height="16" viewBox="0 0 16 16" fill="none" xmlns="http://www.w3.org/2000/svg">
<path fill-rule="evenodd" clip-rule="evenodd" d="M6.50006 14C6.50006 14.8284 7.17163 15.5 8.00006 15.5C8.82849 15.5 9.50006 14.8284 9.50006 14H8.50006C8.50006 14.2761 8.2762 14.5 8.00006 14.5C7.72392 14.5 7.50006 14.2761 7.50006 14H6.50006Z" fill="#3F465C"/>
<path d="M12.7223 1.7229L1.38898 13.0562" stroke="#3F465C" stroke-linecap="round"/>
<path fill-rule="evenodd" clip-rule="evenodd" d="M3.05979 13.5H14C14.2761 13.5 14.5 13.2761 14.5 13C14.5 12.7239 14.2761 12.5 14 12.5H4.06009L3.05979 13.5ZM2.64567 12.5H2C1.72386 12.5 1.5 12.7239 1.5 13C1.5 13.1753 1.59017 13.3295 1.72665 13.4187L2.64567 12.5Z" fill="#3F465C"/>
<path fill-rule="evenodd" clip-rule="evenodd" d="M3.06298 13.5H4H12H13V12.5V7.5C13 6.39046 12.6386 5.36532 12.0271 4.5359L11.3098 5.25316C11.7454 5.8936 12 6.66707 12 7.5V12.5H4.06298L3.06298 13.5ZM10.6474 4.50138C9.94206 3.87819 9.01519 3.5 8 3.5C5.79086 3.5 4 5.29086 4 7.5V11.1488L3 12.1488V7.5C3 4.73858 5.23858 2.5 8 2.5C9.29135 2.5 10.4684 2.98955 11.3556 3.79319L10.6474 4.50138Z" fill="#3F465C"/>
<path d="M8 2.73515L8 2" stroke="#3F465C" stroke-linecap="round"/>
</svg>
