<svg width="16" height="16" viewBox="0 0 16 16" fill="none" xmlns="http://www.w3.org/2000/svg">
<path d="M14.25 7V3.5C14.25 3.22386 14.0261 3 13.75 3H2.25C1.97386 3 1.75 3.22386 1.75 3.5V12.5C1.75 12.7761 1.9734 13 2.24954 13C3.38795 13 6.23579 13 8.3 13" stroke="#3F465C" stroke-linecap="round"/>
<path d="M2 3L7.55624 6.70416C7.82496 6.88331 8.17504 6.88331 8.44376 6.70416L14 3" stroke="#3F465C"/>
<path fill-rule="evenodd" clip-rule="evenodd" d="M11.0191 12.1268C10.9727 11.8777 10.9727 11.6223 11.0191 11.3732L10.513 11.0834C10.4042 11.0211 10.3671 10.8822 10.4301 10.7739L10.8966 9.97319C10.9591 9.86606 11.0962 9.82934 11.2038 9.89096L11.7129 10.1825C11.9057 10.0189 12.1284 9.89031 12.3719 9.80438V9.22569C12.3719 9.10105 12.473 9 12.5976 9H13.5337C13.6584 9 13.7594 9.10105 13.7594 9.22569V9.80438C14.0029 9.89031 14.2256 10.0189 14.4185 10.1825L14.9275 9.89096C15.0351 9.82934 15.1723 9.86606 15.2347 9.97319L15.7012 10.7739C15.7643 10.8822 15.7271 11.0211 15.6184 11.0834L15.1122 11.3732C15.1586 11.6223 15.1586 11.8777 15.1122 12.1268L15.6184 12.4166C15.7271 12.4789 15.7643 12.6178 15.7012 12.7261L15.2347 13.5268C15.1723 13.6339 15.0351 13.6707 14.9275 13.609L14.4185 13.3175C14.2242 13.4827 14.0007 13.6109 13.7594 13.6956V14.2743C13.7594 14.399 13.6584 14.5 13.5337 14.5H12.5976C12.473 14.5 12.3719 14.399 12.3719 14.2743V13.6956C12.1306 13.6109 11.9072 13.4827 11.7129 13.3175L11.2038 13.609C11.0962 13.6707 10.9591 13.6339 10.8966 13.5268L10.4301 12.7261C10.3671 12.6178 10.4042 12.4789 10.513 12.4166L11.0191 12.1268ZM13.0657 12.4375C13.248 12.4375 13.4229 12.3651 13.5518 12.2361C13.6807 12.1072 13.7532 11.9323 13.7532 11.75C13.7532 11.5677 13.6807 11.3928 13.5518 11.2639C13.4229 11.1349 13.248 11.0625 13.0657 11.0625C12.8833 11.0625 12.7085 11.1349 12.5795 11.2639C12.4506 11.3928 12.3782 11.5677 12.3782 11.75C12.3782 11.9323 12.4506 12.1072 12.5795 12.2361C12.7085 12.3651 12.8833 12.4375 13.0657 12.4375Z" fill="#3F465C"/>
</svg>
