<svg width="16" height="16" viewBox="0 0 16 16" fill="none" xmlns="http://www.w3.org/2000/svg">
<path d="M8.55571 9C8.55571 8.72386 8.33185 8.5 8.05571 8.5C7.77957 8.5 7.55571 8.72386 7.55571 9H8.55571ZM7.55571 11C7.55571 11.2761 7.77957 11.5 8.05571 11.5C8.33185 11.5 8.55571 11.2761 8.55571 11H7.55571ZM7.55571 9V11H8.55571V9H7.55571Z" fill="#3F465C"/>
<rect x="3" y="6.5" width="9.625" height="7" rx="0.5" stroke="#3F465C"/>
<path fill-rule="evenodd" clip-rule="evenodd" d="M8 2.5C6.62791 2.5 5.5 3.63547 5.5 5.05556V6.5C5.5 6.77614 5.27614 7 5 7C4.72386 7 4.5 6.77614 4.5 6.5V5.05556C4.5 3.10056 6.05841 1.5 8 1.5C9.72321 1.5 11.1451 2.76162 11.4426 4.41126C11.4916 4.68302 11.311 4.94305 11.0393 4.99206C10.7675 5.04107 10.5075 4.8605 10.4585 4.58874C10.243 3.39381 9.21793 2.5 8 2.5Z" fill="#3F465C"/>
</svg>
