<svg width="16" height="16" viewBox="0 0 16 16" fill="none" xmlns="http://www.w3.org/2000/svg">
<path d="M11.7581 5.5C11.482 5.5 11.2581 5.72386 11.2581 6C11.2581 6.27614 11.482 6.5 11.7581 6.5V5.5ZM14.4248 6.5C14.701 6.5 14.9248 6.27614 14.9248 6C14.9248 5.72386 14.701 5.5 14.4248 5.5V6.5ZM11.7581 6.5H14.4248V5.5H11.7581V6.5Z" fill="#3F465C"/>
<path d="M12.7581 7.5C12.482 7.5 12.2581 7.72386 12.2581 8C12.2581 8.27614 12.482 8.5 12.7581 8.5V7.5ZM14.4248 8.5C14.701 8.5 14.9248 8.27614 14.9248 8C14.9248 7.72386 14.701 7.5 14.4248 7.5V8.5ZM12.7581 8.5H14.4248V7.5H12.7581V8.5Z" fill="#3F465C"/>
<path d="M5 10H10V9H5V10ZM12.5 12.5V13H13.5V12.5H12.5ZM12 13.5H3V14.5H12V13.5ZM2.5 13V12.5H1.5V13H2.5ZM3 13.5C2.72386 13.5 2.5 13.2761 2.5 13H1.5C1.5 13.8284 2.17157 14.5 3 14.5V13.5ZM12.5 13C12.5 13.2761 12.2761 13.5 12 13.5V14.5C12.8284 14.5 13.5 13.8284 13.5 13H12.5ZM10 10C11.3807 10 12.5 11.1193 12.5 12.5H13.5C13.5 10.567 11.933 9 10 9V10ZM5 9C3.067 9 1.5 10.567 1.5 12.5H2.5C2.5 11.1193 3.61929 10 5 10V9Z" fill="#3F465C"/>
<circle cx="7.5" cy="5" r="2.5" stroke="#3F465C"/>
</svg>
