<svg width="16" height="16" viewBox="0 0 16 16" fill="none" xmlns="http://www.w3.org/2000/svg">
<path d="M12.3 5.3C13.2113 5.3 13.95 4.56126 13.95 3.65C13.95 2.73873 13.2113 2 12.3 2C11.3887 2 10.65 2.73873 10.65 3.65C10.65 4.56126 11.3887 5.3 12.3 5.3Z" stroke="#3F465C" stroke-linejoin="round"/>
<path d="M3.7 13.9667C4.61126 13.9667 5.35 13.228 5.35 12.3167C5.35 11.4055 4.61126 10.6667 3.7 10.6667C2.78873 10.6667 2.05 11.4055 2.05 12.3167C2.05 13.228 2.78873 13.9667 3.7 13.9667Z" stroke="#3F465C" stroke-linejoin="round"/>
<path d="M12.3 5.33333V11.8347C12.3 13.0306 11.338 14 10.1514 14C8.96472 14 8.00274 13.0306 8.00274 11.8347V4.16807C8.00274 2.97067 7.03954 2 5.85139 2C4.6632 2 3.7 2.97067 3.7 4.16807V10.6667" stroke="#3F465C" stroke-linejoin="round"/>
</svg>
