<svg width="16" height="16" viewBox="0 0 16 16" fill="none" xmlns="http://www.w3.org/2000/svg">
<path d="M2.83173 11.4538L2.90565 11.2337L2.78521 11.0352C2.19031 10.0548 1.89325 8.98706 1.89325 7.8216C1.89325 6.97831 2.05812 6.17505 2.38809 5.40759C2.72164 4.63182 3.16607 3.96988 3.7198 3.41615C4.27353 2.86242 4.93547 2.41799 5.71124 2.08444C6.4787 1.75447 7.28196 1.5896 8.12525 1.5896C8.96854 1.5896 9.77179 1.75447 10.5393 2.08444C11.315 2.41799 11.977 2.86242 12.5307 3.41615C13.0844 3.96988 13.5289 4.63182 13.8624 5.40759C14.1924 6.17506 14.3573 6.97831 14.3573 7.8216C14.3573 8.66489 14.1924 9.46814 13.8624 10.2356C13.5289 11.0114 13.0844 11.6733 12.5307 12.227C11.977 12.7808 11.315 13.2252 10.5393 13.5588C9.77179 13.8887 8.96854 14.0536 8.12525 14.0536C7.0489 14.0536 6.04587 13.7951 5.10823 13.2766L4.91906 13.1719L4.71327 13.2381L1.93226 14.1318L2.83173 11.4538Z" stroke="#3F465C"/>
<path d="M10.8082 9.0896C10.3052 8.8276 10.015 8.6966 9.93767 8.6966H9.93617C9.8585 8.6966 9.70367 8.84093 9.47167 9.1296C9.23967 9.41827 9.079 9.5626 8.98967 9.5626C8.93 9.5626 8.8645 9.54176 8.79317 9.5001C8.22784 9.2141 7.7785 8.91343 7.44517 8.5981C7.0405 8.21743 6.737 7.80977 6.53467 7.3751C6.505 7.32743 6.49017 7.28277 6.49017 7.2411C6.49017 7.18177 6.59284 7.04343 6.79817 6.8261C7.0035 6.60877 7.10617 6.4376 7.10617 6.3126C7.10617 6.27093 7.03184 6.04777 6.88317 5.6431C6.7345 5.23843 6.63634 4.9766 6.58867 4.8576C6.541 4.7326 6.49484 4.65077 6.45017 4.6121C6.4055 4.57343 6.32667 4.5541 6.21367 4.5541C6.172 4.5541 6.1155 4.5496 6.04417 4.5406C5.97284 4.5316 5.91934 4.5271 5.88367 4.5271C5.717 4.5271 5.56217 4.5926 5.41917 4.7236C4.99684 5.12227 4.77667 5.59243 4.75867 6.1341V6.2056C4.75267 6.72327 4.964 7.3006 5.39267 7.9376C5.845 8.6046 6.2855 9.15527 6.71417 9.5896C7.14284 10.0239 7.64884 10.3751 8.23217 10.6431C9.02384 11.0121 9.58934 11.1966 9.92867 11.1966C10.2083 11.1969 10.5118 11.1181 10.8392 10.9601C11.1665 10.8021 11.3778 10.6071 11.4732 10.3751C11.5745 10.1191 11.6252 9.89293 11.6252 9.6966C11.6252 9.63693 11.6192 9.59227 11.6072 9.5626C11.5775 9.50926 11.3112 9.3516 10.8082 9.0896Z" fill="#3F465C"/>
</svg>
