<svg width="16" height="16" viewBox="0 0 16 16" fill="none" xmlns="http://www.w3.org/2000/svg">
<path d="M8 14H3C2.72386 14 2.5 13.7761 2.5 13.5V2.5C2.5 2.22386 2.72386 2 3 2H13C13.2761 2 13.5 2.22386 13.5 2.5V8" stroke="#3F465C" stroke-linecap="round"/>
<path d="M5 5H11" stroke="#3F465C" stroke-linecap="round"/>
<path d="M5 8H8" stroke="#3F465C" stroke-linecap="round"/>
<circle cx="11.3331" cy="11.6294" r="2.25" stroke="#3F465C"/>
<path d="M13.5792 13.1687C13.3839 12.9734 13.0674 12.9734 12.8721 13.1687C12.6768 13.3639 12.6768 13.6805 12.8721 13.8758L13.5792 13.1687ZM13.6499 14.6536C13.8452 14.8488 14.1618 14.8488 14.357 14.6536C14.5523 14.4583 14.5523 14.1417 14.357 13.9465L13.6499 14.6536ZM12.8721 13.8758L13.6499 14.6536L14.357 13.9465L13.5792 13.1687L12.8721 13.8758Z" fill="#3F465C"/>
</svg>
