<svg width="16" height="16" viewBox="0 0 16 16" fill="none" xmlns="http://www.w3.org/2000/svg">
<path d="M13.5 5.25V3C13.5 2.72386 13.2761 2.5 13 2.5H3C2.72386 2.5 2.5 2.72386 2.5 3V13C2.5 13.2761 2.72386 13.5 3 13.5H13C13.2761 13.5 13.5 13.2761 13.5 13V10.75" stroke="#3F465C" stroke-linecap="round"/>
<path fill-rule="evenodd" clip-rule="evenodd" d="M14.0039 8C14.0039 7.72386 13.78 7.5 13.5039 7.5H5.99998C5.72384 7.5 5.49998 7.72386 5.49998 8C5.49998 8.27614 5.72384 8.5 5.99998 8.5H13.5039C13.78 8.5 14.0039 8.27614 14.0039 8Z" fill="#3F465C"/>
<path d="M7.50391 6L5.50391 8L7.50391 10" stroke="#3F465C" stroke-linecap="round" stroke-linejoin="round"/>
</svg>
