<svg width="16" height="16" viewBox="0 0 16 16" fill="none" xmlns="http://www.w3.org/2000/svg">
<path d="M3 2V1.5C2.72386 1.5 2.5 1.72386 2.5 2H3ZM3 14H2.5C2.5 14.2761 2.72386 14.5 3 14.5V14ZM13.5 6C13.5 6.27614 13.7239 6.5 14 6.5C14.2761 6.5 14.5 6.27614 14.5 6H13.5ZM8 14.5C8.27614 14.5 8.5 14.2761 8.5 14C8.5 13.7239 8.27614 13.5 8 13.5V14.5ZM3 2.5H13.5V1.5H3V2.5ZM3.5 14V2H2.5V14H3.5ZM13.5 2.5V6H14.5V2.5H13.5ZM8 13.5H3V14.5H8V13.5ZM13.5 2.5H14.5C14.5 1.94772 14.0523 1.5 13.5 1.5V2.5Z" fill="#3F465C"/>
<path d="M5.5 2V14.5" stroke="#3F465C"/>
<path d="M2 5H3" stroke="#3F465C" stroke-linecap="round"/>
<path d="M2 8H3" stroke="#3F465C" stroke-linecap="round"/>
<path d="M2 11H3" stroke="#3F465C" stroke-linecap="round"/>
<circle cx="12.5" cy="11" r="2.5" stroke="#3F465C"/>
<path d="M14.9961 12.7893C14.8009 12.594 14.4843 12.594 14.289 12.7893C14.0938 12.9845 14.0938 13.3011 14.289 13.4964L14.9961 12.7893ZM15.0668 14.2742C15.2621 14.4695 15.5787 14.4695 15.7739 14.2742C15.9692 14.0789 15.9692 13.7623 15.7739 13.5671L15.0668 14.2742ZM14.289 13.4964L15.0668 14.2742L15.7739 13.5671L14.9961 12.7893L14.289 13.4964Z" fill="#3F465C"/>
</svg>
