<svg width="16" height="16" viewBox="0 0 16 16" fill="none" xmlns="http://www.w3.org/2000/svg">
<circle cx="6.5" cy="5.5" r="2.5" stroke="#3F465C"/>
<path d="M11 12V13.5H12V12H11ZM11 13.5H2V14.5H11V13.5ZM2 13.5V12H1V13.5H2ZM4 10H9V9H4V10ZM2 13.5H2H1C1 14.0523 1.44772 14.5 2 14.5V13.5ZM11 13.5V14.5C11.5523 14.5 12 14.0523 12 13.5H11ZM12 12C12 10.3431 10.6569 9 9 9V10C10.1046 10 11 10.8954 11 12H12ZM2 12C2 10.8954 2.89543 10 4 10V9C2.34315 9 1 10.3431 1 12H2Z" fill="#3F465C"/>
<path d="M8.86609 1.73199C9.18615 1.58312 9.54299 1.5 9.91925 1.5C11.3 1.5 12.4192 2.61929 12.4192 4C12.4192 5.05129 11.7703 5.95102 10.8512 6.3205" stroke="#3F465C" stroke-linecap="round"/>
<path d="M10.8496 8H12.4195C13.8002 8 14.9195 9.11929 14.9195 10.5V12C14.9195 12.2761 14.6957 12.5 14.4195 12.5H13.4996" stroke="#3F465C" stroke-linecap="round"/>
</svg>
