<svg width="16" height="16" viewBox="0 0 16 16" fill="none" xmlns="http://www.w3.org/2000/svg">
<g clip-path="url(#clip0_5239_57359)">
<path fill-rule="evenodd" clip-rule="evenodd" d="M8.32787 1.6226C8.24008 1.54624 8.12538 1.5 7.99988 1.5C7.87489 1.5 7.7606 1.54587 7.67294 1.62169L4.1746 4.62038C3.96494 4.80009 3.94066 5.11574 4.12038 5.3254C4.30009 5.53506 4.61574 5.55934 4.8254 5.37962L7.49988 3.08713V10C7.49988 10.2761 7.72374 10.5 7.99988 10.5C8.27603 10.5 8.49988 10.2761 8.49988 10V3.08709L11.1746 5.37963C11.3843 5.55934 11.6999 5.53506 11.8796 5.32539C12.0593 5.11572 12.0351 4.80007 11.8254 4.62037L8.32787 1.6226ZM2.00003 9.00005C2.27617 9.00005 2.50003 9.22391 2.50003 9.50005V13.5H13.5V9.50005C13.5 9.22391 13.7239 9.00005 14 9.00005C14.2762 9.00005 14.5 9.22391 14.5 9.50005V13.5C14.5 14.0523 14.0523 14.5 13.5 14.5H2.50003C1.94775 14.5 1.50003 14.0523 1.50003 13.5V9.50005C1.50003 9.22391 1.72389 9.00005 2.00003 9.00005Z" fill="#3F465C"/>
</g>
<defs>
<clipPath id="clip0_5239_57359">
<rect width="16" height="16" fill="white"/>
</clipPath>
</defs>
</svg>
