<svg width="16" height="16" viewBox="0 0 16 16" fill="none" xmlns="http://www.w3.org/2000/svg">
<path d="M2 5.5C2 5.22386 2.22386 5 2.5 5L13.5 5C13.7761 5 14 5.22386 14 5.5V13.5C14 13.7761 13.7761 14 13.5 14H2.5C2.22386 14 2 13.7761 2 13.5L2 5.5Z" stroke="#3F465C"/>
<path d="M4.5 8H11" stroke="#3F465C" stroke-linecap="round"/>
<path d="M4.5 10.5H8" stroke="#3F465C" stroke-linecap="round"/>
<path d="M4.3 5.4L8 2.625L7.4 1.825L3.7 4.6L4.3 5.4ZM8 2.625L11.7 5.4L12.3 4.6L8.6 1.825L8 2.625ZM8 2.625V2.625L8.6 1.825C8.24444 1.55833 7.75556 1.55833 7.4 1.825L8 2.625Z" fill="#3F465C"/>
</svg>
