<svg width="16" height="16" viewBox="0 0 16 16" fill="none" xmlns="http://www.w3.org/2000/svg">
<path d="M1.5 4.48107C1.5 4.20492 1.72386 3.98107 2 3.98107H3.42472C3.5027 3.98107 3.57357 3.93574 3.60628 3.86494L4.02226 2.96449C4.15308 2.68131 4.43657 2.5 4.74851 2.5H7.48834C7.80027 2.5 8.08376 2.68131 8.21458 2.96449L8.63056 3.86494C8.66327 3.93574 8.73414 3.98107 8.81213 3.98107H14C14.2761 3.98107 14.5 4.20492 14.5 4.48107V13C14.5 13.2761 14.2761 13.5 14 13.5H8H2C1.72386 13.5 1.5 13.2761 1.5 13V4.48107Z" stroke="#3F465C"/>
<circle cx="8" cy="8.5" r="2.5" stroke="#3F465C"/>
<path d="M12.9585 6.04175H11.6252" stroke="#3F465C" stroke-linejoin="round"/>
</svg>
