<svg width="16" height="16" viewBox="0 0 16 16" fill="none" xmlns="http://www.w3.org/2000/svg">
<path fill-rule="evenodd" clip-rule="evenodd" d="M2.64677 9.01299C2.52483 8.35879 2.52483 7.68799 2.64677 7.0338L1.27256 6.24678C1.0116 6.09732 0.922345 5.7639 1.07373 5.50406L2.3506 3.31243C2.5004 3.05531 2.82959 2.96718 3.08782 3.11507L4.469 3.90609C4.97559 3.4763 5.56053 3.13861 6.20013 2.91288V1.34172C6.20013 1.04256 6.44264 0.800049 6.7418 0.800049H9.30293C9.60209 0.800049 9.8446 1.04256 9.8446 1.34172V2.91288C10.4842 3.13861 11.0691 3.4763 11.5757 3.90609L12.9569 3.11507C13.2151 2.96718 13.5443 3.05531 13.6941 3.31243L14.971 5.50406C15.1224 5.7639 15.0331 6.09732 14.7722 6.24678L13.398 7.0338C13.5199 7.68799 13.5199 8.35879 13.398 9.01299L14.7722 9.80001C15.0331 9.94947 15.1224 10.2829 14.971 10.5427L13.6941 12.7344C13.5443 12.9915 13.2151 13.0796 12.9569 12.9317L11.5757 12.1407C11.0653 12.5746 10.4784 12.9113 9.8446 13.1339V14.7051C9.8446 15.0042 9.60209 15.2467 9.30293 15.2467H6.7418C6.44264 15.2467 6.20013 15.0042 6.20013 14.7051V13.1339C5.56631 12.9113 4.97942 12.5746 4.469 12.1407L3.08782 12.9317C2.82959 13.0796 2.5004 12.9915 2.3506 12.7344L1.07373 10.5427C0.922345 10.2829 1.0116 9.94947 1.27256 9.80001L2.64677 9.01299ZM8 11C8.79565 11 9.55871 10.6839 10.1213 10.1213C10.6839 9.55871 11 8.79565 11 8C11 7.20435 10.6839 6.44129 10.1213 5.87868C9.55871 5.31607 8.79565 5 8 5C7.20435 5 6.44128 5.31607 5.87867 5.87868C5.31607 6.44129 5 7.20435 5 8C5 8.79565 5.31607 9.55871 5.87867 10.1213C6.44128 10.6839 7.20435 11 8 11Z" fill="#3F465C"/>
</svg>
