<svg width="16" height="16" viewBox="0 0 16 16" fill="none" xmlns="http://www.w3.org/2000/svg">
<path d="M13.5 4.5625V3C13.5 2.72386 13.2761 2.5 13 2.5H5.03846H3C2.72386 2.5 2.5 2.72386 2.5 3V8V13C2.5 13.2761 2.72386 13.5 3 13.5H10.75H13C13.2761 13.5 13.5 13.2761 13.5 13V11.7812" stroke="#3F465C" stroke-linecap="round"/>
<path fill-rule="evenodd" clip-rule="evenodd" d="M5.5 8C5.5 7.72386 5.72386 7.5 6 7.5H13.5039C13.7801 7.5 14.0039 7.72386 14.0039 8C14.0039 8.27614 13.7801 8.5 13.5039 8.5H6C5.72386 8.5 5.5 8.27614 5.5 8Z" fill="#3F465C"/>
<path d="M12 6L14 8L12 10" stroke="#3F465C" stroke-linecap="round" stroke-linejoin="round"/>
</svg>
