<svg width="16" height="16" viewBox="0 0 16 16" fill="none" xmlns="http://www.w3.org/2000/svg">
<path d="M2.39657 7.60158L2.03247 7.2589L2.39657 7.60158ZM8.18207 1.84135L7.81797 2.18404L8.18207 1.84135ZM7.81797 1.84135L8.18207 2.18404L7.81797 1.84135ZM7.81797 2.18404L13.2394 7.94427L13.9676 7.2589L8.54616 1.49867L7.81797 2.18404ZM2.76067 7.94427L8.18207 2.18404L7.45387 1.49867L2.03247 7.2589L2.76067 7.94427ZM4.74593 7.52293H2.57862V8.52293H4.74593V7.52293ZM5.49593 14.2541V8.27293H4.49593V14.2541H5.49593ZM10.7498 14.0041H5.24593V15.0041H10.7498V14.0041ZM10.4998 8.27293V14.2541H11.4998V8.27293H10.4998ZM13.4214 7.52293H11.2498V8.52293H13.4214V7.52293ZM11.4998 8.27293C11.4998 8.411 11.3879 8.52293 11.2498 8.52293V7.52293C10.8356 7.52293 10.4998 7.85871 10.4998 8.27293H11.4998ZM10.7498 15.0041C11.164 15.0041 11.4998 14.6683 11.4998 14.2541H10.4998C10.4998 14.116 10.6118 14.0041 10.7498 14.0041V15.0041ZM4.49593 14.2541C4.49593 14.6683 4.83171 15.0041 5.24593 15.0041V14.0041C5.384 14.0041 5.49593 14.116 5.49593 14.2541H4.49593ZM4.74593 8.52293C4.60785 8.52293 4.49593 8.411 4.49593 8.27293H5.49593C5.49593 7.85871 5.16014 7.52293 4.74593 7.52293V8.52293ZM2.03247 7.2589C1.582 7.73753 1.92134 8.52293 2.57862 8.52293V7.52293C2.79771 7.52293 2.91083 7.78472 2.76067 7.94427L2.03247 7.2589ZM13.2394 7.94427C13.0892 7.78472 13.2023 7.52293 13.4214 7.52293V8.52293C14.0787 8.52293 14.418 7.73753 13.9676 7.2589L13.2394 7.94427ZM8.54616 1.49867C8.25004 1.18404 7.74999 1.18404 7.45387 1.49867L8.18207 2.18404C8.08336 2.28891 7.91667 2.28892 7.81797 2.18404L8.54616 1.49867Z" fill="#3F465C"/>
</svg>
