<svg width="18" height="16" viewBox="0 0 18 16" fill="none" xmlns="http://www.w3.org/2000/svg">
<mask id="path-1-inside-1_5124_53456" fill="white">
<path d="M3.42029 2V14C3.42029 14.5523 3.868 15 4.42029 15H13.5797C14.132 15 14.5797 14.5523 14.5797 14V5.3927C14.5797 5.12379 14.4714 4.8662 14.2792 4.67809L10.8133 1.28538C10.6264 1.10245 10.3753 1 10.1138 1H4.42029C3.868 1 3.42029 1.44772 3.42029 2Z"/>
</mask>
<path d="M11.384 12.5C11.6602 12.5 11.884 12.2761 11.884 12C11.884 11.7239 11.6602 11.5 11.384 11.5V12.5ZM6.38403 11.5C6.10789 11.5 5.88403 11.7239 5.88403 12C5.88403 12.2761 6.10789 12.5 6.38403 12.5V11.5ZM8.38403 10.5C8.66018 10.5 8.88403 10.2761 8.88403 10C8.88403 9.72386 8.66018 9.5 8.38403 9.5V10.5ZM6.38403 9.5C6.10789 9.5 5.88403 9.72386 5.88403 10C5.88403 10.2761 6.10789 10.5 6.38403 10.5V9.5ZM10.0145 5.5H9.51449C9.51449 5.77614 9.73835 6 10.0145 6V5.5ZM11.384 11.5H6.38403V12.5H11.384V11.5ZM8.38403 9.5H6.38403V10.5H8.38403V9.5ZM9.51449 1.5V5.5H10.5145V1.5H9.51449ZM10.0145 6H14.0725V5H10.0145V6ZM10.8133 1.28538L10.1138 2V2L10.8133 1.28538ZM14.2792 4.67809L13.5797 5.3927V5.3927L14.2792 4.67809ZM4.42029 14V2H2.42029V14H4.42029ZM13.5797 14H4.42029V16H13.5797V14ZM4.42029 2H10.1138V0H4.42029V2ZM13.5797 5.3927V14H15.5797V5.3927H13.5797ZM10.1138 2L13.5797 5.3927L14.9787 3.96347L11.5128 0.570767L10.1138 2ZM15.5797 5.3927C15.5797 4.85487 15.3631 4.3397 14.9787 3.96347L13.5797 5.3927V5.3927H15.5797ZM10.1138 2L10.1138 2L11.5128 0.570767C11.139 0.204894 10.6368 0 10.1138 0V2ZM2.42029 14C2.42029 15.1046 3.31572 16 4.42029 16V14H4.42029H2.42029ZM13.5797 16C14.6843 16 15.5797 15.1046 15.5797 14H13.5797V14V16ZM4.42029 2V2V0C3.31572 0 2.42029 0.895431 2.42029 2H4.42029Z" fill="#3F465C" mask="url(#path-1-inside-1_5124_53456)"/>
</svg>
