<svg width="16" height="16" viewBox="0 0 16 16" fill="none" xmlns="http://www.w3.org/2000/svg">
<path d="M12.5 13.5H2C1.72386 13.5 1.5 13.2761 1.5 13V3C1.5 2.72386 1.72386 2.5 2 2.5H12C12.2761 2.5 12.5 2.72386 12.5 3V5" stroke="#3F465C"/>
<path fill-rule="evenodd" clip-rule="evenodd" d="M5.37464 7.53335C5.30297 7.43924 5.16566 7.36182 4.98936 7.36182C4.81334 7.36182 4.67574 7.43924 4.60407 7.53335C4.51635 7.64905 4.46102 7.78173 4.46102 8.49982C4.46102 9.2182 4.51635 9.34541 4.60407 9.4614C4.67574 9.55523 4.81334 9.63812 4.98936 9.63812C5.16566 9.63812 5.30297 9.55523 5.37464 9.4614C5.46265 9.34541 5.51769 9.2182 5.51769 8.49982C5.51769 7.78173 5.46265 7.64905 5.37464 7.53335ZM6.08672 10.0576C5.80034 10.3454 5.47009 10.5 4.99135 10.5C4.51261 10.5 4.18266 10.3454 3.89627 10.0576C3.49889 9.65895 3.49945 9.13226 3.50005 8.56586L3.50009 8.49971L3.50005 8.43363C3.49945 7.86774 3.49889 7.34103 3.89627 6.94179C4.18266 6.65455 4.51261 6.5 4.99135 6.5C5.47009 6.5 5.80034 6.65455 6.08672 6.94179C6.48381 7.34102 6.48326 7.86772 6.48266 8.43359L6.48262 8.49971L6.48266 8.5659C6.48326 9.13228 6.48381 9.65896 6.08672 10.0576ZM8.50739 10.5C8.05072 10.5 7.70414 10.3454 7.41775 10.0579C7.02041 9.65868 7.02095 9.13158 7.02153 8.56506L7.02157 8.49996L7.02153 8.43485C7.02095 7.86833 7.02041 7.34123 7.41775 6.94203C7.70414 6.6548 8.05072 6.50024 8.50739 6.50024C9.25044 6.50024 9.85015 6.9144 9.99349 7.78187H9.01393C8.95316 7.56083 8.83219 7.36195 8.51312 7.36195C8.33682 7.36195 8.20466 7.4339 8.13328 7.52773C8.04527 7.64372 7.98479 7.78187 7.98479 8.49996C7.98479 9.21833 8.04527 9.35619 8.13328 9.47247C8.20466 9.5663 8.33682 9.63825 8.51312 9.63825C8.83219 9.63825 8.95316 9.43908 9.01393 9.21833H9.99349C9.85015 10.0858 9.25044 10.5 8.50739 10.5ZM11.4659 7.40057H12.0105C12.2748 7.40057 12.4288 7.59398 12.4288 7.79833C12.4288 8.00267 12.2748 8.19608 12.0105 8.19608H11.4659V7.40057ZM11.7896 9.0025L12.4828 10.4666H13.6003L12.7529 8.82579C13.0607 8.67123 13.391 8.3342 13.391 7.7983C13.391 7.15188 12.9234 6.53308 12.0537 6.53308H10.5019V10.4666H11.4651V9.0025H11.7896Z" fill="#3F465C"/>
</svg>
