<svg width="16" height="16" viewBox="0 0 16 16" fill="none" xmlns="http://www.w3.org/2000/svg">
<circle cx="8" cy="9.33333" r="5.33333" stroke="#3F465C"/>
<circle cx="8" cy="9.33342" r="2.66667" stroke="#3F465C"/>
<path d="M12.6227 3.41011L13.0569 3.65818L12.6227 3.41011ZM5.10079 5.41852L3.81137 3.16204L2.94313 3.65818L4.23255 5.91465L5.10079 5.41852ZM3.83333 3.24473V1.66659H2.83333V3.24473H3.83333ZM3.66667 1.83325H12.3333V0.833252H3.66667V1.83325ZM12.1667 1.66659V3.24473H13.1667V1.66659H12.1667ZM12.1886 3.16204L10.8992 5.41852L11.7675 5.91465L13.0569 3.65818L12.1886 3.16204ZM12.1667 3.24473C12.1667 3.21573 12.1742 3.18722 12.1886 3.16204L13.0569 3.65818C13.1288 3.53226 13.1667 3.38975 13.1667 3.24473H12.1667ZM12.3333 1.83325C12.2413 1.83325 12.1667 1.75863 12.1667 1.66659H13.1667C13.1667 1.20635 12.7936 0.833252 12.3333 0.833252V1.83325ZM3.83333 1.66659C3.83333 1.75863 3.75871 1.83325 3.66667 1.83325V0.833252C3.20643 0.833252 2.83333 1.20635 2.83333 1.66659H3.83333ZM3.81137 3.16204C3.82576 3.18722 3.83333 3.21573 3.83333 3.24473H2.83333C2.83333 3.38975 2.87118 3.53227 2.94313 3.65818L3.81137 3.16204Z" fill="#3F465C"/>
<path d="M6 1V4.33333" stroke="#3F465C"/>
<path d="M10 1V4.33333" stroke="#3F465C"/>
</svg>
