<svg width="16" height="16" viewBox="0 0 16 16" fill="none" xmlns="http://www.w3.org/2000/svg">
<ellipse cx="8" cy="8" rx="6.5" ry="6.5" transform="rotate(-180 8 8)" stroke="#3F465C"/>
<path d="M12.5565 12.4088L12.0568 12.4253L12.5565 12.4088ZM12.0568 12.4253L12.0631 12.6159L13.0625 12.5829L13.0562 12.3923L12.0568 12.4253ZM6.37349 10.2495H9.808V9.24951H6.37349V10.2495ZM13.0562 12.3923C12.9984 10.6401 11.5612 9.24951 9.808 9.24951V10.2495C11.0218 10.2495 12.0167 11.2122 12.0568 12.4253L13.0562 12.3923ZM4.12502 12.5829C4.08301 11.3097 5.10397 10.2495 6.37349 10.2495V9.24951C4.53436 9.24951 3.06505 10.7822 3.12557 12.6159L4.12502 12.5829Z" fill="#3F465C"/>
<circle cx="8" cy="6.17456" r="2.23438" stroke="#3F465C"/>
</svg>
