<svg width="16" height="16" viewBox="0 0 16 16" fill="none" xmlns="http://www.w3.org/2000/svg">
<g clip-path="url(#clip0_5239_55345)">
<path fill-rule="evenodd" clip-rule="evenodd" d="M8.00002 13.3334C8.46025 13.3334 8.83335 12.9603 8.83335 12.5001C8.83335 12.0398 8.46025 11.6667 8.00002 11.6667C7.53979 11.6667 7.16669 12.0398 7.16669 12.5001C7.16669 12.9603 7.53979 13.3334 8.00002 13.3334Z" fill="#3F465C"/>
<path d="M14 2.5L3 13.3333" stroke="#3F465C" stroke-linecap="round"/>
<path fill-rule="evenodd" clip-rule="evenodd" d="M8.31688 10.1997C8.63078 10.2287 8.93909 10.3048 9.23135 10.4258C9.61317 10.584 9.9601 10.8158 10.2523 11.108C10.4476 11.3033 10.7642 11.3033 10.9594 11.108C11.1547 10.9128 11.1547 10.5962 10.9594 10.4009C10.5744 10.0158 10.1172 9.71037 9.61403 9.50196C9.472 9.44313 9.3271 9.39236 9.18001 9.34978L8.31688 10.1997ZM9.75079 7.38437C9.19166 7.22235 8.61137 7.13965 8.02696 7.13965C7.2136 7.13965 6.4082 7.29985 5.65675 7.61111C4.9053 7.92237 4.22251 8.3786 3.64738 8.95373C3.45211 9.14899 3.13553 9.14899 2.94027 8.95373C2.74501 8.75847 2.74501 8.44189 2.94027 8.24663C3.60826 7.57863 4.40129 7.04875 5.27406 6.68723C6.14684 6.32572 7.08227 6.13965 8.02696 6.13965C8.88943 6.13965 9.74419 6.29474 10.5506 6.59684L9.75079 7.38437ZM10.7727 7.78153C11.3767 8.08025 11.9288 8.47596 12.4065 8.95373C12.6018 9.14899 12.9184 9.14899 13.1136 8.95373C13.3089 8.75847 13.3089 8.44189 13.1136 8.24662C12.6401 7.7731 12.1038 7.36897 11.5207 7.04503L10.7727 7.78153ZM12.955 5.6328C13.5089 5.9873 14.0243 6.40138 14.4916 6.86864C14.6868 7.06391 15.0034 7.06391 15.1987 6.86864C15.3939 6.67338 15.3939 6.3568 15.1987 6.16154C14.7341 5.69695 14.2266 5.27975 13.6839 4.91506L12.955 5.6328ZM12.7985 4.38344C12.5093 4.22923 12.2122 4.08885 11.9083 3.96296C10.6777 3.45326 9.35887 3.19092 8.02696 3.19092C6.69505 3.19092 5.37618 3.45326 4.14566 3.96296C2.91513 4.47266 1.79705 5.21974 0.855248 6.16154C0.659986 6.3568 0.659986 6.67339 0.855248 6.86865C1.05051 7.06391 1.36709 7.06391 1.56235 6.86865C2.4113 6.0197 3.41914 5.34628 4.52834 4.88684C5.63754 4.42739 6.82637 4.19092 8.02696 4.19092C9.22755 4.19092 10.4164 4.42739 11.5256 4.88684C11.7023 4.96004 11.8765 5.03868 12.0478 5.1226L12.7985 4.38344ZM7.91936 9.18768L6.50852 10.5769C6.24959 10.7195 6.01153 10.8982 5.80167 11.108C5.60641 11.3033 5.28983 11.3033 5.09457 11.108C4.8993 10.9128 4.8993 10.5962 5.09457 10.4009C5.47966 10.0158 5.93683 9.71037 6.43998 9.50196C6.90996 9.30729 7.41145 9.20086 7.91936 9.18768Z" fill="#3F465C"/>
</g>
<defs>
<clipPath id="clip0_5239_55345">
<rect width="16" height="16" fill="white"/>
</clipPath>
</defs>
</svg>
