<svg width="16" height="16" viewBox="0 0 16 16" fill="none" xmlns="http://www.w3.org/2000/svg">
<path d="M4.7996 2.91206C4.9262 2.75668 5.11599 2.6665 5.31642 2.6665H10.8403C11.046 2.6665 11.2402 2.76149 11.3665 2.92388L14.3095 6.7077C14.514 6.97062 14.493 7.34413 14.2604 7.58254L8.47686 13.5107C8.21525 13.7789 7.7841 13.7789 7.52249 13.5107L1.74828 7.59216C1.51166 7.34962 1.49461 6.96817 1.70865 6.70549L4.7996 2.91206Z" stroke="#3F465C"/>
<path fill-rule="evenodd" clip-rule="evenodd" d="M5.66699 5.6665H7.54935L8.1768 7.99984L9.74542 5.6665H11.0003L7.85692 10.4486C7.74262 10.6225 7.47534 10.5725 7.43158 10.3691L6.60817 6.5415H5.66699V5.6665Z" fill="#3F465C"/>
</svg>
