<svg width="16" height="16" viewBox="0 0 16 16" fill="none" xmlns="http://www.w3.org/2000/svg">
<g clip-path="url(#clip0_5179_55169)">
<path fill-rule="evenodd" clip-rule="evenodd" d="M1.60077 2.1001C1.60077 1.82396 1.82463 1.6001 2.10077 1.6001H13.1008C13.3769 1.6001 13.6008 1.82396 13.6008 2.1001V7.2001L7.20077 13.6001H2.10077C1.82463 13.6001 1.60077 13.3762 1.60077 13.1001V2.1001ZM4.52077 5.6001C4.23358 5.6001 4.00077 5.83291 4.00077 6.1201C4.00077 6.40729 4.23358 6.6401 4.52077 6.6401H9.88077C10.168 6.6401 10.4008 6.40729 10.4008 6.1201C10.4008 5.83291 10.168 5.6001 9.88077 5.6001H4.52077ZM4.00077 8.5201C4.00077 8.23291 4.23358 8.0001 4.52077 8.0001H7.48077C7.76796 8.0001 8.00077 8.23291 8.00077 8.5201C8.00077 8.80729 7.76796 9.0401 7.48077 9.0401H4.52077C4.23358 9.0401 4.00077 8.80729 4.00077 8.5201ZM15.844 9.00235C16.0525 9.21035 16.0525 9.54794 15.844 9.75647L11.3342 14.2662C11.2485 14.3519 11.1322 14.4001 11.011 14.4001H10.0575C9.80505 14.4001 9.60038 14.1954 9.60038 13.943V12.9895C9.60038 12.8682 9.64854 12.752 9.73427 12.6662L14.244 8.1565C14.452 7.94797 14.7896 7.94797 14.9981 8.1565L15.844 9.00235Z" fill="#3F465C"/>
</g>
<defs>
<clipPath id="clip0_5179_55169">
<rect width="16" height="16" fill="white"/>
</clipPath>
</defs>
</svg>
