<svg width="16" height="16" viewBox="0 0 16 16" fill="none" xmlns="http://www.w3.org/2000/svg">
<path d="M14.5 4.5C14.5 4.22386 14.2761 4 14 4H7.70711C7.5745 4 7.44732 3.94732 7.35355 3.85355L6.14645 2.64645C6.05268 2.55268 5.9255 2.5 5.79289 2.5H2.00001C1.72386 2.5 1.50001 2.72386 1.50001 3V13C1.50001 13.2761 1.72387 13.5 2.00001 13.5H14C14.2761 13.5 14.5 13.2761 14.5 13V4.5Z" stroke="#3F465C" stroke-linecap="round"/>
<path fill-rule="evenodd" clip-rule="evenodd" d="M8.5 6.5C8.5 6.22386 8.27614 6 8 6C7.72386 6 7.5 6.22386 7.5 6.5V8H6C5.72386 8 5.5 8.22386 5.5 8.5C5.5 8.77614 5.72386 9 6 9H7.5V10.5C7.5 10.7761 7.72386 11 8 11C8.27614 11 8.5 10.7761 8.5 10.5V9H10C10.2761 9 10.5 8.77614 10.5 8.5C10.5 8.22386 10.2761 8 10 8H8.5V6.5Z" fill="#3F465C"/>
</svg>
