<svg width="16" height="16" viewBox="0 0 16 16" fill="none" xmlns="http://www.w3.org/2000/svg">
<path d="M11.8792 6.0203L11.3943 6.14237C11.4454 6.34534 11.6175 6.49501 11.8256 6.51742L11.8792 6.0203ZM4.12085 6.0203L4.1744 6.51742C4.3825 6.49501 4.55462 6.34534 4.60572 6.14237L4.12085 6.0203ZM12.364 5.89823C11.8725 3.94584 10.1057 2.5 8 2.5V3.5C9.63657 3.5 11.0119 4.62372 11.3943 6.14237L12.364 5.89823ZM8 2.5C5.89429 2.5 4.12752 3.94584 3.63598 5.89822L4.60572 6.14237C4.98806 4.62372 6.36343 3.5 8 3.5V2.5ZM4.0673 5.52317C2.06143 5.73925 0.5 7.43694 0.5 9.5H1.5C1.5 7.95328 2.67093 6.67938 4.1744 6.51742L4.0673 5.52317ZM0.5 9.5C0.5 11.7091 2.29086 13.5 4.5 13.5V12.5C2.84315 12.5 1.5 11.1569 1.5 9.5H0.5ZM4.5 13.5H11.5V12.5H4.5V13.5ZM14.5 9.5C14.5 11.1569 13.1569 12.5 11.5 12.5V13.5C13.7091 13.5 15.5 11.7091 15.5 9.5H14.5ZM11.8256 6.51742C13.3291 6.67937 14.5 7.95328 14.5 9.5H15.5C15.5 7.43694 13.9386 5.73924 11.9327 5.52318L11.8256 6.51742Z" fill="#3F465C"/>
<path d="M9.02512 7.02513C9.43211 6.61813 9.9332 6.31779 10.484 6.15071C11.0348 5.98363 11.6183 5.95496 12.1828 6.06725C12.7473 6.17954 13.2754 6.42932 13.7204 6.79446C14.1653 7.15961 14.5133 7.62884 14.7336 8.16061C14.9538 8.69237 15.0396 9.27025 14.9831 9.84306C14.9267 10.4159 14.7299 10.9659 14.4101 11.4445C14.0904 11.9231 13.6575 12.3154 13.1499 12.5867C12.6423 12.8581 12.0756 13 11.5 13" stroke="#3F465C" stroke-linecap="round"/>
</svg>
