<svg width="16" height="16" viewBox="0 0 16 16" fill="none" xmlns="http://www.w3.org/2000/svg">
<path d="M10.2456 8.91667V8.41667C10.0078 8.41667 9.80294 8.58415 9.75563 8.8172L10.2456 8.91667ZM5.75399 8.91667L6.24399 8.8172C6.19669 8.58415 5.99179 8.41667 5.75399 8.41667V8.91667ZM3 3H13V2H3V3ZM13 3V13H14V3H13ZM13 13H3V14H13V13ZM3 13V3H2V13H3ZM9.75563 8.8172C9.58967 9.63479 8.86602 10.25 7.99981 10.25V11.25C9.35098 11.25 10.4769 10.2906 10.7356 9.01613L9.75563 8.8172ZM7.99981 10.25C7.1336 10.25 6.40996 9.63479 6.24399 8.8172L5.26398 9.01613C5.52268 10.2906 6.64865 11.25 7.99981 11.25V10.25ZM10.2456 9.41667H13.5V8.41667H10.2456V9.41667ZM5.75399 8.41667H2.5V9.41667H5.75399V8.41667ZM3 13H3H2C2 13.5523 2.44772 14 3 14V13ZM13 13V14C13.5523 14 14 13.5523 14 13H13ZM13 3H14C14 2.44772 13.5523 2 13 2V3ZM3 2C2.44772 2 2 2.44772 2 3H3V3V2Z" fill="#3F465C"/>
</svg>
