<svg width="16" height="16" viewBox="0 0 16 16" fill="none" xmlns="http://www.w3.org/2000/svg">
<path fill-rule="evenodd" clip-rule="evenodd" d="M5.49997 1.5C4.94768 1.5 4.49997 1.94772 4.49997 2.5V3.5H2.49988C1.94759 3.5 1.49988 3.94772 1.49988 4.5V13.5C1.49988 14.0523 1.94759 14.5 2.49988 14.5H11.4999C12.0522 14.5 12.4999 14.0523 12.4999 13.5V11.5H13.5C14.0523 11.5 14.5 11.0523 14.5 10.5V2.5C14.5 1.94771 14.0523 1.5 13.5 1.5H5.49997ZM12.4999 10.5H13.5V2.5L5.49997 2.5V3.5H11.4999C12.0522 3.5 12.4999 3.94772 12.4999 4.5V10.5ZM2.49988 4.5H11.4999V13.5H2.49988V4.5Z" fill="#3F465C"/>
<path d="M4.5 7.5H9.5" stroke="#3F465C" stroke-linecap="round"/>
<path d="M4.5 10.5H9.5" stroke="#3F465C" stroke-linecap="round"/>
</svg>
