<svg width="16" height="16" viewBox="0 0 16 16" fill="none" xmlns="http://www.w3.org/2000/svg">
<path d="M14.6431 8.00004C14.6431 8.82184 14.4939 9.60878 14.2211 10.3353C14.1503 10.5237 14.0129 10.8123 13.9143 11.0129C13.8425 11.1591 13.8303 11.328 13.8832 11.4821L14.5316 13.3696C14.5814 13.5145 14.4563 13.6593 14.3056 13.6311L12.3777 13.27C12.2074 13.2381 12.0326 13.2826 11.8923 13.3842C11.6237 13.5787 11.34 13.7536 11.0432 13.9068C10.1314 14.3776 9.09666 14.6434 7.99979 14.6434C4.33077 14.6434 1.35645 11.6691 1.35645 8.00004C1.35645 4.33102 4.33077 1.35669 7.99979 1.35669C11.6688 1.35669 14.6431 4.33102 14.6431 8.00004Z" stroke="#3F465C"/>
<path d="M8.00001 8.95462V8.62949C8.00001 8.18766 8.37757 7.84573 8.77052 7.64373C9.31514 7.36378 9.68771 6.79629 9.68771 6.1418C9.68771 5.20971 8.9321 4.4541 8.00001 4.4541C7.06792 4.4541 6.31232 5.20971 6.31232 6.1418" stroke="#3F465C" stroke-linecap="round" stroke-linejoin="round"/>
<path fill-rule="evenodd" clip-rule="evenodd" d="M8.00005 11.546C8.38625 11.546 8.69932 11.2329 8.69932 10.8467C8.69932 10.4605 8.38625 10.1475 8.00005 10.1475C7.61386 10.1475 7.30078 10.4605 7.30078 10.8467C7.30078 11.2329 7.61386 11.546 8.00005 11.546Z" fill="#3F465C"/>
</svg>
