<svg width="16" height="16" viewBox="0 0 16 16" fill="none" xmlns="http://www.w3.org/2000/svg">
<path d="M2.64803 11.5312L3.13607 11.6399C3.16893 11.4923 3.13327 11.3378 3.03908 11.2196L2.64803 11.5312ZM2.18078 13.6295L1.69273 13.5208C1.65484 13.691 1.70832 13.8686 1.83386 13.9896C1.95941 14.1105 2.13889 14.1574 2.30753 14.1132L2.18078 13.6295ZM10.0748 3.13746C10.3271 3.24989 10.6227 3.13657 10.7351 2.88435C10.8475 2.63213 10.7342 2.33652 10.482 2.2241L10.0748 3.13746ZM4.03149 13.6631C4.29912 13.5951 4.46092 13.3229 4.39288 13.0553C4.32484 12.7877 4.05272 12.6259 3.78509 12.6939L4.03149 13.6631ZM1.90039 7.99997C1.90039 5.05598 4.436 2.62134 7.62483 2.62134V1.62134C3.93834 1.62134 0.900391 4.45061 0.900391 7.99997H1.90039ZM3.03908 11.2196C2.32214 10.3198 1.90039 9.20553 1.90039 7.99997H0.900391C0.900391 9.44484 1.40723 10.7762 2.25697 11.8427L3.03908 11.2196ZM2.66882 13.7382L3.13607 11.6399L2.15998 11.4225L1.69273 13.5208L2.66882 13.7382ZM7.62483 2.62134C8.50308 2.62134 9.33329 2.80691 10.0748 3.13746L10.482 2.2241C9.61364 1.83703 8.64484 1.62134 7.62483 1.62134V2.62134ZM3.78509 12.6939C3.67201 12.7227 3.23775 12.836 2.83482 12.9414C2.63268 12.9943 2.43748 13.0454 2.29283 13.0833C2.2205 13.1022 2.16081 13.1179 2.11919 13.1288C2.09838 13.1342 2.08209 13.1385 2.071 13.1414C2.06546 13.1428 2.06122 13.1439 2.05836 13.1447C2.05693 13.1451 2.05585 13.1454 2.05512 13.1455C2.05476 13.1456 2.05448 13.1457 2.0543 13.1458C2.05421 13.1458 2.05414 13.1458 2.05409 13.1458C2.05407 13.1458 2.05405 13.1458 2.05404 13.1458C2.05403 13.1458 2.05402 13.1458 2.18078 13.6295C2.30753 14.1132 2.30754 14.1132 2.30755 14.1132C2.30756 14.1132 2.30758 14.1132 2.3076 14.1131C2.30764 14.1131 2.30771 14.1131 2.3078 14.1131C2.30799 14.113 2.30826 14.113 2.30862 14.1129C2.30934 14.1127 2.31042 14.1124 2.31185 14.112C2.3147 14.1113 2.31894 14.1102 2.32448 14.1087C2.33555 14.1058 2.35183 14.1016 2.37262 14.0961C2.41421 14.0852 2.47388 14.0696 2.54617 14.0507C2.69076 14.0128 2.88584 13.9617 3.08784 13.9089C3.49319 13.8029 3.92269 13.6908 4.03149 13.6631L3.78509 12.6939Z" fill="#3F465C"/>
<path d="M13.5661 12.4499L13.0826 12.5775C13.0373 12.4056 13.0866 12.2226 13.2121 12.0967L13.5661 12.4499ZM13.882 13.6475L14.3655 13.52H14.3655L13.882 13.6475ZM13.5776 13.9875L13.6513 13.4929H13.6513L13.5776 13.9875ZM11.6205 13.696L11.5468 14.1905C11.3551 14.162 11.1972 14.0252 11.1415 13.8396C11.0859 13.654 11.1425 13.4529 11.2869 13.3236L11.6205 13.696ZM11.6236 13.6932L11.4487 13.2248C11.6739 13.1407 11.9271 13.2287 12.0515 13.4344C12.1759 13.6401 12.1363 13.9052 11.9573 14.0656L11.6236 13.6932ZM4.73077 9.05249C4.73077 11.5035 6.88214 13.5525 9.61538 13.5525V14.5525C6.40094 14.5525 3.73077 12.1243 3.73077 9.05249H4.73077ZM9.61538 4.55249C6.88214 4.55249 4.73077 6.60146 4.73077 9.05249H3.73077C3.73077 5.98068 6.40094 3.55249 9.61538 3.55249V4.55249ZM14.5 9.05249C14.5 6.60146 12.3486 4.55249 9.61538 4.55249V3.55249C12.8298 3.55249 15.5 5.98067 15.5 9.05249H14.5ZM13.2121 12.0967C14.0161 11.291 14.5 10.2215 14.5 9.05249H15.5C15.5 10.507 14.8959 11.8251 13.92 12.8031L13.2121 12.0967ZM13.3986 13.7751L13.0826 12.5775L14.0495 12.3224L14.3655 13.52L13.3986 13.7751ZM13.6513 13.4929C13.4901 13.4689 13.357 13.6176 13.3986 13.7751L14.3655 13.52C14.5072 14.057 14.0533 14.5638 13.504 14.482L13.6513 13.4929ZM11.6941 13.2014L13.6513 13.4929L13.504 14.482L11.5468 14.1905L11.6941 13.2014ZM11.9573 14.0656L11.9541 14.0684L11.2869 13.3236L11.29 13.3207L11.9573 14.0656ZM9.61538 13.5525C10.2651 13.5525 10.8837 13.4358 11.4487 13.2248L11.7986 14.1616C11.1224 14.4141 10.3854 14.5525 9.61538 14.5525V13.5525Z" fill="#3F465C"/>
<path d="M7.82113 8.65227C7.89201 8.48868 8.05327 8.38281 8.23156 8.38281C8.55346 8.38281 8.76998 8.71261 8.64199 9.00797L8.05465 10.3634C7.98377 10.5269 7.82251 10.6328 7.64422 10.6328C7.32232 10.6328 7.1058 10.303 7.23379 10.0077L7.82113 8.65227Z" fill="#3F465C"/>
<path d="M9.79574 8.65227C9.86662 8.48868 10.0279 8.38281 10.2062 8.38281C10.5281 8.38281 10.7446 8.71261 10.6166 9.00797L10.0293 10.3634C9.95838 10.5269 9.79712 10.6328 9.61883 10.6328C9.29693 10.6328 9.08041 10.303 9.2084 10.0077L9.79574 8.65227Z" fill="#3F465C"/>
<path d="M11.7703 8.65227C11.8412 8.48868 12.0025 8.38281 12.1808 8.38281C12.5027 8.38281 12.7192 8.71261 12.5912 9.00797L12.0039 10.3634C11.933 10.5269 11.7717 10.6328 11.5934 10.6328C11.2715 10.6328 11.055 10.303 11.183 10.0077L11.7703 8.65227Z" fill="#3F465C"/>
</svg>
