<svg width="16" height="16" viewBox="0 0 16 16" fill="none" xmlns="http://www.w3.org/2000/svg">
<path d="M10.75 2.5V3V2.5ZM13 13H3V14H13V13ZM3 13V3H2V13H3ZM3 3H10.75V2H3V3ZM10.75 3H13V2H10.75V3ZM13 3V13H14V3H13ZM13 3H14C14 2.44772 13.5523 2 13 2V3ZM3 13H3H2C2 13.5523 2.44772 14 3 14V13ZM13 14C13.5523 14 14 13.5523 14 13H13V14ZM3 3V3V2C2.44772 2 2 2.44772 2 3H3Z" fill="#3F465C"/>
<path d="M5 2V7H11V2" stroke="#3F465C" stroke-linejoin="round"/>
<path d="M9 4.19995V5.19995" stroke="#3F465C" stroke-linecap="round"/>
</svg>
