<svg width="16" height="16" viewBox="0 0 16 16" fill="none" xmlns="http://www.w3.org/2000/svg">
<path d="M8 1.5C8.27614 1.5 8.5 1.72386 8.5 2C8.5 2.27614 8.27614 2.5 8 2.5V1.5ZM13.5 8C13.5 7.72386 13.7239 7.5 14 7.5C14.2761 7.5 14.5 7.72386 14.5 8H13.5ZM2.5 13.5H13.5V14.5H2.5V13.5ZM2.5 2.5V13.5H1.5V2.5H2.5ZM8 2.5H2.5V1.5H8V2.5ZM13.5 13.5V8H14.5V13.5H13.5ZM1.5 2.5C1.5 1.94772 1.94771 1.5 2.5 1.5V2.5H2.5H1.5ZM13.5 13.5H14.5C14.5 14.0523 14.0523 14.5 13.5 14.5V13.5ZM2.5 14.5C1.94771 14.5 1.5 14.0523 1.5 13.5H2.5V13.5V14.5Z" fill="#3F465C"/>
<path d="M6.05412 6.17388C5.83754 5.92308 5.45865 5.89534 5.20785 6.11191C4.95705 6.32849 4.92931 6.70737 5.14588 6.95817L6.05412 6.17388ZM7.87444 9.1999L7.42032 9.59205C7.52842 9.71723 7.6834 9.79224 7.84865 9.79935C8.01389 9.80646 8.17474 9.74504 8.29319 9.62961L7.87444 9.1999ZM13.2188 4.82961C13.4561 4.59834 13.461 4.21847 13.2297 3.98115C12.9984 3.74383 12.6186 3.73893 12.3812 3.9702L13.2188 4.82961ZM5.14588 6.95817L7.42032 9.59205L8.32856 8.80776L6.05412 6.17388L5.14588 6.95817ZM8.29319 9.62961L13.2188 4.82961L12.3812 3.9702L7.45569 8.7702L8.29319 9.62961Z" fill="#3F465C"/>
</svg>
