<svg width="16" height="16" viewBox="0 0 16 16" fill="none" xmlns="http://www.w3.org/2000/svg">
<path d="M3.40001 13.5V3.30005H5.50001V1.80005H10.5V3.30005H12.6V13.5C12.6 13.7762 12.3762 14 12.1 14H3.90001C3.62387 14 3.40001 13.7762 3.40001 13.5Z" fill="#3F465C"/>
<path d="M2.20001 2.80005C1.92387 2.80005 1.70001 3.02391 1.70001 3.30005C1.70001 3.57619 1.92387 3.80005 2.20001 3.80005V2.80005ZM13.8 3.80005C14.0762 3.80005 14.3 3.57619 14.3 3.30005C14.3 3.02391 14.0762 2.80005 13.8 2.80005V3.80005ZM5.50001 1.80005V1.30005C5.22387 1.30005 5.00001 1.52391 5.00001 1.80005H5.50001ZM10.5 1.80005H11C11 1.52391 10.7762 1.30005 10.5 1.30005V1.80005ZM2.20001 3.80005H3.40001V2.80005H2.20001V3.80005ZM2.90001 3.30005V13.5H3.90001V3.30005H2.90001ZM3.90001 14.5H12.1V13.5H3.90001V14.5ZM12.6 3.80005H13.8V2.80005H12.6V3.80005ZM13.1 13.5V3.30005H12.1V13.5H13.1ZM3.40001 3.80005H5.50001V2.80005H3.40001V3.80005ZM5.50001 3.80005H7.95001V2.80005H5.50001V3.80005ZM6.00001 3.30005V1.80005H5.00001V3.30005H6.00001ZM5.50001 2.30005H10.5V1.30005H5.50001V2.30005ZM7.95001 3.80005H10.5V2.80005H7.95001V3.80005ZM10.5 3.80005H12.6V2.80005H10.5V3.80005ZM10 1.80005V3.30005H11V1.80005H10ZM12.1 14.5C12.6523 14.5 13.1 14.0523 13.1 13.5H12.1H12.1V14.5ZM2.90001 13.5C2.90001 14.0523 3.34773 14.5 3.90001 14.5V13.5V13.5H2.90001Z" fill="#3F465C"/>
<path d="M7.20001 6.5C7.20001 6.22386 6.97615 6 6.70001 6C6.42387 6 6.20001 6.22386 6.20001 6.5H7.20001ZM6.20001 11C6.20001 11.2761 6.42387 11.5 6.70001 11.5C6.97615 11.5 7.20001 11.2761 7.20001 11H6.20001ZM9.80001 6.5C9.80001 6.22386 9.57615 6 9.30001 6C9.02387 6 8.80001 6.22386 8.80001 6.5H9.80001ZM8.80001 11C8.80001 11.2761 9.02387 11.5 9.30001 11.5C9.57615 11.5 9.80001 11.2761 9.80001 11H8.80001ZM6.20001 6.5V11H7.20001V6.5H6.20001ZM8.80001 6.5V11H9.80001V6.5H8.80001Z" fill="white"/>
</svg>
