<svg width="16" height="16" viewBox="0 0 16 16" fill="none" xmlns="http://www.w3.org/2000/svg">
<path fill-rule="evenodd" clip-rule="evenodd" d="M9.89944 3.3369C12.001 4.11027 13.5 6.13013 13.5 8.50009C13.5 8.87645 13.4622 9.24397 13.3902 9.59908C13.2053 9.53494 13.0067 9.50009 12.8 9.50009C12.6543 9.50009 12.5125 9.51741 12.3768 9.55011C12.4574 9.21323 12.5 8.86164 12.5 8.50009C12.5 6.5788 11.2959 4.93873 9.60122 4.2933C9.78359 4.01817 9.89235 3.69001 9.89944 3.3369ZM8 14.0001C9.3812 14.0001 10.6435 13.491 11.6094 12.6501C11.3543 12.425 11.1635 12.1286 11.0681 11.7921C10.2643 12.5415 9.18568 13.0001 8 13.0001C7.02326 13.0001 6.1192 12.6889 5.38156 12.1603C5.21726 12.4617 4.96928 12.711 4.66882 12.8769C5.59333 13.5816 6.7478 14.0001 8 14.0001ZM2.67782 9.89263C2.56177 9.44788 2.5 8.9812 2.5 8.50009C2.5 6.05579 4.0945 3.9839 6.30009 3.26782L6.2998 3.30009C6.2998 3.64245 6.39539 3.96249 6.56132 4.23498C4.78157 4.83508 3.5 6.51792 3.5 8.50009C3.5 8.84718 3.5393 9.18509 3.61368 9.50962C3.26178 9.54581 2.93992 9.68337 2.67782 9.89263Z" fill="#3F465C"/>
<circle cx="8.0998" cy="3.3" r="1.8" stroke="#3F465C"/>
<circle cx="12.8" cy="11.3" r="1.8" stroke="#3F465C"/>
<circle cx="3.8" cy="11.3" r="1.8" stroke="#3F465C"/>
</svg>
