<svg width="16" height="16" viewBox="0 0 16 16" fill="none" xmlns="http://www.w3.org/2000/svg">
<path fill-rule="evenodd" clip-rule="evenodd" d="M2.10001 2.43994C1.82386 2.43994 1.60001 2.6638 1.60001 2.93994V6.73994C1.60001 7.01608 1.82386 7.23994 2.10001 7.23994H5.90001C6.17615 7.23994 6.40001 7.01608 6.40001 6.73994V2.93994C6.40001 2.6638 6.17615 2.43994 5.90001 2.43994H2.10001ZM2.60001 6.23994V3.43994H5.40001V6.23994H2.60001ZM2.10001 8.79C1.82386 8.79 1.60001 9.01386 1.60001 9.29V13.09C1.60001 13.3661 1.82386 13.59 2.10001 13.59H5.90001C6.17615 13.59 6.40001 13.3661 6.40001 13.09V9.29C6.40001 9.01386 6.17615 8.79 5.90001 8.79H2.10001ZM2.60001 12.59V9.79H5.40001V12.59H2.60001ZM8 3.11432C8 2.83818 8.22386 2.61432 8.5 2.61432L13.9 2.61432C14.1761 2.61432 14.4 2.83818 14.4 3.11432C14.4 3.39046 14.1761 3.61432 13.9 3.61432L8.5 3.61432C8.22386 3.61432 8 3.39046 8 3.11432ZM8.5 9.01422C8.22386 9.01422 8 9.23808 8 9.51422C8 9.79037 8.22386 10.0142 8.5 10.0142L13.9 10.0142C14.1761 10.0142 14.4 9.79037 14.4 9.51422C14.4 9.23808 14.1761 9.01422 13.9 9.01422L8.5 9.01422ZM8 12.8743C8 12.5982 8.22386 12.3743 8.5 12.3743L13.9 12.3743C14.1761 12.3743 14.4 12.5982 14.4 12.8743C14.4 13.1505 14.1761 13.3743 13.9 13.3743L8.5 13.3743C8.22386 13.3743 8 13.1505 8 12.8743ZM8.5 5.97431C8.22386 5.97431 8 6.19816 8 6.47431C8 6.75045 8.22386 6.97431 8.5 6.97431L13.9 6.97431C14.1761 6.97431 14.4 6.75045 14.4 6.47431C14.4 6.19816 14.1761 5.97431 13.9 5.97431L8.5 5.97431Z" fill="#3F465C"/>
</svg>
