<svg width="16" height="16" viewBox="0 0 16 16" fill="none" xmlns="http://www.w3.org/2000/svg">
<path d="M7 5.5V6H7.5V5.5H7ZM9 5.5H8.5V6H9V5.5ZM7.5 2.25C7.5 2.38807 7.38807 2.5 7.25 2.5V1.5C6.83579 1.5 6.5 1.83579 6.5 2.25H7.5ZM7.5 5.5V2.25H6.5V5.5H7.5ZM2.75 6H7V5H2.75V6ZM3 5.75C3 5.88807 2.88807 6 2.75 6V5C2.33579 5 2 5.33579 2 5.75H3ZM3 8.25V5.75H2V8.25H3ZM2.75 8C2.88807 8 3 8.11193 3 8.25H2C2 8.66421 2.33579 9 2.75 9V8ZM13.25 8H2.75V9H13.25V8ZM13 8.25C13 8.11193 13.1119 8 13.25 8V9C13.6642 9 14 8.66421 14 8.25H13ZM13 5.75V8.25H14V5.75H13ZM13.25 6C13.1119 6 13 5.88807 13 5.75H14C14 5.33579 13.6642 5 13.25 5V6ZM9 6H13.25V5H9V6ZM8.5 2.25V5.5H9.5V2.25H8.5ZM8.75 2.5C8.61193 2.5 8.5 2.38807 8.5 2.25H9.5C9.5 1.83579 9.16421 1.5 8.75 1.5V2.5ZM7.25 2.5H8.75V1.5H7.25V2.5Z" fill="#3F465C"/>
<path d="M3.45981 8.64738C3.48354 8.56036 3.56257 8.5 3.65276 8.5H12.3472C12.4374 8.5 12.5165 8.56036 12.5402 8.64738L13.9139 13.6842C13.9573 13.8433 13.8375 14 13.6727 14H2.32731C2.16247 14 2.04275 13.8433 2.08612 13.6842L3.45981 8.64738Z" stroke="#3F465C"/>
<path d="M6 11V13.5" stroke="#3F465C" stroke-linecap="round"/>
<path d="M10 11V14" stroke="#3F465C" stroke-linecap="round"/>
</svg>
