<svg width="16" height="16" viewBox="0 0 16 16" fill="none" xmlns="http://www.w3.org/2000/svg">
<path d="M2.5 2.5H13.5" stroke="#3F465C" stroke-linecap="round"/>
<path fill-rule="evenodd" clip-rule="evenodd" d="M10.5703 6.86321L8.35355 4.64645C8.15829 4.45118 7.84171 4.45118 7.64645 4.64645L3.14645 9.14645L2.89645 9.39645C2.70118 9.59171 2.70118 9.90829 2.89645 10.1036C3.09171 10.2988 3.40829 10.2988 3.60355 10.1036L3.85355 9.85355L7.5 6.20711V10.1421L8.5 9.07415V6.20711L9.88643 7.59354L10.5703 6.86321ZM11.2778 7.5707L10.5939 8.30103L12.3964 10.1036C12.5917 10.2988 12.9083 10.2988 13.1036 10.1036C13.2988 9.90829 13.2988 9.59171 13.1036 9.39645L11.2778 7.5707ZM8.5 10.5372L7.5 11.6051V14.5C7.5 14.7761 7.72386 15 8 15C8.27614 15 8.5 14.7761 8.5 14.5V10.5372Z" fill="#3F465C"/>
<path d="M3.89502 13.105L13 4" stroke="#3F465C" stroke-linecap="round"/>
</svg>
