<svg width="16" height="16" viewBox="0 0 16 16" fill="none" xmlns="http://www.w3.org/2000/svg">
<path d="M2 12.5C2 10.8431 3.34315 9.5 5 9.5H10C11.6569 9.5 13 10.8431 13 12.5V13C13 13.5523 12.5523 14 12 14H3C2.44771 14 2 13.5523 2 13V12.5Z" fill="#3F465C"/>
<path d="M5 10H10V9H5V10ZM12.5 12.5V13H13.5V12.5H12.5ZM12 13.5H3V14.5H12V13.5ZM2.5 13V12.5H1.5V13H2.5ZM3 13.5C2.72386 13.5 2.5 13.2761 2.5 13H1.5C1.5 13.8284 2.17157 14.5 3 14.5V13.5ZM12.5 13C12.5 13.2761 12.2761 13.5 12 13.5V14.5C12.8284 14.5 13.5 13.8284 13.5 13H12.5ZM10 10C11.3807 10 12.5 11.1193 12.5 12.5H13.5C13.5 10.567 11.933 9 10 9V10ZM5 9C3.067 9 1.5 10.567 1.5 12.5H2.5C2.5 11.1193 3.61929 10 5 10V9Z" fill="#3F465C"/>
<circle cx="7.5" cy="5" r="2.5" fill="#3F465C" stroke="#3F465C"/>
<path d="M12.3336 5.8313C12.0574 5.8313 11.8336 6.05516 11.8336 6.3313C11.8336 6.60744 12.0574 6.8313 12.3336 6.8313V5.8313ZM15.0003 6.8313C15.2764 6.8313 15.5003 6.60744 15.5003 6.3313C15.5003 6.05516 15.2764 5.8313 15.0003 5.8313V6.8313ZM12.3336 6.8313H15.0003V5.8313H12.3336V6.8313Z" fill="#3F465C"/>
<path d="M14.1664 4.99805C14.1664 4.7219 13.9426 4.49805 13.6664 4.49805C13.3903 4.49805 13.1664 4.7219 13.1664 4.99805L14.1664 4.99805ZM13.1664 7.66471C13.1664 7.94086 13.3903 8.16471 13.6664 8.16471C13.9426 8.16471 14.1664 7.94086 14.1664 7.66471L13.1664 7.66471ZM13.1664 4.99805L13.1664 7.66471L14.1664 7.66471L14.1664 4.99805L13.1664 4.99805Z" fill="#3F465C"/>
</svg>
