<svg width="16" height="16" viewBox="0 0 16 16" fill="none" xmlns="http://www.w3.org/2000/svg">
<path fill-rule="evenodd" clip-rule="evenodd" d="M1.5 2C1.5 1.44772 1.94771 1 2.5 1H8.79289C9.05811 1 9.31246 1.10536 9.5 1.29289L13.2071 5C13.3946 5.18754 13.5 5.44189 13.5 5.70711V7C13.5 7.27614 13.2761 7.5 13 7.5C12.7239 7.5 12.5 7.27614 12.5 7V5.70711L8.79289 2L2.5 2V14H4.5C4.77614 14 5 14.2239 5 14.5C5 14.7761 4.77614 15 4.5 15H2.5C1.94772 15 1.5 14.5523 1.5 14V2Z" fill="#3F465C"/>
<path d="M9 1.5V5.5H13" stroke="#3F465C" stroke-linejoin="round"/>
<mask id="path-3-inside-1_5124_53461" fill="white">
<path fill-rule="evenodd" clip-rule="evenodd" d="M8.75 14.9999C7.50736 14.9999 6.5 13.9813 6.5 12.7249C6.5 11.5513 7.37889 10.5853 8.50748 10.463C8.78845 9.33499 9.79837 8.5 11.0012 8.5C12.2041 8.5 13.2141 9.33516 13.4949 10.4633C14.6223 10.5868 15.4998 11.5523 15.4998 12.725C15.4998 13.9813 14.4926 14.9998 13.25 15V15H8.75V14.9999Z"/>
</mask>
<path d="M8.75 14.9999H9.75V13.9999H8.75V14.9999ZM8.50748 10.463L8.61521 11.4571L9.30912 11.3819L9.47783 10.7047L8.50748 10.463ZM13.4949 10.4633L12.5245 10.7049L12.693 11.3814L13.386 11.4573L13.4949 10.4633ZM13.25 15L13.2499 14L12.25 14V15H13.25ZM13.25 15V16H14.25V15H13.25ZM8.75 15H7.75V16H8.75V15ZM8.75 13.9999C8.07003 13.9999 7.5 13.4395 7.5 12.7249H5.5C5.5 14.5232 6.94469 15.9999 8.75 15.9999V13.9999ZM7.5 12.7249C7.5 12.0586 7.99752 11.5241 8.61521 11.4571L8.39975 9.46878C6.76027 9.64643 5.5 11.044 5.5 12.7249H7.5ZM9.47783 10.7047C9.65216 10.0048 10.2753 9.5 11.0012 9.5V7.5C9.32145 7.5 7.92475 8.66515 7.53713 10.2212L9.47783 10.7047ZM11.0012 9.5C11.7271 9.5 12.3503 10.0049 12.5245 10.7049L14.4653 10.2217C14.0778 8.66538 12.681 7.5 11.0012 7.5V9.5ZM13.386 11.4573C14.0031 11.5249 14.4998 12.0592 14.4998 12.725H16.4998C16.4998 11.0453 15.2415 9.64864 13.6038 9.46924L13.386 11.4573ZM14.4998 12.725C14.4998 13.4395 13.9298 13.9999 13.2499 14L13.2501 16C15.0553 15.9998 16.4998 14.5231 16.4998 12.725H14.4998ZM12.25 15V15H14.25V15H12.25ZM13.25 14H8.75V16H13.25V14ZM9.75 15V14.9999H7.75V15H9.75Z" fill="#3F465C" mask="url(#path-3-inside-1_5124_53461)"/>
</svg>
