<svg width="16" height="16" viewBox="0 0 16 16" fill="none" xmlns="http://www.w3.org/2000/svg">
<g clip-path="url(#clip0_5179_55154)">
<g clip-path="url(#clip1_5179_55154)">
<path d="M9.9532 10.4533L13.0468 13.5469M9.9532 13.5469L13.0468 10.4533" stroke="#3F465C" stroke-linecap="round"/>
</g>
<path fill-rule="evenodd" clip-rule="evenodd" d="M8 9.5C8 9.22386 7.77614 9 7.5 9H5.5C3.567 9 2 10.567 2 12.5V13C2 13.8284 2.67157 14.5 3.5 14.5H7.5C7.77614 14.5 8 14.2761 8 14C8 13.7239 7.77614 13.5 7.5 13.5H3.5C3.22386 13.5 3 13.2761 3 13V12.5C3 11.1193 4.11929 10 5.5 10H7.5C7.77614 10 8 9.77614 8 9.5Z" fill="#3F465C"/>
<circle cx="8" cy="5" r="2.5" stroke="#3F465C"/>
</g>
<defs>
<clipPath id="clip0_5179_55154">
<rect width="16" height="16" fill="white"/>
</clipPath>
<clipPath id="clip1_5179_55154">
<rect width="7" height="7" fill="white" transform="translate(11.5 7.05029) rotate(45)"/>
</clipPath>
</defs>
</svg>
