<svg width="16" height="16" viewBox="0 0 16 16" fill="none" xmlns="http://www.w3.org/2000/svg">
<path d="M2.5 2.5H13.5" stroke="#3F465C" stroke-linecap="round"/>
<path d="M8 5L8 14.5" stroke="#3F465C" stroke-linecap="round"/>
<path d="M8 5L8.35355 4.64645C8.15829 4.45118 7.84171 4.45118 7.64645 4.64645L8 5ZM2.89645 9.39645C2.70118 9.59171 2.70118 9.90829 2.89645 10.1036C3.09171 10.2988 3.40829 10.2988 3.60355 10.1036L2.89645 9.39645ZM12.3964 10.1036C12.5917 10.2988 12.9083 10.2988 13.1036 10.1036C13.2988 9.90829 13.2988 9.59171 13.1036 9.39645L12.3964 10.1036ZM7.64645 4.64645L3.14645 9.14645L3.85355 9.85355L8.35355 5.35355L7.64645 4.64645ZM3.14645 9.14645L2.89645 9.39645L3.60355 10.1036L3.85355 9.85355L3.14645 9.14645ZM13.1036 9.39645L8.35355 4.64645L7.64645 5.35355L12.3964 10.1036L13.1036 9.39645Z" fill="#3F465C"/>
</svg>
