<svg width="16" height="16" viewBox="0 0 16 16" fill="none" xmlns="http://www.w3.org/2000/svg">
<path d="M8 15C9.933 15 11.683 14.2165 12.9497 12.9497C14.2165 11.683 15 9.933 15 8C15 6.067 14.2165 4.317 12.9497 3.05025C11.683 1.7835 9.933 1 8 1C6.067 1 4.317 1.7835 3.05025 3.05025C1.7835 4.317 1 6.067 1 8C1 9.933 1.7835 11.683 3.05025 12.9497C4.317 14.2165 6.067 15 8 15Z" fill="#3F465C"/>
<path d="M7.99995 9.40652V9.08139C7.99995 8.63957 8.37751 8.29763 8.77046 8.09564C9.31508 7.81568 9.68764 7.2482 9.68764 6.5937C9.68764 5.66161 8.93204 4.90601 7.99995 4.90601C7.06786 4.90601 6.31226 5.66161 6.31226 6.5937" stroke="white" stroke-linecap="round" stroke-linejoin="round"/>
<path fill-rule="evenodd" clip-rule="evenodd" d="M8.00005 11.9979C8.38625 11.9979 8.69932 11.6848 8.69932 11.2986C8.69932 10.9124 8.38625 10.5994 8.00005 10.5994C7.61386 10.5994 7.30078 10.9124 7.30078 11.2986C7.30078 11.6848 7.61386 11.9979 8.00005 11.9979Z" fill="white"/>
</svg>
