<svg width="16" height="16" viewBox="0 0 16 16" fill="none" xmlns="http://www.w3.org/2000/svg">
<path d="M6.3459 5.30005L7.98227 6.93641L9.61863 5.30005" stroke="#3F465C" stroke-linecap="round"/>
<path d="M5.7998 7.48193L10.1634 7.48193" stroke="#3F465C" stroke-linecap="round"/>
<path d="M5.7998 9.66357L10.1634 9.66357" stroke="#3F465C" stroke-linecap="round"/>
<path d="M7.98162 6.93652V11.3002" stroke="#3F465C" stroke-linecap="round"/>
<path d="M14.4997 8C14.4997 7.72386 14.2758 7.5 13.9997 7.5C13.7236 7.5 13.4997 7.72386 13.4997 8L14.4997 8ZM1.49969 8C1.49969 8.27614 1.72355 8.5 1.99969 8.5C2.27584 8.5 2.49969 8.27614 2.49969 8L1.49969 8ZM2.01282 7.6L2.51174 7.63284L2.01282 7.6ZM13.9866 8.4L13.4877 8.36716L13.9866 8.4ZM12.7667 5.25464C12.9047 5.49379 13.2105 5.57575 13.4497 5.43769C13.6888 5.29963 13.7708 4.99384 13.6327 4.75469L12.7667 5.25464ZM3.23519 10.7496C3.09692 10.5106 2.79106 10.4289 2.55202 10.5672C2.31299 10.7055 2.23131 11.0113 2.36958 11.2504L3.23519 10.7496ZM2.49969 8C2.49969 7.87655 2.50375 7.75413 2.51174 7.63284L1.5139 7.56716C1.50447 7.71029 1.49969 7.85462 1.49969 8L2.49969 8ZM2.51174 7.63284C2.70039 4.76671 5.08554 2.5 7.9997 2.5L7.9997 1.5C4.55526 1.5 1.73691 4.17887 1.5139 7.56716L2.51174 7.63284ZM13.4997 8C13.4997 8.12345 13.4956 8.24587 13.4877 8.36716L14.4855 8.43284C14.4949 8.28971 14.4997 8.14538 14.4997 8L13.4997 8ZM13.4877 8.36716C13.299 11.2333 10.9139 13.5 7.9997 13.5L7.9997 14.5C11.4441 14.5 14.2625 11.8211 14.4855 8.43284L13.4877 8.36716ZM7.9997 2.5C10.0366 2.5 11.8156 3.60702 12.7667 5.25464L13.6327 4.75469C12.5103 2.81035 10.4083 1.5 7.9997 1.5L7.9997 2.5ZM7.9997 13.5C5.96455 13.5 4.18692 12.3949 3.23519 10.7496L2.36958 11.2504C3.49271 13.1919 5.59315 14.5 7.9997 14.5L7.9997 13.5Z" fill="#3F465C"/>
<path d="M1.50932 8.44681H2.48922L1.99927 8.93676L1.50932 8.44681Z" stroke="#3F465C"/>
<path d="M14.4896 7.55319L13.5097 7.55319L13.9997 7.06324L14.4896 7.55319Z" stroke="#3F465C"/>
</svg>
