<svg width="202" height="278" viewBox="0 0 202 278" fill="none" xmlns="http://www.w3.org/2000/svg">
<g filter="url(#filter0_d_13221_225074)">
<path fill-rule="evenodd" clip-rule="evenodd" d="M51.7585 3.5802C53.2987 2.1306 55.7013 2.1306 57.2415 3.5802L60.9649 7.08457C61.7068 7.78291 62.6874 8.17177 63.7063 8.17177H192C194.209 8.17177 196 9.96263 196 12.1718V264.172C196 266.381 194.209 268.172 192 268.172H10C7.79087 268.172 6 266.381 6 264.172V12.1718C6 9.96263 7.79086 8.17177 10 8.17177H45.2937C46.3126 8.17177 47.2932 7.78291 48.0351 7.08457L51.7585 3.5802Z" fill="white"/>
<path d="M57.2415 3.5802L56.2134 4.6725L56.2134 4.6725L57.2415 3.5802ZM51.7585 3.5802L52.7866 4.6725L52.7866 4.6725L51.7585 3.5802ZM48.0351 7.08457L47.0071 5.99227L48.0351 7.08457ZM60.9649 7.08457L61.9929 5.99227L60.9649 7.08457ZM58.2695 2.4879C56.1517 0.4947 52.8483 0.494696 50.7305 2.4879L52.7866 4.6725C53.7492 3.7665 55.2508 3.7665 56.2134 4.6725L58.2695 2.4879ZM61.9929 5.99227L58.2695 2.4879L56.2134 4.6725L59.9368 8.17687L61.9929 5.99227ZM63.7063 9.67177H192V6.67177H63.7063V9.67177ZM192 9.67177C193.381 9.67177 194.5 10.7911 194.5 12.1718H197.5C197.5 9.1342 195.038 6.67177 192 6.67177V9.67177ZM194.5 12.1718V264.172H197.5V12.1718H194.5ZM194.5 264.172C194.5 265.552 193.381 266.672 192 266.672V269.672C195.038 269.672 197.5 267.209 197.5 264.172H194.5ZM192 266.672H10V269.672H192V266.672ZM10 266.672C8.61929 266.672 7.5 265.552 7.5 264.172H4.5C4.5 267.209 6.96244 269.672 10 269.672V266.672ZM7.5 264.172V12.1718H4.5V264.172H7.5ZM7.5 12.1718C7.5 10.7911 8.61929 9.67177 10 9.67177V6.67177C6.96243 6.67177 4.5 9.1342 4.5 12.1718H7.5ZM10 9.67177H45.2937V6.67177H10V9.67177ZM50.7305 2.4879L47.0071 5.99227L49.0632 8.17687L52.7866 4.6725L50.7305 2.4879ZM45.2937 9.67177C46.6947 9.67177 48.043 9.13709 49.0632 8.17687L47.0071 5.99227C46.5434 6.42874 45.9305 6.67177 45.2937 6.67177V9.67177ZM59.9368 8.17687C60.957 9.13709 62.3053 9.67177 63.7063 9.67177V6.67177C63.0695 6.67177 62.4566 6.42873 61.9929 5.99227L59.9368 8.17687Z" fill="#4C6AFF"/>
</g>
<path d="M56.474 53.882L55.634 54.162C55.634 53.196 55.648 52.118 55.648 50.928H52.834V48.632H51.546V50.928H49.278V52.216H51.546V52.3C51.504 56.108 50.482 58.866 48.494 60.588L49.488 61.47C51.672 59.538 52.778 56.486 52.834 52.3V52.216H54.332C54.304 56.066 54.262 58.32 54.178 58.992C54.08 59.72 53.744 60.084 53.156 60.084C52.82 60.084 52.414 60.056 51.966 60.028L52.288 61.246C52.792 61.288 53.156 61.316 53.38 61.316C54.612 61.316 55.298 60.742 55.438 59.608C55.522 58.838 55.592 57.186 55.634 54.652C55.956 55.52 56.264 56.5 56.572 57.592L57.566 57.13C57.244 55.982 56.88 54.89 56.474 53.882ZM49.432 53.84C49.124 55.1 48.606 56.192 47.892 57.102L48.788 57.942C49.516 57.046 50.09 55.772 50.482 54.106L49.432 53.84ZM44.532 51.712V52.958H46.044V61.442H47.318V52.958H48.774V51.712H47.318V48.604H46.044V51.712H44.532ZM69.382 61.386C70.278 61.386 70.74 60.854 70.74 59.818V48.982H59.26V61.428H60.59V50.27H69.41V59.524C69.41 59.916 69.256 60.112 68.948 60.112L67.184 60.056L67.548 61.386H69.382ZM61.43 51.6V52.832H68.57V51.6H61.43ZM62.158 54.106V58.796H67.856V54.106H62.158ZM66.568 57.606H63.446V55.296H66.568V57.606ZM74.156 53.532C73.792 54.96 73.246 56.094 72.518 56.962L73.512 57.83C74.268 56.934 74.87 55.66 75.332 53.994L74.156 53.532ZM77.054 48.562V51.166H73.666V52.454H76.998C76.886 54.232 76.592 55.73 76.116 56.948C75.528 58.292 74.436 59.412 72.84 60.294L73.568 61.456C75.234 60.616 76.438 59.44 77.166 57.914C77.81 56.5 78.202 54.68 78.342 52.454H81.464C81.394 55.632 81.254 57.718 81.03 58.698C80.792 59.622 80.33 60.098 79.644 60.098C79.224 60.098 78.776 60.084 78.3 60.056L78.664 61.344H80.302C81.016 61.288 81.534 60.98 81.856 60.392C82.178 59.776 82.416 58.712 82.556 57.2C82.612 56.416 82.668 55.492 82.724 54.456C83.284 55.576 83.83 56.836 84.334 58.208L85.552 57.62C84.95 56.094 84.32 54.708 83.676 53.448L82.752 53.896C82.78 53.056 82.794 52.146 82.822 51.166H78.398V48.562H77.054ZM90.354 48.646C89.528 51.25 88.268 53.35 86.588 54.932L87.638 55.842C89.276 54.302 90.592 52.062 91.586 49.136L90.354 48.646ZM95.618 56.066L94.428 56.472C94.932 57.228 95.408 58.068 95.87 58.992C94.022 59.272 92.09 59.482 90.102 59.622C91.25 58.04 92.398 56.066 93.518 53.7L92.216 53.252C90.424 57.214 89.038 59.356 88.044 59.678L88.282 60.966C91.278 60.77 93.98 60.49 96.416 60.126C96.612 60.546 96.794 60.994 96.99 61.442L98.236 60.882C97.508 59.174 96.626 57.578 95.618 56.066ZM95.38 48.534L94.246 49.178C95.044 51.908 96.458 54.134 98.488 55.87L99.44 54.778C97.508 53.168 96.164 51.082 95.38 48.534Z" fill="#272E47"/>
<rect x="26" y="80" width="150" height="38" rx="4" fill="white"/>
<circle cx="53" cy="104" r="5" fill="#EED9FF"/>
<rect x="48.5999" y="98" width="1.6" height="1.6" fill="#263789"/>
<rect x="52.2002" y="98" width="1.6" height="1.6" fill="#263789"/>
<rect x="55.8003" y="98" width="1.6" height="1.6" fill="#263789"/>
<mask id="path-10-inside-1_13221_225074" fill="white">
<path fill-rule="evenodd" clip-rule="evenodd" d="M46.5 93C45.9477 93 45.5 93.4477 45.5 94V103C45.5 103.552 45.9477 104 46.5 104H50.5L52.6464 106.146C52.8417 106.342 53.1583 106.342 53.3536 106.146L55.5 104H59.5C60.0523 104 60.5 103.552 60.5 103V94C60.5 93.4477 60.0523 93 59.5 93H46.5Z"/>
</mask>
<path d="M50.5 104L51.4192 103.081L51.0385 102.7H50.5V104ZM52.6464 106.146L53.5657 105.227L53.5657 105.227L52.6464 106.146ZM55.5 104V102.7H54.9615L54.5808 103.081L55.5 104ZM46.8 94C46.8 94.1657 46.6657 94.3 46.5 94.3V91.7C45.2297 91.7 44.2 92.7297 44.2 94H46.8ZM46.8 103V94H44.2V103H46.8ZM46.5 102.7C46.6657 102.7 46.8 102.834 46.8 103H44.2C44.2 104.27 45.2297 105.3 46.5 105.3V102.7ZM50.5 102.7H46.5V105.3H50.5V102.7ZM49.5808 104.919L51.7272 107.066L53.5657 105.227L51.4192 103.081L49.5808 104.919ZM51.7272 107.066C52.4301 107.769 53.5698 107.769 54.2728 107.066L52.4343 105.227C52.7467 104.915 53.2533 104.915 53.5657 105.227L51.7272 107.066ZM54.2728 107.066L56.4192 104.919L54.5808 103.081L52.4343 105.227L54.2728 107.066ZM59.5 102.7H55.5V105.3H59.5V102.7ZM59.2 103C59.2 102.834 59.3343 102.7 59.5 102.7V105.3C60.7703 105.3 61.8 104.27 61.8 103H59.2ZM59.2 94V103H61.8V94H59.2ZM59.5 94.3C59.3343 94.3 59.2 94.1657 59.2 94H61.8C61.8 92.7297 60.7703 91.7 59.5 91.7V94.3ZM46.5 94.3H59.5V91.7H46.5V94.3Z" fill="#263789" mask="url(#path-10-inside-1_13221_225074)"/>
<path d="M81.344 92.604V96.426H78.348V105.33H79.356V102.334H84.41V103.706C84.41 104.14 84.186 104.364 83.752 104.364L82.184 104.336L82.45 105.316H84.088C84.956 105.316 85.404 104.854 85.404 103.93V96.426H82.38V92.604H81.344ZM79.356 99.87H84.41V101.466H79.356V99.87ZM84.41 99.002H79.356V97.392H84.41V99.002ZM78.558 92.968L77.718 93.374C78.278 94.074 78.796 94.872 79.272 95.754L80.084 95.362C79.594 94.494 79.09 93.696 78.558 92.968ZM85.18 92.898C84.788 93.738 84.242 94.592 83.57 95.46L84.368 95.866C85.04 95.04 85.586 94.186 86.006 93.29L85.18 92.898ZM76.262 99.828C75.59 101.536 74.82 103.202 73.924 104.84L74.848 105.246C75.688 103.664 76.444 101.97 77.144 100.178L76.262 99.828ZM74.89 92.772L74.176 93.458C75.212 94.214 76.024 94.914 76.612 95.586L77.326 94.872C76.668 94.172 75.856 93.472 74.89 92.772ZM74.484 96.062L73.77 96.748C74.75 97.504 75.506 98.218 76.066 98.876L76.78 98.162C76.164 97.462 75.408 96.762 74.484 96.062ZM89.674 93.598V100.444H98.438V93.598H93.818C93.986 93.29 94.126 92.968 94.238 92.618L93.188 92.478C93.09 92.87 92.95 93.234 92.754 93.598H89.674ZM97.458 99.576H90.654V98.4H97.458V99.576ZM90.654 97.588V96.44H97.458V97.588H90.654ZM90.654 95.628V94.48H97.458V95.628H90.654ZM88.974 101.396C88.708 102.488 88.274 103.496 87.672 104.392L88.526 104.938C89.128 103.986 89.59 102.88 89.926 101.592L88.974 101.396ZM95.722 105.19C96.254 105.19 96.66 105.078 96.912 104.868C97.192 104.602 97.388 103.888 97.5 102.712L96.534 102.404C96.478 103.314 96.352 103.86 96.184 104.056C96.072 104.196 95.848 104.28 95.526 104.28H92.418C92.096 104.28 91.942 104.112 91.942 103.79V101.326H90.92V104C90.92 104.784 91.312 105.19 92.124 105.19H95.722ZM93.846 100.822L93.104 101.284C93.832 102.012 94.392 102.67 94.812 103.272L95.582 102.74C95.176 102.194 94.602 101.55 93.846 100.822ZM98.368 101.144L97.584 101.634C98.438 102.74 99.124 103.748 99.628 104.658L100.426 104.098C99.95 103.258 99.264 102.264 98.368 101.144Z" fill="#545A6E"/>
<circle cx="53" cy="137" r="5" fill="#FDDADF"/>
<path d="M47.9583 140.182H58.0417M48 147H58C58.2761 147 58.5 146.776 58.5 146.5V137.5C58.5 137.224 58.2761 137 58 137H48C47.7239 137 47.5 137.224 47.5 137.5V146.5C47.5 146.776 47.7239 147 48 147Z" stroke="#263789" stroke-width="1.3"/>
<path d="M50.5 135.5V138" stroke="#263789" stroke-width="1.3" stroke-linecap="round"/>
<path d="M55.5 135.5V138" stroke="#263789" stroke-width="1.3" stroke-linecap="round"/>
<path d="M84.466 135.122H75.814V147.344H76.822V146.266H83.444V147.33H84.466V135.122ZM76.822 145.286V141.072H83.444V145.286H76.822ZM76.822 140.092V136.102H83.444V140.092H76.822ZM100.02 135.248H88.792V140.372C88.75 143.06 88.33 145.174 87.532 146.686L88.316 147.386C89.268 145.622 89.758 143.284 89.814 140.372V136.228H100.02V135.248ZM99.432 139.406H95.26L95.302 138.3V136.942H94.28V138.3L94.238 139.406H90.864V140.316H94.154C94.014 141.52 93.748 142.556 93.356 143.438C92.726 144.698 91.62 145.72 90.038 146.49L90.598 147.372C92.222 146.616 93.398 145.552 94.126 144.18C94.658 143.144 95.008 141.856 95.176 140.316H98.424C98.382 143.004 98.27 144.67 98.088 145.314C97.92 145.958 97.486 146.28 96.786 146.308C96.352 146.294 95.792 146.266 95.106 146.238L95.372 147.19C96.016 147.218 96.576 147.232 97.024 147.232C97.892 147.232 98.508 146.854 98.872 146.126C99.222 145.384 99.404 143.144 99.432 139.406Z" fill="#545A6E"/>
<circle cx="53" cy="178" r="5" fill="#D1EDDE"/>
<path fill-rule="evenodd" clip-rule="evenodd" d="M47.6501 177.15V188.85H49.5001C49.8591 188.85 50.1501 189.141 50.1501 189.5C50.1501 189.859 49.8591 190.15 49.5001 190.15H47.5001C46.865 190.15 46.3501 189.635 46.3501 189V177C46.3501 176.364 46.865 175.85 47.5001 175.85H53.793C54.098 175.85 54.3905 175.971 54.6062 176.186L58.3133 179.894C58.5289 180.109 58.6501 180.402 58.6501 180.707V182C58.6501 182.359 58.3591 182.65 58.0001 182.65C57.6411 182.65 57.3501 182.359 57.3501 182V180.769L53.7309 177.15H47.6501Z" fill="#263789"/>
<path d="M54 176.5V180.5H58" stroke="#263789" stroke-width="1.3" stroke-linejoin="round"/>
<mask id="path-23-inside-2_13221_225074" fill="white">
<path fill-rule="evenodd" clip-rule="evenodd" d="M53.75 190C52.5074 190 51.5 188.981 51.5 187.725C51.5 186.551 52.3789 185.585 53.5075 185.463C53.7885 184.335 54.7984 183.5 56.0012 183.5C57.2041 183.5 58.2141 184.335 58.4949 185.463C59.6223 185.587 60.4998 186.552 60.4998 187.725C60.4998 188.981 59.4926 190 58.25 190V190H53.75V190Z"/>
</mask>
<path d="M53.75 190H55.05V188.7H53.75V190ZM53.5075 185.463L53.6475 186.755L54.5496 186.658L54.7689 185.777L53.5075 185.463ZM58.4949 185.463L57.2334 185.777L57.4524 186.657L58.3534 186.756L58.4949 185.463ZM58.25 190L58.2499 188.7L56.95 188.7V190H58.25ZM58.25 190V191.3H59.55V190H58.25ZM53.75 190H52.45V191.3H53.75V190ZM53.75 188.7C53.2388 188.7 52.8 188.277 52.8 187.725H50.2C50.2 189.686 51.7759 191.3 53.75 191.3V188.7ZM52.8 187.725C52.8 187.211 53.1831 186.806 53.6475 186.755L53.3674 184.171C51.5747 184.365 50.2 185.892 50.2 187.725H52.8ZM54.7689 185.777C54.9113 185.206 55.4184 184.8 56.0012 184.8V182.2C54.1784 182.2 52.6656 183.464 52.246 185.149L54.7689 185.777ZM56.0012 184.8C56.584 184.8 57.0912 185.206 57.2334 185.777L59.7564 185.149C59.337 183.464 57.8241 182.2 56.0012 182.2V184.8ZM58.3534 186.756C58.8173 186.806 59.1998 187.211 59.1998 187.725H61.7998C61.7998 185.893 60.4272 184.367 58.6365 184.171L58.3534 186.756ZM59.1998 187.725C59.1998 188.277 58.761 188.7 58.2499 188.7L58.2501 191.3C60.2241 191.3 61.7998 189.686 61.7998 187.725H59.1998ZM56.95 190V190H59.55V190H56.95ZM58.25 188.7H53.75V191.3H58.25V188.7ZM55.05 190V190H52.45V190H55.05Z" fill="#263789" mask="url(#path-23-inside-2_13221_225074)"/>
<path d="M75.086 177.374V178.354H85.054V177.374H75.086ZM73.742 181.28V182.288H78.46C76.99 185.27 75.8 187.09 74.904 187.762C74.848 187.79 74.778 187.832 74.666 187.86L74.932 188.882C78.292 188.658 81.386 188.378 84.228 188.014C84.494 188.518 84.732 189.008 84.956 189.498L85.852 188.868C85.152 187.44 84.158 185.746 82.87 183.814L82.058 184.318C82.674 185.27 83.234 186.194 83.738 187.09C81.232 187.426 78.726 187.664 76.206 187.804C77.158 186.768 78.292 184.934 79.58 182.288H86.3V181.28H73.742ZM87.896 178.928V179.936H90.052C90.682 182.092 91.802 183.968 93.426 185.564C91.914 186.936 89.982 187.93 87.63 188.56L88.162 189.442C90.542 188.756 92.53 187.678 94.126 186.208C95.638 187.51 97.542 188.588 99.866 189.456L100.412 188.616C98.172 187.79 96.31 186.754 94.826 185.494C96.198 184.01 97.234 182.148 97.92 179.936H100.104V178.928H94.756C94.308 177.962 93.832 177.136 93.3 176.464L92.292 176.828C92.852 177.486 93.314 178.186 93.692 178.928H87.896ZM91.046 179.936H96.87C96.282 181.868 95.372 183.506 94.126 184.864C92.67 183.464 91.648 181.826 91.046 179.936ZM106.782 181.42V182.4H112.802V184.612H107.132V185.564H112.802V187.832H106.53V188.812H112.802V189.4H113.81V181.42H110.926V176.562H109.904V181.42H106.782ZM113.306 177.276C112.942 178.256 112.438 179.25 111.822 180.258L112.69 180.706C113.306 179.726 113.81 178.732 114.202 177.696L113.306 177.276ZM107.482 177.374L106.6 177.808C107.104 178.648 107.594 179.6 108.042 180.678L108.91 180.244C108.462 179.208 107.986 178.242 107.482 177.374ZM104.724 182.204C105.116 182.722 105.564 183.408 106.096 184.262L106.67 183.422C106.012 182.554 105.368 181.77 104.724 181.084V180.272H106.39V179.306H104.724V176.576H103.702V179.306H101.798V180.272H103.688C103.254 181.994 102.526 183.534 101.49 184.892L101.924 185.97C102.652 184.878 103.24 183.674 103.702 182.33V189.344H104.724V182.204Z" fill="#545A6E"/>
<circle cx="58" cy="225" r="5" fill="#FCE8C3"/>
<path d="M48 219V218.35C47.641 218.35 47.35 218.641 47.35 219H48ZM48 231H47.35C47.35 231.359 47.641 231.65 48 231.65V231ZM48 219.65H58.5V218.35H48V219.65ZM58.35 219.5V230.5H59.65V219.5H58.35ZM58.5 230.35H48V231.65H58.5V230.35ZM48.65 231V219H47.35V231H48.65ZM58.35 230.5C58.35 230.417 58.4172 230.35 58.5 230.35V231.65C59.1351 231.65 59.65 231.135 59.65 230.5H58.35ZM58.5 219.65C58.4172 219.65 58.35 219.583 58.35 219.5H59.65C59.65 218.865 59.1351 218.35 58.5 218.35V219.65Z" fill="#263789"/>
<path d="M50.5 219V231.5" stroke="#263789" stroke-width="1.3"/>
<path d="M47 222H48" stroke="#263789" stroke-width="1.3" stroke-linecap="round"/>
<path d="M47 225H48" stroke="#263789" stroke-width="1.3" stroke-linecap="round"/>
<path d="M47 228H48" stroke="#263789" stroke-width="1.3" stroke-linecap="round"/>
<path d="M74.764 218.786L74.078 219.444C75.1 220.228 75.898 220.97 76.486 221.67L77.2 220.97C76.542 220.242 75.73 219.514 74.764 218.786ZM82.954 231.148H86.132L86.37 230.14C86.006 230.168 85.488 230.182 84.816 230.196C84.13 230.21 83.458 230.224 82.814 230.224C81.708 230.224 80.784 230.21 80.042 230.196C79.202 230.168 78.572 230.056 78.124 229.86C77.732 229.678 77.368 229.384 77.032 228.978C76.906 228.838 76.794 228.74 76.682 228.656V223.42H73.756V224.344H75.744V228.6C75.17 228.852 74.512 229.566 73.77 230.742L74.526 231.428C75.296 230.14 75.856 229.496 76.192 229.496C76.36 229.496 76.542 229.608 76.738 229.846C77.172 230.35 77.676 230.7 78.236 230.868C78.796 231.022 79.538 231.106 80.448 231.12C81.344 231.134 82.184 231.148 82.954 231.148ZM80.448 220.13L79.832 220.732C80.518 221.096 81.134 221.474 81.666 221.852H78.166V229.3H79.118V226.85H81.456V229.258H82.394V226.85H84.746V227.9C84.746 228.208 84.578 228.376 84.242 228.376L83.136 228.334L83.36 229.188H84.522C85.306 229.188 85.698 228.824 85.698 228.11V221.852H82.926L82.702 221.67C83.682 221.138 84.592 220.508 85.432 219.78V219.052H77.858V219.906H84.074C83.458 220.382 82.786 220.802 82.058 221.18C81.582 220.83 81.036 220.48 80.448 220.13ZM79.118 224.792H81.456V226.024H79.118V224.792ZM82.394 224.792H84.746V226.024H82.394V224.792ZM84.746 223.952H82.394V222.692H84.746V223.952ZM81.456 223.952H79.118V222.692H81.456V223.952ZM91.76 224.05V225.016H93.86V231.414H94.84V225.016H96.758V224.05H94.84V220.214H97.416V223.532C97.416 226.836 97.752 229.076 98.424 230.252C98.816 230.896 99.264 231.218 99.782 231.218C99.964 231.218 100.118 231.064 100.258 230.784C100.426 230.406 100.538 229.538 100.594 228.194L99.796 227.816C99.768 228.586 99.74 229.16 99.712 229.552C99.656 229.902 99.614 230.084 99.558 230.084C99.404 230.084 99.236 229.846 99.054 229.398C98.62 228.278 98.41 226.332 98.41 223.532V219.234H91.998V220.214H93.86V224.05H91.76ZM89.198 218.702L88.498 219.388C89.478 220.144 90.248 220.872 90.822 221.558L91.508 220.858C90.892 220.13 90.122 219.416 89.198 218.702ZM87.602 222.846V223.812H89.548V229.356C89.548 229.594 89.436 229.804 89.24 230L89.632 230.896C90.556 230.266 91.424 229.552 92.236 228.74L91.97 227.676C91.452 228.194 90.976 228.642 90.528 229.034V222.846H87.602ZM103.408 219.094V220.004H110.464V221.404H103.884V222.286H110.464V223.644H102.008V224.554H107.412V226.304C105.858 227.732 104.01 228.95 101.854 229.972L102.26 230.91C104.248 229.846 105.97 228.67 107.412 227.354V229.916C107.412 230.322 107.258 230.532 106.978 230.532C106.502 230.532 106.012 230.504 105.494 230.462L105.704 231.414H107.314C108.042 231.414 108.42 230.994 108.42 230.154V227.27C109.68 228.726 111.388 229.958 113.544 230.966L114.048 230.07C112.564 229.426 111.276 228.67 110.184 227.816C111.192 227.284 112.074 226.514 112.858 225.506L112.088 224.862C111.36 225.898 110.492 226.696 109.498 227.256C109.106 226.906 108.756 226.542 108.42 226.15V224.554H114.006V223.644H111.486V219.094H103.408ZM103.52 225.086L102.848 225.73C103.772 226.36 104.486 226.962 105.018 227.522L105.662 226.864C105.088 226.276 104.374 225.674 103.52 225.086Z" fill="#545A6E"/>
<defs>
<filter id="filter0_d_13221_225074" x="0.5" y="0.993164" width="201" height="276.679" filterUnits="userSpaceOnUse" color-interpolation-filters="sRGB">
<feFlood flood-opacity="0" result="BackgroundImageFix"/>
<feColorMatrix in="SourceAlpha" type="matrix" values="0 0 0 0 0 0 0 0 0 0 0 0 0 0 0 0 0 0 127 0" result="hardAlpha"/>
<feOffset dy="4"/>
<feGaussianBlur stdDeviation="2"/>
<feComposite in2="hardAlpha" operator="out"/>
<feColorMatrix type="matrix" values="0 0 0 0 0.160784 0 0 0 0 0.172549 0 0 0 0 0.25098 0 0 0 0.25 0"/>
<feBlend mode="normal" in2="BackgroundImageFix" result="effect1_dropShadow_13221_225074"/>
<feBlend mode="normal" in="SourceGraphic" in2="effect1_dropShadow_13221_225074" result="shape"/>
</filter>
</defs>
</svg>
