<svg width="120" height="18" viewBox="0 0 120 18" fill="none" xmlns="http://www.w3.org/2000/svg">
<g opacity="0.86">
<path d="M6.9644 3.89969L4.27356 14.1409L0.9 1.32935H6.30172L6.9644 3.89969Z" fill="white"/>
</g>
<g opacity="0.94">
<path d="M13.0487 16.7112H18.4304L14.3941 1.32935H8.9924L13.0487 16.7112Z" fill="white"/>
</g>
<g opacity="0.86">
<path fill-rule="evenodd" clip-rule="evenodd" d="M4.93675 16.7108H10.3385L11.6953 11.5762L8.99362 1.32947L4.93675 16.7108Z" fill="white"/>
</g>
<path d="M26.5234 16.7109H21.1216L20.4389 14.1406L23.1297 3.87927L26.5234 16.7109Z" fill="white"/>
<path d="M18.4306 16.7112H13.0289L17.0852 1.32935H22.4869L18.4306 16.7112Z" fill="white"/>
<path d="M78.0797 3.45177L74.6372 3.43152C74.5157 3.43152 74.4347 3.28977 74.4955 3.18852L75.7307 1.14327C75.7914 1.04202 75.7105 0.900269 75.589 0.900269H74.2525C74.1917 0.900269 74.1512 0.92052 74.1107 0.98127L69.4532 8.81802C69.3924 8.91927 69.4735 9.06102 69.595 9.06102H70.9315C70.9922 9.06102 71.0327 9.02052 71.0732 8.98002L73.4425 4.88952C73.5437 4.88952 76.723 4.90977 76.723 4.90977C76.48 6.34752 76.075 7.86627 75.6092 9.08127L73.4019 7.76502C73.3209 7.72452 73.24 7.74477 73.1792 7.82577L72.6122 8.75727C72.5717 8.83827 72.592 8.91927 72.673 8.98002L74.9207 10.3165C74.9612 10.3368 74.9814 10.357 75.0219 10.3773C74.7182 10.9443 74.4752 11.2885 74.4752 11.2885C73.564 12.706 72.3692 13.8603 70.9315 14.6905C70.8505 14.731 70.7087 14.812 70.5872 14.893C70.4252 14.9943 70.3644 15.217 70.4859 15.379L71.0125 16.1688C71.1137 16.3308 71.3364 16.3713 71.4782 16.27C71.5794 16.2093 71.6807 16.1283 71.7415 16.108C75.1637 14.083 77.4317 9.99252 78.3227 4.28202C78.343 4.18077 78.3632 4.01877 78.4037 3.85677C78.4442 3.63402 78.2822 3.45177 78.0797 3.45177Z" fill="white"/>
<path d="M98.8357 13.4557H99.909C99.99 13.4557 100.071 13.3949 100.071 13.2937V8.35267C100.071 8.27167 100.01 8.19067 99.909 8.19067H88.6702C88.5892 8.19067 88.5082 8.27167 88.5082 8.35267V13.4557C88.5082 13.5367 88.569 13.6177 88.6702 13.6177H89.7435C89.8245 13.6177 89.9055 13.5569 89.9055 13.4557V9.60817H98.6535V13.3139C98.6738 13.3949 98.7345 13.4557 98.8357 13.4557Z" fill="white"/>
<path d="M94.3403 7.82601C94.4618 7.98802 94.6643 8.00827 94.8263 7.88677C94.887 7.84627 94.9478 7.78552 95.0288 7.72477C95.8185 7.05652 97.3373 5.51752 97.4993 3.20902C97.4993 3.14827 97.5195 2.92552 97.5195 2.92552H97.7828H99.342V5.82127C99.342 5.98327 99.2003 6.12502 99.0383 6.12502H98.0055C97.9448 6.12502 97.9043 6.16551 97.8638 6.20602L97.1753 7.40077C97.1145 7.50202 97.1955 7.64377 97.317 7.64377H100.294C100.537 7.64377 100.739 7.44127 100.739 7.19827C100.76 4.12027 100.76 2.60152 100.76 1.97377C100.76 1.79152 100.598 1.62952 100.415 1.62952H94.2998C94.2188 1.62952 94.1378 1.69027 94.1378 1.79152V2.76351C94.1378 2.84451 94.1985 2.92552 94.2998 2.92552H95.697C95.7578 2.92552 96.1628 2.92552 96.1628 2.92552C96.1628 2.92552 96.1223 3.31026 96.102 3.37101C95.7578 5.27451 94.2998 6.50977 94.2998 6.50977L94.2188 6.59077L93.9758 6.79327C93.834 6.91477 93.8138 7.11727 93.9353 7.25902L94.3403 7.82601Z" fill="white"/>
<path d="M94.887 10.9039C94.887 10.7217 94.7452 10.5597 94.5427 10.5597H93.6922C93.51 10.5597 93.348 10.7217 93.348 10.9039V11.5317C93.2872 12.7669 92.2747 14.3464 87.3135 15.2577C87.3135 15.2577 87.1717 15.2779 87.111 15.4602C87.0705 15.5817 87.192 15.7032 87.192 15.7032L87.5362 16.3107C87.5362 16.3107 87.6982 16.5942 88.1032 16.4727C94.0972 15.1767 94.8667 13.1719 94.8667 11.5519L94.887 10.9039Z" fill="white"/>
<path d="M85.167 9.06117L81.7448 7.01592C81.603 6.93492 81.4207 6.97542 81.2992 7.09692V1.10292C81.2992 1.02192 81.2385 0.940918 81.1373 0.940918H80.064C79.983 0.940918 79.902 1.00167 79.902 1.10292V16.3714C79.902 16.4524 79.9628 16.5334 80.064 16.5334H81.1373C81.2183 16.5334 81.2992 16.4727 81.2992 16.3714V8.41317L84.438 10.2762C84.519 10.3167 84.6 10.2964 84.6607 10.2154L85.2278 9.26367C85.248 9.20292 85.2277 9.10167 85.167 9.06117Z" fill="white"/>
<path d="M101.104 15.9254L95.859 12.8069C95.778 12.7664 95.697 12.7866 95.6362 12.8676L95.1097 13.7586C95.0692 13.8396 95.0895 13.9206 95.1705 13.9814L100.415 17.1201C100.496 17.1606 100.577 17.1404 100.638 17.0594L101.164 16.1684C101.185 16.0671 101.164 15.9861 101.104 15.9254Z" fill="white"/>
<path d="M93.5508 6.75247L91.7081 3.47196C91.6676 3.39096 91.5664 3.37072 91.4854 3.41122L90.5539 3.91747C90.5539 3.91747 90.5336 3.91746 90.5336 3.93771C90.4728 3.97821 90.4526 4.07946 90.4931 4.14021L91.1006 5.23372L89.1161 5.84122L89.0756 2.96571L93.0244 2.25696C93.1256 2.23671 93.1864 2.11521 93.1256 2.01396L92.4776 1.04196C92.4371 1.00146 92.3764 0.960967 92.3156 0.981217L87.8404 1.77097C87.7594 1.77097 87.6986 1.85197 87.6986 1.93297V7.27896C87.6986 7.52197 87.9416 7.68397 88.1644 7.60297L91.7891 6.48922L92.3156 7.44097C92.3561 7.52197 92.4573 7.54222 92.5383 7.50172L93.4698 6.97521C93.5711 6.91446 93.5913 6.83347 93.5508 6.75247Z" fill="white"/>
<path d="M66.1929 8.91969H55.4604L55.6224 8.67669L56.4324 7.58319C56.4526 7.54269 56.5134 7.52244 56.5539 7.52244H65.3626C65.7271 7.52244 66.0106 7.23894 66.0106 6.87444V1.81194C66.0106 1.44744 65.7069 1.16394 65.3626 1.16394H54.1441C53.7796 1.16394 53.4961 1.46769 53.4961 1.81194V6.87444C53.4961 7.23894 53.7999 7.52244 54.1441 7.52244H54.8326L51.8761 11.6129C51.7951 11.7142 51.8761 11.8762 52.0179 11.8762H53.2329C53.2936 11.8762 53.3341 11.8559 53.3746 11.8154L54.4681 10.3169C54.4884 10.2764 54.5491 10.2562 54.5896 10.2562H57.0804L52.6254 16.3717C52.5444 16.4729 52.6254 16.6349 52.7671 16.6349H53.9821C54.0429 16.6349 54.0834 16.6147 54.1239 16.5742L58.7004 10.2562H61.5556L57.1006 16.3717C57.0196 16.4729 57.1006 16.6349 57.2424 16.6349H58.4574C58.5181 16.6349 58.5586 16.6147 58.5991 16.5742L63.1959 10.2562H65.5449V14.9744C65.5449 15.1567 65.4031 15.2984 65.2209 15.2984H63.4186C63.3579 15.2984 63.3174 15.3187 63.2769 15.3592L62.5479 16.3514C62.4669 16.4527 62.5479 16.6147 62.6896 16.6147H65.2209C66.1321 16.6147 66.8611 15.8857 66.8611 14.9744V9.58794C66.8409 9.22344 66.5574 8.91969 66.1929 8.91969ZM64.6741 2.45994V3.67494H54.7921V2.45994H64.6741ZM54.7921 4.99119H64.6741V6.20619H54.7921V4.99119Z" fill="white"/>
<path d="M47.8265 1.14294H33.6515C33.287 1.14294 33.0035 1.4467 33.0035 1.79095V16.4519C33.0035 16.5532 33.0845 16.6139 33.1655 16.6139H34.1577C34.259 16.6139 34.3197 16.5329 34.3197 16.4519V2.45919H47.1785V15.0344C47.1785 15.1762 47.057 15.2977 46.9152 15.2977H45.0725C45.0117 15.2977 44.9712 15.3179 44.9307 15.3584L44.2017 16.3507C44.1207 16.4519 44.2017 16.6139 44.3435 16.6139H46.8545C47.7657 16.6139 48.4947 15.8849 48.4947 14.9737V1.79095C48.4947 1.4467 48.191 1.14294 47.8265 1.14294Z" fill="white"/>
<path d="M37.3574 4.86909C37.3371 4.80834 37.2764 4.78809 37.2156 4.78809H36.0816C35.9601 4.78809 35.8791 4.92984 35.9399 5.03109L38.0661 8.73684L35.9196 12.4426C35.8589 12.5438 35.9399 12.6856 36.0614 12.6856H37.1954C37.2561 12.6856 37.3169 12.6451 37.3371 12.6046L39.5241 8.81784C39.5444 8.77734 39.5444 8.69634 39.5241 8.65584L37.3574 4.86909Z" fill="white"/>
<path d="M45.3961 12.4426L43.2496 8.73684L45.3961 5.03109C45.4568 4.92984 45.3758 4.78809 45.2543 4.78809H44.1203C44.0596 4.78809 43.9988 4.82859 43.9786 4.86909L42.5003 7.42059L41.0221 4.86909C41.0018 4.82859 40.9411 4.78809 40.8803 4.78809H39.7463C39.6248 4.78809 39.5438 4.92984 39.6046 5.03109L41.7511 8.73684L39.6248 12.4426C39.5641 12.5438 39.6451 12.6856 39.7666 12.6856H40.9006C40.9613 12.6856 41.0221 12.6451 41.0423 12.6046L42.5206 10.0531L43.9988 12.6046C44.0191 12.6451 44.0798 12.6856 44.1406 12.6856H45.2746C45.3758 12.6856 45.4568 12.5438 45.3961 12.4426Z" fill="white"/>
<path d="M109.123 14.3662H110.196C110.277 14.3662 110.358 14.3054 110.358 14.2042V11.6729H113.031V14.2244C113.031 14.3054 113.092 14.3864 113.193 14.3864H114.267C114.348 14.3864 114.429 14.3257 114.429 14.2244V11.6729H117.183V12.8677C117.183 12.9487 117.122 13.0297 117.021 13.0297H116.089C116.028 13.0297 115.988 13.0702 115.947 13.1107L115.36 14.1232C115.299 14.2244 115.38 14.3662 115.502 14.3662H118.418C118.499 14.3662 118.58 14.3054 118.58 14.2042V12.8879V12.8677V5.01069C118.58 4.92969 118.519 4.84869 118.418 4.84869H116.373H115.563C115.563 4.84869 115.664 4.74745 117.486 2.84395C118.053 2.2567 117.77 1.3252 116.96 1.3252H109.103C109.022 1.3252 108.941 1.38595 108.941 1.4872V2.51994C108.941 2.60094 109.002 2.68194 109.103 2.68194H115.482C114.672 3.43119 114.125 3.93745 113.76 4.26145C113.7 4.30195 113.639 4.32219 113.578 4.28169L111.796 3.20845C111.715 3.16795 111.634 3.18819 111.573 3.26919L111.027 4.18044C110.986 4.26144 111.006 4.34244 111.087 4.40319L111.897 4.88919H109.103C109.022 4.88919 108.941 4.94994 108.941 5.05119V14.2649C108.981 14.3054 109.042 14.3662 109.123 14.3662ZM114.429 6.12444H117.183V7.62294H114.429V6.12444ZM114.429 10.3769V8.87845H117.183V10.3769H114.429ZM110.379 6.12444H113.052V7.62294H110.379V6.12444ZM110.379 8.87845H113.052V10.3769H110.379V8.87845Z" fill="white"/>
<path d="M106.491 4.01845C106.572 4.05895 106.653 4.0387 106.714 3.9577L107.26 3.04645C107.301 2.96545 107.281 2.88445 107.2 2.8237L104.709 1.34545C104.628 1.30495 104.547 1.3252 104.486 1.4062L103.939 2.31745C103.899 2.39845 103.919 2.4997 104 2.5402L106.491 4.01845Z" fill="white"/>
<path d="M119.43 15.2167H117.668C117.668 15.2167 117.668 15.2167 117.648 15.2167H108.617C107.908 15.2167 107.3 14.6902 107.199 13.9815V6.04347C107.199 5.96247 107.118 5.88147 107.037 5.88147H103.716C103.635 5.88147 103.554 5.96247 103.554 6.04347V7.11672C103.554 7.19772 103.635 7.27872 103.716 7.27872H105.458C105.62 7.27872 105.761 7.40022 105.782 7.56222V13.779C105.782 13.9612 105.802 14.1637 105.842 14.346L103.979 15.4597C103.898 15.5002 103.878 15.6015 103.919 15.6825L104.465 16.5937C104.506 16.6747 104.607 16.695 104.688 16.6545L106.349 15.6622C106.409 15.6217 106.49 15.642 106.551 15.6825C107.057 16.2495 107.807 16.5937 108.617 16.5937C108.617 16.5937 119.268 16.614 119.288 16.614H119.43C119.511 16.614 119.592 16.5532 119.592 16.452V15.3787C119.592 15.2775 119.531 15.2167 119.43 15.2167Z" fill="white"/>
</svg>
