<svg width="280" height="292" viewBox="20 0 280 292" fill="none" xmlns="http://www.w3.org/2000/svg">
<path d="M50.524 16.506H51.476C53.226 18.312 55.242 19.74 57.524 20.776L56.866 21.966C56.166 21.63 55.522 21.28 54.906 20.888V22.148H51.672V24.248H55.606V25.536H51.672V27.748H56.88V29.05H45.134V27.748H50.328V25.536H46.38V24.248H50.328V22.148H47.094V20.888C46.45 21.28 45.778 21.644 45.078 21.994L44.434 20.832C46.87 19.67 48.9 18.228 50.524 16.506ZM47.122 20.874H54.878C53.422 19.978 52.12 18.914 51 17.71C49.936 18.886 48.634 19.936 47.122 20.874ZM70.502 16.632L71.146 17.808C69.942 18.228 68.612 18.48 67.156 18.578V20.846H71.482V22.12H70.138V29.456H68.836V22.12H67.156V23.534C67.086 25.998 66.54 27.958 65.518 29.428L64.58 28.42C65.378 27.244 65.812 25.62 65.868 23.534V17.486C67.59 17.458 69.13 17.164 70.502 16.632ZM58.812 17.626H61.304C61.136 17.262 60.94 16.912 60.73 16.59L62.102 16.366C62.27 16.744 62.452 17.164 62.62 17.626H65.21V18.858H58.812V17.626ZM58.672 20.804H60.156C59.974 20.314 59.764 19.852 59.526 19.432L60.688 18.998C60.912 19.502 61.136 20.104 61.332 20.804H62.662C62.886 20.216 63.082 19.614 63.25 18.984L64.44 19.404C64.272 19.922 64.076 20.384 63.866 20.804H65.294V22.022H62.704V23.282H65.056V24.486H62.704V28.238C62.704 29.078 62.242 29.498 61.318 29.498H60.59L60.296 28.266C60.506 28.322 60.702 28.35 60.884 28.35C61.22 28.35 61.388 28.21 61.388 27.93V24.486H58.896V23.282H61.388V22.022H58.672V20.804ZM59.736 25.102L60.94 25.354C60.604 26.768 60.142 28 59.526 29.05L58.434 28.35C59.05 27.342 59.484 26.25 59.736 25.102ZM64.118 25.004C64.482 25.9 64.776 26.712 64.986 27.44L63.866 27.86C63.642 26.992 63.362 26.138 63.026 25.298L64.118 25.004ZM72.588 24.164H81.03V23.45H82.374V24.164H85.398V25.452H82.374V28.154C82.374 29.036 81.884 29.484 80.932 29.484H79.168L78.86 28.182C79.42 28.238 79.966 28.266 80.47 28.266C80.834 28.266 81.03 28.112 81.03 27.832V25.452H72.588V24.164ZM83.34 16.982V20.538H75.346V21.252C75.346 21.63 75.542 21.826 75.948 21.826H83.27C83.494 21.812 83.648 21.728 83.732 21.588C83.802 21.476 83.872 21.14 83.928 20.58L85.188 20.986C85.104 21.63 85.006 22.078 84.908 22.358C84.726 22.806 84.32 23.03 83.69 23.058H75.43C74.478 23.058 74.002 22.624 74.002 21.77V16.982H83.34ZM75.346 19.334H82.01V18.186H75.346V19.334ZM76.088 25.62C76.998 26.334 77.768 27.048 78.398 27.762L77.39 28.756C76.858 28.07 76.102 27.328 75.136 26.544L76.088 25.62ZM92.636 18.228H95.114C94.918 17.654 94.694 17.136 94.47 16.66L95.87 16.436C96.08 16.968 96.29 17.556 96.486 18.228H99.048V19.53H92.636V18.228ZM86.574 22.512H87.442V17.864H89.052C89.22 17.388 89.346 16.898 89.43 16.408L90.83 16.604C90.732 17.052 90.592 17.472 90.424 17.864H92.188V28.028C92.188 28.896 91.768 29.344 90.956 29.344H89.78L89.444 28.112C89.85 28.154 90.228 28.182 90.564 28.182C90.83 28.182 90.97 27.986 90.97 27.594V23.744H88.632C88.562 26.082 88.184 27.986 87.512 29.47L86.462 28.518C87.05 27.244 87.372 25.648 87.428 23.744H86.574V22.512ZM90.97 22.512V19.096H88.646V22.512H90.97ZM89.794 19.614C90.13 20.216 90.438 20.916 90.718 21.7L89.738 21.952C89.5 21.252 89.206 20.566 88.842 19.922L89.794 19.614ZM89.836 24.318C90.172 25.074 90.466 25.928 90.732 26.908L89.682 27.188C89.458 26.306 89.164 25.466 88.814 24.654L89.836 24.318ZM92.16 28.588C92.678 27.944 93.042 27.286 93.238 26.6C93.406 25.984 93.504 25.074 93.504 23.884V20.818H97.578V27.86C97.578 28 97.634 28.084 97.774 28.084H98.04C98.096 28.084 98.152 28.056 98.208 28.028C98.25 28 98.292 27.944 98.32 27.888C98.348 27.748 98.376 27.16 98.376 26.096L99.58 26.474C99.58 27.258 99.538 27.86 99.482 28.252C99.426 28.63 99.314 28.896 99.132 29.05C98.936 29.176 98.628 29.246 98.208 29.246H97.746C96.794 29.246 96.332 28.826 96.332 27.986V22.036H94.75V23.884C94.75 25.102 94.638 26.138 94.414 27.006C94.19 27.846 93.784 28.686 93.182 29.498L92.16 28.588ZM100.882 17.304H103.99V16.534H105.278V17.304H108.722V16.52H110.01V17.304H113.076V18.48H110.01V19.348H108.722V18.48H105.278V19.418H103.99V18.48H100.882V17.304ZM110.696 20.944L111.802 21.476C111.326 22.344 110.766 23.114 110.122 23.772L109.142 23.058C109.744 22.47 110.262 21.756 110.696 20.944ZM107.07 21.28C107.322 21.784 107.56 22.358 107.77 23.002L106.594 23.296C106.426 22.722 106.216 22.162 105.964 21.63L107.07 21.28ZM103.472 21.462C103.836 22.106 104.158 22.792 104.438 23.52L103.36 24.01C103.052 23.184 102.702 22.456 102.338 21.826L103.472 21.462ZM111.578 19.334L112.222 20.426C109.674 20.902 106.272 21.154 102.044 21.154L101.638 19.922C105.572 19.922 108.89 19.726 111.578 19.334ZM101.092 24.374H106.356V23.618H107.644V24.374H112.908V25.62H108.848C109.828 26.502 111.34 27.3 113.384 28.014L112.46 29.19C110.234 28.126 108.624 26.936 107.644 25.62V29.442H106.356V25.62H106.342C105.306 27.048 103.668 28.238 101.414 29.19L100.658 27.958C102.632 27.328 104.116 26.544 105.124 25.62H101.092V24.374ZM116.016 18.62H118.844C118.452 18.018 118.046 17.472 117.612 16.996L118.718 16.464C119.194 16.982 119.642 17.556 120.062 18.2L119.222 18.62H122.05C122.498 17.92 122.876 17.178 123.198 16.394L124.486 16.856C124.178 17.5 123.828 18.088 123.436 18.62H125.984V24.626H121.658V25.732H127.258V26.992H121.658V29.498H120.342V26.992H114.742V25.732H120.342V24.626H116.016V18.62ZM124.696 23.45V22.162H121.658V23.45H124.696ZM120.342 23.45V22.162H117.304V23.45H120.342ZM117.304 21.042H120.342V19.782H117.304V21.042ZM121.658 19.782V21.042H124.696V19.782H121.658Z" fill="#272E47"/>
<path d="M30.6874 30.6444C30.875 30.7871 31.125 30.7871 31.3126 30.6444C32.5695 29.6877 37.1875 25.8794 37.1875 21.5682C37.1875 18.0097 34.4173 15.125 31 15.125C27.5827 15.125 24.8125 18.0097 24.8125 21.5682C24.8125 25.8794 29.4305 29.6877 30.6874 30.6444Z" fill="#E4DAEF" stroke="#8A5DBB" stroke-width="1.125" stroke-linejoin="round"/>
<path d="M31 23.5625C32.2426 23.5625 33.25 22.5551 33.25 21.3125C33.25 20.0699 32.2426 19.0625 31 19.0625C29.7574 19.0625 28.75 20.0699 28.75 21.3125C28.75 22.5551 29.7574 23.5625 31 23.5625Z" stroke="#8A5DBB" stroke-width="1.125" stroke-linejoin="round"/>
<path d="M28.768 49.164H27.004V48.36C28.456 47.52 29.788 46.62 31.012 45.672H27.148V44.88H32.272V45.636C31.12 46.62 29.848 47.532 28.48 48.396H33.088C33.016 51.192 32.884 52.992 32.692 53.796C32.488 54.612 31.948 55.02 31.06 55.044C30.664 55.044 30.28 55.032 29.908 55.02L29.668 54.18C30.1 54.204 30.52 54.228 30.928 54.228C31.396 54.216 31.72 54 31.888 53.568C32.044 53.184 32.152 51.708 32.224 49.164H31.36C31.072 50.616 30.64 51.756 30.088 52.596C29.464 53.496 28.528 54.3 27.28 55.02L26.752 54.348C27.892 53.712 28.756 53.004 29.344 52.236C29.884 51.468 30.28 50.436 30.532 49.164H29.584C29.14 50.676 28.372 51.852 27.292 52.692L26.752 52.032C27.712 51.288 28.384 50.34 28.768 49.164ZM22.612 47.52H24.052V44.46H24.94V47.52H26.44V48.348H24.94V52.536C25.468 52.38 25.972 52.212 26.464 52.02V52.92C25.3 53.364 24.04 53.736 22.696 54.036L22.468 53.124C23.008 53.028 23.536 52.908 24.052 52.788V48.348H22.612V47.52ZM36.7004 50.028H44.2844V52.452H41.0084V54.156C41.0084 54.816 40.6964 55.152 40.0844 55.152H38.6564L38.4764 54.348C38.9324 54.384 39.3764 54.408 39.7964 54.408C40.0364 54.408 40.1564 54.252 40.1564 53.952V52.452H36.7004V50.028ZM43.4444 51.768V50.712H37.5404V51.768H43.4444ZM36.4964 44.544H44.4044V47.964H40.6844C40.7924 48.18 40.8884 48.42 40.9844 48.66H45.7244V49.38H35.1644V48.66H40.0844C39.9644 48.408 39.8324 48.18 39.7004 47.964H36.4964V44.544ZM43.5644 47.28V46.56H37.3364V47.28H43.5644ZM37.3364 45.924H43.5644V45.228H37.3364V45.924ZM42.5444 52.884C43.6964 53.196 44.8124 53.664 45.8804 54.264L45.5804 55.056C44.4884 54.42 43.3604 53.928 42.1844 53.568L42.5444 52.884ZM38.0084 52.824L38.5484 53.376C37.7564 54.06 36.7364 54.624 35.4884 55.056L35.0084 54.348C36.3164 53.928 37.3124 53.424 38.0084 52.824ZM51.0529 44.112L51.8569 44.484C51.4369 45.492 50.8969 46.428 50.2489 47.316V55.224H49.3849V48.372C48.8449 48.96 48.2569 49.524 47.6209 50.052L47.3449 49.152C49.0489 47.688 50.2849 46.008 51.0529 44.112ZM56.5849 55.008H54.2929C53.4529 55.008 53.0329 54.576 53.0329 53.736V50.076C52.5289 50.364 52.0129 50.628 51.4849 50.88L51.1009 50.064C51.7729 49.752 52.4209 49.428 53.0329 49.068V44.256H53.8969V48.54C55.1569 47.7 56.2609 46.74 57.2089 45.672L57.8089 46.356C56.6929 47.556 55.3849 48.624 53.8969 49.56V53.616C53.8969 53.988 54.0889 54.18 54.4969 54.18H56.4409C56.7529 54.18 56.9929 54.072 57.1369 53.88C57.2689 53.688 57.3529 52.992 57.4009 51.804L58.2049 52.068C58.1209 53.448 57.9769 54.288 57.7729 54.576C57.5569 54.864 57.1609 55.008 56.5849 55.008ZM59.9213 50.844H67.2293V50.088H68.0933V50.844H70.7333V51.684H68.0933V54.228C68.0933 54.9 67.7213 55.236 67.0013 55.236H65.4653L65.2733 54.384C65.7773 54.42 66.2453 54.444 66.7013 54.444C67.0493 54.444 67.2293 54.3 67.2293 54.012V51.684H59.9213V50.844ZM68.9213 44.664V47.52H62.0453V48.384C62.0453 48.708 62.2253 48.876 62.5613 48.876H68.9813C69.2213 48.864 69.3773 48.78 69.4733 48.636C69.5453 48.504 69.6173 48.192 69.6653 47.688L70.4813 47.952C70.4213 48.492 70.3373 48.876 70.2413 49.116C70.0733 49.476 69.7373 49.656 69.2333 49.68H62.2493C61.5293 49.68 61.1813 49.344 61.1813 48.696V44.664H68.9213ZM62.0453 46.728H68.0573V45.444H62.0453V46.728ZM62.6813 52.044C63.4853 52.668 64.1573 53.304 64.7093 53.928L64.0613 54.576C63.5813 53.964 62.9093 53.316 62.0693 52.632L62.6813 52.044ZM77.4778 45.744H79.7458C79.5778 45.216 79.3858 44.724 79.1698 44.28L80.0698 44.136C80.2618 44.604 80.4418 45.144 80.6338 45.744H82.9258V46.596H77.4778V45.744ZM72.3058 49.428H73.1218V45.432H74.4418C74.5978 45 74.7178 44.568 74.8018 44.124L75.7018 44.244C75.6058 44.676 75.4858 45.072 75.3298 45.432H76.9738V54.108C76.9738 54.78 76.6498 55.116 76.0138 55.116H75.0058L74.7898 54.312C75.1378 54.336 75.4618 54.36 75.7618 54.36C76.0258 54.36 76.1698 54.18 76.1698 53.82V50.22H73.9018C73.8538 52.284 73.5298 53.952 72.9298 55.236L72.2578 54.624C72.7858 53.448 73.0738 51.984 73.1098 50.22H72.3058V49.428ZM76.1698 49.428V46.236H73.9138V49.428H76.1698ZM74.8738 46.848C75.2098 47.376 75.4978 47.976 75.7618 48.66L75.1138 48.828C74.8858 48.216 74.5978 47.628 74.2498 47.052L74.8738 46.848ZM74.9098 50.88C75.2218 51.528 75.5098 52.26 75.7738 53.1L75.0778 53.292C74.8618 52.524 74.5738 51.792 74.2378 51.096L74.9098 50.88ZM77.0938 54.636C77.5378 54.084 77.8498 53.484 78.0418 52.86C78.1978 52.296 78.2818 51.48 78.2818 50.424V47.916H81.6298V54.036C81.6298 54.192 81.7018 54.276 81.8578 54.276H82.1458C82.2298 54.276 82.3018 54.252 82.3738 54.228C82.4218 54.204 82.4698 54.156 82.4938 54.108C82.5538 54 82.5898 53.448 82.5898 52.44L83.3698 52.68C83.3698 53.364 83.3458 53.892 83.2978 54.252C83.2498 54.552 83.1538 54.768 82.9978 54.888C82.8418 54.984 82.5898 55.032 82.2538 55.032H81.8338C81.1498 55.032 80.8138 54.72 80.8138 54.12V48.708H79.0978V50.424C79.0978 51.492 79.0018 52.38 78.8098 53.1C78.6178 53.82 78.2698 54.528 77.7538 55.224L77.0938 54.636ZM85.0142 44.988H87.7742V44.208H88.6142V44.988H91.8302V44.196H92.6702V44.988H95.3942V45.756H92.6702V46.584H91.8302V45.756H88.6142V46.644H87.7742V45.756H85.0142V44.988ZM93.5222 48L94.2422 48.348C93.8222 49.092 93.3302 49.752 92.7542 50.304L92.1182 49.836C92.6582 49.32 93.1262 48.708 93.5222 48ZM90.1502 48.276C90.3902 48.708 90.5942 49.2 90.7742 49.764L90.0062 49.956C89.8502 49.452 89.6582 48.96 89.4302 48.504L90.1502 48.276ZM87.0662 48.432C87.3902 48.984 87.6782 49.584 87.9182 50.22L87.2102 50.532C86.9462 49.836 86.6462 49.212 86.3342 48.672L87.0662 48.432ZM94.1822 46.668L94.6022 47.376C92.4302 47.784 89.5502 48 85.9502 48L85.6862 47.196C89.0942 47.196 91.9262 47.016 94.1822 46.668ZM85.1942 51.024H89.8022V50.256H90.6422V51.024H95.2502V51.828H91.4702C92.3342 52.704 93.7262 53.484 95.6462 54.168L95.0582 54.924C93.0182 53.988 91.5662 52.956 90.7262 51.828H90.6422V55.2H89.8022V51.828H89.7182C88.8062 53.076 87.3422 54.108 85.3142 54.924L84.8342 54.12C86.7062 53.52 88.0742 52.752 88.9622 51.828H85.1942V51.024ZM98.4787 46.068H103.651C104.035 45.468 104.383 44.808 104.683 44.112L105.523 44.412C105.235 45.024 104.911 45.576 104.551 46.068H106.855V51H103.099V52.14H107.995V52.956H103.099V55.236H102.235V52.956H97.3387V52.14H102.235V51H98.4787V46.068ZM106.015 50.232V48.888H103.099V50.232H106.015ZM102.235 50.232V48.888H99.3187V50.232H102.235ZM99.3187 48.144H102.235V46.824H99.3187V48.144ZM103.099 46.824V48.144H106.015V46.824H103.099ZM100.603 44.172C100.999 44.628 101.371 45.144 101.731 45.696L101.011 46.056C100.651 45.48 100.279 44.976 99.8707 44.52L100.603 44.172ZM111.343 52.572C111.607 52.572 111.835 52.68 112.003 52.908C112.159 53.124 112.243 53.4 112.243 53.748C112.243 54.276 112.087 54.744 111.775 55.152C111.463 55.536 111.043 55.8 110.539 55.932V55.344C110.851 55.236 111.103 55.056 111.295 54.816C111.475 54.564 111.559 54.3 111.559 54.012C111.511 54.036 111.415 54.06 111.295 54.06C111.091 54.06 110.923 53.988 110.779 53.844C110.635 53.7 110.563 53.52 110.563 53.316C110.563 53.088 110.635 52.908 110.779 52.776C110.923 52.632 111.103 52.572 111.343 52.572ZM124.304 46.8H127.076V45.9H127.916V46.8H130.76V47.544H127.916V48.48H130.208V49.2H127.916V50.136H130.832C130.808 51.288 130.724 52.032 130.58 52.368C130.4 52.752 129.968 52.956 129.284 52.98C129.14 52.98 128.972 52.956 128.78 52.932L128.54 52.224C128.792 52.248 129.008 52.272 129.188 52.272C129.584 52.26 129.824 52.14 129.908 51.924C129.98 51.756 130.016 51.396 130.028 50.868H127.916V53.46H127.076V50.868H124.148V50.136H127.076V49.2H124.844V48.48H127.076V47.544H124.304V46.8ZM132.476 44.676V55.212H131.636V54.672H123.476V55.212H122.636V44.676H132.476ZM123.476 53.904H131.636V45.444H123.476V53.904ZM138.476 52.56V53.364C137.348 53.916 136.076 54.348 134.648 54.672L134.54 53.844C136.04 53.52 137.348 53.088 138.476 52.56ZM136.412 44.16L137.216 44.472C136.664 46.044 136.112 47.292 135.56 48.228C136.052 48.168 136.556 48.084 137.06 47.988C137.264 47.556 137.48 47.1 137.708 46.608L138.5 46.908C137.504 48.924 136.688 50.352 136.04 51.216C136.832 51.048 137.624 50.796 138.416 50.484V51.252C137.228 51.708 136.088 52.032 134.996 52.2L134.768 51.408C134.924 51.348 135.056 51.264 135.164 51.168C135.572 50.688 136.076 49.884 136.676 48.756C136.052 48.876 135.416 48.996 134.78 49.104L134.552 48.276C134.696 48.204 134.828 48.096 134.936 47.928C135.512 46.836 136.004 45.576 136.412 44.16ZM144.224 54.996H143.372C142.748 54.996 142.436 54.636 142.436 53.94V51.108H141.308V51.264C141.284 52.308 141.044 53.148 140.6 53.772C140.18 54.348 139.484 54.792 138.512 55.128L138.056 54.408C138.968 54.108 139.592 53.712 139.952 53.232C140.288 52.728 140.468 52.08 140.492 51.264V51.108H138.776V50.268H145.172V51.108H143.264V53.76C143.264 54.06 143.384 54.216 143.624 54.216H144.068C144.26 54.216 144.392 54.144 144.464 54.024C144.56 53.856 144.632 53.4 144.668 52.656L145.424 52.908C145.352 53.892 145.22 54.504 145.028 54.72C144.86 54.9 144.584 54.996 144.224 54.996ZM144.872 45.072L144.992 45.828L141.62 46.164C141.716 46.536 141.836 46.848 141.956 47.112C142.028 47.28 142.112 47.424 142.208 47.568C142.808 47.22 143.312 46.824 143.744 46.38L144.368 46.848C143.888 47.364 143.336 47.82 142.688 48.204C142.76 48.288 142.844 48.372 142.928 48.444C143.3 48.72 143.612 48.864 143.876 48.864C144.164 48.84 144.452 48.432 144.716 47.628L145.352 48.048C144.944 49.128 144.488 49.668 143.96 49.668C143.528 49.668 143.084 49.488 142.616 49.152C142.4 48.984 142.196 48.804 142.004 48.588C141.164 48.996 140.228 49.332 139.172 49.596L138.836 48.852C139.844 48.612 140.744 48.312 141.512 47.94C141.44 47.82 141.368 47.712 141.32 47.616C141.128 47.268 140.948 46.812 140.792 46.248L138.764 46.44L138.644 45.672L140.6 45.492C140.504 45.084 140.408 44.652 140.336 44.196L141.188 44.1C141.26 44.58 141.332 45.024 141.428 45.408L144.872 45.072ZM155.972 51.48V55.236H155.132V54.72H149.972V55.236H149.132V51.48H155.972ZM149.972 53.94H155.132V52.26H149.972V53.94ZM150.932 46.128L151.772 46.308C151.592 46.584 151.412 46.848 151.22 47.1H155.648V47.796C155.156 48.48 154.448 49.08 153.524 49.608C154.832 50.124 156.296 50.436 157.916 50.556L157.724 51.336C155.804 51.192 154.112 50.772 152.624 50.052C151.208 50.7 149.42 51.204 147.26 51.576L146.936 50.808C148.868 50.496 150.476 50.1 151.748 49.596C151.136 49.236 150.572 48.828 150.056 48.372C149.588 48.792 149.084 49.164 148.556 49.5L148.004 48.828C149.192 48.144 150.164 47.244 150.932 46.128ZM152.636 49.212C153.464 48.804 154.124 48.336 154.616 47.832H150.596L150.56 47.868C151.196 48.396 151.892 48.84 152.636 49.212ZM157.316 45.096V47.364H156.44V45.876H148.448V47.364H147.572V45.096H151.964C151.82 44.784 151.676 44.508 151.52 44.256L152.468 44.112C152.612 44.4 152.744 44.736 152.888 45.096H157.316ZM168.477 46.524H161.625V48.864H168.477V46.524ZM161.625 49.704C161.565 51.852 161.001 53.7 159.921 55.248L159.285 54.672C160.257 53.328 160.749 51.576 160.773 49.428V45.672H164.685C164.469 45.168 164.241 44.7 163.989 44.268L164.913 44.124C165.129 44.58 165.345 45.096 165.561 45.672H169.353V49.704H161.625ZM178.857 51.3H176.505V50.46H182.109V51.3H179.745V53.952H182.661V54.792H175.965V53.952H178.857V51.3ZM179.685 47.916C178.809 48.684 177.705 49.332 176.385 49.848L175.845 49.14C178.089 48.3 179.649 47.1 180.513 45.564H176.409V44.736H181.545V45.42C181.233 46.14 180.801 46.788 180.249 47.376C181.257 48.012 182.121 48.648 182.817 49.284L182.181 49.92C181.557 49.284 180.729 48.612 179.685 47.916ZM175.845 52.536V53.352C174.717 53.928 173.433 54.396 172.017 54.756L171.897 53.928C173.397 53.58 174.717 53.112 175.845 52.536ZM173.937 44.184L174.765 44.508C174.165 46.044 173.565 47.256 172.953 48.168C173.505 48.12 174.057 48.048 174.621 47.952C174.849 47.532 175.089 47.088 175.329 46.62L176.121 46.92C175.017 48.948 174.093 50.388 173.361 51.252C174.201 51.072 175.029 50.832 175.869 50.532V51.324C174.633 51.756 173.445 52.044 172.305 52.2L172.077 51.408C172.221 51.348 172.353 51.264 172.461 51.168C172.941 50.688 173.517 49.872 174.189 48.72C173.505 48.828 172.821 48.924 172.137 49.02L171.921 48.228C172.053 48.168 172.173 48.06 172.281 47.904C172.917 46.824 173.469 45.576 173.937 44.184ZM186.814 48.576H192.79V51.012H186.814V48.576ZM191.986 50.352V49.248H187.618V50.352H191.986ZM193.93 51.828V55.212H193.102V54.72H186.586V55.212H185.746V51.828H193.93ZM186.586 53.988H193.102V52.548H186.586V53.988ZM184.618 45.024H187.318V44.22H188.182V45.024H191.374V44.22H192.238V45.024H194.938V45.78H192.238V46.488H191.374V45.78H188.182V46.488H187.318V45.78H184.618V45.024ZM194.602 46.992V49.236H193.774V47.724H185.782V49.296H184.954V46.992H194.602ZM202.882 50.964H205.126V49.488H203.158L202.99 48.768C203.398 48.108 203.77 47.292 204.106 46.308H202.906V45.552H204.334C204.454 45.12 204.574 44.664 204.694 44.196L205.462 44.376C205.366 44.784 205.258 45.18 205.15 45.552H207.442V46.308H204.91C204.598 47.22 204.262 48.036 203.89 48.732H205.126V47.112H205.93V48.732H207.334V49.488H205.93V50.964H207.67V51.732H205.93V53.724H205.126V51.732H202.882V50.964ZM201.202 44.448C201.754 45.168 202.186 45.804 202.474 46.344L201.826 46.8C201.514 46.2 201.094 45.552 200.566 44.844L201.202 44.448ZM205.954 54.204C206.578 54.204 207.178 54.192 207.742 54.18L207.514 54.996H205.894C205.534 54.996 205.162 54.984 204.802 54.972C204.25 54.96 203.758 54.888 203.338 54.756C202.918 54.612 202.57 54.36 202.282 54.024C202.126 53.844 201.994 53.76 201.886 53.76C201.682 53.76 201.31 54.228 200.782 55.176L200.266 54.528C200.77 53.736 201.19 53.244 201.526 53.04V48.996H200.554V48.228H202.318V53.076C202.366 53.124 202.414 53.16 202.45 53.208C202.69 53.52 203.002 53.76 203.374 53.94C203.71 54.072 204.118 54.156 204.586 54.18C205.042 54.192 205.498 54.204 205.954 54.204ZM197.986 44.232L198.814 44.4C198.73 44.808 198.634 45.192 198.538 45.576H200.35V46.392H198.286C198.022 47.22 197.71 47.976 197.362 48.648L196.678 48.216C197.278 47.016 197.722 45.684 197.986 44.232ZM197.722 47.964H200.146V48.744H199.162V50.244H200.482V51.048H199.162V53.844C199.498 53.676 199.846 53.448 200.206 53.16L200.35 53.904C199.774 54.312 199.126 54.66 198.382 54.924L198.058 54.204C198.238 54.12 198.334 53.988 198.334 53.82V51.048H197.002V50.244H198.334V48.744H197.722V47.964ZM209.759 44.676H213.455V48.444H212.255V50.376H213.503V51.192H212.255V53.424C212.783 53.256 213.299 53.088 213.779 52.908V53.772C212.531 54.24 211.067 54.672 209.399 55.068L209.159 54.228L209.795 54.084V49.728H210.563V53.892C210.863 53.82 211.163 53.736 211.451 53.664V48.444H209.759V44.676ZM212.627 47.652V45.468H210.599V47.652H212.627ZM219.179 50.712V55.164H218.351V54.636H215.327V55.164H214.499V50.712H219.179ZM215.327 53.844H218.351V51.492H215.327V53.844ZM215.723 44.172L216.551 44.328C216.455 44.628 216.347 44.916 216.227 45.204H219.203V45.828C218.795 46.836 218.195 47.724 217.415 48.492C218.207 49.14 219.167 49.644 220.283 49.992L219.791 50.7C218.603 50.316 217.607 49.764 216.803 49.044C215.987 49.704 215.027 50.268 213.899 50.748L213.383 50.052C214.487 49.608 215.423 49.08 216.215 48.456C215.783 47.988 215.423 47.484 215.123 46.932C214.811 47.292 214.463 47.616 214.079 47.928L213.563 47.244C214.619 46.416 215.339 45.396 215.723 44.172ZM215.615 46.272C215.939 46.896 216.335 47.46 216.815 47.94C217.427 47.34 217.919 46.692 218.291 45.972H215.819C215.747 46.068 215.687 46.176 215.615 46.272ZM223.343 52.572C223.607 52.572 223.835 52.68 224.003 52.908C224.159 53.124 224.243 53.4 224.243 53.748C224.243 54.276 224.087 54.744 223.775 55.152C223.463 55.536 223.043 55.8 222.539 55.932V55.344C222.851 55.236 223.103 55.056 223.295 54.816C223.475 54.564 223.559 54.3 223.559 54.012C223.511 54.036 223.415 54.06 223.295 54.06C223.091 54.06 222.923 53.988 222.779 53.844C222.635 53.7 222.563 53.52 222.563 53.316C222.563 53.088 222.635 52.908 222.779 52.776C222.923 52.632 223.103 52.572 223.343 52.572ZM240.684 44.196H241.572V48.072H244.692V48.912H241.572V53.94H245.148V54.792H238.08V53.94H240.684V44.196ZM235.5 44.292C236.316 44.916 237 45.54 237.552 46.164L236.964 46.764C236.46 46.164 235.764 45.54 234.9 44.88L235.5 44.292ZM234.096 47.868H236.688V53.232C237.12 52.884 237.576 52.476 238.068 52.008L238.296 52.92C237.552 53.616 236.748 54.24 235.908 54.78L235.584 54.012C235.764 53.868 235.86 53.7 235.86 53.532V48.696H234.096V47.868ZM252.984 50.868H252.024L251.844 50.064C252.144 50.1 252.432 50.124 252.696 50.124C252.912 50.124 253.032 49.968 253.032 49.668V46.62H253.896V49.872C253.896 50.532 253.584 50.868 252.984 50.868ZM248.064 47.424C247.716 47.832 247.356 48.204 246.984 48.54L246.444 47.88C247.524 46.944 248.412 45.708 249.108 44.184L249.948 44.364C249.636 45.06 249.288 45.708 248.904 46.296V50.88H248.064V47.424ZM251.808 44.172L252.624 44.352C252.48 44.676 252.324 44.988 252.18 45.276H256.992V45.816C256.836 46.416 256.644 47.004 256.404 47.58L255.624 47.376C255.828 46.98 255.996 46.548 256.128 46.068H251.7C251.244 46.764 250.716 47.364 250.14 47.892L249.612 47.244C250.512 46.452 251.244 45.432 251.808 44.172ZM247.86 51.492L248.688 51.66C248.4 52.812 248.004 53.82 247.488 54.672L246.756 54.204C247.26 53.388 247.62 52.476 247.86 51.492ZM253.764 55.02H250.692C249.948 55.02 249.588 54.636 249.588 53.868V51.336H250.464V53.688C250.464 54.024 250.62 54.204 250.956 54.204H253.596C253.836 54.204 254.004 54.132 254.112 53.988C254.256 53.82 254.34 53.34 254.388 52.548L255.204 52.812C255.12 53.868 254.964 54.504 254.724 54.732C254.52 54.924 254.196 55.02 253.764 55.02ZM255.804 51.12C256.572 52.176 257.148 53.1 257.556 53.892L256.848 54.396C256.416 53.532 255.828 52.584 255.096 51.552L255.804 51.12ZM251.484 47.772L252.18 48.096C251.724 49.02 251.196 49.824 250.596 50.496L249.936 50.04C250.536 49.392 251.052 48.636 251.484 47.772ZM255.468 47.76C256.044 48.48 256.548 49.284 256.992 50.172L256.26 50.544C255.804 49.608 255.288 48.792 254.736 48.072L255.468 47.76ZM252.084 51.012C252.684 51.696 253.14 52.296 253.452 52.812L252.78 53.28C252.444 52.728 251.988 52.104 251.412 51.432L252.084 51.012ZM26.104 65.42H29.248V64.196H30.124V65.42H33.424V66.248H30.124V67.388H32.932V70.784H30.076C29.98 71.864 29.776 72.692 29.452 73.292C30.652 73.952 32.044 74.324 33.616 74.408L33.4 75.236C31.72 75.128 30.244 74.708 28.972 73.964C28.324 74.624 27.304 75.056 25.912 75.26L25.54 74.468C26.764 74.336 27.664 74 28.216 73.472C27.508 72.968 26.872 72.356 26.32 71.648L26.98 71.192C27.496 71.84 28.072 72.38 28.708 72.836C28.96 72.308 29.128 71.624 29.2 70.784H26.512V67.388H29.248V66.248H26.104V65.42ZM32.116 70.004V68.156H30.124V69.716C30.124 69.812 30.112 69.908 30.112 70.004H32.116ZM29.236 70.004C29.236 69.908 29.248 69.812 29.248 69.716V68.156H27.328V70.004H29.236ZM23.908 68.528C23.524 69.068 23.116 69.584 22.66 70.076L22.372 69.164C23.62 67.7 24.52 66.02 25.072 64.124L25.888 64.496C25.588 65.432 25.216 66.32 24.772 67.148V75.224H23.908V68.528ZM36.556 68.384V70.484H39.604V68.384H36.556ZM36.508 71.276C36.376 72.812 35.932 74.084 35.164 75.092L34.504 74.504C35.272 73.436 35.668 72.08 35.692 70.436V64.676H44.632V73.664C44.632 74.504 44.212 74.924 43.372 74.924H41.992L41.764 74.072C42.244 74.096 42.688 74.12 43.096 74.12C43.528 74.12 43.756 73.868 43.756 73.364V71.276H40.492V74.792H39.604V71.276H36.508ZM43.756 70.484V68.384H40.492V70.484H43.756ZM43.756 67.58V65.516H40.492V67.58H43.756ZM39.604 65.516H36.556V67.58H39.604V65.516ZM57.28 70.676C57.208 71.648 57.064 72.284 56.872 72.572C56.692 72.86 56.32 73.016 55.756 73.016H53.62C52.936 73.016 52.6 72.668 52.6 71.984V68.084H55.864V65.768H52.396V64.964H56.704V68.912H53.464V71.672C53.464 71.996 53.632 72.164 53.968 72.176H55.6C55.936 72.176 56.164 72.044 56.272 71.792C56.356 71.564 56.416 71.096 56.464 70.4L57.28 70.676ZM47.452 69.908L48.232 70.004C48.208 70.688 48.148 71.336 48.052 71.96C48.412 72.632 48.82 73.136 49.3 73.472V69.14H46.84V68.348H49.036V66.584H47.056V65.792H49.036V64.172H49.9V65.792H51.82V66.584H49.9V68.348H51.976V69.14H50.128V70.832H51.832V71.624H50.128V73.88C50.872 74.084 52.348 74.192 54.544 74.192C55.876 74.192 56.872 74.168 57.52 74.132L57.376 74.972H54.736C51.928 74.972 50.164 74.804 49.468 74.48C48.856 74.192 48.316 73.676 47.86 72.956C47.668 73.76 47.428 74.504 47.116 75.2L46.456 74.612C47.056 73.22 47.392 71.648 47.452 69.908ZM61.036 66.92C61.432 67.532 61.804 68.204 62.164 68.948L61.42 69.32C61.072 68.552 60.688 67.88 60.28 67.28L61.036 66.92ZM62.776 70.292H58.768V69.464H63.556V66.452H59.236V65.624H63.556V64.244H64.444V65.624H68.86V66.452H64.444V69.464H65.644C66.112 68.648 66.508 67.76 66.844 66.812L67.684 67.112C67.336 67.988 66.94 68.768 66.496 69.464H69.208V70.292H65.2C66.052 71.66 67.504 72.872 69.544 73.94L68.956 74.684C66.832 73.376 65.344 71.912 64.492 70.292H64.444V75.176H63.556V70.292H63.484C62.716 71.996 61.192 73.46 58.912 74.696L58.432 73.928C60.592 72.86 62.044 71.648 62.776 70.292ZM70.864 64.676H81.148V65.48H76.432V66.524H80.152V71.276H76.288C76.144 72.068 75.916 72.704 75.58 73.184C77.26 73.892 79.252 74.288 81.556 74.36L81.34 75.188C78.928 75.092 76.828 74.624 75.04 73.808C74.2 74.528 72.82 74.984 70.912 75.2L70.54 74.408C72.208 74.276 73.432 73.94 74.2 73.388C73.504 73.004 72.856 72.56 72.268 72.056L72.928 71.6C73.492 72.068 74.116 72.476 74.788 72.824C75.076 72.416 75.292 71.9 75.412 71.276H71.896V66.524H75.568V65.48H70.864V64.676ZM79.3 70.52V69.248H76.432V69.668L76.396 70.52H79.3ZM75.532 70.52C75.556 70.244 75.568 69.956 75.568 69.668V69.248H72.748V70.52H75.532ZM72.748 68.528H75.568V67.268H72.748V68.528ZM76.432 67.268V68.528H79.3V67.268H76.432ZM86.116 64.712H93.316V65.504H89.92V66.572H92.752V71.18H89.896C89.812 72.032 89.572 72.74 89.176 73.316C90.424 73.976 91.876 74.348 93.544 74.42L93.328 75.212C91.528 75.116 89.968 74.684 88.636 73.916C87.988 74.456 87.064 74.888 85.84 75.212L85.396 74.516C86.512 74.228 87.34 73.868 87.892 73.448C87.304 73.04 86.764 72.56 86.284 72.008L86.932 71.552C87.388 72.056 87.892 72.5 88.444 72.884C88.768 72.404 88.972 71.828 89.044 71.18H86.248V66.572H89.08V65.504H86.116V64.712ZM91.936 70.472V69.212H89.92V70.472H91.936ZM89.08 70.472V69.212H87.064V70.472H89.08ZM87.064 68.504H89.08V67.28H87.064V68.504ZM89.92 67.28V68.504H91.936V67.28H89.92ZM83.872 68.54C83.524 69.068 83.14 69.584 82.732 70.064L82.444 69.152C83.572 67.712 84.4 66.056 84.904 64.196L85.684 64.556C85.42 65.432 85.108 66.26 84.724 67.052V75.188H83.872V68.54ZM104.512 70.928H102.148V72.008H104.788V72.764H102.148V74.108C102.556 74.156 103.036 74.18 103.576 74.18C104.332 74.18 104.968 74.156 105.496 74.12L105.244 74.996C104.644 74.996 104.116 74.984 103.636 74.972C102.148 74.96 101.14 74.816 100.612 74.552C100.192 74.336 99.808 73.916 99.472 73.304C99.196 74.096 98.836 74.72 98.404 75.2L97.708 74.72C98.428 73.928 98.884 72.824 99.076 71.42L99.88 71.54C99.832 71.876 99.772 72.176 99.712 72.452C100.072 73.172 100.48 73.628 100.936 73.832C101.056 73.88 101.176 73.916 101.32 73.964V70.928H99.004V70.184H101.32V69.176H98.608V68.432H101.32V67.436H99.088V66.692H101.32V65.804H98.536V65.048H101.32V64.208H102.148V65.048H105.184V65.804H102.148V66.692H104.512V68.432H105.292V69.176H104.512V70.928ZM102.148 67.436V68.432H103.732V67.436H102.148ZM103.732 69.176H102.148V70.184H103.732V69.176ZM96.016 75.068H94.96L94.78 74.24C95.104 74.276 95.416 74.3 95.716 74.3C96.004 74.3 96.16 74.144 96.16 73.844V70.844C95.68 71.036 95.212 71.216 94.732 71.384L94.516 70.52C95.068 70.376 95.62 70.196 96.16 69.98V67.232H94.684V66.404H96.16V64.22H97.024V66.404H98.308V67.232H97.024V69.596C97.432 69.404 97.816 69.188 98.2 68.972V69.836C97.804 70.052 97.408 70.256 97.024 70.448V74.06C97.024 74.732 96.688 75.068 96.016 75.068Z" fill="#545A6E"/>
<path d="M56.7193 118.088V129.428H55.3753V128.644H48.4313V129.428H47.0873V118.088H50.1113C50.3913 117.57 50.6153 117.038 50.7553 116.478L52.1133 116.674C51.9733 117.178 51.7633 117.64 51.5113 118.088H56.7193ZM48.4313 127.384H55.3753V125.424H48.4313V127.384ZM48.4313 124.192H55.3753V122.358H48.4313V124.192ZM48.4313 121.126H55.3753V119.362H48.4313V121.126ZM61.7593 120.566H70.0753V121.826H66.6313V123.926H70.6633V125.186H66.6313V127.762C67.5833 127.902 68.7453 127.972 70.1453 127.986C70.8453 127.986 71.5733 127.944 72.3013 127.888L72.0493 129.204H70.7333C67.7933 129.204 65.6793 128.938 64.4193 128.406C63.5233 127.986 62.7953 127.37 62.2353 126.558C61.7033 127.678 61.0453 128.63 60.2613 129.414L59.3933 128.35C60.7093 126.978 61.6053 125.13 62.0533 122.834L63.3413 123.058C63.1733 123.87 62.9633 124.64 62.7253 125.34C63.3833 126.432 64.2093 127.146 65.1893 127.454L65.3153 127.482V121.826H61.7593V120.566ZM71.7693 117.836V121.014H70.4673V119.068H61.3393V121.084H60.0373V117.836H65.3013C65.1053 117.388 64.8813 116.982 64.6573 116.618L66.0853 116.394C66.2813 116.828 66.4773 117.304 66.6593 117.836H71.7693ZM79.0213 116.506C79.8613 117.5 80.6033 118.592 81.2473 119.782L80.0293 120.398C79.3573 119.152 78.6013 118.046 77.7753 117.066L79.0213 116.506ZM83.5013 117.192L84.8173 117.486C84.2013 120.706 82.9413 123.324 81.0513 125.354C82.5493 126.53 84.2993 127.468 86.2873 128.154L85.4613 129.386C83.4033 128.63 81.5973 127.608 80.0433 126.32C78.4753 127.664 76.5853 128.714 74.3593 129.442L73.6033 128.224C75.7173 127.552 77.5093 126.586 78.9653 125.354C77.2153 123.646 75.8153 121.574 74.7793 119.11L75.9973 118.41C76.9353 120.804 78.2513 122.806 79.9593 124.416C81.7513 122.54 82.9273 120.132 83.5013 117.192ZM93.2313 123.87H90.1793V120.594H97.6833V123.87H94.5753V124.738H99.0133V127.314C99.0133 128.252 98.5233 128.728 97.5573 128.728H96.4933L96.1433 127.468L97.1233 127.524C97.5013 127.524 97.6973 127.356 97.6973 127.02V125.942H94.5753V129.442H93.2313V125.942H90.1513V128.826H88.8493V124.738H93.2313V123.87ZM93.2313 116.45H94.5753V118.48H96.1293C96.5213 117.892 96.8713 117.276 97.1513 116.632L98.4113 117.094C98.1313 117.626 97.8373 118.088 97.5573 118.48H99.8813V121.504H98.5373V119.74H89.2693V121.518H87.9253V118.48H90.1093C89.8713 118.018 89.5913 117.584 89.2833 117.192L90.5433 116.73C90.8653 117.234 91.1733 117.808 91.4533 118.48H93.2313V116.45ZM96.3953 122.764V121.7H91.4673V122.764H96.3953ZM104.067 121.602V123.744H107.287V121.602H104.067ZM103.997 124.976C103.829 126.74 103.311 128.196 102.443 129.344L101.421 128.434C102.261 127.23 102.695 125.704 102.723 123.856V116.996H113.461V127.538C113.461 128.588 112.915 129.12 111.851 129.12H110.241L109.891 127.818C110.437 127.86 110.941 127.888 111.417 127.888C111.865 127.888 112.103 127.608 112.103 127.062V124.976H108.631V128.966H107.287V124.976H103.997ZM112.103 123.744V121.602H108.631V123.744H112.103ZM112.103 120.384V118.284H108.631V120.384H112.103ZM107.287 118.284H104.067V120.384H107.287V118.284ZM117.493 119.25H115.589V117.976H120.727V119.25H118.823V125.284C119.523 125.074 120.209 124.85 120.895 124.598V125.928C119.285 126.502 117.577 126.992 115.757 127.384L115.421 126.04C116.121 125.928 116.807 125.788 117.493 125.634V119.25ZM123.107 116.562H124.451V119.278H127.965C127.965 123.842 127.895 126.67 127.755 127.748C127.573 128.798 126.761 129.33 125.333 129.33C125.081 129.33 124.633 129.302 124.003 129.26L123.681 128.014C124.241 128.056 124.717 128.084 125.109 128.084C125.921 128.084 126.383 127.762 126.509 127.132C126.593 126.474 126.635 124.29 126.663 120.566H124.451V120.608C124.395 124.668 123.303 127.65 121.175 129.554L120.083 128.588C122.071 126.936 123.079 124.276 123.107 120.608V120.566H120.993V119.278H123.107V116.562ZM131.591 124.724V125.746H134.475V124.724H131.591ZM134.475 123.632V122.554H131.591V123.632H134.475ZM131.591 126.852V129.47H130.303V121.392H135.763V127.916C135.763 128.882 135.301 129.372 134.405 129.372H133.313L132.991 128.126L133.985 128.182C134.307 128.182 134.475 128 134.475 127.636V126.852H131.591ZM140.537 122.722H138.255C137.275 122.722 136.799 122.19 136.799 121.126V116.576H138.115V118.228C139.557 118.004 140.733 117.78 141.643 117.528L142.077 118.704C140.929 118.97 139.613 119.222 138.115 119.446V120.846C138.115 121.294 138.283 121.532 138.619 121.532H140.285C140.509 121.532 140.663 121.462 140.761 121.322C140.873 121.154 140.957 120.678 140.985 119.894L142.231 120.3C142.119 121.462 141.923 122.162 141.671 122.4C141.419 122.61 141.041 122.722 140.537 122.722ZM138.115 125.956V127.664C138.115 127.916 138.269 128.042 138.605 128.042H140.299C140.523 128.042 140.691 127.972 140.789 127.846C140.901 127.678 140.985 127.202 141.027 126.418L142.231 126.81C142.119 127.986 141.937 128.686 141.685 128.91C141.447 129.12 141.069 129.232 140.551 129.232H138.227C137.275 129.232 136.799 128.798 136.799 127.958V123.212H138.115V124.752C139.431 124.612 140.607 124.374 141.643 124.066L142.077 125.256C140.845 125.592 139.515 125.816 138.115 125.956ZM134.755 117.5C135.581 118.606 136.211 119.572 136.659 120.384L135.567 121.168C135.427 120.888 135.273 120.594 135.105 120.3C133.649 120.524 131.899 120.692 129.855 120.804L129.491 119.698C129.729 119.614 129.925 119.502 130.093 119.362C130.947 118.41 131.605 117.458 132.053 116.506L133.327 116.884C132.739 118.032 132.081 118.942 131.353 119.642C132.333 119.586 133.397 119.474 134.531 119.334C134.279 118.942 134.013 118.55 133.733 118.144L134.755 117.5Z" fill="#272E47"/>
<path d="M23.5841 147.4H24.8921V144.256H25.7441V147.4H26.9561V148.216H25.7441V152.2C26.2121 152.008 26.6801 151.792 27.1361 151.552V152.416C26.0801 152.944 24.9401 153.388 23.7281 153.748L23.5121 152.896C23.9801 152.788 24.4361 152.656 24.8921 152.512V148.216H23.5841V147.4ZM29.4041 144.208C29.5721 144.652 29.7521 145.156 29.9201 145.732H31.6121C31.8281 145.216 31.9841 144.676 32.0801 144.124L32.9441 144.244C32.8241 144.772 32.6681 145.276 32.4641 145.732H34.0481V149.776H27.4721V145.732H29.1161C28.9481 145.228 28.7561 144.772 28.5401 144.352L29.4041 144.208ZM33.2921 149.068V146.452H31.0721V149.068H33.2921ZM30.3881 149.068V146.452H28.2281V149.068H30.3881ZM29.3201 146.944C29.5241 147.4 29.7161 147.916 29.8841 148.504L29.3201 148.648C29.1641 148.12 28.9721 147.604 28.7561 147.124L29.3201 146.944ZM32.1401 146.884L32.7281 147.028C32.5721 147.652 32.3681 148.204 32.1281 148.684L31.5761 148.48C31.7921 148.06 31.9721 147.532 32.1401 146.884ZM33.6161 150.58V155.212H32.7881V154.708H28.7801V155.212H27.9521V150.58H33.6161ZM28.7801 154H32.7881V152.98H28.7801V154ZM28.7801 152.308H32.7881V151.288H28.7801V152.308ZM46.3172 145.984V155.02H45.4772V154.216H43.2212V155.02H42.3932V145.984H46.3172ZM43.2212 153.388H45.4772V146.812H43.2212V153.388ZM37.9772 144.232H38.8412V146.656H41.2892C41.2892 150.4 41.2292 152.716 41.1092 153.604C40.9892 154.588 40.4012 155.092 39.3452 155.092C39.1652 155.092 38.8652 155.068 38.4332 155.044L38.2172 154.252C38.6012 154.276 38.9372 154.3 39.2252 154.3C39.8372 154.3 40.1972 153.952 40.2932 153.268C40.3652 152.644 40.4132 150.712 40.4372 147.496H38.8412C38.7932 151.036 38.0012 153.616 36.4652 155.248L35.8292 154.684C37.2212 153.184 37.9412 150.784 37.9772 147.496H36.0572V146.656H37.9772V144.232ZM57.8063 145.624V155.188H56.9303V154.444H50.6183V155.188H49.7423V145.624H52.3103C52.5743 145.144 52.7783 144.664 52.8983 144.16L53.7743 144.28C53.6423 144.76 53.4503 145.216 53.2103 145.624H57.8063ZM50.6183 153.616H56.9303V151.66H50.6183V153.616ZM50.6183 150.868H56.9303V149.032H50.6183V150.868ZM50.6183 148.24H56.9303V146.452H50.6183V148.24ZM62.6475 147.76H69.7035V148.576H66.6555V150.688H70.2315V151.504H66.6555V153.988C67.4955 154.108 68.5035 154.18 69.7035 154.192C70.3155 154.192 70.9395 154.168 71.5875 154.12L71.4315 154.984H70.0875C67.6635 154.984 65.9355 154.756 64.8795 154.312C64.0875 153.94 63.4395 153.364 62.9475 152.584C62.4795 153.616 61.9035 154.48 61.2195 155.176L60.6675 154.492C61.8195 153.268 62.5875 151.624 62.9955 149.56L63.8355 149.704C63.6915 150.448 63.4995 151.132 63.2835 151.756C63.8595 152.788 64.5795 153.436 65.4435 153.712C65.5515 153.748 65.6715 153.784 65.7915 153.808V148.576H62.6475V147.76ZM71.0715 145.42V147.976H70.2315V146.212H62.0955V148.036H61.2555V145.42H65.8395C65.6595 144.988 65.4555 144.592 65.2395 144.232L66.1635 144.088C66.3555 144.484 66.5475 144.928 66.7155 145.42H71.0715ZM77.6046 144.196C78.3606 145.06 79.0206 146.02 79.5966 147.052L78.8166 147.448C78.2046 146.368 77.5326 145.408 76.7886 144.568L77.6046 144.196ZM81.7806 144.76L82.6326 144.952C82.0926 147.76 80.9886 150.028 79.3086 151.768C80.6526 152.872 82.2126 153.736 84.0126 154.36L83.4726 155.164C81.6246 154.468 80.0286 153.544 78.6606 152.392C77.3046 153.604 75.6366 154.528 73.6686 155.176L73.1886 154.396C75.0846 153.784 76.6806 152.908 77.9766 151.78C76.4166 150.28 75.1926 148.456 74.2926 146.296L75.0846 145.852C75.9246 147.976 77.1006 149.752 78.6126 151.168C80.2206 149.5 81.2766 147.364 81.7806 144.76ZM90.4977 150.352H87.8577V147.712H94.0497V150.352H91.3857V151.312H95.2017V153.496C95.2017 154.216 94.8297 154.576 94.1097 154.576H93.1497L92.9217 153.748L93.8337 153.784C94.1697 153.784 94.3497 153.616 94.3497 153.304V152.104H91.3857V155.224H90.4977V152.104H87.5937V154.648H86.7417V151.312H90.4977V150.352ZM90.4977 144.136H91.3857V145.972H92.9097C93.2817 145.444 93.6057 144.892 93.8697 144.304L94.6737 144.604C94.3977 145.132 94.1097 145.588 93.8217 145.972H95.9337V148.396H95.0457V146.788H86.8377V148.408H85.9497V145.972H87.9057C87.6777 145.516 87.4017 145.084 87.0897 144.688L87.9057 144.388C88.2177 144.832 88.5057 145.36 88.7577 145.972H90.4977V144.136ZM93.2217 149.62V148.444H88.6977V149.62H93.2217ZM99.8868 148.384V150.484H102.935V148.384H99.8868ZM99.8388 151.276C99.7068 152.812 99.2628 154.084 98.4948 155.092L97.8348 154.504C98.6028 153.436 98.9988 152.08 99.0228 150.436V144.676H107.963V153.664C107.963 154.504 107.543 154.924 106.703 154.924H105.323L105.095 154.072C105.575 154.096 106.019 154.12 106.427 154.12C106.859 154.12 107.087 153.868 107.087 153.364V151.276H103.823V154.792H102.935V151.276H99.8388ZM107.087 150.484V148.384H103.823V150.484H107.087ZM107.087 147.58V145.516H103.823V147.58H107.087ZM102.935 145.516H99.8868V147.58H102.935V145.516ZM112.072 146.368H110.344V145.54H114.676V146.368H112.948V151.876C113.584 151.696 114.208 151.492 114.82 151.252V152.116C113.452 152.62 111.988 153.028 110.428 153.364L110.212 152.5C110.836 152.392 111.46 152.26 112.072 152.116V146.368ZM116.884 144.232H117.772V146.656H120.82C120.82 150.4 120.76 152.716 120.64 153.604C120.496 154.588 119.812 155.092 118.6 155.092C118.384 155.092 118.024 155.068 117.508 155.044L117.304 154.24C117.748 154.264 118.132 154.276 118.468 154.276C119.248 154.276 119.704 153.928 119.824 153.244C119.896 152.62 119.944 150.7 119.968 147.496H117.772C117.712 151.024 116.752 153.604 114.904 155.248L114.196 154.636C115.948 153.148 116.836 150.76 116.884 147.496H114.976V146.656H116.884V144.232ZM124.257 151.084V152.2H127.029V151.084H124.257ZM127.029 150.364V149.2H124.257V150.364H127.029ZM124.257 152.932V155.224H123.429V148.444H127.857V154.084C127.857 154.78 127.521 155.14 126.849 155.14H125.889L125.673 154.324L126.573 154.36C126.873 154.36 127.029 154.204 127.029 153.904V152.932H124.257ZM132.069 149.44H130.089C129.357 149.44 128.997 149.044 128.997 148.264V144.232H129.849V145.792C131.169 145.588 132.237 145.372 133.065 145.156L133.341 145.912C132.333 146.164 131.169 146.392 129.849 146.584V148.084C129.849 148.468 130.005 148.66 130.329 148.66H131.901C132.141 148.66 132.309 148.588 132.405 148.468C132.525 148.3 132.597 147.856 132.645 147.112L133.449 147.364C133.365 148.348 133.209 148.948 132.993 149.164C132.801 149.344 132.489 149.44 132.069 149.44ZM129.849 152.152V153.868C129.849 154.108 129.993 154.24 130.305 154.24H131.937C132.177 154.24 132.357 154.18 132.453 154.072C132.585 153.904 132.669 153.46 132.717 152.728L133.497 152.968C133.425 153.94 133.269 154.528 133.041 154.744C132.849 154.924 132.537 155.02 132.105 155.02H130.065C129.345 155.02 128.997 154.696 128.997 154.06V149.896H129.849V151.372C131.049 151.252 132.117 151.048 133.065 150.76L133.341 151.528C132.261 151.84 131.097 152.044 129.849 152.152ZM126.993 145.048C127.713 146.02 128.277 146.86 128.673 147.58L127.965 148.084C127.833 147.82 127.689 147.556 127.533 147.292C126.249 147.496 124.713 147.64 122.937 147.736L122.697 147.016C122.853 146.968 122.985 146.884 123.093 146.788C123.837 146.02 124.461 145.156 124.941 144.196L125.757 144.448C125.205 145.516 124.605 146.356 123.933 146.968C124.941 146.908 126.009 146.812 127.137 146.668C126.885 146.284 126.609 145.876 126.321 145.468L126.993 145.048ZM136.73 152.572C136.994 152.572 137.222 152.68 137.39 152.908C137.546 153.124 137.63 153.4 137.63 153.748C137.63 154.276 137.474 154.744 137.162 155.152C136.85 155.536 136.43 155.8 135.926 155.932V155.344C136.238 155.236 136.49 155.056 136.682 154.816C136.862 154.564 136.946 154.3 136.946 154.012C136.898 154.036 136.802 154.06 136.682 154.06C136.478 154.06 136.31 153.988 136.166 153.844C136.022 153.7 135.95 153.52 135.95 153.316C135.95 153.088 136.022 152.908 136.166 152.776C136.31 152.632 136.49 152.572 136.73 152.572ZM153.139 151.948H150.979V151.168H154.123V150.448H154.951V151.168H158.095V151.948H155.887C156.415 152.74 157.267 153.436 158.443 154.06L157.879 154.756C156.607 153.916 155.695 152.98 155.167 151.948H154.951V155.164H154.123V151.948H153.883C153.295 153.088 152.359 154.036 151.063 154.792L150.619 154.048C151.759 153.496 152.599 152.788 153.139 151.948ZM150.907 149.164V150.016C150.523 150.22 150.139 150.412 149.755 150.58V154.108C149.755 154.756 149.419 155.092 148.759 155.092H147.799L147.619 154.264C147.907 154.3 148.195 154.324 148.459 154.324C148.747 154.324 148.891 154.18 148.891 153.892V150.94C148.483 151.108 148.063 151.252 147.643 151.384L147.439 150.52C147.943 150.4 148.423 150.256 148.891 150.088V147.328H147.547V146.5H148.891V144.244H149.755V146.5H151.015V147.328H149.755V149.74C150.139 149.56 150.523 149.368 150.907 149.164ZM152.239 144.628H156.835V147.076H152.239V144.628ZM156.043 146.392V145.312H153.019V146.392H156.043ZM151.255 147.796H154.183V150.172H151.255V147.796ZM153.475 149.548V148.42H151.975V149.548H153.475ZM154.891 147.796H157.843V150.172H154.891V147.796ZM157.135 149.548V148.42H155.599V149.548H157.135ZM165.084 146.74C164.532 147.904 163.896 148.912 163.176 149.776L162.564 149.044C163.62 147.796 164.496 146.152 165.168 144.124L166.032 144.316C165.84 144.868 165.648 145.396 165.456 145.888H170.64V146.74H166.608V148.72H170.112V149.56H166.608V151.588H170.184V152.416H166.608V155.212H165.732V146.74H165.084ZM161.244 148.468C160.86 148.972 160.44 149.452 159.984 149.908L159.696 148.996C160.992 147.592 161.94 145.984 162.528 144.16L163.344 144.544C163.02 145.48 162.612 146.356 162.132 147.172V155.212H161.244V148.468ZM172.53 144.676H182.814V145.48H178.098V146.524H181.818V151.276H177.954C177.81 152.068 177.582 152.704 177.246 153.184C178.926 153.892 180.918 154.288 183.222 154.36L183.006 155.188C180.594 155.092 178.494 154.624 176.706 153.808C175.866 154.528 174.486 154.984 172.578 155.2L172.206 154.408C173.874 154.276 175.098 153.94 175.866 153.388C175.17 153.004 174.522 152.56 173.934 152.056L174.594 151.6C175.158 152.068 175.782 152.476 176.454 152.824C176.742 152.416 176.958 151.9 177.078 151.276H173.562V146.524H177.234V145.48H172.53V144.676ZM180.966 150.52V149.248H178.098V149.668L178.062 150.52H180.966ZM177.198 150.52C177.222 150.244 177.234 149.956 177.234 149.668V149.248H174.414V150.52H177.198ZM174.414 148.528H177.234V147.268H174.414V148.528ZM178.098 147.268V148.528H180.966V147.268H178.098ZM188.879 146.032H191.015V144.22H191.855V146.032H194.411V149.656H195.347V150.496H192.071C192.815 152.128 194.003 153.448 195.623 154.456L195.035 155.128C193.403 154.012 192.203 152.608 191.447 150.904C190.907 152.824 189.839 154.228 188.243 155.14L187.715 154.432C189.251 153.616 190.259 152.308 190.715 150.496H188.387V149.656H190.883C190.967 149.104 191.015 148.504 191.015 147.88V146.836H188.879V146.032ZM191.855 146.836V147.7C191.855 148.396 191.807 149.044 191.711 149.656H193.571V146.836H191.855ZM184.967 146.512L185.651 146.56C185.615 147.76 185.471 148.912 185.219 149.992L184.511 149.788C184.775 148.756 184.931 147.664 184.967 146.512ZM187.991 146.248C188.327 147.016 188.615 147.892 188.879 148.888L188.171 149.056C187.955 148.156 187.679 147.292 187.343 146.452L187.991 146.248ZM186.251 144.232H187.103V155.152H186.251V144.232ZM206.956 150.928H204.592V152.008H207.232V152.764H204.592V154.108C205 154.156 205.48 154.18 206.02 154.18C206.776 154.18 207.412 154.156 207.94 154.12L207.688 154.996C207.088 154.996 206.56 154.984 206.08 154.972C204.592 154.96 203.584 154.816 203.056 154.552C202.636 154.336 202.252 153.916 201.916 153.304C201.64 154.096 201.28 154.72 200.848 155.2L200.152 154.72C200.872 153.928 201.328 152.824 201.52 151.42L202.324 151.54C202.276 151.876 202.216 152.176 202.156 152.452C202.516 153.172 202.924 153.628 203.38 153.832C203.5 153.88 203.62 153.916 203.764 153.964V150.928H201.448V150.184H203.764V149.176H201.052V148.432H203.764V147.436H201.532V146.692H203.764V145.804H200.98V145.048H203.764V144.208H204.592V145.048H207.628V145.804H204.592V146.692H206.956V148.432H207.736V149.176H206.956V150.928ZM204.592 147.436V148.432H206.176V147.436H204.592ZM206.176 149.176H204.592V150.184H206.176V149.176ZM198.46 155.068H197.404L197.224 154.24C197.548 154.276 197.86 154.3 198.16 154.3C198.448 154.3 198.604 154.144 198.604 153.844V150.844C198.124 151.036 197.656 151.216 197.176 151.384L196.96 150.52C197.512 150.376 198.064 150.196 198.604 149.98V147.232H197.128V146.404H198.604V144.22H199.468V146.404H200.752V147.232H199.468V149.596C199.876 149.404 200.26 149.188 200.644 148.972V149.836C200.248 150.052 199.852 150.256 199.468 150.448V154.06C199.468 154.732 199.132 155.068 198.46 155.068ZM211.065 152.572C211.329 152.572 211.557 152.68 211.725 152.908C211.881 153.124 211.965 153.4 211.965 153.748C211.965 154.276 211.809 154.744 211.497 155.152C211.185 155.536 210.765 155.8 210.261 155.932V155.344C210.573 155.236 210.825 155.056 211.017 154.816C211.197 154.564 211.281 154.3 211.281 154.012C211.233 154.036 211.137 154.06 211.017 154.06C210.813 154.06 210.645 153.988 210.501 153.844C210.357 153.7 210.285 153.52 210.285 153.316C210.285 153.088 210.357 152.908 210.501 152.776C210.645 152.632 210.825 152.572 211.065 152.572ZM222.218 144.676H225.23V145.324C225.014 146.332 224.75 147.388 224.438 148.492C224.954 149.512 225.23 150.4 225.266 151.144C225.266 151.648 225.17 152.008 224.978 152.212C224.702 152.488 224.234 152.632 223.562 152.644L223.31 151.84C223.562 151.864 223.778 151.876 223.946 151.876C224.126 151.852 224.258 151.792 224.354 151.696C224.426 151.588 224.474 151.408 224.474 151.144C224.474 150.4 224.198 149.548 223.658 148.612C223.994 147.448 224.258 146.392 224.438 145.444H223.022V155.116H222.218V144.676ZM226.118 144.892C226.598 145.612 226.958 146.248 227.21 146.776L226.574 147.232C226.298 146.632 225.938 145.984 225.482 145.288L226.118 144.892ZM230.378 154.204C231.194 154.204 231.974 154.192 232.706 154.18L232.49 154.996H230.318C229.982 154.996 229.634 154.984 229.298 154.972C228.782 154.96 228.326 154.888 227.942 154.756C227.558 154.6 227.234 154.348 226.97 154.012C226.826 153.832 226.694 153.748 226.586 153.748C226.346 153.748 225.89 154.216 225.218 155.176L224.702 154.528C225.302 153.712 225.806 153.196 226.226 153.004V148.996H225.206V148.228H227.03V153.124C227.054 153.16 227.09 153.196 227.114 153.22C227.33 153.52 227.618 153.76 227.978 153.94C228.29 154.072 228.674 154.156 229.118 154.18C229.538 154.192 229.958 154.204 230.378 154.204ZM227.498 145.348H229.166C229.238 144.964 229.31 144.592 229.37 144.208L230.21 144.316C230.138 144.676 230.066 145.012 229.994 145.348H232.646V146.14H229.778C229.658 146.572 229.514 146.968 229.37 147.34H232.178V152.632C232.178 153.16 231.89 153.436 231.338 153.46H230.462L230.27 152.716C230.558 152.74 230.822 152.764 231.086 152.764C231.29 152.764 231.398 152.632 231.398 152.38V151.468H229.262V153.496H228.518V148.96C228.242 149.356 227.954 149.704 227.642 149.992L227.198 149.416C227.99 148.564 228.578 147.472 228.962 146.14H227.498V145.348ZM229.262 149.788V150.772H231.398V149.788H229.262ZM231.398 149.092V148.024H229.262V149.092H231.398ZM238.051 145.096V153.94H237.211V153.136H235.435V154.228H234.595V145.096H238.051ZM235.435 152.332H237.211V149.44H235.435V152.332ZM235.435 148.636H237.211V145.888H235.435V148.636ZM239.779 148.672C240.523 149.8 241.099 150.784 241.495 151.624L240.775 152.128C240.355 151.228 239.791 150.22 239.071 149.116L239.779 148.672ZM242.515 155.08H240.415L240.235 154.24C240.931 154.264 241.591 154.288 242.227 154.288C242.575 154.288 242.755 154.096 242.755 153.724V147.232H238.603V146.404H242.755V144.292H243.631V146.404H245.107V147.232H243.631V153.94C243.631 154.696 243.259 155.08 242.515 155.08ZM248.484 147.76H255.54V148.576H252.492V150.688H256.068V151.504H252.492V153.988C253.332 154.108 254.34 154.18 255.54 154.192C256.152 154.192 256.776 154.168 257.424 154.12L257.268 154.984H255.924C253.5 154.984 251.772 154.756 250.716 154.312C249.924 153.94 249.276 153.364 248.784 152.584C248.316 153.616 247.74 154.48 247.056 155.176L246.504 154.492C247.656 153.268 248.424 151.624 248.832 149.56L249.672 149.704C249.528 150.448 249.336 151.132 249.12 151.756C249.696 152.788 250.416 153.436 251.28 153.712C251.388 153.748 251.508 153.784 251.628 153.808V148.576H248.484V147.76ZM256.908 145.42V147.976H256.068V146.212H247.932V148.036H247.092V145.42H251.676C251.496 144.988 251.292 144.592 251.076 144.232L252 144.088C252.192 144.484 252.384 144.928 252.552 145.42H256.908ZM26.2241 164.124L27.0281 164.496C26.7161 165.432 26.3321 166.308 25.8641 167.136V175.224H25.0001V168.456C24.6041 168.984 24.1721 169.5 23.7041 169.992L23.4281 169.068C24.7001 167.628 25.6361 165.984 26.2241 164.124ZM26.9681 166.128H30.1961C30.0281 165.492 29.8241 164.904 29.6081 164.376L30.5201 164.22C30.7121 164.772 30.8921 165.408 31.0601 166.128H34.1921V166.956H26.9681V166.128ZM26.7641 173.784H30.8921C31.5041 172.176 32.0321 170.16 32.4881 167.736L33.3161 167.952C32.8961 170.148 32.3801 172.092 31.7801 173.784H34.5041V174.636H26.7641V173.784ZM28.4441 167.868C28.9121 169.416 29.3321 171.192 29.7041 173.184L28.9001 173.4C28.5761 171.576 28.1561 169.812 27.6521 168.108L28.4441 167.868ZM35.8961 164.82H46.0961V165.672H42.1841C41.9681 166.164 41.7161 166.644 41.4401 167.1V175.224H40.5521V168.372C39.4241 169.776 37.9481 171.024 36.1241 172.116L35.5601 171.36C38.2721 169.8 40.1681 167.904 41.2241 165.672H35.8961V164.82ZM42.9521 168.048C44.3321 169.14 45.4841 170.232 46.4201 171.324L45.7601 171.996C44.9201 170.94 43.7801 169.824 42.3281 168.636L42.9521 168.048ZM54.0161 168.744H51.3161V167.94H54.3401V164.256H55.1681V167.94H58.1441V168.744H55.1681V169.356C56.2601 170.004 57.3641 170.76 58.4801 171.6L58.0001 172.332C56.8841 171.396 55.9361 170.664 55.1681 170.16V173.52H54.3401V169.488C53.6441 170.736 52.6121 171.78 51.2561 172.644L50.8001 171.888C52.2881 171.072 53.3561 170.028 54.0161 168.744ZM48.4961 164.388C49.2641 164.988 49.9121 165.6 50.4401 166.2L49.8281 166.812C49.3601 166.236 48.7121 165.612 47.8961 164.952L48.4961 164.388ZM55.5281 174.996C54.8801 174.996 54.1721 174.984 53.4161 174.972C52.6481 174.96 52.0241 174.888 51.5441 174.756C51.0641 174.612 50.6441 174.312 50.2841 173.88C50.1161 173.664 49.9601 173.568 49.8161 173.568C49.5281 173.568 49.0601 174.12 48.4001 175.224L47.7521 174.636C48.3881 173.628 48.9521 173.016 49.4441 172.8V169.152H47.7281V168.36H50.2481V172.86C50.3441 172.932 50.4401 173.028 50.5361 173.136C50.8241 173.472 51.1241 173.736 51.4601 173.904C51.8321 174.06 52.3721 174.156 53.0681 174.18C53.6921 174.192 54.4721 174.204 55.4081 174.204C55.9721 174.204 56.5481 174.192 57.1361 174.192C57.7121 174.168 58.1681 174.156 58.4801 174.132L58.2641 174.996H55.5281ZM57.1121 164.556L57.8321 164.904C57.5321 165.744 57.1481 166.572 56.6681 167.364L55.9841 167.004C56.4641 166.188 56.8361 165.372 57.1121 164.556ZM52.2281 164.724C52.6961 165.42 53.1041 166.176 53.4641 167.016L52.7921 167.364C52.4081 166.488 51.9761 165.708 51.5081 165.036L52.2281 164.724ZM60.0881 164.676H63.7841V168.444H62.5841V170.376H63.8321V171.192H62.5841V173.424C63.1121 173.256 63.6281 173.088 64.1081 172.908V173.772C62.8601 174.24 61.3961 174.672 59.7281 175.068L59.4881 174.228L60.1241 174.084V169.728H60.8921V173.892C61.1921 173.82 61.4921 173.736 61.7801 173.664V168.444H60.0881V164.676ZM62.9561 167.652V165.468H60.9281V167.652H62.9561ZM69.5081 170.712V175.164H68.6801V174.636H65.6561V175.164H64.8281V170.712H69.5081ZM65.6561 173.844H68.6801V171.492H65.6561V173.844ZM66.0521 164.172L66.8801 164.328C66.7841 164.628 66.6761 164.916 66.5561 165.204H69.5321V165.828C69.1241 166.836 68.5241 167.724 67.7441 168.492C68.5361 169.14 69.4961 169.644 70.6121 169.992L70.1201 170.7C68.9321 170.316 67.9361 169.764 67.1321 169.044C66.3161 169.704 65.3561 170.268 64.2281 170.748L63.7121 170.052C64.8161 169.608 65.7521 169.08 66.5441 168.456C66.1121 167.988 65.7521 167.484 65.4521 166.932C65.1401 167.292 64.7921 167.616 64.4081 167.928L63.8921 167.244C64.9481 166.416 65.6681 165.396 66.0521 164.172ZM65.9441 166.272C66.2681 166.896 66.6641 167.46 67.1441 167.94C67.7561 167.34 68.2481 166.692 68.6201 165.972H66.1481C66.0761 166.068 66.0161 166.176 65.9441 166.272Z" fill="#545A6E"/>
<path d="M23.5961 118C23.5961 117.227 24.2229 116.6 24.9961 116.6H32.9455C33.7187 116.6 34.3455 117.227 34.3455 118V129.4H24.9961C24.2229 129.4 23.5961 128.773 23.5961 128V118Z" fill="#FBE4E8" stroke="#E05C73" stroke-width="1.2"/>
<path d="M34.5492 121.6H36.9281C37.7013 121.6 38.3281 122.227 38.3281 123V128C38.3281 128.773 37.7013 129.4 36.9281 129.4H34.5492V121.6Z" fill="#FBE4E8" stroke="#E05C73" stroke-width="1.2"/>
<path d="M26 120H31" stroke="#E05C73" stroke-width="1.2" stroke-linecap="square"/>
<path d="M26 123H29" stroke="#E05C73" stroke-width="1.2" stroke-linecap="square"/>
<path d="M53.6586 226.446V227.706C52.2306 228.21 50.6206 228.63 48.8006 228.952L48.6326 227.664C50.5506 227.356 52.2306 226.95 53.6586 226.446ZM50.8586 216.45L52.1046 216.926C51.4326 218.62 50.7606 219.992 50.0606 221.056C50.5926 221 51.1386 220.93 51.6986 220.846C51.9506 220.37 52.2026 219.88 52.4826 219.362L53.6446 219.782C52.4546 221.966 51.4606 223.576 50.6486 224.584C51.5866 224.388 52.5386 224.122 53.4906 223.786V224.976C51.9226 225.508 50.4526 225.858 49.0526 226.04L48.7026 224.85C48.9406 224.752 49.1366 224.626 49.3046 224.472C49.7526 223.996 50.3266 223.198 51.0126 222.05C50.3126 222.148 49.5706 222.246 48.8146 222.358L48.4926 221.14C48.6886 221.056 48.8706 220.888 49.0386 220.65C49.7386 219.39 50.3546 217.99 50.8586 216.45ZM53.4486 218.144H56.6826V216.562H58.0126V218.144H61.2326V219.432H58.0126V221.196H60.8266V222.484H53.9106V221.196H56.6826V219.432H53.4486V218.144ZM60.5326 223.576V229.4H59.2446V228.84H55.5486V229.4H54.2466V223.576H60.5326ZM55.5486 227.58H59.2446V224.836H55.5486V227.58ZM69.0866 216.534L70.3886 216.688C70.2766 217.304 70.1506 217.892 70.0106 218.452H74.8826C74.8826 223.394 74.7986 226.446 74.6586 227.608C74.4906 228.756 73.7906 229.33 72.5586 229.33C72.2506 229.33 71.7466 229.302 71.0186 229.274L70.7246 228.084C71.3406 228.126 71.8866 228.154 72.3486 228.154C72.9646 228.154 73.3286 227.79 73.4406 227.09C73.5526 226.362 73.6086 223.898 73.6226 219.698H69.6326C69.2546 220.748 68.7926 221.686 68.2326 222.512L67.3786 221.392C68.2186 220.062 68.7786 218.438 69.0866 216.534ZM68.0506 226.516L67.7986 225.41C68.1766 225.2 68.8486 223.73 69.8286 220.986L71.0046 221.406C70.3746 223.086 69.8566 224.304 69.4506 225.074C70.1226 224.934 70.7386 224.808 71.3266 224.668C71.1446 224.15 70.9626 223.674 70.7806 223.226L71.8866 222.848C72.3626 223.926 72.7686 225.088 73.1326 226.32L71.9706 226.838C71.8586 226.418 71.7466 226.026 71.6346 225.648C70.5706 225.956 69.3806 226.236 68.0506 226.516ZM65.8666 222.638V229.386H64.5646V222.862C64.1306 224.094 63.5846 225.228 62.9406 226.264L62.3666 224.794C63.3326 223.52 64.0326 222.064 64.4806 220.426H62.6466V219.152H64.5646V216.534H65.8666V219.152H67.4766V220.426H65.8666V221.126C66.4826 221.756 67.1126 222.456 67.7566 223.212L67.0006 224.346C66.5666 223.66 66.1886 223.086 65.8666 222.638ZM80.5666 216.394L81.8126 216.982C81.3366 218.13 80.7206 219.222 79.9646 220.244V229.47H78.6486V221.798C78.0746 222.386 77.4586 222.96 76.8006 223.506L76.3806 222.12C78.2706 220.482 79.6706 218.578 80.5666 216.394ZM87.2166 229.218H84.5986C83.4786 229.218 82.9186 228.658 82.9186 227.538V223.618C82.4146 223.884 81.8966 224.15 81.3646 224.402L80.7626 223.142C81.5186 222.806 82.2466 222.456 82.9186 222.064V216.618H84.2486V221.238C85.6206 220.328 86.8386 219.292 87.8746 218.13L88.7986 219.18C87.4686 220.552 85.9566 221.784 84.2486 222.848V227.356C84.2486 227.748 84.4586 227.944 84.9066 227.944H86.9926C87.3146 227.944 87.5526 227.832 87.7066 227.622C87.8466 227.412 87.9446 226.67 87.9726 225.382L89.2046 225.788C89.1066 227.398 88.9246 228.378 88.6726 228.714C88.4066 229.05 87.9166 229.218 87.2166 229.218ZM90.7726 217.304H93.8806V216.534H95.1686V217.304H98.6126V216.52H99.9006V217.304H102.967V218.48H99.9006V219.348H98.6126V218.48H95.1686V219.418H93.8806V218.48H90.7726V217.304ZM100.587 220.944L101.693 221.476C101.217 222.344 100.657 223.114 100.013 223.772L99.0326 223.058C99.6346 222.47 100.153 221.756 100.587 220.944ZM96.9606 221.28C97.2126 221.784 97.4506 222.358 97.6606 223.002L96.4846 223.296C96.3166 222.722 96.1066 222.162 95.8546 221.63L96.9606 221.28ZM93.3626 221.462C93.7266 222.106 94.0486 222.792 94.3286 223.52L93.2506 224.01C92.9426 223.184 92.5926 222.456 92.2286 221.826L93.3626 221.462ZM101.469 219.334L102.113 220.426C99.5646 220.902 96.1626 221.154 91.9346 221.154L91.5286 219.922C95.4626 219.922 98.7806 219.726 101.469 219.334ZM90.9826 224.374H96.2466V223.618H97.5346V224.374H102.799V225.62H98.7386C99.7186 226.502 101.231 227.3 103.275 228.014L102.351 229.19C100.125 228.126 98.5146 226.936 97.5346 225.62V229.442H96.2466V225.62H96.2326C95.1966 227.048 93.5586 228.238 91.3046 229.19L90.5486 227.958C92.5226 227.328 94.0066 226.544 95.0146 225.62H90.9826V224.374ZM105.907 218.62H108.735C108.343 218.018 107.937 217.472 107.503 216.996L108.609 216.464C109.085 216.982 109.533 217.556 109.953 218.2L109.113 218.62H111.941C112.389 217.92 112.767 217.178 113.089 216.394L114.377 216.856C114.069 217.5 113.719 218.088 113.327 218.62H115.875V224.626H111.549V225.732H117.149V226.992H111.549V229.498H110.233V226.992H104.633V225.732H110.233V224.626H105.907V218.62ZM114.587 223.45V222.162H111.549V223.45H114.587ZM110.233 223.45V222.162H107.195V223.45H110.233ZM107.195 221.042H110.233V219.782H107.195V221.042ZM111.549 219.782V221.042H114.587V219.782H111.549ZM128.979 222.022V224.962H122.161V225.704H129.637V229.442H128.307V228.938H122.161V229.428H120.831V222.022H128.979ZM122.161 227.762H128.307V226.754H122.161V227.762ZM122.161 223.898H127.677V223.086H122.161V223.898ZM130.911 220.272V222.946H129.609V221.392H120.173V222.946H118.871V220.272H124.289C124.177 219.992 124.051 219.74 123.925 219.516L125.101 219.32L124.863 219.166C125.507 218.326 125.983 217.43 126.263 216.464L127.537 216.744C127.453 216.982 127.383 217.206 127.299 217.43H131.191V218.592H128.909C129.133 218.9 129.315 219.208 129.469 219.488L128.293 219.922C128.069 219.474 127.803 219.026 127.495 218.592H126.781C126.543 219.054 126.277 219.488 125.983 219.88L125.311 219.446C125.423 219.698 125.521 219.978 125.633 220.272H130.911ZM120.761 218.592C120.453 219.096 120.117 219.572 119.753 220.006L118.591 219.278C119.403 218.41 119.977 217.458 120.327 216.45L121.601 216.73C121.517 216.968 121.419 217.206 121.335 217.43H124.863V218.592H122.763C123.015 218.942 123.239 219.278 123.407 219.6L122.189 220.062C121.951 219.558 121.685 219.068 121.377 218.592H120.761ZM137.589 216.996H144.673V223.688H141.803V225.088H144.855V226.32H141.803V227.776H145.345V229.05H136.875V227.776H140.487V226.32H137.421V225.088H140.487V223.688H137.589V216.996ZM143.399 222.512V220.916H141.803V222.512H143.399ZM140.487 222.512V220.916H138.863V222.512H140.487ZM138.863 219.768H140.487V218.172H138.863V219.768ZM141.803 218.172V219.768H143.399V218.172H141.803ZM132.759 221.602H134.145V218.606H132.549V217.346H137.071V218.606H135.489V221.602H136.903V222.876H135.489V225.676C135.965 225.508 136.427 225.34 136.875 225.144V226.432C135.587 226.936 134.215 227.37 132.745 227.72L132.423 226.446C133.011 226.348 133.585 226.222 134.145 226.082V222.876H132.759V221.602Z" fill="#272E47"/>
<path d="M22.864 244.676H33.148V245.48H28.432V246.524H32.152V251.276H28.288C28.144 252.068 27.916 252.704 27.58 253.184C29.26 253.892 31.252 254.288 33.556 254.36L33.34 255.188C30.928 255.092 28.828 254.624 27.04 253.808C26.2 254.528 24.82 254.984 22.912 255.2L22.54 254.408C24.208 254.276 25.432 253.94 26.2 253.388C25.504 253.004 24.856 252.56 24.268 252.056L24.928 251.6C25.492 252.068 26.116 252.476 26.788 252.824C27.076 252.416 27.292 251.9 27.412 251.276H23.896V246.524H27.568V245.48H22.864V244.676ZM31.3 250.52V249.248H28.432V249.668L28.396 250.52H31.3ZM27.532 250.52C27.556 250.244 27.568 249.956 27.568 249.668V249.248H24.748V250.52H27.532ZM24.748 248.528H27.568V247.268H24.748V248.528ZM28.432 247.268V248.528H31.3V247.268H28.432ZM35.3011 245.288H39.9331C39.9811 244.904 40.0291 244.532 40.0651 244.16L40.9411 244.28C40.9051 244.628 40.8691 244.964 40.8211 245.288H45.4771V246.116H40.6891C40.6291 246.464 40.5571 246.8 40.4851 247.112H43.9411V254.12H45.7171V254.924H35.0731V254.12H36.7891V247.112H39.5971C39.6691 246.776 39.7411 246.44 39.8011 246.116H35.3011V245.288ZM37.6411 254.12H43.0891V253.064H37.6411V254.12ZM37.6411 252.356H43.0891V251.336H37.6411V252.356ZM37.6411 250.64H43.0891V249.632H37.6411V250.64ZM37.6411 248.924H43.0891V247.88H37.6411V248.924ZM57.2662 244.676V251.264H56.4382V245.48H53.0782V251.264H52.2502V244.676H57.2662ZM57.0622 254.984H55.8982C55.2382 254.984 54.9142 254.648 54.9142 253.976V251.3H55.7302V253.796C55.7302 254.072 55.8622 254.216 56.1382 254.216H56.9182C57.1222 254.216 57.2662 254.144 57.3622 254.012C57.4702 253.844 57.5422 253.376 57.5902 252.584L58.3462 252.836C58.2742 253.856 58.1302 254.48 57.9262 254.696C57.7342 254.888 57.4462 254.984 57.0622 254.984ZM54.3382 246.356H55.1542V248.696C55.1182 250.472 54.7942 251.888 54.1702 252.944C53.5702 253.928 52.5862 254.696 51.2182 255.248L50.7502 254.516C52.0822 253.964 53.0182 253.244 53.5582 252.344C54.0382 251.408 54.3022 250.196 54.3382 248.696V246.356ZM48.0742 246.98C48.7462 247.796 49.3822 248.612 49.9582 249.428C50.2582 248.372 50.4502 247.22 50.5342 245.984H47.5702V245.144H51.3382V245.804C51.2662 247.46 51.0022 248.948 50.5462 250.28C51.0502 251.036 51.5062 251.792 51.9262 252.536L51.3142 253.148C50.9782 252.5 50.5942 251.864 50.1862 251.228C49.6102 252.572 48.8182 253.736 47.8102 254.732L47.2582 254.096C48.2902 253.064 49.0822 251.828 49.6342 250.388C48.9982 249.464 48.2782 248.516 47.4862 247.544L48.0742 246.98ZM64.0154 246.272V254.456H63.1754V253.772H60.9914V254.804H60.1514V246.272H61.2674C61.5074 245.6 61.6754 244.904 61.7834 244.184L62.6474 244.304C62.5034 245.012 62.3234 245.672 62.0834 246.272H64.0154ZM60.9914 252.968H63.1754V250.34H60.9914V252.968ZM60.9914 249.56H63.1754V247.088H60.9914V249.56ZM66.1034 249.056C66.9674 250.052 67.6154 250.928 68.0714 251.672L67.3874 252.152C66.8954 251.36 66.2354 250.472 65.4074 249.488L66.1034 249.056ZM70.2194 246.284C70.2194 250.268 70.1594 252.74 70.0394 253.676C69.9194 254.588 69.3674 255.056 68.3594 255.056C68.1194 255.056 67.7114 255.032 67.1354 255.008L66.9314 254.216C67.4354 254.24 67.8674 254.252 68.2394 254.252C68.8034 254.252 69.1274 253.94 69.2234 253.328C69.2954 252.656 69.3434 250.58 69.3674 247.124H66.0674C65.7314 247.88 65.3354 248.564 64.8674 249.176L64.3514 248.492C65.1914 247.316 65.7554 245.876 66.0674 244.172L66.9194 244.28C66.7754 244.988 66.6074 245.66 66.3914 246.284H70.2194ZM72.3485 244.988H75.1085V244.208H75.9485V244.988H79.1645V244.196H80.0045V244.988H82.7285V245.756H80.0045V246.584H79.1645V245.756H75.9485V246.644H75.1085V245.756H72.3485V244.988ZM80.8565 248L81.5765 248.348C81.1565 249.092 80.6645 249.752 80.0885 250.304L79.4525 249.836C79.9925 249.32 80.4605 248.708 80.8565 248ZM77.4845 248.276C77.7245 248.708 77.9285 249.2 78.1085 249.764L77.3405 249.956C77.1845 249.452 76.9925 248.96 76.7645 248.504L77.4845 248.276ZM74.4005 248.432C74.7245 248.984 75.0125 249.584 75.2525 250.22L74.5445 250.532C74.2805 249.836 73.9805 249.212 73.6685 248.672L74.4005 248.432ZM81.5165 246.668L81.9365 247.376C79.7645 247.784 76.8845 248 73.2845 248L73.0205 247.196C76.4285 247.196 79.2605 247.016 81.5165 246.668ZM72.5285 251.024H77.1365V250.256H77.9765V251.024H82.5845V251.828H78.8045C79.6685 252.704 81.0605 253.484 82.9805 254.168L82.3925 254.924C80.3525 253.988 78.9005 252.956 78.0605 251.828H77.9765V255.2H77.1365V251.828H77.0525C76.1405 253.076 74.6765 254.108 72.6485 254.924L72.1685 254.12C74.0405 253.52 75.4085 252.752 76.2965 251.828H72.5285V251.024ZM85.7576 246.068H90.9296C91.3136 245.468 91.6616 244.808 91.9616 244.112L92.8016 244.412C92.5136 245.024 92.1896 245.576 91.8296 246.068H94.1336V251H90.3776V252.14H95.2736V252.956H90.3776V255.236H89.5136V252.956H84.6176V252.14H89.5136V251H85.7576V246.068ZM93.2936 250.232V248.888H90.3776V250.232H93.2936ZM89.5136 250.232V248.888H86.5976V250.232H89.5136ZM86.5976 248.144H89.5136V246.824H86.5976V248.144ZM90.3776 246.824V248.144H93.2936V246.824H90.3776ZM87.8816 244.172C88.2776 244.628 88.6496 245.144 89.0096 245.696L88.2896 246.056C87.9296 245.48 87.5576 244.976 87.1496 244.52L87.8816 244.172ZM105.767 248.936V251.288H99.7787V252.116H106.319V255.2H105.467V254.696H99.7787V255.188H98.9147V248.936H105.767ZM99.7787 253.928H105.467V252.812H99.7787V253.928ZM99.7787 250.592H104.927V249.632H99.7787V250.592ZM107.423 247.484V249.656H106.583V248.228H98.0867V249.656H97.2467V247.484H101.999C101.879 247.196 101.759 246.944 101.627 246.704L102.467 246.56L102.395 246.512C102.971 245.792 103.379 245.012 103.643 244.148L104.471 244.328C104.387 244.58 104.303 244.82 104.207 245.06H107.675V245.816H105.539C105.791 246.152 105.995 246.464 106.139 246.752L105.371 247.04C105.155 246.608 104.903 246.2 104.615 245.816H103.859C103.643 246.224 103.391 246.608 103.127 246.968L102.479 246.572C102.611 246.848 102.743 247.148 102.863 247.484H107.423ZM98.6867 245.816C98.3987 246.284 98.0867 246.716 97.7267 247.112L96.9707 246.632C97.6907 245.888 98.2187 245.048 98.5547 244.136L99.3827 244.316C99.2867 244.58 99.1787 244.82 99.0827 245.06H102.299V245.816H100.283C100.547 246.176 100.775 246.524 100.943 246.848L100.151 247.148C99.9347 246.692 99.6707 246.248 99.3707 245.816H98.6867ZM113.716 244.676H119.584V250.22H117.088V251.636H119.788V252.452H117.088V254.012H120.232V254.84H113.008V254.012H116.224V252.452H113.512V251.636H116.224V250.22H113.716V244.676ZM118.756 249.452V247.832H117.088V249.452H118.756ZM116.224 249.452V247.832H114.544V249.452H116.224ZM114.544 247.076H116.224V245.444H114.544V247.076ZM117.088 245.444V247.076H118.756V245.444H117.088ZM109.48 248.648H110.788V245.804H109.312V244.988H113.14V245.804H111.676V248.648H112.996V249.476H111.676V252.2C112.132 252.044 112.564 251.876 112.996 251.684V252.524C111.892 252.98 110.704 253.364 109.432 253.676L109.216 252.848C109.744 252.752 110.272 252.632 110.788 252.488V249.476H109.48V248.648ZM123.345 252.572C123.609 252.572 123.837 252.68 124.005 252.908C124.161 253.124 124.245 253.4 124.245 253.748C124.245 254.276 124.089 254.744 123.777 255.152C123.465 255.536 123.045 255.8 122.541 255.932V255.344C122.853 255.236 123.105 255.056 123.297 254.816C123.477 254.564 123.561 254.3 123.561 254.012C123.513 254.036 123.417 254.06 123.297 254.06C123.093 254.06 122.925 253.988 122.781 253.844C122.637 253.7 122.565 253.52 122.565 253.316C122.565 253.088 122.637 252.908 122.781 252.776C122.925 252.632 123.105 252.572 123.345 252.572ZM137.606 245.42H140.75V244.196H141.626V245.42H144.926V246.248H141.626V247.388H144.434V250.784H141.578C141.482 251.864 141.278 252.692 140.954 253.292C142.154 253.952 143.546 254.324 145.118 254.408L144.902 255.236C143.222 255.128 141.746 254.708 140.474 253.964C139.826 254.624 138.806 255.056 137.414 255.26L137.042 254.468C138.266 254.336 139.166 254 139.718 253.472C139.01 252.968 138.374 252.356 137.822 251.648L138.482 251.192C138.998 251.84 139.574 252.38 140.21 252.836C140.462 252.308 140.63 251.624 140.702 250.784H138.014V247.388H140.75V246.248H137.606V245.42ZM143.618 250.004V248.156H141.626V249.716C141.626 249.812 141.614 249.908 141.614 250.004H143.618ZM140.738 250.004C140.738 249.908 140.75 249.812 140.75 249.716V248.156H138.83V250.004H140.738ZM135.41 248.528C135.026 249.068 134.618 249.584 134.162 250.076L133.874 249.164C135.122 247.7 136.022 246.02 136.574 244.124L137.39 244.496C137.09 245.432 136.718 246.32 136.274 247.148V255.224H135.41V248.528ZM148.447 248.384V250.484H151.495V248.384H148.447ZM148.399 251.276C148.267 252.812 147.823 254.084 147.055 255.092L146.395 254.504C147.163 253.436 147.559 252.08 147.583 250.436V244.676H156.523V253.664C156.523 254.504 156.103 254.924 155.263 254.924H153.883L153.655 254.072C154.135 254.096 154.579 254.12 154.987 254.12C155.419 254.12 155.647 253.868 155.647 253.364V251.276H152.383V254.792H151.495V251.276H148.399ZM155.647 250.484V248.384H152.383V250.484H155.647ZM155.647 247.58V245.516H152.383V247.58H155.647ZM151.495 245.516H148.447V247.58H151.495V245.516ZM169.56 250.676C169.488 251.648 169.344 252.284 169.152 252.572C168.972 252.86 168.6 253.016 168.036 253.016H165.9C165.216 253.016 164.88 252.668 164.88 251.984V248.084H168.144V245.768H164.676V244.964H168.984V248.912H165.744V251.672C165.744 251.996 165.912 252.164 166.248 252.176H167.88C168.216 252.176 168.444 252.044 168.552 251.792C168.636 251.564 168.696 251.096 168.744 250.4L169.56 250.676ZM159.732 249.908L160.512 250.004C160.488 250.688 160.428 251.336 160.332 251.96C160.692 252.632 161.1 253.136 161.58 253.472V249.14H159.12V248.348H161.316V246.584H159.336V245.792H161.316V244.172H162.18V245.792H164.1V246.584H162.18V248.348H164.256V249.14H162.408V250.832H164.112V251.624H162.408V253.88C163.152 254.084 164.628 254.192 166.824 254.192C168.156 254.192 169.152 254.168 169.8 254.132L169.656 254.972H167.016C164.208 254.972 162.444 254.804 161.748 254.48C161.136 254.192 160.596 253.676 160.14 252.956C159.948 253.76 159.708 254.504 159.396 255.2L158.736 254.612C159.336 253.22 159.672 251.648 159.732 249.908ZM173.705 246.92C174.101 247.532 174.473 248.204 174.833 248.948L174.089 249.32C173.741 248.552 173.357 247.88 172.949 247.28L173.705 246.92ZM175.445 250.292H171.437V249.464H176.225V246.452H171.905V245.624H176.225V244.244H177.113V245.624H181.529V246.452H177.113V249.464H178.313C178.781 248.648 179.177 247.76 179.513 246.812L180.353 247.112C180.005 247.988 179.609 248.768 179.165 249.464H181.877V250.292H177.869C178.721 251.66 180.173 252.872 182.213 253.94L181.625 254.684C179.501 253.376 178.013 251.912 177.161 250.292H177.113V255.176H176.225V250.292H176.153C175.385 251.996 173.861 253.46 171.581 254.696L171.101 253.928C173.261 252.86 174.713 251.648 175.445 250.292ZM184.511 248.792H185.363V255.212H184.511V248.792ZM192.539 255.164H191.435L191.231 254.384L192.359 254.408C192.659 254.408 192.815 254.228 192.815 253.88V248.288H188.159V247.496H193.667V254.12C193.667 254.816 193.283 255.164 192.539 255.164ZM186.911 249.356H191.243V253.88H186.911V249.356ZM190.439 253.148V251.948H187.739V253.148H190.439ZM187.739 251.252H190.439V250.076H187.739V251.252ZM185.723 247.004C186.359 247.556 186.851 248.036 187.187 248.456L186.551 248.9C186.191 248.456 185.699 247.952 185.087 247.4L185.723 247.004ZM185.447 245.816C185.135 246.344 184.799 246.836 184.415 247.28L183.683 246.812C184.403 246.008 184.931 245.12 185.267 244.16L186.107 244.34C186.011 244.592 185.915 244.832 185.819 245.06H188.987V245.816H187.187C187.487 246.236 187.727 246.632 187.895 247.004L187.127 247.292C186.887 246.776 186.599 246.284 186.275 245.816H185.447ZM190.547 245.816C190.307 246.272 190.043 246.692 189.743 247.076L189.011 246.608C189.611 245.864 190.043 245.06 190.307 244.172L191.135 244.352C191.063 244.592 190.979 244.832 190.883 245.06H194.387V245.816H192.395C192.671 246.2 192.899 246.572 193.079 246.908L192.311 247.196C192.071 246.716 191.795 246.26 191.471 245.816H190.547ZM197.26 246.068H202.432C202.816 245.468 203.164 244.808 203.464 244.112L204.304 244.412C204.016 245.024 203.692 245.576 203.332 246.068H205.636V251H201.88V252.14H206.776V252.956H201.88V255.236H201.016V252.956H196.12V252.14H201.016V251H197.26V246.068ZM204.796 250.232V248.888H201.88V250.232H204.796ZM201.016 250.232V248.888H198.1V250.232H201.016ZM198.1 248.144H201.016V246.824H198.1V248.144ZM201.88 246.824V248.144H204.796V246.824H201.88ZM199.384 244.172C199.78 244.628 200.152 245.144 200.512 245.696L199.792 246.056C199.432 245.48 199.06 244.976 198.652 244.52L199.384 244.172ZM213.993 244.124C214.125 244.448 214.257 244.808 214.377 245.204H219.129V245.996H208.533V245.204H213.453C213.333 244.868 213.189 244.568 213.045 244.292L213.993 244.124ZM217.209 255.164H216.201L215.997 254.384L216.957 254.42C217.449 254.42 217.701 254.228 217.701 253.844V250.58H209.973V255.2H209.145V249.824H218.529V254.024C218.529 254.78 218.085 255.164 217.209 255.164ZM210.489 246.776H217.197V249.104H210.489V246.776ZM216.357 248.432V247.448H211.329V248.432H216.357ZM211.485 251.348H216.201V253.748H211.485V251.348ZM215.433 253.1V251.996H212.265V253.1H215.433ZM222.446 246.848L223.19 247.22C222.674 248.324 222.074 249.272 221.39 250.088L220.694 249.584C221.366 248.828 221.954 247.916 222.446 246.848ZM225.602 249.08C225.05 248.384 224.51 247.796 223.97 247.292L224.498 246.776C224.978 247.16 225.53 247.736 226.166 248.504L225.602 249.08ZM222.398 249.8C222.89 250.184 223.358 250.592 223.814 251.012C224.09 250.46 224.33 249.872 224.522 249.248L225.266 249.56C225.05 250.304 224.774 251 224.45 251.624C224.954 252.116 225.434 252.62 225.89 253.148L225.278 253.832C224.846 253.316 224.414 252.848 224.006 252.416C223.262 253.544 222.326 254.444 221.174 255.104L220.646 254.336C221.762 253.724 222.674 252.872 223.382 251.78C222.878 251.276 222.362 250.82 221.858 250.412L222.398 249.8ZM223.634 244.112C223.814 244.52 223.994 244.964 224.174 245.468H226.43V246.296H220.874V245.468H223.334C223.154 245.036 222.95 244.628 222.734 244.256L223.634 244.112ZM228.014 246.98C227.918 247.268 227.834 247.556 227.738 247.82C228.026 249.044 228.398 250.112 228.854 251.024C229.43 249.848 229.754 248.504 229.802 246.98H228.014ZM228.386 251.84C227.942 250.976 227.57 250.016 227.27 248.96C227.054 249.392 226.814 249.776 226.574 250.136L226.022 249.476C226.862 248.156 227.438 246.38 227.726 244.136L228.59 244.28C228.494 244.952 228.374 245.564 228.242 246.14H231.614V246.98H230.594C230.522 248.888 230.102 250.52 229.322 251.888C230.006 252.992 230.834 253.844 231.794 254.432L231.29 255.188C230.33 254.576 229.514 253.724 228.842 252.644C228.086 253.676 227.102 254.54 225.902 255.224L225.41 254.444C226.682 253.772 227.678 252.908 228.386 251.84ZM234.847 252.572C235.111 252.572 235.339 252.68 235.507 252.908C235.663 253.124 235.747 253.4 235.747 253.748C235.747 254.276 235.591 254.744 235.279 255.152C234.967 255.536 234.547 255.8 234.043 255.932V255.344C234.355 255.236 234.607 255.056 234.799 254.816C234.979 254.564 235.063 254.3 235.063 254.012C235.015 254.036 234.919 254.06 234.799 254.06C234.595 254.06 234.427 253.988 234.283 253.844C234.139 253.7 234.067 253.52 234.067 253.316C234.067 253.088 234.139 252.908 234.283 252.776C234.427 252.632 234.607 252.572 234.847 252.572ZM246.984 255.092H245.904L245.724 254.252C246.06 254.276 246.372 254.3 246.684 254.3C246.972 254.3 247.128 254.144 247.128 253.844V250.916C246.672 251.096 246.204 251.264 245.736 251.408L245.532 250.544C246.072 250.412 246.6 250.244 247.128 250.04V247.328H245.676V246.5H247.128V244.232H248.016V246.5H249.228V247.328H248.016V249.668C248.364 249.5 248.712 249.332 249.048 249.14V250.016C248.712 250.196 248.364 250.364 248.016 250.532V254.072C248.016 254.744 247.668 255.092 246.984 255.092ZM250.164 244.616H255.396V248.78H250.164V244.616ZM254.556 248.072V247.04H251.004V248.072H254.556ZM251.004 246.368H254.556V245.324H251.004V246.368ZM249.324 249.62H256.188V250.388H253.188V251.744H255.696V252.524H253.188V254.072C253.668 254.144 254.232 254.18 254.892 254.18C255.516 254.18 256.056 254.156 256.5 254.12L256.26 254.96C255.78 254.96 255.336 254.948 254.952 254.948C253.368 254.936 252.288 254.78 251.712 254.492C251.256 254.252 250.836 253.796 250.476 253.124C250.188 253.868 249.792 254.552 249.276 255.176L248.64 254.624C249.552 253.52 250.056 252.272 250.152 250.904L250.92 250.988C250.896 251.42 250.836 251.828 250.74 252.236C251.124 253.04 251.568 253.556 252.072 253.784C252.156 253.82 252.252 253.856 252.36 253.892V250.388H249.324V249.62ZM28.228 264.268L28.636 264.976C27.94 265.288 27.208 265.54 26.464 265.744V268.756H29.68V264.316H30.556V268.756H33.328V269.596H30.556V275.188H29.68V269.596H26.452C26.308 272.14 25.324 274 23.476 275.2L22.828 274.636C24.532 273.556 25.444 271.876 25.564 269.596H22.66V268.756H25.576V265.96C24.808 266.128 24.004 266.236 23.188 266.308L22.912 265.528C25.024 265.324 26.8 264.904 28.228 264.268ZM35.932 264.424C36.688 265.024 37.324 265.612 37.84 266.2L37.252 266.8C36.784 266.224 36.148 265.624 35.332 264.988L35.932 264.424ZM34.54 267.892H37.048V273.22C37.48 272.86 37.948 272.452 38.44 271.984L38.68 272.896C37.924 273.604 37.12 274.228 36.28 274.78L35.944 274.012C36.112 273.844 36.208 273.664 36.208 273.472V268.72H34.54V267.892ZM38.8 269.296H44.512V270.088C44.128 271.216 43.504 272.188 42.628 273.004C43.444 273.568 44.44 274.06 45.616 274.492L45.148 275.236C43.9 274.732 42.844 274.168 42.004 273.52C41.044 274.24 39.856 274.804 38.452 275.236L37.972 274.504C39.304 274.108 40.42 273.592 41.32 272.956C40.408 272.116 39.796 271.18 39.46 270.136H38.8V269.296ZM40.276 270.136C40.588 271 41.14 271.78 41.932 272.464C42.7 271.792 43.276 271.024 43.66 270.136H40.276ZM39.724 264.664H43.756V267.256C43.756 267.556 43.912 267.712 44.224 267.712H45.328V268.504H44.008C43.264 268.504 42.904 268.144 42.904 267.436V265.48H40.576V265.9C40.576 267.172 39.952 268.156 38.728 268.852L38.152 268.192C39.196 267.676 39.724 266.944 39.724 265.996V264.664ZM46.852 267.592H51.52L51.592 266.896H47.656V264.652H56.344V266.896H52.456L52.384 267.592H57.16V268.252H52.288C52.24 268.492 52.204 268.72 52.156 268.936H55.636V274.228H57.376V274.924H46.636V274.228H48.376V268.936H51.292C51.34 268.708 51.376 268.48 51.424 268.252H46.852V267.592ZM49.216 274.228H54.784V273.436H49.216V274.228ZM49.216 272.896H54.784V272.14H49.216V272.896ZM49.216 271.588H54.784V270.832H49.216V271.588ZM49.216 270.292H54.784V269.536H49.216V270.292ZM55.528 266.284V265.288H53.74V266.284H55.528ZM52.948 266.284V265.288H51.052V266.284H52.948ZM50.272 266.284V265.288H48.484V266.284H50.272ZM60.22 266.848L60.964 267.22C60.448 268.324 59.848 269.272 59.164 270.088L58.468 269.584C59.14 268.828 59.728 267.916 60.22 266.848ZM63.376 269.08C62.824 268.384 62.284 267.796 61.744 267.292L62.272 266.776C62.752 267.16 63.304 267.736 63.94 268.504L63.376 269.08ZM60.172 269.8C60.664 270.184 61.132 270.592 61.588 271.012C61.864 270.46 62.104 269.872 62.296 269.248L63.04 269.56C62.824 270.304 62.548 271 62.224 271.624C62.728 272.116 63.208 272.62 63.664 273.148L63.052 273.832C62.62 273.316 62.188 272.848 61.78 272.416C61.036 273.544 60.1 274.444 58.948 275.104L58.42 274.336C59.536 273.724 60.448 272.872 61.156 271.78C60.652 271.276 60.136 270.82 59.632 270.412L60.172 269.8ZM61.408 264.112C61.588 264.52 61.768 264.964 61.948 265.468H64.204V266.296H58.648V265.468H61.108C60.928 265.036 60.724 264.628 60.508 264.256L61.408 264.112ZM65.788 266.98C65.692 267.268 65.608 267.556 65.512 267.82C65.8 269.044 66.172 270.112 66.628 271.024C67.204 269.848 67.528 268.504 67.576 266.98H65.788ZM66.16 271.84C65.716 270.976 65.344 270.016 65.044 268.96C64.828 269.392 64.588 269.776 64.348 270.136L63.796 269.476C64.636 268.156 65.212 266.38 65.5 264.136L66.364 264.28C66.268 264.952 66.148 265.564 66.016 266.14H69.388V266.98H68.368C68.296 268.888 67.876 270.52 67.096 271.888C67.78 272.992 68.608 273.844 69.568 274.432L69.064 275.188C68.104 274.576 67.288 273.724 66.616 272.644C65.86 273.676 64.876 274.54 63.676 275.224L63.184 274.444C64.456 273.772 65.452 272.908 66.16 271.84ZM70.84 265.204H75.568C75.4 264.844 75.22 264.508 75.016 264.208L75.892 264.064C76.084 264.4 76.264 264.772 76.432 265.204H81.16V266.02H76.144C75.796 266.704 75.4 267.268 74.968 267.7L76.54 267.556C76.816 267.208 77.092 266.848 77.38 266.464L78.148 266.776C76.996 268.24 75.976 269.332 75.112 270.052C75.88 269.956 76.624 269.848 77.344 269.728C77.2 269.416 77.068 269.128 76.936 268.864L77.668 268.624C78.064 269.32 78.412 270.064 78.7 270.856L77.92 271.204C77.824 270.916 77.716 270.64 77.62 270.388C77.236 270.46 76.84 270.52 76.444 270.568V271.972H81.364V272.8H76.444V275.248H75.556V272.8H70.66V271.972H75.556V270.676C75.004 270.736 74.452 270.784 73.876 270.832L73.708 270.076L74.02 270.004C74.548 269.704 75.184 269.128 75.928 268.288C75.28 268.336 74.608 268.396 73.912 268.444L73.744 267.748C74.368 267.376 74.872 266.8 75.256 266.02H70.84V265.204ZM72.844 268.816L73.492 269.296C72.868 270.064 72.208 270.688 71.524 271.192L70.948 270.544C71.644 270.052 72.28 269.476 72.844 268.816ZM71.656 266.428C72.328 266.908 72.904 267.4 73.36 267.88L72.76 268.48C72.352 268.012 71.776 267.52 71.056 267.004L71.656 266.428ZM79.18 268.816C79.924 269.404 80.548 269.992 81.052 270.568L80.428 271.192C79.996 270.616 79.396 269.992 78.628 269.344L79.18 268.816ZM80.116 266.392L80.788 266.884C80.248 267.52 79.684 268.048 79.096 268.48L78.556 267.856C79.132 267.436 79.648 266.944 80.116 266.392Z" fill="#545A6E"/>
<path d="M31.7564 227.617L30.6025 230.502H36.3718L35.2179 227.617H31.7564Z" fill="#EAF7F5" stroke="#7BCCC1" stroke-width="1.2" stroke-linecap="round"/>
<rect x="26.5873" y="218.405" width="13.8" height="9.18462" rx="1.13077" fill="#EAF7F5" stroke="#7BCCC1" stroke-width="1.2"/>
<path d="M28.8721 230.5H38.1028" stroke="#7BCCC1" stroke-width="1.2" stroke-linecap="round"/>
<path d="M31.7276 224.872L33.7274 224.872L41.0603 217.508L39.0604 215.5L31.7275 222.864L31.7276 224.872Z" fill="#EAF7F5" stroke="#7BCCC1" stroke-width="1.2" stroke-linejoin="round"/>
<path d="M37.0605 217.508L39.0604 219.516L37.0605 217.508Z" fill="#EAF7F5"/>
<path d="M37.0605 217.508L39.0604 219.516" stroke="#7BCCC1" stroke-width="1.2" stroke-linejoin="round"/>
</svg>
