<svg width="366" height="238" viewBox="0 0 366 238" fill="none" xmlns="http://www.w3.org/2000/svg">
<g filter="url(#filter0_d_4248_102177)">
<path fill-rule="evenodd" clip-rule="evenodd" d="M51.7585 3.58068C53.2987 2.13108 55.7013 2.13109 57.2415 3.58068L60.7819 6.91288C61.5239 7.61122 62.5044 8.00008 63.5234 8.00008H356C358.209 8.00008 360 9.79094 360 12.0001V224C360 226.209 358.209 228 356 228H10C7.79086 228 6 226.209 6 224V12.0001C6 9.79093 7.79086 8.00008 10 8.00008H45.4766C46.4956 8.00008 47.4761 7.61122 48.2181 6.91288L51.7585 3.58068Z" fill="white"/>
<path d="M57.2415 3.58068L56.2134 4.67298V4.67299L57.2415 3.58068ZM51.7585 3.58068L52.7866 4.67298V4.67298L51.7585 3.58068ZM48.2181 6.91288L47.19 5.82058L48.2181 6.91288ZM60.7819 6.91288L59.7539 8.00518L60.7819 6.91288ZM58.2695 2.48838C56.1517 0.495186 52.8483 0.495183 50.7305 2.48838L52.7866 4.67298C53.7492 3.76698 55.2508 3.76698 56.2134 4.67298L58.2695 2.48838ZM61.81 5.82058L58.2695 2.48838L56.2134 4.67299L59.7539 8.00518L61.81 5.82058ZM63.5234 9.50008H356V6.50008H63.5234V9.50008ZM356 9.50008C357.381 9.50008 358.5 10.6194 358.5 12.0001H361.5C361.5 8.96251 359.038 6.50008 356 6.50008V9.50008ZM358.5 12.0001V224H361.5V12.0001H358.5ZM358.5 224C358.5 225.381 357.381 226.5 356 226.5V229.5C359.038 229.5 361.5 227.038 361.5 224H358.5ZM356 226.5H10V229.5H356V226.5ZM10 226.5C8.61929 226.5 7.5 225.381 7.5 224H4.5C4.5 227.038 6.96243 229.5 10 229.5V226.5ZM7.5 224V12.0001H4.5V224H7.5ZM7.5 12.0001C7.5 10.6194 8.61929 9.50008 10 9.50008V6.50008C6.96244 6.50008 4.5 8.9625 4.5 12.0001H7.5ZM10 9.50008H45.4766V6.50008H10V9.50008ZM50.7305 2.48838L47.19 5.82058L49.2461 8.00518L52.7866 4.67298L50.7305 2.48838ZM45.4766 9.50008C46.8777 9.50008 48.2259 8.9654 49.2461 8.00518L47.19 5.82058C46.7263 6.25704 46.1135 6.50008 45.4766 6.50008V9.50008ZM59.7539 8.00518C60.7741 8.9654 62.1223 9.50008 63.5234 9.50008V6.50008C62.8865 6.50008 62.2737 6.25704 61.81 5.82058L59.7539 8.00518Z" fill="#4C6AFF"/>
</g>
<path d="M52.524 49.506C50.9 51.228 48.87 52.67 46.434 53.832L47.078 54.994C47.778 54.644 48.45 54.28 49.094 53.888V55.148H52.328V57.248H48.38V58.536H52.328V60.748H47.134V62.05H58.88V60.748H53.672V58.536H57.606V57.248H53.672V55.148H56.906V53.888C57.522 54.28 58.166 54.63 58.866 54.966L59.524 53.776C57.242 52.74 55.226 51.312 53.476 49.506H52.524ZM49.122 53.874C50.634 52.936 51.936 51.886 53 50.71C54.12 51.914 55.422 52.978 56.878 53.874H49.122ZM65.32 51.83V53.118H68.386V56.016C67.336 57.584 66.118 58.83 64.718 59.754L65.418 60.902C66.524 60.048 67.518 59.012 68.386 57.794V60.664C68.386 60.986 68.204 61.154 67.868 61.154C67.448 61.154 67 61.112 66.552 61.056L66.818 62.316H68.316C69.212 62.316 69.674 61.868 69.674 60.986V57.108C70.402 58.732 71.368 60.132 72.572 61.322L73.454 60.272C72.432 59.376 71.578 58.326 70.892 57.122C71.564 56.436 72.208 55.596 72.852 54.602L71.844 53.86C71.382 54.644 70.878 55.358 70.318 56.002C70.066 55.47 69.856 54.924 69.674 54.364V53.118H72.88V51.83H72.082L72.614 51.284C72.138 50.752 71.564 50.234 70.878 49.702L70.122 50.43C70.71 50.92 71.2 51.382 71.592 51.83H69.674V49.548H68.386V51.83H65.32ZM66.314 53.986L65.292 54.63C65.936 55.498 66.44 56.296 66.832 57.01L67.756 56.38C67.406 55.694 66.93 54.896 66.314 53.986ZM60.826 54.574V55.834H62.31V58.802C61.694 58.998 61.064 59.152 60.434 59.292L60.77 60.622C62.338 60.146 63.822 59.558 65.194 58.872V57.584C64.69 57.836 64.172 58.074 63.654 58.298V55.834H64.9V54.574H63.654V51.606H65.194V50.36H60.672V51.606H62.31V54.574H60.826ZM80.524 53.552H81.882V52.46H80.524V51.382C81.168 51.158 81.714 50.92 82.176 50.696L81.434 49.702C80.748 50.094 80.048 50.388 79.32 50.556V55.792H82.47V56.828H79.25V58.018H79.894C80.384 58.9 81.07 59.67 81.938 60.328C80.93 60.72 79.754 61.028 78.396 61.28L79.054 62.47C80.678 62.12 82.064 61.672 83.212 61.126C84.276 61.686 85.536 62.134 87.02 62.456L87.51 61.21C86.418 60.986 85.438 60.692 84.584 60.342C85.592 59.656 86.32 58.858 86.768 57.948V56.828H83.716V55.792H86.838V50.15H84.29V51.27H85.648V52.46H84.346V53.552H85.648V54.658H83.716V49.604H82.47V54.658H80.524V53.552ZM81.308 58.018H85.326C84.85 58.662 84.164 59.222 83.296 59.698C82.47 59.222 81.812 58.662 81.308 58.018ZM76.324 62.316C77.178 62.316 77.612 61.854 77.612 60.944V57.08C78.046 56.884 78.466 56.688 78.886 56.478V55.176C78.466 55.4 78.046 55.61 77.612 55.806V53.37H78.774V52.096H77.612V49.59H76.324V52.096H74.882V53.37H76.324V56.324C75.764 56.52 75.19 56.702 74.602 56.842L74.91 58.102C75.386 57.948 75.848 57.78 76.324 57.612V60.608C76.324 60.972 76.17 61.154 75.876 61.154C75.512 61.154 75.134 61.112 74.728 61.056L75.008 62.316H76.324ZM89.722 50.514V51.718H94.328V52.684H89.036V55.4H90.324V53.832H93.922C93.222 54.42 92.48 54.952 91.682 55.414C91.472 55.526 91.262 55.61 91.066 55.652L91.318 56.632C92.354 56.604 93.278 56.576 94.118 56.548C93.082 57.122 92.088 57.542 91.136 57.808C90.772 57.808 90.394 57.794 90.002 57.766L90.268 58.956C91.556 58.928 92.942 58.872 94.426 58.802V60.874C94.426 61.14 94.272 61.28 93.992 61.28C93.628 61.28 93.264 61.252 92.886 61.196L93.152 62.428H94.426C95.294 62.428 95.742 62.008 95.742 61.182V58.732C96.694 58.676 97.674 58.62 98.71 58.564C98.962 58.872 99.186 59.194 99.396 59.502L100.404 58.788C99.858 58.046 99.088 57.178 98.108 56.198L97.142 56.8C97.422 57.08 97.688 57.374 97.954 57.668C96.456 57.752 94.93 57.836 93.376 57.892C95.112 57.234 96.708 56.366 98.164 55.288L97.1 54.574C96.61 54.938 96.134 55.274 95.658 55.596C94.958 55.638 94.062 55.68 92.97 55.708C93.782 55.26 94.566 54.728 95.336 54.14L94.72 53.832H99.676V55.414H100.964V52.684H95.672V51.718H100.278V50.514H95.672V49.52H94.328V50.514H89.722ZM97.142 59.278L96.484 60.258C97.828 60.734 99.144 61.392 100.432 62.232L101.104 61.168C99.914 60.426 98.598 59.796 97.142 59.278ZM92.564 59.25C91.584 59.978 90.338 60.566 88.798 61.014L89.344 62.19C90.926 61.644 92.256 60.958 93.348 60.132L92.564 59.25Z" fill="#272E47"/>
<circle cx="55" cy="95" r="5" fill="#EED9FF"/>
<path d="M57.2504 100C57.2504 102.066 56.574 103.701 55.8944 104.823C55.5716 105.356 55.2495 105.77 55.0027 106.056C54.755 105.767 54.4312 105.347 54.1066 104.809C53.4259 103.681 52.75 102.046 52.75 100C52.75 97.9622 53.4257 96.3273 54.1069 95.1964C54.4338 94.6536 54.7601 94.2304 55.0087 93.9393C55.2542 94.219 55.5744 94.6253 55.8955 95.1512C56.573 96.2608 57.2504 97.8949 57.2504 100ZM54.5746 93.4913L54.5754 93.492L54.5751 93.4917L54.5746 93.4913ZM55.4364 106.518C55.4365 106.518 55.4365 106.518 55.4364 106.518L55.4364 106.518Z" stroke="#263789" stroke-width="1.3"/>
<circle cx="55" cy="100" r="6.35" stroke="#263789" stroke-width="1.3"/>
<path d="M48 100H62" stroke="#263789" stroke-width="1.3"/>
<path d="M84.212 96.67H86.284C86.228 98.56 85.934 100.212 85.388 101.626C84.828 100.45 84.38 99.036 84.03 97.398L84.212 96.67ZM84.926 102.634C84.282 103.824 83.428 104.79 82.336 105.546L82.854 106.386C83.904 105.63 84.772 104.692 85.444 103.572C86.144 104.748 86.984 105.7 87.964 106.4L88.51 105.574C87.502 104.888 86.648 103.922 85.92 102.662C86.704 101.01 87.138 99.008 87.208 96.67H88.118V95.704H84.422C84.534 95.088 84.646 94.416 84.73 93.702L83.75 93.534C83.47 96.194 82.91 98.308 82.084 99.876L82.714 100.646C83.008 100.142 83.288 99.568 83.54 98.924C83.918 100.324 84.38 101.556 84.926 102.634ZM78.29 100.072C78.192 100.352 78.08 100.646 77.954 100.954H75.91V101.836H77.562C77.282 102.396 76.96 102.97 76.596 103.586C77.282 103.838 77.926 104.104 78.542 104.37C77.73 104.832 76.736 105.21 75.588 105.518L76.064 106.358C77.464 105.966 78.626 105.448 79.55 104.804C80.376 105.168 81.09 105.546 81.706 105.91L82.252 105.126C81.636 104.79 80.992 104.482 80.32 104.174C81.048 103.502 81.566 102.704 81.874 101.78V100.954H78.948C79.032 100.702 79.13 100.45 79.228 100.184L78.29 100.072ZM79.396 103.782C78.892 103.572 78.36 103.376 77.8 103.18C78.08 102.76 78.332 102.312 78.556 101.836H80.964C80.628 102.564 80.096 103.222 79.396 103.782ZM77.016 93.828L76.218 94.094C76.554 94.626 76.862 95.228 77.156 95.914L77.884 95.578C77.632 94.962 77.352 94.374 77.016 93.828ZM81.272 93.786C81.02 94.374 80.656 94.962 80.208 95.564L80.922 95.928C81.37 95.34 81.72 94.738 82 94.122L81.272 93.786ZM75.938 96.25V97.132H77.926C77.506 97.902 76.75 98.602 75.672 99.232L76.162 100.044C77.366 99.232 78.206 98.28 78.668 97.174V99.834H79.606V98.014C80.11 98.35 80.712 98.798 81.412 99.358L81.93 98.574C81.146 98.098 80.362 97.664 79.606 97.286V97.132H82.154V96.25H79.606V93.576H78.668V96.25H75.938ZM91.296 106.274C92.08 106.274 92.472 105.854 92.472 105.042V100.954C92.906 100.758 93.34 100.562 93.774 100.338V99.344C93.354 99.568 92.92 99.778 92.472 99.974V97.216H93.816V96.25H92.472V93.604H91.492V96.25H89.812V97.216H91.492V100.38C90.876 100.604 90.232 100.8 89.588 100.954L89.84 101.934C90.386 101.766 90.932 101.57 91.492 101.36V104.79C91.492 105.182 91.31 105.392 90.96 105.392C90.624 105.392 90.26 105.364 89.896 105.322L90.106 106.274H91.296ZM95.482 100.086H98.338V101.808H96V106.4H96.938V105.714H100.732V106.4H101.67V101.808H99.318V100.086H102.314V99.176H99.318V97.524H101.95V94.122H94.572V98.504C94.558 101.444 94.054 103.852 93.06 105.7L93.844 106.4C94.768 104.58 95.314 102.48 95.482 100.086ZM98.338 97.524V99.176H95.538C95.538 98.952 95.552 98.728 95.552 98.504V97.524H98.338ZM96.938 104.818V102.704H100.732V104.818H96.938ZM100.97 95.06V96.614H95.552V95.06H100.97ZM109.342 97.482H110.868V96.642H109.342V95.298C110.014 95.046 110.602 94.794 111.078 94.542L110.504 93.8C109.846 94.192 109.146 94.486 108.418 94.682V99.736H111.624V100.968H108.334V101.878H108.922C109.454 102.858 110.21 103.712 111.218 104.426C110.168 104.874 108.908 105.238 107.452 105.518L107.956 106.414C109.594 106.05 110.994 105.574 112.17 105.014C113.248 105.602 114.55 106.064 116.076 106.386L116.44 105.448C115.208 105.196 114.13 104.86 113.206 104.44C114.354 103.712 115.194 102.844 115.698 101.822V100.968H112.562V99.736H115.74V94.248H113.29V95.116H114.83V96.642H113.36V97.482H114.83V98.868H112.562V93.618H111.624V98.868H109.342V97.482ZM109.958 101.878H114.606C114.074 102.662 113.276 103.348 112.226 103.936C111.26 103.362 110.504 102.676 109.958 101.878ZM105.31 106.274C106.066 106.274 106.458 105.868 106.458 105.07V101.01C106.934 100.786 107.41 100.562 107.872 100.324V99.344C107.41 99.596 106.934 99.834 106.458 100.044V97.216H107.76V96.25H106.458V93.632H105.478V96.25H103.924V97.216H105.478V100.436C104.89 100.66 104.288 100.842 103.672 101.01L103.896 101.962C104.428 101.794 104.946 101.612 105.478 101.416V104.818C105.478 105.196 105.296 105.392 104.96 105.392C104.596 105.392 104.204 105.364 103.784 105.322L103.994 106.274H105.31ZM118.764 94.668V95.592H123.482V96.81H118.19V99.358H119.17V97.692H123.342C122.53 98.392 121.662 99.008 120.752 99.526C120.542 99.638 120.332 99.722 120.122 99.764L120.318 100.534C121.536 100.506 122.614 100.464 123.566 100.436C122.334 101.136 121.158 101.64 120.01 101.962C119.73 101.962 119.436 101.948 119.142 101.934L119.338 102.844C120.626 102.816 122.04 102.76 123.58 102.69V105.084C123.58 105.364 123.412 105.518 123.104 105.518C122.74 105.518 122.348 105.49 121.956 105.448L122.166 106.386H123.44C124.196 106.386 124.588 106.022 124.588 105.322V102.648C125.596 102.592 126.66 102.522 127.794 102.452C128.074 102.788 128.326 103.124 128.55 103.46L129.306 102.914C128.76 102.158 127.976 101.29 126.954 100.296L126.226 100.758C126.562 101.094 126.884 101.416 127.192 101.752C125.372 101.878 123.566 101.976 121.746 102.032C123.65 101.36 125.414 100.422 127.066 99.19L126.254 98.644C125.75 99.008 125.246 99.358 124.756 99.694C123.972 99.75 122.922 99.778 121.634 99.806C122.544 99.316 123.412 98.742 124.252 98.07L123.482 97.692H128.83V99.372H129.81V96.81H124.518V95.592H129.236V94.668H124.518V93.562H123.482V94.668H118.764ZM126.072 103.39L125.568 104.132C126.912 104.622 128.228 105.294 129.516 106.134L130.034 105.322C128.844 104.566 127.528 103.922 126.072 103.39ZM121.662 103.362C120.668 104.118 119.408 104.734 117.882 105.196L118.302 106.092C119.884 105.546 121.2 104.86 122.25 104.02L121.662 103.362Z" fill="#545A6E"/>
<circle cx="60" cy="142" r="5" fill="#FDDADF"/>
<path d="M51.0631 144.022C49.3316 141.974 49.4581 138.942 51.354 137.046V137.046C53.3676 135.032 56.6324 135.032 58.646 137.046V137.046C60.5419 138.942 60.6684 141.974 58.9369 144.022L55.1008 148.557C55.048 148.62 54.9519 148.62 54.8992 148.557L51.0631 144.022Z" stroke="#263789" stroke-width="1.3"/>
<circle cx="55" cy="140.6" r="2" stroke="#263789" stroke-width="1.3"/>
<path d="M76.008 137.004V147H82.924V146.006H77.142V137.004H76.008ZM84.2385 137.004V147H88.6765C89.6985 147 90.5105 146.79 91.0985 146.398C91.7845 145.922 92.1345 145.194 92.1345 144.214C92.1345 143.542 91.9385 143.01 91.5745 142.59C91.2105 142.17 90.7065 141.89 90.0485 141.778C90.5525 141.61 90.9585 141.344 91.2665 140.98C91.5605 140.574 91.7145 140.084 91.7145 139.524C91.7145 138.74 91.4485 138.124 90.9165 137.676C90.3705 137.228 89.6285 137.004 88.7045 137.004H84.2385ZM85.3865 137.97H88.4385C89.1385 137.97 89.6705 138.096 90.0345 138.376C90.3985 138.656 90.5805 139.076 90.5805 139.636C90.5805 140.21 90.3845 140.644 90.0205 140.938C89.6565 141.218 89.1245 141.372 88.4245 141.372H85.3865V137.97ZM85.3865 142.324H88.5785C89.3485 142.324 89.9365 142.464 90.3425 142.772C90.7625 143.08 90.9865 143.556 90.9865 144.2C90.9865 144.844 90.7345 145.334 90.2445 145.642C89.8245 145.894 89.2785 146.034 88.5785 146.034H85.3865V142.324ZM97.0731 136.808C96.0371 136.808 95.1831 137.032 94.5251 137.48C93.7831 137.956 93.4191 138.642 93.4191 139.51C93.4191 140.35 93.7971 140.994 94.5671 141.442C94.8891 141.61 95.6591 141.89 96.8631 142.254C97.9831 142.576 98.6971 142.814 98.9771 142.982C99.6351 143.332 99.9711 143.822 99.9711 144.452C99.9711 144.984 99.7191 145.404 99.2151 145.712C98.7111 146.02 98.0391 146.174 97.2271 146.174C96.3311 146.174 95.6591 145.978 95.1971 145.614C94.6931 145.208 94.3851 144.564 94.2871 143.696H93.1531C93.2371 144.928 93.6711 145.838 94.4551 146.44C95.1271 146.944 96.0511 147.196 97.2271 147.196C98.4171 147.196 99.3551 146.944 100.055 146.454C100.755 145.95 101.105 145.25 101.105 144.382C101.105 143.472 100.685 142.772 99.8591 142.268C99.4391 142.016 98.5711 141.694 97.2551 141.302C96.2891 141.022 95.6731 140.812 95.4211 140.672C94.8471 140.364 94.5671 139.958 94.5671 139.454C94.5671 138.88 94.8051 138.46 95.2811 138.18C95.7011 137.928 96.2751 137.816 97.0171 137.816C97.8291 137.816 98.4591 137.984 98.9071 138.348C99.3411 138.698 99.6211 139.23 99.7471 139.958H100.881C100.783 138.908 100.405 138.11 99.7331 137.578C99.0891 137.06 98.1931 136.808 97.0731 136.808ZM107.893 139.482H109.419V138.642H107.893V137.298C108.565 137.046 109.153 136.794 109.629 136.542L109.055 135.8C108.397 136.192 107.697 136.486 106.969 136.682V141.736H110.175V142.968H106.885V143.878H107.473C108.005 144.858 108.761 145.712 109.769 146.426C108.719 146.874 107.459 147.238 106.003 147.518L106.507 148.414C108.145 148.05 109.545 147.574 110.721 147.014C111.799 147.602 113.101 148.064 114.627 148.386L114.991 147.448C113.759 147.196 112.681 146.86 111.757 146.44C112.905 145.712 113.745 144.844 114.249 143.822V142.968H111.113V141.736H114.291V136.248H111.841V137.116H113.381V138.642H111.911V139.482H113.381V140.868H111.113V135.618H110.175V140.868H107.893V139.482ZM108.509 143.878H113.157C112.625 144.662 111.827 145.348 110.777 145.936C109.811 145.362 109.055 144.676 108.509 143.878ZM103.861 148.274C104.617 148.274 105.009 147.868 105.009 147.07V143.01C105.485 142.786 105.961 142.562 106.423 142.324V141.344C105.961 141.596 105.485 141.834 105.009 142.044V139.216H106.311V138.25H105.009V135.632H104.029V138.25H102.475V139.216H104.029V142.436C103.441 142.66 102.839 142.842 102.223 143.01L102.447 143.962C102.979 143.794 103.497 143.612 104.029 143.416V146.818C104.029 147.196 103.847 147.392 103.511 147.392C103.147 147.392 102.755 147.364 102.335 147.322L102.545 148.274H103.861ZM117.315 136.668V137.592H122.033V138.81H116.741V141.358H117.721V139.692H121.893C121.081 140.392 120.213 141.008 119.303 141.526C119.093 141.638 118.883 141.722 118.673 141.764L118.869 142.534C120.087 142.506 121.165 142.464 122.117 142.436C120.885 143.136 119.709 143.64 118.561 143.962C118.281 143.962 117.987 143.948 117.693 143.934L117.889 144.844C119.177 144.816 120.591 144.76 122.131 144.69V147.084C122.131 147.364 121.963 147.518 121.655 147.518C121.291 147.518 120.899 147.49 120.507 147.448L120.717 148.386H121.991C122.747 148.386 123.139 148.022 123.139 147.322V144.648C124.147 144.592 125.211 144.522 126.345 144.452C126.625 144.788 126.877 145.124 127.101 145.46L127.857 144.914C127.311 144.158 126.527 143.29 125.505 142.296L124.777 142.758C125.113 143.094 125.435 143.416 125.743 143.752C123.923 143.878 122.117 143.976 120.297 144.032C122.201 143.36 123.965 142.422 125.617 141.19L124.805 140.644C124.301 141.008 123.797 141.358 123.307 141.694C122.523 141.75 121.473 141.778 120.185 141.806C121.095 141.316 121.963 140.742 122.803 140.07L122.033 139.692H127.381V141.372H128.361V138.81H123.069V137.592H127.787V136.668H123.069V135.562H122.033V136.668H117.315ZM124.623 145.39L124.119 146.132C125.463 146.622 126.779 147.294 128.067 148.134L128.585 147.322C127.395 146.566 126.079 145.922 124.623 145.39ZM120.213 145.362C119.219 146.118 117.959 146.734 116.433 147.196L116.853 148.092C118.435 147.546 119.751 146.86 120.801 146.02L120.213 145.362Z" fill="#545A6E"/>
<circle cx="60" cy="184" r="5" fill="#D1EDDE"/>
<path fill-rule="evenodd" clip-rule="evenodd" d="M54.5 189C57.5376 189 60 186.538 60 183.5C60 180.462 57.5376 178 54.5 178C51.4624 178 49 180.462 49 183.5C49 186.538 51.4624 189 54.5 189Z" stroke="#263789" stroke-width="1.3"/>
<path d="M61.4375 190L59.9375 188.5L59.1875 187.75L59 187.562" stroke="#263789" stroke-width="1.3" stroke-linecap="round" stroke-linejoin="round"/>
<path d="M77.59 179.48H79.018C78.99 179.956 78.948 180.404 78.864 180.838H75.798V181.762H78.612L78.472 182.098C78.01 183.05 77.058 183.848 75.602 184.492L76.274 185.318C77.66 184.674 78.64 183.862 79.2 182.882C80.152 183.442 80.908 183.974 81.496 184.506L82.21 183.792C81.482 183.232 80.586 182.686 79.522 182.154C79.55 182.028 79.592 181.902 79.634 181.762H82.476V180.838H79.844C79.9 180.418 79.942 179.956 79.97 179.48H82.084V178.584H78.08C78.206 178.304 78.332 177.996 78.458 177.66L77.548 177.464C77.086 178.584 76.526 179.452 75.854 180.068L76.456 180.824C76.876 180.446 77.254 179.998 77.59 179.48ZM83.064 178.514V183.638H87.67V178.514H83.064ZM86.69 182.742H84.044V179.41H86.69V182.742ZM86.676 184.646H77.716V190.428H78.724V189.798H85.654V190.428H86.676V184.646ZM78.724 188.902V187.698H85.654V188.902H78.724ZM78.724 186.816V185.542H85.654V186.816H78.724ZM91.506 185.598H94.74V186.9H91.506V185.598ZM94.74 184.758H91.506V183.4H94.74V184.758ZM91.506 187.754H94.74V188.888C94.74 189.238 94.558 189.42 94.208 189.42L93.158 189.378L93.41 190.33H94.53C95.314 190.33 95.706 189.91 95.706 189.098V182.518H90.54V190.428H91.506V187.754ZM100.62 183.68C101.11 183.68 101.474 183.568 101.698 183.358C101.95 183.106 102.132 182.406 102.23 181.258L101.292 180.964C101.236 181.832 101.152 182.35 101.012 182.546C100.9 182.686 100.704 182.77 100.424 182.77H98.59C98.212 182.77 98.03 182.546 98.03 182.098V180.348C99.57 180.124 100.928 179.858 102.104 179.564L101.782 178.682C100.816 178.934 99.57 179.186 98.03 179.424V177.604H97.036V182.308C97.036 183.218 97.456 183.68 98.31 183.68H100.62ZM98.03 186.844C99.486 186.718 100.844 186.48 102.104 186.116L101.782 185.22C100.676 185.556 99.43 185.794 98.03 185.934V184.212H97.036V189.07C97.036 189.812 97.442 190.19 98.282 190.19H100.662C101.166 190.19 101.53 190.078 101.754 189.868C102.02 189.616 102.202 188.93 102.286 187.796L101.376 187.516C101.32 188.37 101.222 188.888 101.068 189.084C100.956 189.21 100.746 189.28 100.466 189.28H98.562C98.198 189.28 98.03 189.126 98.03 188.846V186.844ZM94.698 178.556L93.914 179.046C94.25 179.522 94.572 179.998 94.866 180.446C93.55 180.614 92.304 180.726 91.128 180.796C91.912 180.082 92.612 179.102 93.256 177.856L92.304 177.562C91.744 178.682 91.016 179.69 90.148 180.586C90.022 180.698 89.868 180.796 89.686 180.852L89.966 181.692C92.038 181.58 93.83 181.412 95.328 181.174C95.51 181.482 95.678 181.79 95.832 182.098L96.658 181.51C96.196 180.67 95.538 179.69 94.698 178.556ZM113.822 177.562V190.414H114.83V177.562H113.822ZM105.59 182.168H110.406V178.122H104.316V179.046H109.412V181.23H104.75L104.022 185.402H109.538C109.538 187.04 109.454 188.118 109.3 188.636C109.132 189.126 108.502 189.378 107.438 189.378C106.99 189.378 106.542 189.35 106.094 189.322L106.346 190.26C106.794 190.288 107.228 190.316 107.662 190.316C109.188 190.26 110.056 189.84 110.252 189.056C110.448 188.328 110.546 186.802 110.546 184.492H105.1L105.59 182.168ZM125.456 180.572C125.708 181.146 126.086 181.678 126.604 182.168C126.044 182.56 125.344 182.868 124.518 183.064L124.896 183.876C125.848 183.638 126.646 183.26 127.318 182.742C127.99 183.232 128.858 183.652 129.908 184.002L130.37 183.19C129.418 182.896 128.606 182.546 127.962 182.126C128.55 181.426 128.956 180.558 129.166 179.494H129.936V178.654H126.366C126.478 178.318 126.576 177.954 126.66 177.576L125.736 177.45C125.456 178.794 124.924 179.914 124.168 180.838L124.7 181.552C124.98 181.244 125.232 180.922 125.456 180.572ZM126.044 179.494H128.27C128.102 180.306 127.752 181.02 127.234 181.608C126.59 181.048 126.156 180.418 125.946 179.69C125.974 179.634 126.016 179.564 126.044 179.494ZM128.284 183.988C125.82 184.352 122.712 184.548 118.96 184.548L119.212 185.304C120.822 185.304 122.306 185.276 123.678 185.22V186.102H118.904V186.844H123.678V187.698H117.924V188.538H123.678V189.154C123.678 189.49 123.496 189.658 123.146 189.658C122.642 189.658 122.124 189.63 121.578 189.602L121.774 190.47H123.454C124.238 190.47 124.644 190.106 124.644 189.378V188.538H130.104V187.698H124.644V186.844H128.97V186.102H124.644V185.178C126.184 185.094 127.556 184.968 128.746 184.8L128.284 183.988ZM119.702 177.52V178.108H117.938V178.892H119.702V179.41L118.96 179.284C118.722 180.166 118.274 180.88 117.616 181.412L118.162 182.07C118.358 181.902 118.54 181.72 118.736 181.524V183.428H121.354L121.536 184.002H122.054C122.782 184.002 123.244 183.946 123.454 183.834C123.678 183.722 123.818 183.526 123.902 183.218C123.972 182.896 124.028 181.832 124.07 180.012H119.604C119.646 179.872 119.688 179.732 119.744 179.592H120.542V178.892H122.068V179.564H122.908V178.892H124.56V178.108H122.908V177.506H122.068V178.108H120.542V177.52H119.702ZM122.152 183.274V181.342H118.876C119.016 181.174 119.142 180.964 119.282 180.74H123.188C123.16 181.832 123.132 182.49 123.104 182.714C123.076 182.91 123.02 183.064 122.922 183.148C122.824 183.232 122.614 183.274 122.278 183.274H122.152ZM121.354 182.798H119.534V181.986H121.354V182.798ZM137.342 181.482H138.868V180.642H137.342V179.298C138.014 179.046 138.602 178.794 139.078 178.542L138.504 177.8C137.846 178.192 137.146 178.486 136.418 178.682V183.736H139.624V184.968H136.334V185.878H136.922C137.454 186.858 138.21 187.712 139.218 188.426C138.168 188.874 136.908 189.238 135.452 189.518L135.956 190.414C137.594 190.05 138.994 189.574 140.17 189.014C141.248 189.602 142.55 190.064 144.076 190.386L144.44 189.448C143.208 189.196 142.13 188.86 141.206 188.44C142.354 187.712 143.194 186.844 143.698 185.822V184.968H140.562V183.736H143.74V178.248H141.29V179.116H142.83V180.642H141.36V181.482H142.83V182.868H140.562V177.618H139.624V182.868H137.342V181.482ZM137.958 185.878H142.606C142.074 186.662 141.276 187.348 140.226 187.936C139.26 187.362 138.504 186.676 137.958 185.878ZM133.31 190.274C134.066 190.274 134.458 189.868 134.458 189.07V185.01C134.934 184.786 135.41 184.562 135.872 184.324V183.344C135.41 183.596 134.934 183.834 134.458 184.044V181.216H135.76V180.25H134.458V177.632H133.478V180.25H131.924V181.216H133.478V184.436C132.89 184.66 132.288 184.842 131.672 185.01L131.896 185.962C132.428 185.794 132.946 185.612 133.478 185.416V188.818C133.478 189.196 133.296 189.392 132.96 189.392C132.596 189.392 132.204 189.364 131.784 189.322L131.994 190.274H133.31ZM146.764 178.668V179.592H151.482V180.81H146.19V183.358H147.17V181.692H151.342C150.53 182.392 149.662 183.008 148.752 183.526C148.542 183.638 148.332 183.722 148.122 183.764L148.318 184.534C149.536 184.506 150.614 184.464 151.566 184.436C150.334 185.136 149.158 185.64 148.01 185.962C147.73 185.962 147.436 185.948 147.142 185.934L147.338 186.844C148.626 186.816 150.04 186.76 151.58 186.69V189.084C151.58 189.364 151.412 189.518 151.104 189.518C150.74 189.518 150.348 189.49 149.956 189.448L150.166 190.386H151.44C152.196 190.386 152.588 190.022 152.588 189.322V186.648C153.596 186.592 154.66 186.522 155.794 186.452C156.074 186.788 156.326 187.124 156.55 187.46L157.306 186.914C156.76 186.158 155.976 185.29 154.954 184.296L154.226 184.758C154.562 185.094 154.884 185.416 155.192 185.752C153.372 185.878 151.566 185.976 149.746 186.032C151.65 185.36 153.414 184.422 155.066 183.19L154.254 182.644C153.75 183.008 153.246 183.358 152.756 183.694C151.972 183.75 150.922 183.778 149.634 183.806C150.544 183.316 151.412 182.742 152.252 182.07L151.482 181.692H156.83V183.372H157.81V180.81H152.518V179.592H157.236V178.668H152.518V177.562H151.482V178.668H146.764ZM154.072 187.39L153.568 188.132C154.912 188.622 156.228 189.294 157.516 190.134L158.034 189.322C156.844 188.566 155.528 187.922 154.072 187.39ZM149.662 187.362C148.668 188.118 147.408 188.734 145.882 189.196L146.302 190.092C147.884 189.546 149.2 188.86 150.25 188.02L149.662 187.362Z" fill="#545A6E"/>
<path d="M212.132 51.746H219.062V50.514H212.804C212.93 50.248 213.056 49.968 213.182 49.674L211.852 49.394C211.222 50.892 210.466 52.068 209.57 52.922L210.41 53.944C210.634 53.72 210.858 53.468 211.11 53.188C211.082 54.07 211.012 54.966 210.914 55.89H209.486V57.122H210.774C210.634 58.2 210.438 59.292 210.214 60.398H216.85C216.822 60.51 216.808 60.58 216.794 60.622C216.668 60.902 216.472 61.098 216.22 61.196C215.968 61.252 215.66 61.294 215.324 61.294C214.876 61.294 214.358 61.266 213.798 61.224L214.176 62.428C214.68 62.428 215.114 62.414 215.506 62.414C216.262 62.414 216.822 62.302 217.214 62.092C217.606 61.882 217.872 61.546 218.012 61.084C218.04 60.972 218.082 60.748 218.11 60.398H219.258V59.264H218.208C218.236 58.69 218.278 57.976 218.32 57.122H219.482V55.89H218.376C218.404 54.952 218.446 53.874 218.488 52.656H211.516C211.726 52.376 211.936 52.082 212.132 51.746ZM212.034 57.122H213.854L213.126 57.836C213.826 58.326 214.372 58.802 214.792 59.264H211.684C211.824 58.606 211.936 57.892 212.034 57.122ZM214.876 59.264L215.688 58.466C215.254 58.018 214.722 57.57 214.092 57.122H217.06C217.018 57.99 216.976 58.704 216.948 59.264H214.876ZM217.102 55.89H215.072L215.842 55.134C215.366 54.7 214.778 54.266 214.092 53.846L213.266 54.658C213.938 55.078 214.484 55.498 214.904 55.89H212.174C212.23 55.232 212.272 54.532 212.314 53.804H217.186L217.102 55.89ZM207.75 49.674L206.798 50.584C207.708 51.228 208.408 51.816 208.912 52.376L209.864 51.424C209.29 50.836 208.59 50.248 207.75 49.674ZM207.526 53.076L206.574 54C207.498 54.658 208.198 55.26 208.702 55.82L209.64 54.882C209.066 54.266 208.366 53.664 207.526 53.076ZM208.688 57.248C208.114 58.774 207.442 60.258 206.672 61.714L207.904 62.26C208.618 60.832 209.262 59.32 209.836 57.696L208.688 57.248ZM224.508 49.576L223.29 50.164C223.794 50.794 224.284 51.508 224.746 52.32H221.75V53.608H226.328V54.042C226.3 54.7 226.216 55.316 226.104 55.904H220.952V57.192H225.74C225.558 57.668 225.334 58.116 225.068 58.522C224.298 59.586 222.842 60.468 220.686 61.168L221.414 62.33C223.57 61.658 225.124 60.692 226.076 59.432C226.44 58.928 226.748 58.34 227 57.682C227.812 59.656 229.674 61.252 232.614 62.456L233.398 61.196C230.584 60.216 228.834 58.886 228.148 57.192H233.048V55.904H227.476C227.574 55.33 227.644 54.714 227.672 54.042V53.608H232.236V52.32H229.576C230.024 51.578 230.416 50.752 230.724 49.828L229.422 49.478C229.03 50.57 228.582 51.522 228.078 52.32H225.18L226.048 51.886C225.558 51.046 225.04 50.276 224.508 49.576ZM243.338 52.824H245.144C245.088 54.504 244.836 55.988 244.374 57.276C243.884 56.184 243.478 54.91 243.17 53.454C243.226 53.258 243.282 53.048 243.338 52.824ZM243.772 58.634C243.156 59.74 242.33 60.636 241.294 61.336L241.98 62.442C242.96 61.742 243.786 60.874 244.444 59.852C245.116 60.93 245.9 61.798 246.81 62.456L247.552 61.378C246.6 60.734 245.788 59.824 245.088 58.662C245.844 57.052 246.264 55.106 246.348 52.824H247.16V51.55H243.604C243.716 50.976 243.8 50.374 243.884 49.73L242.582 49.506C242.302 52.11 241.77 54.182 240.986 55.722L241.826 56.758C242.078 56.338 242.302 55.862 242.526 55.358C242.876 56.576 243.296 57.668 243.772 58.634ZM237.136 56.016C237.052 56.268 236.954 56.548 236.842 56.828H234.868V57.962H236.338C236.072 58.494 235.764 59.04 235.428 59.628C236.072 59.88 236.688 60.118 237.262 60.356C236.506 60.748 235.596 61.056 234.546 61.308L235.162 62.4C236.548 62.036 237.71 61.56 238.634 60.958C239.404 61.308 240.062 61.644 240.608 61.98L241.322 60.944C240.79 60.664 240.23 60.384 239.656 60.132C240.3 59.488 240.748 58.746 241 57.906V56.828H238.144C238.228 56.604 238.298 56.394 238.382 56.17L237.136 56.016ZM238.438 59.628C237.976 59.432 237.5 59.264 237.01 59.096C237.234 58.732 237.444 58.354 237.64 57.962H239.81C239.502 58.578 239.054 59.138 238.438 59.628ZM236.17 49.73L235.12 50.08C235.442 50.598 235.75 51.2 236.03 51.872L236.982 51.438C236.744 50.822 236.478 50.262 236.17 49.73ZM240.188 49.716C239.936 50.276 239.586 50.85 239.138 51.438L240.062 51.914C240.496 51.34 240.846 50.752 241.126 50.164L240.188 49.716ZM234.896 52.11V53.272H236.66C236.24 53.916 235.554 54.518 234.574 55.078L235.232 56.156C236.31 55.4 237.08 54.518 237.542 53.51V55.876H238.76V54.308C239.194 54.588 239.712 54.98 240.328 55.47L241.028 54.42C240.258 54.014 239.502 53.65 238.76 53.342V53.272H241.196V52.11H238.76V49.534H237.542V52.11H234.896ZM250.31 62.316C251.178 62.316 251.626 61.854 251.626 60.93V57.052C252.018 56.87 252.41 56.674 252.816 56.478V55.176C252.424 55.386 252.018 55.582 251.626 55.764V53.37H252.858V52.096H251.626V49.562H250.338V52.096H248.77V53.37H250.338V56.268C249.736 56.478 249.134 56.66 248.518 56.8L248.854 58.116C249.344 57.948 249.834 57.78 250.338 57.598V60.608C250.338 60.972 250.17 61.154 249.862 61.154C249.526 61.154 249.19 61.112 248.84 61.056L249.12 62.316H250.31ZM254.664 56.24H257.184V57.682H254.944V62.442H256.176V61.84H259.494V62.442H260.726V57.682H258.472V56.24H261.356V55.022H258.472V53.622H261.02V49.996H253.446V54.56C253.432 57.402 252.956 59.726 252.018 61.532L253.054 62.456C253.95 60.664 254.482 58.592 254.664 56.24ZM257.184 53.622V55.022H254.72C254.72 54.868 254.734 54.714 254.734 54.56V53.622H257.184ZM256.176 60.664V58.858H259.494V60.664H256.176ZM259.732 51.214V52.432H254.734V51.214H259.732Z" fill="#272E47"/>
<circle cx="215" cy="95" r="5" fill="#EED9FF"/>
<path d="M208 95.6234H211.5" stroke="#263789" stroke-width="1.3" stroke-linecap="round"/>
<path d="M208 98.4372H210.5" stroke="#263789" stroke-width="1.3" stroke-linecap="round"/>
<path d="M208 101.359H211" stroke="#263789" stroke-width="1.3" stroke-linecap="round"/>
<path d="M208 104.281H214" stroke="#263789" stroke-width="1.3" stroke-linecap="round"/>
<circle cx="216.97" cy="98.5996" r="3.94957" stroke="#263789" stroke-width="1.3"/>
<path d="M219.5 102L222 105" stroke="#263789" stroke-width="1.3" stroke-linecap="round"/>
<path d="M244.212 96.67H246.284C246.228 98.56 245.934 100.212 245.388 101.626C244.828 100.45 244.38 99.036 244.03 97.398L244.212 96.67ZM244.926 102.634C244.282 103.824 243.428 104.79 242.336 105.546L242.854 106.386C243.904 105.63 244.772 104.692 245.444 103.572C246.144 104.748 246.984 105.7 247.964 106.4L248.51 105.574C247.502 104.888 246.648 103.922 245.92 102.662C246.704 101.01 247.138 99.008 247.208 96.67H248.118V95.704H244.422C244.534 95.088 244.646 94.416 244.73 93.702L243.75 93.534C243.47 96.194 242.91 98.308 242.084 99.876L242.714 100.646C243.008 100.142 243.288 99.568 243.54 98.924C243.918 100.324 244.38 101.556 244.926 102.634ZM238.29 100.072C238.192 100.352 238.08 100.646 237.954 100.954H235.91V101.836H237.562C237.282 102.396 236.96 102.97 236.596 103.586C237.282 103.838 237.926 104.104 238.542 104.37C237.73 104.832 236.736 105.21 235.588 105.518L236.064 106.358C237.464 105.966 238.626 105.448 239.55 104.804C240.376 105.168 241.09 105.546 241.706 105.91L242.252 105.126C241.636 104.79 240.992 104.482 240.32 104.174C241.048 103.502 241.566 102.704 241.874 101.78V100.954H238.948C239.032 100.702 239.13 100.45 239.228 100.184L238.29 100.072ZM239.396 103.782C238.892 103.572 238.36 103.376 237.8 103.18C238.08 102.76 238.332 102.312 238.556 101.836H240.964C240.628 102.564 240.096 103.222 239.396 103.782ZM237.016 93.828L236.218 94.094C236.554 94.626 236.862 95.228 237.156 95.914L237.884 95.578C237.632 94.962 237.352 94.374 237.016 93.828ZM241.272 93.786C241.02 94.374 240.656 94.962 240.208 95.564L240.922 95.928C241.37 95.34 241.72 94.738 242 94.122L241.272 93.786ZM235.938 96.25V97.132H237.926C237.506 97.902 236.75 98.602 235.672 99.232L236.162 100.044C237.366 99.232 238.206 98.28 238.668 97.174V99.834H239.606V98.014C240.11 98.35 240.712 98.798 241.412 99.358L241.93 98.574C241.146 98.098 240.362 97.664 239.606 97.286V97.132H242.154V96.25H239.606V93.576H238.668V96.25H235.938ZM251.296 106.274C252.08 106.274 252.472 105.854 252.472 105.042V100.954C252.906 100.758 253.34 100.562 253.774 100.338V99.344C253.354 99.568 252.92 99.778 252.472 99.974V97.216H253.816V96.25H252.472V93.604H251.492V96.25H249.812V97.216H251.492V100.38C250.876 100.604 250.232 100.8 249.588 100.954L249.84 101.934C250.386 101.766 250.932 101.57 251.492 101.36V104.79C251.492 105.182 251.31 105.392 250.96 105.392C250.624 105.392 250.26 105.364 249.896 105.322L250.106 106.274H251.296ZM255.482 100.086H258.338V101.808H256V106.4H256.938V105.714H260.732V106.4H261.67V101.808H259.318V100.086H262.314V99.176H259.318V97.524H261.95V94.122H254.572V98.504C254.558 101.444 254.054 103.852 253.06 105.7L253.844 106.4C254.768 104.58 255.314 102.48 255.482 100.086ZM258.338 97.524V99.176H255.538C255.538 98.952 255.552 98.728 255.552 98.504V97.524H258.338ZM256.938 104.818V102.704H260.732V104.818H256.938ZM260.97 95.06V96.614H255.552V95.06H260.97ZM269.342 97.482H270.868V96.642H269.342V95.298C270.014 95.046 270.602 94.794 271.078 94.542L270.504 93.8C269.846 94.192 269.146 94.486 268.418 94.682V99.736H271.624V100.968H268.334V101.878H268.922C269.454 102.858 270.21 103.712 271.218 104.426C270.168 104.874 268.908 105.238 267.452 105.518L267.956 106.414C269.594 106.05 270.994 105.574 272.17 105.014C273.248 105.602 274.55 106.064 276.076 106.386L276.44 105.448C275.208 105.196 274.13 104.86 273.206 104.44C274.354 103.712 275.194 102.844 275.698 101.822V100.968H272.562V99.736H275.74V94.248H273.29V95.116H274.83V96.642H273.36V97.482H274.83V98.868H272.562V93.618H271.624V98.868H269.342V97.482ZM269.958 101.878H274.606C274.074 102.662 273.276 103.348 272.226 103.936C271.26 103.362 270.504 102.676 269.958 101.878ZM265.31 106.274C266.066 106.274 266.458 105.868 266.458 105.07V101.01C266.934 100.786 267.41 100.562 267.872 100.324V99.344C267.41 99.596 266.934 99.834 266.458 100.044V97.216H267.76V96.25H266.458V93.632H265.478V96.25H263.924V97.216H265.478V100.436C264.89 100.66 264.288 100.842 263.672 101.01L263.896 101.962C264.428 101.794 264.946 101.612 265.478 101.416V104.818C265.478 105.196 265.296 105.392 264.96 105.392C264.596 105.392 264.204 105.364 263.784 105.322L263.994 106.274H265.31ZM278.764 94.668V95.592H283.482V96.81H278.19V99.358H279.17V97.692H283.342C282.53 98.392 281.662 99.008 280.752 99.526C280.542 99.638 280.332 99.722 280.122 99.764L280.318 100.534C281.536 100.506 282.614 100.464 283.566 100.436C282.334 101.136 281.158 101.64 280.01 101.962C279.73 101.962 279.436 101.948 279.142 101.934L279.338 102.844C280.626 102.816 282.04 102.76 283.58 102.69V105.084C283.58 105.364 283.412 105.518 283.104 105.518C282.74 105.518 282.348 105.49 281.956 105.448L282.166 106.386H283.44C284.196 106.386 284.588 106.022 284.588 105.322V102.648C285.596 102.592 286.66 102.522 287.794 102.452C288.074 102.788 288.326 103.124 288.55 103.46L289.306 102.914C288.76 102.158 287.976 101.29 286.954 100.296L286.226 100.758C286.562 101.094 286.884 101.416 287.192 101.752C285.372 101.878 283.566 101.976 281.746 102.032C283.65 101.36 285.414 100.422 287.066 99.19L286.254 98.644C285.75 99.008 285.246 99.358 284.756 99.694C283.972 99.75 282.922 99.778 281.634 99.806C282.544 99.316 283.412 98.742 284.252 98.07L283.482 97.692H288.83V99.372H289.81V96.81H284.518V95.592H289.236V94.668H284.518V93.562H283.482V94.668H278.764ZM286.072 103.39L285.568 104.132C286.912 104.622 288.228 105.294 289.516 106.134L290.034 105.322C288.844 104.566 287.528 103.922 286.072 103.39ZM281.662 103.362C280.668 104.118 279.408 104.734 277.882 105.196L278.302 106.092C279.884 105.546 281.2 104.86 282.25 104.02L281.662 103.362Z" fill="#545A6E"/>
<circle cx="220" cy="144" r="5" fill="#FDDADF"/>
<g clip-path="url(#clip0_4248_102177)">
<path d="M211.851 146.058L211.909 145.721L211.664 145.483L208.818 142.708L212.751 142.137L213.089 142.088L213.241 141.781L215 138.217L216.759 141.781L216.91 142.088L217.248 142.137L221.182 142.708L218.335 145.483L218.091 145.721L218.148 146.058L218.82 149.976L215.302 148.126L215 147.967L214.697 148.126L211.179 149.976L211.851 146.058ZM215.134 137.944C215.134 137.944 215.134 137.944 215.134 137.945L215.134 137.944L215 137.878L215.134 137.944Z" stroke="#263789" stroke-width="1.3"/>
</g>
<path d="M238.136 145.416H242.028V146.816H238.136V147.684H242.028V149.112H236.456V150.036H248.342V149.112H243.064V147.684H247.194V146.816H243.064V145.416H247.712V144.52H243.064V143.414H242.028V144.52H238.528C238.654 144.184 238.78 143.848 238.892 143.484L237.982 143.274C237.478 144.814 236.806 146.074 235.98 147.026L236.652 147.81C237.212 147.124 237.702 146.326 238.136 145.416ZM237.716 138.01V142.966H246.83V138.01H237.716ZM245.836 142.112H238.71V140.894H245.836V142.112ZM238.71 140.082V138.878H245.836V140.082H238.71ZM251.674 137.604V140.25H249.966V141.216H251.674C251.24 142.98 250.526 144.562 249.518 145.934L249.952 147.026C250.652 145.934 251.226 144.73 251.674 143.414V150.386H252.668V143.372C253.088 143.904 253.578 144.604 254.152 145.486L254.726 144.632C254.04 143.778 253.354 142.994 252.668 142.294V141.216H254.292V140.25H252.668V137.604H251.674ZM255.804 143.932C255.412 145.668 254.782 147.236 253.914 148.65L254.782 149.21C255.622 147.782 256.28 146.102 256.728 144.142L255.804 143.932ZM260.872 143.862L259.962 144.156C260.508 145.668 261.012 147.39 261.474 149.336L262.384 148.93C261.964 147.138 261.46 145.444 260.872 143.862ZM257.736 150.246C258.548 150.246 258.968 149.826 258.968 149V142.77H262.398V141.804H254.544V142.77H257.96V148.748C257.96 149.154 257.764 149.364 257.386 149.364C256.98 149.364 256.56 149.336 256.112 149.308L256.308 150.246H257.736ZM255.286 138.402V139.354H261.67V138.402H255.286ZM267.606 137.702C266.71 140.376 265.394 142.504 263.644 144.1L264.428 144.786C266.136 143.246 267.494 141.006 268.53 138.066L267.606 137.702ZM272.38 145.122L271.47 145.43C272.058 146.27 272.618 147.194 273.164 148.202C271.162 148.524 269.02 148.762 266.738 148.902C267.942 147.39 269.146 145.304 270.35 142.644L269.37 142.308C267.676 146.144 266.276 148.356 265.156 148.944L265.338 149.924C268.39 149.728 271.148 149.448 273.612 149.056C273.822 149.476 274.032 149.924 274.242 150.4L275.18 149.98C274.396 148.258 273.472 146.634 272.38 145.122ZM272.17 137.604L271.316 138.08C272.128 140.824 273.584 143.078 275.67 144.814L276.384 143.988C274.382 142.336 272.982 140.208 272.17 137.604ZM279.072 143.54V147.852H285.246V143.54H279.072ZM284.28 146.956H280.052V144.45H284.28V146.956ZM287.682 150.302C288.634 150.302 289.11 149.798 289.11 148.804V138.15H278.582V139.13H288.102V148.524C288.102 149.084 287.878 149.364 287.458 149.364L285.498 149.336L285.75 150.302H287.682ZM278.022 140.908V141.818H286.632V140.908H278.022Z" fill="#545A6E"/>
<defs>
<filter id="filter0_d_4248_102177" x="0.5" y="0.993484" width="365" height="236.507" filterUnits="userSpaceOnUse" color-interpolation-filters="sRGB">
<feFlood flood-opacity="0" result="BackgroundImageFix"/>
<feColorMatrix in="SourceAlpha" type="matrix" values="0 0 0 0 0 0 0 0 0 0 0 0 0 0 0 0 0 0 127 0" result="hardAlpha"/>
<feOffset dy="4"/>
<feGaussianBlur stdDeviation="2"/>
<feComposite in2="hardAlpha" operator="out"/>
<feColorMatrix type="matrix" values="0 0 0 0 0.160784 0 0 0 0 0.172549 0 0 0 0 0.25098 0 0 0 0.25 0"/>
<feBlend mode="normal" in2="BackgroundImageFix" result="effect1_dropShadow_4248_102177"/>
<feBlend mode="normal" in="SourceGraphic" in2="effect1_dropShadow_4248_102177" result="shape"/>
</filter>
<clipPath id="clip0_4248_102177">
<rect width="16" height="16" fill="white" transform="translate(207 136)"/>
</clipPath>
</defs>
</svg>
