<svg width="16" height="16" viewBox="0 0 16 16" fill="none" xmlns="http://www.w3.org/2000/svg">
<path d="M2.2 2.80005C1.92385 2.80005 1.7 3.02391 1.7 3.30005C1.7 3.57619 1.92385 3.80005 2.2 3.80005V2.80005ZM13.8 3.80005C14.0761 3.80005 14.3 3.57619 14.3 3.30005C14.3 3.02391 14.0761 2.80005 13.8 2.80005V3.80005ZM7.2 6.50006C7.2 6.22392 6.97614 6.00006 6.7 6.00006C6.42385 6.00006 6.2 6.22392 6.2 6.50006H7.2ZM6.2 11.0001C6.2 11.2762 6.42385 11.5001 6.7 11.5001C6.97614 11.5001 7.2 11.2762 7.2 11.0001H6.2ZM9.8 6.50006C9.8 6.22392 9.57614 6.00006 9.3 6.00006C9.02385 6.00006 8.8 6.22392 8.8 6.50006H9.8ZM8.8 11.0001C8.8 11.2762 9.02385 11.5001 9.3 11.5001C9.57614 11.5001 9.8 11.2762 9.8 11.0001H8.8ZM5.5 1.80005V1.30005C5.22386 1.30005 5 1.52391 5 1.80005H5.5ZM10.5 1.80005H11C11 1.52391 10.7761 1.30005 10.5 1.30005V1.80005ZM2.2 3.80005H3.4V2.80005H2.2V3.80005ZM2.9 3.30005V13.5H3.9V3.30005H2.9ZM3.9 14.5H12.1V13.5H3.9V14.5ZM12.6 3.80005H13.8V2.80005H12.6V3.80005ZM13.1 13.5V3.30005H12.1V13.5H13.1ZM6.2 6.50006V11.0001H7.2V6.50006H6.2ZM8.8 6.50006V11.0001H9.8V6.50006H8.8ZM3.4 3.80005H5.5V2.80005H3.4V3.80005ZM5.5 3.80005H7.95V2.80005H5.5V3.80005ZM6 3.30005V1.80005H5V3.30005H6ZM5.5 2.30005H10.5V1.30005H5.5V2.30005ZM7.95 3.80005H10.5V2.80005H7.95V3.80005ZM10.5 3.80005H12.6V2.80005H10.5V3.80005ZM10 1.80005V3.30005H11V1.80005H10ZM12.1 14.5C12.6523 14.5 13.1 14.0523 13.1 13.5H12.1H12.1V14.5ZM2.9 13.5C2.9 14.0523 3.34771 14.5 3.9 14.5V13.5V13.5H2.9Z" fill="#6F7485"/>
</svg>
