<svg width="24" height="24" viewBox="0 0 24 24" fill="none" xmlns="http://www.w3.org/2000/svg">
<g clip-path="url(#clip0_5034_187890)">
<path d="M24 12C24 5.37257 18.6274 0 12 0C5.37257 0 0 5.37257 0 12C0 17.9893 4.38857 22.9543 10.125 23.8543V15.4689H7.07786V12H10.125V9.35614C10.125 6.34886 11.9164 4.68771 14.6576 4.68771C15.9707 4.68771 17.3439 4.92171 17.3439 4.92171V7.875H15.831C14.34 7.875 13.875 8.80028 13.875 9.74914V12H17.2033L16.671 15.4689H13.875V23.8543C19.6119 22.9543 24 17.9893 24 12Z" fill="#1877F2"/>
</g>
<defs>
<clipPath id="clip0_5034_187890">
<rect width="24" height="24" fill="white"/>
</clipPath>
</defs>
</svg>
