<svg width="24" height="24" viewBox="0 0 24 24" fill="none" xmlns="http://www.w3.org/2000/svg">
<g clip-path="url(#clip0_5169_5083)">
<path d="M19.3558 0.923096H4.64425C2.59779 0.923096 0.923096 2.59779 0.923096 4.64425V19.3558C0.923096 21.4023 2.59779 23.0769 4.64425 23.0769H19.3558C21.4023 23.0769 23.0769 21.4023 23.0769 19.3558V4.64425C23.0769 2.59779 21.4023 0.923096 19.3558 0.923096ZM9.23079 18.9231H6.46156V9.23079H9.23079V18.9231ZM7.84617 7.84617C7.08117 7.84617 6.46156 7.22656 6.46156 6.46156C6.46156 5.69656 7.08117 5.07694 7.84617 5.07694C8.61117 5.07694 9.23079 5.69656 9.23079 6.46156C9.23079 7.22656 8.61117 7.84617 7.84617 7.84617ZM18.9231 18.9231H16.1539V13.3846C16.1539 12.6196 15.5343 12 14.7692 12C14.0042 12 13.3846 12.6196 13.3846 13.3846V18.9231H10.6154V9.23079H13.3846V10.9498C13.9558 10.1654 14.8288 9.23079 15.8077 9.23079C17.5281 9.23079 18.9231 10.7809 18.9231 12.6923V18.9231Z" fill="#4C6AFF"/>
</g>
<defs>
<clipPath id="clip0_5169_5083">
<rect width="22.1538" height="22.1538" fill="white" transform="translate(0.923096 0.923096)"/>
</clipPath>
</defs>
</svg>
