<svg width="24" height="24" viewBox="0 0 24 24" fill="none" xmlns="http://www.w3.org/2000/svg">
<circle cx="12" cy="12" r="12" fill="#272E47"/>
<path d="M15.9744 9.41852L16.3938 9.63123L15.9744 9.37598V9.41852Z" fill="white"/>
<path d="M12.7352 15.7447C12.7445 15.67 12.7445 15.5945 12.7352 15.5198V3.14609H15.2452C15.2452 3.02454 15.2452 2.89691 15.2026 2.76929H12.0423V15.1491C12.0514 15.2218 12.0514 15.2952 12.0423 15.3679C11.9654 15.7242 11.8149 16.0604 11.6005 16.3552C11.3862 16.65 11.1127 16.8968 10.7975 17.0799C10.4823 17.2629 10.1324 17.3782 9.77014 17.4183C9.40787 17.4583 9.04123 17.4224 8.69365 17.3127C9.04117 17.5759 9.45021 17.746 9.88193 17.8068C10.3137 17.8676 10.7537 17.817 11.1605 17.66C11.5672 17.5029 11.927 17.2445 12.2058 16.9093C12.4845 16.5741 12.6731 16.1732 12.7534 15.7447H12.7352ZM4.72505 17.1668C4.46224 16.4644 4.3444 15.716 4.37864 14.9668C4.425 13.7555 4.85061 12.5894 5.5954 11.6331C6.3402 10.6767 7.36654 9.97846 8.52956 9.63684C8.84789 9.5325 9.17558 9.45923 9.50803 9.41805V9.02909C8.94229 9.01837 8.37836 9.0963 7.83672 9.26003C7.07982 9.48525 6.3769 9.86271 5.77108 10.3693C5.16526 10.8758 4.66931 11.5008 4.31365 12.2059C3.95798 12.911 3.7501 13.6813 3.70275 14.4695C3.6554 15.2578 3.76959 16.0475 4.0383 16.79C4.31449 17.5309 4.73572 18.2092 5.27733 18.7853C5.81895 19.3613 6.47005 19.8235 7.19251 20.1448C6.05981 19.4564 5.19093 18.4077 4.72505 17.1668ZM19.5966 7.13292C19.0544 7.13087 18.5178 7.02354 18.0165 6.81689C18.4961 7.12541 19.0339 7.33225 19.5966 7.42463V7.13292Z" fill="#2EF0F1"/>
<path d="M16.5458 5.83235C16.9671 6.25335 17.4667 6.58782 18.0165 6.8169C17.7443 6.63926 17.4899 6.43573 17.2569 6.20915C16.4581 5.39316 15.9885 4.31115 15.938 3.17041H15.2695C15.3767 4.17794 15.8273 5.11789 16.5458 5.83235ZM19.5967 7.44288V10.3479C18.4884 10.3627 17.3918 10.1192 16.3938 9.63685C17.5719 10.3571 18.927 10.7358 20.3077 10.7308V7.50973C20.0693 7.5061 19.8316 7.48375 19.5967 7.44288ZM15.2634 9.2722V14.827C15.2593 16.2017 14.7689 17.5305 13.879 18.5783C12.9892 19.6261 11.7573 20.3253 10.4015 20.552C9.31105 20.7342 8.19115 20.5926 7.18039 20.1448C8.35251 20.8747 9.7501 21.1534 11.1125 20.9288C12.4689 20.7008 13.7009 20.0004 14.5906 18.9516C15.4804 17.9028 15.9706 16.5731 15.9745 15.1977V9.41806C15.7355 9.2884 15.4984 9.14862 15.2634 8.99871V9.2722ZM9.01579 12.2319C8.45848 12.3235 7.94626 12.5945 7.55688 13.0036C7.16751 13.4127 6.92223 13.9377 6.85829 14.4988C6.79752 15.051 6.91143 15.6083 7.18398 16.0924C7.45654 16.5764 7.87401 16.9628 8.37765 17.1972C8.47315 17.2464 8.5728 17.2871 8.67545 17.3188C8.24996 17.0241 7.92204 16.6093 7.73362 16.1273C7.54521 15.6452 7.50487 15.118 7.61776 14.6129C7.73065 14.1078 7.99164 13.6479 8.36736 13.292C8.74307 12.936 9.21642 12.7003 9.72686 12.6148C9.88487 12.6148 10.0429 12.5723 10.2009 12.548V9.38767C9.96347 9.38235 9.72594 9.3925 9.48983 9.41806V12.1712C9.33182 12.1894 9.1738 12.2015 9.01579 12.2319Z" fill="#DA1C4E"/>
<path d="M19.5967 10.3476V7.44261C19.0339 7.35022 18.4961 7.14338 18.0165 6.83486C17.4667 6.60578 16.9671 6.27131 16.5458 5.85031C15.8223 5.12957 15.3712 4.18019 15.2695 3.16406H12.7595V15.5378C12.7688 15.6125 12.7688 15.688 12.7595 15.7627C12.6791 16.1912 12.4906 16.5921 12.2118 16.9273C11.9331 17.2625 11.5732 17.5209 11.1665 17.6779C10.7598 17.835 10.3197 17.8856 9.88802 17.8248C9.4563 17.764 9.04727 17.5939 8.69974 17.3307C8.59709 17.299 8.49744 17.2583 8.40194 17.2091C7.89163 16.9779 7.46751 16.5912 7.19024 16.1043C6.91298 15.6175 6.79678 15.0554 6.85826 14.4986C6.92345 13.9385 7.16928 13.4149 7.55855 13.007C7.94782 12.5991 8.45936 12.329 9.01577 12.2377C9.17378 12.2073 9.3318 12.1952 9.48981 12.177V9.41779C9.16412 9.45417 8.8426 9.52133 8.52957 9.61834C7.36369 9.96096 6.33529 10.662 5.59022 11.6219C4.84516 12.5819 4.42126 13.7521 4.37865 14.9665C4.34442 15.7157 4.46226 16.4641 4.72507 17.1666C5.18153 18.402 6.037 19.45 7.15606 20.1445C8.16682 20.5924 9.28672 20.7339 10.3771 20.5517C11.733 20.325 12.9649 19.6259 13.8547 18.5781C14.7446 17.5303 15.235 16.2014 15.2391 14.8267V9.02883C15.4782 9.18279 15.7152 9.32257 15.9502 9.44817V9.40563L16.3695 9.66089C17.3769 10.1386 18.4821 10.3738 19.5967 10.3476Z" fill="white"/>
</svg>
