<svg width="24" height="24" viewBox="0 0 24 24" fill="none" xmlns="http://www.w3.org/2000/svg">
<g clip-path="url(#clip0_5034_187886)">
<path d="M12 0C5.37262 0 0 5.37262 0 12C0 18.6274 5.37262 24 12 24C18.6274 24 24 18.6274 24 12C24 5.37258 18.6274 0 12 0ZM19.8847 10.4672C18.3353 10.4846 16.8892 10.0163 15.6152 9.14923V15.2364C15.6152 17.9418 13.7683 20.2657 11.1497 20.8727C7.57712 21.6877 4.55533 19.1037 4.17381 16.0168C3.77493 12.9299 5.74189 10.2244 8.75947 9.61742C9.3491 9.49605 10.2097 9.49605 10.6917 9.6001V12.8604C10.554 12.8257 10.4222 12.7911 10.2835 12.7737C9.1042 12.5656 7.96354 13.1552 7.49528 14.2305C7.02709 15.3058 7.34113 16.5544 8.29504 17.2828C9.09277 17.9071 9.97826 17.9937 10.88 17.5775C11.7818 17.1787 12.2624 16.4504 12.3664 15.4618C12.3838 15.3231 12.3788 15.167 12.3788 15.0109V3.30481C12.3788 2.97534 12.3898 2.97909 12.7193 2.97909H15.3034C15.4941 2.97909 15.5635 3.01187 15.5809 3.23736C15.7196 5.24908 17.2473 6.96504 19.2069 7.22513C19.4151 7.25981 19.6438 7.2762 19.8848 7.29355L19.8847 10.4672Z" fill="#6F7485"/>
</g>
<defs>
<clipPath id="clip0_5034_187886">
<rect width="24" height="24" fill="white"/>
</clipPath>
</defs>
</svg>
