<svg width="24" height="24" viewBox="0 0 24 24" fill="none" xmlns="http://www.w3.org/2000/svg">
<g clip-path="url(#clip0_5034_187871)">
<path d="M23.0347 5.14111C22.2053 5.50629 21.3267 5.74733 20.427 5.8565C21.3742 5.28719 22.0834 4.39438 22.4236 3.34296C21.5458 3.85527 20.5729 4.22819 19.5372 4.43588C18.8539 3.7052 17.9484 3.22058 16.9615 3.05727C15.9745 2.89396 14.9612 3.0611 14.079 3.53273C13.1967 4.00437 12.4949 4.75411 12.0825 5.66553C11.67 6.57696 11.5701 7.59905 11.7981 8.57311C8.02272 8.39496 4.67657 6.58204 2.43719 3.84142C2.02992 4.53356 1.81749 5.32298 1.82242 6.12604C1.82242 7.7045 2.62549 9.09188 3.84211 9.90696C3.12105 9.88401 2.41593 9.68905 1.78549 9.33834V9.39465C1.78508 10.4436 2.14759 11.4604 2.8115 12.2726C3.47541 13.0847 4.39984 13.6422 5.42796 13.8503C4.76177 14.0288 4.06403 14.0557 3.38611 13.9288C3.67803 14.8315 4.24441 15.6206 5.00625 16.186C5.76808 16.7514 6.68739 17.065 7.63595 17.083C6.02933 18.3438 4.04561 19.0281 2.00334 19.026C1.64334 19.026 1.28426 19.0048 0.92334 18.9642C3.00553 20.2974 5.42658 21.0051 7.89903 21.0033C16.2566 21.0033 20.8212 14.0839 20.8212 8.09311C20.8212 7.90019 20.8212 7.70542 20.8073 7.51157C21.699 6.86989 22.4682 6.07324 23.0781 5.15957L23.0347 5.14111Z" fill="#6F7485"/>
</g>
<defs>
<clipPath id="clip0_5034_187871">
<rect width="22.1538" height="22.1538" fill="white" transform="translate(0.923096 0.923096)"/>
</clipPath>
</defs>
</svg>
