<svg width="24" height="24" viewBox="0 0 24 24" fill="none" xmlns="http://www.w3.org/2000/svg">
<path d="M16.7724 8.83961C16.9305 8.83961 17.0885 8.84496 17.2439 8.853C16.5902 5.4053 13.0032 2.76929 8.67418 2.76929C3.88436 2.76929 0 6.00001 0 9.98616C0 12.1587 1.16799 14.117 2.99766 15.4403C3.07312 15.4936 3.13467 15.5643 3.17709 15.6463C3.21952 15.7284 3.24159 15.8194 3.24143 15.9118C3.24143 15.9761 3.22804 16.0351 3.21197 16.0967C3.06463 16.6405 2.83157 17.5111 2.82085 17.5513C2.8021 17.6209 2.77531 17.6906 2.77531 17.7629C2.77531 17.921 2.9039 18.0522 3.06463 18.0522C3.12624 18.0522 3.17714 18.0281 3.23072 17.9987L5.13004 16.903C5.27202 16.82 5.42471 16.7691 5.5908 16.7691C5.67653 16.7691 5.76225 16.7825 5.84529 16.8066C6.732 17.0611 7.68836 17.203 8.67686 17.203C8.83759 17.203 8.99565 17.2004 9.1537 17.1923C8.9635 16.6298 8.8617 16.0377 8.8617 15.4243C8.8617 11.7864 12.4032 8.83961 16.7724 8.83961ZM11.5674 6.52238C12.2049 6.52238 12.7246 7.03941 12.7246 7.67698C12.7246 8.31455 12.2076 8.83157 11.5674 8.83157C10.9298 8.83157 10.4101 8.31455 10.4101 7.67698C10.4101 7.03941 10.9298 6.52238 11.5674 6.52238ZM5.78368 8.83157C5.14611 8.83157 4.62641 8.31455 4.62641 7.67698C4.62641 7.03941 5.14343 6.52238 5.78368 6.52238C6.42393 6.52238 6.94095 7.03941 6.94095 7.67698C6.94095 8.31455 6.42125 8.83157 5.78368 8.83157ZM21.5033 19.965C23.0276 18.8613 24 17.2325 24 15.4189C24 12.0971 20.7639 9.40485 16.7697 9.40485C12.7782 9.40485 9.53946 12.0971 9.53946 15.4189C9.53946 18.7407 12.7755 21.433 16.7697 21.433C17.5948 21.433 18.3931 21.3151 19.1298 21.1035C19.1995 21.082 19.2691 21.0713 19.3414 21.0713C19.4807 21.0713 19.6067 21.1142 19.7245 21.1812L21.3077 22.092C21.3533 22.1188 21.3961 22.1375 21.447 22.1375C21.4788 22.1378 21.5103 22.1318 21.5397 22.1198C21.5691 22.1078 21.5959 22.0902 21.6185 22.0679C21.6408 22.0453 21.6585 22.0185 21.6704 21.9891C21.6824 21.9597 21.6884 21.9282 21.6881 21.8964C21.6881 21.8375 21.664 21.7786 21.6506 21.7196C21.6426 21.6875 21.447 20.9615 21.3238 20.5061C21.3104 20.4552 21.2997 20.4043 21.2997 20.3534C21.3024 20.1953 21.3827 20.0534 21.5033 19.965ZM14.3641 14.4599C13.831 14.4599 13.3997 14.0286 13.3997 13.4982C13.3997 12.9677 13.831 12.5364 14.3641 12.5364C14.8972 12.5364 15.3285 12.9677 15.3285 13.4982C15.3285 14.0286 14.8945 14.4599 14.3641 14.4599ZM19.1834 14.4599C18.6503 14.4599 18.219 14.0286 18.219 13.4982C18.219 12.9677 18.6503 12.5364 19.1834 12.5364C19.7165 12.5364 20.1478 12.9677 20.1478 13.4982C20.1465 13.7533 20.0444 13.9976 19.8638 14.1777C19.6831 14.3579 19.4385 14.4593 19.1834 14.4599Z" fill="#0FD683"/>
</svg>
