<svg width="24" height="24" viewBox="0 0 24 24" fill="none" xmlns="http://www.w3.org/2000/svg">
<g clip-path="url(#clip0_5169_10602)">
<path d="M11.9974 0.923096H12.003C18.111 0.923096 23.0771 5.89202 23.0771 12C23.0771 18.108 18.1101 23.0769 12.003 23.0769C9.75067 23.0769 7.66083 22.4059 5.91067 21.2474L1.65252 22.608L3.03252 18.492C1.65854 16.6066 0.919858 14.333 0.923291 12C0.923291 5.89202 5.89037 0.923096 11.9974 0.923096ZM8.82852 7.01171C8.61714 6.50679 8.45652 6.4874 8.13621 6.47448C8.01452 6.46657 7.89262 6.46226 7.77067 6.46156C7.35344 6.46156 6.91775 6.5834 6.65375 6.85202C6.33529 7.17787 5.53867 7.93848 5.53867 9.50125C5.53867 11.0622 6.68052 12.5723 6.83375 12.7837C6.99437 12.9942 9.06021 16.2453 12.2661 17.5699C14.7741 18.6065 15.5181 18.5105 16.0894 18.3886C16.923 18.2096 17.9679 17.5948 18.231 16.8536C18.4941 16.1105 18.4941 15.4772 18.4174 15.3425C18.3399 15.2086 18.1285 15.132 17.8082 14.9714C17.487 14.8117 15.9288 14.0437 15.6334 13.9413C15.3445 13.8333 15.0694 13.8711 14.8516 14.1785C14.5433 14.6068 14.2424 15.0425 13.9978 15.3046C13.8058 15.5096 13.491 15.5354 13.2288 15.4265C12.8762 15.2788 11.8885 14.9336 10.6691 13.8517C9.72667 13.0136 9.08514 11.9705 8.8996 11.6576C8.71314 11.3372 8.88021 11.1517 9.02791 10.9791C9.1876 10.7806 9.34175 10.6403 9.50237 10.4548C9.66298 10.2692 9.7516 10.1733 9.85498 9.9554C9.9639 9.74402 9.88729 9.52617 9.80975 9.36648C9.73314 9.20679 9.0916 7.64494 8.82852 7.01263V7.01171Z" fill="#25D366"/>
</g>
<defs>
<clipPath id="clip0_5169_10602">
<rect width="22.1538" height="22.1538" fill="white" transform="translate(0.923065 0.923096)"/>
</clipPath>
</defs>
</svg>
