<svg width="16" height="16" viewBox="0 0 16 16" fill="none" xmlns="http://www.w3.org/2000/svg">
<path fill-rule="evenodd" clip-rule="evenodd" d="M11.4424 1.17574C11.6767 0.941421 12.0566 0.941422 12.2909 1.17574L14.306 3.19082C14.4613 3.21286 14.6109 3.28359 14.7303 3.403C15.0232 3.6959 15.0232 4.17077 14.7303 4.46366L12.397 6.797C12.1041 7.08989 11.6292 7.08989 11.3363 6.797C11.0434 6.5041 11.0434 6.02923 11.3363 5.73634L12.4412 4.63149C12.0602 4.71628 11.6764 4.84993 11.3132 5.00832C10.6874 5.28116 10.1677 5.60755 9.89334 5.81333C9.62824 6.01216 9.25216 5.95843 9.05334 5.69333C8.85452 5.42824 8.90824 5.05216 9.17334 4.85333C9.52119 4.59244 10.1215 4.21884 10.8335 3.90835C11.4074 3.65809 12.0839 3.43562 12.7785 3.36041L11.4424 2.02426C11.2081 1.78995 11.2081 1.41005 11.4424 1.17574ZM5.21482 3.80423C4.00316 3.1931 2.57907 3.05997 1.64605 3.13174C1.31565 3.15716 1.02721 2.90992 1.0018 2.57953C0.976381 2.24913 1.22362 1.96069 1.55401 1.93528C2.64321 1.85149 4.29911 1.99837 5.75522 2.7328C7.2414 3.48239 8.51979 4.85106 8.73021 7.13849C8.8428 8.13399 9.69239 10.1621 12.2393 10.9666L11.3363 10.0637C11.0434 9.77077 11.0434 9.2959 11.3363 9.003C11.6292 8.71011 12.1041 8.71011 12.397 9.003L14.7303 11.3363C15.0232 11.6292 15.0232 12.1041 14.7303 12.397L12.397 14.7303C12.1041 15.0232 11.6292 15.0232 11.3363 14.7303C11.0434 14.4374 11.0434 13.9626 11.3363 13.6697L12.6859 12.3201C9.01076 11.5736 7.70722 8.77358 7.53771 7.27246L7.53581 7.2545C7.37082 5.43969 6.39481 4.39938 5.21482 3.80423ZM7.42285 9.90958C7.73052 10.0326 7.88017 10.3818 7.7571 10.6895C7.27829 11.8865 6.03441 12.5435 4.88346 12.9057C3.6998 13.2781 2.42337 13.4 1.60003 13.4C1.26866 13.4 1.00003 13.1314 1.00003 12.8C1.00003 12.4686 1.26866 12.2 1.60003 12.2C2.33224 12.2 3.48247 12.0885 4.52325 11.761C5.59674 11.4232 6.37507 10.9135 6.64293 10.2438C6.76599 9.93616 7.11518 9.78651 7.42285 9.90958ZM1.60003 7.06667C1.26866 7.06667 1.00003 7.3353 1.00003 7.66667C1.00003 7.99804 1.26866 8.26667 1.60003 8.26667H4.40002C4.73139 8.26667 5.00002 7.99804 5.00002 7.66667C5.00002 7.3353 4.73139 7.06667 4.40002 7.06667H1.60003Z" fill="#4C6AFF"/>
</svg>
