<svg width="14" height="12" viewBox="0 0 14 12" fill="none" xmlns="http://www.w3.org/2000/svg">
<path fill-rule="evenodd" clip-rule="evenodd" d="M1.33333 0C0.596954 0 0 0.596954 0 1.33333V10.6667C0 11.403 0.596954 12 1.33333 12H12.6667C13.403 12 14 11.403 14 10.6667V1.33333C14 0.596954 13.403 0 12.6667 0H1.33333ZM3.69209 2.9387C3.47414 2.74056 3.13684 2.75662 2.9387 2.97457C2.74056 3.19253 2.75662 3.52983 2.97457 3.72797L5.74434 6.24594C6.45633 6.8932 7.54367 6.8932 8.25566 6.24594L11.0254 3.72797C11.2434 3.52983 11.2594 3.19253 11.0613 2.97457C10.8632 2.75662 10.5259 2.74056 10.3079 2.9387L7.53814 5.45667C7.233 5.73407 6.767 5.73407 6.46186 5.45667L3.69209 2.9387Z" fill="#626E85"/>
</svg>
