<svg width="16" height="16" viewBox="0 0 16 16" fill="none" xmlns="http://www.w3.org/2000/svg">
<path d="M13.9867 4.87898C12.86 2.72217 10.6019 1.25 8 1.25C5.39753 1.25 3.13905 2.72279 2.01259 4.88036M2.01251 11.1195C3.13895 13.2771 5.39747 14.75 8 14.75C10.6025 14.75 12.861 13.2771 13.9875 11.1195" stroke="#6F7485" stroke-linecap="round" stroke-linejoin="round"/>
<path d="M0.714233 6.6001L1.45939 9.45201C1.47161 9.4988 1.53652 9.50271 1.55427 9.45773L2.68216 6.6001L3.73504 9.45073C3.75199 9.49665 3.81799 9.49337 3.83033 9.44601L4.57138 6.6001" stroke="#6F7485" stroke-linecap="round" stroke-linejoin="round"/>
<path d="M6.07141 6.6001L6.81657 9.45201C6.82879 9.4988 6.8937 9.50271 6.91145 9.45773L8.03934 6.6001L9.09222 9.45073C9.10917 9.49665 9.17517 9.49337 9.18751 9.44601L9.92855 6.6001" stroke="#6F7485" stroke-linecap="round" stroke-linejoin="round"/>
<path d="M11.4286 6.6001L12.1737 9.45201C12.186 9.4988 12.2509 9.50271 12.2686 9.45773L13.3965 6.6001L14.4494 9.45073C14.4664 9.49665 14.5324 9.49337 14.5447 9.44601L15.2857 6.6001" stroke="#6F7485" stroke-linecap="round" stroke-linejoin="round"/>
</svg>
