<svg width="16" height="16" viewBox="0 0 16 16" fill="none" xmlns="http://www.w3.org/2000/svg">
<path d="M13 13H2.5C2.22386 13 2 12.7761 2 12.5V2.5C2 2.22386 2.22386 2 2.5 2H12.5C12.7761 2 13 2.22386 13 2.5V4.5" stroke="#6F7485"/>
<path d="M8.94472 6.10988H10.038C10.038 6.10988 10.038 6.5384 10.038 6.92297V9.86769C10.038 10.2248 10.038 10.6808 10.038 10.6808H8.94472C8.94472 10.6808 8.94472 10.2468 8.94472 9.86769V8.80187H7.09328V9.86769C7.09328 10.2248 7.09328 10.6808 7.09328 10.6808H6C6 10.6808 6 10.2523 6 9.86769V6.92297C6 6.54389 6 6.10988 6 6.10988H7.09328C7.09328 6.10988 7.09328 6.58235 7.09328 6.92297V7.83495H8.94472V6.92297C8.94472 6.54389 8.94472 6.10988 8.94472 6.10988Z" fill="#6F7485"/>
<path d="M10.6312 9.30182L11.7739 9.19194C11.7959 9.38972 11.8344 9.48861 11.9168 9.59849C12.0486 9.7633 12.2794 9.8567 12.5596 9.8567C12.9826 9.8567 13.2353 9.66991 13.2353 9.36225C13.2353 9.19194 13.1474 9.0436 13.0046 8.97768C12.8892 8.92274 12.7518 8.88428 12.1805 8.75243C11.675 8.64255 11.4992 8.57663 11.296 8.43378C10.9499 8.19205 10.7631 7.82397 10.7631 7.37896C10.7631 6.53291 11.4443 6 12.5266 6C13.2243 6 13.7572 6.21426 14.0539 6.6263C14.1912 6.8076 14.2572 6.97241 14.3286 7.28557L13.1639 7.41192C13.098 7.05482 12.9002 6.90649 12.4826 6.90649C12.1475 6.90649 11.9003 7.08779 11.9003 7.3405C11.9003 7.49433 11.9827 7.6097 12.1585 7.69211C12.2684 7.74156 12.2684 7.74156 12.9167 7.87341C13.3342 7.96131 13.5979 8.05471 13.8067 8.18656C14.2022 8.43378 14.4 8.80187 14.4 9.30731C14.4 9.71935 14.2681 10.071 14.0154 10.3182C13.6968 10.6258 13.2133 10.7852 12.5705 10.7852C12.1036 10.7852 11.6421 10.6863 11.3454 10.516C11.0707 10.3621 10.8674 10.1259 10.7521 9.81275C10.6971 9.68089 10.6697 9.55453 10.6312 9.30182Z" fill="#6F7485"/>
</svg>
