<svg width="20" height="20" viewBox="0 0 20 20" fill="none" xmlns="http://www.w3.org/2000/svg">
<path d="M16.2908 9.16428C15.9118 8.31093 15.3607 7.54496 14.6722 6.91428L14.1036 6.39285C14.0844 6.37551 14.0611 6.36318 14.0359 6.35695C14.0108 6.35072 13.9845 6.35079 13.9593 6.35714C13.9342 6.36349 13.911 6.37594 13.8918 6.39338C13.8726 6.41082 13.858 6.43272 13.8493 6.45714L13.5958 7.18571C13.4379 7.64285 13.1465 8.10928 12.7343 8.56857C12.7135 8.59107 12.6849 8.60485 12.6543 8.60714C12.6391 8.60865 12.6236 8.60688 12.6091 8.60195C12.5946 8.59702 12.5813 8.58905 12.5701 8.57857C12.5568 8.56691 12.5464 8.55232 12.5397 8.53596C12.533 8.5196 12.5302 8.50191 12.5315 8.48428C12.6029 7.30857 12.2522 5.98214 11.4822 4.53928C10.8458 3.33928 9.96077 2.40428 8.85577 1.75214L8.04862 1.27714C8.02427 1.26339 7.99669 1.25639 7.96873 1.25686C7.94076 1.25733 7.91343 1.26525 7.88956 1.27981C7.86568 1.29437 7.84612 1.31504 7.8329 1.33968C7.81967 1.36432 7.81327 1.39205 7.81434 1.42L7.85719 2.35714C7.88648 2.99785 7.81219 3.56428 7.63648 4.03571C7.42073 4.61334 7.11056 5.15113 6.71862 5.62714C6.44148 5.96285 6.13077 6.26571 5.79077 6.52714C4.96724 7.16048 4.29767 7.97193 3.83219 8.90071C3.39754 9.77787 3.15763 10.7386 3.1289 11.7172C3.10018 12.6957 3.28331 13.6688 3.66577 14.57C4.36872 16.2078 5.68131 17.5078 7.32577 18.195C8.17245 18.5504 9.08178 18.7326 10.0001 18.7307C10.9178 18.7323 11.8267 18.5509 12.6736 18.1971C13.49 17.8575 14.2324 17.3621 14.8593 16.7386C15.4986 16.1087 16.0061 15.3579 16.3522 14.5298C16.6982 13.7018 16.876 12.8132 16.8751 11.9157C16.8751 10.9629 16.6801 10.0371 16.2908 9.16428Z" fill="#FE5B4C"/>
</svg>
