<svg width="16" height="16" viewBox="0 0 16 16" fill="none" xmlns="http://www.w3.org/2000/svg">
<path d="M16 0H0V16H16V0Z" fill="white" fill-opacity="0.01"/>
<path d="M16 0H0V16H16V0Z" fill="white" fill-opacity="0.01"/>
<path d="M14.5 8C14.5 11.5899 11.5899 14.5 8 14.5C4.41015 14.5 1.5 11.5899 1.5 8C1.5 4.41015 4.41015 1.5 8 1.5C11.5899 1.5 14.5 4.41015 14.5 8Z" stroke="#7D8085" stroke-linecap="round" stroke-linejoin="round"/>
<path d="M11.1808 9C10.756 10.3524 9.4926 11.3333 8.00007 11.3333C6.50754 11.3333 5.2441 10.3524 4.81934 9V11" stroke="#7D8085" stroke-linecap="square" stroke-linejoin="round"/>
<path d="M11.1808 5.00008V7.00008C10.756 5.64771 9.4926 4.66675 8.00007 4.66675C6.50754 4.66675 5.2441 5.64771 4.81934 7.00008" stroke="#7D8085" stroke-linecap="square" stroke-linejoin="round"/>
</svg>
