<svg width="16" height="16" viewBox="0 0 16 16" fill="none" xmlns="http://www.w3.org/2000/svg">
<path d="M10.3589 0.777233L11.2885 2.87146L11.4015 3.12591L11.6773 3.16391L13.9471 3.47673L13.4682 5.71741L13.41 5.98966L13.6108 6.18251L15.2632 7.76975L13.5588 9.30102L13.3517 9.48707L13.4008 9.7611L13.8047 12.0165L11.5257 12.2535L11.2488 12.2823L11.1274 12.5328L10.1285 14.5949L8.14546 13.447L7.90452 13.3075L7.65906 13.4389L5.63887 14.52L4.70925 12.4258L4.59631 12.1713L4.32052 12.1333L2.0507 11.8205L2.52958 9.57982L2.58776 9.30757L2.38699 9.11472L0.73453 7.52747L2.43899 5.99621L2.64608 5.81016L2.59701 5.53612L2.1931 3.28073L4.47209 3.04376L4.74899 3.01497L4.87037 2.76443L5.86929 0.702365L7.85232 1.85021L8.09326 1.98968L8.33871 1.85832L10.3589 0.777233Z" stroke="#7D8085"/>
<path d="M5.34668 7.21606L7.468 9.33738L11.0035 5.80185" stroke="#7D8085"/>
</svg>
