<svg width="15" height="14" viewBox="0 0 15 14" fill="none" xmlns="http://www.w3.org/2000/svg">
<path fill-rule="evenodd" clip-rule="evenodd" d="M14.3333 6.66667C14.3333 10.3486 11.1247 13.3333 7.16667 13.3333C6.20731 13.3333 5.29198 13.158 4.45569 12.8399L1.84964 13.228C1.61281 13.2632 1.41715 13.0447 1.47823 12.8132L1.90556 11.1936C0.722836 10.0047 0 8.41423 0 6.66667C0 2.98477 3.20863 0 7.16667 0C11.1247 0 14.3333 2.98477 14.3333 6.66667ZM4.33248 5.45984C4.41116 5.20925 4.64848 5.04287 4.91088 5.05432C5.29143 5.07094 5.55282 5.44377 5.43871 5.80718L4.86809 7.62454C4.78941 7.87513 4.55209 8.04152 4.28969 8.03006C3.90914 8.01344 3.64775 7.64062 3.76186 7.2772L4.33248 5.45984ZM10.2442 5.05432C9.98181 5.04287 9.74449 5.20925 9.66581 5.45984L9.09519 7.2772C8.98109 7.64062 9.24248 8.01344 9.62302 8.03006C9.88542 8.04152 10.1227 7.87513 10.2014 7.62454L10.772 5.80718C10.8862 5.44377 10.6248 5.07094 10.2442 5.05432ZM6.99915 5.45984C7.07783 5.20925 7.31515 5.04287 7.57755 5.05432C7.9581 5.07094 8.21949 5.44377 8.10538 5.80718L7.53476 7.62454C7.45608 7.87513 7.21876 8.04152 6.95635 8.03006C6.57581 8.01344 6.31442 7.64062 6.42853 7.2772L6.99915 5.45984Z" fill="#626E85"/>
</svg>
