<svg width="12" height="12" viewBox="0 0 12 12" fill="none" xmlns="http://www.w3.org/2000/svg">
<path d="M11.1 0H0.9C0.4 0 0 0.4 0 0.85V11.1C0 11.55 0.4 11.95 0.9 11.95H11.1C11.6 11.95 12 11.55 12 11.1V0.85C12 0.4 11.6 0 11.1 0ZM3.55 10.2H1.8V4.5H3.55V10.2ZM2.7 3.7C2.15 3.7 1.65 3.25 1.65 2.65C1.65 2.05 2.1 1.6 2.7 1.6C3.25 1.6 3.75 2.05 3.75 2.65C3.75 3.25 3.25 3.7 2.7 3.7ZM10.25 10.15H8.5V7.35C8.5 6.7 8.5 5.8 7.55 5.8C6.6 5.8 6.5 6.55 6.5 7.25V10.1H4.75V4.5H6.4V5.25H6.45C6.7 4.8 7.3 4.3 8.15 4.3C9.95 4.3 10.3 5.5 10.3 7.05V10.15H10.25Z" fill="#7D8085"/>
</svg>
