<svg width="25" height="16" viewBox="0 0 25 16" fill="none" xmlns="http://www.w3.org/2000/svg">
<rect width="25" height="16" rx="8" fill="#FFEFED"/>
<path d="M4.56 5.288V11H5.432V6.704H5.464L8.416 11H9.264V5.288H8.392V9.536H8.36L5.44 5.288H4.56ZM12.0601 6.752C11.4521 6.752 10.9641 6.96 10.6121 7.384C10.2441 7.8 10.0681 8.312 10.0681 8.928C10.0681 9.608 10.2601 10.144 10.6441 10.544C10.9961 10.92 11.4841 11.112 12.0921 11.112C12.6441 11.112 13.1001 10.952 13.4601 10.64C13.7481 10.384 13.9321 10.056 14.0281 9.672H13.1801C13.0681 9.912 12.9481 10.096 12.8041 10.208C12.6201 10.344 12.3801 10.416 12.0841 10.416C11.7481 10.416 11.4841 10.304 11.2921 10.096C11.1001 9.88 10.9961 9.568 10.9641 9.168H14.1001C14.0921 8.432 13.9241 7.856 13.6041 7.44C13.2521 6.976 12.7321 6.752 12.0601 6.752ZM12.0841 7.448C12.7561 7.448 13.1321 7.808 13.2121 8.528H10.9801C11.0281 8.176 11.1481 7.912 11.3241 7.728C11.5161 7.536 11.7641 7.448 12.0841 7.448ZM14.3838 6.864L15.7838 11H16.5678L17.4318 7.904L18.2958 11H19.0798L20.4798 6.864H19.5438L18.6718 9.992L17.8238 6.864H17.0398L16.1918 9.992L15.3198 6.864H14.3838Z" fill="#FE5B4C"/>
</svg>
