<svg width="16" height="16" viewBox="0 0 16 16" fill="none" xmlns="http://www.w3.org/2000/svg">
<circle cx="8" cy="8" r="6.5" stroke="#3F465C"/>
<path d="M8 8.5V8C7.72386 8 7.5 8.22386 7.5 8.5H8ZM5.5 6.5C5.5 6.77614 5.72386 7 6 7C6.27614 7 6.5 6.77614 6.5 6.5H5.5ZM7.5 9.70001C7.5 9.97615 7.72386 10.2 8 10.2C8.27614 10.2 8.5 9.97615 8.5 9.70001H7.5ZM9.5 6.5C9.5 7.32843 8.82843 8 8 8V9C9.38071 9 10.5 7.88071 10.5 6.5H9.5ZM6.5 6.5C6.5 5.67157 7.17157 5 8 5V4C6.61929 4 5.5 5.11929 5.5 6.5H6.5ZM8 5C8.82843 5 9.5 5.67157 9.5 6.5H10.5C10.5 5.11929 9.38071 4 8 4V5ZM7.5 8.5V9.70001H8.5V8.5H7.5Z" fill="#3F465C"/>
<path d="M8.59988 11.8002C8.59988 12.1316 8.33125 12.4002 7.99988 12.4002C7.66851 12.4002 7.39988 12.1316 7.39988 11.8002C7.39988 11.4688 7.66851 11.2002 7.99988 11.2002C8.33125 11.2002 8.59988 11.4688 8.59988 11.8002Z" fill="#3F465C"/>
</svg>
