<svg width="14" height="14" viewBox="0 0 14 14" fill="none" xmlns="http://www.w3.org/2000/svg">
<path fill-rule="evenodd" clip-rule="evenodd" d="M9.23306 3.45835C7.63841 1.86371 5.05299 1.86371 3.45835 3.45835C1.86371 5.05299 1.86371 7.63841 3.45835 9.23306C5.05299 10.8277 7.63841 10.8277 9.23306 9.23306C10.8277 7.63841 10.8277 5.05299 9.23306 3.45835ZM2.63339 2.63339C4.68364 0.58314 8.00776 0.58314 10.058 2.63339C11.9688 4.54422 12.0988 7.56156 10.4478 9.62288L12.5329 11.7079L11.7079 12.5329L9.62288 10.4478C7.56156 12.0988 4.54422 11.9688 2.63339 10.058C0.58314 8.00776 0.58314 4.68364 2.63339 2.63339Z" fill="white"/>
</svg>
