<svg width="16" height="14" viewBox="0 0 16 14" fill="none" xmlns="http://www.w3.org/2000/svg">
<mask id="path-1-inside-1_3278_20939" fill="white">
<path d="M4.21028 8.95004L1.14637 5.96347C0.849614 5.6742 1.01337 5.17021 1.42348 5.11062L5.65769 4.49535L7.55129 0.658495C7.73469 0.286872 8.26462 0.286871 8.44802 0.658494L10.3416 4.49535L14.5758 5.11062C14.9859 5.17022 15.1497 5.6742 14.8529 5.96347L11.789 8.95004L12.5123 13.1671C12.5824 13.5756 12.1537 13.8871 11.7869 13.6942L7.99966 11.7032L4.21247 13.6942C3.84566 13.8871 3.41694 13.5756 3.48699 13.1671L4.21028 8.95004Z"/>
</mask>
<path d="M1.14637 5.96347L0.448361 6.67955L1.14637 5.96347ZM4.21028 8.95004L5.19589 9.11908L5.28476 8.60092L4.90829 8.23395L4.21028 8.95004ZM5.65769 4.49535L5.80149 5.48496L6.32175 5.40936L6.55442 4.93792L5.65769 4.49535ZM1.42348 5.11062L1.27968 4.12102L1.42348 5.11062ZM7.55129 0.658495L8.44802 1.10106L8.44802 1.10106L7.55129 0.658495ZM10.3416 4.49535L9.44489 4.93792L9.67756 5.40936L10.1978 5.48496L10.3416 4.49535ZM8.44802 0.658494L9.34476 0.215929V0.215929L8.44802 0.658494ZM14.5758 5.11062L14.7196 4.12102L14.5758 5.11062ZM11.789 8.95004L11.091 8.23395L10.7145 8.60092L10.8034 9.11909L11.789 8.95004ZM14.8529 5.96347L14.1549 5.24738L14.8529 5.96347ZM12.5123 13.1671L11.5267 13.3362V13.3362L12.5123 13.1671ZM7.99966 11.7032L8.465 10.818L7.99966 10.5734L7.53431 10.818L7.99966 11.7032ZM11.7869 13.6942L12.2522 12.8091L11.7869 13.6942ZM4.21247 13.6942L4.67782 14.5793L4.67782 14.5793L4.21247 13.6942ZM3.48699 13.1671L2.50139 12.9981L3.48699 13.1671ZM0.448361 6.67955L3.51227 9.66612L4.90829 8.23395L1.84438 5.24738L0.448361 6.67955ZM5.51389 3.50575L1.27968 4.12102L1.56728 6.10023L5.80149 5.48496L5.51389 3.50575ZM6.65455 0.21593L4.76095 4.05279L6.55442 4.93792L8.44802 1.10106L6.65455 0.21593ZM11.2384 4.05279L9.34476 0.215929L7.55129 1.10106L9.44489 4.93792L11.2384 4.05279ZM14.7196 4.12102L10.4854 3.50575L10.1978 5.48496L14.432 6.10023L14.7196 4.12102ZM12.487 9.66612L15.5509 6.67956L14.1549 5.24738L11.091 8.23395L12.487 9.66612ZM13.4979 12.9981L12.7746 8.78098L10.8034 9.11909L11.5267 13.3362L13.4979 12.9981ZM7.53431 12.5883L11.3215 14.5794L12.2522 12.8091L8.465 10.818L7.53431 12.5883ZM4.67782 14.5793L8.465 12.5883L7.53431 10.818L3.74713 12.8091L4.67782 14.5793ZM3.22467 8.78099L2.50139 12.9981L4.4726 13.3362L5.19589 9.11908L3.22467 8.78099ZM3.74713 12.8091C4.11394 12.6162 4.54266 12.9277 4.4726 13.3362L2.50139 12.9981C2.29122 14.2234 3.57737 15.1579 4.67782 14.5793L3.74713 12.8091ZM11.5267 13.3362C11.4567 12.9277 11.8854 12.6162 12.2522 12.8091L11.3215 14.5794C12.422 15.1579 13.7081 14.2234 13.4979 12.9981L11.5267 13.3362ZM14.432 6.10023C14.0219 6.04064 13.8582 5.53665 14.1549 5.24738L15.5509 6.67956C16.4412 5.81176 15.95 4.2998 14.7196 4.12102L14.432 6.10023ZM8.44802 1.10106C8.26462 1.47268 7.7347 1.47268 7.55129 1.10106L9.34476 0.215929C8.79454 -0.898944 7.20477 -0.898937 6.65455 0.21593L8.44802 1.10106ZM1.84438 5.24738C2.14114 5.53665 1.97739 6.04064 1.56728 6.10023L1.27968 4.12102C0.0493447 4.29979 -0.441911 5.81175 0.448361 6.67955L1.84438 5.24738Z" fill="#626E85" mask="url(#path-1-inside-1_3278_20939)"/>
</svg>
