<svg width="16" height="16" viewBox="0 0 16 16" fill="none" xmlns="http://www.w3.org/2000/svg">
<path d="M7 4.58788V5.32388H7.48C7.672 5.83588 7.96 6.26788 8.352 6.61988C7.824 6.83588 7.192 7.01188 6.464 7.15588L6.856 7.85188C7.736 7.66788 8.48 7.42788 9.088 7.13188C9.664 7.45188 10.384 7.65988 11.264 7.76388L11.56 7.03588C10.912 6.97188 10.352 6.84388 9.872 6.66788C10.4 6.27588 10.752 5.81188 10.936 5.27588V4.58788H7ZM8.296 5.32388H10.064C9.848 5.67588 9.52 5.97988 9.088 6.25188C8.736 5.99588 8.472 5.69188 8.296 5.32388ZM7.232 8.21988V8.97188H8.648V9.65988H6.888V10.4439H8.648V11.7639H9.48V10.4439H11.392V9.65988H9.48V8.97188H11V8.21988H9.48V7.58788H8.648V8.21988H7.232ZM5.224 4.37988L4.632 4.95588C5.2 5.37188 5.64 5.76388 5.944 6.13188L6.52 5.54788C6.16 5.16388 5.728 4.77188 5.224 4.37988ZM4.104 6.69188V7.49188H5.168V10.2999C5.168 10.4839 5.088 10.6359 4.944 10.7639L5.264 11.5159C5.8 11.1079 6.312 10.6439 6.792 10.1319L6.568 9.24388C6.36 9.46788 6.168 9.68388 5.976 9.88388V6.69188H4.104Z" fill="#6F7485"/>
<path fill-rule="evenodd" clip-rule="evenodd" d="M2 3C2 2.44772 2.44772 2 3 2H13C13.5523 2 14 2.44772 14 3V13C14 13.5523 13.5523 14 13 14H3C2.44772 14 2 13.5523 2 13V3ZM13 3L3 3V13H13V3Z" fill="#6F7485"/>
</svg>
