<svg width="16" height="16" viewBox="0 0 16 16" fill="none" xmlns="http://www.w3.org/2000/svg">
<rect width="16" height="16" rx="2" fill="#939CAD"/>
<path d="M11 1H5C2.79086 1 1 2.79086 1 5V11C1 13.2091 2.79086 15 5 15H11C13.2091 15 15 13.2091 15 11V5C15 2.79086 13.2091 1 11 1Z" fill="white" fill-opacity="0.01"/>
<path d="M13.25 13.25L12.5833 11.7917M12.5833 11.7917L10.9167 8L9.25 11.7917M12.5833 11.7917H9.25M8.58333 13.25L9.25 11.7917M5.66667 2.75L5.95833 3.625M2.75 4.20833H9.16667M3.91667 5.66667C3.91667 5.66667 4.4386 7.49276 5.74343 8.50724C7.04823 9.52174 9.16667 10.3333 9.16667 10.3333M8 4.20833C8 4.20833 7.47806 6.60508 6.17323 7.93659C4.86843 9.26811 2.75 10.3333 2.75 10.3333" stroke="white" stroke-width="1.2" stroke-linecap="round" stroke-linejoin="round"/>
</svg>
