<svg width="12" height="10" viewBox="0 0 12 10" fill="none" xmlns="http://www.w3.org/2000/svg">
<path d="M3.78202 9.99988C7.61853 10.0223 10.7575 6.84377 10.7793 2.90423C10.7793 2.87065 10.7793 2.84827 10.7793 2.81469V2.47894C11.2589 2.1208 11.673 1.68431 12 1.18068C11.5531 1.38213 11.0736 1.51643 10.5831 1.58359C11.0954 1.27021 11.4877 0.766578 11.673 0.1846C11.1935 0.475589 10.6594 0.688235 10.1144 0.800154C9.18801 -0.218308 7.62943 -0.274267 6.6376 0.688235C5.99455 1.30379 5.72207 2.22152 5.91826 3.10568C3.9455 3.00496 2.10354 2.04245 0.850136 0.464397C0.207084 1.61716 0.53406 3.0833 1.61308 3.82196C1.23161 3.81077 0.861035 3.69885 0.523161 3.50859V3.54217C0.523161 4.7397 1.3188 5.76935 2.46322 6.02676C2.10354 6.12749 1.73297 6.13868 1.3733 6.07153C1.70027 7.08999 2.6158 7.7727 3.65123 7.80627C2.77929 8.52255 1.71117 8.91427 0.588556 8.92546C0.392371 8.92546 0.196185 8.90308 0 8.8695C1.12262 9.60817 2.43052 9.99988 3.77112 9.98869" fill="#7D8085"/>
</svg>
