<svg width="38" height="52" viewBox="0 0 38 52" fill="none" xmlns="http://www.w3.org/2000/svg">
<g filter="url(#filter0_d_1992_19814)">
<circle cx="19" cy="27" r="13" fill="#FE6C5E"/>
</g>
<g filter="url(#filter1_d_1992_19814)">
<path d="M13.1666 31.292C13.1666 29.0829 14.9625 27.292 17.1716 27.292C17.4015 27.292 17.6156 27.4104 17.7374 27.6053L18.9999 29.6253L20.2624 27.6053C20.3842 27.4104 20.5983 27.292 20.8282 27.292C23.0373 27.292 24.8332 29.0829 24.8332 31.292V31.5003C24.8332 32.2367 24.2363 32.8337 23.4999 32.8337H14.4999C13.7635 32.8337 13.1666 32.2367 13.1666 31.5003V31.292Z" fill="white"/>
<circle cx="18.9999" cy="23.792" r="2.625" fill="white"/>
</g>
<defs>
<filter id="filter0_d_1992_19814" x="0" y="12" width="38" height="38" filterUnits="userSpaceOnUse" color-interpolation-filters="sRGB">
<feFlood flood-opacity="0" result="BackgroundImageFix"/>
<feColorMatrix in="SourceAlpha" type="matrix" values="0 0 0 0 0 0 0 0 0 0 0 0 0 0 0 0 0 0 127 0" result="hardAlpha"/>
<feOffset dy="4"/>
<feGaussianBlur stdDeviation="3"/>
<feComposite in2="hardAlpha" operator="out"/>
<feColorMatrix type="matrix" values="0 0 0 0 1 0 0 0 0 0.262745 0 0 0 0 0.192157 0 0 0 0.2 0"/>
<feBlend mode="normal" in2="BackgroundImageFix" result="effect1_dropShadow_1992_19814"/>
<feBlend mode="normal" in="SourceGraphic" in2="effect1_dropShadow_1992_19814" result="shape"/>
</filter>
<filter id="filter1_d_1992_19814" x="6" y="16" width="26" height="26" filterUnits="userSpaceOnUse" color-interpolation-filters="sRGB">
<feFlood flood-opacity="0" result="BackgroundImageFix"/>
<feColorMatrix in="SourceAlpha" type="matrix" values="0 0 0 0 0 0 0 0 0 0 0 0 0 0 0 0 0 0 127 0" result="hardAlpha"/>
<feOffset dy="2"/>
<feGaussianBlur stdDeviation="3"/>
<feComposite in2="hardAlpha" operator="out"/>
<feColorMatrix type="matrix" values="0 0 0 0 1 0 0 0 0 0.261743 0 0 0 0 0.190952 0 0 0 1 0"/>
<feBlend mode="normal" in2="BackgroundImageFix" result="effect1_dropShadow_1992_19814"/>
<feBlend mode="normal" in="SourceGraphic" in2="effect1_dropShadow_1992_19814" result="shape"/>
</filter>
</defs>
</svg>
