<svg width="38" height="52" viewBox="0 0 38 52" fill="none" xmlns="http://www.w3.org/2000/svg">
<g filter="url(#filter0_d_1992_19748)">
<circle cx="19" cy="27" r="13" fill="#FFB54C"/>
</g>
<g filter="url(#filter1_d_1992_19748)">
<path fill-rule="evenodd" clip-rule="evenodd" d="M17 31C17 31.5523 17.4477 32 18 32H21.0858C21.351 32 21.6054 32.1054 21.7929 32.2929L23.0732 33.5732C23.2307 33.7307 23.5 33.6192 23.5 33.3964V32.25C23.5 32.1119 23.6119 32 23.75 32H24C24.5523 32 25 31.5523 25 31V25C25 24.4477 24.5523 24 24 24V30.5C24 30.7761 23.7761 31 23.5 31H17Z" fill="white"/>
<path fill-rule="evenodd" clip-rule="evenodd" d="M17.5 30H22C22.5523 30 23 29.5523 23 29V22C23 21.4477 22.5523 21 22 21H14C13.4477 21 13 21.4477 13 22V29C13 29.5523 13.4477 30 14 30H14.25C14.3881 30 14.5 30.1119 14.5 30.25V31.3964C14.5 31.6192 14.7693 31.7307 14.9268 31.5732L16.2071 30.2929C16.3946 30.1054 16.649 30 16.9142 30H17.5Z" fill="white"/>
</g>
<defs>
<filter id="filter0_d_1992_19748" x="0" y="12" width="38" height="38" filterUnits="userSpaceOnUse" color-interpolation-filters="sRGB">
<feFlood flood-opacity="0" result="BackgroundImageFix"/>
<feColorMatrix in="SourceAlpha" type="matrix" values="0 0 0 0 0 0 0 0 0 0 0 0 0 0 0 0 0 0 127 0" result="hardAlpha"/>
<feOffset dy="4"/>
<feGaussianBlur stdDeviation="3"/>
<feComposite in2="hardAlpha" operator="out"/>
<feColorMatrix type="matrix" values="0 0 0 0 0.980392 0 0 0 0 0.611765 0 0 0 0 0.0862745 0 0 0 0.2 0"/>
<feBlend mode="normal" in2="BackgroundImageFix" result="effect1_dropShadow_1992_19748"/>
<feBlend mode="normal" in="SourceGraphic" in2="effect1_dropShadow_1992_19748" result="shape"/>
</filter>
<filter id="filter1_d_1992_19748" x="6" y="16" width="26" height="26" filterUnits="userSpaceOnUse" color-interpolation-filters="sRGB">
<feFlood flood-opacity="0" result="BackgroundImageFix"/>
<feColorMatrix in="SourceAlpha" type="matrix" values="0 0 0 0 0 0 0 0 0 0 0 0 0 0 0 0 0 0 127 0" result="hardAlpha"/>
<feOffset dy="2"/>
<feGaussianBlur stdDeviation="3"/>
<feComposite in2="hardAlpha" operator="out"/>
<feColorMatrix type="matrix" values="0 0 0 0 0.980928 0 0 0 0 0.610872 0 0 0 0 0.0857928 0 0 0 1 0"/>
<feBlend mode="normal" in2="BackgroundImageFix" result="effect1_dropShadow_1992_19748"/>
<feBlend mode="normal" in="SourceGraphic" in2="effect1_dropShadow_1992_19748" result="shape"/>
</filter>
</defs>
</svg>
