<svg width="20" height="20" viewBox="0 0 20 20" fill="none" xmlns="http://www.w3.org/2000/svg">
<path fill-rule="evenodd" clip-rule="evenodd" d="M3.0835 2.33301C2.117 2.33301 1.3335 3.11651 1.3335 4.08301V14.1663C1.3335 15.1328 2.117 15.9163 3.0835 15.9163H7.50016C8.4586 15.9163 9.23708 16.6868 9.25 17.6422V17.6663H9.25016H10.75H10.7502V17.6422C10.7631 16.6868 11.5416 15.9163 12.5 15.9163H16.9167C17.8832 15.9163 18.6667 15.1328 18.6667 14.1663V4.08301C18.6667 3.11651 17.8832 2.33301 16.9167 2.33301H13.3333C11.9571 2.33301 10.7398 3.01388 10.0001 4.05715C9.26034 3.01388 8.0431 2.33301 6.66683 2.33301H3.0835ZM10.7502 14.9271V6.41634C10.7502 6.40868 10.7501 6.40103 10.7501 6.39338C10.7624 4.97721 11.9142 3.83301 13.3333 3.83301H16.9167C17.0547 3.83301 17.1667 3.94494 17.1667 4.08301V14.1663C17.1667 14.3044 17.0547 14.4163 16.9167 14.4163H12.5C11.8557 14.4163 11.2553 14.6038 10.7502 14.9271ZM9.25006 6.39338C9.23774 4.97721 8.08591 3.83301 6.66683 3.83301H3.0835C2.94542 3.83301 2.8335 3.94494 2.8335 4.08301V14.1663C2.8335 14.3044 2.94542 14.4163 3.0835 14.4163H7.50016C8.14441 14.4163 8.74488 14.6038 9.25 14.9271V6.41634C9.25 6.40868 9.25002 6.40103 9.25006 6.39338Z" fill="url(#paint0_linear_4947_67587)"/>
<path d="M14.8538 7.0791L14.8538 3.08301" stroke="#4C6AFF" stroke-width="1.5" stroke-linecap="round"/>
<defs>
<linearGradient id="paint0_linear_4947_67587" x1="1.3335" y1="2.33301" x2="10.1438" y2="17.5833" gradientUnits="userSpaceOnUse">
<stop offset="0.00486946" stop-color="#6C728B"/>
<stop offset="1" stop-color="#6E6F8E"/>
</linearGradient>
</defs>
</svg>
