<svg width="20" height="20" viewBox="0 0 20 20" fill="none" xmlns="http://www.w3.org/2000/svg">
<mask id="path-1-inside-1_4947_67574" fill="white">
<path d="M16.75 9.56836V6.07118C16.75 5.82183 16.6568 5.58147 16.4888 5.39725L13.1099 1.69325C12.9205 1.48554 12.6523 1.36719 12.3712 1.36719H3.625C3.14175 1.36719 2.75 1.75369 2.75 2.23047V17.7695C2.75 18.2463 3.14175 18.6328 3.625 18.6328H8.875"/>
</mask>
<path d="M13.1099 1.69325L14.2181 0.682346L13.1099 1.69325ZM16.4888 5.39725L15.3806 6.40815L16.4888 5.39725ZM18.25 9.56836V6.07118H15.25V9.56836H18.25ZM17.597 4.38634L14.2181 0.682346L12.0018 2.70416L15.3806 6.40815L17.597 4.38634ZM12.3712 -0.132812H3.625V2.86719H12.3712V-0.132812ZM3.625 -0.132812C2.33246 -0.132812 1.25 0.906261 1.25 2.23047H4.25C4.25 2.60112 3.95105 2.86719 3.625 2.86719V-0.132812ZM1.25 2.23047V17.7695H4.25V2.23047H1.25ZM1.25 17.7695C1.25 19.0938 2.33247 20.1328 3.625 20.1328V17.1328C3.95103 17.1328 4.25 17.3989 4.25 17.7695H1.25ZM3.625 20.1328H8.875V17.1328H3.625V20.1328ZM14.2181 0.682346C13.7444 0.163069 13.074 -0.132812 12.3712 -0.132812V2.86719C12.2306 2.86719 12.0965 2.80801 12.0018 2.70416L14.2181 0.682346ZM18.25 6.07118C18.25 5.44779 18.0171 4.8469 17.597 4.38634L15.3806 6.40815C15.2966 6.31604 15.25 6.19586 15.25 6.07118H18.25Z" fill="url(#paint0_linear_4947_67574)" mask="url(#path-1-inside-1_4947_67574)"/>
<path d="M13.0832 17.9661L17.2498 13.7995L15.5832 12.1328L11.4165 16.2995V17.9661H13.0832Z" stroke="#4C6AFF" stroke-width="1.5" stroke-linecap="round"/>
<path d="M12.25 2.76562V6.41546H15.3239" stroke="#6E708E" stroke-width="1.66667" stroke-linecap="square" stroke-linejoin="round"/>
<defs>
<linearGradient id="paint0_linear_4947_67574" x1="2.75" y1="1.36719" x2="13.9386" y2="15.2593" gradientUnits="userSpaceOnUse">
<stop offset="0.00486946" stop-color="#6C728B"/>
<stop offset="1" stop-color="#6E6F8E"/>
</linearGradient>
</defs>
</svg>
