<svg width="16" height="16" viewBox="0 0 16 16" fill="none" xmlns="http://www.w3.org/2000/svg">
<path d="M1.3335 12.334C1.3335 10.1248 3.12436 8.33398 5.3335 8.33398H10.6668C12.876 8.33398 14.6668 10.1248 14.6668 12.334V13.334C14.6668 14.0704 14.0699 14.6673 13.3335 14.6673H2.66683C1.93045 14.6673 1.3335 14.0704 1.3335 13.334V12.334Z" fill="#3C3F47"/>
<circle cx="8" cy="4.33398" r="3" fill="#3C3F47"/>
<path d="M12.3335 5.80065C12.0389 5.80065 11.8002 6.03943 11.8002 6.33398C11.8002 6.62854 12.0389 6.86732 12.3335 6.86732V5.80065ZM15.0002 6.86732C15.2947 6.86732 15.5335 6.62854 15.5335 6.33398C15.5335 6.03943 15.2947 5.80065 15.0002 5.80065V6.86732ZM12.3335 6.86732H15.0002V5.80065H12.3335V6.86732Z" fill="#3C3F47"/>
<path d="M14.1998 5C14.1998 4.70545 13.9611 4.46667 13.6665 4.46667C13.372 4.46667 13.1332 4.70545 13.1332 5L14.1998 5ZM13.1332 7.66667C13.1332 7.96122 13.372 8.2 13.6665 8.2C13.9611 8.2 14.1998 7.96122 14.1998 7.66667L13.1332 7.66667ZM13.1332 5L13.1332 7.66667L14.1998 7.66667L14.1998 5L13.1332 5Z" fill="#3C3F47"/>
</svg>
