<svg width="20" height="20" viewBox="0 0 20 20" fill="none" xmlns="http://www.w3.org/2000/svg">
<g clip-path="url(#clip0_1348_73673)">
<path fill-rule="evenodd" clip-rule="evenodd" d="M6 1.8C6 1.35817 6.35817 1 6.8 1H13.2C13.6418 1 14 1.35817 14 1.8C14 2.24183 13.6418 2.6 13.2 2.6H6.8C6.35817 2.6 6 2.24183 6 1.8ZM1 4.21797C1 3.77614 1.35817 3.41797 1.8 3.41797H18.2C18.6418 3.41797 19 3.77614 19 4.21797C19 4.6598 18.6418 5.01797 18.2 5.01797H17.0837V16.418C17.0837 17.5225 16.1882 18.418 15.0837 18.418H4.91699C3.81242 18.418 2.91699 17.5225 2.91699 16.418V5.01797H1.8C1.35817 5.01797 1 4.6598 1 4.21797ZM7 8.3C7 7.85817 7.35817 7.5 7.8 7.5C8.24183 7.5 8.6 7.85817 8.6 8.3V12.7C8.6 13.1418 8.24183 13.5 7.8 13.5C7.35817 13.5 7 13.1418 7 12.7V8.3ZM12.3 7.5C11.8582 7.5 11.5 7.85817 11.5 8.3V12.7C11.5 13.1418 11.8582 13.5 12.3 13.5C12.7418 13.5 13.1 13.1418 13.1 12.7V8.3C13.1 7.85817 12.7418 7.5 12.3 7.5Z" fill="#3C3F47"/>
</g>
<defs>
<clipPath id="clip0_1348_73673">
<rect width="20" height="20" fill="white"/>
</clipPath>
</defs>
</svg>
