<svg width="20" height="20" viewBox="0 0 20 20" fill="none" xmlns="http://www.w3.org/2000/svg">
<path d="M13.4717 2.57303L16.8428 5.94411C17.2787 6.38011 17.2787 7.08686 16.8428 7.52278L9.16501 15.2004C8.97762 15.3878 8.72967 15.5025 8.46551 15.5238L4.78485 15.8209C4.17035 15.8704 3.63201 15.4125 3.58235 14.7979C3.57743 14.7369 3.5776 14.6757 3.58268 14.6147L3.89076 10.948C3.91287 10.6852 4.02732 10.4387 4.21385 10.2522L9.10502 5.37061C9.17479 5.30084 9.26942 5.26165 9.3681 5.26165C9.46677 5.26165 9.5614 5.30084 9.63118 5.37061L12.978 8.71753C13.1014 8.84093 13.2688 8.91026 13.4433 8.91026C13.6178 8.91026 13.7852 8.84093 13.9086 8.71753C14.032 8.59412 14.1013 8.42675 14.1013 8.25224C14.1013 8.07772 14.032 7.91035 13.9086 7.78694L10.5618 4.44011C10.5272 4.40556 10.4998 4.36454 10.4811 4.31939C10.4624 4.27424 10.4528 4.22585 10.4528 4.17699C10.4528 4.12812 10.4624 4.07973 10.4811 4.03458C10.4998 3.98943 10.5272 3.94841 10.5618 3.91386L11.893 2.57303C12.3289 2.13711 13.0357 2.13711 13.4717 2.57303ZM3.33368 17.4988C3.33368 17.0846 3.66947 16.7488 4.08368 16.7488H17.3088C17.723 16.7488 18.0588 17.0846 18.0588 17.4988C18.0588 17.913 17.723 18.2488 17.3088 18.2488H4.08368C3.66947 18.2488 3.33368 17.913 3.33368 17.4988Z" fill="#3C3F47"/>
</svg>
