<svg width="20" height="20" viewBox="0 0 20 20" fill="none" xmlns="http://www.w3.org/2000/svg">
<g clip-path="url(#clip0_5003_185680)">
<path fill-rule="evenodd" clip-rule="evenodd" d="M2.00098 2.625C2.00098 2.27982 2.2808 2 2.62598 2H16.376C16.7212 2 17.001 2.27982 17.001 2.625V9.00012L9.00116 16.9999H12.0004V16.2367C12.0004 16.0852 12.0606 15.9398 12.1678 15.8327L17.805 10.1955C18.065 9.93483 18.487 9.93483 18.7476 10.1955L19.8049 11.2528C20.0656 11.5128 20.0656 11.9348 19.8049 12.1955L15.0004 16.9999H16.3848L16.376 17H15.0004L14.1678 17.8326C14.0606 17.9398 13.9152 18 13.7637 18H12.5719C12.2563 18 12.0004 17.7442 12.0004 17.4286V17H2.62598C2.2808 17 2.00098 16.7202 2.00098 16.375V2.625ZM5.65092 6.99997C5.29193 6.99997 5.00092 7.29098 5.00092 7.64997C5.00092 8.00895 5.29193 8.29997 5.65092 8.29997H12.3509C12.7099 8.29997 13.0009 8.00895 13.0009 7.64997C13.0009 7.29098 12.7099 6.99997 12.3509 6.99997H5.65092ZM5.00092 10.65C5.00092 10.291 5.29193 10 5.65092 10H9.35092C9.7099 10 10.0009 10.291 10.0009 10.65C10.0009 11.009 9.7099 11.3 9.35092 11.3H5.65092C5.29193 11.3 5.00092 11.009 5.00092 10.65Z" fill="white"/>
</g>
<defs>
<clipPath id="clip0_5003_185680">
<rect width="20" height="20" fill="white"/>
</clipPath>
</defs>
</svg>
