<svg width="16" height="16" viewBox="0 0 16 16" fill="none" xmlns="http://www.w3.org/2000/svg">
<path fill-rule="evenodd" clip-rule="evenodd" d="M2.33333 2C1.59695 2 1 2.59695 1 3.33333V12.6667C1 13.403 1.59695 14 2.33333 14H7.71168C7.31943 13.3972 7.37337 12.6447 7.7418 12.0931C7.48737 11.8004 7.33333 11.4182 7.33333 11C7.33333 10.0795 8.07953 9.33333 9 9.33333H11.1762C11.232 9.05897 11.3577 8.79493 11.5552 8.56916C12.1614 7.87643 13.2143 7.80624 13.907 8.41237L15 9.36872V3.33333C15 2.59695 14.403 2 13.6667 2H2.33333ZM12.32 5.09333C12.5556 4.9166 12.6034 4.58231 12.4267 4.34667C12.2499 4.11103 11.9156 4.06327 11.68 4.24L8 7L4.32 4.24C4.08436 4.06327 3.75006 4.11103 3.57333 4.34667C3.3966 4.58231 3.44436 4.9166 3.68 5.09333L7.48 7.94333C7.78815 8.17444 8.21185 8.17444 8.52 7.94333L12.32 5.09333Z" fill="#3C3F47"/>
<path d="M9 10.9993H13.801C13.9857 10.9993 14.0717 10.7704 13.9327 10.6488L12.8095 9.66602" stroke="#3C3F47" stroke-width="1.06667" stroke-linecap="round"/>
<path d="M14.3333 13.0007H9.53221C9.34754 13.0007 9.26153 13.2296 9.40051 13.3512L10.5237 14.334" stroke="#3C3F47" stroke-width="1.06667" stroke-linecap="round"/>
</svg>
