<svg width="20" height="20" viewBox="0 0 20 20" fill="none" xmlns="http://www.w3.org/2000/svg">
<path fill-rule="evenodd" clip-rule="evenodd" d="M2.91667 2.5C1.99619 2.5 1.25 3.24619 1.25 4.16667V15.8333C1.25 16.7538 1.99619 17.5 2.91667 17.5H9.64055C9.14941 16.7465 9.21636 15.8056 9.67669 15.1157C9.35898 14.75 9.16667 14.2725 9.16667 13.75C9.16667 12.5994 10.0994 11.6667 11.25 11.6667H13.9703C14.04 11.3237 14.1971 10.9937 14.444 10.7114C15.2017 9.84554 16.5179 9.75779 17.3838 10.5155L18.75 11.7109V4.16667C18.75 3.24619 18.0038 2.5 17.0833 2.5H2.91667ZM5.4 5.3C5.10545 5.07909 4.68758 5.13878 4.46667 5.43333C4.24575 5.72789 4.30545 6.14575 4.6 6.36667L9.35 9.92917C9.73518 10.2181 10.2648 10.2181 10.65 9.92917L15.4 6.36667C15.6946 6.14575 15.7542 5.72789 15.5333 5.43333C15.3124 5.13878 14.8946 5.07909 14.6 5.3L10 8.75L5.4 5.3Z" fill="white"/>
<path d="M11.25 13.7507H17.3844C17.5691 13.7507 17.6551 13.5217 17.5161 13.4001L16.0119 12.084" stroke="white" stroke-width="1.33333" stroke-linecap="round"/>
<path d="M17.9165 16.2493H11.7821C11.5975 16.2493 11.5114 16.4783 11.6504 16.5999L13.1546 17.916" stroke="white" stroke-width="1.33333" stroke-linecap="round"/>
</svg>
