<svg width="16" height="16" viewBox="0 0 16 16" fill="none" xmlns="http://www.w3.org/2000/svg">
<path fill-rule="evenodd" clip-rule="evenodd" d="M2.9303 2C2.04841 2 1.3335 2.71491 1.3335 3.59681V11.4032C1.3335 12.2851 2.04841 13 2.9303 13H6L7.54835 14.5484C7.79779 14.7978 8.20221 14.7978 8.45164 14.5484L10 13H13.07C13.9519 13 14.6668 12.2851 14.6668 11.4032V3.59681C14.6668 2.71491 13.9519 2 13.07 2H2.9303ZM4.51225 7.78366C4.63188 7.51449 4.94705 7.39327 5.21622 7.5129L5.50863 7.64286C7.0945 8.34769 8.90473 8.34769 10.4906 7.64286L10.783 7.5129C11.0522 7.39327 11.3673 7.51449 11.487 7.78366C11.6066 8.05282 11.4854 8.368 11.2162 8.48763L10.9238 8.61759C9.06214 9.445 6.93709 9.445 5.07541 8.61759L4.78301 8.48763C4.51384 8.368 4.39262 8.05282 4.51225 7.78366Z" fill="#3C3F47"/>
</svg>
