<svg width="20" height="20" viewBox="0 0 20 20" fill="none" xmlns="http://www.w3.org/2000/svg">
<path fill-rule="evenodd" clip-rule="evenodd" d="M2.91667 2.5C1.99619 2.5 1.25 3.24619 1.25 4.16667V15.8333C1.25 16.7538 1.99619 17.5 2.91667 17.5H17.0833C18.0038 17.5 18.75 16.7538 18.75 15.8333V4.16667C18.75 3.24619 18.0038 2.5 17.0833 2.5H2.91667ZM15.0311 7.16013C15.3036 6.91246 15.3237 6.49082 15.076 6.21839C14.8283 5.94595 14.4067 5.92587 14.1342 6.17354L10.672 9.32101C10.2906 9.66775 9.7081 9.66775 9.32668 9.32101L5.86447 6.17354C5.59203 5.92587 5.1704 5.94595 4.92273 6.21839C4.67506 6.49082 4.69513 6.91246 4.96757 7.16013L8.42978 10.3076C9.31977 11.1167 10.6789 11.1167 11.5689 10.3076L15.0311 7.16013Z" fill="white"/>
</svg>
