<svg width="20" height="20" viewBox="0 0 20 20" fill="none" xmlns="http://www.w3.org/2000/svg">
<path fill-rule="evenodd" clip-rule="evenodd" d="M3.66251 2.5C2.56015 2.5 1.6665 3.39364 1.6665 4.49601V14.254C1.6665 15.3564 2.56015 16.25 3.66251 16.25H7.5L9.43544 18.1854C9.74724 18.4972 10.2528 18.4972 10.5646 18.1854L12.5 16.25H16.3372C17.4395 16.25 18.3332 15.3564 18.3332 14.254V4.49601C18.3332 3.39364 17.4395 2.5 16.3372 2.5H3.66251ZM5.64031 9.72957C5.78984 9.39311 6.18382 9.24159 6.52027 9.39112L6.88579 9.55357C8.86812 10.4346 11.1309 10.4346 13.1132 9.55357L13.4788 9.39112C13.8152 9.24159 14.2092 9.39311 14.3587 9.72957C14.5083 10.066 14.3567 10.46 14.0203 10.6095L13.6548 10.772C11.3277 11.8062 8.67136 11.8062 6.34427 10.772L5.97876 10.6095C5.6423 10.46 5.49077 10.066 5.64031 9.72957Z" fill="white"/>
</svg>
