<svg width="12" height="12" viewBox="0 0 12 12" fill="none" xmlns="http://www.w3.org/2000/svg">
<path fill-rule="evenodd" clip-rule="evenodd" d="M6.5 1.19995C6.5 0.923809 6.27614 0.699951 6 0.699951C5.72386 0.699951 5.5 0.923809 5.5 1.19995V5.19995H1.5C1.22386 5.19995 1 5.42381 1 5.69995C1 5.97609 1.22386 6.19995 1.5 6.19995H5.5V10.2C5.5 10.4761 5.72386 10.7 6 10.7C6.27614 10.7 6.5 10.4761 6.5 10.2V6.19995H10.5C10.7761 6.19995 11 5.97609 11 5.69995C11 5.42381 10.7761 5.19995 10.5 5.19995H6.5V1.19995Z" fill="currentColor"/>
</svg>