<svg width="32" height="32" viewBox="0 0 32 32" fill="none" xmlns="http://www.w3.org/2000/svg">
  <circle cx="16" cy="16" r="16" fill="#F2F7FE" />
  <path
    d="M18.95 20.7117V20.7567H16.4L13 20.7117L13.5141 18.7559L12.605 18.9417C12.405 19.6417 12.22 20.2467 12.05 20.7567H9.5V20.7267L12.575 11.2617H15.875L18.95 20.7117ZM14.195 12.9717C14.095 13.4817 13.95 14.1017 13.76 14.8317C13.57 15.5617 12.815 18.1817 12.605 18.9417L13.5141 18.7559H15.7963L14.69 14.8317C14.5 14.1017 14.355 13.4817 14.255 12.9717H14.195Z"
    fill="#4C6AFF"
  />
  <path d="M16.4639 20.7461L15.7881 18.7578H13.528L12.9873 20.7015L16.4639 20.7461Z" fill="#94A6FF" />
  <path d="M19.3913 11.2422L22.5 20.742H20.001L17.1828 11.2422H19.3913Z" fill="#94A6FF" />
</svg>
