<svg width="32" height="32" viewBox="0 0 32 32" fill="none" xmlns="http://www.w3.org/2000/svg">
<circle cx="16" cy="16" r="16" fill="#F2F7FE"/>
<path fill-rule="evenodd" clip-rule="evenodd" d="M15.2858 10.0474C11.7958 10.1554 9 13.0064 9 16.5075C9 20.0771 11.9063 22.9708 15.4913 22.9708C19.0363 22.9708 21.9175 20.1414 21.9815 16.6269H15.2858V10.0474Z" fill="#4C6AFF"/>
<path fill-rule="evenodd" clip-rule="evenodd" d="M23.0002 15.4117C22.9917 15.1479 22.9678 14.888 22.9293 14.6329C22.9119 14.518 22.8916 14.4041 22.8684 14.2912C22.3131 11.5892 20.1067 9.48596 17.3446 9.07227C17.3221 9.0689 17.2996 9.06564 17.277 9.0625C17.0234 9.02716 16.7651 9.00605 16.5032 9V15.4117H23.0002Z" fill="#94A6FF"/>
</svg>
