<svg width="12" height="12" viewBox="0 0 12 12" fill="none" xmlns="http://www.w3.org/2000/svg"><path fill-rule="evenodd" clip-rule="evenodd" d="M7.20231 1.01433C7.17618 1.03297 7.14915 1.05046 7.12129 1.0667C7.07126 1.09588 7.01854 1.12107 6.96355 1.14186L6.59746 1.28022C6.56729 1.29162 6.56729 1.3343 6.59746 1.34571L6.96355 1.48407C7.01854 1.50485 7.07126 1.53005 7.12129 1.55922C7.14915 1.57547 7.17618 1.59295 7.20231 1.6116C7.24716 1.64361 7.28934 1.67905 7.3285 1.71755C7.33901 1.72788 7.3493 1.73843 7.35936 1.74919C7.39256 1.7847 7.4233 1.82252 7.45135 1.8624C7.47362 1.89408 7.49419 1.92707 7.51293 1.96122C7.53874 2.00826 7.56108 2.05753 7.57961 2.10869L7.71689 2.48761C7.72804 2.51839 7.77156 2.51839 7.78271 2.48761L7.91999 2.10869C7.93852 2.05753 7.96086 2.00826 7.98667 1.96122C8.00541 1.92706 8.02598 1.89408 8.04826 1.8624C8.0763 1.82252 8.10705 1.7847 8.14024 1.74919C8.15031 1.73843 8.1606 1.72788 8.1711 1.71755C8.21026 1.67905 8.25245 1.64361 8.2973 1.6116C8.32342 1.59295 8.35045 1.57547 8.37831 1.55922C8.42835 1.53005 8.48107 1.50485 8.53606 1.48407L8.90215 1.34571C8.93232 1.3343 8.93232 1.29162 8.90215 1.28022L8.53606 1.14186C8.48107 1.12107 8.42835 1.09588 8.37831 1.0667C8.35045 1.05046 8.32342 1.03297 8.2973 1.01433C8.25245 0.982316 8.21026 0.946877 8.1711 0.90838C8.1606 0.898049 8.15031 0.887497 8.14024 0.876733C8.10705 0.841229 8.0763 0.803407 8.04826 0.763522C8.02598 0.731842 8.00541 0.698861 7.98667 0.664707C7.96086 0.617665 7.93852 0.568397 7.91999 0.517238L7.78271 0.138316C7.77156 0.107541 7.72804 0.107541 7.71689 0.138316L7.57961 0.517238C7.56108 0.568397 7.53874 0.617665 7.51293 0.664708C7.49419 0.698862 7.47362 0.731842 7.45135 0.763522C7.4233 0.803407 7.39256 0.841229 7.35936 0.876732C7.3493 0.887497 7.33901 0.898049 7.3285 0.90838C7.28934 0.946878 7.24716 0.982316 7.20231 1.01433ZM10.115 6.24941C10.0938 6.30385 10.0693 6.35665 10.042 6.40758C10.0338 6.42269 10.0255 6.43764 10.0168 6.45241C9.89455 6.66158 9.72125 6.8366 9.51323 6.96093L9.48796 6.97568C9.43745 7.0045 9.38498 7.03036 9.33077 7.05305C9.31529 7.05953 9.29967 7.06575 9.28391 7.0717L8.81528 7.24882C8.77397 7.26443 8.77397 7.32287 8.81528 7.33848L9.28391 7.51559C9.29967 7.52155 9.31529 7.52777 9.33077 7.53425C9.38498 7.55694 9.43745 7.5828 9.48796 7.61161L9.51323 7.62637C9.72125 7.7507 9.89455 7.92572 10.0168 8.13488C10.0255 8.14966 10.0338 8.16461 10.042 8.17972C10.0693 8.23065 10.0938 8.28345 10.115 8.33789C10.1192 8.34877 10.1234 8.35973 10.1274 8.37074L10.3032 8.85623C10.3185 8.89837 10.3781 8.89837 10.3934 8.85623L10.5692 8.37074C10.5732 8.35973 10.5774 8.34878 10.5816 8.33789C10.6028 8.28345 10.6273 8.23065 10.6546 8.17972C10.6628 8.16461 10.6711 8.14966 10.6798 8.13488C10.802 7.92572 10.9754 7.7507 11.1834 7.62637L11.2086 7.61161C11.2591 7.5828 11.3116 7.55694 11.3658 7.53425C11.3813 7.52777 11.3969 7.52155 11.4127 7.51559L11.8813 7.33848C11.9226 7.32287 11.9226 7.26443 11.8813 7.24882L11.4127 7.0717C11.3969 7.06575 11.3813 7.05953 11.3658 7.05305C11.3116 7.03036 11.2591 7.0045 11.2086 6.97568L11.1834 6.96093C10.9754 6.8366 10.802 6.66158 10.6798 6.45241C10.6711 6.43764 10.6628 6.42269 10.6546 6.40758C10.6273 6.35665 10.6028 6.30385 10.5816 6.24941C10.5774 6.23852 10.5732 6.22757 10.5692 6.21655L10.3934 5.73106C10.3781 5.68893 10.3185 5.68893 10.3032 5.73106L10.1274 6.21655C10.1234 6.22757 10.1192 6.23852 10.115 6.24941ZM10.3483 7.02259C10.2671 7.12118 10.1767 7.21195 10.0785 7.29365C10.1767 7.37535 10.2671 7.46611 10.3483 7.56471C10.4295 7.46611 10.5199 7.37535 10.6181 7.29365C10.5199 7.21195 10.4295 7.12118 10.3483 7.02259ZM1.90208 2.26843C2.31271 2.11648 2.63646 1.79273 2.7884 1.3821L3.23534 0.174254C3.25144 0.130718 3.31302 0.130717 3.32913 0.174254L3.77606 1.3821C3.92801 1.79273 4.25176 2.11648 4.66238 2.26843L5.87019 2.71537C5.91373 2.73148 5.91373 2.79306 5.87019 2.80917L4.66238 3.25611C4.25176 3.40806 3.92801 3.73181 3.77606 4.14244L3.32913 5.35028C3.31302 5.39382 3.25144 5.39382 3.23534 5.35028L2.7884 4.14244C2.63646 3.73181 2.31271 3.40806 1.90208 3.25611L0.694273 2.80917C0.650737 2.79306 0.650737 2.73148 0.694273 2.71537L1.90208 2.26843ZM2.77575 2.76227C2.96936 2.62023 3.1402 2.4494 3.28223 2.25579C3.42427 2.4494 3.59511 2.62023 3.78872 2.76227C3.59511 2.9043 3.42427 3.07514 3.28223 3.26875C3.1402 3.07514 2.96936 2.9043 2.77575 2.76227ZM4.04123 6.59909C4.62902 6.60775 5.22033 6.87228 5.6792 7.33115C6.06489 7.71684 6.28038 8.14306 6.30869 8.58994C6.3368 9.0335 6.17598 9.42656 5.94424 9.74108C5.49551 10.3501 4.71492 10.7613 4.06128 10.8681C3.46619 10.9654 2.84016 10.9712 2.20229 10.7547C1.56262 10.5377 0.95449 10.112 0.370008 9.41689C0.247241 9.27089 0.218239 9.06776 0.295246 8.89324C0.372253 8.71873 0.541848 8.60323 0.732445 8.5955C1.49437 8.56462 1.75588 8.42474 1.8966 8.29734C1.97732 8.22426 2.04843 8.12826 2.14187 7.97547C2.16716 7.93411 2.19617 7.88483 2.22822 7.83038L2.22823 7.83037L2.22825 7.83034C2.30169 7.70557 2.39114 7.55361 2.48864 7.40736C2.85994 6.85041 3.44298 6.59029 4.04123 6.59909ZM4.02651 7.59898C3.73746 7.59473 3.4874 7.71199 3.3207 7.96205C3.23785 8.08633 3.17591 8.19185 3.11078 8.30281L3.11078 8.30282C3.07455 8.36455 3.03733 8.42795 2.99498 8.4972C2.88668 8.67429 2.75603 8.86819 2.56776 9.03865C2.36726 9.22018 2.12903 9.3513 1.83269 9.4411C2.07061 9.61568 2.30093 9.73222 2.52361 9.80777C2.95924 9.95558 3.4092 9.96141 3.90004 9.88121C4.33233 9.81059 4.866 9.51864 5.13917 9.14789C5.26837 8.97254 5.32041 8.8066 5.31069 8.65317C5.30118 8.50307 5.22817 8.29434 4.97209 8.03826C4.6762 7.74237 4.32602 7.60339 4.02651 7.59898ZM10.8566 2.69139C11.0259 2.52206 11.0259 2.24751 10.8566 2.07818C10.6873 1.90884 10.4127 1.90884 10.2434 2.07818L5.74798 6.57363L5.04087 5.86652L9.53629 1.37107C10.0961 0.811206 11.0039 0.811207 11.5637 1.37107C12.1236 1.93093 12.1236 2.83864 11.5637 3.3985L7.0683 7.89395L6.3612 7.18684L10.8566 2.69139Z" fill="url(#paint0_linear_1011_870552)"/><defs><linearGradient id="paint0_linear_1011_870552" x1="8.03121" y1="-0.705663" x2="1.80039" y2="10.9338" gradientUnits="userSpaceOnUse"><stop offset="0.0846002" stop-color="#4EA5FF"/><stop offset="0.352802" stop-color="#4E6AFF"/><stop offset="1" stop-color="#8F60FB"/></linearGradient></defs></svg>