<svg width="16" height="16" viewBox="0 0 16 16" fill="none" xmlns="http://www.w3.org/2000/svg">
<path d="M10.95 12.7117V12.7567H8.4L5 12.7117L5.51414 10.7559L4.605 10.9417C4.405 11.6417 4.22 12.2467 4.05 12.7567H1.5V12.7267L4.575 3.26172H7.875L10.95 12.7117ZM6.195 4.97172C6.095 5.48172 5.95 6.10172 5.76 6.83172C5.57 7.56172 4.815 10.1817 4.605 10.9417L5.51414 10.7559H7.79634L6.69 6.83172C6.5 6.10172 6.355 5.48172 6.255 4.97172H6.195Z" fill="#4C6AFF"/>
<path d="M8.46389 12.7461L7.7881 10.7578H5.52803L4.9873 12.7015L8.46389 12.7461Z" fill="#94A6FF"/>
<path d="M11.3913 3.24219L14.5 12.742H12.001L9.18285 3.24219H11.3913Z" fill="#94A6FF"/>
</svg>
