<svg width="32" height="32" viewBox="0 0 32 32" fill="none" xmlns="http://www.w3.org/2000/svg">
<circle cx="16" cy="16" r="16" fill="#F2F7FE"/>
<path fill-rule="evenodd" clip-rule="evenodd" d="M15.2858 10.0479C11.7958 10.1559 9 13.0068 9 16.508C9 20.0775 11.9063 22.9713 15.4913 22.9713C19.0363 22.9713 21.9175 20.1419 21.9815 16.6274H15.2858V10.0479Z" fill="#4C6AFF"/>
<path fill-rule="evenodd" clip-rule="evenodd" d="M23.0009 15.4117C22.9925 15.1479 22.9685 14.888 22.93 14.6329C22.9126 14.518 22.8923 14.4041 22.8691 14.2912C22.3138 11.5892 20.1074 9.48596 17.3453 9.07227C17.3228 9.0689 17.3003 9.06564 17.2777 9.0625C17.0241 9.02716 16.7659 9.00605 16.5039 9V15.4117H23.0009Z" fill="#94A6FF"/>
</svg>
