<svg xmlns="http://www.w3.org/2000/svg" width="16" height="16" viewBox="0 0 16 16" fill="none">
  <rect width="16" height="16" rx="4" fill="#FFE5E2"/>
  <path d="M6.09831 7.59821C6.0323 7.59821 5.90826 7.55321 5.90826 7.59322C5.91526 7.93027 5.85725 8.21544 5.98527 8.49949C6.39534 9.40965 7.12147 10.0158 7.93761 10.5098C8.13165 10.6269 8.28767 10.6379 8.4417 10.4328C8.55772 10.2778 8.69574 10.1398 8.83477 10.0068C9.56289 9.31163 9.90597 8.6374 10.084 7.59322C8.72376 7.59322 7.41154 7.59122 6.09831 7.59922V7.59821ZM5.71423 10.6349C5.37617 10.2648 5.10012 9.83272 4.79807 9.42765C4.34899 8.82455 4.49103 8.32834 4.45602 7.60722H3.61299C3.21292 7.60722 2.70984 6.72999 3.0529 6.57296C3.36095 6.43294 4.16497 6.49502 4.52103 6.41601C4.51503 6.367 4.50402 6.08308 4.49601 6.01906C4.45301 5.639 4.54602 5.52498 4.89908 5.52298H4.93209C5.69522 5.51998 5.69524 5.74089 5.98629 6.50003H9.78095C10.7191 6.50003 11.6583 6.49502 12.5964 6.50303C12.7035 6.50303 12.8815 6.55203 12.9005 6.61705C12.9306 6.7582 12.9152 6.90526 12.8565 7.03712C12.5904 7.65122 12.0433 7.57921 11.4902 7.59922C11.3032 9.08747 10.7121 10.1538 9.5939 11.23C9.76193 11.315 9.87895 11.41 10.009 11.435C10.7791 11.579 11.5512 11.712 12.3244 11.8391C12.7895 11.9151 13.0605 12.2932 12.9885 12.7892C12.9665 12.9453 12.9035 13.0193 12.7334 13.0183C11.7203 13.0143 10.7131 12.9763 9.73492 12.6522C9.27784 12.5002 8.82077 12.3222 8.35068 12.2431C8.08264 12.1991 7.78458 12.3162 7.50654 12.3872C6.83742 12.5562 6.17931 12.7932 5.50219 12.9033C4.81207 13.0163 4.10595 13.0163 3.40582 13.0533C3.23279 13.0633 2.99675 13.1063 2.98075 12.8192C2.96375 12.5272 2.94675 12.2111 3.2458 12.0361C3.35624 11.9687 3.47957 11.9251 3.60786 11.9081C4.17596 11.8511 4.74806 11.8351 5.31316 11.7551C5.74323 11.695 6.1623 11.562 6.58638 11.462L6.59938 11.346C6.30133 11.1119 5.96827 10.9129 5.71423 10.6349Z" fill="#FE5B4C"/>
  <path d="M11.5855 5.16193C11.5675 5.12593 11.5505 5.10692 11.5495 5.08692C11.5175 4.4118 11.4935 4.4048 10.8413 4.4088C8.90801 4.41981 6.97467 4.41781 5.04234 4.41881C4.39223 4.42081 4.38123 4.43081 4.33722 5.14993H2.94798C2.94798 4.76587 2.92297 4.3688 2.95598 3.97673C2.97998 3.69668 3.37605 3.39663 3.6691 3.39363C4.66828 3.38663 5.55119 3.34362 6.54636 3.40663C6.87775 3.42724 7.08125 3.17913 7.15122 2.87629C7.17098 2.79078 7.24267 2.72382 7.33015 2.71675C7.67585 2.68882 7.85163 2.57651 8.23795 2.60899C8.33296 2.61699 8.58671 3.19459 8.72374 3.39163C9.23883 3.39163 9.97319 3.38163 10.5893 3.39463C11.1604 3.40663 11.7315 3.43764 12.3026 3.46764C12.6046 3.48464 12.9227 3.8247 12.9497 4.18476C12.9727 4.50082 12.9537 4.81988 12.9537 5.16193H11.5855Z" fill="#FE5B4C"/>
</svg>