<svg width="24" height="26" viewBox="0 0 24 26" fill="none" xmlns="http://www.w3.org/2000/svg">
<g filter="url(#filter0_d_6834_243591)">
<circle cx="12" cy="12" r="8" fill="#0FD683"/>
<g clip-path="url(#clip0_6834_243591)">
<path fill-rule="evenodd" clip-rule="evenodd" d="M8.00003 15.3846C8.97865 14.1954 10.0097 13.5142 10.7691 13.3538C11.5286 13.1934 12.2364 13.2419 12.9231 13.3538V15.3846L16.1231 12L12.9231 8.61536V10.6461C11.6534 10.6561 10.4273 11.103 9.53813 12C8.64897 12.8969 8.13629 14.0469 8.00003 15.3846Z" fill="white"/>
<path d="M8.00003 15.3846L8.23762 15.5801C8.15142 15.6848 8.00681 15.7208 7.88162 15.6686C7.75642 15.6164 7.68018 15.4884 7.69392 15.3534L8.00003 15.3846ZM12.9231 13.3538L12.9726 13.0501L13.2308 13.0922V13.3538H12.9231ZM12.9231 15.3846L13.1467 15.596C13.0601 15.6875 12.9264 15.7171 12.8094 15.6705C12.6923 15.6239 12.6154 15.5106 12.6154 15.3846H12.9231ZM16.1231 12L16.3467 11.7886C16.4588 11.9072 16.4588 12.0927 16.3467 12.2114L16.1231 12ZM12.9231 8.61536H12.6154C12.6154 8.48934 12.6923 8.37605 12.8094 8.32946C12.9264 8.28287 13.0601 8.3124 13.1467 8.40397L12.9231 8.61536ZM12.9231 10.6461H13.2308V10.9514L12.9255 10.9538L12.9231 10.6461ZM9.53813 12L9.75665 12.2166L9.75665 12.2166L9.53813 12ZM7.76245 15.1891C8.76262 13.9737 9.84947 13.2336 10.7056 13.0528L10.8327 13.6549C10.1699 13.7949 9.19468 14.4171 8.23762 15.5801L7.76245 15.1891ZM10.7056 13.0528C11.5169 12.8814 12.2667 12.9351 12.9726 13.0501L12.8736 13.6575C12.2061 13.5487 11.5403 13.5054 10.8327 13.6549L10.7056 13.0528ZM13.2308 13.3538V15.3846H12.6154V13.3538H13.2308ZM12.6995 15.1732L15.8995 11.7886L16.3467 12.2114L13.1467 15.596L12.6995 15.1732ZM15.8995 12.2114L12.6995 8.82674L13.1467 8.40397L16.3467 11.7886L15.8995 12.2114ZM13.2308 8.61536V10.6461H12.6154V8.61536H13.2308ZM12.9255 10.9538C11.7249 10.9633 10.5806 11.3854 9.75665 12.2166L9.31961 11.7834C10.274 10.8206 11.5819 10.349 12.9207 10.3384L12.9255 10.9538ZM9.75665 12.2166C8.92198 13.0586 8.43601 14.1407 8.30614 15.4158L7.69392 15.3534C7.83657 13.953 8.37596 12.7353 9.31961 11.7834L9.75665 12.2166Z" fill="white"/>
</g>
</g>
<defs>
<filter id="filter0_d_6834_243591" x="-1.15789" y="-1.05263" width="26.3158" height="30.5264" filterUnits="userSpaceOnUse" color-interpolation-filters="sRGB">
<feFlood flood-opacity="0" result="BackgroundImageFix"/>
<feColorMatrix in="SourceAlpha" type="matrix" values="0 0 0 0 0 0 0 0 0 0 0 0 0 0 0 0 0 0 127 0" result="hardAlpha"/>
<feOffset dy="2.10526"/>
<feGaussianBlur stdDeviation="1.57895"/>
<feComposite in2="hardAlpha" operator="out"/>
<feColorMatrix type="matrix" values="0 0 0 0 0.0588235 0 0 0 0 0.839216 0 0 0 0 0.513726 0 0 0 0.2 0"/>
<feBlend mode="normal" in2="BackgroundImageFix" result="effect1_dropShadow_6834_243591"/>
<feBlend mode="normal" in="SourceGraphic" in2="effect1_dropShadow_6834_243591" result="shape"/>
</filter>
<clipPath id="clip0_6834_243591">
<rect width="9.84615" height="9.84615" fill="white" transform="matrix(-1 0 0 1 16.9231 7.0769)"/>
</clipPath>
</defs>
</svg>
