<svg width="20" height="20" viewBox="0 0 20 20" fill="none" xmlns="http://www.w3.org/2000/svg">
<g id="Frame" clip-path="url(#clip0_3130_17664)">
<path id="Vector" d="M10.5346 2.02686C10.3637 2.02686 10.2266 1.88727 10.2266 1.7188V0.233844C10.2266 0.0629653 10.3662 -0.0742188 10.5346 -0.0742188C10.7031 -0.0742188 10.8427 0.0653721 10.8427 0.233844V1.7188C10.8427 1.88968 10.7055 2.02686 10.5346 2.02686Z" fill="#FFB54C"/>
<path id="Vector_2" d="M16.2702 4.39564C16.1908 4.39564 16.1114 4.36435 16.0512 4.30418C15.9309 4.18384 15.9309 3.98649 16.0512 3.86615L17.1005 2.81682C17.2209 2.69648 17.4182 2.69648 17.5386 2.81682C17.6589 2.93715 17.6589 3.1345 17.5386 3.25484L16.4892 4.30418C16.429 4.36676 16.3496 4.39564 16.2702 4.39564Z" fill="#FFB54C"/>
<path id="Vector_3" d="M4.52267 4.39564C4.44324 4.39564 4.36382 4.36435 4.30365 4.30418L3.25432 3.25484C3.13398 3.1345 3.13398 2.93715 3.25432 2.81682C3.37465 2.69648 3.572 2.69648 3.69234 2.81682L4.74168 3.86615C4.86202 3.98649 4.86202 4.18384 4.74168 4.30418C4.68151 4.36676 4.60209 4.39564 4.52267 4.39564Z" fill="#FFB54C"/>
<path id="Vector_4" d="M16.6164 9.17071C16.6164 5.68094 13.8077 2.88672 10.2722 2.88672C6.73672 2.88672 3.8005 5.68094 3.81254 9.17071C3.82216 11.7724 5.48281 14.0107 7.74755 14.9782C8.06765 15.1418 8.10616 15.3994 8.10857 15.77V16.5281C8.10857 17.4403 8.84743 18.1791 9.75959 18.1791H10.7415C11.6537 18.1791 12.3637 17.4403 12.3637 16.5281V15.5293C12.3974 15.2886 12.4912 15.0937 12.7247 14.9734C15.0039 14.001 16.6164 11.7748 16.6164 9.17071ZM13.3914 7.68335L10.8571 10.1984V12.829C10.8522 13.0504 10.7006 13.2309 10.4768 13.2309H10.2193C9.99304 13.2309 9.84142 13.0359 9.84382 12.8145L9.84623 10.2465L7.43227 7.68335C7.27343 7.52691 7.27343 7.26939 7.43227 7.11295C7.59112 6.95651 7.85104 6.95411 8.00989 7.11295L10.4118 9.48359L12.8137 7.11295C12.9726 6.95651 13.2325 6.95651 13.3914 7.11295C13.5502 7.26939 13.5502 7.5245 13.3914 7.68335Z" fill="#FFB54C"/>
</g>
<defs>
<clipPath id="clip0_3130_17664">
<rect width="20" height="20" fill="white"/>
</clipPath>
</defs>
</svg>
