<svg width="378" height="98" viewBox="0 0 378 98" fill="none" xmlns="http://www.w3.org/2000/svg">
<path fill-rule="evenodd" clip-rule="evenodd" d="M80 86.9493C71.5546 93.8563 60.7612 98 49 98C21.938 98 0 76.062 0 49C0 21.938 21.938 0 49 0C60.7612 0 71.5546 4.14366 80 11.0507C88.4454 4.14366 99.2388 0 111 0C138.062 0 160 21.938 160 49C160 76.062 138.062 98 111 98C99.2388 98 88.4454 93.8563 80 86.9493Z" fill="#EFF2FF"/>
<g filter="url(#filter0_d_1899_101439)">
<circle cx="49" cy="49" r="41" fill="white"/>
</g>
<path d="M45.376 25.556L46.132 25.856C45.676 27.332 45.172 28.724 44.62 30.032L43.828 29.684C44.428 28.34 44.944 26.972 45.376 25.556ZM44.524 19.352C45.22 19.88 45.796 20.42 46.264 20.948L45.652 21.572C45.22 21.056 44.644 20.516 43.912 19.94L44.524 19.352ZM44.224 22.232C44.968 22.82 45.58 23.408 46.084 23.996L45.472 24.62C45.016 24.056 44.404 23.456 43.612 22.832L44.224 22.232ZM52.312 23.12C52.252 23.276 52.192 23.42 52.12 23.564C51.772 24.176 51.208 24.656 50.44 25.004L49.996 24.32C50.704 24.008 51.196 23.588 51.484 23.06C51.556 22.892 51.628 22.724 51.676 22.544H50.5V21.776H51.844C51.868 21.5 51.892 21.212 51.904 20.912V20.828H50.644V20.072H51.904V19.184H52.684V20.072H54.004V20.828H52.684V20.912C52.672 21.224 52.648 21.512 52.624 21.776H54.208V22.544H52.792C53.176 23.264 53.776 23.912 54.616 24.488L54.1 25.124C53.32 24.512 52.72 23.84 52.312 23.12ZM46.648 20.072H47.98V19.172H48.76V20.072H49.936V20.828H48.76V20.96C48.748 21.248 48.736 21.524 48.712 21.776H50.104V22.544H48.592L48.52 22.856C48.988 23.168 49.468 23.54 49.948 23.948L49.504 24.608C49.024 24.128 48.628 23.744 48.304 23.48C48.268 23.576 48.232 23.66 48.184 23.756C47.836 24.404 47.26 24.908 46.468 25.268L46.036 24.584C46.756 24.248 47.26 23.792 47.548 23.228C47.644 23.012 47.716 22.784 47.788 22.544H46.42V21.776H47.932C47.956 21.512 47.98 21.236 47.98 20.96V20.828H46.648V20.072ZM53.404 25.16V30.2H52.54V29.696H48.388V30.2H47.524V25.16H53.404ZM48.388 28.94H52.54V27.824H48.388V28.94ZM48.388 27.092H52.54V25.928H48.388V27.092ZM52.528 42.48V46.236H51.688V45.72H46.528V46.236H45.688V42.48H52.528ZM46.528 44.94H51.688V43.26H46.528V44.94ZM47.488 37.128L48.328 37.308C48.148 37.584 47.968 37.848 47.776 38.1H52.204V38.796C51.712 39.48 51.004 40.08 50.08 40.608C51.388 41.124 52.852 41.436 54.472 41.556L54.28 42.336C52.36 42.192 50.668 41.772 49.18 41.052C47.764 41.7 45.976 42.204 43.816 42.576L43.492 41.808C45.424 41.496 47.032 41.1 48.304 40.596C47.692 40.236 47.128 39.828 46.612 39.372C46.144 39.792 45.64 40.164 45.112 40.5L44.56 39.828C45.748 39.144 46.72 38.244 47.488 37.128ZM49.192 40.212C50.02 39.804 50.68 39.336 51.172 38.832H47.152L47.116 38.868C47.752 39.396 48.448 39.84 49.192 40.212ZM53.872 36.096V38.364H52.996V36.876H45.004V38.364H44.128V36.096H48.52C48.376 35.784 48.232 35.508 48.076 35.256L49.024 35.112C49.168 35.4 49.3 35.736 49.444 36.096H53.872ZM43.684 53.404H45.088V51.208H45.928V53.404H47.056V54.232H45.928V56.584C46.3 56.404 46.66 56.212 47.02 56.02V56.872C46.66 57.064 46.288 57.256 45.928 57.424V60.988C45.928 61.708 45.592 62.068 44.92 62.068H43.936L43.756 61.252C44.068 61.288 44.356 61.312 44.632 61.312C44.932 61.312 45.088 61.132 45.088 60.772V57.784C44.656 57.952 44.212 58.12 43.756 58.264L43.552 57.412C44.08 57.28 44.584 57.124 45.088 56.932V54.232H43.684V53.404ZM50.968 51.124C51.112 51.484 51.256 51.904 51.4 52.36H54.064V54.424H53.26V53.152H48.4V54.424H47.584V52.36H50.56C50.416 51.964 50.248 51.604 50.068 51.268L50.968 51.124ZM49.744 53.704L50.476 53.992C49.96 55 49.288 55.78 48.46 56.332L47.824 55.78C48.676 55.264 49.312 54.568 49.744 53.704ZM51.784 53.608C52.588 54.472 53.2 55.216 53.632 55.852L52.96 56.32C52.516 55.624 51.904 54.856 51.136 54.016L51.784 53.608ZM47.968 56.824H53.524V57.556C51.16 58.684 49.648 59.584 49 60.256C48.772 60.496 48.664 60.712 48.664 60.892C48.664 61.108 48.832 61.228 49.18 61.24H52.564C52.9 61.24 53.128 61.168 53.248 61.024C53.38 60.88 53.488 60.388 53.584 59.56L54.4 59.824C54.256 60.832 54.064 61.444 53.848 61.648C53.572 61.888 53.152 62.008 52.588 62.02H49.144C48.232 62.008 47.764 61.66 47.752 60.976C47.752 60.58 47.956 60.184 48.364 59.776C49.072 59.116 50.284 58.396 51.988 57.628H47.968V56.824ZM44.968 78.092H43.852L43.672 77.276C44.032 77.312 44.368 77.336 44.68 77.336C44.944 77.336 45.088 77.096 45.088 76.628V73.928C44.632 74.108 44.188 74.264 43.744 74.408L43.54 73.58C44.068 73.436 44.584 73.28 45.088 73.088V70.328H43.672V69.5H45.088V67.244H45.928V69.5H47.092V70.328H45.928V72.74C46.336 72.548 46.732 72.344 47.116 72.128V72.992C46.72 73.208 46.324 73.4 45.928 73.58V76.832C45.928 77.672 45.604 78.092 44.968 78.092ZM53.044 73.556V71.924H53.836V74.312H51.892V76.76H53.296V75.044H54.1V78.08H53.296V77.528H49.696V78.08H48.892V75.044H49.696V76.76H51.076V74.312H49.168V71.924H49.96V73.556H51.076V71.336H51.892V73.556H53.044ZM53.2 68.48H48.52V69.908H53.2V68.48ZM48.52 70.676V71.732C48.508 74.228 48.016 76.388 47.056 78.188L46.408 77.612C47.248 76.088 47.668 74.132 47.68 71.732V67.676H54.028V70.676H48.52Z" fill="#272E47"/>
<g filter="url(#filter1_d_1899_101439)">
<circle cx="111" cy="49" r="41" fill="white"/>
</g>
<path fill-rule="evenodd" clip-rule="evenodd" d="M80 75.8336C86.2302 68.6424 90 59.2614 90 48.9998C90 38.7383 86.2302 29.3572 80 22.166C73.7698 29.3572 70 38.7383 70 48.9998C70 59.2614 73.7698 68.6424 80 75.8336Z" fill="#F2F5FF"/>
<path d="M115.032 19.784V30.188H114.168V29.408H107.856V30.212H106.98V19.784H115.032ZM107.856 28.568H114.168V26.312H107.856V28.568ZM107.856 25.52H114.168V23.408H107.856V25.52ZM107.856 22.616H114.168V20.624H107.856V22.616ZM107.292 35.232H108.144V37.5H109.536V38.328H108.144V39.252C108.732 39.852 109.32 40.524 109.908 41.256L109.416 41.988C108.924 41.232 108.504 40.632 108.144 40.176V46.188H107.292V40.212C106.908 41.34 106.416 42.372 105.816 43.308L105.444 42.372C106.308 41.196 106.92 39.84 107.292 38.328H105.828V37.5H107.292V35.232ZM110.832 40.656L111.624 40.836C111.24 42.516 110.676 43.956 109.956 45.18L109.212 44.7C109.956 43.488 110.496 42.144 110.832 40.656ZM115.176 40.596C115.68 41.952 116.112 43.404 116.472 44.94L115.692 45.288C115.296 43.62 114.864 42.144 114.396 40.848L115.176 40.596ZM112.488 46.068H111.264L111.096 45.264C111.48 45.288 111.84 45.312 112.188 45.312C112.512 45.312 112.68 45.132 112.68 44.784V39.66H109.752V38.832H116.484V39.66H113.544V45C113.544 45.708 113.184 46.068 112.488 46.068ZM110.388 35.916H115.86V36.732H110.388V35.916ZM114.528 58.48V62.236H113.688V61.72H108.528V62.236H107.688V58.48H114.528ZM108.528 60.94H113.688V59.26H108.528V60.94ZM109.488 53.128L110.328 53.308C110.148 53.584 109.968 53.848 109.776 54.1H114.204V54.796C113.712 55.48 113.004 56.08 112.08 56.608C113.388 57.124 114.852 57.436 116.472 57.556L116.28 58.336C114.36 58.192 112.668 57.772 111.18 57.052C109.764 57.7 107.976 58.204 105.816 58.576L105.492 57.808C107.424 57.496 109.032 57.1 110.304 56.596C109.692 56.236 109.128 55.828 108.612 55.372C108.144 55.792 107.64 56.164 107.112 56.5L106.56 55.828C107.748 55.144 108.72 54.244 109.488 53.128ZM111.192 56.212C112.02 55.804 112.68 55.336 113.172 54.832H109.152L109.116 54.868C109.752 55.396 110.448 55.84 111.192 56.212ZM115.872 52.096V54.364H114.996V52.876H107.004V54.364H106.128V52.096H110.52C110.376 51.784 110.232 51.508 110.076 51.256L111.024 51.112C111.168 51.4 111.3 51.736 111.444 52.096H115.872ZM114.588 69.524H107.736V71.864H114.588V69.524ZM107.736 72.704C107.676 74.852 107.112 76.7 106.032 78.248L105.396 77.672C106.368 76.328 106.86 74.576 106.884 72.428V68.672H110.796C110.58 68.168 110.352 67.7 110.1 67.268L111.024 67.124C111.24 67.58 111.456 68.096 111.672 68.672H115.464V72.704H107.736Z" fill="#272E47"/>
<path fill-rule="evenodd" clip-rule="evenodd" d="M79.285 56L86.8239 49L79.285 42V46.3523H74V51.3264H79.285V56Z" fill="#B7C3FF"/>
<path fill-rule="evenodd" clip-rule="evenodd" d="M370.285 56L377.824 49L370.285 42V46.3523H365V51.3264H370.285V56Z" fill="#B7C3FF"/>
<path fill-rule="evenodd" clip-rule="evenodd" d="M169.285 56L176.824 49L169.285 42V46.3523H164V51.3264H169.285V56Z" fill="#B7C3FF"/>
<defs>
<filter id="filter0_d_1899_101439" x="4" y="6" width="88" height="88" filterUnits="userSpaceOnUse" color-interpolation-filters="sRGB">
<feFlood flood-opacity="0" result="BackgroundImageFix"/>
<feColorMatrix in="SourceAlpha" type="matrix" values="0 0 0 0 0 0 0 0 0 0 0 0 0 0 0 0 0 0 127 0" result="hardAlpha"/>
<feOffset dx="-1" dy="1"/>
<feGaussianBlur stdDeviation="1.5"/>
<feColorMatrix type="matrix" values="0 0 0 0 0.184314 0 0 0 0 0.32549 0 0 0 0 0.52549 0 0 0 0.12 0"/>
<feBlend mode="normal" in2="BackgroundImageFix" result="effect1_dropShadow_1899_101439"/>
<feBlend mode="normal" in="SourceGraphic" in2="effect1_dropShadow_1899_101439" result="shape"/>
</filter>
<filter id="filter1_d_1899_101439" x="66" y="6" width="88" height="88" filterUnits="userSpaceOnUse" color-interpolation-filters="sRGB">
<feFlood flood-opacity="0" result="BackgroundImageFix"/>
<feColorMatrix in="SourceAlpha" type="matrix" values="0 0 0 0 0 0 0 0 0 0 0 0 0 0 0 0 0 0 127 0" result="hardAlpha"/>
<feOffset dx="-1" dy="1"/>
<feGaussianBlur stdDeviation="1.5"/>
<feColorMatrix type="matrix" values="0 0 0 0 0.184314 0 0 0 0 0.32549 0 0 0 0 0.52549 0 0 0 0.12 0"/>
<feBlend mode="normal" in2="BackgroundImageFix" result="effect1_dropShadow_1899_101439"/>
<feBlend mode="normal" in="SourceGraphic" in2="effect1_dropShadow_1899_101439" result="shape"/>
</filter>
</defs>
</svg>
