<svg width="12" height="12" viewBox="0 0 12 12" fill="none" xmlns="http://www.w3.org/2000/svg">
<path fill-rule="evenodd" clip-rule="evenodd" d="M6.5 1.19922C6.5 0.923076 6.27614 0.699219 6 0.699219C5.72386 0.699219 5.5 0.923076 5.5 1.19922V5.19922H1.5C1.22386 5.19922 1 5.42308 1 5.69922C1 5.97536 1.22386 6.19922 1.5 6.19922H5.5V10.1992C5.5 10.4754 5.72386 10.6992 6 10.6992C6.27614 10.6992 6.5 10.4754 6.5 10.1992V6.19922H10.5C10.7761 6.19922 11 5.97536 11 5.69922C11 5.42308 10.7761 5.19922 10.5 5.19922H6.5V1.19922Z" fill="#4C6AFF"/>
</svg>
