<svg width="16" height="16" viewBox="0 0 16 16" fill="none" xmlns="http://www.w3.org/2000/svg">
<g clip-path="url(#clip0_3222_155930)">
<path d="M15.8447 9.75636C16.0532 9.54783 16.0532 9.21024 15.8447 9.00225L14.9988 8.1564C14.7903 7.94787 14.4527 7.94787 14.2447 8.1564L9.73497 12.6661C9.64924 12.7519 9.60107 12.8681 9.60107 12.9894V13.9429C9.60107 14.1953 9.80574 14.4 10.0582 14.4H11.0117C11.1329 14.4 11.2492 14.3518 11.3349 14.2661L15.8447 9.75636Z" fill="#94A6FF"/>
<path fill-rule="evenodd" clip-rule="evenodd" d="M2.10156 1.59961C1.82542 1.59961 1.60156 1.82347 1.60156 2.09961V13.0996C1.60156 13.3758 1.82542 13.5996 2.10156 13.5996H7.20156L13.6016 7.19961V2.09961C13.6016 1.82347 13.3777 1.59961 13.1016 1.59961H2.10156ZM4.00156 6.11961C4.00156 5.83242 4.23437 5.59961 4.52156 5.59961H9.88156C10.1688 5.59961 10.4016 5.83242 10.4016 6.11961C10.4016 6.4068 10.1688 6.63961 9.88156 6.63961H4.52156C4.23437 6.63961 4.00156 6.4068 4.00156 6.11961ZM4.52156 7.99961C4.23437 7.99961 4.00156 8.23242 4.00156 8.51961C4.00156 8.8068 4.23437 9.03961 4.52156 9.03961H7.48156C7.76875 9.03961 8.00156 8.8068 8.00156 8.51961C8.00156 8.23242 7.76875 7.99961 7.48156 7.99961H4.52156Z" fill="#4C6AFF"/>
</g>
<defs>
<clipPath id="clip0_3222_155930">
<rect width="16" height="16" fill="white"/>
</clipPath>
</defs>
</svg>
