<svg width="24" height="24" viewBox="0 0 24 24" fill="none" xmlns="http://www.w3.org/2000/svg">
<path fill-rule="evenodd" clip-rule="evenodd" d="M5.4 5C4.6268 5 4 5.6268 4 6.4V16.9333C4 17.7065 4.6268 18.3333 5.4 18.3333H10.2224L17.3333 11.2224L17.3333 6.4C17.3333 5.6268 16.7065 5 15.9333 5H5.4ZM6.66667 10.0224C6.66667 9.70334 6.92535 9.44466 7.24444 9.44466H13.2C13.5191 9.44466 13.7778 9.70334 13.7778 10.0224C13.7778 10.3415 13.5191 10.6002 13.2 10.6002H7.24444C6.92535 10.6002 6.66667 10.3415 6.66667 10.0224ZM7.24444 12.1113C6.92535 12.1113 6.66667 12.37 6.66667 12.6891C6.66667 13.0082 6.92535 13.2669 7.24445 13.2669H10.5333C10.8524 13.2669 11.1111 13.0082 11.1111 12.6891C11.1111 12.37 10.8524 12.1113 10.5333 12.1113H7.24444Z" fill="#00CCAA"/>
<path d="M19.8263 14.0631C20.058 13.8314 20.058 13.4563 19.8263 13.2252L18.8864 12.2853C18.6547 12.0536 18.2796 12.0536 18.0485 12.2853L13.0377 17.2962C12.9424 17.3914 12.8889 17.5206 12.8889 17.6553V18.7148C12.8889 18.9953 13.1163 19.2227 13.3968 19.2227H14.4563C14.591 19.2227 14.7202 19.1692 14.8154 19.0739L19.8263 14.0631Z" fill="#6FE6B5"/>
</svg>
