<svg width="24" height="24" viewBox="0 0 24 24" fill="none" xmlns="http://www.w3.org/2000/svg">
<path d="M7.33333 5H5.58333C5.26117 5 5 5.26117 5 5.58333V7.33333M16.6667 5H18.4167C18.7388 5 19 5.26117 19 5.58333V7.33333M5 16.6667V18.4167C5 18.7388 5.26117 19 5.58333 19H7.33333M16.6667 19H18.4167C18.7388 19 19 18.7388 19 18.4167V16.6667" stroke="#BB98FE" stroke-width="2.33333" stroke-linecap="round" stroke-linejoin="round"/>
<path fill-rule="evenodd" clip-rule="evenodd" d="M12 7.1875C10.1128 7.1875 8.7607 7.97941 7.8499 8.96941C6.94977 9.94782 6.48029 11.1177 6.32099 11.9142L6.30383 12L6.32099 12.0858C6.48029 12.8823 6.94977 14.0522 7.8499 15.0306C8.7607 16.0206 10.1128 16.8125 12 16.8125C13.8872 16.8125 15.2393 16.0206 16.1501 15.0306C17.0502 14.0522 17.5197 12.8823 17.679 12.0858L17.6962 12L17.679 11.9142C17.5197 11.1177 17.0502 9.94782 16.1501 8.96941C15.2393 7.97941 13.8872 7.1875 12 7.1875ZM12 13.75C12.9665 13.75 13.75 12.9665 13.75 12C13.75 11.0335 12.9665 10.25 12 10.25C11.0335 10.25 10.25 11.0335 10.25 12C10.25 12.9665 11.0335 13.75 12 13.75Z" fill="#A259FF"/>
</svg>
