<svg width="17" height="16" viewBox="0 0 17 16" fill="none" xmlns="http://www.w3.org/2000/svg">
<path d="M3.60938 12.3333C3.53722 12.3333 3.467 12.3099 3.40938 12.2664C2.75932 11.777 2.22866 11.1467 1.8573 10.4227C1.44228 9.60958 1.24296 8.70357 1.27844 7.79138C1.31392 6.87919 1.583 5.99139 2.05992 5.213C2.53683 4.43461 3.20561 3.7917 4.0022 3.34584C4.79879 2.89998 5.69651 2.66611 6.60938 2.66662H10.6094C10.6756 2.66662 10.742 2.66784 10.8083 2.67027L10.0403 1.90235C10.0094 1.8714 9.98481 1.83465 9.96805 1.7942C9.9513 1.75375 9.94267 1.7104 9.94267 1.66662C9.94267 1.62284 9.9513 1.57949 9.96805 1.53905C9.98481 1.4986 10.0094 1.46185 10.0403 1.43089C10.1028 1.36837 10.1876 1.33325 10.276 1.33325C10.3198 1.33325 10.3632 1.34187 10.4036 1.35863C10.4441 1.37538 10.4808 1.39994 10.5118 1.43089L11.8451 2.76423C11.8761 2.79518 11.9006 2.83193 11.9174 2.87238C11.9341 2.91282 11.9428 2.95618 11.9428 2.99996C11.9428 3.04374 11.9341 3.08709 11.9174 3.12754C11.9006 3.16798 11.8761 3.20473 11.8451 3.23569L10.5118 4.56902C10.4493 4.63154 10.3645 4.66666 10.276 4.66666C10.1876 4.66666 10.1028 4.63154 10.0403 4.56902C9.9778 4.5065 9.94267 4.42171 9.94267 4.33329C9.94267 4.24487 9.9778 4.16008 10.0403 4.09756L10.8007 3.33714C10.737 3.33457 10.6732 3.33329 10.6094 3.33329H6.60938C4.03646 3.33329 1.94271 5.42704 1.94271 7.99996C1.94271 9.48173 2.62313 10.8427 3.80959 11.7338C3.86536 11.7759 3.90651 11.8344 3.92722 11.9011C3.94794 11.9678 3.94719 12.0393 3.92506 12.1055C3.90294 12.1718 3.86056 12.2294 3.80392 12.2703C3.74727 12.3111 3.67923 12.3332 3.60938 12.3333ZM7.17865 14.5686C7.20961 14.5376 7.23417 14.5009 7.25093 14.4605C7.26768 14.42 7.27631 14.3767 7.27631 14.3329C7.27631 14.2891 7.26768 14.2457 7.25093 14.2053C7.23417 14.1648 7.20961 14.1281 7.17865 14.0971L6.41063 13.3292C6.47695 13.3317 6.54327 13.3329 6.60959 13.3329H10.6094C11.522 13.3325 12.4193 13.0981 13.2154 12.652C14.0116 12.2059 14.68 11.563 15.1567 10.7849C15.6335 10.0067 15.9027 9.11922 15.9386 8.20731C15.9745 7.2954 15.7758 6.38954 15.3617 5.57631C14.9903 4.85232 14.4596 4.22194 13.8096 3.73256C13.7389 3.67946 13.65 3.65662 13.5625 3.66905C13.475 3.68149 13.396 3.72818 13.3429 3.79886C13.2898 3.86955 13.2669 3.95843 13.2794 4.04595C13.2918 4.13348 13.3385 4.21248 13.4092 4.26558C14.5956 5.15725 15.276 6.51819 15.276 7.99996C15.276 10.5729 13.1823 12.6666 10.6094 12.6666H6.60938C6.54563 12.6666 6.48185 12.6653 6.41803 12.6628L7.17844 11.9024C7.24096 11.8398 7.27608 11.755 7.27608 11.6666C7.27608 11.5782 7.24096 11.4934 7.17844 11.4309C7.11592 11.3684 7.03113 11.3333 6.94271 11.3333C6.8543 11.3333 6.7695 11.3684 6.70698 11.4309L5.37365 12.7642C5.34269 12.7952 5.31813 12.8319 5.30137 12.8724C5.28462 12.9128 5.27599 12.9562 5.27599 13C5.27599 13.0437 5.28462 13.0871 5.30137 13.1275C5.31813 13.168 5.34269 13.2047 5.37365 13.2357L6.70698 14.569C6.73794 14.6 6.77469 14.6245 6.81514 14.6413C6.85558 14.6581 6.89893 14.6667 6.94271 14.6667C6.98649 14.6667 7.02985 14.6581 7.07029 14.6413C7.11074 14.6245 7.14749 14.6 7.17844 14.569L7.17865 14.5686Z" fill="#5C5C66"/>
</svg>
