<svg width="50" height="34" viewBox="0 0 50 34" fill="none" xmlns="http://www.w3.org/2000/svg">
<ellipse cx="25" cy="27.5" rx="25" ry="6.5" fill="#F6F7FA"/>
<path d="M6.5 26V11.186L14.981 1.36595C15.4559 0.816077 16.1465 0.5 16.873 0.5H33.127C33.8535 0.5 34.5441 0.816078 35.019 1.36595L43.5 11.186V26C43.5 27.3807 42.3807 28.5 41 28.5H9C7.61929 28.5 6.5 27.3807 6.5 26Z" stroke="#E1E3E8"/>
<path d="M6.5 11.5H15.5C16.3284 11.5 17 12.1716 17 13V14C17 15.3807 18.1193 16.5 19.5 16.5H30.5C31.8807 16.5 33 15.3807 33 14V13C33 12.1716 33.6716 11.5 34.5 11.5H43.5V26C43.5 27.3807 42.3807 28.5 41 28.5H9C7.61929 28.5 6.5 27.3807 6.5 26V11.5Z" fill="#F0F2F7" stroke="#E1E3E8"/>
</svg>
