<svg width="68" height="16" viewBox="0 0 68 16" fill="none" xmlns="http://www.w3.org/2000/svg">
<rect x="21" y="11" width="46" height="4" fill="#FFE1B7"/>
<circle cx="12" cy="12" r="4" fill="#FFE1B7"/>
<path d="M11.7396 11.3691H5.04194C4.38159 11.3691 4.41356 12.3269 5.04194 12.3269H11.7396C12.3568 12.3269 12.4128 11.3691 11.7396 11.3691Z" fill="#3F465C"/>
<path d="M11.746 11.3711H5.04666C4.34635 11.3711 4.4151 12.3288 5.04666 12.3288H11.7444C12.3711 12.3288 12.3871 11.3711 11.746 11.3711V11.3711Z" fill="#3F465C"/>
<path d="M13.1151 4.23583V12.7179C13.1151 12.9353 12.9392 13.1112 12.7218 13.1112H4.10383C3.52344 13.1096 2.86789 12.6555 2.86789 11.8497C2.86789 11.167 3.33795 10.5898 3.89277 10.5898H11.7465C12.0103 10.5898 12.2245 10.3755 12.2245 10.1117V2.38592C12.2245 2.12211 12.0119 1.90625 11.7465 1.90625H4.78975C3.20206 1.90625 1.91016 3.19816 1.91016 4.78584V11.8737C1.91016 12.0064 1.92136 12.1375 1.94533 12.267C2.12122 13.2903 2.92705 14.0673 3.89117 14.0673H12.7202C13.4653 14.0657 14.0696 13.463 14.0712 12.7163V4.23742C14.0712 3.59467 13.1151 3.60267 13.1151 4.23583ZM4.78975 2.86398H11.2668V9.63205H3.89277C3.52662 9.63364 3.17008 9.74397 2.86789 9.95183V4.78584C2.86948 3.72578 3.72969 2.86558 4.78975 2.86398Z" fill="#3F465C"/>
<path d="M23.036 6.576H29.012V9.012H23.036V6.576ZM28.208 8.352V7.248H23.84V8.352H28.208ZM30.152 9.828V13.212H29.324V12.72H22.808V13.212H21.968V9.828H30.152ZM22.808 11.988H29.324V10.548H22.808V11.988ZM20.84 3.024H23.54V2.22H24.404V3.024H27.596V2.22H28.46V3.024H31.16V3.78H28.46V4.488H27.596V3.78H24.404V4.488H23.54V3.78H20.84V3.024ZM30.824 4.992V7.236H29.996V5.724H22.004V7.296H21.176V4.992H30.824ZM39.86 2.232H40.712V5.556H42.968V11.964C42.968 12.732 42.62 13.128 41.924 13.128H40.724L40.496 12.3L41.648 12.336C41.948 12.336 42.104 12.144 42.104 11.772V10.512H38.444V13.164H37.58V5.556H39.86V2.232ZM38.444 8.448V9.768H42.104V8.448H38.444ZM42.104 7.704V6.372H38.444V7.704H42.104ZM38 2.688C38.384 3.3 38.744 3.972 39.092 4.704L38.396 5.052C38.048 4.296 37.676 3.624 37.268 3.036L38 2.688ZM42.56 2.58L43.28 2.916C42.98 3.648 42.596 4.356 42.128 5.052L41.42 4.692C41.9 3.972 42.272 3.276 42.56 2.58ZM34.076 2.22L34.916 2.388C34.808 2.796 34.7 3.18 34.58 3.552H36.776V4.368H34.292C33.968 5.196 33.596 5.952 33.164 6.624L32.456 6.18C33.2 4.98 33.74 3.66 34.076 2.22ZM33.716 5.976H36.572V6.756H35.324V8.268H36.98V9.072H35.324V11.892C35.864 11.7 36.416 11.436 36.968 11.112L37.112 11.88C36.356 12.3 35.48 12.648 34.484 12.912L34.124 12.168C34.364 12.084 34.484 11.964 34.484 11.808V9.072H32.828V8.268H34.484V6.756H33.716V5.976ZM48.776 2.664H54.692V7.248H52.124V8.364H55.292V9.168H52.916C53.456 10.224 54.344 11.16 55.592 12L55.04 12.684C53.708 11.628 52.772 10.452 52.232 9.168H52.124V13.164H51.32V9.168H51.212C50.624 10.608 49.652 11.784 48.296 12.708L47.852 11.976C49.076 11.232 49.976 10.296 50.54 9.168H48.176V8.364H51.32V7.248H48.776V2.664ZM53.9 6.516V5.328H52.124V6.516H53.9ZM51.32 6.516V5.328H49.568V6.516H51.32ZM49.568 4.62H51.32V3.42H49.568V4.62ZM52.124 3.42V4.62H53.9V3.42H52.124ZM45.956 2.328C46.748 2.928 47.408 3.54 47.948 4.14L47.36 4.728C46.868 4.152 46.196 3.552 45.344 2.916L45.956 2.328ZM44.504 5.868H47.012V11.004C47.36 10.692 47.72 10.344 48.104 9.96L48.332 10.848C47.684 11.496 46.988 12.084 46.256 12.612L45.92 11.844C46.088 11.7 46.172 11.532 46.172 11.34V6.696H44.504V5.868ZM59.168 2.484C59.504 2.964 59.828 3.54 60.116 4.212H61.568V2.256H62.432V4.212H63.896C64.256 3.636 64.556 3.048 64.82 2.424L65.648 2.712C65.396 3.276 65.12 3.78 64.832 4.212H67.004V7.116H66.152V5.052H57.872V7.116H57.008V4.212H59.228C58.988 3.708 58.688 3.228 58.34 2.784L59.168 2.484ZM57.812 9.984H61.568V8.904H59.072V6.084H64.952V8.904H62.432V9.984H66.188V10.788H62.432V12.012H67.244V12.828H56.756V12.012H61.568V10.788H57.812V9.984ZM64.112 8.124V6.852H59.912V8.124H64.112Z" fill="#272E47"/>
</svg>
