<svg width="16" height="16" viewBox="0 0 16 16" fill="none" xmlns="http://www.w3.org/2000/svg">
<path d="M1.29789 3.62425C0.774619 2.9694 1.24087 2 2.07912 2H10.9209C11.7591 2 12.2254 2.9694 11.7021 3.62425L8.40381 7.75192C8.26219 7.92916 8.18504 8.14929 8.18504 8.37617V12.8367C8.18504 13.5378 7.48225 14.0212 6.82747 13.7705L5.4574 13.246C5.07047 13.0978 4.81496 12.7264 4.81496 12.3121V8.37617C4.81496 8.14929 4.73782 7.92916 4.59619 7.75192L1.29789 3.62425Z" fill="#4C6AFF"/>
<rect x="9.5" y="8" width="5" height="1.5" rx="0.5" fill="#94A6FF"/>
<rect x="9.5" y="10" width="5" height="1.5" rx="0.5" fill="#94A6FF"/>
<rect x="9.5" y="12" width="5" height="1.5" rx="0.5" fill="#94A6FF"/>
</svg>
