<svg width="12" height="12" viewBox="0 0 12 12" fill="none" xmlns="http://www.w3.org/2000/svg">
<g id="Frame 1410110617">
<g id="Group 1321320494">
<g id="Group 1321320500">
<path id="Union" fill-rule="evenodd" clip-rule="evenodd" d="M7.20255 1.01433C7.17643 1.03297 7.1494 1.05046 7.12154 1.0667C7.0715 1.09588 7.01878 1.12107 6.96379 1.14186L6.5977 1.28022C6.56753 1.29162 6.56753 1.3343 6.5977 1.34571L6.96379 1.48407C7.01878 1.50485 7.0715 1.53005 7.12154 1.55922C7.1494 1.57547 7.17643 1.59295 7.20255 1.6116C7.2474 1.64361 7.28959 1.67905 7.32874 1.71755C7.33925 1.72788 7.34954 1.73843 7.35961 1.74919C7.3928 1.7847 7.42355 1.82252 7.45159 1.8624C7.47387 1.89408 7.49444 1.92707 7.51318 1.96122C7.53899 2.00826 7.56133 2.05753 7.57986 2.10869L7.71714 2.48761C7.72828 2.51839 7.77181 2.51839 7.78296 2.48761L7.92023 2.10869C7.93877 2.05753 7.96111 2.00826 7.98692 1.96122C8.00566 1.92706 8.02623 1.89408 8.0485 1.8624C8.07654 1.82252 8.10729 1.7847 8.14049 1.74919C8.15055 1.73843 8.16084 1.72788 8.17135 1.71755C8.2105 1.67905 8.25269 1.64361 8.29754 1.6116C8.32367 1.59295 8.35069 1.57547 8.37856 1.55922C8.42859 1.53005 8.48131 1.50485 8.5363 1.48407L8.90239 1.34571C8.93256 1.3343 8.93256 1.29162 8.90239 1.28022L8.5363 1.14186C8.48131 1.12107 8.42859 1.09588 8.37856 1.0667C8.35069 1.05046 8.32367 1.03297 8.29754 1.01433C8.25269 0.982316 8.2105 0.946877 8.17135 0.90838C8.16084 0.898049 8.15055 0.887497 8.14049 0.876733C8.10729 0.841229 8.07654 0.803407 8.0485 0.763522C8.02623 0.731842 8.00566 0.698861 7.98692 0.664707C7.9611 0.617665 7.93877 0.568397 7.92023 0.517238L7.78296 0.138316C7.77181 0.107541 7.72828 0.107541 7.71714 0.138316L7.57986 0.517238C7.56133 0.568397 7.53899 0.617665 7.51318 0.664708C7.49444 0.698862 7.47387 0.731842 7.45159 0.763522C7.42355 0.803407 7.3928 0.841229 7.35961 0.876732C7.34954 0.887497 7.33925 0.898049 7.32874 0.90838C7.28959 0.946878 7.2474 0.982316 7.20255 1.01433ZM10.1149 6.24916C10.0936 6.30361 10.0692 6.3564 10.0418 6.40733C10.0337 6.42244 10.0253 6.43739 10.0167 6.45217C9.89443 6.66134 9.72113 6.83635 9.51311 6.96069L9.48784 6.97544C9.43733 7.00425 9.38485 7.03012 9.33065 7.0528C9.31517 7.05928 9.29954 7.0655 9.28378 7.07146L8.81516 7.24858C8.77385 7.26419 8.77385 7.32262 8.81516 7.33823L9.28378 7.51535C9.29954 7.52131 9.31517 7.52753 9.33065 7.53401C9.38485 7.55669 9.43733 7.58256 9.48784 7.61137L9.51311 7.62612C9.72113 7.75045 9.89443 7.92547 10.0167 8.13464C10.0253 8.14942 10.0337 8.16437 10.0418 8.17948C10.0692 8.2304 10.0936 8.2832 10.1149 8.33764C10.1191 8.34853 10.1232 8.35948 10.1272 8.3705L10.3031 8.85599C10.3184 8.89812 10.378 8.89812 10.3932 8.85599L10.5691 8.3705C10.5731 8.35948 10.5772 8.34853 10.5815 8.33765C10.6027 8.2832 10.6271 8.2304 10.6545 8.17948C10.6626 8.16436 10.671 8.14942 10.6797 8.13464C10.8019 7.92547 10.9752 7.75045 11.1832 7.62612L11.2085 7.61137C11.259 7.58256 11.3115 7.55669 11.3657 7.53401C11.3812 7.52753 11.3968 7.52131 11.4126 7.51535L11.8812 7.33823C11.9225 7.32262 11.9225 7.26419 11.8812 7.24858L11.4126 7.07146C11.3968 7.0655 11.3812 7.05928 11.3657 7.0528C11.3115 7.03012 11.259 7.00425 11.2085 6.97544L11.1832 6.96069C10.9752 6.83635 10.8019 6.66134 10.6797 6.45217C10.671 6.43739 10.6626 6.42244 10.6545 6.40733C10.6271 6.3564 10.6027 6.30361 10.5815 6.24916C10.5772 6.23828 10.5731 6.22733 10.5691 6.21631L10.3932 5.73082C10.378 5.68869 10.3184 5.68869 10.3031 5.73082L10.1272 6.21631C10.1232 6.22732 10.1191 6.23828 10.1149 6.24916ZM10.3482 7.02234C10.2669 7.12094 10.1766 7.2117 10.0783 7.2934C10.1766 7.37511 10.2669 7.46587 10.3482 7.56447C10.4294 7.46587 10.5198 7.37511 10.618 7.2934C10.5198 7.2117 10.4294 7.12094 10.3482 7.02234ZM1.90257 2.26843C2.3132 2.11648 2.63695 1.79273 2.78889 1.3821L3.23582 0.174254C3.25193 0.130718 3.31351 0.130717 3.32962 0.174254L3.77655 1.3821C3.92849 1.79273 4.25225 2.11648 4.66287 2.26843L5.87068 2.71537C5.91422 2.73148 5.91422 2.79306 5.87068 2.80917L4.66287 3.25611C4.25225 3.40806 3.92849 3.73181 3.77655 4.14244L3.32962 5.35028C3.31351 5.39382 3.25193 5.39382 3.23582 5.35028L2.78889 4.14244C2.63695 3.73181 2.3132 3.40806 1.90257 3.25611L0.694761 2.80917C0.651225 2.79306 0.651226 2.73148 0.694761 2.71537L1.90257 2.26843ZM2.77624 2.76227C2.96985 2.62023 3.14069 2.4494 3.28272 2.25579C3.42476 2.4494 3.59559 2.62023 3.7892 2.76227C3.59559 2.9043 3.42476 3.07514 3.28272 3.26875C3.14069 3.07514 2.96985 2.9043 2.77624 2.76227ZM4.04147 6.59885C4.62926 6.6075 5.22057 6.87203 5.67944 7.33091C6.06513 7.7166 6.28062 8.14282 6.30894 8.5897C6.33704 9.03325 6.17623 9.42631 5.94448 9.74083C5.49576 10.3498 4.71517 10.7611 4.06152 10.8679C3.46644 10.9651 2.8404 10.9709 2.20253 10.7545C1.56287 10.5375 0.954734 10.1117 0.370252 9.41665C0.247485 9.27065 0.218484 9.06752 0.29549 8.893C0.372497 8.71848 0.542092 8.60298 0.732689 8.59526C1.49461 8.56438 1.75613 8.4245 1.89684 8.2971C1.97756 8.22401 2.04867 8.12802 2.14211 7.97522C2.16741 7.93386 2.19641 7.88459 2.22847 7.83013C2.30192 7.70536 2.39138 7.55338 2.48889 7.40711C2.86018 6.85016 3.44322 6.59004 4.04147 6.59885ZM4.02676 7.59874C3.73771 7.59449 3.48764 7.71175 3.32094 7.96181C3.23809 8.08608 3.17616 8.19161 3.11103 8.30257L3.11102 8.30258C3.07479 8.3643 3.03757 8.42771 2.99522 8.49696C2.88692 8.67405 2.75628 8.86795 2.568 9.03841C2.36751 9.21993 2.12927 9.35106 1.83293 9.44086C2.07085 9.61544 2.30118 9.73197 2.52385 9.80753C2.95949 9.95534 3.40944 9.96116 3.90028 9.88097C4.33257 9.81034 4.86624 9.51839 5.13942 9.14765C5.26862 8.9723 5.32066 8.80635 5.31094 8.65293C5.30143 8.50283 5.22842 8.2941 4.97234 8.03801C4.67645 7.74212 4.32626 7.60315 4.02676 7.59874ZM10.8569 2.69139C11.0262 2.52206 11.0262 2.24751 10.8569 2.07818C10.6875 1.90884 10.413 1.90884 10.2436 2.07818L5.74822 6.57363L5.04112 5.86652L9.53654 1.37107C10.0964 0.811206 11.0041 0.811207 11.564 1.37107C12.1238 1.93093 12.1238 2.83864 11.564 3.3985L7.06855 7.89395L6.36144 7.18684L10.8569 2.69139Z" fill="url(#paint0_linear_1989_51095)"/>
</g>
</g>
</g>
<defs>
<linearGradient id="paint0_linear_1989_51095" x1="8.03146" y1="-0.705645" x2="1.80085" y2="10.9337" gradientUnits="userSpaceOnUse">
<stop offset="0.0846002" stop-color="#4EA5FF"/>
<stop offset="0.352802" stop-color="#4E6AFF"/>
<stop offset="1" stop-color="#8F60FB"/>
</linearGradient>
</defs>
</svg>
