<svg width="51" height="34" fill="none" xmlns="http://www.w3.org/2000/svg"><ellipse cx="25.5" cy="27.5" rx="25" ry="6.5" fill="#F6F7FA"/><path d="M7 26V11.186L15.481 1.36595C15.9559 0.816077 16.6465 0.5 17.373 0.5H33.627C34.3535 0.5 35.0441 0.816078 35.519 1.36595L44 11.186V26C44 27.3807 42.8807 28.5 41.5 28.5H9.5C8.11929 28.5 7 27.3807 7 26Z" stroke="#E1E3E8"/><path d="M7 11.5H16C16.8284 11.5 17.5 12.1716 17.5 13V14C17.5 15.3807 18.6193 16.5 20 16.5H31C32.3807 16.5 33.5 15.3807 33.5 14V13C33.5 12.1716 34.1716 11.5 35 11.5H44V26C44 27.3807 42.8807 28.5 41.5 28.5H9.5C8.11929 28.5 7 27.3807 7 26V11.5Z" fill="#F0F2F7" stroke="#E1E3E8"/></svg>