<svg width="16" height="16" viewBox="0 0 16 16" fill="none" xmlns="http://www.w3.org/2000/svg">
<rect width="16" height="16" fill="#E5E5E5"/>
<g id="&#228;&#191;&#131;&#231;&#187;&#173;&#232;&#180;&#185;-&#230;&#180;&#187;&#229;&#138;&#168;&#231;&#187;&#147;&#230;&#157;&#159;" clip-path="url(#clip0_12_31)">
<rect width="1280" height="795" transform="translate(-908 -24)" fill="#F6F7FA"/>
<g id="Group 1410110400">
<g id="Group 1410110401">
</g>
</g>
<g id="Frame 1597881684">
<rect id="Rectangle 34625359" x="-12" y="-8" width="240" height="32" rx="4" fill="#FFEFED"/>
<g id="Frame 1597881683">
<g id="Frame 1410111246">
<g id="Frame" clip-path="url(#clip1_12_31)">
<path id="Vector" d="M8.4276 1.62227C8.2909 1.62227 8.18115 1.5106 8.18115 1.37582V0.187856C8.18115 0.0511535 8.29282 -0.0585938 8.4276 -0.0585938C8.56238 -0.0585938 8.67405 0.0530789 8.67405 0.187856V1.37582C8.67405 1.51253 8.56431 1.62227 8.4276 1.62227Z" fill="#FE7C70"/>
<path id="Vector_2" d="M13.0162 3.51885C12.9527 3.51885 12.8891 3.49382 12.841 3.44569C12.7447 3.34942 12.7447 3.19154 12.841 3.09527L13.6805 2.2558C13.7767 2.15953 13.9346 2.15953 14.0309 2.2558C14.1272 2.35207 14.1272 2.50995 14.0309 2.60622L13.1914 3.44569C13.1433 3.49575 13.0797 3.51885 13.0162 3.51885Z" fill="#FE7C70"/>
<path id="Vector_3" d="M3.61813 3.51885C3.5546 3.51885 3.49106 3.49382 3.44292 3.44569L2.60345 2.60622C2.50718 2.50995 2.50718 2.35207 2.60345 2.2558C2.69972 2.15953 2.8576 2.15953 2.95387 2.2558L3.79334 3.09527C3.88961 3.19154 3.88961 3.34942 3.79334 3.44569C3.74521 3.49575 3.68167 3.51885 3.61813 3.51885Z" fill="#FE7C70"/>
<path id="Vector_4" d="M13.2932 7.33579C13.2932 4.54397 11.0462 2.30859 8.21783 2.30859C5.38943 2.30859 3.04045 4.54397 3.05008 7.33579C3.05778 9.41714 4.3863 11.2078 6.19809 11.9818C6.45417 12.1127 6.48498 12.3187 6.4869 12.6152V13.2217C6.4869 13.9514 7.078 14.5425 7.80772 14.5425H8.59328C9.323 14.5425 9.89099 13.9514 9.89099 13.2217V12.4227C9.91795 12.2301 9.99304 12.0742 10.1798 11.9779C12.0031 11.2 13.2932 9.41906 13.2932 7.33579ZM10.7131 6.1459L8.6857 8.15793V10.2624C8.68185 10.4395 8.56055 10.5839 8.38149 10.5839H8.17547C7.99448 10.5839 7.87318 10.428 7.87511 10.2508L7.87703 8.19644L5.94587 6.1459C5.81879 6.02075 5.81879 5.81473 5.94587 5.68958C6.07294 5.56443 6.28088 5.5625 6.40796 5.68958L8.3295 7.58609L10.251 5.68958C10.3781 5.56443 10.5861 5.56443 10.7131 5.68958C10.8402 5.81473 10.8402 6.01882 10.7131 6.1459Z" fill="#FE7C70"/>
</g>
</g>
</g>
</g>
</g>
<defs>
<clipPath id="clip0_12_31">
<rect width="1280" height="795" fill="white" transform="translate(-908 -24)"/>
</clipPath>
<clipPath id="clip1_12_31">
<rect width="16" height="16" fill="white"/>
</clipPath>
</defs>
</svg>
