<svg width="24" height="26" viewBox="0 0 24 26" fill="none" xmlns="http://www.w3.org/2000/svg">
<g filter="url(#filter0_d_6834_243602)">
<circle cx="12" cy="12" r="8" fill="#FFB54C"/>
<g clip-path="url(#clip0_6834_243602)">
<path fill-rule="evenodd" clip-rule="evenodd" d="M8.14919 10.1161C8.01851 10.1937 7.93842 10.3345 7.93842 10.4865V15.3045C7.93842 15.5424 8.13128 15.7352 8.36918 15.7352H15.2615C15.4994 15.7352 15.6923 15.5424 15.6923 15.3045V10.4865C15.6923 10.3345 15.6122 10.1937 15.4815 10.1161L12.0353 8.06908C11.8997 7.98853 11.7309 7.98853 11.5953 8.06908L8.14919 10.1161ZM9.29359 10.625C9.11198 10.4713 8.84017 10.4939 8.6865 10.6755C8.53282 10.8572 8.55547 11.129 8.73709 11.2826L11.5371 13.6519C11.6977 13.7878 11.933 13.7878 12.0936 13.6519L14.8936 11.2826C15.0752 11.129 15.0979 10.8572 14.9442 10.6755C14.7905 10.4939 14.5187 10.4713 14.3371 10.625L11.8153 12.7587L9.29359 10.625Z" fill="white"/>
</g>
</g>
<defs>
<filter id="filter0_d_6834_243602" x="-1.15789" y="-1.05263" width="26.3158" height="30.5264" filterUnits="userSpaceOnUse" color-interpolation-filters="sRGB">
<feFlood flood-opacity="0" result="BackgroundImageFix"/>
<feColorMatrix in="SourceAlpha" type="matrix" values="0 0 0 0 0 0 0 0 0 0 0 0 0 0 0 0 0 0 127 0" result="hardAlpha"/>
<feOffset dy="2.10526"/>
<feGaussianBlur stdDeviation="1.57895"/>
<feComposite in2="hardAlpha" operator="out"/>
<feColorMatrix type="matrix" values="0 0 0 0 1 0 0 0 0 0.709804 0 0 0 0 0.298039 0 0 0 0.2 0"/>
<feBlend mode="normal" in2="BackgroundImageFix" result="effect1_dropShadow_6834_243602"/>
<feBlend mode="normal" in="SourceGraphic" in2="effect1_dropShadow_6834_243602" result="shape"/>
</filter>
<clipPath id="clip0_6834_243602">
<rect width="8.61539" height="8.61539" fill="white" transform="translate(7.50769 7.50769)"/>
</clipPath>
</defs>
</svg>
