<svg width="16" height="16" viewBox="0 0 16 16" fill="none" xmlns="http://www.w3.org/2000/svg">
<path fill-rule="evenodd" clip-rule="evenodd" d="M6.1998 7.80001C7.69097 7.80001 8.89979 6.59119 8.89979 5.10002C8.89979 3.60885 7.69097 2.40002 6.1998 2.40002C4.70863 2.40002 3.4998 3.60885 3.4998 5.10002C3.4998 6.59119 4.70863 7.80001 6.1998 7.80001ZM4.3998 8.70002C2.41158 8.70002 0.799805 10.3118 0.799805 12.3V13.2C0.799805 13.6971 1.20275 14.1 1.6998 14.1H10.6998C11.1968 14.1 11.5998 13.6971 11.5998 13.2V12.3C11.5998 10.3118 9.98801 8.70002 7.99979 8.70002H4.3998Z" fill="#4C6AFF"/>
<path fill-rule="evenodd" clip-rule="evenodd" d="M8.4502 7.4388C8.84733 7.66853 9.30841 7.80001 9.8002 7.80001C11.2914 7.80001 12.5002 6.59119 12.5002 5.10002C12.5002 3.60885 11.2914 2.40002 9.8002 2.40002C9.30841 2.40002 8.84733 2.53151 8.4502 2.76124C9.25722 3.22808 9.80019 4.10064 9.80019 5.10002C9.80019 6.0994 9.25722 6.97196 8.4502 7.4388ZM11.6002 14.1H14.3002C14.7972 14.1 15.2002 13.6971 15.2002 13.2V12.3C15.2002 10.3118 13.5884 8.70002 11.6002 8.70002H8.90019C10.8884 8.70002 12.5002 10.3118 12.5002 12.3V13.2C12.5002 13.6971 12.0972 14.1 11.6002 14.1Z" fill="#94A6FF"/>
</svg>
