<svg width="16" height="16" viewBox="0 0 16 16" fill="none" xmlns="http://www.w3.org/2000/svg">
<rect x="1" y="1" width="11.375" height="13.125" rx="0.5" fill="#4C6AFF"/>
<mask id="path-2-outside-1_2238_98574" maskUnits="userSpaceOnUse" x="6.125" y="5.25" width="10" height="11" fill="black">
<rect fill="white" x="6.125" y="5.25" width="10" height="11"/>
<path fill-rule="evenodd" clip-rule="evenodd" d="M11.0625 6.25C9.97519 6.25 9.09375 7.13144 9.09375 8.21875C9.09375 9.30606 9.97519 10.1875 11.0625 10.1875C12.1498 10.1875 13.0312 9.30606 13.0312 8.21875C13.0312 7.13144 12.1498 6.25 11.0625 6.25ZM9.42188 10.8438C8.15335 10.8438 7.125 11.8721 7.125 13.1406V13.4688C7.125 14.0124 7.56572 14.4531 8.10937 14.4531H14.0156C14.5593 14.4531 15 14.0124 15 13.4688V13.1406C15 11.8721 13.9717 10.8438 12.7031 10.8438H9.42188Z"/>
</mask>
<path fill-rule="evenodd" clip-rule="evenodd" d="M11.0625 6.25C9.97519 6.25 9.09375 7.13144 9.09375 8.21875C9.09375 9.30606 9.97519 10.1875 11.0625 10.1875C12.1498 10.1875 13.0312 9.30606 13.0312 8.21875C13.0312 7.13144 12.1498 6.25 11.0625 6.25ZM9.42188 10.8438C8.15335 10.8438 7.125 11.8721 7.125 13.1406V13.4688C7.125 14.0124 7.56572 14.4531 8.10937 14.4531H14.0156C14.5593 14.4531 15 14.0124 15 13.4688V13.1406C15 11.8721 13.9717 10.8438 12.7031 10.8438H9.42188Z" fill="#94A6FF"/>
<path d="M10.0938 8.21875C10.0938 7.68372 10.5275 7.25 11.0625 7.25V5.25C9.4229 5.25 8.09375 6.57915 8.09375 8.21875H10.0938ZM11.0625 9.1875C10.5275 9.1875 10.0938 8.75378 10.0938 8.21875H8.09375C8.09375 9.85835 9.4229 11.1875 11.0625 11.1875V9.1875ZM12.0312 8.21875C12.0312 8.75378 11.5975 9.1875 11.0625 9.1875V11.1875C12.7021 11.1875 14.0312 9.85835 14.0312 8.21875H12.0312ZM11.0625 7.25C11.5975 7.25 12.0312 7.68372 12.0312 8.21875H14.0312C14.0312 6.57915 12.7021 5.25 11.0625 5.25V7.25ZM8.125 13.1406C8.125 12.4244 8.70563 11.8438 9.42188 11.8438V9.84375C7.60106 9.84375 6.125 11.3198 6.125 13.1406H8.125ZM8.125 13.4688V13.1406H6.125V13.4688H8.125ZM8.10937 13.4531C8.10914 13.4531 8.10995 13.4531 8.11146 13.4534C8.11292 13.4537 8.1144 13.4542 8.11576 13.4548C8.11836 13.4559 8.11974 13.457 8.12042 13.4577C8.12111 13.4584 8.12226 13.4598 8.12336 13.4624C8.12394 13.4637 8.1244 13.4652 8.1247 13.4667C8.12501 13.4682 8.125 13.469 8.125 13.4688H6.125C6.125 14.5647 7.01343 15.4531 8.10937 15.4531V13.4531ZM14.0156 13.4531H8.10937V15.4531H14.0156V13.4531ZM14 13.4688C14 13.469 14 13.4682 14.0003 13.4667C14.0006 13.4652 14.0011 13.4637 14.0016 13.4624C14.0027 13.4598 14.0039 13.4584 14.0046 13.4577C14.0053 13.457 14.0066 13.4559 14.0092 13.4548C14.0106 13.4542 14.0121 13.4537 14.0135 13.4534C14.015 13.4531 14.0159 13.4531 14.0156 13.4531V15.4531C15.1116 15.4531 16 14.5647 16 13.4688H14ZM14 13.1406V13.4688H16V13.1406H14ZM12.7031 11.8438C13.4194 11.8438 14 12.4244 14 13.1406H16C16 11.3198 14.5239 9.84375 12.7031 9.84375V11.8438ZM9.42188 11.8438H12.7031V9.84375H9.42188V11.8438Z" fill="#EFF5FE" mask="url(#path-2-outside-1_2238_98574)"/>
<line x1="3.1875" y1="4.0625" x2="6.6875" y2="4.0625" stroke="#EFF5FE" stroke-width="0.875" stroke-linecap="round"/>
<line x1="3.1875" y1="6.6875" x2="7.5625" y2="6.6875" stroke="#EFF5FE" stroke-width="0.875" stroke-linecap="round"/>
</svg>
