<svg width="14" height="14" viewBox="0 0 14 14" fill="none" xmlns="http://www.w3.org/2000/svg">
<path fill-rule="evenodd" clip-rule="evenodd" d="M7.58366 1.39974C7.58366 1.07757 7.32249 0.816406 7.00033 0.816406C6.67816 0.816406 6.41699 1.07757 6.41699 1.39974V6.06641H1.75033C1.42816 6.06641 1.16699 6.32757 1.16699 6.64974C1.16699 6.97191 1.42816 7.23307 1.75033 7.23307H6.41699V11.8997C6.41699 12.2219 6.67816 12.4831 7.00033 12.4831C7.32249 12.4831 7.58366 12.2219 7.58366 11.8997V7.23307H12.2503C12.5725 7.23307 12.8337 6.97191 12.8337 6.64974C12.8337 6.32757 12.5725 6.06641 12.2503 6.06641H7.58366V1.39974Z" fill="#4C6AFF"/>
</svg>
