<svg width="16" height="16" viewBox="0 0 17 16" fill="none" xmlns="http://www.w3.org/2000/svg">
<circle cx="5.0533" cy="10.9478" r="4.21053" fill="#EED9FF"/>
<circle cx="7.61749" cy="4.89288" r="2.33429" stroke="#263789" stroke-width="1.09474"/>
<path d="M12.2854 12.3628V10.9622C12.2854 9.67303 11.2403 8.62793 9.95111 8.62793H5.28253C3.99334 8.62793 2.94824 9.67303 2.94824 10.9622V12.3628C2.94824 12.6206 3.15726 12.8297 3.4151 12.8297H11.8185C12.0764 12.8297 12.2854 12.6206 12.2854 12.3628Z" stroke="#263789" stroke-width="1.09474"/>
<path d="M13.4587 6.77415C13.4587 6.52521 13.42 6.28531 13.3483 6.06015C13.3113 5.94421 13.2656 5.83217 13.2119 5.72481C12.9659 5.2329 12.5524 4.83936 12.0461 4.61899C11.7591 4.49407 11.4423 4.4248 11.1094 4.4248" stroke="#263789" stroke-width="1.09474" stroke-linecap="round"/>
<path d="M15.5787 6.24468C15.5787 4.08217 13.8256 2.3291 11.6631 2.3291" stroke="#263789" stroke-width="1.09474" stroke-linecap="round"/>
</svg>
