<svg width="16" height="16" viewBox="0 0 16 16" fill="none" xmlns="http://www.w3.org/2000/svg">
<g clip-path="url(#clip0_3876_176159)">
<circle cx="5.0533" cy="5.05232" r="4.21053" fill="#FDDADF"/>
<path fill-rule="evenodd" clip-rule="evenodd" d="M4.21061 2.82227C3.67576 2.82227 3.24219 3.25584 3.24219 3.79069V13.0538C3.24219 13.5887 3.67576 14.0223 4.21061 14.0223H8.42113H12.6317C13.1665 14.0223 13.6001 13.5887 13.6001 13.0538V3.79069C13.6001 3.25584 13.1665 2.82227 12.6317 2.82227H4.21061ZM4.33692 12.9275V3.917H12.5053V12.9275H8.42113H4.33692ZM5.89482 5.34858C5.59252 5.34858 5.34745 5.59365 5.34745 5.89595C5.34745 6.19825 5.59252 6.44332 5.89482 6.44332H10.9475C11.2498 6.44332 11.4948 6.19825 11.4948 5.89595C11.4948 5.59365 11.2498 5.34858 10.9475 5.34858H5.89482ZM5.89482 7.8749C5.59252 7.8749 5.34745 8.11996 5.34745 8.42227C5.34745 8.72457 5.59252 8.96963 5.89482 8.96963H8.84219C9.14449 8.96963 9.38956 8.72457 9.38956 8.42227C9.38956 8.11996 9.14449 7.8749 8.84219 7.8749H5.89482Z" fill="#263789"/>
</g>
<defs>
<clipPath id="clip0_3876_176159">
<rect width="16" height="16" fill="white"/>
</clipPath>
</defs>
</svg>
