<svg width="16" height="16" viewBox="0 0 16 16" fill="none" xmlns="http://www.w3.org/2000/svg">
<g clip-path="url(#clip0_3879_175053)">
<circle cx="5.05232" cy="5.05232" r="4.21053" fill="#EED9FF"/>
<path d="M3.70516 4.176H3.15779V4.40563L3.32161 4.56652L3.70516 4.176ZM8.81393 9.19355L8.43039 9.58407C8.64374 9.79361 8.98578 9.79314 9.19855 9.58301L8.81393 9.19355ZM2.94727 7.48829C2.64496 7.48829 2.3999 7.73335 2.3999 8.03565C2.3999 8.33796 2.64496 8.58302 2.94727 8.58302V7.48829ZM5.05253 8.58302C5.35483 8.58302 5.5999 8.33796 5.5999 8.03565C5.5999 7.73335 5.35483 7.48829 5.05253 7.48829V8.58302ZM2.94727 9.97951C2.64496 9.97951 2.3999 10.2246 2.3999 10.5269C2.3999 10.8292 2.64496 11.0742 2.94727 11.0742V9.97951ZM6.73674 11.0742C7.03904 11.0742 7.28411 10.8292 7.28411 10.5269C7.28411 10.2246 7.03904 9.97951 6.73674 9.97951V11.0742ZM4.09113 4.33741H13.8946V3.24267H4.09113V4.33741ZM13.7683 4.21109V12.6321H14.8631V4.21109H13.7683ZM13.8946 12.5058H4.12621V13.6006H13.8946V12.5058ZM4.25253 12.6321V12.5058H3.15779V12.6321H4.25253ZM3.32161 4.56652L8.43039 9.58407L9.19748 8.80303L4.08871 3.78549L3.32161 4.56652ZM9.19855 9.58301L14.2793 4.56547L13.51 3.78654L8.42931 8.80409L9.19855 9.58301ZM2.94727 8.58302H5.05253V7.48829H2.94727V8.58302ZM2.94727 11.0742H6.73674V9.97951H2.94727V11.0742ZM4.12621 12.5058C4.19598 12.5058 4.25253 12.5624 4.25253 12.6321H3.15779C3.15779 13.167 3.59137 13.6006 4.12621 13.6006V12.5058ZM13.7683 12.6321C13.7683 12.5624 13.8249 12.5058 13.8946 12.5058V13.6006C14.4295 13.6006 14.8631 13.167 14.8631 12.6321H13.7683ZM13.8946 4.33741C13.8249 4.33741 13.7683 4.28085 13.7683 4.21109H14.8631C14.8631 3.67625 14.4295 3.24267 13.8946 3.24267V4.33741ZM4.09113 3.24267C3.57566 3.24267 3.15779 3.66054 3.15779 4.176H4.25253C4.25253 4.26514 4.18027 4.33741 4.09113 4.33741V3.24267Z" fill="#263789"/>
</g>
<defs>
<clipPath id="clip0_3879_175053">
<rect width="16" height="16" fill="white"/>
</clipPath>
</defs>
</svg>


