<svg width="24" height="26" viewBox="0 0 24 26" fill="none" xmlns="http://www.w3.org/2000/svg">
<g filter="url(#filter0_d_6834_243614)">
<circle cx="12" cy="12.1052" r="8" fill="#33D0DE"/>
<g clip-path="url(#clip0_6834_243614)">
<path fill-rule="evenodd" clip-rule="evenodd" d="M16.1579 15.4898C15.1793 14.3006 14.1482 13.6195 13.3888 13.459C12.6293 13.2986 11.9215 13.3471 11.2348 13.459V15.4898L8.03482 12.1052L11.2348 8.72058V10.7514C12.5045 10.7613 13.7307 11.2082 14.6198 12.1052C15.509 13.0022 16.0216 14.1521 16.1579 15.4898Z" fill="white"/>
<path d="M16.1579 15.4898L15.9203 15.6853C16.0065 15.7901 16.1511 15.826 16.2763 15.7738C16.4015 15.7216 16.4778 15.5936 16.464 15.4586L16.1579 15.4898ZM11.2348 13.459L11.1853 13.1554L10.9271 13.1974V13.459H11.2348ZM11.2348 15.4898L11.0112 15.7012C11.0978 15.7928 11.2315 15.8223 11.3486 15.7757C11.4657 15.7291 11.5425 15.6158 11.5425 15.4898H11.2348ZM8.03482 12.1052L7.81124 11.8938C7.69909 12.0124 7.69909 12.198 7.81124 12.3166L8.03482 12.1052ZM11.2348 8.72058H11.5425C11.5425 8.59456 11.4657 8.48128 11.3486 8.43469C11.2315 8.3881 11.0978 8.41762 11.0112 8.50919L11.2348 8.72058ZM11.2348 10.7514H10.9271V11.0566L11.2324 11.059L11.2348 10.7514ZM14.6198 12.1052L14.4013 12.3218L14.4013 12.3218L14.6198 12.1052ZM16.3955 15.2943C15.3953 14.0789 14.3085 13.3388 13.4524 13.158L13.3252 13.7601C13.988 13.9001 14.9633 14.5224 15.9203 15.6853L16.3955 15.2943ZM13.4524 13.158C12.641 12.9866 11.8912 13.0403 11.1853 13.1554L11.2843 13.7627C11.9518 13.6539 12.6176 13.6106 13.3252 13.7601L13.4524 13.158ZM10.9271 13.459V15.4898H11.5425V13.459H10.9271ZM11.4584 15.2784L8.2584 11.8938L7.81124 12.3166L11.0112 15.7012L11.4584 15.2784ZM8.2584 12.3166L11.4584 8.93197L11.0112 8.50919L7.81124 11.8938L8.2584 12.3166ZM10.9271 8.72058V10.7514H11.5425V8.72058H10.9271ZM11.2324 11.059C12.433 11.0685 13.5773 11.4906 14.4013 12.3218L14.8383 11.8886C13.884 10.9258 12.576 10.4542 11.2372 10.4437L11.2324 11.059ZM14.4013 12.3218C15.2359 13.1638 15.7219 14.246 15.8518 15.521L16.464 15.4586C16.3214 14.0583 15.782 12.8405 14.8383 11.8886L14.4013 12.3218Z" fill="white"/>
</g>
</g>
<defs>
<filter id="filter0_d_6834_243614" x="-1.15789" y="-1.05263" width="26.3158" height="30.5264" filterUnits="userSpaceOnUse" color-interpolation-filters="sRGB">
<feFlood flood-opacity="0" result="BackgroundImageFix"/>
<feColorMatrix in="SourceAlpha" type="matrix" values="0 0 0 0 0 0 0 0 0 0 0 0 0 0 0 0 0 0 127 0" result="hardAlpha"/>
<feOffset dy="2.10526"/>
<feGaussianBlur stdDeviation="1.57895"/>
<feComposite in2="hardAlpha" operator="out"/>
<feColorMatrix type="matrix" values="0 0 0 0 0.2 0 0 0 0 0.815686 0 0 0 0 0.870588 0 0 0 0.2 0"/>
<feBlend mode="normal" in2="BackgroundImageFix" result="effect1_dropShadow_6834_243614"/>
<feBlend mode="normal" in="SourceGraphic" in2="effect1_dropShadow_6834_243614" result="shape"/>
</filter>
<clipPath id="clip0_6834_243614">
<rect width="9.84615" height="9.84615" fill="white" transform="translate(7.23483 7.18213)"/>
</clipPath>
</defs>
</svg>
