<svg width="24" height="24" viewBox="0 0 24 24" fill="none" xmlns="http://www.w3.org/2000/svg">
<path d="M0 0H20C22.2091 0 24 1.79086 24 4V24L0 0Z" fill="#4C6AFF"/>
<path fill-rule="evenodd" clip-rule="evenodd" d="M21.6767 3.62069C21.8517 3.78733 21.8584 4.06426 21.6918 4.23922L15.8585 10.3642C15.7759 10.4509 15.6614 10.5 15.5417 10.5C15.4219 10.5 15.3074 10.4509 15.2249 10.3642L12.3082 7.30173C12.1416 7.12676 12.1483 6.84983 12.3233 6.68319C12.4982 6.51655 12.7752 6.52331 12.9418 6.69828L15.5417 9.42813L21.0582 3.63578C21.2248 3.46081 21.5018 3.45405 21.6767 3.62069Z" fill="white"/>
</svg>
