<svg width="32" height="32" viewBox="0 0 32 32" fill="none" xmlns="http://www.w3.org/2000/svg">
<rect width="32" height="32" rx="16" fill="#FFB54C"/>
<path d="M23.0406 9.08337C23.0276 9.06979 23.0145 9.05625 23.0014 9.04274M24.4805 11C24.4725 10.9862 24.4645 10.9724 24.4564 10.9586M25.7889 15.2267C25.8084 15.4819 25.8184 15.7398 25.8184 16C25.8184 21.5228 21.3412 26 15.8184 26C10.2955 26 5.81836 21.5228 5.81836 16C5.81836 10.4772 10.2955 6 15.8184 6C17.4148 6 18.924 6.37412 20.2628 7.03947C20.5822 7.19819 20.8919 7.37348 21.1908 7.56422M25.3805 13.0643L25.3912 13.0996C25.3876 13.0878 25.3841 13.0761 25.3805 13.0643Z" stroke="white" stroke-width="1.5" stroke-linecap="round" stroke-linejoin="round"/>
<path d="M10.5052 14.8071L20.1312 11.919C20.4346 11.828 20.7175 12.1109 20.6265 12.4142L17.7392 22.0394C17.6375 22.3783 17.1771 22.4257 17.0085 22.1146L14.6965 17.8489L10.43 15.5377C10.1189 15.3692 10.1663 14.9088 10.5052 14.8071Z" fill="white"/>
<path d="M13.6484 18.9004L16.4769 16.072" stroke="#FFB54C" stroke-linecap="round"/>
</svg>
