<svg xmlns="http://www.w3.org/2000/svg" width="16" height="16" viewBox="0 0 16 16" fill="none">
  <g clip-path="url(#clip0_4545_24979)">
    <path d="M8.42772 1.62148C8.29102 1.62148 8.18127 1.50981 8.18127 1.37503V0.187063C8.18127 0.0503601 8.29295 -0.0593872 8.42772 -0.0593872C8.5625 -0.0593872 8.67417 0.0522855 8.67417 0.187063V1.37503C8.67417 1.51173 8.56443 1.62148 8.42772 1.62148Z" fill="#FFB54C"/>
    <path d="M13.0162 3.51653C12.9527 3.51653 12.8891 3.4915 12.841 3.44337C12.7447 3.3471 12.7447 3.18922 12.841 3.09295L13.6805 2.25348C13.7767 2.15721 13.9346 2.15721 14.0309 2.25348C14.1272 2.34975 14.1272 2.50763 14.0309 2.6039L13.1914 3.44337C13.1433 3.49343 13.0797 3.51653 13.0162 3.51653Z" fill="#FFB54C"/>
    <path d="M3.61813 3.51653C3.5546 3.51653 3.49106 3.4915 3.44292 3.44337L2.60345 2.6039C2.50718 2.50763 2.50718 2.34975 2.60345 2.25348C2.69972 2.15721 2.8576 2.15721 2.95387 2.25348L3.79334 3.09295C3.88961 3.18922 3.88961 3.3471 3.79334 3.44337C3.74521 3.49343 3.68167 3.51653 3.61813 3.51653Z" fill="#FFB54C"/>
    <path d="M13.2932 7.33658C13.2932 4.54477 11.0462 2.30939 8.21783 2.30939C5.38943 2.30939 3.04045 4.54477 3.05008 7.33658C3.05778 9.41793 4.3863 11.2085 6.19809 11.9826C6.45417 12.1135 6.48498 12.3195 6.4869 12.616V13.2225C6.4869 13.9522 7.078 14.5433 7.80772 14.5433H8.59328C9.323 14.5433 9.89099 13.9522 9.89099 13.2225V12.4235C9.91795 12.2309 9.99304 12.075 10.1798 11.9787C12.0031 11.2008 13.2932 9.41986 13.2932 7.33658ZM10.7131 6.14669L8.6857 8.15872V10.2632C8.68185 10.4403 8.56055 10.5847 8.38149 10.5847H8.17547C7.99448 10.5847 7.87318 10.4288 7.87511 10.2516L7.87703 8.19723L5.94587 6.14669C5.81879 6.02154 5.81879 5.81552 5.94587 5.69037C6.07294 5.56522 6.28088 5.5633 6.40796 5.69037L8.3295 7.58688L10.251 5.69037C10.3781 5.56522 10.5861 5.56522 10.7131 5.69037C10.8402 5.81552 10.8402 6.01962 10.7131 6.14669Z" fill="#FFB54C"/>
  </g>
  <defs>
    <clipPath id="clip0_4545_24979">
      <rect width="16" height="16" fill="white"/>
    </clipPath>
  </defs>
</svg>