<svg xmlns="http://www.w3.org/2000/svg" width="24" height="23" viewBox="0 0 24 23" fill="none">
  <g clip-path="url(#clip0_2117_96686)">
    <g filter="url(#filter0_d_2117_96686)">
      <path fill-rule="evenodd" clip-rule="evenodd" d="M3.52619 7.96036C3.22418 8.13976 3.03906 8.46503 3.03906 8.8163V19.9513C3.03906 20.5011 3.48479 20.9468 4.03462 20.9468H19.9635C20.5133 20.9468 20.9591 20.5011 20.9591 19.9513V8.8163C20.9591 8.46503 20.7739 8.13976 20.4719 7.96036L12.5075 3.22946C12.1941 3.0433 11.804 3.0433 11.4906 3.22946L3.52619 7.96036ZM6.17074 9.13048C5.75101 8.77532 5.12283 8.82767 4.76768 9.2474C4.41252 9.66713 4.46486 10.2953 4.8846 10.6505L11.3557 16.126C11.7269 16.4401 12.2707 16.4401 12.6419 16.126L19.113 10.6505C19.5327 10.2953 19.585 9.66713 19.2299 9.2474C18.8747 8.82767 18.2466 8.77532 17.8268 9.13048L11.9988 14.0619L6.17074 9.13048Z" fill="url(#paint0_linear_2117_96686)" shape-rendering="crispEdges"/>
    </g>
  </g>
  <defs>
    <filter id="filter0_d_2117_96686" x="1.03906" y="2.08984" width="21.9199" height="21.8569" filterUnits="userSpaceOnUse" color-interpolation-filters="sRGB">
      <feFlood flood-opacity="0" result="BackgroundImageFix"/>
      <feColorMatrix in="SourceAlpha" type="matrix" values="0 0 0 0 0 0 0 0 0 0 0 0 0 0 0 0 0 0 127 0" result="hardAlpha"/>
      <feOffset dy="1"/>
      <feGaussianBlur stdDeviation="1"/>
      <feComposite in2="hardAlpha" operator="out"/>
      <feColorMatrix type="matrix" values="0 0 0 0 0 0 0 0 0 0.2355 0 0 0 0 0.511958 0 0 0 0.18 0"/>
      <feBlend mode="normal" in2="BackgroundImageFix" result="effect1_dropShadow_2117_96686"/>
      <feBlend mode="normal" in="SourceGraphic" in2="effect1_dropShadow_2117_96686" result="shape"/>
    </filter>
    <linearGradient id="paint0_linear_2117_96686" x1="11.9991" y1="3.08984" x2="11.9991" y2="20.9468" gradientUnits="userSpaceOnUse">
      <stop stop-color="white"/>
      <stop offset="0.597292" stop-color="white" stop-opacity="0.89"/>
      <stop offset="1" stop-color="#CDFEF6"/>
    </linearGradient>
    <clipPath id="clip0_2117_96686">
      <rect width="22.4" height="22.4" fill="white" transform="translate(0.799805 0.400391)"/>
    </clipPath>
  </defs>
</svg>