<svg width="16" height="16" viewBox="0 0 16 16" fill="none" xmlns="http://www.w3.org/2000/svg">
<g clip-path="url(#clip0_417_55548)">
<rect x="2" y="2" width="12" height="12" stroke="#7A8599" stroke-linejoin="round"/>
<path d="M10.9998 11.267H11.0998V11.167V8.4525C11.0998 7.89803 10.8796 7.36627 10.4875 6.9742C10.0954 6.58213 9.56368 6.36187 9.00921 6.36187C8.55878 6.36187 8.16345 6.52982 7.84244 6.79508V6.64284V6.54284H7.74244H7.01858H6.91858V6.64284V11.167V11.267H7.01858H7.74244H7.84244V11.167V8.4525C7.84244 8.14306 7.96537 7.84629 8.18418 7.62748C8.40299 7.40866 8.69976 7.28574 9.00921 7.28574C9.31865 7.28574 9.61542 7.40866 9.83423 7.62748C10.053 7.84629 10.176 8.14306 10.176 8.4525V11.167V11.267H10.276H10.9998ZM4.84698 6.54284H4.74698V6.64284V11.167V11.267H4.84698H5.57085H5.67085V11.167V6.64284V6.54284H5.57085H4.84698ZM4.75432 5.83067C4.87488 5.95124 5.03841 6.01897 5.20891 6.01897C5.37942 6.01897 5.54295 5.95124 5.66351 5.83067C5.78408 5.71011 5.85181 5.54658 5.85181 5.37607C5.85181 5.20557 5.78408 5.04204 5.66351 4.92148C5.54295 4.80091 5.37942 4.73318 5.20891 4.73318C5.03841 4.73318 4.87488 4.80091 4.75432 4.92148C4.63375 5.04204 4.56602 5.20557 4.56602 5.37607C4.56602 5.54658 4.63375 5.71011 4.75432 5.83067Z" fill="#7A8599" stroke="#7A8599" stroke-width="0.2"/>
</g>
<defs>
<clipPath id="clip0_417_55548">
<rect width="16" height="16" fill="white"/>
</clipPath>
</defs>
</svg>
