<svg width="32" height="33" viewBox="0 0 32 33" fill="none" xmlns="http://www.w3.org/2000/svg">
<g opacity="0.1" filter="url(#filter0_b_948_44379)">
<rect y="0.466309" width="32" height="32" rx="16" fill="#4C6AFF"/>
</g>
<g clip-path="url(#clip0_948_44379)">
<path d="M20.7512 21.2206H18.7525V18.0878C18.7525 17.3408 18.7375 16.3793 17.71 16.3793C16.6682 16.3793 16.5092 17.1923 16.5092 18.0331V21.2206H14.5097V14.7788H16.4297V15.6563H16.456C16.7245 15.1508 17.377 14.6161 18.352 14.6161C20.377 14.6161 20.752 15.9496 20.752 17.6843V21.2206H20.7512ZM12.2522 13.8976C12.0997 13.8978 11.9485 13.8678 11.8075 13.8095C11.6666 13.7512 11.5385 13.6656 11.4306 13.5577C11.3227 13.4498 11.2372 13.3216 11.179 13.1806C11.1208 13.0395 11.091 12.8884 11.0912 12.7358C11.0914 12.5062 11.1596 12.2818 11.2873 12.0909C11.415 11.9001 11.5964 11.7514 11.8086 11.6636C12.0208 11.5759 12.2543 11.5531 12.4795 11.598C12.7047 11.643 12.9115 11.7537 13.0737 11.9161C13.236 12.0786 13.3464 12.2856 13.3911 12.5108C13.4357 12.736 13.4126 12.9695 13.3246 13.1815C13.2366 13.3936 13.0877 13.5749 12.8966 13.7023C12.7056 13.8298 12.4811 13.8977 12.2515 13.8976H12.2522ZM13.2542 21.2206H11.2495V14.7788H13.255V21.2206H13.2542ZM21.7525 9.71631H10.2467C9.69475 9.71631 9.25 10.1513 9.25 10.6891V22.2436C9.25 22.7813 9.6955 23.2163 10.246 23.2163H21.7495C22.3 23.2163 22.75 22.7813 22.75 22.2436V10.6891C22.75 10.1513 22.3 9.71631 21.7495 9.71631H21.7518H21.7525Z" fill="#4C6AFF"/>
</g>
<defs>
<filter id="filter0_b_948_44379" x="-9.77778" y="-9.31147" width="51.5556" height="51.5556" filterUnits="userSpaceOnUse" color-interpolation-filters="sRGB">
<feFlood flood-opacity="0" result="BackgroundImageFix"/>
<feGaussianBlur in="BackgroundImageFix" stdDeviation="4.88889"/>
<feComposite in2="SourceAlpha" operator="in" result="effect1_backgroundBlur_948_44379"/>
<feBlend mode="normal" in="SourceGraphic" in2="effect1_backgroundBlur_948_44379" result="shape"/>
</filter>
<clipPath id="clip0_948_44379">
<rect width="18" height="18" fill="white" transform="translate(7 7.46631)"/>
</clipPath>
</defs>
</svg>
