<svg width="22" height="22" viewBox="0 0 22 22" fill="none" xmlns="http://www.w3.org/2000/svg">
<circle cx="11" cy="6" r="5" fill="#D1EDDE"/>
<circle cx="9.5" cy="8.5" r="2.5" stroke="#263789" stroke-width="1.3"/>
<path d="M14.5 16.5V15C14.5 13.6193 13.3807 12.5 12 12.5H7C5.61929 12.5 4.5 13.6193 4.5 15V16.5C4.5 16.7761 4.72386 17 5 17H14C14.2761 17 14.5 16.7761 14.5 16.5Z" stroke="#263789" stroke-width="1.3"/>
<path d="M11.8662 4.73199C12.1863 4.58312 12.5431 4.5 12.9194 4.5C14.3001 4.5 15.4194 5.61929 15.4194 7C15.4194 8.05129 14.7705 8.95102 13.8513 9.3205" stroke="#263789" stroke-width="1.3" stroke-linecap="round"/>
<path d="M13.8496 11H15.4195C16.8002 11 17.9195 12.1193 17.9195 13.5V15C17.9195 15.2761 17.6957 15.5 17.4195 15.5H16.4996" stroke="#263789" stroke-width="1.3" stroke-linecap="round"/>
</svg>
