<svg width="24" height="24" viewBox="0 0 24 24" fill="none" xmlns="http://www.w3.org/2000/svg">
<circle cx="12" cy="12" r="12" fill="#0FD683"/>
<path d="M7.81581 8.92465C7.87108 8.57087 8.1758 8.31006 8.53388 8.31006H15.466C15.8241 8.31006 16.1288 8.57086 16.1841 8.92465L16.4287 10.4904L17.2236 15.578L17.3196 16.1926C17.3885 16.6334 17.0477 17.0316 16.6016 17.0316H7.39829C6.95217 17.0316 6.61135 16.6334 6.68022 16.1926L6.77625 15.578L7.57116 10.4904L7.81581 8.92465Z" fill="white" stroke="white" stroke-width="1.09017"/>
<circle cx="9.85675" cy="10.2168" r="0.75" fill="#0FD683"/>
<circle cx="14.2174" cy="10.2168" r="0.75" fill="#0FD683"/>
<path fill-rule="evenodd" clip-rule="evenodd" d="M9.25677 8.3101C9.25677 6.77457 10.5016 5.52979 12.0371 5.52979C13.5726 5.52979 14.8174 6.77458 14.8174 8.3101V9.9152C14.8174 10.2466 14.5488 10.5152 14.2174 10.5152C13.886 10.5152 13.6174 10.2466 13.6174 9.9152V8.3101C13.6174 7.43732 12.9099 6.72979 12.0371 6.72979C11.1643 6.72979 10.4568 7.43732 10.4568 8.3101V9.9152C10.4568 10.2466 10.1881 10.5152 9.85677 10.5152C9.5254 10.5152 9.25677 10.2466 9.25677 9.9152V8.3101Z" fill="white"/>
<rect x="4.8" y="12.3298" width="14.4" height="6.34004" rx="0.8" fill="white"/>
<path d="M5.79065 13.9298H5.6579L5.69453 14.0574L6.53866 16.9974L6.55945 17.0698H6.63478H7.14949H7.22676L7.24626 16.9951L7.73389 15.1246L8.21799 16.9949L8.23739 17.0698H8.3148H8.8254H8.90063L8.92148 16.9975L9.76973 14.0575L9.80658 13.9298H9.67365H9.13011H9.05179L9.03302 14.0058L8.56784 15.8908L8.07806 14.0047L8.05862 13.9298H7.98127H7.48303H7.40568L7.38624 14.0047L6.89645 15.8908L6.43127 14.0058L6.41251 13.9298H6.33419H5.79065ZM10.0585 13.9298H9.92575L9.96239 14.0574L10.8065 16.9974L10.8273 17.0698H10.9026H11.4173H11.4946L11.5141 16.9951L12.0017 15.1246L12.4858 16.9949L12.5052 17.0698H12.5827H13.0933H13.1685L13.1893 16.9975L14.0376 14.0575L14.0744 13.9298H13.9415H13.398H13.3196L13.3009 14.0058L12.8357 15.8908L12.3459 14.0047L12.3265 13.9298H12.2491H11.7509H11.6735L11.6541 14.0047L11.1643 15.8908L10.6991 14.0058L10.6804 13.9298H10.602H10.0585ZM14.3264 13.9298H14.1936L14.2302 14.0574L15.0744 16.9974L15.0952 17.0698H15.1705H15.6852H15.7625L15.782 16.9951L16.2696 15.1246L16.7537 16.9949L16.7731 17.0698H16.8505H17.3611H17.4363L17.4572 16.9975L18.3054 14.0575L18.3423 13.9298H18.2094H17.6658H17.5875L17.5687 14.0058L17.1035 15.8908L16.6138 14.0047L16.5943 13.9298H16.517H16.0187H15.9414L15.9219 14.0047L15.4322 15.8908L14.967 14.0058L14.9482 13.9298H14.8699H14.3264Z" fill="#0FD683" stroke="#0FD683" stroke-width="0.2"/>
<rect x="4.8" y="12.3298" width="14.4" height="6.34004" rx="0.8" stroke="#0FD683" stroke-width="0.4"/>
</svg>
