<svg width="24" height="24" viewBox="0 0 24 24" fill="none" xmlns="http://www.w3.org/2000/svg">
<circle cx="12" cy="12" r="12" fill="#FF8863"/>
<path fill-rule="evenodd" clip-rule="evenodd" d="M5 12.1433C5 8.19819 8.19819 5 12.1433 5C16.0885 5 19.2867 8.19819 19.2867 12.1433C19.2867 13.0261 19.1263 13.8725 18.8327 14.6544C18.7521 14.869 18.604 15.1785 18.5067 15.3767C18.4919 15.4067 18.4911 15.4379 18.4997 15.463L19.148 17.3504C19.3223 17.8578 18.8844 18.3646 18.3571 18.2659L16.4292 17.9048C16.4043 17.9001 16.3672 17.9048 16.3291 17.9324C16.0404 18.1415 15.7353 18.3296 15.4161 18.4944C14.4351 19.0009 13.3219 19.2867 12.1433 19.2867C8.19819 19.2867 5 16.0885 5 12.1433Z" fill="white"/>
<path d="M12.1436 13.0982V12.773C12.1436 12.3312 12.5211 11.9893 12.9141 11.7873C13.4587 11.5073 13.8313 10.9398 13.8313 10.2854C13.8313 9.35326 13.0757 8.59766 12.1436 8.59766C11.2115 8.59766 10.4559 9.35326 10.4559 10.2854" stroke="#FF8863" stroke-width="1.2" stroke-linecap="round" stroke-linejoin="round"/>
<path fill-rule="evenodd" clip-rule="evenodd" d="M12.1436 15.6896C12.5298 15.6896 12.8429 15.3765 12.8429 14.9903C12.8429 14.6041 12.5298 14.291 12.1436 14.291C11.7574 14.291 11.4443 14.6041 11.4443 14.9903C11.4443 15.3765 11.7574 15.6896 12.1436 15.6896Z" fill="#FF8863"/>
</svg>
