<svg width="24" height="24" viewBox="0 0 24 24" fill="none" xmlns="http://www.w3.org/2000/svg">
<circle cx="12" cy="12" r="12" fill="#33D0DE"/>
<path fill-rule="evenodd" clip-rule="evenodd" d="M15.7214 9.50137C15.7214 9.17 15.99 8.90137 16.3214 8.90137H18.988C19.3194 8.90137 19.588 9.17 19.588 9.50137C19.588 9.83274 19.3194 10.1014 18.988 10.1014H16.3214C15.99 10.1014 15.7214 9.83274 15.7214 9.50137Z" fill="white"/>
<path fill-rule="evenodd" clip-rule="evenodd" d="M16.7213 11.7499C16.7213 11.4185 16.9899 11.1499 17.3213 11.1499H18.988C19.3194 11.1499 19.588 11.4185 19.588 11.7499C19.588 12.0813 19.3194 12.3499 18.988 12.3499H17.3213C16.9899 12.3499 16.7213 12.0813 16.7213 11.7499Z" fill="white"/>
<path fill-rule="evenodd" clip-rule="evenodd" d="M6.06317 16.25C6.06317 14.317 7.63017 12.75 9.56317 12.75H14.5632C16.4962 12.75 18.0632 14.317 18.0632 16.25V16.75C18.0632 17.5784 17.3916 18.25 16.5632 18.25H7.56317C6.73474 18.25 6.06317 17.5784 6.06317 16.75V16.25Z" fill="white"/>
<path fill-rule="evenodd" clip-rule="evenodd" d="M9.06317 8.75C9.06317 7.09315 10.4063 5.75 12.0632 5.75C13.72 5.75 15.0632 7.09315 15.0632 8.75C15.0632 10.4069 13.72 11.75 12.0632 11.75C10.4063 11.75 9.06317 10.4069 9.06317 8.75Z" fill="white"/>
</svg>
