<svg width="16" height="16" viewBox="0 0 16 16" fill="none" xmlns="http://www.w3.org/2000/svg">
<path d="M7.9999 1.5999C4.46528 1.5999 1.5999 4.46528 1.5999 7.9999C1.5999 11.5345 4.46528 14.3999 7.9999 14.3999C11.5345 14.3999 14.3999 11.5345 14.3999 7.9999C14.3999 4.46528 11.5345 1.5999 7.9999 1.5999Z" fill="#4C6AFF"/>
<path d="M6.3999 6.78005V6.74705C6.3999 6.20539 6.67061 5.69958 7.12129 5.39912V5.39912C7.66545 5.03635 8.37436 5.03635 8.91852 5.39913L8.99151 5.44779C9.39659 5.71784 9.6399 6.17248 9.6399 6.65932V6.65932C9.6399 7.0792 9.45865 7.47865 9.14266 7.75514L8.6799 8.16005C8.37487 8.42695 8.1999 8.81254 8.1999 9.21786V10.02" stroke="white" stroke-width="1.2"/>
<path d="M8.0498 11.1953H8.3498" stroke="white" stroke-width="1.2" stroke-linecap="round"/>
</svg>
