<svg width="16" height="16" viewBox="0 0 16 16" fill="none" xmlns="http://www.w3.org/2000/svg">
<g clip-path="url(#clip0_8414_11508)">
<path d="M8 14.5C11.5899 14.5 14.5 11.5899 14.5 8C14.5 4.41015 11.5899 1.5 8 1.5C4.41015 1.5 1.5 4.41015 1.5 8C1.5 11.5899 4.41015 14.5 8 14.5Z" stroke="#6F7485" stroke-width="1.3"/>
<path d="M7.59157 8.1682H8.58357V11.7202H7.59157V8.1682ZM6.78357 7.1922V7.6882H9.16757V7.1922H6.78357ZM5.86357 6.5122H10.1516V8.3682H5.86357V6.5122ZM5.09557 8.8482H10.4796V9.7042H6.06357V11.3682H5.09557V8.8482ZM10.0236 8.8482H11.0076V10.4962C11.0076 10.9282 10.9196 11.1762 10.5996 11.3122C10.2796 11.4482 9.84757 11.4562 9.27157 11.4562C9.22357 11.1922 9.08757 10.8242 8.95957 10.5842C9.31957 10.6002 9.75157 10.6002 9.86357 10.6002C9.98357 10.5922 10.0236 10.5682 10.0236 10.4802V8.8482ZM7.48757 4.2002H8.47957V5.6722H7.48757V4.2002ZM4.55957 5.3042H11.4636V7.2402H10.5116V6.1282H5.47957V7.2402H4.55957V5.3042ZM5.19957 4.6002L6.07157 4.2562C6.30357 4.5122 6.54357 4.8642 6.65557 5.1122L5.73557 5.5202C5.64757 5.2642 5.41557 4.8722 5.19957 4.6002ZM9.87957 4.26419L10.9116 4.5762C10.6236 4.9122 10.3356 5.2242 10.1116 5.4322L9.30357 5.1442C9.50357 4.8962 9.74357 4.5282 9.87957 4.26419Z" fill="#6F7485"/>
<path fill-rule="evenodd" clip-rule="evenodd" d="M8.58404 8.36818V8.84818H11.008V10.4962C11.008 10.9282 10.92 11.1762 10.6 11.3122C10.28 11.4482 9.84804 11.4562 9.27204 11.4562C9.22539 11.1996 9.0956 10.8447 8.97082 10.6047C8.96722 10.5977 8.96363 10.5909 8.96004 10.5842C8.96773 10.5845 8.97545 10.5849 8.9832 10.5852C9.33835 10.6002 9.75443 10.6002 9.86404 10.6002C9.98404 10.5922 10.024 10.5682 10.024 10.4802V9.70418H8.58404V11.7202H7.59204V9.70418H6.06404V11.3682H5.09604V8.84818H7.59204V8.36818H5.86404V6.51218H10.152V8.36818H8.58404ZM7.57204 8.38818H5.84404V6.49218H10.172V8.38818H8.60404V8.82818H11.028V10.4962C11.028 10.713 11.006 10.8866 10.9422 11.0236C10.8778 11.1617 10.7718 11.2609 10.6079 11.3306C10.2833 11.4685 9.84673 11.4762 9.27204 11.4762H9.25535L9.25236 11.4598C9.20479 11.1981 9.06957 10.8321 8.94239 10.5936L8.92589 10.5626L8.96093 10.5642C9.31971 10.5801 9.75029 10.5802 9.86337 10.5802C9.9232 10.5761 9.95758 10.5682 9.97735 10.5539C9.99477 10.5414 10.004 10.5214 10.004 10.4802V9.72418H8.60404V11.7402H7.57204V9.72418H6.08404V11.3882H5.07604V8.82818H7.57204V8.38818ZM7.46804 4.18018H8.50004V5.28418H9.63725L9.27078 5.15355L9.28847 5.13162C9.48765 4.88464 9.7269 4.51777 9.86226 4.25502L9.86989 4.24021L10.9472 4.56591L10.9272 4.58919C10.7065 4.8467 10.4855 5.0904 10.2932 5.28418H11.484V7.26018H10.492V6.14818H5.50004V7.26018H4.54004V5.28418H5.6121C5.50058 5.06193 5.3385 4.80669 5.18438 4.61261L5.16759 4.59148L6.07757 4.23249L6.08686 4.24275C6.31991 4.4999 6.56122 4.85362 6.67427 5.10394L6.68255 5.1223L6.31753 5.28418H7.46804V4.18018ZM7.48804 5.30418H6.2231L6.65604 5.11218C6.65333 5.10618 6.65055 5.10012 6.64769 5.094C6.53243 4.8472 6.29843 4.50598 6.07204 4.25618L5.20004 4.60018C5.20434 4.6056 5.20865 4.61106 5.21297 4.61658C5.36584 4.81187 5.52509 5.06442 5.63446 5.28418C5.63779 5.29087 5.64108 5.29754 5.64432 5.30418H4.56004V7.24018H5.48004V6.12818H10.512V7.24018H11.464V5.30418H10.2449C10.2516 5.29757 10.2583 5.29091 10.265 5.28418C10.4559 5.09283 10.6766 4.85027 10.8978 4.59277C10.9025 4.58724 10.9073 4.58171 10.912 4.57618L9.88004 4.26418C9.74703 4.52238 9.51453 4.88006 9.31728 5.12766C9.31285 5.13322 9.30843 5.13873 9.30404 5.14418L9.75293 5.30418H8.48004V4.20018H7.48804V5.30418ZM9.16804 7.68818V7.19218H6.78404V7.68818H9.16804ZM6.80404 7.66818H9.14804V7.21218H6.80404V7.66818Z" fill="#6F7485"/>
</g>
<defs>
<clipPath id="clip0_8414_11508">
<rect width="16" height="16" fill="white"/>
</clipPath>
</defs>
</svg>
