<svg width="16" height="16" viewBox="0 0 16 16" fill="none" xmlns="http://www.w3.org/2000/svg">
<path fill-rule="evenodd" clip-rule="evenodd" d="M2 8C2 4.68629 4.68629 2 8 2C11.3137 2 14 4.68629 14 8C14 9.66376 13.3228 11.1694 12.229 12.2562C12.0796 10.7741 11.1439 9.52413 9.84543 8.92967C10.4137 8.44815 10.7768 7.73162 10.7768 6.92903C10.7768 5.47286 9.58168 4.3 8.13393 4.3C6.68617 4.3 5.49107 5.47286 5.49107 6.92903C5.49107 7.72243 5.84586 8.43173 6.40299 8.91304C5.03579 9.5012 4.02773 10.7649 3.79906 12.2839C2.68879 11.1951 2 9.67796 2 8ZM4.75 13.0444C5.68656 13.6491 6.8023 14 8 14C9.1977 14 10.3134 13.6491 11.25 13.0444L11.25 12.6741C11.25 10.9532 9.85489 9.55806 8.13393 9.55806C6.26504 9.55806 4.75 11.0731 4.75 12.942L4.75 13.0444ZM1 8C1 4.13401 4.13401 1 8 1C11.866 1 15 4.13401 15 8C15 11.866 11.866 15 8 15C4.13401 15 0.999999 11.866 1 8ZM9.77679 6.92903C9.77679 7.82452 9.03784 8.55806 8.13393 8.55806C7.23002 8.55806 6.49107 7.82452 6.49107 6.92903C6.49107 6.03354 7.23002 5.3 8.13393 5.3C9.03784 5.3 9.77679 6.03354 9.77679 6.92903Z" fill="#7D8085"/>
</svg>
