<svg width="16" height="16" viewBox="0 0 16 16" fill="none" xmlns="http://www.w3.org/2000/svg">
    <path d="M14.6431 7.99979C14.6431 8.82159 14.4939 9.60854 14.2211 10.335C14.1032 10.6489 13.8004 11.2406 13.8004 11.2406L14.6431 13.6941L12.1097 13.2196C11.7783 13.4809 11.4213 13.7114 11.0432 13.9066C10.1314 14.3773 9.09666 14.6431 7.99979 14.6431C4.33077 14.6431 1.35645 11.6688 1.35645 7.99979C1.35645 4.33077 4.33077 1.35645 7.99979 1.35645C11.6688 1.35645 14.6431 4.33077 14.6431 7.99979Z" stroke="#7D8085"/>
    <path d="M8.10957 4.1875C7.3344 4.1875 6.72684 4.40748 6.28689 4.85791C5.84693 5.29787 5.62695 5.89495 5.62695 6.65964H6.72684C6.72684 6.19873 6.82112 5.84258 7.00967 5.59117C7.21918 5.28739 7.56486 5.14074 8.03624 5.14074C8.41335 5.14074 8.71712 5.24549 8.92663 5.45499C9.12566 5.6645 9.23041 5.94733 9.23041 6.31396C9.23041 6.58631 9.12566 6.83772 8.9371 7.07864L8.75903 7.27767C8.10957 7.85381 7.71151 8.28329 7.57533 8.57659C7.42868 8.84895 7.36583 9.18415 7.36583 9.57173V9.74981H8.48667V9.57173C8.48667 9.32033 8.53905 9.08988 8.65427 8.88037C8.74855 8.69182 8.8952 8.50327 9.09423 8.33566C9.58656 7.90618 9.87987 7.63383 9.97414 7.5186C10.236 7.1834 10.3722 6.75391 10.3722 6.24063C10.3722 5.61212 10.1627 5.10931 9.74369 4.74268C9.32468 4.36558 8.77998 4.1875 8.10957 4.1875ZM7.92101 10.3155C7.71151 10.3155 7.52296 10.3783 7.3763 10.525C7.22965 10.6611 7.15633 10.8392 7.15633 11.0592C7.15633 11.2687 7.22965 11.4468 7.3763 11.5934C7.52296 11.7401 7.71151 11.8134 7.92101 11.8134C8.13052 11.8134 8.31907 11.7401 8.46572 11.6039C8.61237 11.4573 8.69617 11.2792 8.69617 11.0592C8.69617 10.8392 8.62285 10.6611 8.4762 10.525C8.32954 10.3783 8.14099 10.3155 7.92101 10.3155Z" fill="#7D8085"/>
</svg>
    