<svg width="16" height="16" viewBox="0 0 16 16" fill="none" xmlns="http://www.w3.org/2000/svg">
<path d="M5.25 8.91683L7.36538 10.7502L10.75 7.0835" stroke="#7D8085" stroke-linecap="round" stroke-linejoin="round"/>
<path d="M5.25 2.93437H3.3C2.85817 2.93437 2.5 3.29255 2.5 3.73437V13.6168C2.5 14.0587 2.85817 14.4168 3.3 14.4168H12.7C13.1418 14.4168 13.5 14.0587 13.5 13.6168V3.73437C13.5 3.29255 13.1418 2.93437 12.7 2.93437H10.75M6.05 4.28525H9.95C10.3918 4.28525 10.75 3.92708 10.75 3.48525V2.3835C10.75 1.94167 10.3918 1.5835 9.95 1.5835H6.05C5.60817 1.5835 5.25 1.94167 5.25 2.3835V3.48525C5.25 3.92708 5.60817 4.28525 6.05 4.28525Z" stroke="#7D8085" stroke-linejoin="round"/>
</svg>
