<svg width="16" height="16" viewBox="0 0 16 16" fill="none" xmlns="http://www.w3.org/2000/svg">
<path d="M4.79984 2.91254C4.92644 2.75717 5.11624 2.66699 5.31666 2.66699H10.8405C11.0463 2.66699 11.2405 2.76197 11.3668 2.92437L14.3097 6.70819C14.5142 6.97111 14.4933 7.34462 14.2607 7.58303L8.47711 13.5112C8.21549 13.7794 7.78435 13.7794 7.52273 13.5112L1.74853 7.59265C1.51191 7.35011 1.49485 6.96866 1.70889 6.70598L4.79984 2.91254Z" stroke="#7D8085"/>
<path fill-rule="evenodd" clip-rule="evenodd" d="M5.66675 5.66699H7.5491L8.17655 8.00033L9.74518 5.66699H11.0001L7.85667 10.4491C7.74238 10.623 7.4751 10.573 7.43134 10.3696L6.60792 6.54199H5.66675V5.66699Z" fill="#7D8085"/>
</svg>
