<svg width="16" height="17" viewBox="0 0 16 17" fill="none" xmlns="http://www.w3.org/2000/svg">
<path d="M8.19474 7.13405L7.84075 7.48716L8.54697 8.19514L8.90096 7.84203L8.19474 7.13405ZM8.90096 7.84203L13.8051 2.95006L13.0989 2.24208L8.19474 7.13405L8.90096 7.84203Z" fill="#7D8085"/>
<path d="M7 2.62207H3.3C2.85817 2.62207 2.5 2.98024 2.5 3.42207V12.8221C2.5 13.2639 2.85817 13.6221 3.3 13.6221H12.7C13.1418 13.6221 13.5 13.2645 13.5 12.8227C13.5 11.8768 13.5 10.2841 13.5 9.12207M9.5 2.62207H13.3C13.4105 2.62207 13.5 2.71205 13.5 2.82251C13.5 4.26181 13.5 5.12805 13.5 6.62207" stroke="#7D8085" stroke-linecap="square"/>
</svg>
