<svg width="33" height="32" viewBox="0 0 33 32" fill="none" xmlns="http://www.w3.org/2000/svg">
<path fill-rule="evenodd" clip-rule="evenodd" d="M16.6667 25.6736C22.7419 25.6736 27.6667 20.5879 27.6667 17.1181C27.6667 13.6482 22.7419 8.5625 16.6667 8.5625C10.5916 8.5625 5.66675 13.6517 5.66675 17.1181C5.66675 20.5844 10.5916 25.6736 16.6667 25.6736Z" fill="#AFBAD6"/>
<path d="M16.6668 20.4274C18.5078 20.4274 20.0002 18.935 20.0002 17.0941C20.0002 15.2531 18.5078 13.7607 16.6668 13.7607C14.8259 13.7607 13.3335 15.2531 13.3335 17.0941C13.3335 18.935 14.8259 20.4274 16.6668 20.4274Z" stroke="white" stroke-width="2" stroke-linecap="round"/>
<circle cx="16.6667" cy="16" r="16" fill="#33D0DE"/>
<g clip-path="url(#clip0_6951_141297)">
<path d="M8 22.0007C8 19.4233 10.0893 17.334 12.6667 17.334H19.3333C21.9107 17.334 24 19.4233 24 22.0007V22.6673C24 23.7719 23.1046 24.6673 22 24.6673H10C8.89543 24.6673 8 23.7719 8 22.6673V22.0007Z" fill="white"/>
<path fill-rule="evenodd" clip-rule="evenodd" d="M12 12.001C12 9.79184 13.7909 8.00098 16 8.00098C18.2091 8.00098 20 9.79184 20 12.001C20 14.2101 18.2091 16.001 16 16.001C13.7909 16.001 12 14.2101 12 12.001Z" fill="white"/>
<path d="M21 14.334L25.6667 14.334" stroke="white" stroke-width="1.33333" stroke-linecap="round"/>
<path d="M23.3333 12.001L23.3333 16.6676" stroke="white" stroke-width="1.33333" stroke-linecap="round"/>
</g>
<defs>
<clipPath id="clip0_6951_141297">
<rect width="21.3333" height="21.3333" fill="white" transform="translate(6 5.33398)"/>
</clipPath>
</defs>
</svg>
