<svg width="33" height="32" viewBox="0 0 33 32" fill="none" xmlns="http://www.w3.org/2000/svg">
<path fill-rule="evenodd" clip-rule="evenodd" d="M16.3333 25.6736C22.4084 25.6736 27.3333 20.5879 27.3333 17.1181C27.3333 13.6482 22.4084 8.5625 16.3333 8.5625C10.2582 8.5625 5.33331 13.6517 5.33331 17.1181C5.33331 20.5844 10.2582 25.6736 16.3333 25.6736Z" fill="#AFBAD6"/>
<path d="M16.3333 20.4274C18.1742 20.4274 19.6666 18.935 19.6666 17.0941C19.6666 15.2531 18.1742 13.7607 16.3333 13.7607C14.4924 13.7607 13 15.2531 13 17.0941C13 18.935 14.4924 20.4274 16.3333 20.4274Z" stroke="white" stroke-width="2" stroke-linecap="round"/>
<circle cx="16.3333" cy="16" r="16" fill="#FFB54C"/>
<path fill-rule="evenodd" clip-rule="evenodd" d="M16.3313 22.6889C21.1914 22.6889 25.1313 18.6204 25.1313 15.8444C25.1313 13.0685 21.1914 9 16.3313 9C11.4712 9 7.53128 13.0714 7.53128 15.8444C7.53128 18.6175 11.4712 22.6889 16.3313 22.6889Z" fill="white"/>
<path d="M16.3334 18.4993C17.8061 18.4993 19.0001 17.3054 19.0001 15.8327C19.0001 14.3599 17.8061 13.166 16.3334 13.166C14.8606 13.166 13.6667 14.3599 13.6667 15.8327C13.6667 17.3054 14.8606 18.4993 16.3334 18.4993Z" stroke="#FFB54C" stroke-width="1.6" stroke-linecap="round"/>
</svg>
