<svg width="32" height="32" viewBox="0 0 32 32" fill="none" xmlns="http://www.w3.org/2000/svg">
<circle cx="16" cy="16" r="16" fill="#3081F2"/>
<path d="M9.55944 7.27807C9.20699 6.97597 9.42063 6.39844 9.88483 6.39844H22.1149C22.5791 6.39844 22.7928 6.97597 22.4403 7.27807L16.3253 12.5195C16.138 12.68 15.8617 12.68 15.6745 12.5195L9.55944 7.27807Z" fill="white"/>
<path fill-rule="evenodd" clip-rule="evenodd" d="M9.0332 15.4665C8.75706 15.4665 8.5332 15.2426 8.5332 14.9665V9.0869C8.5332 8.65973 9.03426 8.42927 9.3586 8.70728L15.6528 14.1023C15.8525 14.2735 16.1472 14.2735 16.347 14.1023L22.6411 8.70728C22.9655 8.42927 23.4665 8.65973 23.4665 9.0869V14.9665C23.4665 15.2426 23.2427 15.4665 22.9665 15.4665H9.0332Z" fill="white"/>
<path d="M5.11162 21.0921C5.12016 21.0794 5.12735 21.0699 5.13823 21.0592C5.48081 20.722 9.21319 17.4777 9.45751 17.2468C9.57736 17.1064 9.74703 17.0179 9.93081 17H16.0073C16.0488 17 16.0902 17.0025 16.1309 17.011C16.3423 17.0551 17.0283 17.2528 17.0283 17.9628C17.0351 18.2475 16.9434 18.5257 16.7687 18.7506C16.5941 18.9755 16.3471 19.1331 16.0696 19.197C15.4594 19.308 14.3886 19.5548 13.4172 19.6659C13.0824 19.6659 13.3683 19.8782 13.4118 19.9092C13.4155 19.9118 13.4191 19.9142 13.4228 19.9167L14.4181 20.5774C14.5774 20.6833 14.7645 20.7397 14.9558 20.7397H18.4038C18.6027 20.7397 18.796 20.6794 18.9581 20.5641C19.4704 20.1996 20.6732 19.3304 21.5982 18.5552C23.3284 17.2927 24.0382 18.4667 24.0859 18.5506C24.0878 18.5539 24.0893 18.5568 24.091 18.5603C24.1166 18.6121 24.3227 19.0505 24.0885 19.271C23.1296 20.1114 19.6423 23.2205 19.4066 23.4551C19.3264 23.5258 19.2292 23.5744 19.1244 23.5961C19.0706 23.6072 19.0157 23.611 18.9612 23.6075C18.8588 23.601 18.7573 23.5784 18.6547 23.5784H11.7114C11.3587 23.5762 11.0176 23.7037 10.7527 23.9365C10.4885 24.1678 9.66941 24.899 9.30807 25.1706C8.90579 25.4947 8.66141 25.3824 8.54466 25.2744C8.47951 25.2142 8.43069 25.1377 8.37013 25.0728L5.34503 21.8322C5.26518 21.7467 5.15748 21.6876 5.08317 21.5972V21.5972C5.04542 21.5513 5.01932 21.4969 5.0071 21.4388C4.99488 21.3806 4.99689 21.3203 5.01298 21.2631C5.0271 21.2128 5.05169 21.1662 5.08505 21.1263C5.09433 21.1152 5.10353 21.104 5.11162 21.0921V21.0921Z" fill="white"/>
</svg>
