<svg width="16" height="16" viewBox="0 0 16 16" fill="none" xmlns="http://www.w3.org/2000/svg">
<path d="M8.0001 14.4C11.5347 14.4 14.4001 11.5346 14.4001 8C14.4001 4.46538 11.5347 1.6 8.0001 1.6C4.46548 1.6 1.6001 4.46538 1.6001 8C1.6001 11.5346 4.46548 14.4 8.0001 14.4Z" fill="#4C6AFF"/>
<path fill-rule="evenodd" clip-rule="evenodd" d="M8.68031 4.96035C8.68031 4.73943 8.50123 4.56035 8.28031 4.56035L7.72031 4.56035C7.4994 4.56035 7.32031 4.73943 7.32031 4.96035V5.52035C7.32031 5.74126 7.4994 5.92035 7.72031 5.92035H8.28031C8.50123 5.92035 8.68031 5.74126 8.68031 5.52035V4.96035ZM8.68031 7.24004C8.68031 7.01912 8.50123 6.84004 8.28031 6.84004H7.72031C7.4994 6.84004 7.32031 7.01912 7.32031 7.24004V11C7.32031 11.2209 7.4994 11.4 7.72031 11.4H8.28031C8.50123 11.4 8.68031 11.2209 8.68031 11L8.68031 7.24004Z" fill="white"/>
</svg>
