<svg xmlns="http://www.w3.org/2000/svg" width="16" height="16" viewBox="0 0 16 16" fill="none">
  <path fill-rule="evenodd" clip-rule="evenodd" d="M8.5999 2.00002C8.5999 1.66865 8.33127 1.40002 7.9999 1.40002C7.66853 1.40002 7.3999 1.66865 7.3999 2.00002V7.40002H1.9999C1.66853 7.40002 1.3999 7.66865 1.3999 8.00002C1.3999 8.3314 1.66853 8.60002 1.9999 8.60002H7.3999V14C7.3999 14.3314 7.66853 14.6 7.9999 14.6C8.33127 14.6 8.5999 14.3314 8.5999 14V8.60002H13.9999C14.3313 8.60002 14.5999 8.3314 14.5999 8.00002C14.5999 7.66865 14.3313 7.40002 13.9999 7.40002H8.5999V2.00002Z" fill="#6F7485"/>
</svg>
