<svg width="48" height="48" viewBox="0 0 48 48" fill="none" xmlns="http://www.w3.org/2000/svg">
<mask id="path-1-outside-1_22154_130936" maskUnits="userSpaceOnUse" x="7.02734" y="15.8223" width="19" height="20" fill="black">
<rect fill="white" x="7.02734" y="15.8223" width="19" height="20"/>
<path fill-rule="evenodd" clip-rule="evenodd" d="M19.2217 18.971C19.3077 18.3707 18.8439 17.8325 18.2375 17.8291L17.0323 17.8223C16.5327 17.8195 16.1077 18.1858 16.0368 18.6804L15.3558 23.4311C15.2852 23.9235 14.8634 24.2892 14.3659 24.2892H10.1769C9.67134 24.2892 9.24532 24.6665 9.1842 25.1683L9.03482 26.3948C8.96225 26.9906 9.42725 27.5157 10.0275 27.5157H13.6167C14.2255 27.5157 14.693 28.055 14.6066 28.6576L14.0071 32.8403C13.921 33.4405 14.3846 33.9785 14.9909 33.9821L16.1961 33.9894C16.6959 33.9924 17.1211 33.626 17.192 33.1313L17.8739 28.3738C17.9445 27.8814 18.3663 27.5157 18.8638 27.5157H22.9455C23.451 27.5157 23.877 27.1384 23.9382 26.6366L24.0875 25.4101C24.1601 24.8143 23.6951 24.2892 23.0949 24.2892H19.6129C19.0042 24.2892 18.5367 23.7499 18.6231 23.1473L19.2217 18.971Z"/>
</mask>
<g filter="url(#filter0_i_22154_130936)">
<path fill-rule="evenodd" clip-rule="evenodd" d="M19.2217 18.971C19.3077 18.3707 18.8439 17.8325 18.2375 17.8291L17.0323 17.8223C16.5327 17.8195 16.1077 18.1858 16.0368 18.6804L15.3558 23.4311C15.2852 23.9235 14.8634 24.2892 14.3659 24.2892H10.1769C9.67134 24.2892 9.24532 24.6665 9.1842 25.1683L9.03482 26.3948C8.96225 26.9906 9.42725 27.5157 10.0275 27.5157H13.6167C14.2255 27.5157 14.693 28.055 14.6066 28.6576L14.0071 32.8403C13.921 33.4405 14.3846 33.9785 14.9909 33.9821L16.1961 33.9894C16.6959 33.9924 17.1211 33.626 17.192 33.1313L17.8739 28.3738C17.9445 27.8814 18.3663 27.5157 18.8638 27.5157H22.9455C23.451 27.5157 23.877 27.1384 23.9382 26.6366L24.0875 25.4101C24.1601 24.8143 23.6951 24.2892 23.0949 24.2892H19.6129C19.0042 24.2892 18.5367 23.7499 18.6231 23.1473L19.2217 18.971Z" fill="url(#paint0_linear_22154_130936)"/>
</g>
<path d="M18.6231 23.1473L17.1382 22.9345L18.6231 23.1473ZM16.1961 33.9894L16.1871 35.4894L16.1961 33.9894ZM14.9909 33.9821L14.9999 32.4822L14.9909 33.9821ZM19.2217 18.971L17.7369 18.7581L19.2217 18.971ZM16.0368 18.6804L14.5519 18.4675L16.0368 18.6804ZM17.0238 19.3223L18.229 19.3291L18.246 16.3291L17.0408 16.3223L17.0238 19.3223ZM16.8406 23.644L17.5216 18.8932L14.5519 18.4675L13.871 23.2183L16.8406 23.644ZM10.1769 25.7892H14.3659V22.7892H10.1769V25.7892ZM10.5238 26.5761L10.6732 25.3497L7.6952 24.987L7.54582 26.2134L10.5238 26.5761ZM13.6167 26.0157H10.0275V29.0157H13.6167V26.0157ZM15.4919 33.0531L16.0914 28.8704L13.1218 28.4447L12.5222 32.6274L15.4919 33.0531ZM16.2051 32.4894L14.9999 32.4822L14.9819 35.4821L16.1871 35.4894L16.2051 32.4894ZM16.3891 28.161L15.7072 32.9185L18.6768 33.3441L19.3587 28.5866L16.3891 28.161ZM22.9455 26.0157H18.8638V29.0157H22.9455V26.0157ZM22.5985 25.2288L22.4492 26.4552L25.4272 26.818L25.5765 25.5915L22.5985 25.2288ZM19.6129 25.7892H23.0949V22.7892H19.6129V25.7892ZM17.7369 18.7581L17.1382 22.9345L20.1079 23.3602L20.7065 19.1838L17.7369 18.7581ZM19.6129 22.7892C19.9173 22.7892 20.1511 23.0589 20.1079 23.3602L17.1382 22.9345C16.9223 24.441 18.0911 25.7892 19.6129 25.7892V22.7892ZM25.5765 25.5915C25.758 24.1019 24.5955 22.7892 23.0949 22.7892V25.7892C22.7948 25.7892 22.5623 25.5267 22.5985 25.2288L25.5765 25.5915ZM22.9455 29.0157C24.2093 29.0157 25.2744 28.0725 25.4272 26.818L22.4492 26.4552C22.4797 26.2043 22.6927 26.0157 22.9455 26.0157V29.0157ZM19.3587 28.5866C19.3235 28.8329 19.1125 29.0157 18.8638 29.0157V26.0157C17.6201 26.0157 16.5656 26.9299 16.3891 28.161L19.3587 28.5866ZM16.1871 35.4894C17.4365 35.4969 18.4996 34.5809 18.6768 33.3441L15.7072 32.9185C15.7426 32.6711 15.9553 32.4879 16.2051 32.4894L16.1871 35.4894ZM12.5222 32.6274C12.3071 34.1279 13.4661 35.473 14.9819 35.4821L14.9999 32.4822C15.3031 32.484 15.5349 32.753 15.4919 33.0531L12.5222 32.6274ZM13.6167 29.0157C13.3124 29.0157 13.0786 28.746 13.1218 28.4447L16.0914 28.8704C16.3074 27.364 15.1386 26.0157 13.6167 26.0157V29.0157ZM7.54582 26.2134C7.3644 27.703 8.5269 29.0157 10.0275 29.0157V26.0157C10.3276 26.0157 10.5601 26.2782 10.5238 26.5761L7.54582 26.2134ZM10.1769 22.7892C8.91305 22.7892 7.848 23.7324 7.6952 24.987L10.6732 25.3497C10.6426 25.6006 10.4296 25.7892 10.1769 25.7892V22.7892ZM13.871 23.2183C13.9063 22.9721 14.1172 22.7892 14.3659 22.7892V25.7892C15.6096 25.7892 16.6641 24.875 16.8406 23.644L13.871 23.2183ZM18.229 19.3291C17.9257 19.3274 17.6938 19.0583 17.7369 18.7581L20.7065 19.1838C20.9216 17.683 19.7621 16.3377 18.246 16.3291L18.229 19.3291ZM17.0408 16.3223C15.7918 16.3152 14.7292 17.2311 14.5519 18.4675L17.5216 18.8932C17.4861 19.1405 17.2736 19.3237 17.0238 19.3223L17.0408 16.3223Z" fill="#D63C3C" mask="url(#path-1-outside-1_22154_130936)"/>
<g filter="url(#filter1_i_22154_130936)">
<path d="M39 10.5186C39 10.1729 38.9031 10 38.7093 10C38.0308 10 36.3833 10.3025 33.7181 10.9076C31.2488 11.5761 29.4616 12.1373 28.3201 12.5586C28.1264 12.6301 27.9969 12.816 28.0169 13.0214C28.0708 13.5772 28.2539 14.1791 28.5663 14.8272C28.6585 15.0184 28.8668 15.1219 29.0762 15.0873C30.3431 14.8784 32.1119 14.5171 34.3545 13.9784C34.6991 13.8957 35.02 14.1865 34.97 14.5373C33.6892 23.5317 32.721 31.4597 32.1502 38.3591C32.1315 38.5847 32.2667 38.7962 32.4868 38.8489C32.9071 38.9496 33.4055 39 33.9604 39C34.4372 39 34.8098 38.9814 35.0918 38.9564C35.3123 38.9368 35.4844 38.7594 35.5154 38.5402C37.8069 22.3468 39 13.0063 39 10.5186Z" fill="url(#paint1_linear_22154_130936)"/>
</g>
<path d="M33.552 10.1762L33.537 10.1796L33.5221 10.1837C31.0424 10.855 29.2314 11.4229 28.0604 11.855C27.5807 12.032 27.2142 12.5146 27.2704 13.0938C27.3349 13.7588 27.5505 14.447 27.8907 15.1528C28.1329 15.6554 28.6733 15.9139 29.1982 15.8273C30.4203 15.6258 32.0884 15.2873 34.1763 14.7921C32.9198 23.6453 31.9677 31.4697 31.4027 38.2973C31.3574 38.8457 31.6888 39.4289 32.312 39.5782C32.804 39.6962 33.3636 39.75 33.9604 39.75C34.4564 39.75 34.8513 39.7307 35.1581 39.7035C35.7563 39.6504 36.1826 39.1785 36.258 38.6453C37.4039 30.5476 38.2757 24.1593 38.8612 19.4829C39.4438 14.8299 39.75 11.8198 39.75 10.5186C39.75 10.3003 39.7237 10.0165 39.5815 9.7629C39.5041 9.62477 39.3873 9.4874 39.2198 9.38776C39.0513 9.28762 38.8726 9.25 38.7093 9.25C38.2943 9.25 37.6518 9.3382 36.8242 9.48906C35.9792 9.64309 34.8892 9.87264 33.552 10.1762Z" stroke="#D63C3C" stroke-width="1.5"/>
<defs>
<filter id="filter0_i_22154_130936" x="7.52734" y="16.3223" width="19.0679" height="20.167" filterUnits="userSpaceOnUse" color-interpolation-filters="sRGB">
<feFlood flood-opacity="0" result="BackgroundImageFix"/>
<feBlend mode="normal" in="SourceGraphic" in2="BackgroundImageFix" result="shape"/>
<feColorMatrix in="SourceAlpha" type="matrix" values="0 0 0 0 0 0 0 0 0 0 0 0 0 0 0 0 0 0 127 0" result="hardAlpha"/>
<feOffset dx="1" dy="1"/>
<feGaussianBlur stdDeviation="2.5"/>
<feComposite in2="hardAlpha" operator="arithmetic" k2="-1" k3="1"/>
<feColorMatrix type="matrix" values="0 0 0 0 1 0 0 0 0 0.991667 0 0 0 0 0.991918 0 0 0 0.5 0"/>
<feBlend mode="normal" in2="shape" result="effect1_innerShadow_22154_130936"/>
</filter>
<filter id="filter1_i_22154_130936" x="26.5146" y="8.5" width="14.9854" height="33" filterUnits="userSpaceOnUse" color-interpolation-filters="sRGB">
<feFlood flood-opacity="0" result="BackgroundImageFix"/>
<feBlend mode="normal" in="SourceGraphic" in2="BackgroundImageFix" result="shape"/>
<feColorMatrix in="SourceAlpha" type="matrix" values="0 0 0 0 0 0 0 0 0 0 0 0 0 0 0 0 0 0 127 0" result="hardAlpha"/>
<feOffset dx="1" dy="1"/>
<feGaussianBlur stdDeviation="2.5"/>
<feComposite in2="hardAlpha" operator="arithmetic" k2="-1" k3="1"/>
<feColorMatrix type="matrix" values="0 0 0 0 1 0 0 0 0 0.991667 0 0 0 0 0.991918 0 0 0 0.5 0"/>
<feBlend mode="normal" in2="shape" result="effect1_innerShadow_22154_130936"/>
</filter>
<linearGradient id="paint0_linear_22154_130936" x1="16.762" y1="17.0298" x2="16.762" y2="35.4642" gradientUnits="userSpaceOnUse">
<stop stop-color="#FD5B6B"/>
<stop offset="1" stop-color="#EF5539"/>
</linearGradient>
<linearGradient id="paint1_linear_22154_130936" x1="33.5" y1="10" x2="33.5" y2="39" gradientUnits="userSpaceOnUse">
<stop stop-color="#FD5B6B"/>
<stop offset="1" stop-color="#EF5539"/>
</linearGradient>
</defs>
</svg>
