<svg width="32" height="32" viewBox="0 0 32 32" fill="none" xmlns="http://www.w3.org/2000/svg">
<rect x="0.5" y="0.5" width="31" height="31" rx="1.5" fill="white"/>
<path fill-rule="evenodd" clip-rule="evenodd" d="M16.6 10.0004C16.6 9.66902 16.3314 9.40039 16 9.40039C15.6687 9.40039 15.4 9.66902 15.4 10.0004V15.4004H10C9.66865 15.4004 9.40002 15.669 9.40002 16.0004C9.40002 16.3318 9.66865 16.6004 10 16.6004H15.4V22.0004C15.4 22.3318 15.6687 22.6004 16 22.6004C16.3314 22.6004 16.6 22.3318 16.6 22.0004V16.6004H22C22.3314 16.6004 22.6 16.3318 22.6 16.0004C22.6 15.669 22.3314 15.4004 22 15.4004H16.6V10.0004Z" fill="#626E85"/>
<rect x="0.5" y="0.5" width="31" height="31" rx="1.5" stroke="#E1E6ED"/>
</svg>
