<svg width="32" height="32" viewBox="0 0 32 32" fill="none" xmlns="http://www.w3.org/2000/svg">
<rect width="32" height="32" rx="16" fill="#4C6AFF"/>
<g clip-path="url(#clip0_9427_136353)">
<path d="M21.3333 22.6666H12C11.4696 22.6666 10.9609 22.4559 10.5858 22.0808C10.2107 21.7057 10 21.197 10 20.6666V11.3333C10 10.8028 10.2107 10.2941 10.5858 9.91904C10.9609 9.54397 11.4696 9.33325 12 9.33325H21.3333C21.5101 9.33325 21.6797 9.40349 21.8047 9.52851C21.9298 9.65354 22 9.82311 22 9.99992V21.9999C22 22.1767 21.9298 22.3463 21.8047 22.4713C21.6797 22.5963 21.5101 22.6666 21.3333 22.6666ZM20.6667 21.3333V19.9999H12C11.8232 19.9999 11.6536 20.0702 11.5286 20.1952C11.4036 20.3202 11.3333 20.4898 11.3333 20.6666C11.3333 20.8434 11.4036 21.013 11.5286 21.138C11.6536 21.263 11.8232 21.3333 12 21.3333H20.6667ZM16 14.6666C16.3536 14.6666 16.6928 14.5261 16.9428 14.2761C17.1929 14.026 17.3333 13.6869 17.3333 13.3333C17.3333 12.9796 17.1929 12.6405 16.9428 12.3904C16.6928 12.1404 16.3536 11.9999 16 11.9999C15.6464 11.9999 15.3072 12.1404 15.0572 12.3904C14.8071 12.6405 14.6667 12.9796 14.6667 13.3333C14.6667 13.6869 14.8071 14.026 15.0572 14.2761C15.3072 14.5261 15.6464 14.6666 16 14.6666ZM14 17.3333H18C18 16.8028 17.7893 16.2941 17.4142 15.919C17.0391 15.544 16.5304 15.3333 16 15.3333C15.4696 15.3333 14.9609 15.544 14.5858 15.919C14.2107 16.2941 14 16.8028 14 17.3333Z" fill="white"/>
</g>
<defs>
<clipPath id="clip0_9427_136353">
<rect width="16" height="16" fill="white" transform="translate(8 8)"/>
</clipPath>
</defs>
</svg>
