<svg width="28" height="28" viewBox="0 0 28 28" fill="none" xmlns="http://www.w3.org/2000/svg">
<g clip-path="url(#clip0_9548_12703)">
<path d="M27.9974 14C28.1374 22.6897 22.6896 28.1319 13.9999 27.9976C5.31019 28.1319 -0.132066 22.6897 0.00231051 14C-0.132066 5.31031 5.31019 -0.131944 13.9999 0.00243258C22.6896 -0.131944 28.1318 5.31031 27.9974 14Z" fill="#4ED89D"/>
<path d="M27.9589 15.4932C27.5334 9.30632 23.3061 5.49898 16.8001 5.59976C9.85168 5.48778 5.49004 9.84942 5.60202 16.7978C5.49564 23.3039 9.30858 27.5312 15.4899 27.9567C22.819 27.5088 27.511 22.8168 27.9589 15.4932Z" fill="#44D39C"/>
<path d="M27.7676 17.2254C26.9557 13.4404 23.9659 11.1336 19.5986 11.2008C14.3859 11.1168 11.1161 14.3866 11.2001 19.5993C11.1329 23.9666 13.4397 26.9565 17.219 27.7683C22.9916 26.8277 26.827 22.9923 27.7676 17.2254Z" fill="#3ACC97"/>
<path d="M27.2807 19.297C26.3792 17.6845 24.6659 16.7663 22.3983 16.7999C18.9213 16.7439 16.7433 18.9219 16.7993 22.3989C16.7601 24.6665 17.6839 26.3798 19.2909 27.2813C21.1844 26.7253 22.9081 25.703 24.304 24.3081C25.6999 22.9132 26.7234 21.1902 27.2807 19.297Z" fill="#30C694"/>
<path d="M17.5747 9.67624C17.657 9.67624 17.7315 9.72532 17.7639 9.80102L19.954 14.9112C19.965 14.9369 19.9706 14.9645 19.9706 14.9923V18.1174C19.9706 18.2311 19.8785 18.3233 19.7648 18.3233H9.05888C8.94518 18.3233 8.853 18.2311 8.853 18.1174V14.9923C8.853 14.9645 8.85866 14.9369 8.86964 14.9112L11.0597 9.80102C11.0922 9.72532 11.1666 9.67624 11.249 9.67624H17.5747Z" stroke="white" stroke-width="1.23529"/>
<line x1="9.05884" y1="15.0288" x2="19.7647" y2="15.0288" stroke="white" stroke-width="1.23529"/>
<path d="M13.1765 12.7646L14 13.5881L16.0589 11.5293" stroke="white" stroke-opacity="0.8" stroke-width="1.23529" stroke-linecap="round" stroke-linejoin="round"/>
</g>
<defs>
<clipPath id="clip0_9548_12703">
<rect width="28" height="28" fill="white"/>
</clipPath>
</defs>
</svg>
