<svg width="14" height="13" viewBox="0 0 14 13" fill="none" xmlns="http://www.w3.org/2000/svg">
<path d="M1.00016 0.00146484H13.0002C13.177 0.00146484 13.3465 0.0717027 13.4716 0.196727C13.5966 0.321751 13.6668 0.491321 13.6668 0.668132V11.3348C13.6668 11.5116 13.5966 11.6812 13.4716 11.8062C13.3465 11.9312 13.177 12.0015 13.0002 12.0015H1.00016C0.823352 12.0015 0.653782 11.9312 0.528758 11.8062C0.403734 11.6812 0.333496 11.5116 0.333496 11.3348V0.668132C0.333496 0.491321 0.403734 0.321751 0.528758 0.196727C0.653782 0.0717027 0.823352 0.00146484 1.00016 0.00146484ZM7.04016 5.79013L2.7655 2.16013L1.90216 3.17613L7.04883 7.54613L12.1028 3.1728L11.2308 2.16413L7.04083 5.79013H7.04016Z" fill="#4C6AFF"/>
</svg>
