<svg width="32" height="32" viewBox="0 0 32 32" fill="none" xmlns="http://www.w3.org/2000/svg">
<rect width="32" height="32" rx="16" fill="#00CCAA"/>
<g clip-path="url(#clip0_8944_137790)">
<path d="M9.3335 22.666C9.3335 21.2515 9.8954 19.895 10.8956 18.8948C11.8958 17.8946 13.2523 17.3327 14.6668 17.3327C16.0813 17.3327 17.4379 17.8946 18.4381 18.8948C19.4383 19.895 20.0002 21.2515 20.0002 22.666H9.3335ZM14.6668 16.666C12.4568 16.666 10.6668 14.876 10.6668 12.666C10.6668 10.456 12.4568 8.66602 14.6668 8.66602C16.8768 8.66602 18.6668 10.456 18.6668 12.666C18.6668 14.876 16.8768 16.666 14.6668 16.666ZM21.3335 19.3327H24.0002V20.666H21.3335V19.3327ZM19.3335 15.9993H24.0002V17.3327H19.3335V15.9993ZM20.6668 12.666H24.0002V13.9993H20.6668V12.666Z" fill="white"/>
</g>
<defs>
<clipPath id="clip0_8944_137790">
<rect width="16" height="16" fill="white" transform="translate(8 8)"/>
</clipPath>
</defs>
</svg>
