<svg width="32" height="32" viewBox="0 0 32 32" fill="none" xmlns="http://www.w3.org/2000/svg">
<rect width="32" height="32" rx="16" fill="#FE6C5E"/>
<path d="M9.3335 15.3327H22.6668V21.3327C22.6668 21.5095 22.5966 21.6791 22.4716 21.8041C22.3465 21.9291 22.177 21.9993 22.0002 21.9993H10.0002C9.82335 21.9993 9.65378 21.9291 9.52876 21.8041C9.40373 21.6791 9.3335 21.5095 9.3335 21.3327V15.3327ZM19.3335 9.99935H22.0002C22.177 9.99935 22.3465 10.0696 22.4716 10.1946C22.5966 10.3196 22.6668 10.4892 22.6668 10.666V13.9993H9.3335V10.666C9.3335 10.4892 9.40373 10.3196 9.52876 10.1946C9.65378 10.0696 9.82335 9.99935 10.0002 9.99935H12.6668V8.66602H14.0002V9.99935H18.0002V8.66602H19.3335V9.99935Z" fill="white"/>
</svg>
