<svg width="32" height="32" viewBox="0 0 32 32" fill="none" xmlns="http://www.w3.org/2000/svg">
<rect width="32" height="32" rx="16" fill="#4C6AFF"/>
<g clip-path="url(#clip0_14494_246678)">
<path d="M22 10C22.1768 10 22.3464 10.0702 22.4714 10.1953C22.5964 10.3203 22.6667 10.4899 22.6667 10.6667V21.3333C22.6667 21.5101 22.5964 21.6797 22.4714 21.8047C22.3464 21.9298 22.1768 22 22 22H10C9.8232 22 9.65363 21.9298 9.52861 21.8047C9.40358 21.6797 9.33334 21.5101 9.33334 21.3333V10.6667C9.33334 10.4899 9.40358 10.3203 9.52861 10.1953C9.65363 10.0702 9.8232 10 10 10H22ZM14.266 13.3333H12.9327L10.7993 18.6667H12.2353L12.502 18H14.6953L14.962 18.6667H16.3987L14.266 13.3333ZM20.6667 13.3333H19.3333V14.6667H18.6667C18.1461 14.6662 17.6458 14.8687 17.2721 15.2312C16.8985 15.5937 16.6809 16.0876 16.6656 16.608C16.6503 17.1284 16.8386 17.6342 17.1903 18.018C17.5421 18.4018 18.0296 18.6333 18.5493 18.6633L18.6667 18.6667H20.6667V13.3333ZM19.3333 16V17.3333H18.6667L18.5887 17.3287C18.4266 17.3094 18.2773 17.2314 18.169 17.1094C18.0606 16.9874 18.0008 16.8298 18.0008 16.6667C18.0008 16.5035 18.0606 16.346 18.169 16.224C18.2773 16.102 18.4266 16.0239 18.5887 16.0047L18.6667 16H19.3333ZM13.5993 15.2567L14.1627 16.6667H13.0347L13.5993 15.2567Z" fill="white"/>
</g>
<defs>
<clipPath id="clip0_14494_246678">
<rect width="16" height="16" fill="white" transform="translate(8 8)"/>
</clipPath>
</defs>
</svg>
