<svg width="32" height="32" viewBox="0 0 32 32" fill="none" xmlns="http://www.w3.org/2000/svg">
<rect width="32" height="32" rx="16" fill="#00C4D6"/>
<path d="M10.0002 10H22.0002C22.177 10 22.3465 10.0702 22.4716 10.1953C22.5966 10.3203 22.6668 10.4899 22.6668 10.6667V21.3333C22.6668 21.5101 22.5966 21.6797 22.4716 21.8047C22.3465 21.9298 22.177 22 22.0002 22H10.0002C9.82335 22 9.65378 21.9298 9.52876 21.8047C9.40373 21.6797 9.3335 21.5101 9.3335 21.3333V10.6667C9.3335 10.4899 9.40373 10.3203 9.52876 10.1953C9.65378 10.0702 9.82335 10 10.0002 10ZM16.0402 15.7887L11.7655 12.1587L10.9022 13.1747L16.0488 17.5447L21.1028 13.1713L20.2308 12.1627L16.0408 15.7887H16.0402Z" fill="white"/>
</svg>
