<svg width="32" height="32" viewBox="0 0 32 32" fill="none" xmlns="http://www.w3.org/2000/svg">
<rect width="32" height="32" rx="16" fill="#4C6AFF"/>
<path d="M10 10.002H22C22.1769 10.002 22.3464 10.0722 22.4714 10.1972C22.5965 10.3222 22.6667 10.4918 22.6667 10.6686V21.3353C22.6667 21.5121 22.5965 21.6817 22.4714 21.8067C22.3464 21.9317 22.1769 22.002 22 22.002H10C9.82323 22.002 9.65366 21.9317 9.52864 21.8067C9.40361 21.6817 9.33337 21.5121 9.33337 21.3353V10.6686C9.33337 10.4918 9.40361 10.3222 9.52864 10.1972C9.65366 10.0722 9.82323 10.002 10 10.002ZM16.04 15.7906L11.7654 12.1606L10.902 13.1766L16.0487 17.5466L21.1027 13.1733L20.2307 12.1646L16.0407 15.7906H16.04Z" fill="white"/>
</svg>
