<svg width="32" height="32" viewBox="0 0 32 32" fill="none" xmlns="http://www.w3.org/2000/svg">
<rect width="32" height="32" rx="16" fill="#00C4D6"/>
<path d="M21.3333 22.6693H10.6667C10.4899 22.6693 10.3203 22.599 10.1953 22.474C10.0702 22.349 10 22.1794 10 22.0026V10.0026C10 9.82579 10.0702 9.65622 10.1953 9.5312C10.3203 9.40618 10.4899 9.33594 10.6667 9.33594H21.3333C21.5101 9.33594 21.6797 9.40618 21.8047 9.5312C21.9298 9.65622 22 9.82579 22 10.0026V22.0026C22 22.1794 21.9298 22.349 21.8047 22.474C21.6797 22.599 21.5101 22.6693 21.3333 22.6693ZM13.3333 12.6693V14.0026H18.6667V12.6693H13.3333ZM13.3333 15.3359V16.6693H18.6667V15.3359H13.3333ZM13.3333 18.0026V19.3359H16.6667V18.0026H13.3333Z" fill="white"/>
</svg>
