<svg width="16" height="16" viewBox="0 0 16 16" fill="none" xmlns="http://www.w3.org/2000/svg">
<path d="M6.66667 2C7.03467 2 7.33333 2.29867 7.33333 2.66667V13.3333C7.33333 13.7013 7.03467 14 6.66667 14H2.66667C2.29867 14 2 13.7013 2 13.3333V2.66667C2 2.29867 2.29867 2 2.66667 2H6.66667ZM6 3.33333H3.33333V12.6667H6V3.33333ZM12 4.66667C13.8407 4.66667 15.3333 6.15933 15.3333 8C15.3333 9.84067 13.8407 11.3333 12 11.3333C10.1593 11.3333 8.66667 9.84067 8.66667 8C8.66667 6.15933 10.1593 4.66667 12 4.66667ZM12.6667 6H11.3333V7.33267L10 7.33333V8.66667L11.3333 8.666V10H12.6667V8.666L14 8.66667V7.33333L12.6667 7.33267V6Z" fill="#939CAD"/>
</svg>
