<svg width="353" height="39" viewBox="0 0 353 39" fill="none" xmlns="http://www.w3.org/2000/svg">
<path d="M1.5 1V0.5H0.5V1H1.5ZM1 22.4493H0.5V22.9493H1V22.4493ZM349 22.4493H349.5V21.9493H349V22.4493ZM348.646 38.3536C348.842 38.5488 349.158 38.5488 349.354 38.3536L352.536 35.1716C352.731 34.9763 352.731 34.6597 352.536 34.4645C352.34 34.2692 352.024 34.2692 351.828 34.4645L349 37.2929L346.172 34.4645C345.976 34.2692 345.66 34.2692 345.464 34.4645C345.269 34.6597 345.269 34.9763 345.464 35.1716L348.646 38.3536ZM0.5 1V22.4493H1.5V1H0.5ZM1 22.9493H349V21.9493H1V22.9493ZM348.5 22.4493V38H349.5V22.4493H348.5Z" fill="#C9CBD6"/>
</svg>
