<svg width="16" height="16" viewBox="0 0 16 16" fill="none" xmlns="http://www.w3.org/2000/svg">
<path fill-rule="evenodd" clip-rule="evenodd" d="M3.86523 8C3.86523 8.69036 3.30559 9.25 2.61523 9.25C1.92488 9.25 1.36523 8.69036 1.36523 8C1.36523 7.30964 1.92488 6.75 2.61523 6.75C3.30559 6.75 3.86523 7.30964 3.86523 8ZM9.24985 8C9.24985 8.69036 8.69021 9.25 7.99985 9.25C7.30949 9.25 6.74985 8.69036 6.74985 8C6.74985 7.30964 7.30949 6.75 7.99985 6.75C8.69021 6.75 9.24985 7.30964 9.24985 8ZM13.3845 9.25C14.0748 9.25 14.6345 8.69036 14.6345 8C14.6345 7.30964 14.0748 6.75 13.3845 6.75C12.6941 6.75 12.1345 7.30964 12.1345 8C12.1345 8.69036 12.6941 9.25 13.3845 9.25Z" fill="#37435C"/>
</svg>
