<svg width="16" height="16" viewBox="0 0 16 16" fill="none" xmlns="http://www.w3.org/2000/svg">
<path d="M8 14.5C9.79493 14.5 11.4199 13.7725 12.5962 12.5962C13.7725 11.4199 14.5 9.79493 14.5 8C14.5 6.20507 13.7725 4.58007 12.5962 3.40381C11.4199 2.22754 9.79493 1.5 8 1.5C6.20507 1.5 4.58007 2.22754 3.40381 3.40381C2.22754 4.58007 1.5 6.20507 1.5 8C1.5 9.79493 2.22754 11.4199 3.40381 12.5962C4.58007 13.7725 6.20507 14.5 8 14.5Z" stroke="#4C6AFF" stroke-linejoin="round"/>
<path d="M7.99995 9.40628V9.08115C7.99995 8.63932 8.37751 8.29739 8.77046 8.0954C9.31508 7.81544 9.68764 7.24795 9.68764 6.59346C9.68764 5.66137 8.93204 4.90576 7.99995 4.90576C7.06786 4.90576 6.31226 5.66137 6.31226 6.59346" stroke="#4C6AFF" stroke-linecap="round" stroke-linejoin="round"/>
<path fill-rule="evenodd" clip-rule="evenodd" d="M8.00005 11.9977C8.38625 11.9977 8.69932 11.6846 8.69932 11.2984C8.69932 10.9122 8.38625 10.5991 8.00005 10.5991C7.61386 10.5991 7.30078 10.9122 7.30078 11.2984C7.30078 11.6846 7.61386 11.9977 8.00005 11.9977Z" fill="#4C6AFF"/>
</svg>
