<svg width="28" height="28" viewBox="0 0 28 28" fill="none" xmlns="http://www.w3.org/2000/svg">
<g clip-path="url(#clip0_9548_2079)">
<path d="M27.9974 14C28.1374 22.6897 22.6896 28.1319 13.9999 27.9976C5.31019 28.1319 -0.132066 22.6897 0.00231051 14C-0.132066 5.31031 5.31019 -0.131944 13.9999 0.00243258C22.6896 -0.131944 28.1318 5.31031 27.9974 14Z" fill="#F7A87C"/>
<path d="M27.9588 15.4932C27.5333 9.30632 23.306 5.49898 16.8 5.59976C9.85156 5.48778 5.48992 9.84942 5.6019 16.7978C5.49552 23.3039 9.30846 27.5312 15.4898 27.9567C22.8189 27.5088 27.5109 22.8168 27.9588 15.4932Z" fill="#F79E6D"/>
<path d="M27.7675 17.2254C26.9556 13.4404 23.9657 11.1336 19.5985 11.2008C14.3858 11.1168 11.116 14.3866 11.1999 19.5993C11.1328 23.9666 13.4396 26.9565 17.2189 27.7683C22.9915 26.8277 26.8268 22.9923 27.7675 17.2254Z" fill="#F7955E"/>
<path d="M27.2808 19.297C26.3794 17.6845 24.666 16.7663 22.3984 16.7999C18.9214 16.7439 16.7434 18.9219 16.7994 22.3989C16.7602 24.6665 17.6841 26.3798 19.291 27.2813C21.1845 26.7253 22.9082 25.703 24.3041 24.3081C25.7 22.9132 26.7235 21.1902 27.2808 19.297Z" fill="#F78B4F"/>
<g clip-path="url(#clip1_9548_2079)">
<path d="M19.756 13.7288C19.8568 13.9007 19.8568 14.1002 19.756 14.2721C19.1433 15.3171 17.4574 17.5005 14 17.5005C10.5426 17.5005 8.85665 15.3171 8.24393 14.2721C8.14312 14.1002 8.14312 13.9007 8.24393 13.7288C8.85665 12.6838 10.5426 10.5005 14 10.5005C17.4574 10.5005 19.1433 12.6838 19.756 13.7288Z" stroke="white" stroke-width="1.23529"/>
<circle cx="14" cy="14.0006" r="1.64706" stroke="white" stroke-opacity="0.8" stroke-width="1.23529"/>
</g>
</g>
<defs>
<clipPath id="clip0_9548_2079">
<rect width="28" height="28" fill="white"/>
</clipPath>
<clipPath id="clip1_9548_2079">
<rect width="13.1765" height="13.1765" fill="white" transform="translate(7.41174 7.41211)"/>
</clipPath>
</defs>
</svg>
