<svg width="28" height="28" viewBox="0 0 28 28" fill="none" xmlns="http://www.w3.org/2000/svg">
<g clip-path="url(#clip0_9548_7157)">
<path d="M27.9975 14C28.1375 22.6897 22.6896 28.1319 13.9999 27.9976C5.31025 28.1319 -0.132005 22.6897 0.00237155 14C-0.132005 5.31031 5.31025 -0.131944 13.9999 0.00243258C22.6896 -0.131944 28.1319 5.31031 27.9975 14Z" fill="#AA90F4"/>
<path d="M27.9588 15.4932C27.5333 9.30632 23.306 5.49898 16.8 5.59976C9.85156 5.48778 5.48992 9.84942 5.6019 16.7978C5.49552 23.3039 9.30846 27.5312 15.4898 27.9567C22.8189 27.5088 27.5109 22.8168 27.9588 15.4932Z" fill="#A78BF5"/>
<path d="M27.7675 17.2254C26.9556 13.4404 23.9657 11.1336 19.5985 11.2008C14.3858 11.1168 11.116 14.3866 11.1999 19.5993C11.1328 23.9666 13.4396 26.9565 17.2189 27.7683C22.9915 26.8277 26.8268 22.9923 27.7675 17.2254Z" fill="#A587F9"/>
<path d="M27.2808 19.297C26.3794 17.6845 24.666 16.7663 22.3984 16.7999C18.9214 16.7439 16.7434 18.9219 16.7994 22.3989C16.7602 24.6665 17.6841 26.3798 19.291 27.2813C21.1845 26.7253 22.9082 25.703 24.3041 24.3081C25.7 22.9132 26.7235 21.1902 27.2808 19.297Z" fill="#9E7FF4" fill-opacity="0.8"/>
<path fill-rule="evenodd" clip-rule="evenodd" d="M10.0728 13.9563C10.0728 13.7768 10.1411 13.6055 10.2614 13.4835L14.6153 9.06841C14.7872 8.89415 15.0371 8.84779 15.2519 8.95034C15.4666 9.05289 15.6054 9.28485 15.6054 9.54117L15.6054 11.4706C17.6715 12.1181 20.4305 13.8319 20.6323 17.5855C20.6463 17.8458 20.5156 18.0897 20.3011 18.2034C20.0866 18.3172 19.8306 18.2784 19.6524 18.1052C18.2715 16.7626 16.9997 16.5156 15.6054 16.4753L15.6054 18.3714C15.6054 18.6277 15.4666 18.8596 15.2519 18.9622C15.0371 19.0647 14.7872 19.0184 14.6153 18.8441L10.2614 14.429C10.1411 14.307 10.0728 14.1357 10.0728 13.9563ZM11.5291 13.9563L14.4267 16.8946V15.8234C14.4267 15.6524 14.4888 15.4884 14.5993 15.3675C14.7098 15.2466 14.8597 15.1787 15.0161 15.1787C16.3454 15.1787 17.7235 15.246 19.1611 16.1346C18.4232 14.0364 16.4789 13.0011 14.8832 12.5974C14.6159 12.5298 14.4267 12.2694 14.4267 11.9693V11.0179L11.5291 13.9563Z" fill="white"/>
<path d="M12.0312 9.54215L7.95624 14L12.0312 18.4578" stroke="white" stroke-opacity="0.8" stroke-width="1.23529" stroke-linecap="round" stroke-linejoin="round"/>
</g>
<defs>
<clipPath id="clip0_9548_7157">
<rect width="28" height="28" fill="white"/>
</clipPath>
</defs>
</svg>
