<svg width="17" height="16" viewBox="0 0 17 16" fill="none" xmlns="http://www.w3.org/2000/svg">
<g clip-path="url(#clip0_12013_211926)">
<path d="M13.6666 14.6688H2.99992C2.82311 14.6688 2.65354 14.5985 2.52851 14.4735C2.40349 14.3485 2.33325 14.1789 2.33325 14.0021V2.00212C2.33325 1.8253 2.40349 1.65574 2.52851 1.53071C2.65354 1.40569 2.82311 1.33545 2.99992 1.33545H13.6666C13.8434 1.33545 14.013 1.40569 14.138 1.53071C14.263 1.65574 14.3333 1.8253 14.3333 2.00212V14.0021C14.3333 14.1789 14.263 14.3485 14.138 14.4735C14.013 14.5985 13.8434 14.6688 13.6666 14.6688ZM5.66659 4.66878V6.00212H10.9999V4.66878H5.66659ZM5.66659 7.33545V8.66878H10.9999V7.33545H5.66659ZM5.66659 10.0021V11.3354H8.99992V10.0021H5.66659Z" fill="#00C4D6"/>
</g>
<defs>
<clipPath id="clip0_12013_211926">
<rect width="16" height="16" fill="white" transform="translate(0.333252)"/>
</clipPath>
</defs>
</svg>
