<svg width="20" height="20" viewBox="0 0 20 20" fill="none" xmlns="http://www.w3.org/2000/svg">
<path d="M10 18C14.4183 18 18 14.4183 18 10C18 5.58172 14.4183 2 10 2C5.58172 2 2 5.58172 2 10C2 14.4183 5.58172 18 10 18Z" fill="#0FD683"/>
<path fill-rule="evenodd" clip-rule="evenodd" d="M8.97335 12.6926C9.10446 12.695 9.23635 12.6463 9.33639 12.5462L13.3669 8.5157C13.5622 8.32044 13.5622 8.00386 13.3669 7.80859L13.0133 7.45504C12.8181 7.25978 12.5015 7.25978 12.3062 7.45504L8.96526 10.796L7.69392 9.52469C7.49866 9.32943 7.18208 9.32942 6.98682 9.52469L6.63326 9.87824C6.438 10.0735 6.438 10.3901 6.63326 10.5853L8.59466 12.5467C8.69869 12.6508 8.83715 12.6994 8.97335 12.6926Z" fill="white"/>
</svg>
