<svg width="14" height="14" viewBox="0 0 14 14" fill="none" xmlns="http://www.w3.org/2000/svg">
<path d="M4.33325 12.3333V13.6213C4.33335 13.6847 4.31538 13.7468 4.28143 13.8004C4.24748 13.8539 4.19897 13.8967 4.14159 13.9236C4.0842 13.9506 4.02032 13.9606 3.95745 13.9525C3.89457 13.9444 3.8353 13.9186 3.78659 13.878L1.03992 11.5893C0.987237 11.5454 0.949392 11.4863 0.931546 11.4201C0.913699 11.3538 0.91672 11.2837 0.940197 11.2193C0.963674 11.1548 1.00646 11.0992 1.06273 11.0599C1.11899 11.0207 1.18599 10.9998 1.25459 11H10.9999C11.3535 11 11.6927 10.8595 11.9427 10.6095C12.1928 10.3594 12.3333 10.0203 12.3333 9.66668V4.33334H13.6666V9.66668C13.6666 10.3739 13.3856 11.0522 12.8855 11.5523C12.3854 12.0524 11.7072 12.3333 10.9999 12.3333H4.33325ZM9.66659 1.66668V0.378675C9.66648 0.315281 9.68446 0.253171 9.71841 0.199632C9.75236 0.146093 9.80087 0.103345 9.85825 0.0764021C9.91564 0.0494593 9.97952 0.0394392 10.0424 0.0475171C10.1053 0.055595 10.1645 0.0814359 10.2133 0.122009L12.9599 2.41068C13.0126 2.45457 13.0504 2.51362 13.0682 2.57979C13.0861 2.64596 13.0831 2.71603 13.0598 2.78045C13.0364 2.84487 12.9937 2.90051 12.9375 2.9398C12.8814 2.97909 12.8145 3.00012 12.7459 3.00001H2.99992C2.6463 3.00001 2.30716 3.14048 2.05711 3.39053C1.80706 3.64058 1.66659 3.97972 1.66659 4.33334V9.66668H0.333252V4.33334C0.333252 3.6261 0.614204 2.94782 1.1143 2.44772C1.6144 1.94763 2.29267 1.66668 2.99992 1.66668H9.66659Z" fill="#8D92A1"/>
</svg>
