<svg width="32" height="32" viewBox="0 0 32 32" fill="none" xmlns="http://www.w3.org/2000/svg">
<rect width="32" height="32" rx="16" fill="#4C6AFF"/>
<path fill-rule="evenodd" clip-rule="evenodd" d="M18.25 8.125L10.375 8.125C9.75368 8.125 9.25 8.62868 9.25 9.25V22.75C9.25 23.3713 9.75368 23.875 10.375 23.875H21.625C22.2463 23.875 22.75 23.3713 22.75 22.75V12.0625L18.25 8.125Z" fill="#F9FAFB"/>
<path fill-rule="evenodd" clip-rule="evenodd" d="M19.375 16.225C19.375 16.3492 19.2743 16.45 19.15 16.45H12.85C12.7257 16.45 12.625 16.3492 12.625 16.225V15.325C12.625 15.2007 12.7257 15.1 12.85 15.1H19.15C19.2743 15.1 19.375 15.2007 19.375 15.325V16.225Z" fill="#4C6AFF"/>
<path fill-rule="evenodd" clip-rule="evenodd" d="M17.6875 19.375C17.6875 19.4993 17.5868 19.6 17.4625 19.6H12.85C12.7257 19.6 12.625 19.4993 12.625 19.375V18.475C12.625 18.3507 12.7257 18.25 12.85 18.25H17.4625C17.5868 18.25 17.6875 18.3507 17.6875 18.475V19.375Z" fill="#4C6AFF"/>
<path d="M18.7 12.0625H22.75L18.25 8.125V11.6125C18.25 11.861 18.4515 12.0625 18.7 12.0625Z" fill="#B8CCFF"/>
</svg>
