<svg width="18" height="22" viewBox="0 0 18 22" fill="none" xmlns="http://www.w3.org/2000/svg">
<path fill-rule="evenodd" clip-rule="evenodd" d="M12 0.5L1.5 0.500003C0.671573 0.500003 0 1.17158 0 2V20C0 20.8284 0.671573 21.5 1.5 21.5H16.5C17.3284 21.5 18 20.8284 18 20V5.75L12 0.5Z" fill="#6490FF"/>
<path fill-rule="evenodd" clip-rule="evenodd" d="M13.5 11.2998C13.5 11.4655 13.3657 11.5998 13.2 11.5998H4.8C4.63431 11.5998 4.5 11.4655 4.5 11.2998V10.0998C4.5 9.93412 4.63431 9.7998 4.8 9.7998H13.2C13.3657 9.7998 13.5 9.93412 13.5 10.0998V11.2998Z" fill="white"/>
<path fill-rule="evenodd" clip-rule="evenodd" d="M11.25 15.5C11.25 15.6657 11.1157 15.8 10.95 15.8H4.8C4.63431 15.8 4.5 15.6657 4.5 15.5V14.3C4.5 14.1343 4.63431 14 4.8 14H10.95C11.1157 14 11.25 14.1343 11.25 14.3V15.5Z" fill="white"/>
<path d="M12.6 5.75H18L12 0.5V5.15C12 5.48137 12.2686 5.75 12.6 5.75Z" fill="#B8CCFF"/>
</svg>
