<svg width="28" height="28" viewBox="0 0 28 28" fill="none" xmlns="http://www.w3.org/2000/svg">
<g clip-path="url(#clip0_9548_12671)">
<path d="M27.9974 14C28.1374 22.6897 22.6896 28.1319 13.9999 27.9976C5.31019 28.1319 -0.132066 22.6897 0.00231051 14C-0.132066 5.31031 5.31019 -0.131944 13.9999 0.00243258C22.6896 -0.131944 28.1318 5.31031 27.9974 14Z" fill="#386EE7" fill-opacity="0.7"/>
<path d="M27.9589 15.4952C27.5334 9.30827 23.3061 5.50093 16.8001 5.60172C9.85168 5.48973 5.49004 9.85138 5.60202 16.7998C5.49564 23.3058 9.30858 27.5331 15.4899 27.9586C22.819 27.5107 27.511 22.8187 27.9589 15.4952Z" fill="#386EE7" fill-opacity="0.2"/>
<path d="M27.7676 17.2254C26.9557 13.4404 23.9659 11.1336 19.5986 11.2008C14.3859 11.1168 11.1161 14.3866 11.2001 19.5993C11.1329 23.9666 13.4397 26.9565 17.219 27.7683C22.9916 26.8277 26.827 22.9923 27.7676 17.2254Z" fill="#386EE7" fill-opacity="0.2"/>
<path d="M27.2807 19.297C26.3792 17.6845 24.6659 16.7663 22.3983 16.7999C18.9213 16.7439 16.7433 18.9219 16.7993 22.3989C16.7601 24.6665 17.6839 26.3798 19.2909 27.2813C21.1844 26.7253 22.9081 25.703 24.304 24.3081C25.6999 22.9132 26.7234 21.1902 27.2807 19.297Z" fill="#386EE7" fill-opacity="0.3"/>
<path d="M8.8125 11.0875C8.8125 10.7285 9.10351 10.4375 9.4625 10.4375H18.725C19.084 10.4375 19.375 10.7285 19.375 11.0875V18.725C19.375 19.084 19.084 19.375 18.725 19.375H9.4625C9.10351 19.375 8.8125 19.084 8.8125 18.725V11.0875Z" stroke="#FBFBFB" stroke-width="1.21875" stroke-linecap="round"/>
<path d="M9.21875 10.8438L13.7332 13.8534C13.9515 13.9989 14.236 13.9989 14.4543 13.8534L18.9688 10.8438" stroke="#FBFBFB" stroke-width="1.21875"/>
</g>
<defs>
<clipPath id="clip0_9548_12671">
<rect width="28" height="28" fill="white"/>
</clipPath>
</defs>
</svg>
