<svg width="28" height="28" viewBox="0 0 28 28" fill="none" xmlns="http://www.w3.org/2000/svg">
<g clip-path="url(#clip0_9548_12721)">
<path d="M27.9975 14C28.1375 22.6897 22.6896 28.1319 13.9999 27.9976C5.31025 28.1319 -0.132005 22.6897 0.00237155 14C-0.132005 5.31031 5.31025 -0.131944 13.9999 0.00243258C22.6896 -0.131944 28.1319 5.31031 27.9975 14Z" fill="#F77C7C"/>
<path d="M27.9588 15.4932C27.5333 9.30632 23.306 5.49898 16.8 5.59976C9.85156 5.48778 5.48992 9.84942 5.6019 16.7978C5.49552 23.3039 9.30846 27.5312 15.4898 27.9567C22.8189 27.5088 27.5109 22.8168 27.9588 15.4932Z" fill="#F77474"/>
<path d="M27.7675 17.2254C26.9556 13.4404 23.9657 11.1336 19.5985 11.2008C14.3858 11.1168 11.116 14.3866 11.1999 19.5993C11.1328 23.9666 13.4396 26.9565 17.2189 27.7683C22.9915 26.8277 26.8268 22.9923 27.7675 17.2254Z" fill="#F56C6C"/>
<path d="M27.2808 19.297C26.3794 17.6845 24.666 16.7663 22.3984 16.7999C18.9214 16.7439 16.7434 18.9219 16.7994 22.3989C16.7602 24.6665 17.6841 26.3798 19.291 27.2813C21.1845 26.7253 22.9082 25.703 24.3041 24.3081C25.7 22.9132 26.7235 21.1902 27.2808 19.297Z" fill="#F56161"/>
<path d="M13.0562 16.5914C13.5243 16.6424 14.8746 16.6504 17.1071 16.6169C16.9813 16.886 16.8731 17.1313 16.7823 17.351C15.5402 17.351 14.3794 17.3335 13.2982 17.3001C12.6501 17.3001 12.1374 17.1233 11.7584 16.7682C11.5959 16.9036 11.3714 17.1392 11.0832 17.4768L10.7058 16.5914C10.7233 16.5755 10.7504 16.55 10.787 16.515C10.9303 16.4131 11.1198 16.2698 11.3539 16.0851V14.4402H10.7329V13.6551H12.1374V16.1615C12.3348 16.3637 12.596 16.4991 12.9208 16.566L12.596 16.0341C12.7042 15.9163 12.7663 15.73 12.7854 15.4768V11.7825H16.4049V14.3892L16.9177 14.9465C16.881 14.964 16.8364 14.9895 16.7823 15.023C16.4224 15.2427 16.1438 15.394 15.9447 15.4784C16.2329 15.6806 16.5116 15.8669 16.7823 16.0357L16.2154 16.593C15.6756 16.2045 15.1708 15.859 14.7027 15.5548V16.1376C13.8746 16.3048 13.3253 16.4577 13.0562 16.5914ZM10.8412 11.9592L11.5434 11.5293C11.5975 11.5803 11.6692 11.6646 11.76 11.7825C11.9765 12.0357 12.201 12.3223 12.4351 12.6424L11.6787 13.0978C11.3905 12.6599 11.1119 12.2809 10.8412 11.9592ZM15.5673 12.8956V12.4911H13.596V12.8956H15.5673ZM13.596 13.9338H15.5673V13.5293H13.596V13.9338ZM14.5402 15.4529C14.4861 15.4019 14.4049 15.343 14.2966 15.2761C14.1883 15.1918 14.1071 15.1328 14.053 15.0994L14.5386 14.644H13.5928V15.6822C13.8667 15.5962 14.1804 15.5198 14.5402 15.4529ZM15.9989 14.6424H14.5944C14.8651 14.7937 15.1071 14.9465 15.3237 15.0978C15.5578 14.9465 15.7839 14.7952 15.9989 14.6424Z" fill="white" fill-opacity="0.8"/>
<path d="M19.7646 13.9991C19.7646 17.1828 17.1837 19.7638 13.9999 19.7638C10.8162 19.7638 8.23523 17.1828 8.23523 13.9991C8.23523 10.8153 10.8162 8.23438 13.9999 8.23438C15.3219 8.23438 16.5399 8.67935 17.5124 9.4277" stroke="white" stroke-width="1.23529" stroke-linecap="round"/>
<path d="M16.4702 10.7271L18.5371 10.3286L18.3284 8.23395" stroke="white" stroke-width="1.23529" stroke-linecap="round" stroke-linejoin="round"/>
</g>
<defs>
<clipPath id="clip0_9548_12721">
<rect width="28" height="28" fill="white"/>
</clipPath>
</defs>
</svg>
