<svg width="22" height="22" viewBox="0 0 22 22" fill="none" xmlns="http://www.w3.org/2000/svg">
<circle cx="11" cy="6" r="5" fill="#D1EDDE"/>
<path fill-rule="evenodd" clip-rule="evenodd" d="M8.8 8.49998C8.8 7.47825 9.62827 6.64998 10.65 6.64998C11.6717 6.64998 12.5 7.47825 12.5 8.49998C12.5 9.5217 11.6717 10.35 10.65 10.35C9.62827 10.35 8.8 9.5217 8.8 8.49998ZM10.65 5.34998C8.9103 5.34998 7.5 6.76028 7.5 8.49998C7.5 10.2397 8.9103 11.65 10.65 11.65C12.3897 11.65 13.8 10.2397 13.8 8.49998C13.8 6.76028 12.3897 5.34998 10.65 5.34998ZM6.3 15C6.3 13.9782 7.12827 13.15 8.15 13.15H13.15C14.1717 13.15 15 13.9782 15 15V16.35H6.3V15ZM8.15 11.85C6.4103 11.85 5 13.2603 5 15V16.5C5 17.1351 5.51487 17.65 6.15 17.65H15.15C15.7851 17.65 16.3 17.1351 16.3 16.5V15C16.3 13.2603 14.8897 11.85 13.15 11.85H8.15Z" fill="#3F465C"/>
</svg>