<svg width="22" height="22" viewBox="0 0 22 22" fill="none" xmlns="http://www.w3.org/2000/svg">
<circle cx="11" cy="6" r="5" fill="#D1E4FF"/>
<path fill-rule="evenodd" clip-rule="evenodd" d="M12.9192 5.15001C12.6396 5.15001 12.3762 5.21161 12.1402 5.32136C11.8147 5.47276 11.4281 5.33163 11.2767 5.00614C11.1253 4.68064 11.2664 4.29404 11.5919 4.14264C11.9961 3.95464 12.4463 3.85001 12.9192 3.85001C14.6589 3.85001 16.0692 5.26031 16.0692 7.00001C16.0692 8.32565 15.2506 9.45852 14.0936 9.9236C13.7606 10.0575 13.382 9.89603 13.2481 9.56295C13.1142 9.22988 13.2757 8.85132 13.6088 8.71742C14.2901 8.44352 14.7692 7.77694 14.7692 7.00001C14.7692 5.97828 13.9409 5.15001 12.9192 5.15001ZM7.64998 8.50001C7.64998 7.47828 8.47825 6.65001 9.49998 6.65001C10.5217 6.65001 11.35 7.47828 11.35 8.50001C11.35 9.52173 10.5217 10.35 9.49998 10.35C8.47825 10.35 7.64998 9.52173 7.64998 8.50001ZM9.49998 5.35001C7.76028 5.35001 6.34998 6.76031 6.34998 8.50001C6.34998 10.2397 7.76028 11.65 9.49998 11.65C11.2397 11.65 12.65 10.2397 12.65 8.50001C12.65 6.76031 11.2397 5.35001 9.49998 5.35001ZM5.14998 15C5.14998 13.9783 5.97825 13.15 6.99998 13.15H12C13.0217 13.15 13.85 13.9783 13.85 15V16.35H5.14998V15ZM6.99998 11.85C5.26028 11.85 3.84998 13.2603 3.84998 15V16.5C3.84998 17.1351 4.36485 17.65 4.99998 17.65H14C14.6351 17.65 15.15 17.1351 15.15 16.5V15C15.15 13.2603 13.7397 11.85 12 11.85H6.99998ZM13.8496 10.35C13.4906 10.35 13.1996 10.641 13.1996 11C13.1996 11.359 13.4906 11.65 13.8496 11.65H15.4195C16.4412 11.65 17.2695 12.4783 17.2695 13.5V14.85H16.4996C16.1406 14.85 15.8496 15.141 15.8496 15.5C15.8496 15.859 16.1406 16.15 16.4996 16.15H17.4195C18.0546 16.15 18.5695 15.6351 18.5695 15V13.5C18.5695 11.7603 17.1592 10.35 15.4195 10.35H13.8496Z" fill="#3F465C"/>
</svg>
