<svg width="22" height="22" viewBox="0 0 22 22" fill="none" xmlns="http://www.w3.org/2000/svg">
<circle cx="7" cy="15" r="5" fill="#D1EDDE"/>
<path d="M15.3 8.3C16.2113 8.3 16.95 7.56126 16.95 6.65C16.95 5.73873 16.2113 5 15.3 5C14.3887 5 13.65 5.73873 13.65 6.65C13.65 7.56126 14.3887 8.3 15.3 8.3Z" stroke="#263789" stroke-width="1.3" stroke-linejoin="round"/>
<path d="M6.69999 16.9667C7.61125 16.9667 8.34999 16.228 8.34999 15.3167C8.34999 14.4055 7.61125 13.6667 6.69999 13.6667C5.78872 13.6667 5.04999 14.4055 5.04999 15.3167C5.04999 16.228 5.78872 16.9667 6.69999 16.9667Z" stroke="#263789" stroke-width="1.3" stroke-linejoin="round"/>
<path d="M15.3 8.33333V14.8347C15.3 16.0306 14.338 17 13.1514 17C11.9647 17 11.0028 16.0306 11.0028 14.8347V7.16807C11.0028 5.97067 10.0396 5 8.8514 5C7.66321 5 6.70001 5.97067 6.70001 7.16807V13.6667" stroke="#263789" stroke-width="1.3" stroke-linejoin="round"/>
</svg>
