<svg width="22" height="22" viewBox="0 0 22 22" fill="none" xmlns="http://www.w3.org/2000/svg">
<circle cx="16" cy="16" r="5" fill="#D1E4FF"/>
<path d="M3.5 7.95454V16.5C3.5 17.0523 3.94772 17.5 4.5 17.5H11H17.5C18.0523 17.5 18.5 17.0523 18.5 16.5V8.49999C18.5 7.94771 18.0523 7.49999 17.5 7.49999H9.14287C8.59058 7.49999 8.14287 7.05228 8.14287 6.49999L8.14287 5.49999C8.14287 4.94771 7.69515 4.49999 7.14287 4.49999H4.5C3.94772 4.49999 3.5 4.94771 3.5 5.49999L3.5 7.95454Z" stroke="#263789" stroke-width="1.3"/>
<path d="M13 11L18 11" stroke="#263789" stroke-width="1.3" stroke-linecap="round"/>
<path d="M8.5 15C9.32842 15 10 14.3284 10 13.5C10 12.6716 9.32842 12 8.5 12C7.67157 12 7 12.6716 7 13.5C7 14.3284 7.67157 15 8.5 15Z" stroke="#263789" stroke-width="1.3" stroke-linejoin="round"/>
<path d="M10 13.5H18" stroke="#263789" stroke-width="1.3"/>
</svg>
