<svg width="22" height="22" viewBox="0 0 22 22" fill="none" xmlns="http://www.w3.org/2000/svg">
<circle cx="11" cy="6" r="5" fill="#D1E4FF"/>
<g clip-path="url(#clip0_3792_123879)">
<path d="M7.21028 12.9481L4.14637 9.96158C3.84961 9.67231 4.01337 9.16832 4.42348 9.10873L8.65769 8.49346L10.5513 4.6566C10.7347 4.28498 11.2646 4.28498 11.448 4.6566L13.3416 8.49346L17.5758 9.10873C17.9859 9.16832 18.1497 9.67231 17.8529 9.96158L14.789 12.9481L15.5123 17.1652C15.5824 17.5737 15.1537 17.8852 14.7869 17.6923L10.9997 15.7013L7.21247 17.6923C6.84566 17.8852 6.41694 17.5737 6.48699 17.1652L7.21028 12.9481Z" stroke="#263789" stroke-width="1.3"/>
</g>
<defs>
<clipPath id="clip0_3792_123879">
<rect width="16" height="16" fill="white" transform="translate(3 3)"/>
</clipPath>
</defs>
</svg>
