<svg width="22" height="22" viewBox="0 0 22 22" fill="none" xmlns="http://www.w3.org/2000/svg">
<circle cx="16" cy="11" r="5" fill="#D1EDDE"/>
<g clip-path="url(#clip0_4177_8861)">
<path d="M12 14H15" stroke="#263789" stroke-width="1.3" stroke-linecap="round" stroke-linejoin="round"/>
<path d="M12 11H15" stroke="#263789" stroke-width="1.3" stroke-linecap="round" stroke-linejoin="round"/>
<path d="M12 8H15" stroke="#263789" stroke-width="1.3" stroke-linecap="round" stroke-linejoin="round"/>
<path fill-rule="evenodd" clip-rule="evenodd" d="M10.2501 4.34961C9.75305 4.34961 9.3501 4.75255 9.3501 5.24961V8.34961H5.2501C4.75304 8.34961 4.3501 8.75255 4.3501 9.24961V16.3497H3.99985C3.64087 16.3497 3.34985 16.6407 3.34985 16.9997C3.34985 17.3587 3.64087 17.6497 3.99985 17.6497H18.0004C18.3594 17.6497 18.6504 17.3587 18.6504 16.9997C18.6504 16.6407 18.3594 16.3497 18.0004 16.3497H17.6501V5.24961C17.6501 4.75255 17.2472 4.34961 16.7501 4.34961H10.2501ZM9.3501 16.3496V13.6496H7.0001C6.64112 13.6496 6.3501 13.3586 6.3501 12.9996C6.3501 12.6406 6.64112 12.3496 7.0001 12.3496H9.3501V9.64961H5.6501V16.3496H9.3501ZM10.6501 16.3496H16.3501V5.64961H10.6501L10.6501 8.34961V8.99961V12.9988L10.6501 12.9996L10.6501 13.0004L10.6501 16.3496Z" fill="#263789"/>
</g>
<defs>
<clipPath id="clip0_4177_8861">
<rect width="16" height="16" fill="white" transform="translate(3 3)"/>
</clipPath>
</defs>
</svg>
