<svg width="16" height="16" viewBox="0 0 16 16" fill="none" xmlns="http://www.w3.org/2000/svg">
<g id="Frame" clip-path="url(#clip0_6031_39319)">
<path id="Vector" d="M14.3544 11.1125L14.3544 11.1124L11.2415 7.99977C11.4383 7.43974 11.5379 6.855 11.5379 6.25614C11.5379 3.3441 9.16897 0.974902 6.25668 0.974902C5.53172 0.974902 4.82628 1.12105 4.16077 1.40911L4.16076 1.40911L3.84888 1.54412L3.84013 1.54791L3.83652 1.55152C3.8061 1.56652 3.77774 1.58672 3.75263 1.61183L3.75259 1.61186C3.63363 1.73106 3.63009 1.92248 3.74226 2.04624C3.74345 2.04889 3.74481 2.0513 3.74624 2.05347L3.74537 2.05405L3.75263 2.06131L6.64621 4.95491L4.95516 6.64569L2.12043 3.81074L2.10339 3.7937L2.09443 3.79472C1.95261 3.66458 1.73223 3.66823 1.59478 3.80563L1.59463 3.80578C1.56384 3.83682 1.53944 3.87208 1.52193 3.90994L1.51776 3.91046L1.50641 3.93671L1.40958 4.1605C1.40958 4.1605 1.40958 4.16051 1.40958 4.16051C1.12178 4.8253 0.975391 5.53072 0.975391 6.25617C0.975391 9.16797 3.34434 11.5374 6.25663 11.5374C6.85501 11.5374 7.43975 11.4378 8.00045 11.241L11.1134 14.3535C11.546 14.7861 12.1217 15.0249 12.7339 15.0249H12.7339H12.7339H12.7339H12.7339H12.7339H12.7339H12.7339H12.7339H12.734H12.734H12.734H12.734H12.734H12.734H12.734H12.734H12.734H12.734H12.734H12.734H12.734H12.7341H12.7341H12.7341H12.7341H12.7341H12.7341H12.7341H12.7341H12.7341H12.7341H12.7341H12.7341H12.7342H12.7342H12.7342H12.7342H12.7342H12.7342H12.7342H12.7342H12.7342H12.7342H12.7342H12.7342H12.7343H12.7343H12.7343H12.7343H12.7343H12.7343H12.7343H12.7343H12.7343H12.7343H12.7343H12.7343H12.7344H12.7344H12.7344H12.7344H12.7344H12.7344C13.3461 15.0249 13.9222 14.7861 14.3549 14.3535L14.3549 14.3535C15.2478 13.4601 15.2477 12.0063 14.3544 11.1125ZM2.07945 3.79641C2.07894 3.79647 2.07907 3.79643 2.07969 3.79638L2.07945 3.79641ZM2.07185 6.25617C2.07185 5.96611 2.10134 5.68023 2.15995 5.40068L4.72958 7.97079L4.72935 7.97101L4.73376 7.97452C4.86221 8.07696 5.03905 8.0782 5.16942 7.98115L5.16974 7.98158L5.17492 7.9764L7.94428 5.20706C7.94428 5.20705 7.94428 5.20705 7.94429 5.20705C7.94781 5.20352 7.95108 5.19922 7.95367 5.19414C8.07636 5.06196 8.07639 4.86361 7.96758 4.72611L7.96785 4.7259L7.96373 4.72178L5.401 2.15927C5.68091 2.10084 5.96658 2.07135 6.25664 2.07135C8.56391 2.07135 10.4415 3.94867 10.4415 6.25616C10.4415 6.83099 10.3256 7.3893 10.0972 7.91581L10.0972 7.91588L9.96292 8.22674L9.94945 8.25791L9.97346 8.28192L13.5792 11.8876C14.0452 12.3537 14.0452 13.1122 13.5797 13.5782C13.3536 13.8043 13.0534 13.9285 12.7344 13.9285H12.7339C12.4143 13.9285 12.1142 13.8043 11.8887 13.5783L11.8886 13.5782L8.28292 9.97299L8.25891 9.94898L8.22774 9.96245L7.91686 10.0967L7.91682 10.0968C7.38935 10.3251 6.83075 10.441 6.25666 10.441C3.94939 10.441 2.07185 8.56393 2.07185 6.25617ZM7.95464 5.14985C7.95484 5.15031 7.95529 5.15136 7.95572 5.15255L7.95499 5.15065L7.9547 5.14997L7.95464 5.14985ZM7.9437 5.20445L7.94429 5.20388C7.94409 5.20407 7.9439 5.20426 7.9437 5.20445Z" fill="#6F7485" stroke="#6F7485" stroke-width="0.1"/>
</g>
<defs>
<clipPath id="clip0_6031_39319">
<rect width="16" height="16" fill="white"/>
</clipPath>
</defs>
</svg>
