<svg width="16" height="16" viewBox="0 0 16 16" fill="none" xmlns="http://www.w3.org/2000/svg">
<path fill-rule="evenodd" clip-rule="evenodd" d="M8 15C11.866 15 15 11.866 15 8C15 4.13401 11.866 1 8 1C4.13401 1 1 4.13401 1 8C1 11.866 4.13401 15 8 15ZM11.0003 5C10.766 4.76569 10.3861 4.76569 10.1518 5L8.00021 7.15157L5.84875 5.00011C5.61444 4.76579 5.23454 4.76579 5.00022 5.00011C4.76591 5.23442 4.76591 5.61432 5.00022 5.84864L7.15168 8.0001L5 10.1518C4.76569 10.3861 4.76569 10.766 5 11.0003C5.23431 11.2346 5.61421 11.2346 5.84853 11.0003L8.00021 8.84863L10.152 11.0004C10.3863 11.2347 10.7662 11.2347 11.0005 11.0004C11.2348 10.7661 11.2348 10.3862 11.0005 10.1519L8.84874 8.0001L11.0003 5.84853C11.2346 5.61421 11.2346 5.23431 11.0003 5Z" fill="#C0C8D6"/>
</svg>
