<svg width="16" height="16" viewBox="0 0 16 16" fill="none" xmlns="http://www.w3.org/2000/svg">
<path d="M8 14.5C11.5899 14.5 14.5 11.5899 14.5 8C14.5 4.41015 11.5899 1.5 8 1.5C4.41015 1.5 1.5 4.41015 1.5 8C1.5 11.5899 4.41015 14.5 8 14.5Z" stroke="currentColor"/>
<path d="M8.24846 7.52945H7.74846V8.02945V11.5697H7.42101V8.02945V7.52945H6.92101H6.6001V7.18991H6.92101H7.42101V6.68991V5.87982C7.42101 5.36415 7.50205 5.02104 7.6447 4.81527C7.76071 4.64792 7.96735 4.5 8.44383 4.5H9.36673V4.83636H8.86446C8.49151 4.83636 8.16821 4.96865 7.96243 5.25492C7.77998 5.50872 7.74846 5.80671 7.74846 6.01918L7.74846 6.69054L7.74846 7.19055H8.24846H9.20747L9.15415 7.52945H8.24846Z" stroke="currentColor" fill="#262A33" />
</svg>
