<svg width="16" height="16" viewBox="0 0 16 16" fill="none" xmlns="http://www.w3.org/2000/svg">
<path fill-rule="evenodd" clip-rule="evenodd" d="M13.3518 7.71291C13.8861 7.61236 14.2386 7.09893 14.1405 6.56421L14.1375 6.54791C13.5832 3.5256 10.964 1.2395 7.81708 1.2395C5.43542 1.2395 3.35665 2.54977 2.24686 4.49301L1.85061 5.18685C1.79626 5.28201 1.82861 5.40318 1.92316 5.45859L3.28696 6.25786C3.38301 6.31415 3.50654 6.28117 3.56176 6.1845L3.95579 5.49454C4.72643 4.14516 6.16719 3.2395 7.81708 3.2395C9.99851 3.2395 11.8133 4.82417 12.1965 6.91327C12.2952 7.4515 12.8141 7.81413 13.3518 7.71291ZM12.3459 9.22525C12.2499 9.16887 12.1263 9.20174 12.071 9.29837L11.6764 9.98795C10.9052 11.3354 9.46555 12.2395 7.81708 12.2395C5.64671 12.2395 3.8392 10.6708 3.44362 8.5973C3.34106 8.0597 2.81953 7.70098 2.28242 7.80613C1.74897 7.91057 1.40019 8.42646 1.50206 8.96042L1.50518 8.9768C2.07743 11.9764 4.68598 14.2395 7.81708 14.2395C10.1967 14.2395 12.2739 12.9315 13.3844 10.991L13.7813 10.2976C13.8357 10.2025 13.8035 10.0813 13.709 10.0258L12.3459 9.22525Z" fill="#4C6AFF" stroke="#4C6AFF" stroke-width="0.3" stroke-linecap="square" stroke-linejoin="round"/>
<path d="M14.1439 6.87982H12.0329L13.0884 7.93535L14.1439 6.87982Z" stroke="#4C6AFF"/>
<path d="M1.50838 8.59985L3.61711 8.59985L2.56274 7.54549L1.50838 8.59985Z" stroke="#4C6AFF"/>
</svg>
