<svg width="16" height="16" viewBox="0 0 16 16" fill="none" xmlns="http://www.w3.org/2000/svg">
<path fill-rule="evenodd" clip-rule="evenodd" d="M13.3518 7.71267C13.8861 7.61211 14.2386 7.09868 14.1405 6.56397L14.1375 6.54767C13.5832 3.52536 10.964 1.23926 7.81708 1.23926C5.43542 1.23926 3.35665 2.54953 2.24686 4.49276L1.85061 5.18661C1.79626 5.28176 1.82861 5.40293 1.92316 5.45834L3.28696 6.25762C3.38301 6.31391 3.50654 6.28093 3.56176 6.18425L3.95579 5.4943C4.72643 4.14491 6.16719 3.23926 7.81708 3.23926C9.99851 3.23926 11.8133 4.82392 12.1965 6.91302C12.2952 7.45126 12.8141 7.81389 13.3518 7.71267ZM12.3459 9.225C12.2499 9.16862 12.1263 9.20149 12.071 9.29812L11.6764 9.98771C10.9052 11.3352 9.46555 12.2393 7.81708 12.2393C5.64671 12.2393 3.8392 10.6706 3.44362 8.59706C3.34106 8.05945 2.81953 7.70074 2.28242 7.80589C1.74897 7.91032 1.40019 8.42622 1.50206 8.96017L1.50518 8.97655C2.07743 11.9761 4.68598 14.2393 7.81708 14.2393C10.1967 14.2393 12.2739 12.9313 13.3844 10.9908L13.7813 10.2973C13.8357 10.2022 13.8035 10.081 13.709 10.0255L12.3459 9.225Z" fill="#6F7485" stroke="#6F7485" stroke-width="0.3" stroke-linecap="square" stroke-linejoin="round"/>
<path d="M14.1437 6.87982H12.0327L13.0882 7.93535L14.1437 6.87982Z" stroke="#6F7485"/>
<path d="M1.50838 8.59985L3.61711 8.59985L2.56274 7.54549L1.50838 8.59985Z" stroke="#6F7485"/>
</svg>
