<svg width="20" height="20" viewBox="0 0 20 20" fill="none" xmlns="http://www.w3.org/2000/svg">
<g clip-path="url(#clip0_7936_108799)">
<path fill-rule="evenodd" clip-rule="evenodd" d="M15.4419 4.55815C15.686 4.80223 15.686 5.19796 15.4419 5.44204L10.8839 10.0001L15.4419 14.5582C15.686 14.8022 15.686 15.198 15.4419 15.442C15.1979 15.6861 14.8021 15.6861 14.5581 15.442L10 10.884L5.44194 15.442C5.19786 15.6861 4.80214 15.6861 4.55806 15.442C4.31398 15.198 4.31398 14.8022 4.55806 14.5582L9.11612 10.0001L4.55806 5.44204C4.31398 5.19796 4.31398 4.80223 4.55806 4.55815C4.80214 4.31407 5.19786 4.31407 5.44194 4.55815L10 9.11621L14.5581 4.55815C14.8021 4.31407 15.1979 4.31407 15.4419 4.55815Z" fill="#3F465C"/>
</g>
<defs>
<clipPath id="clip0_7936_108799">
<rect width="20" height="20" fill="white"/>
</clipPath>
</defs>
</svg>
