<svg width="16" height="16" viewBox="0 0 16 16" fill="none" xmlns="http://www.w3.org/2000/svg">
<path d="M3.16271 7.1095C3.05299 7.69819 3.05299 8.30181 3.16271 8.8905L1.7273 9.71257C1.60204 9.78431 1.55919 9.94435 1.63186 10.0691L3.00984 12.4343C3.08175 12.5577 3.23976 12.6 3.36371 12.529L4.80247 11.705C5.26177 12.0954 5.78989 12.3984 6.36024 12.5987V14.24C6.36024 14.3836 6.47665 14.5 6.62024 14.5H9.37976C9.52335 14.5 9.63976 14.3836 9.63976 14.24V12.5987C10.2101 12.3984 10.7382 12.0954 11.1975 11.705L12.6363 12.529C12.7602 12.6 12.9183 12.5577 12.9902 12.4343L14.3681 10.0691C14.4408 9.94435 14.398 9.78431 14.2727 9.71257L12.8373 8.8905C12.947 8.30181 12.947 7.69819 12.8373 7.1095L14.2727 6.28743C14.398 6.21569 14.4408 6.05565 14.3681 5.93092L12.9902 3.56574C12.9183 3.44232 12.7602 3.40002 12.6363 3.47101L11.1975 4.295C10.7417 3.90825 10.2153 3.60438 9.63976 3.40125V1.76C9.63976 1.61641 9.52335 1.5 9.37976 1.5H6.62024C6.47665 1.5 6.36024 1.61641 6.36024 1.76V3.40125C5.78469 3.60438 5.25832 3.90825 4.80247 4.295L3.36371 3.47101C3.23976 3.40002 3.08175 3.44232 3.00984 3.56574L1.63186 5.93092C1.5592 6.05565 1.60204 6.21569 1.7273 6.28743L3.16271 7.1095Z" stroke="#eeeff5"/>
<path d="M10.75 8C10.75 9.51878 9.51878 10.75 8 10.75C6.48122 10.75 5.25 9.51878 5.25 8C5.25 6.48122 6.48122 5.25 8 5.25C9.51878 5.25 10.75 6.48122 10.75 8Z" stroke="#eeeff5"/>
</svg>
