<svg width="16" height="16" viewBox="0 0 16 16" fill="none" xmlns="http://www.w3.org/2000/svg">
<path d="M2 10V13.2C2 13.6418 2.35817 14 2.8 14H13.2C13.6418 14 14 13.6418 14 13.2V10" stroke="#7D8085" stroke-width="1.2"/>
<path d="M8 11L7.58448 11.4328C7.81666 11.6557 8.18335 11.6557 8.41552 11.4328L8 11ZM7.39996 1.99996L7.4 11L8.6 11L8.59996 1.99996L7.39996 1.99996ZM8.41552 11.4328L12.5821 7.43279L11.7511 6.56713L7.58448 10.5672L8.41552 11.4328ZM8.41552 10.5672L4.24881 6.56713L3.41777 7.43279L7.58448 11.4328L8.41552 10.5672Z" fill="#7D8085"/>
</svg>
