<svg width="20" height="20" fill="none" xmlns="http://www.w3.org/2000/svg"><path d="M13.7567 6.46494C15.7567 8.41756 15.7567 11.5834 13.7567 13.536M15.6526 4.3754C18.9859 7.482 18.9859 12.5188 15.6526 15.6254M2.47217 13.1428H5.8346C5.98054 13.1428 6.12188 13.1939 6.23411 13.2872L9.57266 16.0622C9.97988 16.4007 10.5972 16.1111 10.5972 15.5816L10.5972 4.41916C10.5972 3.88963 9.97988 3.60004 9.57265 3.93852L6.23412 6.71354C6.12188 6.80683 5.98054 6.8579 5.8346 6.8579H2.47217C2.12699 6.8579 1.84717 7.13773 1.84717 7.4829V12.5178C1.84717 12.863 2.12699 13.1428 2.47217 13.1428Z" stroke="white" stroke-width="1.25" stroke-linecap="round"/></svg>