<svg width="18" height="18" viewBox="0 0 18 18" fill="none" xmlns="http://www.w3.org/2000/svg">
<path d="M11.0417 3.904C11.0417 4.92906 10.2107 5.76003 9.18568 5.76003C8.16063 5.76003 7.32965 4.92906 7.32965 3.904C7.32965 2.87895 8.16063 2.04797 9.18568 2.04797C10.2107 2.04797 11.0417 2.87895 11.0417 3.904Z" fill="#8A5DBB"/>
<path d="M12.4193 8.56125H5.95209C6.4038 7.20818 7.68073 6.23283 9.18568 6.23283C10.6906 6.23283 11.9676 7.20818 12.4193 8.56125Z" fill="#8A5DBB"/>
<path d="M6.85695 11.2948C6.85695 12.3198 6.02598 13.1508 5.00093 13.1508C3.97587 13.1508 3.1449 12.3198 3.1449 11.2948C3.1449 10.2697 3.97587 9.43875 5.00093 9.43875C6.02598 9.43875 6.85695 10.2697 6.85695 11.2948Z" fill="#8A5DBB"/>
<path d="M8.23452 15.952H1.76733C2.21904 14.599 3.49598 13.6236 5.00093 13.6236C6.50587 13.6236 7.78281 14.599 8.23452 15.952Z" fill="#8A5DBB"/>
<path d="M14.8552 11.0585C14.8552 12.0836 14.0242 12.9146 12.9992 12.9146C11.9741 12.9146 11.1432 12.0836 11.1432 11.0585C11.1432 10.0335 11.9741 9.2025 12.9992 9.2025C14.0242 9.2025 14.8552 10.0335 14.8552 11.0585Z" fill="#8A5DBB"/>
<path d="M16.2328 15.7158H9.7656C10.2173 14.3627 11.4942 13.3874 12.9992 13.3874C14.5041 13.3874 15.7811 14.3627 16.2328 15.7158Z" fill="#8A5DBB"/>
</svg>
