<svg width="18" height="18" viewBox="0 0 18 18" fill="none" xmlns="http://www.w3.org/2000/svg">
<rect width="18" height="18"/>
<path d="M8.01758 6.32446C8.01758 7.60944 6.9759 8.65112 5.69092 8.65112C4.40594 8.65112 3.36426 7.60944 3.36426 6.32446C3.36426 5.03948 4.40594 3.9978 5.69092 3.9978C6.9759 3.9978 8.01758 5.03948 8.01758 6.32446Z" fill="#7BCCC1"/>
<path d="M14.5348 6.32446C14.5348 7.60944 13.4932 8.65112 12.2082 8.65112C10.9232 8.65112 9.88152 7.60944 9.88152 6.32446C9.88152 5.03948 10.9232 3.9978 12.2082 3.9978C13.4932 3.9978 14.5348 5.03948 14.5348 6.32446Z" fill="#7BCCC1"/>
<path d="M1.22876 14.0021V12.0049C2.31055 10.6193 3.99658 9.72839 5.89062 9.72839C7.61841 9.72839 9.1731 10.4697 10.2539 11.6517V14.0021H1.22876Z" fill="#7BCCC1"/>
<path d="M11.4072 14.0021V11.5564C10.9662 11.074 10.4709 10.6423 9.93059 10.271C10.684 9.92273 11.5231 9.72839 12.4079 9.72839C14.1357 9.72839 15.6904 10.4698 16.7712 11.652V14.0021H11.4072Z" fill="#7BCCC1"/>
</svg>
