<svg width="16" height="16" viewBox="0 0 16 16" fill="none" xmlns="http://www.w3.org/2000/svg">
<path d="M9.9301 10.1966H9.92891C9.929 10.1966 9.92896 10.1966 9.92881 10.1966C9.92681 10.1965 9.90474 10.1957 9.85791 10.1872C9.95772 10.0962 10.0565 9.98934 10.1521 9.87647C10.2116 9.90666 10.2763 9.93996 10.3465 9.9765C10.3845 9.99632 10.4208 10.0154 10.4554 10.0336C10.4403 10.0418 10.4235 10.0505 10.4047 10.0595C10.1741 10.1708 10.0206 10.1967 9.9301 10.1966ZM6.01985 6.19461C5.93545 6.2859 5.85552 6.37769 5.7875 6.4663C5.76615 6.37057 5.75803 6.28778 5.75885 6.21719L5.75891 6.21719V6.2056V6.15328C5.76515 6.016 5.79591 5.8875 5.86156 5.76216C5.88704 5.83108 5.91476 5.9063 5.94475 5.98794C5.97294 6.06467 5.99793 6.13347 6.01985 6.19461ZM10.4483 9.53234C10.4483 9.53237 10.4475 9.53311 10.4459 9.53447C10.4475 9.53298 10.4484 9.5323 10.4483 9.53234ZM10.7594 10.0925L11.4734 10.3751L10.7505 10.0781C10.7449 10.0687 10.7392 10.0589 10.7335 10.0487L11.3665 9.6966L11.6074 9.5626L11.2761 9.6966L10.6804 9.93758C10.6451 9.85042 10.6338 9.78124 10.6298 9.75148C10.6253 9.7182 10.6254 9.69797 10.6254 9.6966C10.6254 9.7248 10.6173 9.80963 10.5595 9.96551L10.7594 10.0925Z" fill="#7A8599" stroke="#7A8599" stroke-width="2"/>
<path d="M8.00001 14.5V15V14.5ZM4.85334 13.6894L5.09531 13.2519L4.92501 13.1577L4.73586 13.2034L4.85334 13.6894ZM1.50003 14.5L1.02059 14.3581C0.96986 14.5295 1.01449 14.715 1.13765 14.8445C1.26081 14.9741 1.44376 15.028 1.61751 14.986L1.50003 14.5ZM2.43129 11.3533L2.91073 11.4952L2.97352 11.2831L2.85875 11.0939L2.43129 11.3533ZM8.00001 2C8.81192 2 9.58517 2.15872 10.324 2.47639L10.719 1.5577C9.85442 1.18597 8.94668 1 8.00001 1V2ZM10.324 2.47639C11.0712 2.79763 11.7084 3.22555 12.2414 3.75856L12.9486 3.05145C12.3203 2.42324 11.5753 1.92586 10.719 1.5577L10.324 2.47639ZM12.2414 3.75856C12.7744 4.29156 13.2024 4.92883 13.5236 5.67599L14.4423 5.281C14.0741 4.42473 13.5768 3.67967 12.9486 3.05145L12.2414 3.75856ZM13.5236 5.67599C13.8413 6.41484 14 7.1881 14 8H15C15 7.05334 14.814 6.14559 14.4423 5.281L13.5236 5.67599ZM14 8C14 8.8119 13.8413 9.58516 13.5236 10.324L14.4423 10.719C14.814 9.8544 15 8.94666 15 8H14ZM13.5236 10.324C13.2024 11.0712 12.7744 11.7084 12.2414 12.2414L12.9486 12.9485C13.5768 12.3203 14.0741 11.5753 14.4423 10.719L13.5236 10.324ZM12.2414 12.2414C11.7084 12.7744 11.0712 13.2024 10.324 13.5236L10.719 14.4423C11.5753 14.0741 12.3203 13.5768 12.9486 12.9485L12.2414 12.2414ZM10.324 13.5236C9.58517 13.8413 8.81191 14 8.00001 14V15C8.94668 15 9.85442 14.814 10.719 14.4423L10.324 13.5236ZM8.00001 14C6.96367 14 5.99808 13.7511 5.09531 13.2519L4.61136 14.127C5.66284 14.7085 6.79503 15 8.00001 15V14ZM4.73586 13.2034L1.38255 14.014L1.61751 14.986L4.97081 14.1754L4.73586 13.2034ZM1.97948 14.6419L2.91073 11.4952L1.95185 11.2114L1.02059 14.3581L1.97948 14.6419ZM2.85875 11.0939C2.28601 10.1501 2.00003 9.12218 2.00003 8H1.00003C1.00003 9.3026 1.33489 10.5103 2.00383 11.6127L2.85875 11.0939ZM2.00003 8C2.00003 7.1881 2.15875 6.41484 2.47642 5.67599L1.55773 5.281C1.186 6.14559 1.00003 7.05334 1.00003 8H2.00003ZM2.47642 5.67599C2.79766 4.92883 3.22558 4.29157 3.75859 3.75856L3.05148 3.05145C2.42327 3.67967 1.92588 4.42473 1.55773 5.281L2.47642 5.67599ZM3.75859 3.75856C4.29159 3.22555 4.92885 2.79763 5.67601 2.47639L5.28103 1.5577C4.42475 1.92586 3.67969 2.42324 3.05148 3.05145L3.75859 3.75856ZM5.67601 2.47639C6.41486 2.15872 7.18811 2 8.00001 2V1C7.05335 1 6.14561 1.18597 5.28103 1.5577L5.67601 2.47639Z" fill="#6F7485"/>
</svg>
