<svg width="16" height="16" viewBox="0 0 16 16" fill="none" xmlns="http://www.w3.org/2000/svg">
<path d="M10.4 8C10.4 10.1001 9.71236 11.7613 9.02226 12.9005C8.67721 13.47 8.33282 13.9068 8.07679 14.1992C8.05085 14.2288 8.02584 14.2569 8.00184 14.2835C7.97708 14.2558 7.95122 14.2265 7.92439 14.1956C7.66795 13.8998 7.32318 13.4591 6.97781 12.8867C6.28685 11.7416 5.59961 10.0802 5.59961 8C5.59961 5.92815 6.28669 4.26669 6.97801 3.11901C7.3235 2.54544 7.66843 2.10306 7.92505 1.80596C7.95338 1.77316 7.98061 1.74215 8.00663 1.71295C8.03011 1.73848 8.05456 1.76545 8.0799 1.79384C8.33511 2.07984 8.67874 2.50896 9.02316 3.07306C9.7116 4.2006 10.4 5.86144 10.4 8ZM7.67255 1.37803C7.67246 1.37795 7.67255 1.37802 7.6728 1.37824L7.67255 1.37803Z" stroke="#6F7485"/>
<circle cx="8" cy="8" r="6.5" stroke="#6F7485"/>
<path d="M1 8H15" stroke="#6F7485"/>
</svg>
