<svg width="24" height="24" viewBox="0 0 24 24" fill="none" xmlns="http://www.w3.org/2000/svg">
<rect width="24" height="24" rx="12" fill="url(#paint0_linear_4238_14105)"/>
<g clip-path="url(#clip0_4238_14105)">
<path d="M12 5.33203C13.8113 5.33203 14.0373 5.3387 14.748 5.37203C15.458 5.40536 15.9413 5.5167 16.3666 5.68203C16.8066 5.85136 17.1773 6.0807 17.548 6.4507C17.887 6.78396 18.1493 7.18709 18.3166 7.63203C18.4813 8.0567 18.5933 8.5407 18.6266 9.2507C18.658 9.96136 18.6666 10.1874 18.6666 11.9987C18.6666 13.81 18.66 14.036 18.6266 14.7467C18.5933 15.4567 18.4813 15.94 18.3166 16.3654C18.1498 16.8105 17.8874 17.2138 17.548 17.5467C17.2146 17.8856 16.8115 18.1479 16.3666 18.3154C15.942 18.48 15.458 18.592 14.748 18.6254C14.0373 18.6567 13.8113 18.6654 12 18.6654C10.1886 18.6654 9.96265 18.6587 9.25198 18.6254C8.54198 18.592 8.05865 18.48 7.63331 18.3154C7.1882 18.1483 6.785 17.886 6.45198 17.5467C6.11292 17.2135 5.8506 16.8103 5.68331 16.3654C5.51798 15.9407 5.40665 15.4567 5.37331 14.7467C5.34198 14.036 5.33331 13.81 5.33331 11.9987C5.33331 10.1874 5.33998 9.96136 5.37331 9.2507C5.40665 8.54003 5.51798 8.05736 5.68331 7.63203C5.85014 7.18682 6.11252 6.78358 6.45198 6.4507C6.78509 6.11152 7.18827 5.84918 7.63331 5.68203C8.05865 5.5167 8.54131 5.40536 9.25198 5.37203C9.96265 5.3407 10.1886 5.33203 12 5.33203ZM12 8.66536C11.1159 8.66536 10.2681 9.01655 9.64296 9.64168C9.01784 10.2668 8.66665 11.1146 8.66665 11.9987C8.66665 12.8828 9.01784 13.7306 9.64296 14.3557C10.2681 14.9808 11.1159 15.332 12 15.332C12.884 15.332 13.7319 14.9808 14.357 14.3557C14.9821 13.7306 15.3333 12.8828 15.3333 11.9987C15.3333 11.1146 14.9821 10.2668 14.357 9.64168C13.7319 9.01655 12.884 8.66536 12 8.66536ZM16.3333 8.4987C16.3333 8.27768 16.2455 8.06572 16.0892 7.90944C15.933 7.75316 15.721 7.66536 15.5 7.66536C15.279 7.66536 15.067 7.75316 14.9107 7.90944C14.7544 8.06572 14.6666 8.27768 14.6666 8.4987C14.6666 8.71971 14.7544 8.93167 14.9107 9.08795C15.067 9.24423 15.279 9.33203 15.5 9.33203C15.721 9.33203 15.933 9.24423 16.0892 9.08795C16.2455 8.93167 16.3333 8.71971 16.3333 8.4987ZM12 9.9987C12.5304 9.9987 13.0391 10.2094 13.4142 10.5845C13.7893 10.9596 14 11.4683 14 11.9987C14 12.5291 13.7893 13.0378 13.4142 13.4129C13.0391 13.788 12.5304 13.9987 12 13.9987C11.4695 13.9987 10.9608 13.788 10.5858 13.4129C10.2107 13.0378 9.99998 12.5291 9.99998 11.9987C9.99998 11.4683 10.2107 10.9596 10.5858 10.5845C10.9608 10.2094 11.4695 9.9987 12 9.9987Z" fill="white"/>
</g>
<defs>
<linearGradient id="paint0_linear_4238_14105" x1="7.91624e-09" y1="11.5" x2="24" y2="11.5" gradientUnits="userSpaceOnUse">
<stop stop-color="#FF6E1F"/>
<stop offset="1" stop-color="#D701BC"/>
</linearGradient>
<clipPath id="clip0_4238_14105">
<rect width="16" height="16" fill="white" transform="translate(4 4)"/>
</clipPath>
</defs>
</svg>
