<svg width="24" height="24" viewBox="0 0 24 24" fill="none" xmlns="http://www.w3.org/2000/svg">
<rect width="24" height="24" rx="12" fill="#0B66C1"/>
<path d="M15.9594 15.9619H14.2937V13.3512C14.2937 12.7287 14.2812 11.9275 13.425 11.9275C12.5569 11.9275 12.4244 12.605 12.4244 13.3056V15.9619H10.7581V10.5938H12.3581V11.325H12.38C12.6037 10.9037 13.1475 10.4581 13.96 10.4581C15.6475 10.4581 15.96 11.5694 15.96 13.015V15.9619H15.9594ZM8.87687 9.85938C8.74972 9.85954 8.62379 9.83461 8.50629 9.786C8.38879 9.7374 8.28204 9.66609 8.19216 9.57615C8.10228 9.48621 8.03103 9.37941 7.98251 9.26188C7.93398 9.14435 7.90913 9.0184 7.90937 8.89125C7.9095 8.6999 7.96636 8.51288 8.07278 8.35384C8.17919 8.19481 8.33037 8.0709 8.50721 7.99778C8.68404 7.92467 8.87859 7.90564 9.06624 7.94309C9.25389 7.98054 9.42622 8.0728 9.56144 8.20819C9.69666 8.34359 9.7887 8.51604 9.82591 8.70374C9.86312 8.89144 9.84383 9.08596 9.77049 9.2627C9.69715 9.43944 9.57304 9.59046 9.41387 9.69667C9.2547 9.80288 9.0676 9.8595 8.87625 9.85938H8.87687ZM9.71187 15.9619H8.04125V10.5938H9.7125V15.9619H9.71187ZM16.7937 6.375H7.20562C6.74562 6.375 6.375 6.7375 6.375 7.18562V16.8144C6.375 17.2625 6.74625 17.625 7.205 17.625H16.7913C17.25 17.625 17.625 17.2625 17.625 16.8144V7.18562C17.625 6.7375 17.25 6.375 16.7913 6.375H16.7931H16.7937Z" fill="white"/>
</svg>
