<svg width="16" height="16" viewBox="0 0 16 16" fill="none" xmlns="http://www.w3.org/2000/svg">
<g clip-path="url(#clip0_4539_14373)">
<path d="M8 13.932L11.3 10.632C11.9526 9.97931 12.397 9.14779 12.577 8.24256C12.7571 7.33733 12.6646 6.39904 12.3114 5.54635C11.9582 4.69366 11.36 3.96485 10.5926 3.45209C9.82519 2.93933 8.92296 2.66565 8 2.66565C7.07704 2.66565 6.17481 2.93933 5.40739 3.45209C4.63997 3.96485 4.04183 4.69366 3.68861 5.54635C3.33539 6.39904 3.24294 7.33733 3.42297 8.24256C3.603 9.14779 4.04741 9.97931 4.7 10.632L8 13.932ZM8 15.8173L3.75734 11.5746C2.91823 10.7355 2.34679 9.66643 2.11529 8.50255C1.88378 7.33866 2.0026 6.13227 2.45673 5.03591C2.91086 3.93956 3.6799 3.00249 4.66659 2.34321C5.65328 1.68392 6.81332 1.33203 8 1.33203C9.18669 1.33203 10.3467 1.68392 11.3334 2.34321C12.3201 3.00249 13.0891 3.93956 13.5433 5.03591C13.9974 6.13227 14.1162 7.33866 13.8847 8.50255C13.6532 9.66643 13.0818 10.7355 12.2427 11.5746L8 15.8173ZM8 8.66531C8.35362 8.66531 8.69276 8.52484 8.94281 8.27479C9.19286 8.02474 9.33334 7.6856 9.33334 7.33198C9.33334 6.97836 9.19286 6.63922 8.94281 6.38917C8.69276 6.13912 8.35362 5.99865 8 5.99865C7.64638 5.99865 7.30724 6.13912 7.05719 6.38917C6.80715 6.63922 6.66667 6.97836 6.66667 7.33198C6.66667 7.6856 6.80715 8.02474 7.05719 8.27479C7.30724 8.52484 7.64638 8.66531 8 8.66531ZM8 9.99865C7.29276 9.99865 6.61448 9.71769 6.11438 9.2176C5.61429 8.7175 5.33334 8.03922 5.33334 7.33198C5.33334 6.62474 5.61429 5.94646 6.11438 5.44636C6.61448 4.94626 7.29276 4.66531 8 4.66531C8.70725 4.66531 9.38552 4.94626 9.88562 5.44636C10.3857 5.94646 10.6667 6.62474 10.6667 7.33198C10.6667 8.03922 10.3857 8.7175 9.88562 9.2176C9.38552 9.71769 8.70725 9.99865 8 9.99865Z" fill="#7A8599"/>
</g>
<defs>
<clipPath id="clip0_4539_14373">
<rect width="16" height="16" fill="white"/>
</clipPath>
</defs>
</svg>
