<svg width="14" height="14" viewBox="0 0 14 14" fill="none" xmlns="http://www.w3.org/2000/svg">
<path fill-rule="evenodd" clip-rule="evenodd" d="M4.11264 7.5C4.23835 9.98143 5.27701 11.8468 6.07298 12.9288C3.3608 12.5082 1.24914 10.2711 1.02054 7.5H4.11264ZM5.11408 7.5C5.21207 9.23463 5.80608 10.6336 6.40632 11.6284C6.61297 11.9709 6.81914 12.2634 7.00368 12.5024C7.18652 12.2669 7.39051 11.979 7.59501 11.6414C8.19423 10.6523 8.78932 9.25244 8.88658 7.5H5.11408ZM8.88705 6.5H5.11419C5.21248 4.77282 5.80605 3.37416 6.4067 2.377C6.61623 2.02916 6.8253 1.7325 7.01188 1.49074C7.19281 1.72064 7.3945 2.00227 7.59681 2.33361C8.19402 3.31174 8.79116 4.71301 8.88705 6.5ZM9.88797 7.5C9.76365 9.99365 8.73133 11.8504 7.93607 12.9274C10.6439 12.5032 12.7511 10.268 12.9795 7.5H9.88797ZM12.9795 6.5H9.88836C9.76667 3.98322 8.74672 2.14267 7.95297 1.07526C10.6527 1.50611 12.7516 3.73779 12.9795 6.5ZM14 7V6.5H13.9824C13.726 2.86743 10.698 0.000104345 7.0002 0H7C3.30212 0 0.273955 2.86736 0.017582 6.5H0V7V7.5H0.017582C0.273955 11.1326 3.30212 14 7 14H7.0002C10.698 13.9999 13.726 11.1326 13.9824 7.5H14V7ZM1.02054 6.5C1.24924 3.72773 3.36266 1.48986 6.07654 1.07063C5.2803 2.15478 4.23902 4.02378 4.11272 6.5H1.02054Z" fill="#7A8599"/>
</svg>
