<svg width="14" height="14" viewBox="0 0 14 14" fill="none" xmlns="http://www.w3.org/2000/svg">
<path d="M3.50201 11.328L3.98468 11.61C4.79864 12.0847 5.7244 12.334 6.66668 12.332C7.72151 12.332 8.75265 12.0192 9.62972 11.4332C10.5068 10.8472 11.1904 10.0142 11.594 9.03968C11.9977 8.06514 12.1033 6.99278 11.8975 5.95822C11.6917 4.92365 11.1838 3.97334 10.4379 3.22746C9.69203 2.48158 8.74172 1.97363 7.70716 1.76784C6.67259 1.56206 5.60024 1.66767 4.6257 2.07134C3.65116 2.47501 2.81821 3.15859 2.23217 4.03566C1.64614 4.91272 1.33334 5.94386 1.33334 6.9987C1.33334 7.95603 1.58468 8.87403 2.05601 9.68137L2.33734 10.164L1.90201 11.7647L3.50201 11.328ZM0.00267559 13.6654L0.904009 10.3534C0.310101 9.33527 -0.00192709 8.17736 8.95483e-06 6.9987C8.95483e-06 3.3167 2.98468 0.332031 6.66668 0.332031C10.3487 0.332031 13.3333 3.3167 13.3333 6.9987C13.3333 10.6807 10.3487 13.6654 6.66668 13.6654C5.48853 13.6673 4.33111 13.3555 3.31334 12.762L0.00267559 13.6654ZM4.26068 3.8707C4.35001 3.86403 4.44001 3.86403 4.52934 3.86803C4.56534 3.8707 4.60134 3.8747 4.63734 3.8787C4.74334 3.8907 4.86001 3.95536 4.89934 4.0447C5.09801 4.49536 5.29134 4.94936 5.47801 5.4047C5.51934 5.50603 5.49468 5.63603 5.41601 5.7627C5.36191 5.84835 5.30338 5.93113 5.24068 6.0107C5.16534 6.10736 5.00334 6.2847 5.00334 6.2847C5.00334 6.2847 4.93734 6.36336 4.96268 6.46136C4.97201 6.4987 5.00268 6.5527 5.03068 6.59803L5.07001 6.66137C5.24068 6.94603 5.47001 7.2347 5.75001 7.5067C5.83001 7.58403 5.90801 7.66336 5.99201 7.73736C6.30401 8.0127 6.65734 8.23736 7.03868 8.40403L7.04201 8.40536C7.09868 8.43003 7.12734 8.44337 7.21001 8.4787C7.25134 8.49603 7.29401 8.51136 7.33734 8.5227C7.38212 8.5341 7.42928 8.53195 7.47284 8.51653C7.5164 8.5011 7.55439 8.47308 7.58201 8.43603C8.06468 7.85137 8.10868 7.81336 8.11268 7.81336V7.8147C8.14621 7.78342 8.18604 7.75969 8.22951 7.74508C8.27297 7.73048 8.31906 7.72535 8.36468 7.73003C8.40468 7.7327 8.44534 7.74003 8.48268 7.7567C8.83668 7.9187 9.41601 8.17136 9.41601 8.17136L9.80401 8.34537C9.86934 8.3767 9.92868 8.4507 9.93068 8.52203C9.93334 8.5667 9.93734 8.6387 9.92201 8.7707C9.90068 8.94337 9.84868 9.1507 9.79668 9.25937C9.76106 9.33352 9.7138 9.4015 9.65668 9.4607C9.58941 9.53133 9.51576 9.5956 9.43668 9.6527C9.40932 9.67327 9.38153 9.69328 9.35334 9.7127C9.27042 9.76531 9.18523 9.81424 9.09801 9.85937C8.92636 9.95054 8.73678 10.0029 8.54268 10.0127C8.41934 10.0194 8.29601 10.0287 8.17201 10.022C8.16668 10.022 7.79334 9.96403 7.79334 9.96403C6.84551 9.71472 5.96894 9.24767 5.23334 8.60003C5.08268 8.46737 4.94334 8.3247 4.80068 8.1827C4.20734 7.5927 3.75934 6.95603 3.48734 6.3547C3.34812 6.05956 3.27292 5.7383 3.26668 5.41203C3.26393 5.00727 3.39624 4.61314 3.64268 4.29203C3.69134 4.22936 3.73734 4.16403 3.81668 4.0887C3.90134 4.0087 3.95468 3.96603 4.01268 3.9367C4.08979 3.89805 4.17392 3.87538 4.26001 3.87003L4.26068 3.8707Z" fill="#7A8599"/>
</svg>
