<svg width="24" height="24" viewBox="0 0 24 24" fill="none" xmlns="http://www.w3.org/2000/svg">
<rect width="24" height="24" rx="12" fill="#1EA1F1"/>
<path d="M18.3514 8.03434C17.8743 8.2454 17.3683 8.38401 16.8502 8.44559C17.3963 8.11899 17.805 7.60498 18.0002 6.99934C17.4877 7.30434 16.9258 7.51809 16.3402 7.63372C15.9468 7.21283 15.4254 6.9337 14.857 6.83971C14.2887 6.74572 13.7051 6.84215 13.1972 7.114C12.6893 7.38585 12.2854 7.8179 12.0484 8.34296C11.8113 8.86803 11.7544 9.45671 11.8864 10.0175C10.8471 9.96538 9.83039 9.6953 8.90224 9.22476C7.97409 8.75422 7.15527 8.09375 6.49894 7.28622C6.26662 7.68525 6.14453 8.13886 6.14519 8.60059C6.14519 9.50684 6.60644 10.3075 7.30769 10.7762C6.89269 10.7632 6.48683 10.6511 6.12394 10.4493V10.4818C6.12406 11.0854 6.33292 11.6704 6.71509 12.1375C7.09726 12.6047 7.62924 12.9253 8.22081 13.045C7.83557 13.1494 7.43163 13.1648 7.03956 13.09C7.20635 13.6095 7.53144 14.0638 7.96931 14.3894C8.40717 14.715 8.93589 14.8955 9.48144 14.9056C8.93924 15.3314 8.31842 15.6462 7.65449 15.832C6.99055 16.0177 6.29652 16.0708 5.61206 15.9881C6.80687 16.7565 8.19775 17.1644 9.61831 17.1631C14.4264 17.1631 17.0558 13.18 17.0558 9.72559C17.0558 9.61309 17.0527 9.49934 17.0477 9.38809C17.5595 9.0182 18.0012 8.55998 18.3521 8.03497L18.3514 8.03434Z" fill="white"/>
</svg>
