<svg width="24" height="24" viewBox="0 0 24 24" fill="none" xmlns="http://www.w3.org/2000/svg">
<rect width="24" height="24" rx="12" fill="#FF0000"/>
<g clip-path="url(#clip0_4238_14109)">
<path d="M18.362 8.3333C18.6666 9.5213 18.6666 12.0013 18.6666 12.0013C18.6666 12.0013 18.6666 14.4813 18.362 15.6693C18.1926 16.326 17.6973 16.8426 17.07 17.0173C15.9306 17.3346 12 17.3346 12 17.3346C12 17.3346 8.07131 17.3346 6.92998 17.0173C6.29998 16.84 5.80531 16.324 5.63798 15.6693C5.33331 14.4813 5.33331 12.0013 5.33331 12.0013C5.33331 12.0013 5.33331 9.5213 5.63798 8.3333C5.80731 7.67664 6.30265 7.15997 6.92998 6.9853C8.07131 6.66797 12 6.66797 12 6.66797C12 6.66797 15.9306 6.66797 17.07 6.9853C17.7 7.16264 18.1946 7.67864 18.362 8.3333ZM10.6666 14.3346L14.6666 12.0013L10.6666 9.66797V14.3346Z" fill="white"/>
</g>
<defs>
<clipPath id="clip0_4238_14109">
<rect width="16" height="16" fill="white" transform="translate(4 4)"/>
</clipPath>
</defs>
</svg>
