<svg width="102" height="78" viewBox="0 0 102 78" fill="none" xmlns="http://www.w3.org/2000/svg">
<ellipse cx="51" cy="37.2057" rx="33.8235" ry="8.79412" fill="#EBEDF2"/>
<path d="M25.7942 36.2353V15.0684L37.6281 1.36595C38.103 0.816078 38.7936 0.5 39.5202 0.5H62.48C63.2065 0.5 63.8972 0.816078 64.372 1.36595L76.206 15.0684V36.2353C76.206 37.616 75.0867 38.7353 73.706 38.7353H28.2942C26.9135 38.7353 25.7942 37.616 25.7942 36.2353Z" stroke="#E1E3E8"/>
<path d="M25.7942 15.3823H38.853C39.6814 15.3823 40.353 16.0539 40.353 16.8823V19.647C40.353 21.0277 41.4723 22.147 42.853 22.147H59.1471C60.5278 22.147 61.6471 21.0277 61.6471 19.647V16.8823C61.6471 16.0539 62.3187 15.3823 63.1471 15.3823H76.206V36.2353C76.206 37.616 75.0867 38.7353 73.706 38.7353H28.2942C26.9135 38.7353 25.7942 37.616 25.7942 36.2353V15.3823Z" fill="#F6F7FA" stroke="#E1E3E8"/>
<path d="M30.014 67.616C29.37 67.672 28.684 67.728 27.956 67.784V66.678H30.14V65.852H27.956V64.928H27.032V65.852H25.408C25.758 65.39 26.094 64.858 26.402 64.27H30.238V63.374H26.822C26.934 63.122 27.032 62.87 27.13 62.618L26.122 62.45C26.01 62.758 25.884 63.066 25.758 63.374H23.812V64.27H25.31C24.974 64.9 24.596 65.432 24.204 65.88L24.428 66.678H27.032V67.84C26.08 67.896 25.058 67.938 23.994 67.994L24.12 68.89C25.128 68.834 26.108 68.764 27.032 68.708V69.716H27.956V68.638C28.67 68.568 29.356 68.498 30.014 68.442V67.616ZM31.974 66.692H33.794V69.73H34.76V66.692H36.244V65.81H32.044V64.354C33.556 64.186 34.816 63.864 35.852 63.416L35.208 62.66C34.228 63.108 32.856 63.416 31.12 63.584V65.782C31.092 67.042 30.756 68.12 30.14 69.03L30.84 69.758C31.442 68.89 31.82 67.868 31.974 66.692ZM34.676 70.136H25.492V75.4H26.528V74.854H33.64V75.4H34.676V70.136ZM26.528 73.986V72.894H33.64V73.986H26.528ZM26.528 72.082V70.99H33.64V72.082H26.528ZM38.862 63.318V64.298H42.88V65.236C42.866 66.104 42.81 66.93 42.698 67.686H37.924V68.652H42.53C42.348 69.534 42.096 70.332 41.76 71.032C41.004 72.46 39.674 73.594 37.742 74.462L38.302 75.358C40.248 74.518 41.648 73.328 42.516 71.816C42.992 70.92 43.342 69.87 43.566 68.652H44.7V73.748C44.7 74.7 45.148 75.176 46.072 75.176H48.34C48.928 75.176 49.348 75.05 49.614 74.798C49.922 74.49 50.132 73.664 50.244 72.292L49.292 71.984C49.222 73.076 49.096 73.72 48.9 73.944C48.746 74.126 48.494 74.224 48.158 74.224H46.38C45.932 74.224 45.708 73.986 45.708 73.538V68.652H50.048V67.686H43.72C43.818 66.93 43.874 66.104 43.902 65.236V64.298H48.914V63.318H38.862ZM60.212 65.67H62.284C62.228 67.56 61.934 69.212 61.388 70.626C60.828 69.45 60.38 68.036 60.03 66.398L60.212 65.67ZM60.926 71.634C60.282 72.824 59.428 73.79 58.336 74.546L58.854 75.386C59.904 74.63 60.772 73.692 61.444 72.572C62.144 73.748 62.984 74.7 63.964 75.4L64.51 74.574C63.502 73.888 62.648 72.922 61.92 71.662C62.704 70.01 63.138 68.008 63.208 65.67H64.118V64.704H60.422C60.534 64.088 60.646 63.416 60.73 62.702L59.75 62.534C59.47 65.194 58.91 67.308 58.084 68.876L58.714 69.646C59.008 69.142 59.288 68.568 59.54 67.924C59.918 69.324 60.38 70.556 60.926 71.634ZM54.29 69.072C54.192 69.352 54.08 69.646 53.954 69.954H51.91V70.836H53.562C53.282 71.396 52.96 71.97 52.596 72.586C53.282 72.838 53.926 73.104 54.542 73.37C53.73 73.832 52.736 74.21 51.588 74.518L52.064 75.358C53.464 74.966 54.626 74.448 55.55 73.804C56.376 74.168 57.09 74.546 57.706 74.91L58.252 74.126C57.636 73.79 56.992 73.482 56.32 73.174C57.048 72.502 57.566 71.704 57.874 70.78V69.954H54.948C55.032 69.702 55.13 69.45 55.228 69.184L54.29 69.072ZM55.396 72.782C54.892 72.572 54.36 72.376 53.8 72.18C54.08 71.76 54.332 71.312 54.556 70.836H56.964C56.628 71.564 56.096 72.222 55.396 72.782ZM53.016 62.828L52.218 63.094C52.554 63.626 52.862 64.228 53.156 64.914L53.884 64.578C53.632 63.962 53.352 63.374 53.016 62.828ZM57.272 62.786C57.02 63.374 56.656 63.962 56.208 64.564L56.922 64.928C57.37 64.34 57.72 63.738 58 63.122L57.272 62.786ZM51.938 65.25V66.132H53.926C53.506 66.902 52.75 67.602 51.672 68.232L52.162 69.044C53.366 68.232 54.206 67.28 54.668 66.174V68.834H55.606V67.014C56.11 67.35 56.712 67.798 57.412 68.358L57.93 67.574C57.146 67.098 56.362 66.664 55.606 66.286V66.132H58.154V65.25H55.606V62.576H54.668V65.25H51.938ZM67.296 75.274C68.08 75.274 68.472 74.854 68.472 74.042V69.954C68.906 69.758 69.34 69.562 69.774 69.338V68.344C69.354 68.568 68.92 68.778 68.472 68.974V66.216H69.816V65.25H68.472V62.604H67.492V65.25H65.812V66.216H67.492V69.38C66.876 69.604 66.232 69.8 65.588 69.954L65.84 70.934C66.386 70.766 66.932 70.57 67.492 70.36V73.79C67.492 74.182 67.31 74.392 66.96 74.392C66.624 74.392 66.26 74.364 65.896 74.322L66.106 75.274H67.296ZM71.482 69.086H74.338V70.808H72V75.4H72.938V74.714H76.732V75.4H77.67V70.808H75.318V69.086H78.314V68.176H75.318V66.524H77.95V63.122H70.572V67.504C70.558 70.444 70.054 72.852 69.06 74.7L69.844 75.4C70.768 73.58 71.314 71.48 71.482 69.086ZM74.338 66.524V68.176H71.538C71.538 67.952 71.552 67.728 71.552 67.504V66.524H74.338ZM72.938 73.818V71.704H76.732V73.818H72.938ZM76.97 64.06V65.614H71.552V64.06H76.97Z" fill="#747A8C"/>
</svg>
