<svg width="34" height="16" viewBox="0 0 34 16" fill="none" xmlns="http://www.w3.org/2000/svg">
<path d="M4.77078 4.86V12H7.94078C8.67078 12 9.25078 11.85 9.67078 11.57C10.1608 11.23 10.4108 10.71 10.4108 10.01C10.4108 9.53 10.2708 9.15 10.0108 8.85C9.75078 8.55 9.39078 8.35 8.92078 8.27C9.28078 8.15 9.57078 7.96 9.79078 7.7C10.0008 7.41 10.1108 7.06 10.1108 6.66C10.1108 6.1 9.92078 5.66 9.54078 5.34C9.15078 5.02 8.62078 4.86 7.96078 4.86H4.77078ZM5.59078 5.55H7.77078C8.27078 5.55 8.65078 5.64 8.91078 5.84C9.17078 6.04 9.30078 6.34 9.30078 6.74C9.30078 7.15 9.16078 7.46 8.90078 7.67C8.64078 7.87 8.26078 7.98 7.76078 7.98H5.59078V5.55ZM5.59078 8.66H7.87078C8.42078 8.66 8.84078 8.76 9.13078 8.98C9.43078 9.2 9.59078 9.54 9.59078 10C9.59078 10.46 9.41078 10.81 9.06078 11.03C8.76078 11.21 8.37078 11.31 7.87078 11.31H5.59078V8.66ZM11.5384 4.86V12H16.7684V11.29H12.3584V8.67H16.3584V7.96H12.3584V5.57H16.5984V4.86H11.5384ZM17.3555 4.86V5.57H19.8755V12H20.6855V5.57H23.2055V4.86H17.3555ZM26.187 4.86L23.377 12H24.257L25.017 10H28.297L29.057 12H29.947L27.137 4.86H26.187ZM25.277 9.31L26.647 5.74H26.687L28.037 9.31H25.277Z" fill="#0FD683"/>
<rect x="0.5" y="0.5" width="33" height="15" rx="7.5" stroke="#0FD683"/>
</svg>