<svg width="29" height="17" viewBox="0 0 29 17" fill="none" xmlns="http://www.w3.org/2000/svg">
<path d="M0 9C0 4.58172 3.58172 1 8 1H21C25.4183 1 29 4.58172 29 9C29 13.4183 25.4183 17 21 17H8C3.58172 17 0 13.4183 0 9Z" fill="#C2D3FF"/>
<path d="M4.62 4.72V12H5.37V11.15C5.72 11.81 6.29 12.14 7.09 12.14C7.84 12.14 8.43 11.86 8.86 11.32C9.24 10.82 9.44 10.18 9.44 9.4C9.44 8.64 9.24 8.02 8.86 7.52C8.44 6.96 7.86 6.69 7.13 6.69C6.39 6.69 5.82 7.05 5.42 7.78V4.72H4.62ZM6.96 7.35C7.52 7.35 7.94 7.55 8.23 7.95C8.49 8.3 8.62 8.78 8.62 9.4C8.62 10.02 8.49 10.51 8.25 10.87C7.97 11.27 7.55 11.48 6.99 11.48C6.47 11.48 6.06 11.28 5.78 10.88C5.52 10.52 5.39 10.05 5.39 9.47V9.37C5.39 8.77 5.53 8.28 5.83 7.91C6.11 7.53 6.49 7.35 6.96 7.35ZM12.6094 6.69C11.8594 6.69 11.2694 6.96 10.8294 7.5C10.3894 8.01 10.1794 8.65 10.1794 9.41C10.1794 10.25 10.3994 10.91 10.8594 11.41C11.2994 11.89 11.8994 12.14 12.6394 12.14C13.3094 12.14 13.8594 11.94 14.2894 11.56C14.6394 11.24 14.8694 10.84 14.9894 10.34H14.1894C14.0594 10.7 13.8894 10.97 13.6694 11.15C13.4094 11.36 13.0594 11.47 12.6394 11.47C12.1494 11.47 11.7594 11.31 11.4794 10.99C11.1994 10.67 11.0494 10.22 11.0094 9.64H15.0894C15.0694 8.74 14.8694 8.03 14.4894 7.53C14.0694 6.97 13.4394 6.69 12.6094 6.69ZM12.6294 7.36C13.6094 7.36 14.1594 7.91 14.2594 9.02H11.0294C11.0794 8.51 11.2394 8.11 11.5194 7.81C11.7994 7.51 12.1694 7.36 12.6294 7.36ZM17.4063 5.16L16.6163 5.49V6.83H15.5763V7.5H16.6163V10.79C16.6163 11.18 16.6963 11.47 16.8663 11.67C17.0463 11.89 17.3563 12 17.7763 12H18.5563V11.33H17.8963C17.7163 11.33 17.5863 11.28 17.5163 11.2C17.4363 11.12 17.4063 10.98 17.4063 10.79V7.5H18.6863V6.83H17.4063V5.16ZM21.8309 6.69C21.2109 6.69 20.7209 6.81 20.3409 7.05C19.9209 7.31 19.6509 7.72 19.5409 8.26L20.3309 8.32C20.4109 7.99 20.5809 7.74 20.8509 7.58C21.0909 7.42 21.4009 7.35 21.7809 7.35C22.6809 7.35 23.1309 7.78 23.1309 8.65V8.92L21.8909 8.94C21.1109 8.95 20.5109 9.1 20.0909 9.38C19.6109 9.68 19.3809 10.12 19.3809 10.71C19.3809 11.13 19.5409 11.48 19.8609 11.75C20.1709 12.01 20.5809 12.14 21.1009 12.14C21.5809 12.14 22.0109 12.03 22.3909 11.82C22.7109 11.64 22.9809 11.41 23.1809 11.13V12H23.9309V8.68C23.9309 8.08 23.7709 7.61 23.4709 7.27C23.1109 6.88 22.5709 6.69 21.8309 6.69ZM23.1309 9.52V9.96C23.1309 10.36 22.9409 10.72 22.5709 11.03C22.1909 11.35 21.7609 11.51 21.2709 11.51C20.9509 11.51 20.6909 11.43 20.4909 11.28C20.2909 11.12 20.2009 10.93 20.2009 10.69C20.2009 9.94 20.7809 9.56 21.9409 9.54L23.1309 9.52Z" fill="#326CFE"/>
</svg>
