<svg width="12" height="12" viewBox="0 0 12 12" fill="none" xmlns="http://www.w3.org/2000/svg">
<path fill-rule="evenodd" clip-rule="evenodd" d="M6.5 1.2002C6.5 0.924053 6.27614 0.700195 6 0.700195C5.72386 0.700195 5.5 0.924053 5.5 1.2002V5.2002H1.5C1.22386 5.2002 1 5.42405 1 5.7002C1 5.97634 1.22386 6.2002 1.5 6.2002H5.5V10.2002C5.5 10.4763 5.72386 10.7002 6 10.7002C6.27614 10.7002 6.5 10.4763 6.5 10.2002V6.2002H10.5C10.7761 6.2002 11 5.97634 11 5.7002C11 5.42405 10.7761 5.2002 10.5 5.2002H6.5V1.2002Z" fill="#B7C3FF"/>
</svg>
