<svg width="24" height="24" viewBox="0 0 24 24" fill="none" xmlns="http://www.w3.org/2000/svg">
<path d="M24 0H0V24H24V0Z" fill="white" fill-opacity="0.01"/>
<path d="M9.5 10C11.433 10 13 8.433 13 6.5C13 4.56701 11.433 3 9.5 3C7.567 3 6 4.56701 6 6.5C6 8.433 7.567 10 9.5 10Z" stroke="#262A33" stroke-opacity="0.9" stroke-width="1.5" stroke-linejoin="round"/>
<path d="M15 17.5005H21M18 14.5005V20.5005V14.5005Z" stroke="#262A33" stroke-opacity="0.9" stroke-width="1.5" stroke-linecap="round" stroke-linejoin="round"/>
<path d="M13.5 13.9995H9.4C7.1598 13.9995 6.0397 13.9995 5.18405 14.4355C4.43139 14.819 3.81947 15.4309 3.43598 16.1836C3 17.0392 3 18.1593 3 20.3995V20.9995H13.5" stroke="#262A33" stroke-opacity="0.9" stroke-width="1.5" stroke-linecap="round" stroke-linejoin="round"/>
</svg>
