<svg width="32" height="32" viewBox="0 0 32 32" fill="none" xmlns="http://www.w3.org/2000/svg">
<circle cx="16" cy="16" r="15.4" fill="white" stroke="#386EE7" stroke-width="1.2"/>
<path d="M9.59995 9.19995H22.3999C22.7151 9.19995 23.0272 9.26203 23.3184 9.38264C23.6096 9.50325 23.8741 9.68003 24.097 9.90289C24.3199 10.1258 24.4966 10.3903 24.6173 10.6815C24.7379 10.9727 24.7999 11.2848 24.7999 11.6V20.4C24.7999 21.0365 24.5471 21.6469 24.097 22.097C23.6469 22.5471 23.0365 22.7999 22.3999 22.7999H9.59995C8.96343 22.7999 8.35298 22.5471 7.90289 22.097C7.45281 21.6469 7.19995 21.0365 7.19995 20.4V11.6C7.19995 10.9634 7.45281 10.353 7.90289 9.90289C8.35298 9.45281 8.96343 9.19995 9.59995 9.19995Z" fill="#386EE7"/>
<path d="M22.8001 10.6001L9.20012 10.6049C8.57372 10.6049 8.36652 11.4437 8.92012 11.7353L15.7421 15.3309C15.8286 15.3765 15.925 15.4003 16.0228 15.4002C16.1206 15.4 16.2169 15.376 16.3033 15.3301L23.0817 11.7301C23.6337 11.4369 23.4253 10.5997 22.7997 10.6001H22.8001Z" fill="white"/>
<rect x="20" y="20" width="12" height="12" rx="6" fill="white"/>
<path d="M26.1862 26.5901C26.1396 26.6453 26.088 26.6875 26.0314 26.7186C25.9747 26.7497 25.912 26.7658 25.8432 26.7658C25.8058 26.7658 25.7734 26.7608 25.7461 26.7518C25.7177 26.7417 25.6945 26.7246 25.6752 26.7005C25.656 26.6774 25.6409 26.6453 25.6307 26.6051C25.6206 26.5649 25.6156 26.5137 25.6156 26.4515C25.6156 26.2817 25.6378 26.112 25.6833 25.9402C25.7289 25.7695 25.7916 25.6088 25.8725 25.4571C25.9535 25.3055 26.0486 25.1689 26.1598 25.0474C26.2701 24.9258 26.3895 24.8294 26.518 24.7591L26.1862 26.5901ZM29.1302 25.1066C29.0857 25.3045 29.027 25.4893 28.9551 25.661C28.8823 25.8338 28.8004 25.9915 28.7073 26.1351C28.6142 26.2777 28.5191 26.4012 28.42 26.5027C28.3218 26.6041 28.2247 26.6835 28.1306 26.7397C28.0355 26.797 27.9505 26.8261 27.8747 26.8261C27.8565 26.8261 27.8342 26.8231 27.8089 26.818C27.7836 26.813 27.7603 26.804 27.7381 26.7899C27.7158 26.7749 27.6966 26.7548 27.6814 26.7277C27.6652 26.6995 27.6582 26.6644 27.6582 26.6192C27.6582 26.5639 27.6673 26.4816 27.6865 26.3731C27.7047 26.2646 27.7361 26.1301 27.7796 25.9684C27.8231 25.8067 27.8797 25.6168 27.9495 25.3999C28.0193 25.183 28.1053 24.9359 28.2075 24.6607C28.254 24.5362 28.2864 24.4307 28.3046 24.3463C28.3228 24.261 28.333 24.1897 28.333 24.1294C28.333 24.0782 28.3168 24.0239 28.2844 23.9697C28.252 23.9145 28.2065 23.8602 28.1488 23.807C28.0912 23.7548 28.0234 23.7035 27.9445 23.6553C27.8656 23.6071 27.7786 23.5649 27.6845 23.5288C27.5894 23.4926 27.4902 23.4645 27.386 23.4424C27.2818 23.4203 27.1756 23.4093 27.0653 23.4093C27.041 23.4093 27.0087 23.4113 26.9682 23.4163C26.9277 23.4213 26.8852 23.4284 26.8417 23.4384C26.7982 23.4484 26.7578 23.4605 26.7203 23.4756C26.6829 23.4906 26.6546 23.5087 26.6343 23.5278L26.5645 24.1866C26.5423 24.1625 26.5018 24.1445 26.4451 24.1334C26.3875 24.1224 26.3207 24.1163 26.2448 24.1163C26.1002 24.1163 25.9565 24.1404 25.8128 24.1876C25.6702 24.2349 25.5306 24.3001 25.395 24.3835C25.2594 24.4669 25.1299 24.5653 25.0055 24.6798C24.8811 24.7953 24.7647 24.9188 24.6575 25.0534C24.5502 25.188 24.4521 25.3306 24.3641 25.4792C24.2761 25.6279 24.2002 25.7795 24.1385 25.9322C24.0758 26.0859 24.0282 26.2375 23.9938 26.3892C23.9594 26.5408 23.9422 26.6855 23.9422 26.8261C23.9422 27.027 23.9695 27.2087 24.0232 27.3704C24.0768 27.5311 24.1506 27.6677 24.2427 27.7792C24.3358 27.8907 24.445 27.9761 24.5725 28.0363C24.7 28.0966 24.8355 28.1267 24.9802 28.1267C25.0692 28.1267 25.1654 28.1106 25.2685 28.0775C25.3717 28.0444 25.4759 27.9881 25.5801 27.9068C25.6854 27.8264 25.7875 27.7189 25.8867 27.5854C25.9858 27.4518 26.0759 27.2841 26.1558 27.0812C26.1497 27.1264 26.1447 27.1756 26.1386 27.2298C26.1325 27.2831 26.1305 27.3333 26.1305 27.3775C26.1305 27.5281 26.1497 27.6527 26.1872 27.7521C26.2256 27.8515 26.2782 27.9309 26.347 27.9911C26.4158 28.0514 26.4978 28.0936 26.5939 28.1187C26.689 28.1438 26.7942 28.1558 26.9075 28.1558C27.127 28.1558 27.3466 28.1227 27.5661 28.0554C27.7856 27.9891 28.0011 27.8967 28.2105 27.7782C28.42 27.6597 28.6223 27.5191 28.8165 27.3554C29.0108 27.1917 29.1929 27.0139 29.3629 26.8211C29.5328 26.6282 29.6876 26.4263 29.8262 26.2124C29.9658 25.9985 30.0852 25.7805 30.1854 25.5596C30.2855 25.3386 30.3634 25.1167 30.4181 24.8957C30.4727 24.6748 30.5 24.4618 30.5 24.2569C30.5 23.8241 30.4251 23.4374 30.2754 23.0959C30.1257 22.7544 29.9082 22.4662 29.6219 22.2292C29.3355 21.9931 28.9845 21.8113 28.5687 21.6868C28.1509 21.5623 27.6774 21.5 27.1442 21.5C26.775 21.5 26.4107 21.5412 26.0526 21.6245C25.6945 21.7079 25.3485 21.8254 25.0156 21.9791C24.6828 22.1317 24.3641 22.3165 24.0606 22.5315C23.7571 22.7454 23.4748 22.9844 23.2138 23.2486C22.9528 23.5127 22.7171 23.7959 22.5066 24.1003C22.2962 24.4036 22.1161 24.721 21.9664 25.0524C21.8167 25.3828 21.7013 25.7233 21.6214 26.0738C21.5405 26.4243 21.5 26.7769 21.5 27.1324C21.5 27.4699 21.5334 27.7862 21.6012 28.0835C21.669 28.3808 21.7681 28.654 21.8996 28.9031C22.0301 29.1522 22.192 29.3761 22.3852 29.574C22.5785 29.7708 22.8 29.9386 23.0509 30.0762C23.3018 30.2128 23.58 30.3182 23.8876 30.3905C24.1951 30.4638 24.528 30.5 24.8861 30.5C25.135 30.5 25.3798 30.4729 25.6196 30.4197C25.8604 30.3654 26.088 30.2941 26.3015 30.2057C26.516 30.1163 26.7132 30.0139 26.8943 29.8994C27.0754 29.7839 27.2322 29.6644 27.3638 29.5398C27.4953 29.4153 27.5985 29.2918 27.6713 29.1682C27.7442 29.0447 27.7816 28.9302 27.7816 28.8247C27.7816 28.7364 27.7512 28.662 27.6915 28.6008C27.6308 28.5405 27.5438 28.5003 27.4285 28.4813C27.2525 28.6229 27.0795 28.7444 26.9115 28.8438C26.7436 28.9433 26.5777 29.0236 26.4128 29.0859C26.2489 29.1471 26.084 29.1923 25.9201 29.2195C25.7562 29.2466 25.5903 29.2606 25.4233 29.2606C25.0237 29.2606 24.6676 29.2034 24.355 29.0899C24.0424 28.9754 23.7783 28.8087 23.5628 28.5897C23.3473 28.3698 23.1835 28.0996 23.0701 27.7772C22.9568 27.4558 22.9002 27.0862 22.9002 26.6694C22.9002 26.4434 22.9265 26.2114 22.9781 25.9734C23.0297 25.7354 23.1056 25.4993 23.2037 25.2643C23.3018 25.0293 23.4222 24.8003 23.5628 24.5743C23.7035 24.3493 23.8643 24.1364 24.0434 23.9376C24.2225 23.7387 24.4187 23.5549 24.6322 23.3862C24.8457 23.2174 25.0733 23.0728 25.3161 22.9513C25.5579 22.8298 25.8138 22.7343 26.0819 22.6661C26.35 22.5978 26.6283 22.5636 26.9156 22.5636C27.2778 22.5636 27.6005 22.6108 27.8838 22.7042C28.167 22.7976 28.4058 22.9302 28.599 23.0999C28.7933 23.2697 28.941 23.4736 29.0432 23.7106C29.1453 23.9476 29.1959 24.2087 29.1959 24.494C29.1969 24.7039 29.1747 24.9088 29.1302 25.1066Z" fill="#386EE7"/>
</svg>
