<svg width="120" height="120" viewBox="0 0 120 120" fill="none" xmlns="http://www.w3.org/2000/svg">
<path d="M16 88.2002L38.1 27.7002L25.9 90.9002L22.1 89.9002L16 88.2002Z" fill="url(#paint0_linear)"/>
<path d="M95.3001 80.4L76.1001 62.7L80.9001 59L95.3001 80.4Z" fill="url(#paint1_linear)"/>
<path d="M38.1 27.7002L25.9 90.9002L22.1 89.9002L16 88.2002L38.1 27.7002Z" fill="#F5F9FF"/>
<path d="M95.3001 80.4L76.1001 62.7L80.9001 59L95.3001 80.4Z" fill="#F5F9FF"/>
<path d="M38.1 27.7002L16 88.2002L38.1 27.7002Z" fill="#F5F9FF"/>
<path d="M38.1 27.7002L25.9 90.9002L22.1 89.9002L16 88.2002L38.1 27.7002Z" fill="#E5E5E5"/>
<path d="M95.3001 80.4L76.1001 62.7L80.9001 59L95.3001 80.4Z" fill="#EEEEEF"/>
<path d="M120 32.7V87.2C120 105.3 105.3 119.9 87.3001 119.9H32.7001C23.0001 119.9 14.4001 115.7 8.4001 109.1L16.0001 88.2L22.1001 89.9L64.3001 101.5C66.1001 102 67.9001 101.6 69.4001 100.5L95.2001 80.5L109.1 42.6C109.9 40.4 107.3 38.5 105.5 40L80.9001 59L76.1001 62.7L38.1001 27.6L5.1001 15.2C10.9001 6.1 21.1001 0 32.7001 0H87.2001C105.3 0 120 14.7 120 32.7Z" fill="#262A33" fill-opacity="0.1"/>
<path d="M16 88.2002L8.4 109.2C3.2 103.4 0 95.7002 0 87.3002V32.7002C0 26.3002 1.9 20.3002 5.1 15.2002L38.1 27.6002L16 88.2002Z" fill="white"/>
<path d="M95.3001 80.4001L69.5001 100.4C68.1001 101.5 66.2001 101.9 64.4001 101.4L22.1001 89.9001L25.9001 90.9001L38.0001 27.6001L76.0001 62.7001L95.3001 80.4001Z" fill="white"/>
<path d="M109.2 42.5998L95.2999 80.3998L80.8999 58.9998L105.6 39.9998C107.4 38.4998 110 40.3998 109.2 42.5998Z" fill="white"/>
<path d="M95.3001 80.4L76.1001 62.7L80.9001 59L95.3001 80.4Z" fill="#E5E5E5"/>
<defs>
<linearGradient id="paint0_linear" x1="44.5261" y1="45.1429" x2="13.7624" y2="79.8847" gradientUnits="userSpaceOnUse">
<stop stop-color="#4284FF"/>
<stop offset="0.9515" stop-color="#1B47EE"/>
</linearGradient>
<linearGradient id="paint1_linear" x1="89.1988" y1="67.608" x2="85.8546" y2="71.3847" gradientUnits="userSpaceOnUse">
<stop stop-color="#4284FF"/>
<stop offset="0.9515" stop-color="#1B47EE"/>
</linearGradient>
</defs>
</svg>
