<svg width="24" height="24" viewBox="0 0 24 24" fill="none" xmlns="http://www.w3.org/2000/svg">
<path d="M3 7.5V6.75C2.58579 6.75 2.25 7.08579 2.25 7.5H3ZM3 16.5H2.25C2.25 16.9142 2.58579 17.25 3 17.25V16.5ZM12.75 16.5H13.5C13.5 16.0858 13.1642 15.75 12.75 15.75V16.5ZM12.75 21H12C12 21.2979 12.1763 21.5676 12.4492 21.687C12.7221 21.8065 13.0398 21.7532 13.2587 21.5511L12.75 21ZM22.5 12L23.0087 12.5511C23.1625 12.4091 23.25 12.2093 23.25 12C23.25 11.7907 23.1625 11.5909 23.0087 11.4489L22.5 12ZM12.75 3L13.2587 2.4489C13.0398 2.24684 12.7221 2.19349 12.4492 2.31297C12.1763 2.43244 12 2.7021 12 3L12.75 3ZM12.75 7.5V8.25C13.1642 8.25 13.5 7.91421 13.5 7.5H12.75ZM2.25 7.5V16.5H3.75V7.5H2.25ZM3 17.25H12.75V15.75H3V17.25ZM12 16.5V21H13.5V16.5H12ZM13.2587 21.5511L23.0087 12.5511L21.9913 11.4489L12.2413 20.4489L13.2587 21.5511ZM23.0087 11.4489L13.2587 2.4489L12.2413 3.5511L21.9913 12.5511L23.0087 11.4489ZM12 3V7.5H13.5V3H12ZM12.75 6.75H3V8.25H12.75V6.75Z" fill="#386EE7"/>
</svg>
