<svg width="32" height="24" viewBox="0 0 32 24" fill="none" xmlns="http://www.w3.org/2000/svg">
<path d="M31.5654 1.21053C31.278 0.882025 30.8655 0.69752 30.4364 0.67952L18.1923 0.184506L17.2757 2.29507L18.5506 6.21918L16.2509 10.6743L17.1841 14.2699L19.5171 17.3525L22.8916 14.1799C23.2166 13.8694 23.7373 13.8874 24.0206 14.2339L28.3492 19.022C28.6533 19.3506 28.6367 19.8861 28.3117 20.1966C28.1492 20.3451 27.9534 20.4351 27.7368 20.4171L15.8717 19.9401L15.2802 21.6816L15.9259 23.2387L29.5699 23.7697C30.4656 23.8057 31.2197 23.0902 31.2405 22.1721L31.9987 2.40307C32.0154 1.96206 31.8696 1.52104 31.5654 1.21053ZM22.8041 10.2873C21.4585 10.2333 20.417 9.07676 20.4711 7.71772C20.5253 6.34068 21.6543 5.27865 22.9833 5.33265C24.3123 5.38665 25.3705 6.54319 25.3163 7.90223C25.2663 9.26127 24.1331 10.3458 22.8041 10.2873ZM14.0095 21.6996L14.4219 19.8636L4.78159 20.5431C4.33166 20.5791 3.95671 20.2506 3.91921 19.7916C3.90255 19.5711 3.97337 19.3506 4.11502 19.1841L11.2599 10.8003C11.4015 10.6158 11.6182 10.5258 11.8515 10.5258C12.0681 10.5258 12.2806 10.6158 12.443 10.7823L14.8302 13.3339L13.8054 10.6203L15.6384 5.92667L13.9678 2.16456L14.6511 0L1.51121 0.936026C0.615495 0.990028 -0.0510804 1.78205 0.00307892 2.69558L1.33206 22.4691C1.34873 22.9102 1.5487 23.3107 1.89032 23.5897C2.21528 23.8822 2.62772 24.0307 3.05683 23.9947L14.7969 23.1712L14.0095 21.6996Z" fill="#A8AAAD"/>
</svg>
