<svg width="24" height="24" viewBox="0 0 24 24" fill="none" xmlns="http://www.w3.org/2000/svg">
<path fill-rule="evenodd" clip-rule="evenodd" d="M11.75 8C11.75 7.58579 11.4142 7.25 11 7.25C10.5858 7.25 10.25 7.58579 10.25 8V13C10.25 13.4142 10.5858 13.75 11 13.75H16C16.4142 13.75 16.75 13.4142 16.75 13C16.75 12.5858 16.4142 12.25 16 12.25H11.75V8Z" fill="#262A33" fill-opacity="0.9"/>
<path fill-rule="evenodd" clip-rule="evenodd" d="M2.25 12C2.25 6.61523 6.61521 2.25 12 2.25C14.6201 2.25 16.9988 3.284 18.75 4.96443V4C18.75 3.58579 19.0858 3.25 19.5 3.25C19.9142 3.25 20.25 3.58579 20.25 4V7C20.25 7.41421 19.9142 7.75 19.5 7.75H16.5C16.0858 7.75 15.75 7.41421 15.75 7C15.75 6.58579 16.0858 6.25 16.5 6.25H17.9161C16.4164 4.70709 14.3201 3.75 12 3.75C7.44364 3.75 3.75 7.44365 3.75 12C3.75 16.5564 7.44364 20.25 12 20.25C16.5564 20.25 20.25 16.5564 20.25 12C20.25 11.5858 20.5858 11.25 21 11.25C21.4142 11.25 21.75 11.5858 21.75 12C21.75 17.3848 17.3848 21.75 12 21.75C6.61521 21.75 2.25 17.3848 2.25 12Z" fill="#262A33" fill-opacity="0.9"/>
</svg>
