<svg width="14" height="14" viewBox="0 0 14 14" fill="none" xmlns="http://www.w3.org/2000/svg">
<path fill-rule="evenodd" clip-rule="evenodd" d="M7.01665 4.66689V4.06689H5.81665V4.66689V6.98348V7.58356V8.18348V8.18356H7.01665V8.18348H9.33332H9.93332V6.98348H9.33332H7.01665V4.66689Z" fill="white"/>
<path fill-rule="evenodd" clip-rule="evenodd" d="M1.1499 6.9999C1.1499 3.76904 3.76903 1.1499 6.9999 1.1499C8.43881 1.1499 9.7564 1.66976 10.7749 2.53083V2.04141V1.44141L11.9749 1.44141V2.04141L11.9749 3.48308V3.88204L12.04 3.96868L11.9749 4.01759L11.9749 4.68308L11.3749 4.68308H11.0891L11.0806 4.68949L11.0758 4.68308H10.7749L9.33324 4.68308H8.73324V3.48308L9.33324 3.48308H10.0422C9.22639 2.77658 8.16303 2.3499 6.9999 2.3499C4.43177 2.3499 2.3499 4.43178 2.3499 6.9999C2.3499 9.56803 4.43177 11.6499 6.9999 11.6499C9.56803 11.6499 11.6499 9.56803 11.6499 6.9999V6.3999H12.8499V6.9999C12.8499 10.2308 10.2308 12.8499 6.9999 12.8499C3.76903 12.8499 1.1499 10.2308 1.1499 6.9999Z" fill="white"/>
</svg>
