<svg width="32" height="32" viewBox="0 0 32 32" fill="none" xmlns="http://www.w3.org/2000/svg">
<circle cx="16" cy="16" r="15.4" fill="#386EE7" stroke="#386EE7" stroke-width="1.2"/>
<g clip-path="url(#clip0_21593_111841)">
<path fill-rule="evenodd" clip-rule="evenodd" d="M18.1159 8.7998C16.3762 8.7998 14.9659 10.2101 14.9659 11.9498V12.8498C14.9659 14.5895 16.3762 15.9998 18.1159 15.9998C19.8556 15.9998 21.2659 14.5895 21.2659 12.8498V11.9498C21.2659 10.2101 19.8556 8.7998 18.1159 8.7998ZM15.6342 16.8998C13.7531 16.8998 12.1891 18.3481 12.0448 20.2237L11.8904 22.2308C11.8502 22.7535 12.2635 23.1998 12.7877 23.1998H23.012C23.7693 23.1998 24.3663 22.5551 24.3082 21.8001L24.2153 20.593C24.055 18.509 22.3173 16.8998 20.2271 16.8998H15.6342Z" fill="white"/>
<path d="M12.0448 20.2237L11.6859 20.1961L12.0448 20.2237ZM11.8904 22.2308L12.2493 22.2584L11.8904 22.2308ZM24.3082 21.8001L24.6671 21.7725L24.3082 21.8001ZM24.2153 20.593L23.8564 20.6206L24.2153 20.593ZM15.3259 11.9498C15.3259 10.4089 16.575 9.1598 18.1159 9.1598V8.4398C16.1773 8.4398 14.6059 10.0113 14.6059 11.9498H15.3259ZM15.3259 12.8498V11.9498H14.6059V12.8498H15.3259ZM18.1159 15.6398C16.575 15.6398 15.3259 14.3907 15.3259 12.8498H14.6059C14.6059 14.7883 16.1773 16.3598 18.1159 16.3598V15.6398ZM20.9059 12.8498C20.9059 14.3907 19.6567 15.6398 18.1159 15.6398V16.3598C20.0544 16.3598 21.6259 14.7883 21.6259 12.8498H20.9059ZM20.9059 11.9498V12.8498H21.6259V11.9498H20.9059ZM18.1159 9.1598C19.6567 9.1598 20.9059 10.4089 20.9059 11.9498H21.6259C21.6259 10.0113 20.0544 8.4398 18.1159 8.4398V9.1598ZM12.4037 20.2513C12.5336 18.5633 13.9412 17.2598 15.6342 17.2598V16.5398C13.5649 16.5398 11.8446 18.1329 11.6859 20.1961L12.4037 20.2513ZM12.2493 22.2584L12.4037 20.2513L11.6859 20.1961L11.5315 22.2032L12.2493 22.2584ZM12.7877 22.8398C12.4732 22.8398 12.2252 22.572 12.2493 22.2584L11.5315 22.2032C11.4752 22.935 12.0538 23.5598 12.7877 23.5598V22.8398ZM23.012 22.8398H12.7877V23.5598H23.012V22.8398ZM23.9493 21.8277C23.9912 22.3737 23.5596 22.8398 23.012 22.8398V23.5598C23.979 23.5598 24.7413 22.7366 24.6671 21.7725L23.9493 21.8277ZM23.8564 20.6206L23.9493 21.8277L24.6671 21.7725L24.5743 20.5654L23.8564 20.6206ZM20.2271 17.2598C22.1292 17.2598 23.7105 18.7242 23.8564 20.6206L24.5743 20.5654C24.3995 18.2939 22.5054 16.5398 20.2271 16.5398V17.2598ZM15.6342 17.2598H20.2271V16.5398H15.6342V17.2598Z" fill="#386EE7"/>
<path fill-rule="evenodd" clip-rule="evenodd" d="M14.9999 8C13.0669 8 11.4999 9.567 11.4999 11.5V12.5C11.4999 14.433 13.0669 16 14.9999 16C16.9329 16 18.4999 14.433 18.4999 12.5V11.5C18.4999 9.567 16.9329 8 14.9999 8ZM13.1944 16.5C10.5553 16.5 8.37059 18.5512 8.20435 21.185L8.1007 22.8272C8.04617 23.6911 8.73212 24.4217 9.59772 24.4217H20.3868C21.2582 24.4217 21.9462 23.6818 21.8829 22.8128L21.7608 21.1368C21.5705 18.5232 19.3945 16.5 16.774 16.5H13.1944Z" fill="white"/>
<path d="M8.20435 21.185L7.60554 21.1472L8.20435 21.185ZM8.1007 22.8272L8.6995 22.865L8.1007 22.8272ZM21.8829 22.8128L21.2845 22.8563L21.8829 22.8128ZM21.7608 21.1368L22.3592 21.0932L21.7608 21.1368ZM12.0999 11.5C12.0999 9.89837 13.3983 8.6 14.9999 8.6V7.4C12.7355 7.4 10.8999 9.23563 10.8999 11.5H12.0999ZM12.0999 12.5V11.5H10.8999V12.5H12.0999ZM14.9999 15.4C13.3983 15.4 12.0999 14.1016 12.0999 12.5H10.8999C10.8999 14.7644 12.7355 16.6 14.9999 16.6V15.4ZM17.8999 12.5C17.8999 14.1016 16.6015 15.4 14.9999 15.4V16.6C17.2643 16.6 19.0999 14.7644 19.0999 12.5H17.8999ZM17.8999 11.5V12.5H19.0999V11.5H17.8999ZM14.9999 8.6C16.6015 8.6 17.8999 9.89837 17.8999 11.5H19.0999C19.0999 9.23563 17.2643 7.4 14.9999 7.4V8.6ZM8.80316 21.2228C8.94945 18.905 10.872 17.1 13.1944 17.1V15.9C10.2386 15.9 7.79173 18.1973 7.60554 21.1472L8.80316 21.2228ZM8.6995 22.865L8.80316 21.2228L7.60554 21.1472L7.50189 22.7894L8.6995 22.865ZM9.59772 23.8217C9.07836 23.8217 8.66679 23.3833 8.6995 22.865L7.50189 22.7894C7.42555 23.9989 8.38588 25.0217 9.59772 25.0217V23.8217ZM20.3868 23.8217H9.59772V25.0217H20.3868V23.8217ZM21.2845 22.8563C21.3224 23.3778 20.9096 23.8217 20.3868 23.8217V25.0217C21.6067 25.0217 22.5699 23.9858 22.4813 22.7692L21.2845 22.8563ZM21.1624 21.1804L21.2845 22.8563L22.4813 22.7692L22.3592 21.0932L21.1624 21.1804ZM16.774 17.1C19.0801 17.1 20.9949 18.8804 21.1624 21.1804L22.3592 21.0932C22.1461 18.166 19.709 15.9 16.774 15.9V17.1ZM13.1944 17.1H16.774V15.9H13.1944V17.1Z" fill="#386EE7"/>
</g>
<circle cx="20.1996" cy="19.8002" r="4.6" fill="#386EE7"/>
<circle cx="20.1998" cy="19.8004" r="2.6" stroke="white" stroke-width="1.6"/>
<rect x="22.7305" y="21.2002" width="2.35795" height="1.6" transform="rotate(45 22.7305 21.2002)" fill="white"/>
<defs>
<clipPath id="clip0_21593_111841">
<rect width="16" height="16" fill="white" transform="translate(8 8)"/>
</clipPath>
</defs>
</svg>
