<svg width="32" height="32" viewBox="0 0 32 32" fill="none" xmlns="http://www.w3.org/2000/svg">
<circle cx="16" cy="16" r="15.4" fill="white" stroke="#F7A87C" stroke-width="1.2"/>
<g clip-path="url(#clip0_21593_116771)">
<rect width="16" height="16" transform="translate(8 8)" fill="white"/>
<path fill-rule="evenodd" clip-rule="evenodd" d="M18.1159 8.7998C16.3762 8.7998 14.9659 10.2101 14.9659 11.9498V12.8498C14.9659 14.5895 16.3762 15.9998 18.1159 15.9998C19.8556 15.9998 21.2659 14.5895 21.2659 12.8498V11.9498C21.2659 10.2101 19.8556 8.7998 18.1159 8.7998ZM15.6342 16.8998C13.7531 16.8998 12.1891 18.3481 12.0448 20.2237L11.8904 22.2308C11.8502 22.7535 12.2635 23.1998 12.7877 23.1998H23.012C23.7693 23.1998 24.3663 22.5551 24.3082 21.8001L24.2153 20.593C24.055 18.509 22.3173 16.8998 20.2271 16.8998H15.6342Z" fill="#F7A87C"/>
<path d="M12.0448 20.2237L11.6859 20.1961L12.0448 20.2237ZM11.8904 22.2308L12.2493 22.2584L11.8904 22.2308ZM24.3082 21.8001L24.6671 21.7725L24.3082 21.8001ZM24.2153 20.593L23.8564 20.6206L24.2153 20.593ZM15.3259 11.9498C15.3259 10.4089 16.575 9.1598 18.1159 9.1598V8.4398C16.1773 8.4398 14.6059 10.0113 14.6059 11.9498H15.3259ZM15.3259 12.8498V11.9498H14.6059V12.8498H15.3259ZM18.1159 15.6398C16.575 15.6398 15.3259 14.3907 15.3259 12.8498H14.6059C14.6059 14.7883 16.1773 16.3598 18.1159 16.3598V15.6398ZM20.9059 12.8498C20.9059 14.3907 19.6567 15.6398 18.1159 15.6398V16.3598C20.0544 16.3598 21.6259 14.7883 21.6259 12.8498H20.9059ZM20.9059 11.9498V12.8498H21.6259V11.9498H20.9059ZM18.1159 9.1598C19.6567 9.1598 20.9059 10.4089 20.9059 11.9498H21.6259C21.6259 10.0113 20.0544 8.4398 18.1159 8.4398V9.1598ZM12.4037 20.2513C12.5336 18.5633 13.9412 17.2598 15.6342 17.2598V16.5398C13.5649 16.5398 11.8446 18.1329 11.6859 20.1961L12.4037 20.2513ZM12.2493 22.2584L12.4037 20.2513L11.6859 20.1961L11.5315 22.2032L12.2493 22.2584ZM12.7877 22.8398C12.4732 22.8398 12.2252 22.572 12.2493 22.2584L11.5315 22.2032C11.4752 22.935 12.0538 23.5598 12.7877 23.5598V22.8398ZM23.012 22.8398H12.7877V23.5598H23.012V22.8398ZM23.9493 21.8277C23.9912 22.3737 23.5596 22.8398 23.012 22.8398V23.5598C23.979 23.5598 24.7413 22.7366 24.6671 21.7725L23.9493 21.8277ZM23.8564 20.6206L23.9493 21.8277L24.6671 21.7725L24.5743 20.5654L23.8564 20.6206ZM20.2271 17.2598C22.1292 17.2598 23.7105 18.7242 23.8564 20.6206L24.5743 20.5654C24.3995 18.2939 22.5054 16.5398 20.2271 16.5398V17.2598ZM15.6342 17.2598H20.2271V16.5398H15.6342V17.2598Z" fill="white"/>
<path fill-rule="evenodd" clip-rule="evenodd" d="M14.9999 8C13.0669 8 11.4999 9.567 11.4999 11.5V12.5C11.4999 14.433 13.0669 16 14.9999 16C16.9329 16 18.4999 14.433 18.4999 12.5V11.5C18.4999 9.567 16.9329 8 14.9999 8ZM13.1944 16.5C10.5553 16.5 8.37059 18.5512 8.20435 21.185L8.1007 22.8272C8.04617 23.6911 8.73212 24.4217 9.59772 24.4217H20.3868C21.2582 24.4217 21.9462 23.6818 21.8829 22.8128L21.7608 21.1368C21.5705 18.5232 19.3945 16.5 16.774 16.5H13.1944Z" fill="#F7A87C"/>
<path d="M8.20435 21.185L7.80514 21.1598L8.20435 21.185ZM8.1007 22.8272L8.4999 22.8524L8.1007 22.8272ZM21.8829 22.8128L21.4839 22.8418H21.4839L21.8829 22.8128ZM21.7608 21.1368L22.1598 21.1078H22.1598L21.7608 21.1368ZM11.8999 11.5C11.8999 9.78792 13.2878 8.4 14.9999 8.4V7.6C12.846 7.6 11.0999 9.34609 11.0999 11.5H11.8999ZM11.8999 12.5V11.5H11.0999V12.5H11.8999ZM14.9999 15.6C13.2878 15.6 11.8999 14.2121 11.8999 12.5H11.0999C11.0999 14.6539 12.846 16.4 14.9999 16.4V15.6ZM18.0999 12.5C18.0999 14.2121 16.712 15.6 14.9999 15.6V16.4C17.1538 16.4 18.8999 14.6539 18.8999 12.5H18.0999ZM18.0999 11.5V12.5H18.8999V11.5H18.0999ZM14.9999 8.4C16.712 8.4 18.0999 9.78792 18.0999 11.5H18.8999C18.8999 9.34609 17.1538 7.6 14.9999 7.6V8.4ZM8.60355 21.2102C8.7565 18.7871 10.7664 16.9 13.1944 16.9V16.1C10.3442 16.1 7.98469 18.3152 7.80514 21.1598L8.60355 21.2102ZM8.4999 22.8524L8.60355 21.2102L7.80514 21.1598L7.70149 22.802L8.4999 22.8524ZM9.59772 24.0217C8.96295 24.0217 8.45992 23.4859 8.4999 22.8524L7.70149 22.802C7.63242 23.8963 8.50129 24.8217 9.59772 24.8217V24.0217ZM20.3868 24.0217H9.59772V24.8217H20.3868V24.0217ZM21.4839 22.8418C21.5303 23.4791 21.0258 24.0217 20.3868 24.0217V24.8217C21.4905 24.8217 22.362 23.8845 22.2818 22.7837L21.4839 22.8418ZM21.3619 21.1659L21.4839 22.8418L22.2818 22.7837L22.1598 21.1078L21.3619 21.1659ZM16.774 16.9C19.1849 16.9 21.1868 18.7614 21.3619 21.1659L22.1598 21.1078C21.9542 18.2851 19.6042 16.1 16.774 16.1V16.9ZM13.1944 16.9H16.774V16.1H13.1944V16.9Z" fill="white"/>
</g>
<defs>
<clipPath id="clip0_21593_116771">
<rect width="16" height="16" fill="white" transform="translate(8 8)"/>
</clipPath>
</defs>
</svg>
