<svg width="16" height="20" viewBox="0 0 16 20" fill="none" xmlns="http://www.w3.org/2000/svg">
<path d="M8.0001 16.4C11.5347 16.4 14.4001 13.5346 14.4001 9.99998C14.4001 6.46535 11.5347 3.59998 8.0001 3.59998C4.46548 3.59998 1.6001 6.46535 1.6001 9.99998C1.6001 13.5346 4.46548 16.4 8.0001 16.4Z" fill="#4C6AFF"/>
<path fill-rule="evenodd" clip-rule="evenodd" d="M8.68031 7.0603C8.68031 6.78416 8.45645 6.5603 8.18031 6.5603H7.82031C7.54417 6.5603 7.32031 6.78416 7.32031 7.0603V7.4203C7.32031 7.69645 7.54417 7.9203 7.82031 7.9203H8.18031C8.45645 7.9203 8.68031 7.69644 8.68031 7.4203V7.0603ZM8.68031 9.33999C8.68031 9.06385 8.45645 8.83999 8.18031 8.83999H7.82031C7.54417 8.83999 7.32031 9.06385 7.32031 9.33999V12.9C7.32031 13.1761 7.54417 13.4 7.82031 13.4H8.18031C8.45645 13.4 8.68031 13.1761 8.68031 12.9L8.68031 9.33999Z" fill="white"/>
</svg>
