<svg width="20" height="20" viewBox="0 0 20 20" fill="none" xmlns="http://www.w3.org/2000/svg">
<path d="M10 18C14.4183 18 18 14.4183 18 10C18 5.58172 14.4183 2 10 2C5.58172 2 2 5.58172 2 10C2 14.4183 5.58172 18 10 18Z" fill="#FFB54C"/>
<path fill-rule="evenodd" clip-rule="evenodd" d="M10.8494 6.20117C10.8494 5.92503 10.6256 5.70117 10.3494 5.70117H9.64941C9.37327 5.70117 9.14941 5.92503 9.14941 6.20117V6.90117C9.14941 7.17731 9.37327 7.40117 9.64941 7.40117H10.3494C10.6256 7.40117 10.8494 7.17731 10.8494 6.90117L10.8494 6.20117ZM10.8494 9.05078C10.8494 8.77464 10.6256 8.55078 10.3494 8.55078H9.64941C9.37327 8.55078 9.14941 8.77464 9.14941 9.05078V13.7508C9.14941 14.0269 9.37327 14.2508 9.64941 14.2508H10.3494C10.6256 14.2508 10.8494 14.0269 10.8494 13.7508L10.8494 9.05078Z" fill="white"/>
</svg>
