<svg width="26" height="30" viewBox="0 0 26 30" fill="none" xmlns="http://www.w3.org/2000/svg">
<path d="M3.31389 29.9019H22.6864C24.3325 29.9019 25.6668 28.5676 25.6668 26.9216V7.549L17.2224 0.0980225H3.31389C1.66786 0.0980225 0.333496 1.43239 0.333496 3.07842V26.9216C0.333496 28.5676 1.66787 29.9019 3.31389 29.9019Z" fill="#00CCAA"/>
<path d="M18.664 20.4782C18.9558 20.77 19.1017 21.1024 19.1017 21.4753C19.1017 21.832 18.9639 22.1562 18.6883 22.4481C18.4127 22.7237 18.0884 22.8615 17.7155 22.8615C17.3102 22.8615 16.9616 22.6913 16.6697 22.3508L13.2406 18.5569L9.81149 22.3508C9.50344 22.6751 9.15485 22.8372 8.76573 22.8372C8.40904 22.8372 8.09288 22.6994 7.81725 22.4238C7.54162 22.1481 7.40381 21.832 7.40381 21.4753C7.40381 21.1024 7.54973 20.77 7.84157 20.4782L11.3923 16.6113L8.03613 12.9633C7.74429 12.6714 7.59837 12.3391 7.59837 11.9662C7.59837 11.5933 7.73618 11.2771 8.01181 11.0177C8.28744 10.7421 8.6036 10.6042 8.96029 10.6042C9.34941 10.6042 9.698 10.7664 10.006 11.0906L13.2406 14.6414L16.4752 11.0906C16.7832 10.7664 17.1318 10.6042 17.5209 10.6042C17.8938 10.6042 18.21 10.7421 18.4694 11.0177C18.745 11.2771 18.8828 11.5933 18.8828 11.9662C18.8828 12.3391 18.7369 12.6714 18.4451 12.9633L15.0889 16.6113L18.664 20.4782Z" fill="white"/>
<mask id="mask0_5831_7627" style="mask-type:alpha" maskUnits="userSpaceOnUse" x="17" y="0" width="9" height="8">
<path d="M17.2256 7.48054H25.5928L17.2256 0.0980225V7.48054Z" fill="url(#paint0_linear_5831_7627)"/>
</mask>
<g mask="url(#mask0_5831_7627)">
<path d="M17.2227 -0.083252H25.7908L25.8323 7.4746H19.7143C18.3382 7.4746 17.2227 6.35907 17.2227 4.983V-0.083252Z" fill="#B3F0E6"/>
</g>
<defs>
<linearGradient id="paint0_linear_5831_7627" x1="2.10714" y1="0.0980222" x2="6.55872" y2="41.3842" gradientUnits="userSpaceOnUse">
<stop stop-color="#55B0FF"/>
<stop offset="1" stop-color="#6BBAFF"/>
</linearGradient>
</defs>
</svg>
