<svg width="141" height="56" viewBox="0 0 141 56" fill="none" xmlns="http://www.w3.org/2000/svg">
    <g filter="url(#filter0_d_5513_270556)">
        <mask id="path-1-inside-1_5513_270556" fill="white">
            <path fill-rule="evenodd" clip-rule="evenodd" d="M14 6C11.7909 6 10 7.79086 10 10V38C10 40.2091 11.7909 42 14 42H120C121.92 42 123.523 40.6479 123.911 38.8441C124.003 38.9402 124.132 39 124.275 39C124.554 39 124.779 38.7743 124.779 38.4959V33.4985C124.779 31.8988 125.418 30.3653 126.554 29.2388L130.404 25.4199C131.192 24.6376 131.192 23.3624 130.404 22.5801L126.554 18.7612C125.418 17.6347 124.779 16.1012 124.779 14.5015V9.50406C124.779 9.22567 124.554 9 124.275 9C124.132 9 124.003 9.05984 123.911 9.15589C123.523 7.35212 121.92 6 120 6H14Z"/>
        </mask>
        <path fill-rule="evenodd" clip-rule="evenodd" d="M14 6C11.7909 6 10 7.79086 10 10V38C10 40.2091 11.7909 42 14 42H120C121.92 42 123.523 40.6479 123.911 38.8441C124.003 38.9402 124.132 39 124.275 39C124.554 39 124.779 38.7743 124.779 38.4959V33.4985C124.779 31.8988 125.418 30.3653 126.554 29.2388L130.404 25.4199C131.192 24.6376 131.192 23.3624 130.404 22.5801L126.554 18.7612C125.418 17.6347 124.779 16.1012 124.779 14.5015V9.50406C124.779 9.22567 124.554 9 124.275 9C124.132 9 124.003 9.05984 123.911 9.15589C123.523 7.35212 121.92 6 120 6H14Z" fill="white"/>
        <path d="M123.911 38.8441L124.634 38.1533L123.33 36.7883L122.933 38.6341L123.911 38.8441ZM126.554 29.2388L127.258 29.9487H127.258L126.554 29.2388ZM130.404 25.4199L129.699 24.71L129.699 24.71L130.404 25.4199ZM130.404 22.5801L129.699 23.29H129.699L130.404 22.5801ZM126.554 18.7612L127.258 18.0513L127.258 18.0513L126.554 18.7612ZM123.911 9.15589L122.933 9.36591L123.33 11.2117L124.634 9.84674L123.911 9.15589ZM11 10C11 8.34315 12.3431 7 14 7V5C11.2386 5 9 7.23858 9 10H11ZM11 38V10H9V38H11ZM14 41C12.3431 41 11 39.6569 11 38H9C9 40.7614 11.2386 43 14 43V41ZM120 41H14V43H120V41ZM122.933 38.6341C122.643 39.9866 121.438 41 120 41V43C122.401 43 124.404 41.3091 124.888 39.0541L122.933 38.6341ZM123.188 39.535C123.46 39.8202 123.848 40 124.275 40V38C124.416 38 124.545 38.0601 124.634 38.1533L123.188 39.535ZM124.275 40C125.106 40 125.779 39.3266 125.779 38.4959H123.779C123.779 38.222 124.001 38 124.275 38V40ZM125.779 38.4959V33.4985H123.779V38.4959H125.779ZM125.779 33.4985C125.779 32.1654 126.312 30.8875 127.258 29.9487L125.85 28.5288C124.525 29.8432 123.779 31.6322 123.779 33.4985H125.779ZM127.258 29.9487L131.108 26.1299L129.699 24.71L125.85 28.5288L127.258 29.9487ZM131.108 26.1299C132.291 24.9564 132.291 23.0436 131.108 21.8701L129.699 23.29C130.094 23.6812 130.094 24.3188 129.699 24.71L131.108 26.1299ZM131.108 21.8701L127.258 18.0513L125.85 19.4712L129.699 23.29L131.108 21.8701ZM127.258 18.0513C126.312 17.1125 125.779 15.8346 125.779 14.5015H123.779C123.779 16.3678 124.525 18.1568 125.85 19.4712L127.258 18.0513ZM125.779 14.5015V9.50406H123.779V14.5015H125.779ZM125.779 9.50406C125.779 8.67339 125.106 8 124.275 8V10C124.001 10 123.779 9.77796 123.779 9.50406H125.779ZM124.275 8C123.848 8 123.46 8.17977 123.188 8.46504L124.634 9.84674C124.545 9.93991 124.416 10 124.275 10V8ZM120 7C121.438 7 122.643 8.01338 122.933 9.36591L124.888 8.94587C124.404 6.69086 122.401 5 120 5V7ZM14 7H120V5H14V7Z" fill="#EBEDF2" mask="url(#path-1-inside-1_5513_270556)"/>
    </g>
    <defs>
        <filter id="filter0_d_5513_270556" x="0" y="0" width="140.995" height="56" filterUnits="userSpaceOnUse" color-interpolation-filters="sRGB">
            <feFlood flood-opacity="0" result="BackgroundImageFix"/>
            <feColorMatrix in="SourceAlpha" type="matrix" values="0 0 0 0 0 0 0 0 0 0 0 0 0 0 0 0 0 0 127 0" result="hardAlpha"/>
            <feOffset dy="4"/>
            <feGaussianBlur stdDeviation="5"/>
            <feColorMatrix type="matrix" values="0 0 0 0 0.184314 0 0 0 0 0.32549 0 0 0 0 0.52549 0 0 0 0.12 0"/>
            <feBlend mode="normal" in2="BackgroundImageFix" result="effect1_dropShadow_5513_270556"/>
            <feBlend mode="normal" in="SourceGraphic" in2="effect1_dropShadow_5513_270556" result="shape"/>
        </filter>
    </defs>
</svg>
