<svg width="204" height="56" viewBox="0 0 204 56" fill="none" xmlns="http://www.w3.org/2000/svg">
    <g filter="url(#filter0_d_5513_270549)">
        <mask id="path-1-inside-1_5513_270549" fill="white">
            <path fill-rule="evenodd" clip-rule="evenodd" d="M14 6C11.7909 6 10 7.79086 10 10V38C10 40.2091 11.7909 42 14 42H184.032C186.242 42 188.032 40.2091 188.032 38V31.8809C188.308 30.891 188.836 29.9792 189.576 29.2407L193.411 25.4161C194.194 24.6346 194.194 23.3654 193.411 22.5839L189.576 18.7593C188.836 18.0208 188.308 17.109 188.032 16.1191V10C188.032 7.79086 186.242 6 184.032 6H14Z"/>
        </mask>
        <path fill-rule="evenodd" clip-rule="evenodd" d="M14 6C11.7909 6 10 7.79086 10 10V38C10 40.2091 11.7909 42 14 42H184.032C186.242 42 188.032 40.2091 188.032 38V31.8809C188.308 30.891 188.836 29.9792 189.576 29.2407L193.411 25.4161C194.194 24.6346 194.194 23.3654 193.411 22.5839L189.576 18.7593C188.836 18.0208 188.308 17.109 188.032 16.1191V10C188.032 7.79086 186.242 6 184.032 6H14Z" fill="white"/>
        <path d="M188.032 31.8809L187.069 31.6129L187.032 31.7444V31.8809H188.032ZM189.576 29.2407L190.282 29.9488V29.9488L189.576 29.2407ZM193.411 25.4161L192.705 24.708V24.708L193.411 25.4161ZM193.411 22.5839L192.705 23.292V23.292L193.411 22.5839ZM189.576 18.7593L190.282 18.0512V18.0512L189.576 18.7593ZM188.032 16.1191H187.032V16.2556L187.069 16.3871L188.032 16.1191ZM11 10C11 8.34315 12.3431 7 14 7V5C11.2386 5 9 7.23858 9 10H11ZM11 38V10H9V38H11ZM14 41C12.3431 41 11 39.6569 11 38H9C9 40.7614 11.2386 43 14 43V41ZM184.032 41H14V43H184.032V41ZM187.032 38C187.032 39.6569 185.689 41 184.032 41V43C186.794 43 189.032 40.7614 189.032 38H187.032ZM187.032 31.8809V38H189.032V31.8809H187.032ZM188.996 32.1489C189.225 31.3239 189.665 30.5641 190.282 29.9488L188.87 28.5327C188.006 29.3942 187.39 30.458 187.069 31.6129L188.996 32.1489ZM190.282 29.9488L194.117 26.1241L192.705 24.708L188.87 28.5327L190.282 29.9488ZM194.117 26.1241C195.292 24.9519 195.292 23.0481 194.117 21.8759L192.705 23.292C193.096 23.6827 193.096 24.3173 192.705 24.708L194.117 26.1241ZM194.117 21.8759L190.282 18.0512L188.87 19.4673L192.705 23.292L194.117 21.8759ZM190.282 18.0512C189.665 17.4359 189.225 16.6761 188.996 15.8511L187.069 16.3871C187.39 17.542 188.006 18.6058 188.87 19.4673L190.282 18.0512ZM187.032 10V16.1191H189.032V10H187.032ZM184.032 7C185.689 7 187.032 8.34315 187.032 10H189.032C189.032 7.23858 186.794 5 184.032 5V7ZM14 7H184.032V5H14V7Z" fill="#EBEDF2" mask="url(#path-1-inside-1_5513_270549)"/>
    </g>
    <defs>
        <filter id="filter0_d_5513_270549" x="0" y="0" width="203.998" height="56" filterUnits="userSpaceOnUse" color-interpolation-filters="sRGB">
            <feFlood flood-opacity="0" result="BackgroundImageFix"/>
            <feColorMatrix in="SourceAlpha" type="matrix" values="0 0 0 0 0 0 0 0 0 0 0 0 0 0 0 0 0 0 127 0" result="hardAlpha"/>
            <feOffset dy="4"/>
            <feGaussianBlur stdDeviation="5"/>
            <feColorMatrix type="matrix" values="0 0 0 0 0.184314 0 0 0 0 0.32549 0 0 0 0 0.52549 0 0 0 0.12 0"/>
            <feBlend mode="normal" in2="BackgroundImageFix" result="effect1_dropShadow_5513_270549"/>
            <feBlend mode="normal" in="SourceGraphic" in2="effect1_dropShadow_5513_270549" result="shape"/>
        </filter>
    </defs>
</svg>
