<svg width="164" height="44" viewBox="0 0 164 44" fill="none" xmlns="http://www.w3.org/2000/svg">
<rect width="158" height="44" rx="8" fill="#4C6AFF"/>
<g clip-path="url(#clip0_5856_287737)">
<path fill-rule="evenodd" clip-rule="evenodd" d="M162.585 23.4142C163.366 22.6332 163.366 21.3668 162.585 20.5858L158.757 16.7583C157.632 15.6331 157 14.107 157 12.5157L157 7.5C157 7.22386 156.776 7 156.5 7C156.224 7 156 7.22386 156 7.5L156 13.2932C156 13.5544 155.684 13.6852 155.499 13.5005C155.315 13.3158 154.999 13.4466 154.999 13.7078L154.999 30.2922C154.999 30.5534 155.315 30.6842 155.499 30.4995C155.684 30.3148 156 30.4456 156 30.7068L156 36.5C156 36.7761 156.224 37 156.5 37C156.776 37 157 36.7761 157 36.5L157 31.4843C157 29.893 157.632 28.3669 158.757 27.2417L162.585 23.4142Z" fill="#4C6AFF"/>
</g>
<defs>
<clipPath id="clip0_5856_287737">
<rect width="30" height="7" fill="white" transform="translate(164 7) rotate(90)"/>
</clipPath>
</defs>
</svg>
