<svg width="290" height="56" viewBox="0 0 290 56" fill="none" xmlns="http://www.w3.org/2000/svg">
    <g filter="url(#filter0_d_5588_314)">
        <mask id="path-1-inside-1_5588_314" fill="white">
            <path fill-rule="evenodd" clip-rule="evenodd" d="M14 6C11.7909 6 10 7.79086 10 10V38C10 40.2091 11.7909 42 14 42H269C271.209 42 273 40.2091 273 38V32.18C273.244 31.0772 273.797 30.0564 274.606 29.2434L278.42 25.4109C279.197 24.6306 279.197 23.3694 278.42 22.5891L274.606 18.7566C273.797 17.9436 273.244 16.9228 273 15.82V10C273 7.79086 271.209 6 269 6H14Z"/>
        </mask>
        <path fill-rule="evenodd" clip-rule="evenodd" d="M14 6C11.7909 6 10 7.79086 10 10V38C10 40.2091 11.7909 42 14 42H269C271.209 42 273 40.2091 273 38V32.18C273.244 31.0772 273.797 30.0564 274.606 29.2434L278.42 25.4109C279.197 24.6306 279.197 23.3694 278.42 22.5891L274.606 18.7566C273.797 17.9436 273.244 16.9228 273 15.82V10C273 7.79086 271.209 6 269 6H14Z" fill="white"/>
        <path d="M273 32.18L272.024 31.964L272 32.0707V32.18H273ZM274.606 29.2434L275.315 29.9489V29.9489L274.606 29.2434ZM278.42 25.4109L277.711 24.7054V24.7054L278.42 25.4109ZM278.42 22.5891L277.711 23.2946V23.2946L278.42 22.5891ZM274.606 18.7566L275.315 18.0511V18.0511L274.606 18.7566ZM273 15.82H272V15.9293L272.024 16.036L273 15.82ZM11 10C11 8.34315 12.3431 7 14 7V5C11.2386 5 9 7.23858 9 10H11ZM11 38V10H9V38H11ZM14 41C12.3431 41 11 39.6569 11 38H9C9 40.7614 11.2386 43 14 43V41ZM269 41H14V43H269V41ZM272 38C272 39.6569 270.657 41 269 41V43C271.761 43 274 40.7614 274 38H272ZM272 32.18V38H274V32.18H272ZM273.976 32.396C274.18 31.477 274.64 30.6263 275.315 29.9489L273.897 28.538C272.953 29.4865 272.308 30.6775 272.024 31.964L273.976 32.396ZM275.315 29.9489L279.129 26.1163L277.711 24.7054L273.897 28.538L275.315 29.9489ZM279.129 26.1163C280.294 24.9459 280.294 23.0541 279.129 21.8837L277.711 23.2946C278.1 23.6847 278.1 24.3153 277.711 24.7054L279.129 26.1163ZM279.129 21.8837L275.315 18.0511L273.897 19.462L277.711 23.2946L279.129 21.8837ZM275.315 18.0511C274.64 17.3736 274.18 16.523 273.976 15.604L272.024 16.036C272.308 17.3225 272.953 18.5135 273.897 19.462L275.315 18.0511ZM272 10V15.82H274V10H272ZM269 7C270.657 7 272 8.34315 272 10H274C274 7.23858 271.761 5 269 5V7ZM14 7H269V5H14V7Z" fill="#EBEDF2" mask="url(#path-1-inside-1_5588_314)"/>
    </g>
    <defs>
        <filter id="filter0_d_5588_314" x="0" y="0" width="289.003" height="56" filterUnits="userSpaceOnUse" color-interpolation-filters="sRGB">
            <feFlood flood-opacity="0" result="BackgroundImageFix"/>
            <feColorMatrix in="SourceAlpha" type="matrix" values="0 0 0 0 0 0 0 0 0 0 0 0 0 0 0 0 0 0 127 0" result="hardAlpha"/>
            <feOffset dy="4"/>
            <feGaussianBlur stdDeviation="5"/>
            <feColorMatrix type="matrix" values="0 0 0 0 0.184314 0 0 0 0 0.32549 0 0 0 0 0.52549 0 0 0 0.12 0"/>
            <feBlend mode="normal" in2="BackgroundImageFix" result="effect1_dropShadow_5588_314"/>
            <feBlend mode="normal" in="SourceGraphic" in2="effect1_dropShadow_5588_314" result="shape"/>
        </filter>
    </defs>
</svg>
