<svg width="95" height="44" viewBox="0 0 95 44" fill="none" xmlns="http://www.w3.org/2000/svg">
<rect width="89" height="44" rx="8" fill="#4C6AFF"/>
<g clip-path="">
<path fill-rule="evenodd" clip-rule="evenodd" d="M93.5846 23.4142C94.3657 22.6332 94.3657 21.3668 93.5846 20.5858L89.7572 16.7583C88.63 15.6331 87.9998 14.107 87.9998 12.5157L87.9998 7.5C87.9998 7.22386 87.776 7 87.4998 7C87.2237 7 86.9998 7.22386 86.9998 7.5L86.9998 13.2932C86.9998 13.5544 86.684 13.6852 86.4993 13.5005C86.3146 13.3158 85.9988 13.4466 85.9988 13.7078L85.9988 30.2922C85.9988 30.5534 86.3146 30.6842 86.4993 30.4995C86.684 30.3148 86.9998 30.4456 86.9998 30.7068L86.9998 36.5C86.9998 36.7761 87.2237 37 87.4998 37C87.776 37 87.9998 36.7761 87.9998 36.5L87.9998 31.4843C87.9998 29.893 88.632 28.3669 89.7572 27.2417L93.5846 23.4142Z" fill="#4C6AFF"/>
</g>
<defs>
</defs>
</svg>