<svg width="16" height="16" viewBox="0 0 16 16" fill="none" xmlns="http://www.w3.org/2000/svg">
<path fill-rule="evenodd" clip-rule="evenodd" d="M1.40477 7.75002H0.268066L2.00012 10L3.73217 7.75002H2.60579C2.60747 7.71305 2.60952 7.67619 2.61194 7.63943C2.79716 4.82552 5.13899 2.60002 8.00012 2.60002C9.99985 2.60002 11.7465 3.68671 12.6805 5.30466L13.7198 4.70472C12.5802 2.73071 10.4459 1.40002 8.00012 1.40002C4.50265 1.40002 1.64099 4.12011 1.41453 7.56062C1.41039 7.62353 1.40713 7.68667 1.40477 7.75002ZM3.32217 10.6996C4.25676 12.3152 6.00211 13.4 8.00012 13.4C10.8612 13.4 13.2031 11.1745 13.3883 8.36062C13.3907 8.32386 13.3928 8.28699 13.3944 8.25002H12.2681L14.0001 6.00002L15.7322 8.25002H14.5955C14.5931 8.31338 14.5898 8.37652 14.5857 8.43943C14.3592 11.8799 11.4976 14.6 8.00012 14.6C5.55643 14.6 3.42371 13.2716 2.28345 11.3005L3.32217 10.6996Z" fill="#A8AAAD"/>
</svg>
