<svg width="16" height="16" viewBox="0 0 16 16" fill="none" xmlns="http://www.w3.org/2000/svg">
<path fill-rule="evenodd" clip-rule="evenodd" d="M4.475 3.04805V4H5.525V3.04805H10.4748V4H11.5248V3.04805H13.45V5.47207H2.55V3.04805H4.475ZM2.55 6.52207V12.948H13.45V6.52207H2.55ZM5.525 1.99805H10.4748V1L11.5248 1V1.99805H13.8C14.1866 1.99805 14.5 2.31145 14.5 2.69805V13.298C14.5 13.6846 14.1866 13.998 13.8 13.998H2.2C1.8134 13.998 1.5 13.6846 1.5 13.298V2.69805C1.5 2.31145 1.8134 1.99805 2.2 1.99805H4.475V1L5.525 1V1.99805Z" fill="#7D8085"/>
</svg>
