<svg width="16" height="16" viewBox="0 0 16 16" fill="none" xmlns="http://www.w3.org/2000/svg">
<path fill-rule="evenodd" clip-rule="evenodd" d="M3.5 4.5C3.5 2.84315 4.84315 1.5 6.5 1.5C8.15685 1.5 9.5 2.84315 9.5 4.5C9.5 6.15685 8.15685 7.5 6.5 7.5C4.84315 7.5 3.5 6.15685 3.5 4.5ZM6.5 2.5C5.39543 2.5 4.5 3.39543 4.5 4.5C4.5 5.60457 5.39543 6.5 6.5 6.5C7.60457 6.5 8.5 5.60457 8.5 4.5C8.5 3.39543 7.60457 2.5 6.5 2.5ZM1 12C1 10.067 2.567 8.5 4.5 8.5H8.5C10.433 8.5 12 10.067 12 12V13C12 13.8284 11.3284 14.5 10.5 14.5H2.5C1.67157 14.5 1 13.8284 1 13V12ZM4.5 9.5C3.11929 9.5 2 10.6193 2 12V13C2 13.2761 2.22386 13.5 2.5 13.5H10.5C10.7761 13.5 11 13.2761 11 13V12C11 10.6193 9.88071 9.5 8.5 9.5H4.5ZM10.5 2.5C11.8807 2.5 13 3.61929 13 5C13 5.71795 12.6974 6.36521 12.2127 6.82118C12.6082 6.97051 13.002 7.1774 13.3649 7.45301C14.3015 8.1643 15 9.31141 15 11L15.0001 11.0584C15.0007 11.5126 15.0017 12.1489 14.666 12.6524C14.2786 13.2336 13.566 13.5 12.5 13.5L12.5 12.5C13.434 12.5 13.7215 12.2664 13.834 12.0976C13.9837 11.8731 14 11.5432 14 11C14 9.62512 13.4485 8.77222 12.7601 8.24937C12.0501 7.71018 11.1621 7.49999 10.5 7.5H10.5V7V6.5C11.3284 6.5 12 5.82843 12 5C12 4.17157 11.3284 3.5 10.5 3.5V2.5Z" fill="#262A33" fill-opacity="0.5"/>
</svg>
