<svg width="16" height="16" viewBox="0 0 16 16" fill="none" xmlns="http://www.w3.org/2000/svg">
<circle cx="8" cy="4.75" r="2.75" stroke="#6F7485"/>
<path d="M13 11.8999V13.5499H14V11.8999H13ZM12.95 13.5999H3.05V14.5999H12.95V13.5999ZM3 13.5499V11.8999H2V13.5499H3ZM5.25 9.6499H10.75V8.6499H5.25V9.6499ZM3.05 13.5999C3.02239 13.5999 3 13.5775 3 13.5499H2C2 14.1298 2.4701 14.5999 3.05 14.5999V13.5999ZM13 13.5499C13 13.5775 12.9776 13.5999 12.95 13.5999V14.5999C13.5299 14.5999 14 14.1298 14 13.5499H13ZM14 11.8999C14 10.105 12.5449 8.6499 10.75 8.6499V9.6499C11.9926 9.6499 13 10.6573 13 11.8999H14ZM3 11.8999C3 10.6573 4.00736 9.6499 5.25 9.6499V8.6499C3.45507 8.6499 2 10.105 2 11.8999H3Z" fill="#6F7485"/>
</svg>
