<svg xmlns="http://www.w3.org/2000/svg" width="16" height="16" viewBox="0 0 16 16" aria-hidden="true" fill="currentColor"><path fill-rule="evenodd" clip-rule="evenodd" d="M10.574 1.403a.75.75 0 10-1.06 1.06 7.756 7.756 0 012.279 5.504c0 2.149-.87 4.093-2.28 5.503a.75.75 0 001.06 1.06 9.256 9.256 0 002.72-6.563 9.256 9.256 0 00-2.72-6.564zM6.496 4.42a.75.75 0 011.06 0 5.003 5.003 0 011.47 3.547c0 1.385-.562 2.64-1.47 3.547a.75.75 0 11-1.06-1.061 3.503 3.503 0 001.03-2.486c0-.972-.393-1.85-1.03-2.487a.75.75 0 010-1.06zM4.01 9.185a1.219 1.219 0 100-2.437 1.219 1.219 0 000 2.437z"></path></svg>