<svg width="16" height="16" viewBox="0 0 16 16" fill="none" xmlns="http://www.w3.org/2000/svg">
<path d="M2.19995 2.7998C1.92381 2.7998 1.69995 3.02366 1.69995 3.2998C1.69995 3.57595 1.92381 3.7998 2.19995 3.7998V2.7998ZM13.8 3.7998C14.0761 3.7998 14.3 3.57595 14.3 3.2998C14.3 3.02366 14.0761 2.7998 13.8 2.7998V3.7998ZM7.19995 6.49982C7.19995 6.22367 6.97609 5.99982 6.69995 5.99982C6.42381 5.99982 6.19995 6.22367 6.19995 6.49982H7.19995ZM6.19995 10.9998C6.19995 11.276 6.42381 11.4998 6.69995 11.4998C6.97609 11.4998 7.19995 11.276 7.19995 10.9998H6.19995ZM9.79995 6.49982C9.79995 6.22367 9.57609 5.99982 9.29995 5.99982C9.02381 5.99982 8.79995 6.22367 8.79995 6.49982H9.79995ZM8.79995 10.9998C8.79995 11.276 9.02381 11.4998 9.29995 11.4998C9.57609 11.4998 9.79995 11.276 9.79995 10.9998H8.79995ZM5.49995 1.7998V1.2998C5.22381 1.2998 4.99995 1.52366 4.99995 1.7998H5.49995ZM10.5 1.7998H11C11 1.52366 10.7761 1.2998 10.5 1.2998V1.7998ZM2.19995 3.7998H3.39995V2.7998H2.19995V3.7998ZM2.89995 3.2998V13.4998H3.89995V3.2998H2.89995ZM3.89995 14.4998H12.1V13.4998H3.89995V14.4998ZM12.6 3.7998H13.8V2.7998H12.6V3.7998ZM13.1 13.4998V3.2998H12.1V13.4998H13.1ZM6.19995 6.49982V10.9998H7.19995V6.49982H6.19995ZM8.79995 6.49982V10.9998H9.79995V6.49982H8.79995ZM3.39995 3.7998H5.49995V2.7998H3.39995V3.7998ZM5.49995 3.7998H7.94995V2.7998H5.49995V3.7998ZM5.99995 3.2998V1.7998H4.99995V3.2998H5.99995ZM5.49995 2.2998H10.5V1.2998H5.49995V2.2998ZM7.94995 3.7998H10.5V2.7998H7.94995V3.7998ZM10.5 3.7998H12.6V2.7998H10.5V3.7998ZM9.99995 1.7998V3.2998H11V1.7998H9.99995ZM12.1 14.4998C12.6522 14.4998 13.1 14.0521 13.1 13.4998H12.1H12.1V14.4998ZM2.89995 13.4998C2.89995 14.0521 3.34767 14.4998 3.89995 14.4998V13.4998V13.4998H2.89995Z" fill="white"/>
</svg>
