<svg width="16" height="16" viewBox="0 0 16 16" fill="none" xmlns="http://www.w3.org/2000/svg">
<path d="M2.83179 11.4537L2.90571 11.2336L2.78527 11.0351C2.19037 10.0547 1.89331 8.98697 1.89331 7.82151C1.89331 6.97822 2.05819 6.17496 2.38815 5.4075C2.7217 4.63173 3.16613 3.96979 3.71986 3.41606C4.27359 2.86233 4.93553 2.41789 5.7113 2.08435C6.47877 1.75438 7.28202 1.58951 8.12531 1.58951C8.9686 1.58951 9.77185 1.75438 10.5393 2.08435C11.3151 2.41789 11.977 2.86233 12.5308 3.41606C13.0845 3.96979 13.5289 4.63172 13.8625 5.4075C14.1924 6.17496 14.3573 6.97822 14.3573 7.82151C14.3573 8.66479 14.1924 9.46805 13.8625 10.2355C13.5289 11.0113 13.0845 11.6732 12.5308 12.227C11.977 12.7807 11.3151 13.2251 10.5393 13.5587C9.77185 13.8886 8.9686 14.0535 8.12531 14.0535C7.04896 14.0535 6.04593 13.795 5.10829 13.2765L4.91912 13.1718L4.71333 13.238L1.93232 14.1317L2.83179 11.4537Z" stroke="#6F7485"/>
<path d="M10.8082 9.08951C10.3052 8.82751 10.015 8.69651 9.93767 8.69651H9.93617C9.8585 8.69651 9.70367 8.84084 9.47167 9.12951C9.23967 9.41817 9.079 9.56251 8.98967 9.56251C8.93 9.56251 8.8645 9.54167 8.79317 9.50001C8.22784 9.21401 7.7785 8.91334 7.44517 8.59801C7.0405 8.21734 6.737 7.80967 6.53467 7.37501C6.505 7.32734 6.49017 7.28267 6.49017 7.24101C6.49017 7.18167 6.59284 7.04334 6.79817 6.82601C7.0035 6.60867 7.10617 6.43751 7.10617 6.31251C7.10617 6.27084 7.03184 6.04767 6.88317 5.64301C6.7345 5.23834 6.63634 4.97651 6.58867 4.85751C6.541 4.73251 6.49484 4.65067 6.45017 4.61201C6.4055 4.57334 6.32667 4.55401 6.21367 4.55401C6.172 4.55401 6.1155 4.54951 6.04417 4.54051C5.97284 4.53151 5.91934 4.52701 5.88367 4.52701C5.717 4.52701 5.56217 4.59251 5.41917 4.72351C4.99684 5.12217 4.77667 5.59234 4.75867 6.13401V6.20551C4.75267 6.72317 4.964 7.30051 5.39267 7.93751C5.845 8.60451 6.2855 9.15517 6.71417 9.58951C7.14284 10.0238 7.64884 10.375 8.23217 10.643C9.02384 11.012 9.58934 11.1965 9.92867 11.1965C10.2083 11.1968 10.5118 11.118 10.8392 10.96C11.1665 10.802 11.3778 10.607 11.4732 10.375C11.5745 10.119 11.6252 9.89284 11.6252 9.69651C11.6252 9.63684 11.6192 9.59217 11.6072 9.56251C11.5775 9.50917 11.3112 9.35151 10.8082 9.08951Z" fill="#6F7485"/>
</svg>
