<svg width="17" height="16" viewBox="0 0 17 16" fill="none" xmlns="http://www.w3.org/2000/svg">
<rect x="0.5" width="16" height="16" rx="3.2" fill="url(#paint0_linear_4447_214574)"/>
<path fill-rule="evenodd" clip-rule="evenodd" d="M11.2239 3.17674C11.1262 3.07911 10.968 3.07911 10.8703 3.17674L3.67674 10.3703C3.57911 10.468 3.57911 10.6262 3.67674 10.7239L5.77601 12.8231C5.87364 12.9208 6.03193 12.9208 6.12956 12.8231L13.3231 5.62956C13.4208 5.53193 13.4208 5.37364 13.3231 5.27601L11.2239 3.17674ZM11.1671 4.54983C11.1281 4.51078 11.0647 4.51078 11.0257 4.54983L9.469 6.10652C9.42995 6.14557 9.42995 6.20889 9.469 6.24794L10.271 7.04991C10.31 7.08896 10.3733 7.08896 10.4124 7.04991L11.9691 5.49323C12.0081 5.45417 12.0081 5.39086 11.9691 5.35181L11.1671 4.54983Z" fill="white"/>
<path d="M5.3154 3.21777L5.7871 4.41378L6.9831 4.88547L5.7871 5.35717L5.3154 6.55317L4.8437 5.35717L3.6477 4.88547L4.8437 4.41378L5.3154 3.21777Z" fill="white"/>
<path d="M11.687 8.3667L12.1587 9.5627L13.3547 10.0344L12.1587 10.5061L11.687 11.7021L11.2153 10.5061L10.0193 10.0344L11.2153 9.5627L11.687 8.3667Z" fill="white"/>
<path d="M7.87318 3.21777L8.1562 3.93537L8.8738 4.21839L8.1562 4.50141L7.87318 5.21901L7.59016 4.50141L6.87256 4.21839L7.59016 3.93537L7.87318 3.21777Z" fill="white"/>
<defs>
<linearGradient id="paint0_linear_4447_214574" x1="16.5" y1="0" x2="0.5" y2="16" gradientUnits="userSpaceOnUse">
<stop stop-color="#69F68D"/>
<stop offset="0.316383" stop-color="#29DCD6"/>
<stop offset="0.658477" stop-color="#0E9BE9"/>
<stop offset="1" stop-color="#1C99F5"/>
</linearGradient>
</defs>
</svg>
