<svg width="50" height="50" viewBox="0 0 50 50" fill="none" xmlns="http://www.w3.org/2000/svg">
<g clip-path="url(#clip0_193_49415)">
<path d="M32.7297 17.8649C32.7297 9.65521 26.0745 3 17.8649 3C9.65521 3 3 9.65521 3 17.8649C3 25.284 8.43629 31.4344 15.5422 32.5492V22.1619H11.7676V17.8649H15.5422V14.5898C15.5422 10.8646 17.7613 8.80685 21.1569 8.80685C22.7835 8.80685 24.4845 9.09672 24.4845 9.09672V12.7551H22.6105C20.7635 12.7551 20.1875 13.9013 20.1875 15.0766V17.8649H24.3104L23.651 22.1619H20.1875V32.5492C27.294 31.4344 32.7297 25.284 32.7297 17.8649Z" fill="#1877F2"/>
</g>
<rect x="19.1434" y="19.3311" width="27.4622" height="27.4622" rx="6.27707" transform="rotate(-0.392319 19.1434 19.3311)" fill="url(#paint0_linear_193_49415)"/>
<rect x="19.1434" y="19.3311" width="27.4622" height="27.4622" rx="6.27707" transform="rotate(-0.392319 19.1434 19.3311)" fill="url(#paint1_linear_193_49415)"/>
<rect x="23.2121" y="23.3456" width="19.3804" height="19.302" rx="4.51164" transform="rotate(-0.392319 23.2121 23.3456)" stroke="white" stroke-width="1.96158"/>
<rect x="28.0309" y="28.0966" width="9.80792" height="9.80792" rx="4.90396" transform="rotate(-0.392319 28.0309 28.0966)" stroke="white" stroke-width="1.96158"/>
<circle cx="38.8128" cy="27.0439" r="0.980792" transform="rotate(-0.392319 38.8128 27.0439)" fill="white"/>
<path d="M34 11.0097C36.1818 10.885 41.0364 11.9083 43 17" stroke="#C9CBD6" stroke-width="2" stroke-linecap="round" stroke-linejoin="round"/>
<path d="M16 39.9903C13.8182 40.115 8.96364 39.0917 7 34" stroke="#C9CBD6" stroke-width="2" stroke-linecap="round" stroke-linejoin="round"/>
<defs>
<linearGradient id="paint0_linear_193_49415" x1="20.8599" y1="19.1552" x2="44.4743" y2="46.9399" gradientUnits="userSpaceOnUse">
<stop stop-color="#6F17FF"/>
<stop offset="0.381282" stop-color="#FE08BF"/>
<stop offset="0.770698" stop-color="#FF5D37"/>
<stop offset="1" stop-color="#FE3A5A"/>
</linearGradient>
<linearGradient id="paint1_linear_193_49415" x1="34.9452" y1="49.5538" x2="38.4772" y2="34.7128" gradientUnits="userSpaceOnUse">
<stop stop-color="#FDCE00"/>
<stop offset="1" stop-color="#F203C6" stop-opacity="0"/>
</linearGradient>
<clipPath id="clip0_193_49415">
<rect width="29.7297" height="29.7297" fill="white" transform="translate(3 3)"/>
</clipPath>
</defs>
</svg>
