<svg width="16" height="16" viewBox="0 0 16 16" fill="none" xmlns="http://www.w3.org/2000/svg">
<path d="M7.99998 14.3996C11.5346 14.3996 14.4 11.5342 14.4 7.99961C14.4 4.46499 11.5346 1.59961 7.99998 1.59961C4.46535 1.59961 1.59998 4.46499 1.59998 7.99961C1.59998 11.5342 4.46535 14.3996 7.99998 14.3996Z" fill="#FFB54C"/>
<path fill-rule="evenodd" clip-rule="evenodd" d="M8.68031 4.95957C8.68031 4.73866 8.50123 4.55957 8.28031 4.55957L7.72031 4.55957C7.4994 4.55957 7.32031 4.73866 7.32031 4.95957V5.51957C7.32031 5.74048 7.4994 5.91957 7.72031 5.91957H8.28031C8.50123 5.91957 8.68031 5.74048 8.68031 5.51957V4.95957ZM8.68031 7.23926C8.68031 7.01834 8.50123 6.83926 8.28031 6.83926H7.72031C7.4994 6.83926 7.32031 7.01834 7.32031 7.23926V10.9993C7.32031 11.2202 7.4994 11.3993 7.72031 11.3993H8.28031C8.50123 11.3993 8.68031 11.2202 8.68031 10.9993L8.68031 7.23926Z" fill="white"/>
</svg>
