<svg width="20" height="20" viewBox="0 0 20 20" fill="none" xmlns="http://www.w3.org/2000/svg">
<path d="M5.625 10C5.625 10.3315 5.4933 10.6495 5.25888 10.8839C5.02446 11.1183 4.70652 11.25 4.375 11.25C4.04348 11.25 3.72554 11.1183 3.49112 10.8839C3.2567 10.6495 3.125 10.3315 3.125 10C3.125 9.66848 3.2567 9.35054 3.49112 9.11612C3.72554 8.8817 4.04348 8.75 4.375 8.75C4.70652 8.75 5.02446 8.8817 5.25888 9.11612C5.4933 9.35054 5.625 9.66848 5.625 10ZM11.25 10C11.25 10.3315 11.1183 10.6495 10.8839 10.8839C10.6495 11.1183 10.3315 11.25 10 11.25C9.66848 11.25 9.35054 11.1183 9.11612 10.8839C8.8817 10.6495 8.75 10.3315 8.75 10C8.75 9.66848 8.8817 9.35054 9.11612 9.11612C9.35054 8.8817 9.66848 8.75 10 8.75C10.3315 8.75 10.6495 8.8817 10.8839 9.11612C11.1183 9.35054 11.25 9.66848 11.25 10ZM16.875 10C16.875 10.3315 16.7433 10.6495 16.5089 10.8839C16.2745 11.1183 15.9565 11.25 15.625 11.25C15.2935 11.25 14.9755 11.1183 14.7411 10.8839C14.5067 10.6495 14.375 10.3315 14.375 10C14.375 9.66848 14.5067 9.35054 14.7411 9.11612C14.9755 8.8817 15.2935 8.75 15.625 8.75C15.9565 8.75 16.2745 8.8817 16.5089 9.11612C16.7433 9.35054 16.875 9.66848 16.875 10Z" fill="white"/>
</svg>
