<svg width="16" height="16" viewBox="0 0 16 16" fill="none" xmlns="http://www.w3.org/2000/svg">
<path d="M8.19399 7.02995C8.1001 7.12371 8.0473 7.25092 8.04721 7.3836C8.04712 7.51628 8.09973 7.64357 8.19349 7.73745C8.28724 7.83134 8.41445 7.88414 8.54714 7.88423C8.67982 7.88432 8.8071 7.83171 8.90099 7.73795L8.19399 7.03095V7.02995ZM8.90099 7.73795L13.806 2.83395L13.099 2.12695L8.19399 7.02995L8.90099 7.73695V7.73795Z" fill="#4C6AFF"/>
<path d="M7 2.5H3C2.86739 2.5 2.74021 2.55268 2.64645 2.64645C2.55268 2.74021 2.5 2.86739 2.5 3V13C2.5 13.1326 2.55268 13.2598 2.64645 13.3536C2.74021 13.4473 2.86739 13.5 3 13.5H13C13.1326 13.5 13.2598 13.4473 13.3536 13.3536C13.4473 13.2598 13.5 13.1326 13.5 13V9M9.5 2.5H13C13.1326 2.5 13.2598 2.55268 13.3536 2.64645C13.4473 2.74021 13.5 2.86739 13.5 3V6.5" stroke="#4C6AFF" stroke-linecap="round"/>
</svg>
