<svg width="16" height="16" viewBox="0 0 16 16" fill="none" xmlns="http://www.w3.org/2000/svg">
<path d="M8.00001 14.4001C11.5346 14.4001 14.4 11.5347 14.4 8.0001C14.4 4.46548 11.5346 1.6001 8.00001 1.6001C4.46538 1.6001 1.60001 4.46548 1.60001 8.0001C1.60001 11.5347 4.46538 14.4001 8.00001 14.4001Z" fill="#FFB54C"/>
<path fill-rule="evenodd" clip-rule="evenodd" d="M8.68031 4.96056C8.68031 4.73964 8.50123 4.56056 8.28031 4.56056L7.72031 4.56056C7.4994 4.56056 7.32031 4.73964 7.32031 4.96056V5.52056C7.32031 5.74147 7.4994 5.92056 7.72031 5.92056H8.28031C8.50123 5.92056 8.68031 5.74147 8.68031 5.52056V4.96056ZM8.68031 7.24024C8.68031 7.01933 8.50123 6.84024 8.28031 6.84024H7.72031C7.4994 6.84024 7.32031 7.01933 7.32031 7.24024V11.0002C7.32031 11.2212 7.4994 11.4002 7.72031 11.4002H8.28031C8.50123 11.4002 8.68031 11.2212 8.68031 11.0002L8.68031 7.24024Z" fill="white"/>
</svg>
