<svg width="16" height="16" viewBox="0 0 16 16" fill="none" xmlns="http://www.w3.org/2000/svg">
<path d="M8.0001 14.3996C11.5347 14.3996 14.4001 11.5342 14.4001 7.99961C14.4001 4.46499 11.5347 1.59961 8.0001 1.59961C4.46547 1.59961 1.6001 4.46499 1.6001 7.99961C1.6001 11.5342 4.46547 14.3996 8.0001 14.3996Z" fill="#0FD683"/>
<path fill-rule="evenodd" clip-rule="evenodd" d="M7.17868 10.1529C7.28356 10.1549 7.38908 10.1158 7.46911 10.0358L10.6935 6.81139C10.8497 6.65518 10.8497 6.40191 10.6935 6.2457L10.4107 5.96286C10.2545 5.80665 10.0012 5.80665 9.84499 5.96286L7.17221 8.63564L6.15514 7.61858C5.99893 7.46237 5.74566 7.46237 5.58945 7.61858L5.30661 7.90142C5.1504 8.05763 5.1504 8.3109 5.30661 8.46711L6.87573 10.0362C6.95895 10.1194 7.06972 10.1583 7.17868 10.1529Z" fill="white"/>
</svg>
