<svg width="16" height="16" viewBox="0 0 16 16" fill="none" xmlns="http://www.w3.org/2000/svg">
<path d="M8 1C6.61553 1 5.26215 1.41054 4.11101 2.17971C2.95986 2.94888 2.06266 4.04213 1.53284 5.32122C1.00303 6.6003 0.864406 8.00777 1.1345 9.36563C1.4046 10.7235 2.07128 11.9708 3.05025 12.9497C4.02922 13.9287 5.2765 14.5954 6.63437 14.8655C7.99223 15.1356 9.3997 14.997 10.6788 14.4672C11.9579 13.9373 13.0511 13.0401 13.8203 11.889C14.5895 10.7378 15 9.38447 15 8C15 6.14348 14.2625 4.36301 12.9497 3.05025C11.637 1.7375 9.85652 1 8 1ZM3 8C3 6.91815 3.35089 5.86548 4 5L4.55 5.55C4.69233 5.68951 4.80543 5.85599 4.8827 6.03971C4.95996 6.22342 4.99984 6.4207 5 6.62V7.69C5.00018 7.88885 5.07931 8.07948 5.22 8.22L5.78 8.78C5.92052 8.92069 6.11115 8.99982 6.31 9H7V9.69C7.00018 9.88884 7.07931 10.0795 7.22 10.22L7.78 10.78C7.92069 10.9205 7.99982 11.1112 8 11.31V13C6.67392 13 5.40215 12.4732 4.46447 11.5355C3.52678 10.5979 3 9.32608 3 8ZM9.24 12.83L11.24 10.37C11.3295 10.259 11.3855 10.1248 11.4014 9.9831C11.4174 9.84141 11.3926 9.69811 11.33 9.57L10.75 8.41C10.6805 8.27433 10.5718 8.16269 10.4381 8.08957C10.3044 8.01646 10.1517 7.98525 10 8H7V7.81C7.00095 7.71654 7.02757 7.62513 7.07695 7.54577C7.12633 7.46641 7.19657 7.40215 7.28 7.36L7.66 7.17C7.76509 7.11564 7.88168 7.08727 8 7.08727C8.11832 7.08727 8.23491 7.11564 8.34 7.17L9 7.5L9.38 6.8C9.45957 6.65258 9.50084 6.48753 9.5 6.32V5.47C9.50062 5.27316 9.57563 5.08384 9.71 4.94L10.78 3.85C11.5827 4.38684 12.2127 5.14463 12.594 6.03181C12.9753 6.91899 13.0915 7.8976 12.9287 8.84942C12.7658 9.80124 12.3308 10.6855 11.6762 11.3955C11.0217 12.1054 10.1755 12.6106 9.24 12.85V12.83Z" fill="#6F7485"/>
</svg>
