<svg width="17" height="16" viewBox="0 0 17 16" fill="#C9CBD6" xmlns="http://www.w3.org/2000/svg">
<path d="M12.8335 1.66699C13.0086 1.66699 13.182 1.70148 13.3437 1.76849C13.5055 1.83549 13.6525 1.93371 13.7763 2.05752C13.9001 2.18133 13.9983 2.32831 14.0653 2.49008C14.1323 2.65185 14.1668 2.82523 14.1668 3.00033V10.3337C14.1668 12.5427 12.3758 14.3337 10.1668 14.3337H4.16683C3.99173 14.3337 3.81835 14.2992 3.65658 14.2322C3.49482 14.1652 3.34783 14.0669 3.22402 13.9431C3.10021 13.8193 3.002 13.6723 2.93499 13.5106C2.86798 13.3488 2.8335 13.1754 2.8335 13.0003V3.00033C2.8335 2.82523 2.86798 2.65185 2.93499 2.49008C3.002 2.32831 3.10021 2.18133 3.22402 2.05752C3.34783 1.93371 3.49482 1.83549 3.65658 1.76849C3.81835 1.70148 3.99173 1.66699 4.16683 1.66699H12.8335ZM10.0002 9.00033H5.66683C5.53422 9.00033 5.40704 9.053 5.31328 9.14677C5.21951 9.24054 5.16683 9.36772 5.16683 9.50033C5.16683 9.63293 5.21951 9.76011 5.31328 9.85388C5.40704 9.94765 5.53422 10.0003 5.66683 10.0003H10.0002C10.1328 10.0003 10.2599 9.94765 10.3537 9.85388C10.4475 9.76011 10.5002 9.63293 10.5002 9.50033C10.5002 9.36772 10.4475 9.24054 10.3537 9.14677C10.2599 9.053 10.1328 9.00033 10.0002 9.00033ZM11.3335 6.00033H5.66683C5.53422 6.00033 5.40704 6.053 5.31328 6.14677C5.21951 6.24054 5.16683 6.36772 5.16683 6.50033C5.16683 6.63293 5.21951 6.76011 5.31328 6.85388C5.40704 6.94765 5.53422 7.00033 5.66683 7.00033H11.3335C11.4661 7.00033 11.5933 6.94765 11.687 6.85388C11.7808 6.76011 11.8335 6.63293 11.8335 6.50033C11.8335 6.36772 11.7808 6.24054 11.687 6.14677C11.5933 6.053 11.4661 6.00033 11.3335 6.00033Z" fill="currentColor"/>
</svg>
