<svg width="17" height="16" viewBox="0 0 17 16" fill="#C9CBD6" xmlns="http://www.w3.org/2000/svg">
<path d="M13.9602 4.16774L9.10262 1.36293C8.92218 1.2595 8.71781 1.20508 8.50982 1.20508C8.30183 1.20508 8.09746 1.2595 7.91702 1.36293L3.05862 4.16774C2.87876 4.27232 2.7294 4.42217 2.6254 4.60238C2.52141 4.78258 2.46639 4.98687 2.46582 5.19493V10.8045C2.46582 11.2261 2.69302 11.6205 3.05862 11.8317L7.91622 14.6365C8.09679 14.7397 8.30117 14.7939 8.50913 14.7937C8.71708 14.7936 8.92139 14.7391 9.10182 14.6357L13.9594 11.8309C14.325 11.6197 14.5522 11.2261 14.5522 10.8037V5.19493C14.5521 4.98689 14.4973 4.78252 14.3934 4.60227C14.2895 4.42201 14.1402 4.27218 13.9602 4.16774ZM12.9634 5.92294L8.91062 8.21334V12.9365C8.91062 13.0426 8.86848 13.1444 8.79346 13.2194C8.71845 13.2944 8.61671 13.3365 8.51062 13.3365C8.40453 13.3365 8.30279 13.2944 8.22778 13.2194C8.15276 13.1444 8.11062 13.0426 8.11062 12.9365V8.20374L4.07382 5.92294C3.98142 5.87063 3.91358 5.78377 3.88522 5.68145C3.85687 5.57913 3.87032 5.46974 3.92262 5.37734C3.97492 5.28493 4.06179 5.21709 4.16411 5.18874C4.26643 5.16038 4.37582 5.17383 4.46822 5.22613L8.51942 7.51494L12.5698 5.22613C12.6623 5.17417 12.7716 5.16091 12.8738 5.18924C12.976 5.21757 13.0629 5.28519 13.1154 5.37734C13.1673 5.46991 13.1805 5.57926 13.152 5.68149C13.1235 5.78373 13.0557 5.87053 12.9634 5.92294Z" fill="currentColor"/>
</svg>
