<svg width="50" height="50" viewBox="0 0 50 50" fill="none" xmlns="http://www.w3.org/2000/svg">
<g clip-path="url(#clip0_78_169914)">
<path d="M42.3122 42.2736H34.9542V30.7611C34.9542 28.0159 34.9052 24.4818 31.1273 24.4818C27.295 24.4818 26.7087 27.4729 26.7087 30.5613V42.2729H19.3507V18.5985H26.4144V21.8338H26.5133C27.2202 20.6262 28.2417 19.6328 29.469 18.9594C30.6963 18.286 32.0834 17.9577 33.4826 18.0096C40.9403 18.0096 42.3153 22.9105 42.3153 29.2863L42.3122 42.2736ZM11.0485 15.3623C10.204 15.3625 9.37836 15.1124 8.67609 14.6438C7.97382 14.1752 7.42642 13.509 7.1031 12.7295C6.77978 11.9501 6.69506 11.0923 6.85967 10.2647C7.02428 9.43717 7.43081 8.67696 8.02786 8.08023C8.62492 7.4835 9.38567 7.07706 10.2139 6.9123C11.0422 6.74754 11.9007 6.83187 12.681 7.15462C13.4613 7.47737 14.1283 8.02405 14.5976 8.72552C15.0669 9.42699 15.3175 10.2517 15.3176 11.0955C15.3177 11.6557 15.2074 12.2105 14.9929 12.7281C14.7784 13.2457 14.464 13.7161 14.0675 14.1123C13.6711 14.5085 13.2005 14.8228 12.6824 15.0373C12.1644 15.2518 11.6092 15.3622 11.0485 15.3623ZM14.7275 42.2736H7.36181V18.5985H14.7275V42.2736ZM45.9805 0.00337898H3.66443C2.70397 -0.00744999 1.7785 0.363132 1.09139 1.03369C0.404271 1.70425 0.0117218 2.61993 0 3.5795V46.0328C0.0113206 46.9928 0.403618 47.9091 1.09071 48.5804C1.7778 49.2517 2.7035 49.623 3.66443 49.6127H45.9805C46.9433 49.6248 47.8716 49.2546 48.5614 48.5833C49.2512 47.9121 49.6461 46.9947 49.6595 46.0328V3.57644C49.6457 2.61496 49.2505 1.69824 48.5607 1.0277C47.8709 0.357159 46.9428 -0.0123649 45.9805 0.000315914" fill="#0A66C2"/>
</g>
<defs>
<clipPath id="clip0_78_169914">
<rect width="50" height="50" fill="white"/>
</clipPath>
</defs>
</svg>
