<svg width="16" height="16" viewBox="0 0 16 16" fill="none" xmlns="http://www.w3.org/2000/svg">
<path d="M2 14.7637H14" stroke="#4C6AFF" stroke-linecap="round"/>
<path d="M10.145 1.81827L2.94999 9.01327C2.86284 9.10025 2.81085 9.21633 2.80399 9.33927L2.63599 12.3653L5.66099 12.1973C5.78392 12.1904 5.9 12.1384 5.98699 12.0513L13.182 4.85627C13.2286 4.80982 13.2655 4.75465 13.2907 4.6939C13.3159 4.63316 13.3289 4.56804 13.3289 4.50227C13.3289 4.4365 13.3159 4.37138 13.2907 4.31063C13.2655 4.24989 13.2286 4.19471 13.182 4.14827L10.852 1.81827C10.7582 1.72453 10.6311 1.67188 10.4985 1.67188C10.3659 1.67188 10.2388 1.72453 10.145 1.81827Z" stroke="#4C6AFF" stroke-linejoin="round"/>
<path d="M9 3L12.27 6.27" stroke="#4C6AFF"/>
</svg>
