<svg width="16" height="16" viewBox="0 0 16 16" fill="none" xmlns="http://www.w3.org/2000/svg">
<path fill-rule="evenodd" clip-rule="evenodd" d="M7.99999 2.5C5.84299 2.5 4.29799 3.405 3.25699 4.536C2.22799 5.655 1.69199 6.992 1.50999 7.902L1.48999 8L1.50999 8.098C1.69199 9.008 2.22799 10.345 3.25699 11.463C4.29799 12.595 5.84299 13.5 7.99999 13.5C10.157 13.5 11.702 12.595 12.743 11.463C13.772 10.345 14.308 9.008 14.49 8.098L14.51 8L14.49 7.902C14.308 6.992 13.772 5.655 12.743 4.536C11.703 3.405 10.157 2.5 7.99999 2.5ZM7.99999 10C8.53042 10 9.03913 9.78929 9.4142 9.41421C9.78928 9.03914 9.99999 8.53043 9.99999 8C9.99999 7.46957 9.78928 6.96086 9.4142 6.58579C9.03913 6.21071 8.53042 6 7.99999 6C7.46956 6 6.96085 6.21071 6.58578 6.58579C6.2107 6.96086 5.99999 7.46957 5.99999 8C5.99999 8.53043 6.2107 9.03914 6.58578 9.41421C6.96085 9.78929 7.46956 10 7.99999 10Z" fill="white"/>
</svg>
