<svg width="16" height="16" viewBox="0 0 16 16" fill="none" xmlns="http://www.w3.org/2000/svg">
<path fill-rule="evenodd" clip-rule="evenodd" d="M13.3518 7.71291C13.886 7.61236 14.2385 7.09893 14.1405 6.56421L14.1375 6.54791C13.5831 3.5256 10.964 1.2395 7.81702 1.2395C5.43536 1.2395 3.35659 2.54977 2.2468 4.49301L1.85055 5.18685C1.7962 5.28201 1.82855 5.40318 1.92309 5.45859L3.2869 6.25786C3.38295 6.31415 3.50648 6.28117 3.5617 6.1845L3.95573 5.49454C4.72637 4.14516 6.16713 3.2395 7.81702 3.2395C9.99845 3.2395 11.8132 4.82417 12.1964 6.91327C12.2951 7.4515 12.814 7.81413 13.3518 7.71291ZM12.3458 9.22525C12.2498 9.16887 12.1263 9.20174 12.071 9.29837L11.6763 9.98795C10.9052 11.3354 9.46549 12.2395 7.81702 12.2395C5.64665 12.2395 3.83914 10.6708 3.44356 8.5973C3.341 8.0597 2.81947 7.70098 2.28236 7.80613C1.74891 7.91057 1.40013 8.42646 1.502 8.96042L1.50512 8.9768C2.07737 11.9764 4.68592 14.2395 7.81702 14.2395C10.1966 14.2395 12.2739 12.9315 13.3844 10.991L13.7812 10.2976C13.8357 10.2025 13.8034 10.0813 13.7089 10.0258L12.3458 9.22525Z" fill="#6F7485" stroke="#6F7485" stroke-width="0.3" stroke-linecap="square" stroke-linejoin="round"/>
<path d="M14.1437 6.8797H12.0327L13.0882 7.93523L14.1437 6.8797Z" stroke="#6F7485"/>
<path d="M1.50838 8.59985L3.61711 8.59985L2.56274 7.54549L1.50838 8.59985Z" stroke="#6F7485"/>
</svg>
