<svg width="16" height="16" viewBox="0 0 16 16" fill="none" xmlns="http://www.w3.org/2000/svg">
<path d="M8 1C11.866 1 15 4.13401 15 8C15 11.866 11.866 15 8 15C4.13401 15 1 11.866 1 8C1 4.13401 4.13401 1 8 1Z" fill="#6F7485"/>
<path d="M8 11.3V7" stroke="white" stroke-linecap="round"/>
<path d="M8.60002 4.90078C8.60002 4.74165 8.53681 4.58904 8.42429 4.47652C8.31177 4.364 8.15915 4.30078 8.00002 4.30078C7.84089 4.30078 7.68828 4.364 7.57576 4.47652C7.46324 4.58904 7.40002 4.74165 7.40002 4.90078C7.40002 5.05991 7.46324 5.21252 7.57576 5.32505C7.68828 5.43757 7.84089 5.50078 8.00002 5.50078C8.15915 5.50078 8.31177 5.43757 8.42429 5.32505C8.53681 5.21252 8.60002 5.05991 8.60002 4.90078Z" fill="white"/>
</svg>
