<svg width="178" height="29" viewBox="0 0 178 29" fill="none" xmlns="http://www.w3.org/2000/svg">
<path fill-rule="evenodd" clip-rule="evenodd" d="M30 0H20L0 29H10L13.4484 23.9998H26.5V16.4998H18.6208L30 0Z" fill="#6096FF"/>
<path fill-rule="evenodd" clip-rule="evenodd" d="M30 0H20L0 29H10L13.4484 23.9998H26.5V16.4998H18.6208L30 0Z" fill="url(#paint0_linear_9272_123181)"/>
<g opacity="0.6">
<mask id="mask0_9272_123181" style="mask-type:alpha" maskUnits="userSpaceOnUse" x="0" y="0" width="30" height="29">
<path fill-rule="evenodd" clip-rule="evenodd" d="M30 0H20L0 29H10L13.4484 23.9998H26.5V16.4998H18.6208L30 0Z" fill="#7088FF"/>
</mask>
<g mask="url(#mask0_9272_123181)">
<path opacity="0.6" d="M21 -0.000244141H11L15 28.9998H25L21 -0.000244141Z" fill="url(#paint1_linear_9272_123181)"/>
</g>
</g>
<path d="M31 -0.000244141H21L25 28.9998H35L31 -0.000244141Z" fill="#6096FF"/>
<path d="M31 -0.000244141H21L25 28.9998H35L31 -0.000244141Z" fill="url(#paint2_linear_9272_123181)"/>
<g opacity="0.6">
<mask id="mask1_9272_123181" style="mask-type:alpha" maskUnits="userSpaceOnUse" x="21" y="-1" width="14" height="30">
<path d="M31 -0.000244141H21L25 28.9998H35L31 -0.000244141Z" fill="#7088FF"/>
</mask>
<g mask="url(#mask1_9272_123181)">
<path opacity="0.6" d="M32 -0.000244141H42L34 28.9998H24L32 -0.000244141Z" fill="url(#paint3_linear_9272_123181)"/>
</g>
</g>
<path d="M36 -0.000244141H46L38 28.9998H28L36 -0.000244141Z" fill="#6096FF"/>
<path d="M36 -0.000244141H46L38 28.9998H28L36 -0.000244141Z" fill="url(#paint4_linear_9272_123181)"/>
<path d="M54.2761 10.0967L54.95 7.01074H56.7287C56.4597 6.65122 56.0517 6.1319 55.5049 5.4528C55.3441 5.25306 55.2235 5.10326 55.1431 5.00339C57.1497 3.58526 58.6209 1.99736 59.5568 0.239682L63.5917 0.299604C63.1776 0.978707 62.7766 1.59789 62.3887 2.15715H70.546L69.8982 5.12323H65.8809C65.7239 5.84228 65.566 6.47145 65.4074 7.01074H70.13L69.456 10.0967H64.7334C66.1492 10.9156 67.5117 11.7445 68.8209 12.5834L66.6546 14.9203H79.1052L76.128 28.5523H71.8347L72.0833 27.4138H57.486L57.2373 28.5523H52.944L55.6464 16.1786C55.4858 16.2585 55.3172 16.3284 55.1406 16.3884C54.6988 15.5095 54.1122 14.4509 53.3809 13.2126C56.6174 12.1539 58.7251 11.1153 59.704 10.0967H54.2761ZM69.5994 13.5122L72.1056 2.03731H83.5749L81.0688 13.5122H69.5994ZM58.5591 22.5003L58.1861 24.208H72.7834L73.1564 22.5003H58.5591ZM59.5144 18.1261L59.148 19.8038H73.7453L74.1117 18.1261H59.5144ZM75.2432 5.36292L74.1963 10.1566H77.9376L78.9846 5.36292H75.2432ZM65.0292 14.9203C64.8758 14.7805 64.8232 14.7405 64.8714 14.8005C63.6219 13.7818 62.6449 13.0128 61.9406 12.4935C61.1031 13.3324 59.9145 14.1413 58.3746 14.9203H65.0292ZM59.9316 5.12323C59.4006 5.6825 58.7009 6.31166 57.8327 7.01074H61.4207C61.5794 6.47145 61.7372 5.84228 61.8943 5.12323H59.9316Z" fill="#3F4765"/>
<path d="M85.6942 10.3064L85.1084 6.95082C85.99 6.47145 86.8138 5.88223 87.5798 5.18315C89.1309 3.88487 90.8269 2.15715 92.6678 0L96.7301 1.19842C94.4904 3.21575 92.4213 5.01338 90.5229 6.59129L95.6157 6.44149L94.4328 4.13454L97.7191 2.42679C99.0471 4.58395 100.181 6.55135 101.122 8.329L102.83 0.509326H106.97L106.211 3.98474C108.554 3.08592 110.797 2.12719 112.942 1.10854L114.6 4.04466C111.808 5.2231 108.75 6.40155 105.426 7.57999L105.157 8.80837C104.907 9.7671 105.287 10.2265 106.298 10.1865H107.923C108.782 10.1865 109.368 9.79706 109.681 9.01809C109.994 8.23912 110.328 7.32033 110.682 6.26173C111.267 6.48144 112.077 6.75108 113.112 7.07066C113.535 7.1905 113.861 7.29037 114.089 7.37027C113.624 8.74845 113.148 9.94686 112.66 10.9655C111.809 12.8031 110.269 13.7219 108.04 13.7219H103.992C101.264 13.7618 100.218 12.3737 100.854 9.55738L100.945 9.13793L97.7446 10.8756L97.1366 9.58734C94.5432 9.66723 91.7468 9.78708 88.7474 9.94686C87.753 10.0068 86.7353 10.1266 85.6942 10.3064ZM81.8537 28.3126L85.5703 11.2951H98.7876L95.8824 24.5975C95.4347 26.8346 94.1368 28.003 91.9888 28.1029C90.863 28.2028 89.605 28.2527 88.2147 28.2527C88.2557 26.7547 88.267 25.6262 88.2488 24.8672C88.7921 24.9071 89.6157 24.9271 90.7197 24.9271C91.6193 24.9271 92.1395 24.5576 92.2805 23.8185L92.4114 23.2193H86.738L85.6257 28.3126H81.8537ZM100.926 28.043C98.182 28.0629 97.1256 26.6748 97.7567 23.8785L99.7656 14.6806H103.906L103.271 17.5868C105.367 16.7878 107.611 15.8291 110.002 14.7106L111.628 17.7965C108.539 19.1148 105.474 20.3232 102.433 21.4217L102.067 23.0995C101.841 24.0383 102.222 24.4976 103.207 24.4777H104.863C105.763 24.4777 106.353 24.0682 106.634 23.2493C106.978 22.3305 107.311 21.3218 107.632 20.2233C109.15 20.7626 110.294 21.1421 111.064 21.3618C110.564 22.8998 110.072 24.218 109.587 25.3166C108.806 27.1142 107.268 28.023 104.974 28.043H100.926ZM88.6683 14.381L88.3215 15.9689H93.9949L94.3417 14.381H88.6683ZM87.7065 18.7852L87.3662 20.3431H93.0395L93.3798 18.7852H87.7065Z" fill="#3F4765"/>
<path d="M124.623 9.40758L125.277 6.41153H131.748L132.055 5.00339H126.903L127.544 2.06727H132.696L133.115 0.149802H137.255L136.836 2.06727H143.982L143.033 6.41153H145.18L144.525 9.40758H142.379L141.436 13.7219H134.291L134.01 15.0102H141.462L140.807 18.0062H133.355L133.074 19.2945H141.293L140.638 22.2906H132.42L132.06 23.9384C133.63 23.9584 135.286 23.9584 137.028 23.9384C138.909 23.9384 140.372 23.9284 141.42 23.9084C141.151 24.3878 140.706 25.2566 140.084 26.515C139.777 27.0742 139.568 27.4737 139.454 27.7134C135.753 27.7134 131.369 27.6635 126.3 27.5636C121.766 27.5436 118.776 26.6748 117.332 24.957C116.349 25.9957 114.985 27.1841 113.241 28.5223C112.632 26.4451 112.219 25.1967 112.004 24.7773C113.293 23.8385 114.392 22.8798 115.301 21.9011C114.583 20.2233 114.068 18.3258 113.753 16.2086L117.131 14.5008C117.368 16.0388 117.651 17.3171 117.981 18.3358C118.764 16.9976 119.4 15.4895 119.889 13.8118H115.074L115.859 10.2165L120.926 5.27304H116.878L117.669 1.64782H126.409L125.598 5.36292L120.514 10.2465H124.562L124.32 11.355C123.229 15.7891 121.783 19.2745 119.982 21.8112C121.201 23.2493 123.645 23.9484 127.313 23.9084C127.374 23.9084 127.466 23.9084 127.589 23.9084C127.728 23.9284 127.838 23.9384 127.92 23.9384L128.28 22.2906H121.84L122.494 19.2945H128.934L129.215 18.0062H123.603L124.258 15.0102H129.87L130.151 13.7219H124.784L125.419 10.8157H130.786L131.093 9.40758H124.623ZM139.323 5.00339H136.195L135.888 6.41153H139.016L139.323 5.00339ZM135.233 9.40758L134.926 10.8157H138.054L138.361 9.40758H135.233Z" fill="#3F4765"/>
<path d="M155.322 28.4924L158.666 13.1826H163.266L166.067 0.359524H170.391L169.376 5.00339H176.092L175.248 8.86829H168.532L167.59 13.1826H173.386L170.042 28.4924H165.872L166.29 26.5749H159.85L159.432 28.4924H155.322ZM142.809 27.234L143.059 22.8598C145.565 22.6201 147.604 22.4104 149.177 22.2306C150.823 18.7153 152.631 14.7006 154.598 10.1865L158.346 10.9955C157.282 13.1526 155.672 16.3584 153.517 20.6128C153.256 21.1521 153.056 21.5515 152.918 21.8112C153.356 21.7712 153.997 21.6914 154.841 21.5715C155.385 21.5116 155.795 21.4617 156.069 21.4217C155.716 22.7599 155.413 24.0982 155.162 25.4364C151.135 25.9957 147.017 26.5949 142.809 27.234ZM146.372 9.37761L147.229 5.4528H152.136C152.082 4.57396 151.94 3.026 151.708 0.80893L156.201 0.179762C156.411 1.83757 156.554 3.33559 156.63 4.67383L152.596 5.4528H160.14L159.282 9.37761H146.372ZM146.277 20.7626C146.377 17.9663 146.445 14.6606 146.48 10.8457L150.274 10.1865C150.268 10.586 150.264 11.1653 150.262 11.9243C150.246 15.18 150.222 17.8664 150.189 19.9836L146.277 20.7626ZM161.931 17.0475L160.701 22.68H167.141L168.371 17.0475H161.931Z" fill="#3F4765"/>
<defs>
<linearGradient id="paint0_linear_9272_123181" x1="-4.38095" y1="25.4643" x2="26.7537" y2="18.6901" gradientUnits="userSpaceOnUse">
<stop stop-color="#87A9FF"/>
<stop offset="1" stop-color="#4C6AFF"/>
</linearGradient>
<linearGradient id="paint1_linear_9272_123181" x1="23" y1="14.4998" x2="18" y2="15.2498" gradientUnits="userSpaceOnUse">
<stop stop-color="#1A5CDD"/>
<stop offset="1" stop-color="#1A5CDD" stop-opacity="0"/>
</linearGradient>
<linearGradient id="paint2_linear_9272_123181" x1="22.1786" y1="-10.4049" x2="6.73932" y2="25.2276" gradientUnits="userSpaceOnUse">
<stop stop-color="#87A9FF"/>
<stop offset="1" stop-color="#4C6AFF"/>
</linearGradient>
<linearGradient id="paint3_linear_9272_123181" x1="28.2024" y1="14.6429" x2="32.9285" y2="15.6019" gradientUnits="userSpaceOnUse">
<stop stop-color="#1A5CDD" stop-opacity="0"/>
<stop offset="1" stop-color="#1A5CDD"/>
</linearGradient>
<linearGradient id="paint4_linear_9272_123181" x1="43.8095" y1="-13.4168" x2="49.5866" y2="37.0099" gradientUnits="userSpaceOnUse">
<stop stop-color="#97C1FF"/>
<stop offset="1" stop-color="#7B91FF"/>
</linearGradient>
</defs>
</svg>
