<svg width="48" height="18" viewBox="0 0 48 18" fill="none" xmlns="http://www.w3.org/2000/svg">
<path d="M0 4C0 1.79086 1.79086 0 4 0H44C46.2091 0 48 1.79086 48 4V14C48 16.2091 46.2091 18 44 18H0.999999C0.447714 18 0 17.5523 0 17V4Z" fill="#8D92A1"/>
<path d="M5.75 4.81V5.64H4.52V6.32H5.75V7.03H6.43V6.32H7.86V7.18H8.54V6.32H9.64V5.64H8.54V4.82H7.86V5.64H6.43V4.81H5.75ZM5.12 9.58V12.28H7.51V9.41H5.24C5.45 9.11 5.65 8.78 5.83 8.42H8.41C8.39 10.7 8.35 12.07 8.28 12.51C8.21 13.03 7.98 13.29 7.58 13.29C7.28 13.29 6.94 13.27 6.54 13.25L6.7 13.89C7.16 13.91 7.48 13.93 7.67 13.93C8.43 13.93 8.85 13.55 8.94 12.79C9.03 12.15 9.08 10.48 9.08 7.76H6.12C6.18 7.6 6.25 7.43 6.31 7.26L5.62 7.11C5.29 8.07 4.86 8.84 4.34 9.43L4.8 9.98C4.9 9.86 5.01 9.72 5.12 9.58ZM6.88 11.66H5.74V10.01H6.88V11.66ZM10.5 4.78C10.28 6.58 9.85 8.01 9.23 9.07L9.67 9.62C9.87 9.3 10.06 8.95 10.24 8.56C10.5 9.58 10.81 10.48 11.19 11.27C10.73 12.13 10.1 12.84 9.3 13.39L9.7 14.02C10.46 13.47 11.08 12.79 11.57 11.99C12.04 12.82 12.6 13.48 13.26 13.98L13.68 13.35C13 12.87 12.42 12.18 11.93 11.3C12.47 10.12 12.77 8.71 12.81 7.05H13.47V6.36H10.94C11.04 5.9 11.13 5.42 11.2 4.91L10.5 4.78ZM12.16 7.05C12.12 8.37 11.91 9.52 11.53 10.51C11.15 9.67 10.85 8.69 10.62 7.55C10.67 7.39 10.72 7.22 10.77 7.05H12.16ZM20.14 4.83V5.48H17.72V6.07H20.14V6.74H18.12V7.32H20.14V8H17.44V8.6H23.56V8H20.83V7.32H22.95V6.74H20.83V6.07H23.31V5.48H20.83V4.83H20.14ZM18.89 11.12H22.12V11.85H18.89V11.12ZM22.12 10.56H18.89V9.82H22.12V10.56ZM18.89 12.41H22.12V12.98C22.12 13.21 21.99 13.33 21.75 13.33L20.95 13.3L21.12 13.94H21.96C22.52 13.94 22.81 13.67 22.81 13.13V9.23H18.2V14H18.89V12.41ZM15.63 4.94L15.12 5.43C15.84 5.97 16.41 6.48 16.83 6.96L17.32 6.46C16.86 5.95 16.3 5.44 15.63 4.94ZM14.42 7.89V8.58H15.85V12.55C15.85 12.72 15.77 12.87 15.62 13.01L15.9 13.65C16.52 13.2 17.12 12.68 17.68 12.1L17.49 11.34C17.15 11.69 16.84 12 16.54 12.28V7.89H14.42ZM25.25 4.86V5.98H24.63V6.65H25.25V10.88H24.52V11.56H29.25V10.88H28.6V6.65H29.2V5.98H28.6V4.88H27.9V5.98H25.95V4.86H25.25ZM25.95 10.88V9.9H27.9V10.88H25.95ZM27.9 6.65V7.65H25.95V6.65H27.9ZM25.95 9.27V8.28H27.9V9.27H25.95ZM27.72 11.82L27.16 12.17C27.61 12.77 27.97 13.33 28.23 13.84L28.76 13.46C28.75 13.48 28.74 13.5 28.72 13.52L29.27 14.03C29.93 13.15 30.33 12.06 30.47 10.74H32.41V12.79C32.41 13.09 32.28 13.24 32.02 13.24C31.7 13.24 31.36 13.22 30.99 13.2L31.19 13.91H32.25C32.83 13.91 33.13 13.62 33.13 13.05V5.21H29.81V9.89C29.79 11.29 29.46 12.46 28.8 13.39C28.55 12.95 28.19 12.42 27.72 11.82ZM25.77 11.81C25.4 12.49 24.96 13.07 24.46 13.56L25.03 13.97C25.53 13.44 25.97 12.81 26.35 12.09L25.77 11.81ZM30.52 8.3H32.41V10.08H30.51C30.51 10 30.52 9.92 30.52 9.83V8.3ZM32.41 7.64H30.52V5.89H32.41V7.64ZM36.47 4.77C36.03 5.72 35.34 6.56 34.38 7.3L34.59 7.99C35.75 7.14 36.58 6.16 37.1 5.06L36.47 4.77ZM36.84 7.07C36.34 8.19 35.55 9.19 34.47 10.06L34.68 10.75C35.11 10.42 35.51 10.07 35.87 9.69V13.95H36.56V8.89C36.92 8.41 37.22 7.9 37.46 7.36L36.84 7.07ZM40.21 4.81V5.9H37.98V6.55H40.21V7.8H37.6V8.46H43.56V7.8H40.9V6.55H43.15V5.9H40.9V4.81H40.21ZM37.65 9.68V10.35H41.53V12.74C41.53 13.08 41.36 13.26 41.03 13.26C40.61 13.26 40.16 13.24 39.7 13.21L39.86 13.9H41.28C41.92 13.9 42.25 13.57 42.25 12.92V10.35H43.42V9.68H42.25V8.94H41.53V9.68H37.65ZM38.83 10.74L38.27 11.09C38.81 11.65 39.24 12.17 39.56 12.63L40.12 12.23C39.82 11.81 39.39 11.31 38.83 10.74Z" fill="white"/>
</svg>
