<svg width="16" height="17" viewBox="0 0 16 17" fill="none" xmlns="http://www.w3.org/2000/svg">
<path fill-rule="evenodd" clip-rule="evenodd" d="M2.95 8.54512C2.95 5.75608 5.21096 3.49512 8 3.49512C10.789 3.49512 13.05 5.75608 13.05 8.54512C13.05 11.3342 10.789 13.5951 8 13.5951C5.21096 13.5951 2.95 11.3342 2.95 8.54512ZM8 1.99512C4.38253 1.99512 1.45 4.92765 1.45 8.54512C1.45 12.1626 4.38253 15.0951 8 15.0951C11.6175 15.0951 14.55 12.1626 14.55 8.54512C14.55 4.92765 11.6175 1.99512 8 1.99512ZM11.4284 7.21879C11.724 6.92862 11.7284 6.45376 11.4382 6.15818C11.148 5.86259 10.6732 5.85821 10.3776 6.14838L7.10793 9.35819L5.63454 7.88478C5.34164 7.59189 4.86677 7.59189 4.57388 7.88478C4.28098 8.17767 4.28098 8.65255 4.57387 8.94544L6.48865 10.8602C6.81487 11.1865 7.35999 11.2127 7.71192 10.8672L11.4284 7.21879Z" fill="#9FA2AD"/>
</svg>
