<svg width="24" height="24" viewBox="0 0 24 24" fill="none" xmlns="http://www.w3.org/2000/svg">
<path fill-rule="evenodd" clip-rule="evenodd" d="M12 19.2552C16.5563 19.2552 20.25 15.441 20.25 12.8385C20.25 10.2361 16.5563 6.42188 12 6.42188C7.44366 6.42188 3.75 10.2388 3.75 12.8385C3.75 15.4383 7.44366 19.2552 12 19.2552Z" fill="#AFBAD6"/>
<path d="M12 15.3203C13.3807 15.3203 14.5 14.201 14.5 12.8203C14.5 11.4396 13.3807 10.3203 12 10.3203C10.6193 10.3203 9.5 11.4396 9.5 12.8203C9.5 14.201 10.6193 15.3203 12 15.3203Z" stroke="white" stroke-width="1.5" stroke-linecap="round"/>
<circle cx="12" cy="12" r="12" fill="#33D0DE"/>
<path fill-rule="evenodd" clip-rule="evenodd" d="M11.9984 17.0167C15.6435 17.0167 18.5984 13.9653 18.5984 11.8833C18.5984 9.8014 15.6435 6.75 11.9984 6.75C8.35337 6.75 5.39844 9.80353 5.39844 11.8833C5.39844 13.9631 8.35337 17.0167 11.9984 17.0167Z" fill="white"/>
<path d="M12 13.875C13.1046 13.875 14 12.9796 14 11.875C14 10.7704 13.1046 9.875 12 9.875C10.8954 9.875 10 10.7704 10 11.875C10 12.9796 10.8954 13.875 12 13.875Z" stroke="#33D0DE" stroke-width="1.2" stroke-linecap="round"/>
</svg>
