<svg width="24" height="24" viewBox="0 0 24 24" fill="none" xmlns="http://www.w3.org/2000/svg">
<circle cx="12" cy="12" r="12" fill="#FFB54C"/>
<path fill-rule="evenodd" clip-rule="evenodd" d="M7.41681 6.6416C6.96333 6.6416 6.5957 7.00923 6.5957 7.46271V10.7471C6.5957 11.2006 6.96333 11.5683 7.41681 11.5683H10.7012C11.1547 11.5683 11.5224 11.2006 11.5224 10.7471V7.46271C11.5224 7.00922 11.1547 6.6416 10.7012 6.6416H7.41681ZM7.41681 12.4283C6.96333 12.4283 6.5957 12.7959 6.5957 13.2494V16.5339C6.5957 16.9874 6.96333 17.355 7.41681 17.355H10.7012C11.1547 17.355 11.5224 16.9874 11.5224 16.5339V13.2494C11.5224 12.7959 11.1547 12.4283 10.7012 12.4283H7.41681ZM12.3934 7.46271C12.3934 7.00923 12.761 6.6416 13.2145 6.6416H16.499C16.9524 6.6416 17.3201 7.00922 17.3201 7.46271V10.7471C17.3201 11.2006 16.9524 11.5683 16.499 11.5683H13.2145C12.761 11.5683 12.3934 11.2006 12.3934 10.7471V7.46271ZM13.2145 12.4283C12.761 12.4283 12.3934 12.7959 12.3934 13.2494V16.5339C12.3934 16.9874 12.761 17.355 13.2145 17.355H16.499C16.9524 17.355 17.3201 16.9874 17.3201 16.5339V13.2494C17.3201 12.7959 16.9524 12.4283 16.499 12.4283H13.2145Z" fill="white"/>
</svg>
