<svg width="12" height="12" viewBox="0 0 12 12" fill="none" xmlns="http://www.w3.org/2000/svg">
<path fill-rule="evenodd" clip-rule="evenodd" d="M7.6875 3.74707C8.10171 3.74707 8.4375 3.41128 8.4375 2.99707C8.4375 2.58286 8.10171 2.24707 7.6875 2.24707C7.27329 2.24707 6.9375 2.58286 6.9375 2.99707C6.9375 3.41128 7.27329 3.74707 7.6875 3.74707ZM4.3125 3.75293C4.72671 3.75293 5.0625 3.41714 5.0625 3.00293C5.0625 2.58872 4.72671 2.25293 4.3125 2.25293C3.89829 2.25293 3.5625 2.58872 3.5625 3.00293C3.5625 3.41714 3.89829 3.75293 4.3125 3.75293ZM5.0625 6.00293C5.0625 6.41714 4.72671 6.75293 4.3125 6.75293C3.89829 6.75293 3.5625 6.41714 3.5625 6.00293C3.5625 5.58872 3.89829 5.25293 4.3125 5.25293C4.72671 5.25293 5.0625 5.58872 5.0625 6.00293ZM7.6875 6.75C8.10171 6.75 8.4375 6.41421 8.4375 6C8.4375 5.58579 8.10171 5.25 7.6875 5.25C7.27329 5.25 6.9375 5.58579 6.9375 6C6.9375 6.41421 7.27329 6.75 7.6875 6.75ZM5.0625 9.00293C5.0625 9.41714 4.72671 9.75293 4.3125 9.75293C3.89829 9.75293 3.5625 9.41714 3.5625 9.00293C3.5625 8.58872 3.89829 8.25293 4.3125 8.25293C4.72671 8.25293 5.0625 8.58872 5.0625 9.00293ZM7.6875 9.75C8.10171 9.75 8.4375 9.41421 8.4375 9C8.4375 8.58579 8.10171 8.25 7.6875 8.25C7.27329 8.25 6.9375 8.58579 6.9375 9C6.9375 9.41421 7.27329 9.75 7.6875 9.75Z" fill="#6F7485"/>
</svg>
