<svg width="68" height="46" fill="none" xmlns="http://www.w3.org/2000/svg">
    <ellipse cx="33.999" cy="37.206" rx="33.824" ry="8.794" fill="#EBEDF2"/>
    <path d="M8.793 36.235V15.068L20.627 1.366A2.5 2.5 0 0 1 22.519.5h22.96a2.5 2.5 0 0 1 1.892.866l11.834 13.702v21.167a2.5 2.5 0 0 1-2.5 2.5H11.293a2.5 2.5 0 0 1-2.5-2.5Z" stroke="#E1E3E8"/>
    <path d="M8.793 15.382h13.059a1.5 1.5 0 0 1 1.5 1.5v2.765a2.5 2.5 0 0 0 2.5 2.5h16.294a2.5 2.5 0 0 0 2.5-2.5v-2.765a1.5 1.5 0 0 1 1.5-1.5h13.059v20.853a2.5 2.5 0 0 1-2.5 2.5H11.293a2.5 2.5 0 0 1-2.5-2.5V15.382Z" fill="#F6F7FA" stroke="#E1E3E8"/>
</svg>