<svg width="16" height="16" viewBox="0 0 16 16" fill="none" xmlns="http://www.w3.org/2000/svg">
<path d="M8 4.25C5 4.25 3.75 6.75 3.5 8C3.75 9.25 5 11.75 8 11.75C11 11.75 12.25 9.25 12.5 8C12.25 6.75 11 4.25 8 4.25Z" stroke="white"/>
<path d="M9.5 8C9.5 8.82843 8.82843 9.5 8 9.5C7.17157 9.5 6.5 8.82843 6.5 8C6.5 7.17157 7.17157 6.5 8 6.5C8.82843 6.5 9.5 7.17157 9.5 8Z" stroke="white"/>
<path d="M4 2H2.5C2.22386 2 2 2.22386 2 2.5V4M12 2H13.5C13.7761 2 14 2.22386 14 2.5V4M2 12V13.5C2 13.7761 2.22386 14 2.5 14H4M12 14H13.5C13.7761 14 14 13.7761 14 13.5V12" stroke="white" stroke-linecap="round" stroke-linejoin="round"/>
</svg>
