<svg width="16" height="16" viewBox="0 0 16 16" fill="none" xmlns="http://www.w3.org/2000/svg">
<path d="M8 14.5C9.79493 14.5 11.4199 13.7725 12.5962 12.5962C13.7725 11.4199 14.5 9.79493 14.5 8C14.5 6.20507 13.7725 4.58007 12.5962 3.40381C11.4199 2.22754 9.79493 1.5 8 1.5C6.20507 1.5 4.58007 2.22754 3.40381 3.40381C2.22754 4.58007 1.5 6.20507 1.5 8C1.5 9.79493 2.22754 11.4199 3.40381 12.5962C4.58007 13.7725 6.20507 14.5 8 14.5Z" stroke="#8D92A1" stroke-linejoin="round"/>
<path d="M7.99995 9.40652V9.08139C7.99995 8.63957 8.37751 8.29763 8.77046 8.09564C9.31508 7.81568 9.68764 7.2482 9.68764 6.5937C9.68764 5.66161 8.93204 4.90601 7.99995 4.90601C7.06786 4.90601 6.31226 5.66161 6.31226 6.5937" stroke="#8D92A1" stroke-linecap="round" stroke-linejoin="round"/>
<rect x="7.625" y="10.975" width="0.75" height="0.75" rx="0.375" stroke="#8D92A1" stroke-width="0.75"/>
</svg>
