<svg width="16" height="16" viewBox="0 0 16 16" fill="none" xmlns="http://www.w3.org/2000/svg">
<path d="M8.0001 14.4001C11.5347 14.4001 14.4001 11.5347 14.4001 8.0001C14.4001 4.46547 11.5347 1.6001 8.0001 1.6001C4.46547 1.6001 1.6001 4.46547 1.6001 8.0001C1.6001 11.5347 4.46547 14.4001 8.0001 14.4001Z" fill="#0FD683"/>
<path fill-rule="evenodd" clip-rule="evenodd" d="M7.17892 10.1534C7.28381 10.1553 7.38932 10.1163 7.46935 10.0363L10.6938 6.81188C10.85 6.65567 10.85 6.4024 10.6938 6.24619L10.4109 5.96335C10.2547 5.80714 10.0014 5.80714 9.84523 5.96335L7.17245 8.63613L6.15538 7.61907C5.99917 7.46286 5.74591 7.46286 5.5897 7.61907L5.30685 7.90191C5.15064 8.05812 5.15064 8.31138 5.30685 8.46759L6.87597 10.0367C6.9592 10.1199 7.06996 10.1588 7.17892 10.1534Z" fill="white"/>
</svg>
