<svg width="16" height="16" viewBox="0 0 16 16" fill="none" xmlns="http://www.w3.org/2000/svg">
<path d="M7.99998 14.4001C11.5346 14.4001 14.4 11.5347 14.4 8.0001C14.4 4.46548 11.5346 1.6001 7.99998 1.6001C4.46535 1.6001 1.59998 4.46548 1.59998 8.0001C1.59998 11.5347 4.46535 14.4001 7.99998 14.4001Z" fill="#FFB54C"/>
<path fill-rule="evenodd" clip-rule="evenodd" d="M8.68031 4.96055C8.68031 4.73963 8.50123 4.56055 8.28031 4.56055L7.72031 4.56055C7.4994 4.56055 7.32031 4.73963 7.32031 4.96055V5.52055C7.32031 5.74146 7.4994 5.92055 7.72031 5.92055H8.28031C8.50123 5.92055 8.68031 5.74146 8.68031 5.52055V4.96055ZM8.68031 7.24023C8.68031 7.01932 8.50123 6.84023 8.28031 6.84023H7.72031C7.4994 6.84023 7.32031 7.01932 7.32031 7.24023V11.0002C7.32031 11.2211 7.4994 11.4002 7.72031 11.4002H8.28031C8.50123 11.4002 8.68031 11.2211 8.68031 11.0002L8.68031 7.24023Z" fill="white"/>
</svg>
