<svg width="20" height="20" viewBox="0 0 20 20" fill="none" xmlns="http://www.w3.org/2000/svg">
<rect x="0.5" y="0.5" width="19" height="19" rx="9.5" fill="#4C6AFF"/>
<path d="M12.9581 13.0909H9.12721L12.2581 9.18364C12.7163 8.62364 12.9836 7.94909 12.9963 7.24909V7.16C12.9708 6.35818 12.6527 5.62 12.0927 5.06C11.5199 4.48727 10.769 4.18182 9.97994 4.16909C9.15267 4.15636 8.3763 4.46182 7.79085 5.04727C7.20539 5.62 6.87449 6.39636 6.87449 7.22364H8.54176C8.54176 6.84182 8.68176 6.49818 8.94903 6.23091C9.2163 5.96364 9.57267 5.82364 9.95448 5.82364C10.7054 5.83636 11.3163 6.44727 11.329 7.19818V7.23636C11.329 7.54182 11.2145 7.84727 10.9981 8.10182L6.91267 13.0909V14.7455H12.9581V13.0909Z" fill="white"/>
<rect x="0.5" y="0.5" width="19" height="19" rx="9.5" stroke="#4C6AFF"/>
</svg>
