<svg width="57" height="56" viewBox="0 0 57 56" fill="none" xmlns="http://www.w3.org/2000/svg">
<path fill-rule="evenodd" clip-rule="evenodd" d="M28.5 0C43.964 0 56.5 12.536 56.5 28C56.5 43.464 43.964 56 28.5 56C13.036 56 0.5 43.464 0.5 28C0.5 12.536 13.036 0 28.5 0Z" fill="#E7FBF3"/>
<path fill-rule="evenodd" clip-rule="evenodd" d="M39.0422 19.5174L40.4721 20.7173C41.2622 21.3795 41.3652 22.557 40.7026 23.3467C40.7024 23.3468 40.7023 23.347 40.7018 23.3468L28.2176 38.2166C27.5545 39.0057 26.3773 39.1085 25.5874 38.4464L22.7275 36.0466L36.412 19.7472C37.0751 18.9581 38.2523 18.8552 39.0422 19.5174Z" fill="#0FD683"/>
<path fill-rule="evenodd" clip-rule="evenodd" d="M17.9365 29.3838L19.189 27.9928C19.868 27.2387 21.0249 27.1651 21.7939 27.827L30.5741 35.3841L28.1852 38.2584C27.5263 39.0513 26.3494 39.1599 25.5565 38.5009C25.5467 38.4928 25.537 38.4846 25.5274 38.4763L18.1016 32.0438C17.3223 31.3688 17.2378 30.1899 17.9128 29.4106C17.9206 29.4016 17.9286 29.3927 17.9365 29.3838Z" fill="#0FD683"/>
</svg>
