<svg width="16" height="16" viewBox="0 0 16 16" fill="none" xmlns="http://www.w3.org/2000/svg">
<g clip-path="url(#clip0_988_21452)">
<path d="M8.67188 4.81074L6.40721 6.66408H4.00521V9.33074H6.40721L8.67188 11.1841V4.81074ZM5.93121 10.6641H3.33854C3.16173 10.6641 2.99216 10.5938 2.86714 10.4688C2.74211 10.3438 2.67188 10.1742 2.67188 9.99741V5.99741C2.67188 5.8206 2.74211 5.65103 2.86714 5.52601C2.99216 5.40098 3.16173 5.33074 3.33854 5.33074H5.93121L9.46054 2.44274C9.50938 2.40271 9.56858 2.37737 9.63125 2.36967C9.69393 2.36198 9.7575 2.37224 9.81457 2.39928C9.87164 2.42631 9.91986 2.46899 9.95361 2.52237C9.98736 2.57574 10.0053 2.6376 10.0052 2.70074V13.2941C10.0053 13.3572 9.98736 13.4191 9.95361 13.4725C9.91986 13.5258 9.87164 13.5685 9.81457 13.5955C9.7575 13.6226 9.69393 13.6328 9.63125 13.6251C9.56858 13.6175 9.50938 13.5921 9.46054 13.5521L5.93188 10.6641H5.93121ZM12.5805 11.0581L11.6325 10.1101C11.9562 9.86121 12.2183 9.54123 12.3985 9.1749C12.5787 8.80856 12.6722 8.40568 12.6719 7.99741C12.6719 7.04408 12.1719 6.20741 11.4185 5.73608L12.3779 4.77674C12.8828 5.1482 13.2933 5.63331 13.576 6.19282C13.8587 6.75233 14.0057 7.37053 14.0052 7.99741C14.0052 9.22541 13.4519 10.3241 12.5805 11.0581Z" fill="#4C6AFF"/>
</g>
<defs>
<clipPath id="clip0_988_21452">
<rect width="16" height="16" fill="white"/>
</clipPath>
</defs>
</svg>
