<svg width="16" height="16" fill="none" xmlns="http://www.w3.org/2000/svg">
    <path d="M4.987 10.63a.5.5 0 0 0-.32-.116h-2.69a.5.5 0 0 1-.5-.5V5.986a.5.5 0 0 1 .5-.5h2.69a.5.5 0 0 0 .32-.115l2.671-2.22a.5.5 0 0 1 .82.384v8.93a.5.5 0 0 1-.82.385l-2.67-2.22Z" fill="#4C6AFF"/>
    <path d="M11.005 5.172a3.933 3.933 0 0 1 0 5.657M12.522 3.5c2.667 2.485 2.667 6.515 0 9M1.978 10.514h2.69a.5.5 0 0 1 .32.116l2.67 2.22a.5.5 0 0 0 .82-.385v-8.93a.5.5 0 0 0-.82-.384l-2.67 2.22a.5.5 0 0 1-.32.115h-2.69a.5.5 0 0 0-.5.5v4.028a.5.5 0 0 0 .5.5Z" stroke="#4C6AFF" stroke-linecap="round"/>
</svg>
