<svg width="14" height="14" viewBox="0 0 14 14" fill="none" xmlns="http://www.w3.org/2000/svg">
<g id="&#231;&#188;&#150;&#231;&#187;&#132;">
<path id="Oval Copy" d="M7 13.5C8.79493 13.5 10.4199 12.7725 11.5962 11.5962C12.7725 10.4199 13.5 8.79493 13.5 7C13.5 5.20507 12.7725 3.58007 11.5962 2.40381C10.4199 1.22754 8.79493 0.5 7 0.5C5.20507 0.5 3.58007 1.22754 2.40381 2.40381C1.22754 3.58007 0.5 5.20507 0.5 7C0.5 8.79493 1.22754 10.4199 2.40381 11.5962C3.58007 12.7725 5.20507 13.5 7 13.5Z" stroke="#8D92A1" stroke-linejoin="round"/>
<g id="Group 4">
<path id="Shape" d="M7.00001 8.40677V8.08164C7.00001 7.63981 7.37757 7.29788 7.77052 7.09588C8.31514 6.81592 8.68771 6.24844 8.68771 5.59394C8.68771 4.66186 7.9321 3.90625 7.00001 3.90625C6.06792 3.90625 5.31232 4.66186 5.31232 5.59394" stroke="#8D92A1" stroke-linecap="round" stroke-linejoin="round"/>
<path id="Oval" fill-rule="evenodd" clip-rule="evenodd" d="M7.00005 10.9982C7.38625 10.9982 7.69932 10.6851 7.69932 10.2989C7.69932 9.91268 7.38625 9.59961 7.00005 9.59961C6.61386 9.59961 6.30078 9.91268 6.30078 10.2989C6.30078 10.6851 6.61386 10.9982 7.00005 10.9982Z" fill="#8D92A1"/>
</g>
</g>
</svg>
