<svg width="20" height="18" viewBox="0 0 20 18" fill="none" xmlns="http://www.w3.org/2000/svg">
<path d="M7.84641 13.2473C7.86241 13.2633 7.87841 13.2713 7.90241 13.2793C8.15841 13.4153 8.47041 13.3193 8.60641 13.0713L9.22241 11.9273C9.23841 11.9033 9.24641 11.8793 9.25441 11.8473C9.35041 11.5913 9.23841 11.3113 9.01441 11.1753C9.01441 11.1753 9.00641 11.1753 9.00641 11.1673C8.98241 11.1513 8.95041 11.1353 8.91841 11.1273C7.56641 10.4873 6.73441 9.62331 6.43041 8.53531C6.40641 8.44731 6.45441 8.35131 6.54241 8.32731C6.55841 8.32731 6.57441 8.31931 6.59041 8.31931H8.56641C9.11841 8.31931 9.56641 7.87131 9.56641 7.31931V3.69531C9.56641 3.14331 9.11841 2.69531 8.56641 2.69531H5.07041C4.51841 2.69531 4.07041 3.14331 4.07041 3.69531V8.31931C4.07841 9.32731 5.07841 11.4873 7.84641 13.2473Z" fill="#B7C3FF"/>
<path d="M14.8241 13.2793C14.8001 13.2713 14.7841 13.2633 14.7681 13.2473C12.0001 11.4873 11.0001 9.32731 11.0001 8.31931V3.69531C11.0001 3.14331 11.4481 2.69531 12.0001 2.69531H15.4961C16.0481 2.69531 16.4961 3.14331 16.4961 3.69531V7.31131C16.4961 7.86331 16.0481 8.31131 15.4961 8.31131H13.5121C13.4961 8.31131 13.4801 8.31931 13.4641 8.31931C13.3761 8.34331 13.3281 8.43931 13.3521 8.52731C13.6561 9.61531 14.4881 10.4793 15.8401 11.1193C15.8721 11.1273 15.9041 11.1433 15.9281 11.1593C15.9281 11.1673 15.9361 11.1673 15.9361 11.1673C16.1601 11.3033 16.2721 11.5833 16.1761 11.8393C16.1681 11.8713 16.1601 11.8953 16.1441 11.9193L15.5281 13.0713C15.3921 13.3193 15.0801 13.4153 14.8241 13.2793Z" fill="#B7C3FF"/>
</svg>
