<svg width="16" height="20" viewBox="0 0 16 20" fill="none" xmlns="http://www.w3.org/2000/svg">
<path d="M16 10C16 11.9852 15.2769 13.8016 14.0797 15.2C13.9095 15.6869 14.0651 16.4701 14.4384 17.1439C14.6351 17.4988 14.3616 18.2 13.9559 18.2H8.2C3.78172 18.2 0 14.4183 0 10C0 5.58172 3.58172 2 8 2C12.4183 2 16 5.58172 16 10Z" fill="#7088FF"/>
<path d="M7.644 5.264C8.952 5.264 9.984 5.684 10.74 6.536C11.46 7.34 11.82 8.408 11.82 9.728C11.82 11.012 11.472 12.056 10.8 12.848C11.112 13.256 11.436 13.688 11.748 14.144L10.836 14.936C10.512 14.468 10.2 14.024 9.888 13.616C9.264 13.976 8.508 14.168 7.644 14.168C6.324 14.168 5.292 13.736 4.548 12.896C3.828 12.08 3.48 11.024 3.48 9.728C3.48 8.42 3.828 7.364 4.548 6.548C5.292 5.684 6.324 5.264 7.644 5.264ZM7.644 6.5C6.756 6.5 6.072 6.8 5.58 7.4C5.112 7.976 4.884 8.744 4.884 9.728C4.884 10.7 5.112 11.468 5.58 12.044C6.06 12.632 6.756 12.932 7.644 12.932C8.208 12.932 8.688 12.812 9.096 12.584C8.664 12.056 8.256 11.588 7.86 11.168L8.676 10.376C9.096 10.82 9.516 11.288 9.924 11.768C10.236 11.24 10.404 10.556 10.404 9.728C10.404 8.72 10.164 7.928 9.696 7.352C9.216 6.776 8.532 6.5 7.644 6.5Z" fill="white"/>
</svg>
