<svg width="16" height="16" viewBox="0 0 16 16" fill="none" xmlns="http://www.w3.org/2000/svg">
<g clip-path="url(#clip0_8856_83609)">
<circle cx="5.05281" cy="5.05281" r="4.21053" fill="#EED9FF"/>
<path d="M3.70467 4.17503H3.1573V4.40465L3.32113 4.56555L3.70467 4.17503ZM8.81344 9.19257L8.4299 9.58309C8.64325 9.79263 8.98529 9.79216 9.19806 9.58203L8.81344 9.19257ZM2.94678 7.48731C2.64447 7.48731 2.39941 7.73237 2.39941 8.03468C2.39941 8.33698 2.64447 8.58205 2.94678 8.58205V7.48731ZM5.05204 8.58205C5.35434 8.58205 5.59941 8.33698 5.59941 8.03468C5.59941 7.73237 5.35434 7.48731 5.05204 7.48731V8.58205ZM2.94678 9.97854C2.64447 9.97854 2.39941 10.2236 2.39941 10.5259C2.39941 10.8282 2.64447 11.0733 2.94678 11.0733V9.97854ZM6.73625 11.0733C7.03855 11.0733 7.28362 10.8282 7.28362 10.5259C7.28362 10.2236 7.03855 9.97854 6.73625 9.97854V11.0733ZM4.09064 4.33643H13.8941V3.24169H4.09064V4.33643ZM13.7678 4.21012V12.6312H14.8626V4.21012H13.7678ZM13.8941 12.5049H4.12572V13.5996H13.8941V12.5049ZM4.25204 12.6312V12.5049H3.1573V12.6312H4.25204ZM3.32113 4.56555L8.4299 9.58309L9.19699 8.80205L4.08822 3.78451L3.32113 4.56555ZM9.19806 9.58203L14.2788 4.56449L13.5095 3.78557L8.42882 8.80311L9.19806 9.58203ZM2.94678 8.58205H5.05204V7.48731H2.94678V8.58205ZM2.94678 11.0733H6.73625V9.97854H2.94678V11.0733ZM4.12572 12.5049C4.19549 12.5049 4.25204 12.5614 4.25204 12.6312H3.1573C3.1573 13.166 3.59088 13.5996 4.12572 13.5996V12.5049ZM13.7678 12.6312C13.7678 12.5614 13.8244 12.5049 13.8941 12.5049V13.5996C14.429 13.5996 14.8626 13.166 14.8626 12.6312H13.7678ZM13.8941 4.33643C13.8244 4.33643 13.7678 4.27988 13.7678 4.21012H14.8626C14.8626 3.67527 14.429 3.24169 13.8941 3.24169V4.33643ZM4.09064 3.24169C3.57517 3.24169 3.1573 3.65956 3.1573 4.17503H4.25204C4.25204 4.26417 4.17978 4.33643 4.09064 4.33643V3.24169Z" fill="#263789"/>
</g>
<defs>
<clipPath id="clip0_8856_83609">
<rect width="16" height="16" fill="white"/>
</clipPath>
</defs>
</svg>
