<svg width="16" height="16" viewBox="0 0 16 16" fill="none" xmlns="http://www.w3.org/2000/svg">
<g clip-path="url(#clip0_8856_83623)">
<circle cx="5.05281" cy="5.05281" r="4.21053" fill="#FDDADF"/>
<path fill-rule="evenodd" clip-rule="evenodd" d="M4.21012 2.82031C3.67527 2.82031 3.2417 3.25389 3.2417 3.78873V13.0519C3.2417 13.5867 3.67528 14.0203 4.21012 14.0203H8.42065H12.6312C13.166 14.0203 13.5996 13.5867 13.5996 13.0519V3.78873C13.5996 3.25389 13.166 2.82031 12.6312 2.82031H4.21012ZM4.33644 12.9256V3.91505H12.5049V12.9256H8.42065H4.33644ZM5.89433 5.34663C5.59203 5.34663 5.34696 5.59169 5.34696 5.894C5.34696 6.1963 5.59203 6.44137 5.89433 6.44137H10.947C11.2493 6.44137 11.4943 6.1963 11.4943 5.894C11.4943 5.59169 11.2493 5.34663 10.947 5.34663H5.89433ZM5.89433 7.87294C5.59203 7.87294 5.34696 8.11801 5.34696 8.42031C5.34696 8.72262 5.59203 8.96768 5.89433 8.96768H8.8417C9.144 8.96768 9.38907 8.72262 9.38907 8.42031C9.38907 8.11801 9.144 7.87294 8.8417 7.87294H5.89433Z" fill="#263789"/>
</g>
<defs>
<clipPath id="clip0_8856_83623">
<rect width="16" height="16" fill="white"/>
</clipPath>
</defs>
</svg>
