<svg width="17" height="17" viewBox="0 0 17 17" fill="none" xmlns="http://www.w3.org/2000/svg">
<rect x="0.00390625" y="0.00390625" width="16" height="16" rx="8" fill="#D6E6FC"/>
<path d="M8.10586 4.22391C8.76586 4.22391 9.30586 4.41391 9.73586 4.79391C10.1559 5.17391 10.3759 5.68391 10.3759 6.30391C10.3759 6.92391 10.1359 7.48391 9.67586 7.98391C9.42586 8.24391 8.93586 8.63391 8.19586 9.13391C7.28586 9.74391 6.76586 10.2939 6.63586 10.7739H10.3859V11.5039H5.62586C5.62586 10.8539 5.85586 10.2639 6.33586 9.73391C6.61586 9.41391 7.12586 8.98391 7.88586 8.46391C8.44586 8.06391 8.81586 7.77391 9.00586 7.57391C9.36586 7.18391 9.55586 6.75391 9.55586 6.29391C9.55586 5.85391 9.42586 5.52391 9.16586 5.28391C8.90586 5.04391 8.53586 4.92391 8.07586 4.92391C7.58586 4.92391 7.20586 5.08391 6.94586 5.42391C6.66586 5.74391 6.51586 6.22391 6.50586 6.85391H5.68586C5.68586 6.05391 5.91586 5.41391 6.35586 4.94391C6.79586 4.46391 7.38586 4.22391 8.10586 4.22391Z" fill="#272E47"/>
</svg>
