<svg width="16" height="16" viewBox="0 0 16 16" fill="none" xmlns="http://www.w3.org/2000/svg">
<rect width="16" height="16" rx="8" fill="#B7C3FF"/>
<path d="M8.07195 4.22C8.75195 4.22 9.31195 4.39 9.73195 4.74C10.142 5.09 10.352 5.56 10.352 6.16C10.352 6.96 9.96195 7.5 9.18195 7.76C9.60195 7.89 9.92195 8.09 10.142 8.37C10.382 8.65 10.502 9 10.502 9.42C10.502 10.07 10.272 10.6 9.82195 11.01C9.36195 11.43 8.76195 11.64 8.02195 11.64C7.34195 11.64 6.79195 11.46 6.36195 11.12C5.85195 10.7 5.57195 10.09 5.51195 9.29H6.34195C6.36195 9.85 6.55195 10.28 6.90195 10.57C7.20195 10.81 7.57195 10.94 8.02195 10.94C8.53195 10.94 8.94195 10.79 9.25195 10.5C9.53195 10.22 9.68195 9.87 9.68195 9.45C9.68195 9.02 9.54195 8.69 9.26195 8.45C8.98195 8.21 8.60195 8.1 8.10195 8.1H7.52195V7.46H8.07195C8.55195 7.46 8.91195 7.35 9.16195 7.14C9.41195 6.92 9.54195 6.61 9.54195 6.21C9.54195 5.81 9.41195 5.5 9.17195 5.28C8.91195 5.04 8.54195 4.93 8.08195 4.93C7.60195 4.93 7.23195 5.05 6.96195 5.31C6.68195 5.57 6.52195 5.94 6.47195 6.42H5.66195C5.72195 5.73 5.98195 5.19 6.42195 4.8C6.84195 4.41 7.39195 4.22 8.07195 4.22Z" fill="#272E47"/>
</svg>
