<svg width="16" height="16" viewBox="0 0 16 16" fill="none" xmlns="http://www.w3.org/2000/svg">
<rect x="0.00390625" width="16" height="16" rx="2" fill="#FFDEDB"/>
<path d="M8.51883 2.08714L12.5877 6.74974C12.62 6.78659 12.641 6.83196 12.6481 6.88043C12.6553 6.92889 12.6483 6.97839 12.6281 7.02299C12.6078 7.0676 12.5752 7.10543 12.534 7.13195C12.4928 7.15846 12.4448 7.17255 12.3958 7.17252H10.3959C10.3344 7.17199 10.2749 7.19395 10.2285 7.23427C10.1821 7.27459 10.152 7.33047 10.144 7.39141C9.99407 8.47685 9.08854 13.2774 4.80075 13.988C4.74475 13.9988 4.68674 13.9905 4.636 13.9645C4.58527 13.9384 4.54474 13.8961 4.5209 13.8443C4.49706 13.7924 4.4913 13.7341 4.50453 13.6787C4.51775 13.6232 4.54921 13.5737 4.59386 13.5382C5.32848 12.9625 6.28798 11.8471 6.55785 9.86213C6.66145 9.05575 6.71153 8.24339 6.70777 7.43039C6.70779 7.36223 6.68113 7.29677 6.63349 7.24802C6.58586 7.19926 6.52104 7.17109 6.4529 7.16952H4.25503C4.20605 7.16955 4.15809 7.15547 4.1169 7.12895C4.07571 7.10243 4.04304 7.0646 4.02279 7.01999C4.00254 6.97539 3.99558 6.92589 4.00273 6.87743C4.00989 6.82897 4.03086 6.78359 4.06313 6.74674L8.13503 2.08714C8.15895 2.05977 8.18845 2.03784 8.22155 2.02281C8.25465 2.00778 8.29058 2 8.32693 2C8.36328 2 8.39921 2.00778 8.43231 2.02281C8.46541 2.03784 8.49491 2.05977 8.51883 2.08714Z" fill="#FE5B4C"/>
</svg>
