<svg width="17" height="16" viewBox="0 0 17 16" fill="none" xmlns="http://www.w3.org/2000/svg">
<rect x="0.00390625" width="16" height="16" rx="8" fill="#D6E6FC"/>
<path d="M8.07586 4.22C8.75586 4.22 9.31586 4.39 9.73586 4.74C10.1459 5.09 10.3559 5.56 10.3559 6.16C10.3559 6.96 9.96586 7.5 9.18586 7.76C9.60586 7.89 9.92586 8.09 10.1459 8.37C10.3859 8.65 10.5059 9 10.5059 9.42C10.5059 10.07 10.2759 10.6 9.82586 11.01C9.36586 11.43 8.76586 11.64 8.02586 11.64C7.34586 11.64 6.79586 11.46 6.36586 11.12C5.85586 10.7 5.57586 10.09 5.51586 9.29H6.34586C6.36586 9.85 6.55586 10.28 6.90586 10.57C7.20586 10.81 7.57586 10.94 8.02586 10.94C8.53586 10.94 8.94586 10.79 9.25586 10.5C9.53586 10.22 9.68586 9.87 9.68586 9.45C9.68586 9.02 9.54586 8.69 9.26586 8.45C8.98586 8.21 8.60586 8.1 8.10586 8.1H7.52586V7.46H8.07586C8.55586 7.46 8.91586 7.35 9.16586 7.14C9.41586 6.92 9.54586 6.61 9.54586 6.21C9.54586 5.81 9.41586 5.5 9.17586 5.28C8.91586 5.04 8.54586 4.93 8.08586 4.93C7.60586 4.93 7.23586 5.05 6.96586 5.31C6.68586 5.57 6.52586 5.94 6.47586 6.42H5.66586C5.72586 5.73 5.98586 5.19 6.42586 4.8C6.84586 4.41 7.39586 4.22 8.07586 4.22Z" fill="#272E47"/>
</svg>
