<svg width="16" height="16" viewBox="0 0 16 16" fill="none" xmlns="http://www.w3.org/2000/svg">
<rect width="16" height="16" rx="8" fill="#B7C3FF"/>
<path d="M8.10195 4.22C8.76195 4.22 9.30195 4.41 9.73195 4.79C10.152 5.17 10.372 5.68 10.372 6.3C10.372 6.92 10.132 7.48 9.67195 7.98C9.42195 8.24 8.93195 8.63 8.19195 9.13C7.28195 9.74 6.76195 10.29 6.63195 10.77H10.382V11.5H5.62195C5.62195 10.85 5.85195 10.26 6.33195 9.73C6.61195 9.41 7.12195 8.98 7.88195 8.46C8.44195 8.06 8.81195 7.77 9.00195 7.57C9.36195 7.18 9.55195 6.75 9.55195 6.29C9.55195 5.85 9.42195 5.52 9.16195 5.28C8.90195 5.04 8.53195 4.92 8.07195 4.92C7.58195 4.92 7.20195 5.08 6.94195 5.42C6.66195 5.74 6.51195 6.22 6.50195 6.85H5.68195C5.68195 6.05 5.91195 5.41 6.35195 4.94C6.79195 4.46 7.38195 4.22 8.10195 4.22Z" fill="#272E47"/>
</svg>
