<svg width="24" height="24" viewBox="0 0 24 24" fill="none" xmlns="http://www.w3.org/2000/svg">
<path d="M21 12C21.5523 12 22.0052 12.4488 21.95 12.9984C21.787 14.6234 21.2277 16.1893 20.3147 17.5557C19.2159 19.2002 17.6541 20.4819 15.8268 21.2388C13.9996 21.9957 11.9889 22.1937 10.0491 21.8079C8.10929 21.422 6.32746 20.4696 4.92893 19.0711C3.53041 17.6725 2.578 15.8907 2.19215 13.9509C1.80629 12.0111 2.00433 10.0004 2.7612 8.17317C3.51808 6.3459 4.79981 4.78412 6.4443 3.6853C7.8107 2.7723 9.37656 2.213 11.0016 2.04995C11.5512 1.99482 12 2.44772 12 3V11C12 11.5523 12.4477 12 13 12H21Z" fill="white"/>
<path d="M22.6001 10.3999C23.1524 10.3999 23.6053 9.95109 23.5501 9.40156C23.4527 8.43082 23.2136 7.47773 22.8389 6.57307C22.3363 5.35981 21.5998 4.25742 20.6712 3.32883C19.7426 2.40025 18.6402 1.66365 17.4269 1.16111C16.5223 0.786384 15.5692 0.547261 14.5984 0.449861C14.0489 0.394724 13.6001 0.847618 13.6001 1.3999V9.3999C13.6001 9.95219 14.0478 10.3999 14.6001 10.3999H22.6001Z" fill="white"/>
</svg>
