<svg width="24" height="24" viewBox="0 0 24 24" fill="none" xmlns="http://www.w3.org/2000/svg">
<g opacity="0.6">
<path fill-rule="evenodd" clip-rule="evenodd" d="M3.5 3C2.39543 3 1.5 3.89543 1.5 5V19C1.5 20.1046 2.39543 21 3.5 21H20.5C21.6046 21 22.5 20.1046 22.5 19V5C22.5 3.89543 21.6046 3 20.5 3H3.5ZM19.1247 8.99976C19.4007 8.65475 19.3448 8.15131 18.9998 7.87531C18.6547 7.5993 18.1513 7.65523 17.8753 8.00024L14.3121 12.4543L9.9116 9.81401C9.56824 9.60799 9.12545 9.68757 8.87531 10.0002L4.8753 15.0002C4.5993 15.3453 4.65523 15.8487 5.00024 16.1247C5.34525 16.4007 5.84869 16.3448 6.12469 15.9998L9.68793 11.5457L14.0884 14.186C14.4318 14.392 14.8746 14.3124 15.1247 13.9998L19.1247 8.99976Z" fill="white"/>
</g>
</svg>
