<svg width="20" height="17" viewBox="0 0 20 17" fill="none" xmlns="http://www.w3.org/2000/svg">
<path fill-rule="evenodd" clip-rule="evenodd" d="M7.49997 7.74996C9.57103 7.74996 11.25 6.07104 11.25 3.99997C11.25 1.92891 9.57103 0.249979 7.49997 0.249979C5.4289 0.249979 3.74997 1.92891 3.74997 3.99997C3.74997 6.07104 5.4289 7.74996 7.49997 7.74996ZM4.99997 8.99996C2.23855 8.99996 -1.90734e-05 11.2385 -1.90734e-05 14V15.25C-1.90734e-05 15.9403 0.559624 16.4999 1.24998 16.4999H13.75C14.4403 16.4999 15 15.9403 15 15.25V14C15 11.2385 12.7614 8.99996 9.99996 8.99996H4.99997Z" fill="white"/>
<path fill-rule="evenodd" clip-rule="evenodd" d="M10.625 7.24828C11.1765 7.56735 11.8169 7.74996 12.5 7.74996C14.571 7.74996 16.25 6.07104 16.25 3.99997C16.25 1.92891 14.571 0.249979 12.5 0.249979C11.8169 0.249979 11.1765 0.432592 10.625 0.751661C11.7458 1.40005 12.5 2.61194 12.5 3.99997C12.5 5.388 11.7458 6.59989 10.625 7.24828ZM15 16.4999H18.7499C19.4403 16.4999 19.9999 15.9403 19.9999 15.2499V14C19.9999 11.2385 17.7614 8.99996 15 8.99996H11.25C14.0114 8.99996 16.25 11.2385 16.25 14V15.2499C16.25 15.9403 15.6903 16.4999 15 16.4999Z" fill="white"/>
</svg>
