<svg width="16" height="16" viewBox="0 0 16 16" fill="none" xmlns="http://www.w3.org/2000/svg">
<path d="M7.55402 1.75137L1.66735 4.46203C1.47993 4.54835 1.32157 4.68717 1.21145 4.86167C1.10134 5.03617 1.0442 5.23887 1.04697 5.44519C1.04974 5.65151 1.11229 5.8526 1.22704 6.02409C1.34179 6.19558 1.50382 6.33011 1.69348 6.41137L7.58015 8.93323C7.71287 8.99009 7.85576 9.0194 8.00015 9.0194C8.14454 9.0194 8.28742 8.99009 8.42015 8.93323L14.3071 6.41057C14.4967 6.32928 14.6587 6.19473 14.7735 6.02323C14.8882 5.85173 14.9507 5.65063 14.9535 5.4443C14.9562 5.23798 14.899 5.0353 14.7889 4.86081C14.6788 4.68632 14.5204 4.54752 14.3329 4.46123L8.44628 1.7511C8.30638 1.68668 8.15418 1.65332 8.00015 1.65332C7.84612 1.65332 7.69392 1.68668 7.55402 1.7511V1.75137ZM2.11348 5.43083L8.00015 2.72017L13.8868 5.4303L8.00015 7.95297L2.11348 5.43057V5.43083Z" fill="#6F7485"/>
<path d="M12.5323 6.39985C12.6668 6.39981 12.7964 6.45062 12.8951 6.54211C12.9938 6.63361 13.0542 6.75901 13.0643 6.89318L13.0656 6.93318V11.2481C13.0657 11.436 13.0161 11.6206 12.9219 11.7832C12.8276 11.9458 12.6921 12.0806 12.5291 12.174L12.4784 12.2012L8.47895 14.2137C8.33971 14.2838 8.1868 14.3225 8.03098 14.3271C7.87516 14.3317 7.72023 14.3021 7.57709 14.2404L7.52002 14.2137L3.52055 12.2012C3.35269 12.1167 3.21013 11.9894 3.10729 11.8321C3.00446 11.6748 2.94501 11.4931 2.93495 11.3054L2.93335 11.2481V6.93318C2.93274 6.79479 2.98594 6.66157 3.08172 6.56167C3.17751 6.46178 3.30837 6.40303 3.44667 6.39784C3.58497 6.39264 3.71987 6.44142 3.82288 6.53385C3.92589 6.62628 3.98893 6.75513 3.99869 6.89318L4.00002 6.93318V11.2481L7.99949 13.2609L11.999 11.2481V6.93318C11.999 6.86314 12.0128 6.79379 12.0396 6.72908C12.0664 6.66438 12.1056 6.60558 12.1552 6.55606C12.2047 6.50653 12.2635 6.46725 12.3282 6.44045C12.3929 6.41364 12.4622 6.39985 12.5323 6.39985Z" fill="#6F7485"/>
<path d="M14.8001 7.06641V9.67014C14.8001 10.0355 14.5937 10.3696 14.2667 10.5331C14.2105 10.5612 14.1481 10.5744 14.0854 10.5716C14.0226 10.5688 13.9616 10.55 13.9082 10.5169C13.8548 10.4839 13.8106 10.4378 13.7801 10.3829C13.7495 10.3281 13.7334 10.2663 13.7334 10.2035V7.59974L14.8001 7.06641Z" fill="#6F7485"/>
</svg>
