<svg width="16" height="16" viewBox="0 0 16 16" fill="none" xmlns="http://www.w3.org/2000/svg">
<g clip-path="url(#clip0_2918_46043)">
<path d="M11.7713 9.88469L10.8287 8.94202L11.7713 7.99935C12.019 7.75172 12.2154 7.45774 12.3494 7.1342C12.4834 6.81066 12.5524 6.46389 12.5524 6.11369C12.5524 5.76348 12.4834 5.41671 12.3494 5.09317C12.2154 4.76963 12.019 4.47565 11.7713 4.22802C11.5237 3.98039 11.2297 3.78396 10.9062 3.64994C10.5826 3.51593 10.2359 3.44695 9.88568 3.44695C9.53547 3.44695 9.1887 3.51593 8.86516 3.64994C8.54162 3.78396 8.24764 3.98039 8.00001 4.22802L7.05734 5.17068L6.11468 4.22802L7.05734 3.28535C7.80955 2.5453 8.82372 2.13246 9.87893 2.13675C10.9341 2.14105 11.9449 2.56214 12.6911 3.30829C13.4372 4.05445 13.8583 5.06522 13.8626 6.12043C13.8669 7.17565 13.4541 8.18981 12.714 8.94202L11.7713 9.88469ZM9.88534 11.7707L8.94268 12.7134C8.57236 13.0898 8.13118 13.3891 7.64459 13.5942C7.15799 13.7992 6.63562 13.9059 6.1076 13.908C5.57957 13.9102 5.05635 13.8078 4.5681 13.6067C4.07986 13.4056 3.63625 13.1099 3.26288 12.7365C2.88951 12.3631 2.59376 11.9195 2.39268 11.4313C2.19161 10.943 2.08919 10.4198 2.09134 9.89176C2.09349 9.36374 2.20017 8.84137 2.40521 8.35478C2.61025 7.86818 2.90961 7.427 3.28601 7.05669L4.22868 6.11402L5.17134 7.05669L4.22868 7.99935C3.98105 8.24698 3.78462 8.54096 3.6506 8.8645C3.51658 9.18805 3.44761 9.53482 3.44761 9.88502C3.44761 10.2352 3.51658 10.582 3.6506 10.9055C3.78462 11.2291 3.98105 11.5231 4.22868 11.7707C4.47631 12.0183 4.77028 12.2147 5.09383 12.3488C5.41737 12.4828 5.76414 12.5518 6.11434 12.5518C6.46454 12.5518 6.81131 12.4828 7.13486 12.3488C7.4584 12.2147 7.75238 12.0183 8.00001 11.7707L8.94268 10.828L9.88534 11.7707ZM9.88534 5.17068L10.8287 6.11402L6.11468 10.8274L5.17134 9.88469L9.88534 5.17135V5.17068Z" fill="#939CAD"/>
</g>
<defs>
<clipPath id="clip0_2918_46043">
<rect width="16" height="16" fill="white"/>
</clipPath>
</defs>
</svg>
