<svg width="16" height="16" viewBox="0 0 16 16" fill="none" xmlns="http://www.w3.org/2000/svg">
<g clip-path="url(#clip0_5401_75703)">
<path d="M5.3335 4.66797V7.33464L1.3335 4.0013L5.3335 0.667969V3.33464H8.66683C10.0813 3.33464 11.4379 3.89654 12.4381 4.89673C13.4383 5.89693 14.0002 7.25348 14.0002 8.66797C14.0002 10.0825 13.4383 11.439 12.4381 12.4392C11.4379 13.4394 10.0813 14.0013 8.66683 14.0013H2.66683V12.668H8.66683C9.7277 12.668 10.7451 12.2465 11.4953 11.4964C12.2454 10.7463 12.6668 9.72883 12.6668 8.66797C12.6668 7.6071 12.2454 6.58969 11.4953 5.83954C10.7451 5.0894 9.7277 4.66797 8.66683 4.66797H5.3335Z" fill="#4C6AFF"/>
</g>
<defs>
<clipPath id="clip0_5401_75703">
<rect width="16" height="16" fill="white"/>
</clipPath>
</defs>
</svg>
