<svg width="16" height="16" viewBox="0 0 16 16" fill="none" xmlns="http://www.w3.org/2000/svg">
<path d="M4.66667 4.0026V2.0026C4.66667 1.82579 4.7369 1.65622 4.86193 1.5312C4.98695 1.40618 5.15652 1.33594 5.33333 1.33594H13.3333C13.5101 1.33594 13.6797 1.40618 13.8047 1.5312C13.9298 1.65622 14 1.82579 14 2.0026V11.3359C14 11.5127 13.9298 11.6823 13.8047 11.8073C13.6797 11.9324 13.5101 12.0026 13.3333 12.0026H11.3333V14.0026C11.3333 14.3706 11.0333 14.6693 10.662 14.6693H2.67133C2.58342 14.6698 2.49626 14.6529 2.41488 14.6197C2.3335 14.5864 2.25949 14.5374 2.19711 14.4755C2.13472 14.4135 2.0852 14.3399 2.05137 14.2587C2.01754 14.1776 2.00009 14.0905 2 14.0026L2.002 4.66927C2.002 4.30127 2.302 4.0026 2.67333 4.0026H4.66667ZM3.33533 5.33594L3.33333 13.3359H10V5.33594H3.33533ZM6 4.0026H11.3333V10.6693H12.6667V2.66927H6V4.0026Z" fill="#626E85"/>
</svg>
