<svg width="16" height="16" viewBox="0 0 16 16" fill="none" xmlns="http://www.w3.org/2000/svg">
<g clip-path="url(#clip0_4291_164832)">
<path fill-rule="evenodd" clip-rule="evenodd" d="M1.60083 2.1001C1.60083 1.82396 1.82469 1.6001 2.10083 1.6001H13.1008C13.377 1.6001 13.6008 1.82396 13.6008 2.1001V7.2001L7.20083 13.6001H2.10083C1.82469 13.6001 1.60083 13.3762 1.60083 13.1001V2.1001ZM4.52083 5.6001C4.23364 5.6001 4.00083 5.83291 4.00083 6.1201C4.00083 6.40729 4.23364 6.6401 4.52083 6.6401H9.88083C10.168 6.6401 10.4008 6.40729 10.4008 6.1201C10.4008 5.83291 10.168 5.6001 9.88083 5.6001H4.52083ZM4.00083 8.5201C4.00083 8.23291 4.23364 8.0001 4.52083 8.0001H7.48083C7.76802 8.0001 8.00083 8.23291 8.00083 8.5201C8.00083 8.80729 7.76802 9.0401 7.48083 9.0401H4.52083C4.23364 9.0401 4.00083 8.80729 4.00083 8.5201ZM15.844 9.00235C16.0526 9.21035 16.0526 9.54794 15.844 9.75647L11.3343 14.2662C11.2486 14.3519 11.1323 14.4001 11.0111 14.4001H10.0576C9.80511 14.4001 9.60044 14.1954 9.60044 13.943V12.9895C9.60044 12.8682 9.6486 12.752 9.73433 12.6662L14.2441 8.1565C14.4521 7.94797 14.7897 7.94797 14.9982 8.1565L15.844 9.00235Z" fill="#4C6AFF"/>
</g>
<defs>
<clipPath id="clip0_4291_164832">
<rect width="16" height="16" fill="white"/>
</clipPath>
</defs>
</svg>
