<svg width="68" height="46" viewBox="0 0 68 46" fill="none" xmlns="http://www.w3.org/2000/svg">
<ellipse cx="33.9998" cy="37.2043" rx="33.8235" ry="8.79412" fill="#F0F3F5"/>
<path d="M8.79395 36.2353V15.0684L20.6279 1.36595C21.1027 0.816078 21.7934 0.5 22.5199 0.5H45.4797C46.2063 0.5 46.8969 0.816078 47.3718 1.36595L59.2057 15.0684V36.2353C59.2057 37.616 58.0864 38.7353 56.7057 38.7353H11.2939C9.91323 38.7353 8.79395 37.616 8.79395 36.2353Z" stroke="#E1E6ED"/>
<path d="M8.79395 15.3828H21.8528C22.6812 15.3828 23.3528 16.0544 23.3528 16.8828V19.6475C23.3528 21.0282 24.4721 22.1475 25.8528 22.1475H42.1469C43.5276 22.1475 44.6469 21.0282 44.6469 19.6475V16.8828C44.6469 16.0544 45.3185 15.3828 46.1469 15.3828H59.2057V36.2358C59.2057 37.6165 58.0864 38.7358 56.7057 38.7358H11.2939C9.91323 38.7358 8.79395 37.6165 8.79395 36.2358V15.3828Z" fill="#F4F6F7" stroke="#E1E6ED"/>
</svg>
