<svg width="16" height="16" viewBox="0 0 16 16" fill="none" xmlns="http://www.w3.org/2000/svg">
<g clip-path="url(#clip0_2973_48732)">
<path d="M14 5.33594V13.9979C14.0006 14.0855 13.984 14.1723 13.951 14.2534C13.9181 14.3345 13.8695 14.4084 13.808 14.4707C13.7466 14.5331 13.6734 14.5827 13.5928 14.6167C13.5121 14.6508 13.4255 14.6687 13.338 14.6693H2.662C2.48654 14.6693 2.31826 14.5996 2.19413 14.4756C2.07 14.3516 2.00018 14.1834 2 14.0079V1.99727C2 1.63927 2.29933 1.33594 2.668 1.33594H9.998L14 5.33594ZM12.6667 6.0026H9.33333V2.66927H3.33333V13.3359H12.6667V6.0026ZM5.33333 4.66927H7.33333V6.0026H5.33333V4.66927ZM5.33333 7.33594H10.6667V8.66927H5.33333V7.33594ZM5.33333 10.0026H10.6667V11.3359H5.33333V10.0026Z" fill="#4C6AFF"/>
</g>
<defs>
<clipPath id="clip0_2973_48732">
<rect width="16" height="16" fill="white"/>
</clipPath>
</defs>
</svg>
