<svg width="16" height="20" viewBox="0 0 16 20" fill="none" xmlns="http://www.w3.org/2000/svg">
<path d="M11.333 3.9974H13.9997C14.1765 3.9974 14.3461 4.06763 14.4711 4.19266C14.5961 4.31768 14.6663 4.48725 14.6663 4.66406V15.3307C14.6663 15.5075 14.5961 15.6771 14.4711 15.8021C14.3461 15.9272 14.1765 15.9974 13.9997 15.9974H1.99967C1.82286 15.9974 1.65329 15.9272 1.52827 15.8021C1.40325 15.6771 1.33301 15.5075 1.33301 15.3307V4.66406C1.33301 4.48725 1.40325 4.31768 1.52827 4.19266C1.65329 4.06763 1.82286 3.9974 1.99967 3.9974H4.66634V2.66406H5.99967V3.9974H9.99967V2.66406H11.333V3.9974ZM9.99967 5.33073H5.99967V6.66406H4.66634V5.33073H2.66634V7.9974H13.333V5.33073H11.333V6.66406H9.99967V5.33073ZM13.333 9.33073H2.66634V14.6641H13.333V9.33073Z" fill="#4C6AFF"/>
</svg>
