<svg width="16" height="16" viewBox="0 0 16 16" fill="none" xmlns="http://www.w3.org/2000/svg">
<g clip-path="url(#clip0_5838_109018)">
<path d="M2.66634 2H13.333L14.6663 4.66667V13.3333C14.6663 13.5101 14.5961 13.6797 14.4711 13.8047C14.3461 13.9298 14.1765 14 13.9997 14H1.99967C1.82286 14 1.65329 13.9298 1.52827 13.8047C1.40325 13.6797 1.33301 13.5101 1.33301 13.3333V4.66933L2.66634 2ZM13.333 6H2.66634V12.6667H13.333V6ZM13.1757 4.66667L12.509 3.33333H3.49101L2.82434 4.66667H13.1757ZM8.66634 9.33333H10.6663L7.99967 12L5.33301 9.33333H7.33301V6.66667H8.66634V9.33333Z" fill="#4C6AFF"/>
</g>
<defs>
<clipPath id="clip0_5838_109018">
<rect width="16" height="16" fill="white"/>
</clipPath>
</defs>
</svg>
