<svg width="16" height="16" viewBox="0 0 16 16" fill="none" xmlns="http://www.w3.org/2000/svg">
<path d="M1.3335 7.33464H14.6668V13.3346C14.6668 13.5114 14.5966 13.681 14.4716 13.806C14.3465 13.9311 14.177 14.0013 14.0002 14.0013H2.00016C1.82335 14.0013 1.65378 13.9311 1.52876 13.806C1.40373 13.681 1.3335 13.5114 1.3335 13.3346V7.33464ZM11.3335 2.0013H14.0002C14.177 2.0013 14.3465 2.07154 14.4716 2.19656C14.5966 2.32159 14.6668 2.49116 14.6668 2.66797V6.0013H1.3335V2.66797C1.3335 2.49116 1.40373 2.32159 1.52876 2.19656C1.65378 2.07154 1.82335 2.0013 2.00016 2.0013H4.66683V0.667969H6.00016V2.0013H10.0002V0.667969H11.3335V2.0013Z" fill="#4C6AFF"/>
</svg>
