<svg width="16" height="16" viewBox="0 0 16 16" fill="none" xmlns="http://www.w3.org/2000/svg">
<path fill-rule="evenodd" clip-rule="evenodd" d="M2.93006 2C2.04817 2 1.33325 2.71491 1.33325 3.59681V11.4032C1.33325 12.2851 2.04817 13 2.93006 13H6L7.54835 14.5484C7.79779 14.7978 8.20221 14.7978 8.45164 14.5484L10 13H13.0698C13.9517 13 14.6666 12.2851 14.6666 11.4032V3.59681C14.6666 2.71491 13.9517 2 13.0698 2H2.93006ZM4.51225 7.78333C4.63188 7.51417 4.94705 7.39294 5.21622 7.51257L5.50863 7.64253C7.0945 8.34736 8.90473 8.34736 10.4906 7.64253L10.783 7.51257C11.0522 7.39294 11.3673 7.51417 11.487 7.78333C11.6066 8.0525 11.4854 8.36768 11.2162 8.4873L10.9238 8.61726C9.06214 9.44467 6.93709 9.44467 5.07541 8.61726L4.78301 8.4873C4.51384 8.36768 4.39262 8.0525 4.51225 7.78333Z" fill="#4C6AFF"/>
</svg>
