<svg width="16" height="16" viewBox="0 0 16 16" fill="none" xmlns="http://www.w3.org/2000/svg">
<path fill-rule="evenodd" clip-rule="evenodd" d="M2.33333 2C1.59695 2 1 2.59695 1 3.33333V12.6667C1 13.403 1.59695 14 2.33333 14H13.6667C14.403 14 15 13.403 15 12.6667V3.33333C15 2.59695 14.403 2 13.6667 2H2.33333ZM12.0249 5.72794C12.2429 5.5298 12.2589 5.1925 12.0608 4.97455C11.8626 4.7566 11.5253 4.74053 11.3074 4.93867L8.53762 7.45664C8.23248 7.73404 7.76648 7.73404 7.46134 7.45664L4.69158 4.93867C4.47362 4.74053 4.13632 4.7566 3.93818 4.97455C3.74004 5.1925 3.75611 5.5298 3.97406 5.72794L6.74383 8.24591C7.45581 8.89317 8.54315 8.89317 9.25514 8.24591L12.0249 5.72794Z" fill="#4C6AFF"/>
</svg>
