<svg width="16" height="16" viewBox="0 0 16 16" fill="none" xmlns="http://www.w3.org/2000/svg">
<path d="M10.0998 8C10.0998 9.83759 9.49807 11.2912 8.89423 12.2879C8.59231 12.7863 8.29098 13.1684 8.06695 13.4243C8.04425 13.4502 8.02236 13.4748 8.00136 13.4981C7.9797 13.4739 7.95708 13.4482 7.9336 13.4211C7.70921 13.1624 7.40754 12.7767 7.10534 12.2759C6.50075 11.2739 5.89941 9.82016 5.89941 8C5.89941 6.18713 6.50061 4.73336 7.10551 3.72914C7.40782 3.22726 7.70964 2.84018 7.93417 2.58021C7.95896 2.55151 7.98279 2.52438 8.00556 2.49883C8.0261 2.52117 8.0475 2.54477 8.06967 2.56961C8.29298 2.81986 8.59365 3.19534 8.89502 3.68892C9.49741 4.67553 10.0998 6.12876 10.0998 8ZM8.29403 2.19859L8.29402 2.19859L8.29403 2.19859ZM7.71324 2.20578C7.71316 2.20571 7.71323 2.20577 7.71345 2.20596L7.71324 2.20578Z" stroke="#6F7485" stroke-width="0.875"/>
<circle cx="8" cy="8" r="5.6875" stroke="#6F7485" stroke-width="0.875"/>
<path d="M1.875 8H14.125" stroke="#6F7485" stroke-width="0.875"/>
</svg>
