<svg width="16" height="16" viewBox="0 0 16 16" fill="none" xmlns="http://www.w3.org/2000/svg">
<rect x="2" y="2" width="12" height="12" rx="2" fill="#4C6AFF"/>
<path d="M4.5625 10.8125C4.5625 9.77697 5.40197 8.9375 6.4375 8.9375H9.5625C10.598 8.9375 11.4375 9.77697 11.4375 10.8125V11.125C11.4375 11.4702 11.1577 11.75 10.8125 11.75H5.1875C4.84232 11.75 4.5625 11.4702 4.5625 11.125V10.8125Z" fill="white"/>
<path d="M4.5625 10.8125C4.5625 9.77697 5.40197 8.9375 6.4375 8.9375H9.5625C10.598 8.9375 11.4375 9.77697 11.4375 10.8125V11.125C11.4375 11.4702 11.1577 11.75 10.8125 11.75H5.1875C4.84232 11.75 4.5625 11.4702 4.5625 11.125V10.8125Z" stroke="white" stroke-width="0.625"/>
<circle cx="8" cy="6.125" r="1.5625" fill="white" stroke="white" stroke-width="0.625"/>
</svg>
