<svg width="16" height="16" viewBox="0 0 16 16" fill="none" xmlns="http://www.w3.org/2000/svg">
<path d="M2 14.7637H14" stroke="#3F465C" stroke-linecap="round"/>
<path fill-rule="evenodd" clip-rule="evenodd" d="M11.2053 1.46284C10.8148 1.07228 10.1816 1.07228 9.79106 1.46284L2.59594 8.65838C2.42198 8.83235 2.31826 9.06435 2.30461 9.30999L2.13651 12.3359C2.12862 12.4779 2.1816 12.6166 2.28219 12.7172C2.38278 12.8178 2.52145 12.8708 2.66348 12.8629L5.68919 12.6948C5.93486 12.6811 6.16687 12.5774 6.34084 12.4034L13.536 5.20782C13.9265 4.8173 13.9265 4.18417 13.536 3.79365L11.2053 1.46284ZM10.4982 2.16992L12.8289 4.50074L12.0184 5.31121L9.68774 2.98042L10.4982 2.16992ZM11.3114 6.01833L8.98065 3.68755L3.30307 9.36546L3.16597 11.8334L5.63372 11.6963L11.3114 6.01833Z" fill="#3F465C"/>
</svg>
