<svg width="16" height="16" viewBox="0 0 16 16" fill="none" xmlns="http://www.w3.org/2000/svg">
<path d="M8 14.5C9.79493 14.5 11.4199 13.7725 12.5962 12.5962C13.7725 11.4199 14.5 9.79493 14.5 8C14.5 6.20507 13.7725 4.58007 12.5962 3.40381C11.4199 2.22754 9.79493 1.5 8 1.5C6.20507 1.5 4.58007 2.22754 3.40381 3.40381C2.22754 4.58007 1.5 6.20507 1.5 8C1.5 9.79493 2.22754 11.4199 3.40381 12.5962C4.58007 13.7725 6.20507 14.5 8 14.5Z" stroke="#3F465C" stroke-linejoin="round"/>
<path d="M7.99995 9.40648V9.08135C7.99995 8.63952 8.37751 8.29759 8.77046 8.09559C9.31508 7.81563 9.68764 7.24815 9.68764 6.59365C9.68764 5.66157 8.93204 4.90596 7.99995 4.90596C7.06786 4.90596 6.31226 5.66157 6.31226 6.59365" stroke="#3F465C" stroke-linecap="round" stroke-linejoin="round"/>
<rect x="7.625" y="10.975" width="0.75" height="0.75" rx="0.375" stroke="#3F465C" stroke-width="0.75"/>
</svg>
