<svg width="864" height="656" viewBox="0 0 864 656" fill="none" xmlns="http://www.w3.org/2000/svg">
  <rect width="864" height="20" rx="4" fill="#F6F7FA" />
  <rect x="105.702" y="40" width="757.149" height="16" rx="4" fill="#F6F7FA" />
  <rect x="105.702" y="72" width="758.298" height="16" rx="4" fill="#F6F7FA" />
  <rect x="105.702" y="104" width="757.149" height="16" rx="4" fill="#F6F7FA" />
  <rect x="105.702" y="136" width="757.149" height="16" rx="4" fill="#F6F7FA" />
  <rect y="40" width="91.9149" height="16" rx="4" fill="#F6F7FA" />
  <rect y="72" width="91.9149" height="16" rx="4" fill="#F6F7FA" />
  <rect y="136" width="91.9149" height="16" rx="4" fill="#F6F7FA" />
  <rect y="192" width="864" height="16" rx="4" fill="#F6F7FA" />
  <rect y="288" width="864" height="16" rx="4" fill="#F6F7FA" />
  <rect y="384" width="864" height="16" rx="4" fill="#F6F7FA" />
  <rect y="480" width="864" height="16" rx="4" fill="#F6F7FA" />
  <rect y="576" width="864" height="16" rx="4" fill="#F6F7FA" />
  <rect y="224" width="864" height="16" rx="4" fill="#F6F7FA" />
  <rect y="320" width="864" height="16" rx="4" fill="#F6F7FA" />
  <rect y="416" width="864" height="16" rx="4" fill="#F6F7FA" />
  <rect y="512" width="864" height="16" rx="4" fill="#F6F7FA" />
  <rect y="608" width="864" height="16" rx="4" fill="#F6F7FA" />
  <rect y="256" width="668.681" height="16" rx="4" fill="#F6F7FA" />
  <rect y="352" width="668.681" height="16" rx="4" fill="#F6F7FA" />
  <rect y="448" width="668.681" height="16" rx="4" fill="#F6F7FA" />
  <rect y="544" width="668.681" height="16" rx="4" fill="#F6F7FA" />
  <rect y="640" width="668.681" height="16" rx="4" fill="#F6F7FA" />
</svg>