<svg width="176" height="777" viewBox="0 0 176 777" fill="none" xmlns="http://www.w3.org/2000/svg">
  <rect x="24" y="108" width="152" height="16" rx="4" fill="#F6F7FA" />
  <rect width="80" height="16" rx="4" fill="#F6F7FA" />
  <rect x="136" width="40" height="16" rx="4" fill="#F6F7FA" />
  <rect y="32" width="176" height="16" rx="4" fill="#F6F7FA" />
  <rect y="60" width="176" height="16" rx="4" fill="#F6F7FA" />
  <rect x="24" y="144" width="120" height="16" rx="4" fill="#F6F7FA" />
  <rect x="24" y="180" width="88" height="16" rx="4" fill="#F6F7FA" />
  <rect y="108" width="16" height="16" rx="4" fill="#F6F7FA" />
  <rect x="24" y="348" width="152" height="16" rx="4" fill="#F6F7FA" />
  <rect x="24" y="384" width="120" height="16" rx="4" fill="#F6F7FA" />
  <rect x="24" y="420" width="88" height="16" rx="4" fill="#F6F7FA" />
  <rect y="348" width="16" height="16" rx="4" fill="#F6F7FA" />
  <rect x="24" y="588" width="152" height="16" rx="4" fill="#F6F7FA" />
  <rect x="24" y="624" width="120" height="16" rx="4" fill="#F6F7FA" />
  <rect x="24" y="660" width="88" height="16" rx="4" fill="#F6F7FA" />
  <rect y="588" width="16" height="16" rx="4" fill="#F6F7FA" />
  <rect x="24" y="228" width="152" height="16" rx="4" fill="#F6F7FA" />
  <rect x="24" y="264" width="120" height="16" rx="4" fill="#F6F7FA" />
  <rect x="24" y="300" width="88" height="16" rx="4" fill="#F6F7FA" />
  <rect y="228" width="16" height="16" rx="4" fill="#F6F7FA" />
  <rect x="24" y="468" width="152" height="16" rx="4" fill="#F6F7FA" />
  <rect x="24" y="504" width="120" height="16" rx="4" fill="#F6F7FA" />
  <rect x="24" y="540" width="88" height="16" rx="4" fill="#F6F7FA" />
  <rect y="468" width="16" height="16" rx="4" fill="#F6F7FA" />
  <rect x="24" y="708" width="152" height="16" rx="4" fill="#F6F7FA" />
  <rect x="24" y="744" width="120" height="16" rx="4" fill="#F6F7FA" />
  <rect y="708" width="16" height="16" rx="4" fill="#F6F7FA" />
</svg>