<svg width="24" height="24" viewBox="0 0 24 24" fill="none" xmlns="http://www.w3.org/2000/svg">
<path d="M2 6C2 3.79086 3.79086 2 6 2H7C9.20914 2 11 3.79086 11 6V11H6C3.79086 11 2 9.20914 2 7V6Z" fill="#386EE7"/>
<path d="M2 17C2 14.7909 3.79086 13 6 13H11V18C11 20.2091 9.20914 22 7 22H6C3.79086 22 2 20.2091 2 18V17Z" fill="#386EE7"/>
<path d="M13 6C13 3.79086 14.7909 2 17 2H18C20.2091 2 22 3.79086 22 6V7C22 9.20914 20.2091 11 18 11H13V6Z" fill="#386EE7"/>
<path d="M13 13H18C20.2091 13 22 14.7909 22 17V18C22 20.2091 20.2091 22 18 22H17C14.7909 22 13 20.2091 13 18V13Z" fill="#386EE7"/>
</svg>
