<svg width="24" height="11" viewBox="0 0 24 11" fill="none" xmlns="http://www.w3.org/2000/svg">
<path d="M5.2 5.26V9.332H5.944V4.076C6.256 3.484 6.512 2.868 6.704 2.22L6.024 1.9C5.656 3.212 5.072 4.364 4.288 5.348L4.512 6.108C4.752 5.836 4.984 5.548 5.2 5.26ZM6.504 3.228V3.956H7.92C7.544 5.332 6.944 6.468 6.12 7.364L6.512 8.012C7.456 6.956 8.128 5.604 8.528 3.956V7.012H7.408V7.74H8.528V9.324H9.272V7.74H10.416V7.012H9.272V3.956C9.64 5.42 10.288 6.74 11.216 7.916L11.704 7.3C10.84 6.324 10.224 5.204 9.872 3.956H11.392V3.228H9.272V1.932H8.528V3.228H6.504ZM16.24 4.444V4.892H18.52V4.412C18.768 4.684 19.048 4.94 19.368 5.18L19.784 4.556C18.808 3.812 18.128 2.94 17.736 1.948H17.056C16.576 3.028 15.904 3.908 15.024 4.58L15.424 5.188C15.712 4.972 15.984 4.724 16.24 4.444ZM18.336 4.204H16.448C16.8 3.772 17.112 3.268 17.392 2.692C17.632 3.236 17.952 3.74 18.336 4.204ZM15.256 8.34V9.068H19.672V8.34H18.552C18.856 7.492 19.112 6.54 19.32 5.468L18.592 5.284C18.368 6.484 18.112 7.508 17.824 8.34H15.256ZM16.12 5.516L15.472 5.74C15.736 6.444 15.96 7.172 16.136 7.94L16.784 7.78C16.584 6.932 16.36 6.172 16.12 5.516ZM17.352 5.276L16.704 5.484C16.928 6.164 17.104 6.868 17.24 7.604L17.896 7.444C17.736 6.628 17.56 5.9 17.352 5.276ZM14.296 2.94L13.96 5.548H13.176L13.488 3.436L12.792 3.396L12.416 6.22H14.44C14.44 7.34 14.4 8.012 14.32 8.244C14.248 8.468 14.032 8.588 13.672 8.588C13.56 8.588 13.368 8.564 13.088 8.524L13.288 9.196C13.48 9.212 13.664 9.22 13.84 9.22C14.368 9.22 14.72 9.076 14.888 8.788C15.048 8.5 15.136 7.42 15.136 5.548H14.672L15.048 2.252H12.424V2.94H14.296ZM14.088 6.772C13.552 6.956 12.928 7.1 12.224 7.212L12.312 7.932C12.976 7.804 13.568 7.644 14.088 7.452V6.772Z" fill="#0FD683"/>
<rect x="0.34375" y="0.34375" width="23.3125" height="10.3125" rx="5.15625" stroke="#0FD683" stroke-width="0.6875"/>
</svg>
