<svg width="20" height="20" viewBox="0 0 20 20" fill="none" xmlns="http://www.w3.org/2000/svg">
<path fill-rule="evenodd" clip-rule="evenodd" d="M10 18.75C14.8325 18.75 18.75 14.8325 18.75 10C18.75 5.16751 14.8325 1.25 10 1.25C5.16751 1.25 1.25 5.16751 1.25 10C1.25 14.8325 5.16751 18.75 10 18.75ZM7.37811 5.96057C7.58965 5.74904 7.93261 5.74904 8.14415 5.96057L9.97704 7.79346L11.8099 5.96057C12.0215 5.74904 12.3644 5.74904 12.576 5.96057C12.7875 6.1721 12.7875 6.51507 12.576 6.7266L10.5461 8.75647H12.9305C13.2296 8.75647 13.4721 8.99899 13.4721 9.29814C13.4721 9.5973 13.2296 9.83981 12.9305 9.83981H10.5173V11.711H12.9305C13.2296 11.711 13.4721 11.9535 13.4721 12.2527C13.4721 12.5518 13.2296 12.7944 12.9305 12.7944H10.5173V14.4686C10.5173 14.7677 10.2748 15.0102 9.97564 15.0102C9.67648 15.0102 9.43397 14.7677 9.43397 14.4686V12.7944H7.02138C6.72223 12.7944 6.47972 12.5518 6.47972 12.2527C6.47972 11.9535 6.72223 11.711 7.02138 11.711H9.43397V9.83981H7.02138C6.72223 9.83981 6.47972 9.5973 6.47972 9.29814C6.47972 8.99899 6.72223 8.75647 7.02138 8.75647H9.40798L7.37811 6.7266C7.16658 6.51507 7.16658 6.1721 7.37811 5.96057Z" fill="white"/>
</svg>
