<svg width="24" height="24" viewBox="0 0 24 24" fill="none" xmlns="http://www.w3.org/2000/svg">
<path d="M2 18.5C2 15.1863 4.68629 12.5 8 12.5H16C19.3137 12.5 22 15.1863 22 18.5V20C22 21.1046 21.1046 22 20 22H4C2.89543 22 2 21.1046 2 20V18.5Z" fill="#386EE7"/>
<circle cx="12" cy="6.5" r="4.5" fill="#386EE7"/>
<path d="M18.5 7.7C18.0582 7.7 17.7 8.05817 17.7 8.5C17.7 8.94183 18.0582 9.3 18.5 9.3V7.7ZM22.5 9.3C22.9418 9.3 23.3 8.94183 23.3 8.5C23.3 8.05817 22.9418 7.7 22.5 7.7V9.3ZM18.5 9.3H22.5V7.7H18.5V9.3Z" fill="#386EE7"/>
<path d="M20 10.7C19.5582 10.7 19.2 11.0582 19.2 11.5C19.2 11.9418 19.5582 12.3 20 12.3V10.7ZM22.5 12.3C22.9418 12.3 23.3 11.9418 23.3 11.5C23.3 11.0582 22.9418 10.7 22.5 10.7V12.3ZM20 12.3H22.5V10.7H20V12.3Z" fill="#386EE7"/>
</svg>
