<svg width="16" height="16" viewBox="0 0 16 16" fill="none" xmlns="http://www.w3.org/2000/svg">
<path d="M12.1997 14.5L3.79971 14.5" stroke="white" stroke-linecap="round"/>
<path d="M8 11.0332V14.4999" stroke="white"/>
<path fill-rule="evenodd" clip-rule="evenodd" d="M2 1.5C1.44772 1.5 1 1.94772 1 2.5V10.9C1 11.4523 1.44772 11.9 2 11.9H14C14.5523 11.9 15 11.4523 15 10.9V2.5C15 1.94772 14.5523 1.5 14 1.5H2ZM12.6984 5.80413C12.8873 5.60267 12.8771 5.28625 12.6756 5.09739C12.4742 4.90852 12.1578 4.91873 11.9689 5.12019L9.85747 7.37237L8.36509 5.78051C8.27057 5.67968 8.13853 5.62248 8.00033 5.62248C7.86212 5.62248 7.73008 5.67968 7.63556 5.78051L5.52413 8.03269L4.03176 6.44082C3.8429 6.23937 3.52648 6.22916 3.32502 6.41802C3.12357 6.60689 3.11336 6.92331 3.30222 7.12476L5.15937 9.10572C5.25389 9.20654 5.38593 9.26375 5.52413 9.26375C5.66234 9.26375 5.79438 9.20654 5.8889 9.10572L8.00033 6.85353L9.4927 8.4454C9.58722 8.54622 9.71926 8.60343 9.85747 8.60343C9.99567 8.60343 10.1277 8.54622 10.2222 8.4454L12.6984 5.80413Z" fill="white"/>
</svg>
