<svg width="24" height="24" viewBox="0 0 24 24" fill="none" xmlns="http://www.w3.org/2000/svg">
<path fill-rule="evenodd" clip-rule="evenodd" d="M4 21.5H10.5699C10.4136 21.3539 10.2712 21.1919 10.1451 21.016C9.78816 20.518 9.57592 19.9284 9.53014 19.3153C9.48436 18.7021 9.60661 18.087 9.88451 17.54C10.1625 16.9928 10.5861 16.5342 11.1095 16.2197C11.1724 16.1819 11.2363 16.1464 11.3013 16.1132C11.3421 15.5775 11.4698 15.0498 11.6817 14.5523C12.033 13.7275 12.6025 13.0173 13.3284 12.5038C14.0544 11.9902 14.9075 11.6943 15.7915 11.6518C16.6754 11.6093 17.5522 11.822 18.3226 12.2642C19.0928 12.7063 19.7248 13.3594 20.1497 14.1476C20.2038 14.248 20.2506 14.3412 20.2929 14.4343C20.566 14.5013 20.8146 14.5971 21.0051 14.6728C21.3657 14.8162 21.7005 15.013 22 15.2548V8.50124C22 7.39667 21.1046 6.5 20 6.5H12.0476L10.7321 4.42798C10.3651 3.85009 9.72816 3.5 9.04363 3.5H4C2.89543 3.5 2 4.39543 2 5.5V19.5C2 20.6046 2.89543 21.5 4 21.5ZM17.5759 13.5651C17.0522 13.2645 16.4592 13.1214 15.8636 13.1501C15.2678 13.1787 14.6898 13.3781 14.1946 13.7284C13.6992 14.0788 13.3058 14.567 13.0617 15.1401C12.866 15.5996 12.7731 16.0978 12.7886 16.5978L12.8064 17.1718L12.2569 17.3387C12.1271 17.3782 12.0012 17.4339 11.8821 17.5054C11.6045 17.6722 11.3746 17.9186 11.2218 18.2194C11.0689 18.5204 11.0004 18.8617 11.026 19.2036C11.0515 19.5454 11.1697 19.8707 11.3643 20.1422C11.5588 20.4135 11.8208 20.6192 12.118 20.7392C12.2784 20.804 12.446 20.8426 12.6151 20.8548L19.8233 20.8488C20.0766 20.8246 20.3263 20.7579 20.5624 20.6493C20.9885 20.4535 21.353 20.1295 21.6066 19.7145C21.8603 19.2992 21.9906 18.8131 21.9783 18.3179C21.966 17.8227 21.812 17.3445 21.5384 16.9438C21.265 16.5433 20.8856 16.2395 20.451 16.0667C20.1393 15.9428 19.8977 15.8641 19.7088 15.8537L19.2 15.8258L19.0385 15.3424C18.9769 15.1577 18.9226 15.0323 18.8294 14.8594C18.5349 14.3132 18.0998 13.8658 17.5759 13.5651ZM5.8 9.4C5.35817 9.4 5 9.75817 5 10.2C5 10.6418 5.35817 11 5.8 11H10.2C10.6418 11 11 10.6418 11 10.2C11 9.75817 10.6418 9.4 10.2 9.4H5.8Z" fill="white"/>
</svg>
