<svg width="24" height="24" viewBox="0 0 24 24" fill="none" xmlns="http://www.w3.org/2000/svg">
<path fill-rule="evenodd" clip-rule="evenodd" d="M2.00391 8.1631C2.00391 7.42911 2.40595 6.7541 3.05134 6.40451L12.5276 1.27153C13.1939 0.910612 14.0039 1.39305 14.0039 2.15082V20.9719C14.0039 21.5242 13.5562 21.9719 13.0039 21.9719H3.00391C2.45162 21.9719 2.00391 21.5242 2.00391 20.9719V8.1631ZM9.50391 8.97187C10.0562 8.97187 10.5039 9.41959 10.5039 9.97187C10.5039 10.5242 10.0562 10.9719 9.50391 10.9719H6.50391C5.95162 10.9719 5.50391 10.5242 5.50391 9.97187C5.50391 9.41959 5.95162 8.97187 6.50391 8.97187H9.50391ZM10.5039 14.9719C10.5039 14.4196 10.0562 13.9719 9.50391 13.9719H6.50391C5.95162 13.9719 5.50391 14.4196 5.50391 14.9719C5.50391 15.5242 5.95162 15.9719 6.50391 15.9719H9.50391C10.0562 15.9719 10.5039 15.5242 10.5039 14.9719Z" fill="#A7ABB5"/>
<path d="M17.0039 8.38589C17.0039 7.49499 18.081 7.04882 18.711 7.67879L21.4181 10.3859C21.7932 10.761 22.0039 11.2697 22.0039 11.8001V20.9717C22.0039 21.524 21.5562 21.9717 21.0039 21.9717H18.0039C17.4516 21.9717 17.0039 21.524 17.0039 20.9717V8.38589Z" fill="#A7ABB5"/>
</svg>
