<svg width="24" height="11" fill="none" xmlns="http://www.w3.org/2000/svg">
  <path d="M4.592 2.212v7.12h.744V2.924h1.096c-.208.64-.488 1.368-.848 2.168.544.672.816 1.272.816 1.816 0 .136-.04.232-.112.288-.08.048-.224.08-.448.096-.112 0-.248-.016-.408-.04l.248.768c.592-.008 1-.112 1.24-.312.16-.16.24-.432.24-.8-.032-.552-.304-1.192-.808-1.928.32-.76.6-1.48.84-2.168v-.6h-2.6Zm3.616 2.144h2.12v.728h-2.12v-.728Zm2.12-.688h-2.12v-.744h2.12v.744ZM8.96 5.78c.256 1.472 1.048 2.632 2.36 3.488l.424-.672a4.49 4.49 0 0 1-1.336-1.144 3.828 3.828 0 0 0 1.144-.936l-.488-.488c-.32.384-.656.68-1.008.888A3.944 3.944 0 0 1 9.64 5.78h1.432V2.204H7.464v6.112c0 .104-.072.176-.2.224l.184.664a17.645 17.645 0 0 0 2.208-.712l-.176-.704c-.416.192-.84.352-1.272.48V5.78h.752Zm4.352-1.28v2.152h1.904c-.032.064-.072.136-.104.216-.432.744-1.328 1.376-2.704 1.888l.48.592c1.568-.608 2.552-1.376 2.968-2.288a3.11 3.11 0 0 0 .168-.408h.28v1.616c0 .624.272.936.824.936h1.592c.288 0 .496-.072.632-.216.144-.16.24-.632.304-1.432l-.72-.232c-.016.552-.056.88-.12.992a.255.255 0 0 1-.24.152H17.36c-.2 0-.296-.12-.296-.36V6.652h1.808V4.084H17.04c.28-.256.56-.568.848-.928V2.58h-2.672c.12-.168.24-.336.352-.512L14.8 1.9c-.672.992-1.472 1.76-2.416 2.32l.48.584c.152-.096.304-.2.448-.304Zm2.776-.416h-2.256c.288-.248.56-.52.832-.816h2.24a9.809 9.809 0 0 1-.816.816Zm2.056 1.856h-1.912c.072-.352.12-.736.136-1.152h1.776V5.94Zm-2.696 0h-1.4V4.788h1.56c-.024.416-.08.8-.16 1.152Z" fill="#0FD683"/><rect x=".344" y=".344" width="23.313" height="10.313" rx="5.156" stroke="#0FD683" stroke-width=".688"/>
</svg>