<svg width="16" height="16" viewBox="0 0 16 16" fill="none" xmlns="http://www.w3.org/2000/svg">
<path fill-rule="evenodd" clip-rule="evenodd" d="M7.96967 1.72463C6.96757 3.35009 6.34831 5.23669 6.23759 7.25873H9.70174C9.59102 5.23669 8.97176 3.35009 7.96967 1.72463ZM9.70174 8.57123H6.23759C6.34831 10.5933 6.96757 12.4799 7.96967 14.1053C8.97176 12.4799 9.59102 10.5933 9.70174 8.57123ZM9.06505 14.8298C10.2039 12.996 10.9033 10.8607 11.016 8.57123H14.9393C14.6423 11.7657 12.1988 14.3373 9.06505 14.8298ZM11.016 7.25873C10.9033 4.96923 10.2039 2.83399 9.06505 1.00019C12.1988 1.49266 14.6423 4.06427 14.9393 7.25873H11.016ZM4.92329 7.25873C5.03603 4.96923 5.73541 2.83399 6.87428 1.00018C3.74055 1.49265 1.29703 4.06427 1.00002 7.25873H4.92329ZM6.87428 14.8298C5.73541 12.996 5.03603 10.8607 4.92329 8.57123H1.00002C1.29703 11.7657 3.74055 14.3373 6.87428 14.8298Z" fill="#4C6AFF"/>
<path fill-rule="evenodd" clip-rule="evenodd" d="M11.0159 7.25879C10.9032 4.96929 10.2038 2.83405 9.06494 1.00024C12.1987 1.49271 14.6422 4.06433 14.9392 7.25879H11.0159Z" fill="#52F4FF"/>
</svg>
