<svg width="24" height="24" viewBox="0 0 24 24" fill="none" xmlns="http://www.w3.org/2000/svg">
<g opacity="0.6">
<path d="M12 1.5C9.9233 1.5 7.89323 2.11581 6.16652 3.26957C4.4398 4.42332 3.09399 6.0632 2.29927 7.98182C1.50455 9.90045 1.29661 12.0116 1.70176 14.0484C2.1069 16.0852 3.10693 17.9562 4.57538 19.4246C6.04383 20.8931 7.91476 21.8931 9.95156 22.2982C11.9884 22.7034 14.0996 22.4955 16.0182 21.7007C17.9368 20.906 19.5767 19.5602 20.7304 17.8335C21.8842 16.1068 22.5 14.0767 22.5 12C22.4969 9.21619 21.3896 6.5473 19.4212 4.57884C17.4527 2.61039 14.7838 1.50314 12 1.5ZM3 12C3.00127 10.5737 3.34203 9.1682 3.99411 7.8997C4.64619 6.6312 5.59086 5.53613 6.75 4.70505V6.75C6.75 6.94891 6.82902 7.13968 6.96967 7.28033C7.11033 7.42098 7.30109 7.5 7.5 7.5H10.0366C10.1758 7.49999 10.3123 7.4612 10.4308 7.38799C10.5493 7.31478 10.645 7.21003 10.7073 7.08547L11.25 6H14.25V10.5H9.92708C9.81063 10.5 9.69578 10.5271 9.59161 10.5791L7.16453 11.7927C7.03994 11.855 6.93517 11.9508 6.86196 12.0693C6.78874 12.1878 6.74997 12.3244 6.75 12.4636V15.2421C6.74998 15.392 6.79489 15.5385 6.87894 15.6627C6.96299 15.7868 7.08232 15.883 7.22153 15.9386L10.5 17.25L11.1176 20.955C8.89547 20.7335 6.8347 19.6948 5.33487 18.0402C3.83503 16.3857 3.00297 14.2332 3 12ZM16.5 19.782V17.25L17.816 15.2761C17.8739 15.1892 17.9131 15.091 17.9309 14.9881C17.9487 14.8851 17.9449 14.7795 17.9196 14.6781L17.25 12V9.75H20.7038C21.2064 11.6517 21.0667 13.6662 20.3065 15.4803C19.5463 17.2945 18.2082 18.8067 16.5 19.782Z" fill="white"/>
</g>
</svg>
