<svg fill="none" height="11" viewBox="0 0 24 11" width="24" xmlns="http://www.w3.org/2000/svg"><path d="m5.032 2.364v.72h2.6v2.064h-3.208v.736h3.208v3.432h.768v-3.432h3.184v-.736h-3.184v-2.064h2.592v-.72zm13.456 2.632c.304 0 .528-.056.68-.152.16-.104.272-.424.328-.968l-.688-.224c-.024.336-.08.536-.16.608-.064.056-.16.088-.304.088h-1.416c-.184 0-.272-.08-.272-.24v-.272c.984-.36 1.84-.784 2.56-1.272l-.488-.504c-.544.384-1.232.736-2.072 1.056v-1.136h-.744v1.392c-.4.128-.824.248-1.272.368l.408.6c.288-.08.576-.168.864-.248v.168c0 .488.272.736.816.736zm.2.336h-5.2v2.584h.76v-1.896h3.672v1.792h.768zm-2.04 2.416-.384.576c.944.264 1.856.624 2.752 1.088l.424-.656c-.84-.4-1.768-.736-2.792-1.008zm-.928-1.464c-.064.824-.272 1.408-.624 1.752-.4.352-1.24.552-2.504.616l.304.688c1.488-.128 2.432-.424 2.832-.872.368-.344.616-1.048.728-2.12zm-2.12-2.568v1.36h.736v-1.928c.328-.296.6-.608.816-.936l-.632-.296c-.448.616-1.152 1.16-2.104 1.624l.224.744c.336-.176.656-.368.96-.568z" fill="#0fd683"/><rect height="10.3125" rx="5.15625" stroke="#0fd683" stroke-width=".6875" width="23.3125" x=".34375" y=".34375"/></svg>