<svg width="16" height="16" viewBox="0 0 16 16" fill="none" xmlns="http://www.w3.org/2000/svg">
<path fill-rule="evenodd" clip-rule="evenodd" d="M1.0087 3.50116L5.09969 7.59215L1.00201 12.4349C1.00068 12.4151 1 12.3951 1 12.375V3.625C1 3.58296 1.00296 3.54161 1.0087 3.50116ZM1.70217 13.2329L5.88336 8.29152L7.67204 9.72246L8 9.98483L8.32796 9.72246L10.1166 8.29152L14.2978 13.2329C14.242 13.2441 14.1842 13.25 14.125 13.25H1.875C1.81583 13.25 1.75804 13.2441 1.70217 13.2329ZM14.998 12.4349C14.9993 12.4151 15 12.3951 15 12.375V3.625C15 3.58296 14.997 3.54161 14.9913 3.50116L10.9003 7.59215L14.998 12.4349ZM1.75116 2.7587C1.79161 2.75296 1.83296 2.75 1.875 2.75H14.125C14.167 2.75 14.2084 2.75296 14.2488 2.7587L9.83683 7.17071L8 8.64017L6.16317 7.17071L1.75116 2.7587Z" fill="#4C6AFF"/>
<path opacity="0.9" fill-rule="evenodd" clip-rule="evenodd" d="M1.64844 2.77964C1.72072 2.76031 1.7967 2.75 1.87508 2.75H14.1251C14.2035 2.75 14.2794 2.76031 14.3517 2.77964L9.89535 7.23601L8.00008 8.75223L6.10481 7.23601L1.64844 2.77964Z" fill="#52F4FF"/>
</svg>
