<svg width="24" height="24" viewBox="0 0 24 24" fill="none" xmlns="http://www.w3.org/2000/svg">
<path fill-rule="evenodd" clip-rule="evenodd" d="M3.5 3C2.39543 3 1.5 3.89543 1.5 5V19C1.5 20.1046 2.39543 21 3.5 21H20.5C21.6046 21 22.5 20.1046 22.5 19V5C22.5 3.89543 21.6046 3 20.5 3H3.5ZM18.0381 8.59195C18.3651 8.29475 18.3892 7.78879 18.092 7.46186C17.7947 7.13494 17.2888 7.11084 16.9619 7.40805L12.8072 11.185C12.3495 11.6011 11.6505 11.6011 11.1928 11.185L7.03814 7.40805C6.71121 7.11084 6.20525 7.13494 5.90805 7.46186C5.61084 7.78879 5.63494 8.29475 5.96186 8.59195L10.1165 12.3689C11.1845 13.3398 12.8155 13.3398 13.8835 12.3689L18.0381 8.59195Z" fill="#386EE7"/>
</svg>
