<svg width="24" height="24" viewBox="0 0 24 24" fill="none" xmlns="http://www.w3.org/2000/svg">
<g opacity="0.6">
<path fill-rule="evenodd" clip-rule="evenodd" d="M23 11.5C23 17.0228 18.1871 21.5 12.25 21.5C10.811 21.5 9.43796 21.237 8.18354 20.7598L4.27445 21.3419C3.91922 21.3949 3.62572 21.0671 3.71735 20.7198L4.35833 18.2904C2.58425 16.5071 1.5 14.1213 1.5 11.5C1.5 5.97715 6.31294 1.5 12.25 1.5C18.1871 1.5 23 5.97715 23 11.5ZM7.99872 9.68976C8.11674 9.31388 8.47272 9.0643 8.86633 9.08149C9.43714 9.10641 9.82923 9.66565 9.65807 10.2108L8.80214 12.9368C8.68412 13.3127 8.32813 13.5623 7.93453 13.5451C7.36371 13.5202 6.97163 12.9609 7.14279 12.4158L7.99872 9.68976ZM16.8663 9.08149C16.4727 9.0643 16.1167 9.31388 15.9987 9.68976L15.1428 12.4158C14.9716 12.9609 15.3637 13.5202 15.9345 13.5451C16.3281 13.5623 16.6841 13.3127 16.8021 12.9368L17.6581 10.2108C17.8292 9.66565 17.4371 9.10641 16.8663 9.08149ZM11.9987 9.68976C12.1167 9.31388 12.4727 9.0643 12.8663 9.08149C13.4371 9.10641 13.8292 9.66565 13.6581 10.2108L12.8021 12.9368C12.6841 13.3127 12.3281 13.5623 11.9345 13.5451C11.3637 13.5202 10.9716 12.9609 11.1428 12.4158L11.9987 9.68976Z" fill="white"/>
</g>
</svg>
