<svg width="16" height="16" viewBox="0 0 16 16" fill="none" xmlns="http://www.w3.org/2000/svg">
<path fill-rule="evenodd" clip-rule="evenodd" d="M1.97302 9.096C1.83633 8.37146 1.83633 7.62854 1.97302 6.904L0.13201 5.86235C0.00544611 5.79074 -0.0377798 5.62925 0.0360886 5.50399L1.8147 2.48798C1.88672 2.36585 2.0433 2.32394 2.16669 2.39376L4.01582 3.44C4.58372 2.964 5.23946 2.59 5.95648 2.34V0.26C5.95648 0.116406 6.07288 0 6.21648 0H9.78207C9.92566 0 10.0421 0.116406 10.0421 0.26V2.34C10.7591 2.59 11.4148 2.964 11.9827 3.44L13.8319 2.39376C13.9552 2.32394 14.1118 2.36585 14.1838 2.48798L15.9625 5.50399C16.0363 5.62925 15.9931 5.79074 15.8665 5.86235L14.0255 6.904C14.1622 7.62854 14.1622 8.37146 14.0255 9.096L15.8665 10.1376C15.9931 10.2093 16.0363 10.3708 15.9625 10.496L14.1838 13.512C14.1118 13.6341 13.9552 13.6761 13.8319 13.6062L11.9827 12.56C11.4105 13.0405 10.7526 13.4134 10.0421 13.66V15.74C10.0421 15.8836 9.92566 16 9.78207 16H6.21648C6.07288 16 5.95648 15.8836 5.95648 15.74V13.66C5.24594 13.4134 4.58801 13.0405 4.01582 12.56L2.16669 13.6062C2.0433 13.6761 1.88672 13.6341 1.8147 13.512L0.0360887 10.496C-0.0377797 10.3708 0.00544645 10.2093 0.13201 10.1376L1.97302 9.096ZM7.90283 11C9.55969 11 10.9028 9.65685 10.9028 8C10.9028 6.34315 9.55969 5 7.90283 5C6.24598 5 4.90283 6.34315 4.90283 8C4.90283 9.65685 6.24598 11 7.90283 11Z" fill="#A7ABB5"/>
</svg>
