<svg width="16" height="16" viewBox="0 0 16 16" fill="none" xmlns="http://www.w3.org/2000/svg">
<path d="M14.0968 2.54538C13.0925 2.43911 10.3879 2.36586 8 4.2004V13.5C10.3163 12.2659 12.9306 11.9846 14.002 11.9205C14.2776 11.9041 14.5 11.6778 14.5 11.4016V3.0112C14.5 2.77319 14.3335 2.57043 14.0968 2.54538Z" fill="white" stroke="white" stroke-linejoin="round"/>
<path d="M10 6C10.4425 5.68365 11.5232 5.05797 13 5" stroke="#373B52" stroke-linecap="round"/>
<path d="M10 9C10.4425 8.68365 11.5232 8.05797 13 8" stroke="#373B52" stroke-linecap="round"/>
<path d="M8 4.2004C5.61211 2.36586 2.90745 2.43911 1.90315 2.54538C1.66647 2.57043 1.5 2.77319 1.5 3.0112V11.4016C1.5 11.6778 1.72237 11.9041 1.99802 11.9205C3.06935 11.9846 5.68371 12.2659 8 13.5C7.99992 11.9016 7.99994 6.98973 8 4.2004Z" fill="white" stroke="white" stroke-linejoin="round"/>
</svg>
