<svg width="16" height="16" viewBox="0 0 16 16" fill="none" xmlns="http://www.w3.org/2000/svg">
<path fill-rule="evenodd" clip-rule="evenodd" d="M9.28688 2.07615C9.00965 2.03874 8.65322 2.00133 8.33639 2.00133C5.96015 1.96393 4.4156 2.71204 3.06906 4.35789C2.59382 4.95638 2.15817 5.96633 1.99976 7.0885C2.67302 6.00374 4.73243 4.02124 6.87104 3.23572C6.87104 3.23572 3.58391 5.85792 1.99976 9L2.35619 9.81912C2.63342 10.455 3.02946 11.0909 3.62352 11.652C4.33639 12.3253 5.16807 12.7742 5.99976 13.036L6.55421 13.1482C8.65322 13.5971 10.7522 13.0734 11.5047 12.6994C12.9701 11.9512 13.9998 10.5672 14.2374 9.18322H10.2374C10.2374 9.18322 10.0394 10.3802 7.90074 10.3802C5.92055 10.3802 5.80174 8.21067 5.80174 8.21067H14.3562C14.3562 8.21067 14.5146 5.85412 13.2869 4.28308C12.574 3.42275 11.2975 2.62444 10.0302 2.21298L9.28688 2.07615ZM7.86139 5.0206C6.07921 5.13282 6 6.70386 6 6.70386L10.4752 6.77867C10.2376 5.54428 9.44554 4.87098 7.86139 5.0206Z" fill="white"/>
<path fill-rule="evenodd" clip-rule="evenodd" d="M7.00206 13.6041C5.04303 15.166 3.26936 15.8577 1.70373 14.6054C0.125353 13.0597 1.23468 8.64765 4.7035 5.10536C8.17232 1.56308 13.1255 0.0595671 14.7039 1.60521C15.7929 2.67164 15.4276 4.18475 14.2435 5.9652C14.1602 5.72129 14.0551 5.48556 13.9273 5.2573C14.5688 4.11918 14.8946 3.0918 14.5 2.49996C13.4659 0.948798 8.87439 2.7259 5.70581 5.9616C2.53722 9.1973 1.81027 13.5334 2.77647 14.1757C3.30638 14.5279 4.5361 14.2427 6.06133 13.3795C6.35798 13.4764 6.67389 13.5509 7.00206 13.6041Z" fill="white"/>
</svg>
