<svg width="24" height="24" viewBox="0 0 24 24" fill="none" xmlns="http://www.w3.org/2000/svg">
<path d="M12.0009 0.999023C5.92538 0.999023 1 5.92441 1 11.9999C1 18.0754 5.92538 23.0008 12.0009 23.0008C18.0764 23.0008 23 18.0754 23 11.9999C23 5.92441 18.0764 0.999023 12.0009 0.999023Z" fill="white" fill-opacity="0.6"/>
<path d="M17.8141 8.50948C18.0497 7.63429 18.1507 5.95122 16.6023 5.71559C15.3232 5.58094 13.8421 6.38881 13.0679 6.9274C12.8322 6.89373 12.5293 6.86007 12.26 6.86007C10.2403 6.82641 8.9275 7.49964 7.78302 8.98074C7.37908 9.51933 7.0088 10.4282 6.87416 11.438C7.4464 10.4618 9.19679 8.67779 11.0145 7.9709C11.0145 7.9709 8.22061 9.95692 6.87416 12.7845V12.8181C6.80683 12.9528 6.73951 13.0538 6.67219 13.2221C5.32573 16.5546 6.43656 18.002 7.4464 18.2376C8.38892 18.4733 9.70172 18.0357 10.7452 16.8912C12.5293 17.2951 14.3133 16.8239 14.9529 16.4872C16.1984 15.814 17.0736 14.5685 17.2755 13.3231H13.8757C13.8757 13.3231 13.7074 14.4002 11.8897 14.4002C10.2066 14.4002 10.1057 12.4479 10.1057 12.4479H17.3765C17.3765 12.4479 17.5112 10.3272 16.4677 8.91342C15.8618 8.13921 15.0875 7.43232 14.0104 7.06204C14.347 6.82641 14.9192 6.42248 15.4242 6.32149C16.3667 6.08586 16.9726 6.22051 17.3765 6.9274C17.9151 7.86992 17.0736 10.0242 17.0736 10.0242C17.0736 10.0242 17.5448 9.41834 17.8141 8.50948ZM10.274 16.7902C8.82652 17.9683 7.64837 17.8337 7.17711 17.1268C6.77317 16.4872 6.70585 15.4101 7.17711 13.8953C7.41274 14.4676 7.74935 15.0398 8.25428 15.5447C8.86018 16.1506 9.56707 16.5546 10.274 16.7902ZM10.2066 10.6975C10.2066 10.6975 10.274 9.2837 11.7887 9.18271C13.1352 9.04807 13.8084 9.65397 14.0104 10.7648L10.2066 10.6975Z" fill="#2A2A2A"/>
</svg>
