<svg width="16" height="20" viewBox="0 0 16 20" fill="none" xmlns="http://www.w3.org/2000/svg">
<path fill-rule="evenodd" clip-rule="evenodd" d="M3.93081 0.977643C3.93081 0.852459 4.03229 0.750977 4.15747 0.750977H5.30731C5.43249 0.750977 5.53397 0.852459 5.53397 0.977643V2.60073H10.4664V0.977643C10.4664 0.852459 10.5679 0.750977 10.6931 0.750977H11.8429C11.9681 0.750977 12.0696 0.852459 12.0696 0.977643V2.60073H14.2659C14.8919 2.60073 15.3993 3.10814 15.3993 3.73406V18.1156C15.3993 18.7416 14.8919 19.249 14.2659 19.249H1.73416C1.10824 19.249 0.60083 18.7416 0.60083 18.1156V3.73406C0.60083 3.10814 1.10824 2.60073 1.73416 2.60073H3.93081V0.977643ZM4.30033 7.30068C3.83089 7.30068 3.45033 7.68124 3.45033 8.15068C3.45033 8.62012 3.83089 9.00068 4.30033 9.00068H11.6996C12.169 9.00068 12.5496 8.62012 12.5496 8.15068C12.5496 7.68124 12.169 7.30068 11.6996 7.30068H4.30033ZM3.45033 11.8502C3.45033 11.3807 3.83089 11.0002 4.30033 11.0002H11.6996C12.169 11.0002 12.5496 11.3807 12.5496 11.8502C12.5496 12.3196 12.169 12.7002 11.6996 12.7002H4.30033C3.83089 12.7002 3.45033 12.3196 3.45033 11.8502Z" fill="white"/>
</svg>
