<svg xmlns="http://www.w3.org/2000/svg" width="16" height="16" viewBox="0 0 16 16" fill="none">
    <g opacity="0.5">
        <path d="M7.99825 1H8.00175C11.8617 1 15 4.14008 15 8C15 11.8599 11.8611 15 8.00175 15C6.57842 15 5.25776 14.5759 4.15176 13.8438L1.83681 14.5835C1.68076 14.6334 1.53423 14.4848 1.58631 14.3294L2.33292 12.1026C1.46464 10.9111 0.997838 9.4743 1.00001 8C1.00001 4.14008 4.13892 1 7.99825 1ZM5.99567 4.84767C5.86209 4.52858 5.76059 4.51633 5.55817 4.50817C5.48127 4.50316 5.40424 4.50044 5.32717 4.5C5.06351 4.5 4.78817 4.577 4.62134 4.74675C4.42009 4.95267 3.91667 5.43333 3.91667 6.42092C3.91667 7.40733 4.63826 8.36167 4.73509 8.49525C4.83659 8.62825 6.14209 10.6828 8.168 11.5198C9.75292 12.1749 10.2231 12.1143 10.5842 12.0373C11.1109 11.9241 11.7713 11.5356 11.9375 11.0672C12.1038 10.5976 12.1038 10.1974 12.0553 10.1122C12.0063 10.0277 11.8728 9.97925 11.6703 9.87775C11.4673 9.77683 10.4827 9.2915 10.296 9.22675C10.1134 9.1585 9.93959 9.18242 9.80192 9.37667C9.60709 9.64733 9.41692 9.92267 9.26234 10.0883C9.141 10.2178 8.94209 10.2342 8.77642 10.1653C8.55359 10.072 7.92942 9.85383 7.15884 9.17017C6.56325 8.6405 6.15784 7.98133 6.04059 7.78358C5.92276 7.58117 6.02834 7.46392 6.12167 7.35483C6.22259 7.22942 6.32 7.14075 6.4215 7.0235C6.52301 6.90625 6.579 6.84558 6.64434 6.70792C6.71317 6.57433 6.66475 6.43667 6.61576 6.33575C6.56734 6.23483 6.16192 5.24725 5.99567 4.84767Z" fill="white"/>
    </g>
</svg>
