<svg xmlns="http://www.w3.org/2000/svg" width="16" height="16" viewBox="0 0 16 16" fill="none">
    <path d="M7.99825 1H8.00175C11.8617 1 15 4.14008 15 8C15 11.8599 11.8611 15 8.00175 15C6.57842 15 5.25776 14.5759 4.15176 13.8438L1.83681 14.5835C1.68076 14.6334 1.53423 14.4848 1.58631 14.3294L2.33292 12.1026C1.46464 10.9111 0.997838 9.4743 1.00001 8C1.00001 4.14008 4.13892 1 7.99825 1Z" fill="#4C6AFF"/>
    <path d="M6.079 4.84767C5.94542 4.52858 5.84392 4.51633 5.6415 4.50817C5.5646 4.50316 5.48756 4.50044 5.4105 4.5C5.14683 4.5 4.8715 4.577 4.70467 4.74675C4.50342 4.95267 4 5.43333 4 6.42092C4 7.40733 4.72158 8.36167 4.81842 8.49525C4.91992 8.62825 6.22542 10.6828 8.25133 11.5198C9.83625 12.1749 10.3064 12.1143 10.6675 12.0373C11.1942 11.9241 11.8546 11.5356 12.0208 11.0672C12.1871 10.5976 12.1871 10.1974 12.1387 10.1122C12.0897 10.0277 11.9561 9.97925 11.7537 9.87775C11.5507 9.77683 10.566 9.2915 10.3793 9.22675C10.1967 9.1585 10.0229 9.18242 9.88525 9.37667C9.69041 9.64733 9.50025 9.92267 9.34566 10.0883C9.22433 10.2178 9.02541 10.2342 8.85975 10.1653C8.63691 10.072 8.01275 9.85383 7.24217 9.17017C6.64658 8.6405 6.24117 7.98133 6.12392 7.78358C6.00608 7.58117 6.11167 7.46392 6.205 7.35483C6.30592 7.22942 6.40333 7.14075 6.50483 7.0235C6.60633 6.90625 6.66233 6.84558 6.72767 6.70792C6.7965 6.57433 6.74808 6.43667 6.69908 6.33575C6.65067 6.23483 6.24525 5.24725 6.079 4.84767Z" fill="#52F4FF"/>
</svg>
