<svg width="20" height="20" viewBox="0 0 20 20" fill="none" xmlns="http://www.w3.org/2000/svg">
<path d="M10 18C14.4183 18 18 14.4183 18 10C18 5.58172 14.4183 2 10 2C5.58172 2 2 5.58172 2 10C2 14.4183 5.58172 18 10 18Z" fill="#FFB54C"/>
<path fill-rule="evenodd" clip-rule="evenodd" d="M10.8494 13.7495C10.8494 14.0257 10.6256 14.2495 10.3494 14.2495L9.64941 14.2495C9.37327 14.2495 9.14941 14.0257 9.14941 13.7495L9.14941 13.0495C9.14941 12.7734 9.37327 12.5495 9.64941 12.5495L10.3494 12.5495C10.6256 12.5495 10.8494 12.7734 10.8494 13.0495L10.8494 13.7495ZM10.8494 10.8999C10.8494 11.176 10.6256 11.3999 10.3494 11.3999L9.64941 11.3999C9.37327 11.3999 9.14941 11.176 9.14941 10.8999L9.14941 6.1999C9.14941 5.92376 9.37327 5.6999 9.64941 5.6999L10.3494 5.6999C10.6256 5.6999 10.8494 5.92376 10.8494 6.1999L10.8494 10.8999Z" fill="white"/>
</svg>
