<svg width="14" height="14" viewBox="0 0 14 14" fill="none" xmlns="http://www.w3.org/2000/svg">
<path d="M12.6872 7C12.6872 6.75838 12.4914 6.5625 12.2497 6.5625C12.0081 6.5625 11.8122 6.75838 11.8122 7L12.6872 7ZM1.31223 7C1.31223 7.24162 1.5081 7.4375 1.74973 7.4375C1.99135 7.4375 2.18723 7.24162 2.18723 7L1.31223 7ZM1.76121 6.65L2.19777 6.67873L1.76121 6.65ZM12.2382 7.35L11.8017 7.32127L12.2382 7.35ZM11.1708 4.59781C11.2916 4.80707 11.5592 4.87878 11.7685 4.75798C11.9777 4.63718 12.0494 4.36961 11.9286 4.16035L11.1708 4.59781ZM2.83079 9.40593C2.7098 9.19678 2.44217 9.12531 2.23302 9.2463C2.02387 9.36729 1.9524 9.63492 2.07338 9.84407L2.83079 9.40593ZM2.18723 7C2.18723 6.89198 2.19078 6.78486 2.19777 6.67873L1.32466 6.62127C1.31641 6.74651 1.31223 6.8728 1.31223 7L2.18723 7ZM2.19777 6.67873C2.36283 4.17087 4.44984 2.1875 6.99973 2.1875L6.99973 1.3125C3.98585 1.3125 1.5198 3.65651 1.32466 6.62127L2.19777 6.67873ZM11.8122 7C11.8122 7.10801 11.8087 7.21514 11.8017 7.32127L12.6748 7.37873C12.683 7.25349 12.6872 7.1272 12.6872 7L11.8122 7ZM11.8017 7.32127C11.6366 9.82913 9.54962 11.8125 6.99973 11.8125L6.99973 12.6875C10.0136 12.6875 12.4797 10.3435 12.6748 7.37873L11.8017 7.32127ZM6.99973 2.1875C8.78203 2.1875 10.3386 3.15614 11.1708 4.59781L11.9286 4.16035C10.9465 2.45906 9.10729 1.3125 6.99973 1.3125L6.99973 2.1875ZM6.99973 11.8125C5.21898 11.8125 3.66355 10.8455 2.83079 9.40593L2.07338 9.84407C3.05612 11.5429 4.894 12.6875 6.99973 12.6875L6.99973 11.8125Z" fill="#8D92A1"/>
<path d="M1.32065 7.39093H2.17806L1.74935 7.81964L1.32065 7.39093Z" stroke="#8D92A1" stroke-width="0.875"/>
<path d="M12.6784 6.60907L11.821 6.60907L12.2497 6.18036L12.6784 6.60907Z" stroke="#8D92A1" stroke-width="0.875"/>
</svg>
