<svg width="14" height="14" viewBox="0 0 14 14" fill="none" xmlns="http://www.w3.org/2000/svg">
<path d="M7 12.6875C8.57056 12.6875 9.99244 12.0509 11.0217 11.0217C12.0509 9.99244 12.6875 8.57056 12.6875 7C12.6875 5.42944 12.0509 4.00757 11.0217 2.97833C9.99244 1.9491 8.57056 1.3125 7 1.3125C5.42944 1.3125 4.00757 1.9491 2.97833 2.97833C1.9491 4.00757 1.3125 5.42944 1.3125 7C1.3125 8.57056 1.9491 9.99244 2.97833 11.0217C4.00757 12.0509 5.42944 12.6875 7 12.6875Z" stroke="#8D92A1" stroke-width="0.875" stroke-linejoin="round"/>
<path d="M7 8.23068V7.94619C7 7.55959 7.33037 7.2604 7.6742 7.08365C8.15074 6.83869 8.47673 6.34214 8.47673 5.76946C8.47673 4.95388 7.81558 4.29272 7 4.29272C6.18443 4.29272 5.52327 4.95388 5.52327 5.76946" stroke="#8D92A1" stroke-width="0.875" stroke-linecap="round" stroke-linejoin="round"/>
<path fill-rule="evenodd" clip-rule="evenodd" d="M7.00005 10.4981C7.33797 10.4981 7.61191 10.2242 7.61191 9.88628C7.61191 9.54835 7.33797 9.27441 7.00005 9.27441C6.66212 9.27441 6.38818 9.54835 6.38818 9.88628C6.38818 10.2242 6.66212 10.4981 7.00005 10.4981Z" fill="#8D92A1"/>
</svg>
