<svg width="32" height="32" viewBox="0 0 32 32" fill="none" xmlns="http://www.w3.org/2000/svg">
<circle cx="16" cy="16" r="16" fill="#386EE7"/>
<path d="M10.2868 12.4485L15.6849 10.1351C15.8861 10.0488 16.1139 10.0488 16.3151 10.1351L21.7132 12.4485C22.1981 12.6563 22.1981 13.3437 21.7132 13.5515L16.3151 15.8649C16.1139 15.9512 15.8861 15.9512 15.6849 15.8649L10.2868 13.5515C9.80194 13.3437 9.80194 12.6563 10.2868 12.4485Z" stroke="white" stroke-width="1.2" stroke-linejoin="round"/>
<path d="M12.5 14.5L10.4125 15.1958C9.90005 15.3667 9.85657 16.0746 10.3442 16.3068L15.6561 18.8362C15.8736 18.9398 16.1264 18.9398 16.3439 18.8362L21.6558 16.3068C22.1434 16.0746 22.1 15.3667 21.5875 15.1958L19.5 14.5" stroke="white" stroke-width="1.2" stroke-linejoin="round"/>
<path d="M12.5 17.5L10.4125 18.1958C9.90005 18.3667 9.85657 19.0746 10.3442 19.3068L15.6561 21.8362C15.8736 21.9398 16.1264 21.9398 16.3439 21.8362L21.6558 19.3068C22.1434 19.0746 22.1 18.3667 21.5875 18.1958L19.5 17.5" stroke="white" stroke-width="1.2" stroke-linejoin="round"/>
</svg>
