<svg width="17" height="16" viewBox="0 0 17 16" fill="none" xmlns="http://www.w3.org/2000/svg">
<path fill-rule="evenodd" clip-rule="evenodd" d="M2.96826 8C2.96826 4.68629 5.65455 2 8.96826 2C12.282 2 14.9683 4.68629 14.9683 8C14.9683 11.3137 12.282 14 8.96826 14C5.65455 14 2.96826 11.3137 2.96826 8ZM8.96826 1C5.10227 1 1.96826 4.13401 1.96826 8C1.96826 11.866 5.10227 15 8.96826 15C12.8343 15 15.9683 11.866 15.9683 8C15.9683 4.13401 12.8343 1 8.96826 1ZM5.96826 7.5C5.69212 7.5 5.46826 7.72386 5.46826 8C5.46826 8.27614 5.69212 8.5 5.96826 8.5H11.9683C12.2444 8.5 12.4683 8.27614 12.4683 8C12.4683 7.72386 12.2444 7.5 11.9683 7.5H5.96826Z" fill="#8D92A1"/>
</svg>
