<svg width="232" height="17" viewBox="0 0 232 17" fill="none" xmlns="http://www.w3.org/2000/svg">
<path d="M0.2253 1.162C0.2253 1.0124 0.256467 0.906432 0.3188 0.844099C0.381134 0.781766 0.462167 0.750599 0.5619 0.750599H0.9546C1.04187 0.750599 1.11667 0.781766 1.179 0.844099C1.2538 0.906432 1.2912 1.0124 1.2912 1.162V1.4238H13.4836V1.1807C13.4836 1.0311 13.5085 0.931365 13.5584 0.881498C13.6207 0.819165 13.7018 0.787998 13.8015 0.787998H14.1942C14.4186 0.787998 14.5308 0.918899 14.5308 1.1807V14.7943C14.5308 15.2431 14.4498 15.6358 14.2877 15.9724C14.1381 16.309 13.814 16.5396 13.3153 16.6643C13.1283 16.7142 12.9039 16.7453 12.6421 16.7578C12.3928 16.7827 12.131 16.7952 11.8567 16.7952C11.732 16.7952 11.6385 16.7765 11.5762 16.7391C11.5263 16.7142 11.4702 16.6518 11.4079 16.5521C11.383 16.5147 11.3518 16.4586 11.3144 16.3838C11.277 16.309 11.2396 16.2342 11.2022 16.1594C11.1149 15.9599 11.171 15.8602 11.3705 15.8602C11.6946 15.8353 11.9689 15.8103 12.1933 15.7854C12.4177 15.7729 12.5985 15.7542 12.7356 15.7293C13.0722 15.667 13.2779 15.5423 13.3527 15.3553C13.44 15.1808 13.4836 14.9003 13.4836 14.5138V1.9848H1.2912V16.3651C1.2912 16.5022 1.26003 16.5957 1.1977 16.6456C1.13537 16.7079 1.05433 16.7391 0.9546 16.7391H0.5619C0.474634 16.7391 0.3936 16.7142 0.3188 16.6643C0.256467 16.6144 0.2253 16.5147 0.2253 16.3651V1.162ZM7.6305 4.8085C7.60557 4.7711 7.60557 4.7337 7.6305 4.6963C7.6679 4.64643 7.71153 4.6028 7.7614 4.5654C7.81127 4.528 7.86113 4.5093 7.911 4.5093C7.97333 4.49683 8.01697 4.5093 8.0419 4.5467C8.25383 4.82097 8.5281 5.21367 8.8647 5.7248C9.2013 6.22347 9.55037 6.78447 9.9119 7.4078C10.261 6.3232 10.5103 5.1825 10.6599 3.9857C10.6848 3.88597 10.7285 3.80493 10.7908 3.7426C10.8531 3.68027 10.9279 3.66157 11.0152 3.6865C11.0775 3.69897 11.1461 3.71143 11.2209 3.7239C11.2957 3.7239 11.3643 3.73637 11.4266 3.7613C11.5513 3.78623 11.6261 3.8361 11.651 3.9109C11.6884 3.9857 11.7009 4.07297 11.6884 4.1727C11.5637 4.9581 11.4017 5.71233 11.2022 6.4354C11.0152 7.146 10.797 7.8379 10.5477 8.5111C10.9466 9.2217 11.3019 9.92607 11.6136 10.6242C11.9253 11.3099 12.1434 11.8958 12.2681 12.382C12.3429 12.6563 12.318 12.8994 12.1933 13.1113C12.106 13.2609 12.0125 13.3606 11.9128 13.4105C11.8255 13.4728 11.732 13.4915 11.6323 13.4666C11.545 13.4417 11.4765 13.3606 11.4266 13.2235C11.2521 12.5877 11.0526 11.9768 10.8282 11.3909C10.6163 10.805 10.3732 10.2066 10.0989 9.5957C9.66257 10.5806 9.17637 11.4906 8.6403 12.3259C8.1167 13.1487 7.56193 13.9092 6.976 14.6073C6.95107 14.6447 6.90743 14.6572 6.8451 14.6447C6.79523 14.6322 6.74537 14.6073 6.6955 14.5699C6.64563 14.5325 6.602 14.4889 6.5646 14.439C6.53967 14.3891 6.53967 14.3455 6.5646 14.3081C7.17547 13.2983 7.73647 12.3197 8.2476 11.3722C8.75873 10.4123 9.19507 9.43363 9.5566 8.4363C9.2948 7.88777 9.00183 7.32053 8.6777 6.7346C8.36603 6.14867 8.01697 5.50663 7.6305 4.8085ZM2.488 5.0516C2.46307 5.00173 2.46307 4.95187 2.488 4.902C2.5254 4.83967 2.57527 4.7898 2.6376 4.7524C2.7498 4.69007 2.83083 4.68383 2.8807 4.7337C3.15497 5.0329 3.4791 5.43183 3.8531 5.9305C4.23957 6.42917 4.62603 6.9777 5.0125 7.5761C5.22443 6.9777 5.39897 6.36683 5.5361 5.7435C5.6857 5.12017 5.7979 4.47813 5.8727 3.8174C5.92257 3.58053 6.041 3.4808 6.228 3.5182L6.6394 3.5743C6.76407 3.59923 6.83887 3.6491 6.8638 3.7239C6.9012 3.7987 6.91367 3.88597 6.9012 3.9857C6.76407 4.83343 6.58953 5.63753 6.3776 6.398C6.17813 7.15847 5.93503 7.894 5.6483 8.6046C5.93503 9.06587 6.18437 9.5209 6.3963 9.9697C6.6207 10.4185 6.80147 10.8361 6.9386 11.2226C6.98847 11.3597 7.0134 11.4844 7.0134 11.5966C7.0134 11.7088 6.98223 11.8272 6.9199 11.9519C6.87003 12.0766 6.789 12.1825 6.6768 12.2698C6.58953 12.3321 6.49603 12.3571 6.3963 12.3446C6.30903 12.3321 6.24047 12.2573 6.1906 12.1202C6.01607 11.634 5.84777 11.1914 5.6857 10.7925C5.5361 10.3936 5.37403 10.0133 5.1995 9.6518C4.77563 10.5868 4.30813 11.4532 3.797 12.2511C3.28587 13.0365 2.7498 13.7658 2.1888 14.439C2.16387 14.4764 2.12023 14.4889 2.0579 14.4764C2.00803 14.4639 1.95817 14.439 1.9083 14.4016C1.85843 14.3517 1.8148 14.3019 1.7774 14.252C1.75247 14.2021 1.75247 14.1585 1.7774 14.1211C2.36333 13.1736 2.8994 12.2449 3.3856 11.3348C3.8718 10.4247 4.29567 9.5022 4.6572 8.5672C4.40787 8.09347 4.10867 7.58233 3.7596 7.0338C3.423 6.4728 2.99913 5.81207 2.488 5.0516ZM30.3136 1.0311C30.3136 0.881498 30.3448 0.781765 30.4071 0.731899C30.4694 0.682032 30.5505 0.657099 30.6502 0.657099H31.0429C31.1302 0.657099 31.205 0.682032 31.2673 0.731899C31.3421 0.781765 31.3795 0.881498 31.3795 1.0311V7.2956C31.3795 7.4452 31.3483 7.54493 31.286 7.5948C31.2237 7.64467 31.1426 7.6696 31.0429 7.6696H30.6502C30.5629 7.6696 30.4819 7.64467 30.4071 7.5948C30.3448 7.54493 30.3136 7.4452 30.3136 7.2956V7.2208H21.8612V7.4078C21.8612 7.5574 21.83 7.65713 21.7677 7.707C21.7054 7.75687 21.6243 7.7818 21.5246 7.7818H21.1319C21.0446 7.7818 20.9636 7.75687 20.8888 7.707C20.8265 7.65713 20.7953 7.5574 20.7953 7.4078V1.0498C20.7953 0.900199 20.8265 0.800466 20.8888 0.750599C20.9511 0.700732 21.0322 0.675799 21.1319 0.675799H21.5246C21.6119 0.675799 21.6867 0.700732 21.749 0.750599C21.8238 0.800466 21.8612 0.900199 21.8612 1.0498V1.0872H30.3136V1.0311ZM17.9342 12.2137C18.7819 11.5779 19.5673 10.886 20.2904 10.138C21.0135 9.39 21.6119 8.61083 22.0856 7.8005C22.2352 7.5761 22.4347 7.52623 22.684 7.6509L22.9645 7.8192C23.1764 7.95633 23.2076 8.1371 23.058 8.3615C22.9832 8.4737 22.9022 8.5859 22.8149 8.6981C22.7401 8.8103 22.6591 8.9225 22.5718 9.0347H31.7909V8.7729C31.7909 8.63577 31.8221 8.54227 31.8844 8.4924C31.9592 8.43007 32.0465 8.3989 32.1462 8.3989L32.5763 8.4176C32.676 8.43007 32.7508 8.46747 32.8007 8.5298C32.8506 8.57967 32.8755 8.6794 32.8755 8.829C32.8506 9.4648 32.8256 10.0881 32.8007 10.699C32.7758 11.3099 32.7446 11.8709 32.7072 12.382C32.6823 12.8931 32.6511 13.3419 32.6137 13.7284C32.5888 14.1149 32.5638 14.4078 32.5389 14.6073C32.5015 14.8192 32.4579 15.0249 32.408 15.2244C32.3581 15.4363 32.2833 15.6233 32.1836 15.7854C32.0839 15.9599 31.9405 16.1095 31.7535 16.2342C31.579 16.3713 31.3546 16.4773 31.0803 16.5521C30.8684 16.602 30.6066 16.6394 30.2949 16.6643C29.9832 16.7017 29.6279 16.7266 29.229 16.7391C29.0919 16.7391 28.9984 16.7266 28.9485 16.7017C28.8986 16.6768 28.8425 16.6207 28.7802 16.5334C28.7553 16.496 28.7116 16.4274 28.6493 16.3277C28.5994 16.228 28.5496 16.1407 28.4997 16.0659C28.4124 15.8664 28.481 15.7667 28.7054 15.7667C29.1043 15.7418 29.4472 15.7168 29.7339 15.6919C30.0331 15.667 30.2824 15.6296 30.4819 15.5797C30.8185 15.5174 31.0554 15.3927 31.1925 15.2057C31.3296 15.0187 31.4294 14.732 31.4917 14.3455C31.554 13.8718 31.6101 13.211 31.66 12.3633C31.7099 11.5156 31.7473 10.6055 31.7722 9.6331H29.6591C29.4098 10.3437 29.0919 11.0418 28.7054 11.7275C28.3189 12.4132 27.8327 13.0739 27.2468 13.7097C26.6733 14.333 25.9814 14.919 25.1711 15.4675C24.3732 16.016 23.4382 16.5022 22.3661 16.9261C22.3287 16.951 22.2851 16.9448 22.2352 16.9074C22.1853 16.87 22.1417 16.8201 22.1043 16.7578C22.0669 16.7079 22.0482 16.6518 22.0482 16.5895C22.0482 16.5272 22.0794 16.4773 22.1417 16.4399C23.7873 15.5672 25.1275 14.5886 26.1622 13.504C27.2094 12.4069 28.0073 11.1166 28.5558 9.6331H25.6573C25.0714 10.8798 24.1987 12.0329 23.0393 13.0926C21.8924 14.1523 20.4275 15.0561 18.6448 15.8041C18.6074 15.8166 18.5638 15.8041 18.5139 15.7667C18.4765 15.7293 18.4391 15.6794 18.4017 15.6171C18.3768 15.5672 18.3643 15.5111 18.3643 15.4488C18.3643 15.3865 18.3955 15.3366 18.4578 15.2992C19.0562 14.9751 19.6421 14.6198 20.2156 14.2333C20.8015 13.8344 21.3563 13.4043 21.8799 12.943C22.4035 12.4693 22.8835 11.9581 23.3198 11.4096C23.7561 10.8611 24.1239 10.2689 24.4231 9.6331H22.0669C21.5433 10.1941 20.9511 10.7364 20.2904 11.26C19.6421 11.7836 18.9378 12.2573 18.1773 12.6812C18.1399 12.7061 18.0963 12.6999 18.0464 12.6625C17.9965 12.6251 17.9529 12.5815 17.9155 12.5316C17.8906 12.4817 17.8719 12.4256 17.8594 12.3633C17.8594 12.301 17.8843 12.2511 17.9342 12.2137ZM21.8612 6.6598H30.3136V4.4345H21.8612V6.6598ZM21.8612 3.8735H30.3136V1.6482H21.8612V3.8735ZM39.9628 8.6233C39.9628 8.4737 39.994 8.36773 40.0563 8.3054C40.1186 8.2306 40.1997 8.1932 40.2994 8.1932H40.6921C40.7794 8.1932 40.8542 8.2306 40.9165 8.3054C40.9913 8.36773 41.0287 8.4737 41.0287 8.6233V15.0935H44.6565V5.837C44.6565 5.6874 44.6877 5.58143 44.75 5.5191C44.8123 5.4443 44.8934 5.4069 44.9931 5.4069H45.4232C45.5105 5.4069 45.5853 5.4443 45.6476 5.5191C45.7224 5.58143 45.7598 5.6874 45.7598 5.837V9.5957H51.0706C51.2327 9.5957 51.3137 9.65803 51.3137 9.7827V10.0071C51.3137 10.1318 51.2389 10.1941 51.0893 10.1941H45.7598V15.0935H52.604C52.7661 15.0935 52.8471 15.1558 52.8471 15.2805V15.5423C52.8471 15.667 52.7723 15.7293 52.6227 15.7293H36.8025C36.6654 15.7293 36.5968 15.667 36.5968 15.5423V15.2805C36.5968 15.1558 36.6654 15.0935 36.8025 15.0935H39.9628V8.6233ZM36.335 7.5387C37.2825 7.0151 38.1801 6.4541 39.0278 5.8557C39.8755 5.24483 40.6485 4.6215 41.3466 3.9857C42.0447 3.3499 42.6494 2.7141 43.1605 2.0783C43.6716 1.4425 44.0706 0.831632 44.3573 0.245699C44.4072 0.145965 44.4757 0.0773987 44.563 0.0399992C44.6503 0.0025989 44.7438 0.0025989 44.8435 0.0399992C45.0679 0.114799 45.2549 0.189599 45.4045 0.264399C45.5292 0.326732 45.5977 0.401532 45.6102 0.488799C45.6227 0.563599 45.5977 0.650865 45.5354 0.750599C45.4855 0.850333 45.4294 0.943832 45.3671 1.0311C45.3172 1.1059 45.2611 1.19317 45.1988 1.2929C47.5051 3.69897 50.1418 5.38197 53.1089 6.3419C53.3208 6.40423 53.352 6.51643 53.2024 6.6785C53.1276 6.77823 53.0216 6.89667 52.8845 7.0338C52.7598 7.17093 52.6414 7.28313 52.5292 7.3704C52.3921 7.47013 52.2238 7.47637 52.0243 7.3891C51.5506 7.2021 51.027 6.94653 50.4535 6.6224C49.8925 6.29827 49.3003 5.90557 48.677 5.4443C48.0661 4.97057 47.4366 4.42827 46.7883 3.8174C46.1525 3.19407 45.5292 2.49593 44.9183 1.723C44.5692 2.22167 44.1329 2.74527 43.6093 3.2938C43.0982 3.84233 42.4935 4.3971 41.7954 4.9581C41.1097 5.50663 40.3306 6.05517 39.4579 6.6037C38.5977 7.13977 37.644 7.63843 36.5968 8.0997C36.5469 8.12463 36.4908 8.1184 36.4285 8.081C36.3786 8.03113 36.335 7.97503 36.2976 7.9127C36.2727 7.8379 36.2602 7.76933 36.2602 7.707C36.2602 7.6322 36.2851 7.5761 36.335 7.5387ZM55.1472 15.1496C55.1472 15.0249 55.2158 14.9626 55.3529 14.9626H60.7011V0.993699C60.7011 0.844099 60.7323 0.738132 60.7946 0.675799C60.8569 0.600999 60.938 0.563599 61.0377 0.563599H61.4678C61.5551 0.563599 61.6299 0.600999 61.6922 0.675799C61.767 0.738132 61.8044 0.844099 61.8044 0.993699V14.9626H64.9086V0.993699C64.9086 0.706966 65.0208 0.563599 65.2452 0.563599H65.6566C65.7563 0.563599 65.8374 0.600999 65.8997 0.675799C65.962 0.738132 65.9932 0.844099 65.9932 0.993699V14.9626H71.4536C71.6157 14.9626 71.6967 15.0249 71.6967 15.1496V15.4488C71.6967 15.5735 71.6219 15.6358 71.4723 15.6358H55.3529C55.2158 15.6358 55.1472 15.5735 55.1472 15.4488V15.1496ZM66.9282 12.5316C67.2399 11.8833 67.5328 11.1665 67.8071 10.3811C68.0938 9.58323 68.3494 8.80407 68.5738 8.0436C68.7982 7.28313 68.9852 6.585 69.1348 5.9492C69.2969 5.30093 69.4153 4.79603 69.4901 4.4345C69.54 4.1353 69.7145 4.0231 70.0137 4.0979L70.5186 4.2475C70.7181 4.33477 70.7929 4.4906 70.743 4.715C70.7056 4.85213 70.637 5.089 70.5373 5.4256C70.45 5.7622 70.3254 6.16113 70.1633 6.6224C70.0137 7.08367 69.8392 7.58857 69.6397 8.1371C69.4402 8.68563 69.2158 9.2404 68.9665 9.8014C68.7296 10.3499 68.4678 10.8922 68.1811 11.4283C67.8944 11.9644 67.5952 12.4443 67.2835 12.8682C67.2586 12.9056 67.2212 12.9181 67.1713 12.9056C67.1214 12.8931 67.0716 12.8682 67.0217 12.8308C66.9718 12.7934 66.9344 12.7498 66.9095 12.6999C66.897 12.65 66.9033 12.5939 66.9282 12.5316ZM55.8578 4.0231C55.8329 3.97323 55.8391 3.92337 55.8765 3.8735C55.9139 3.81117 55.9575 3.76753 56.0074 3.7426C56.0697 3.7052 56.1321 3.6865 56.1944 3.6865C56.2567 3.6865 56.3066 3.71143 56.344 3.7613C57.1917 5.46923 57.8338 6.91537 58.2701 8.0997C58.7064 9.27157 58.9807 10.219 59.0929 10.9421C59.1178 11.1166 59.1116 11.2787 59.0742 11.4283C59.0368 11.5779 58.9807 11.715 58.9059 11.8397C58.8062 12.0142 58.7002 12.1389 58.588 12.2137C58.4883 12.276 58.3823 12.2885 58.2701 12.2511C58.1704 12.2012 58.108 12.0953 58.0831 11.9332C57.9584 11.2226 57.8088 10.512 57.6343 9.8014C57.4722 9.07833 57.2915 8.37397 57.092 7.6883C56.8925 7.00263 56.6868 6.34813 56.4749 5.7248C56.263 5.10147 56.0573 4.53423 55.8578 4.0231ZM81.4207 3.3312C81.4207 3.1816 81.4519 3.08187 81.5142 3.032C81.5765 2.98213 81.6576 2.9572 81.7573 2.9572H82.1126C82.1999 2.9572 82.2747 2.98213 82.337 3.032C82.4118 3.08187 82.4492 3.1816 82.4492 3.3312V15.4675C82.4492 15.6171 82.418 15.7168 82.3557 15.7667C82.2934 15.8166 82.2123 15.8415 82.1126 15.8415H81.7573C81.67 15.8415 81.589 15.8166 81.5142 15.7667C81.4519 15.7168 81.4207 15.6171 81.4207 15.4675V14.4016H75.6985V15.4114C75.6985 15.561 75.6673 15.6607 75.605 15.7106C75.5427 15.7605 75.4616 15.7854 75.3619 15.7854H75.0066C74.9193 15.7854 74.8383 15.7605 74.7635 15.7106C74.7012 15.6607 74.67 15.561 74.67 15.4114V3.3499C74.67 3.2003 74.7012 3.10057 74.7635 3.0507C74.8258 3.00083 74.9069 2.9759 75.0066 2.9759H75.3619C75.4492 2.9759 75.524 3.00083 75.5863 3.0507C75.6611 3.10057 75.6985 3.2003 75.6985 3.3499V3.406H78.0547V0.507499C78.0547 0.357898 78.0859 0.258165 78.1482 0.208299C78.2105 0.158432 78.2916 0.133499 78.3913 0.133499H78.7279C78.8276 0.133499 78.9087 0.158432 78.971 0.208299C79.0333 0.258165 79.0645 0.357898 79.0645 0.507499V3.406H81.4207V3.3312ZM86.5071 13.5601C86.4572 13.4728 86.451 13.4043 86.4884 13.3544C86.5258 13.3045 86.5757 13.2796 86.638 13.2796C86.9621 13.2547 87.2426 13.2297 87.4795 13.2048C87.7164 13.1799 87.9034 13.1549 88.0405 13.13C88.4768 13.0552 88.776 12.8807 88.9381 12.6064C89.1126 12.3197 89.1937 11.9083 89.1812 11.3722C89.1687 10.7115 88.988 10.0694 88.6389 9.4461C88.2898 8.82277 87.76 8.16827 87.0494 7.4826C86.8873 7.32053 86.8499 7.15223 86.9372 6.9777C87.3112 6.1923 87.654 5.3882 87.9657 4.5654C88.2898 3.73013 88.589 2.86993 88.8633 1.9848H85.2542V16.3651C85.2542 16.6394 85.142 16.7765 84.9176 16.7765H84.5436C84.4439 16.7765 84.3628 16.7453 84.3005 16.683C84.2382 16.6331 84.207 16.5272 84.207 16.3651V1.2368C84.207 1.0872 84.2382 0.993699 84.3005 0.956299C84.3628 0.906432 84.4439 0.881498 84.5436 0.881498H84.9176C85.0173 0.881498 85.0984 0.900199 85.1607 0.937599C85.223 0.974999 85.2542 1.07473 85.2542 1.2368V1.3864H89.0503L89.1251 1.162C89.2124 0.887732 89.3744 0.794232 89.6113 0.881498C89.711 0.906432 89.7921 0.937599 89.8544 0.974998C89.9292 0.999932 90.0102 1.0311 90.0975 1.0685C90.1972 1.13083 90.2533 1.20563 90.2658 1.2929C90.2783 1.3677 90.272 1.45497 90.2471 1.5547C89.9978 2.2653 89.7297 2.9385 89.443 3.5743C89.1563 4.2101 88.882 4.77733 88.6202 5.276C88.3709 5.77467 88.1465 6.1923 87.947 6.5289C87.7475 6.8655 87.6104 7.0899 87.5356 7.2021C87.6478 7.2769 87.8473 7.4452 88.134 7.707C88.4332 7.9688 88.7324 8.29293 89.0316 8.6794C89.3433 9.06587 89.6175 9.5022 89.8544 9.9884C90.1037 10.4746 90.2284 10.9733 90.2284 11.4844C90.2284 12.2075 90.11 12.7996 89.8731 13.2609C89.6487 13.7222 89.2061 14.0276 88.5454 14.1772C88.3335 14.2395 88.134 14.2832 87.947 14.3081C87.76 14.3206 87.5231 14.3268 87.2364 14.3268C87.0743 14.3517 86.9372 14.2832 86.825 14.1211C86.7627 14.0338 86.7066 13.9528 86.6567 13.878C86.6193 13.7907 86.5694 13.6848 86.5071 13.5601ZM79.0645 13.8406H81.4207V9.1843H79.0645V13.8406ZM79.0645 8.6233H81.4207V3.967H79.0645V8.6233ZM75.6985 13.8406H78.0547V9.1843H75.6985V13.8406ZM75.6985 8.6233H78.0547V3.967H75.6985V8.6233ZM106.778 5.65C106.778 5.5004 106.809 5.40067 106.871 5.3508C106.934 5.30093 107.015 5.276 107.115 5.276H107.47C107.557 5.276 107.632 5.30093 107.694 5.3508C107.769 5.40067 107.806 5.5004 107.806 5.65V16.3838C107.806 16.5334 107.775 16.6331 107.713 16.683C107.651 16.7329 107.57 16.7578 107.47 16.7578H107.115C107.027 16.7578 106.946 16.7329 106.871 16.683C106.809 16.6331 106.778 16.5334 106.778 16.3838V15.8041H101.467V16.309C101.467 16.4586 101.436 16.5583 101.374 16.6082C101.311 16.6581 101.23 16.683 101.131 16.683H100.775C100.688 16.683 100.607 16.6581 100.532 16.6082C100.47 16.5583 100.439 16.4586 100.439 16.309V5.6874C100.439 5.5378 100.47 5.43807 100.532 5.3882C100.594 5.33833 100.675 5.3134 100.775 5.3134H101.131C101.218 5.3134 101.293 5.33833 101.355 5.3882C101.43 5.43807 101.467 5.5378 101.467 5.6874V5.7248H106.778V5.65ZM92.3041 14.0089C92.6781 13.5227 93.0396 13.0116 93.3887 12.4755C93.7378 11.9394 94.0619 11.4034 94.3611 10.8673C94.6603 10.3188 94.9283 9.7827 95.1652 9.2591C95.4145 8.72303 95.6202 8.21813 95.7823 7.7444H92.9025C92.7654 7.7444 92.6968 7.68207 92.6968 7.5574V7.333C92.6968 7.20833 92.7654 7.146 92.9025 7.146H95.9132V5.089C95.9132 4.9394 95.9444 4.83967 96.0067 4.7898C96.069 4.73993 96.1501 4.715 96.2498 4.715H96.6425C96.7298 4.715 96.8046 4.73993 96.8669 4.7898C96.9417 4.83967 96.9791 4.9394 96.9791 5.089V7.146H99.4101C99.5722 7.146 99.6532 7.20833 99.6532 7.333V7.5574C99.6532 7.68207 99.5784 7.7444 99.4288 7.7444H96.9791V9.7266H96.9978C97.5962 10.1255 98.0824 10.4746 98.4564 10.7738C98.8429 11.0605 99.1421 11.341 99.354 11.6153C99.4911 11.7898 99.5348 12.008 99.4849 12.2698C99.4724 12.3446 99.4537 12.4256 99.4288 12.5129C99.4039 12.5877 99.3727 12.65 99.3353 12.6999C99.273 12.7996 99.1795 12.8495 99.0548 12.8495C98.9426 12.8495 98.8491 12.7934 98.7743 12.6812C98.5998 12.4069 98.4439 12.1701 98.3068 11.9706C98.1697 11.7587 98.0325 11.5592 97.8954 11.3722C97.7583 11.1852 97.6149 11.0044 97.4653 10.8299C97.3157 10.6429 97.1536 10.4434 96.9791 10.2315V16.3838C96.9791 16.5334 96.9479 16.6331 96.8856 16.683C96.8233 16.7329 96.7422 16.7578 96.6425 16.7578H96.2498C96.1625 16.7578 96.0815 16.7329 96.0067 16.683C95.9444 16.6331 95.9132 16.5334 95.9132 16.3838V9.8201C95.5018 10.6429 95.0218 11.4345 94.4733 12.195C93.9372 12.9555 93.3139 13.6785 92.6033 14.3642C92.5784 14.3891 92.541 14.3954 92.4911 14.3829C92.4412 14.3704 92.3914 14.3455 92.3415 14.3081C92.3041 14.2707 92.2792 14.2271 92.2667 14.1772C92.2542 14.1149 92.2667 14.0588 92.3041 14.0089ZM101.467 15.2431H106.778V12.6251H101.467V15.2431ZM101.467 8.9038H106.778V6.2858H101.467V8.9038ZM101.467 12.0641H106.778V9.4648H101.467V12.0641ZM92.6968 4.6215C93.2703 4.0605 93.85 3.4247 94.4359 2.7141C95.0218 1.99103 95.508 1.21187 95.8945 0.376598C96.0067 0.127265 96.1875 0.0524653 96.4368 0.152199L96.8108 0.320499C96.8981 0.370366 96.9479 0.438932 96.9604 0.526198C96.9853 0.613466 96.9791 0.694499 96.9417 0.769299C96.7796 1.09343 96.5677 1.43627 96.3059 1.7978H101.28C101.367 1.7978 101.43 1.8165 101.467 1.8539C101.505 1.8913 101.523 1.9287 101.523 1.9661V2.1718C101.523 2.29647 101.442 2.3588 101.28 2.3588H97.4466C97.7707 2.5832 98.0699 2.83253 98.3442 3.1068C98.6185 3.3686 98.8179 3.61793 98.9426 3.8548C98.9675 3.91713 98.9862 3.99817 98.9987 4.0979C99.0236 4.19763 99.0112 4.30983 98.9613 4.4345C98.9239 4.49683 98.8803 4.57163 98.8304 4.6589C98.793 4.74617 98.7307 4.82097 98.6434 4.8833C98.5686 4.94563 98.4751 4.97057 98.3629 4.9581C98.2632 4.94563 98.1821 4.87083 98.1198 4.7337C98.0325 4.5093 97.9453 4.30983 97.858 4.1353C97.7832 3.9483 97.6959 3.76753 97.5962 3.593C97.4965 3.406 97.3843 3.219 97.2596 3.032C97.1349 2.83253 96.9916 2.60813 96.8295 2.3588H95.8945C95.4208 2.94473 94.9159 3.4808 94.3798 3.967C93.8562 4.44073 93.3762 4.80227 92.9399 5.0516C92.8776 5.089 92.8028 5.04537 92.7155 4.9207C92.6407 4.79603 92.6345 4.6963 92.6968 4.6215ZM100.401 4.2849C100.638 4.01063 100.875 3.71143 101.112 3.3873C101.361 3.06317 101.598 2.7328 101.822 2.3962C102.047 2.04713 102.246 1.7043 102.421 1.3677C102.608 1.01863 102.757 0.694499 102.87 0.395299C102.919 0.270633 102.994 0.195832 103.094 0.170899C103.194 0.145966 103.306 0.152199 103.431 0.189598L103.73 0.320499C103.842 0.357898 103.904 0.432698 103.917 0.544898C103.942 0.644632 103.936 0.731898 103.898 0.806698C103.823 0.956299 103.736 1.11213 103.636 1.2742C103.549 1.43627 103.456 1.59833 103.356 1.7604H108.835C108.997 1.7604 109.078 1.82273 109.078 1.9474V2.1531C109.078 2.2653 108.997 2.3214 108.835 2.3214H104.497C104.821 2.5458 105.12 2.79513 105.394 3.0694C105.668 3.3312 105.868 3.58053 105.993 3.8174C106.017 3.87973 106.036 3.96077 106.049 4.0605C106.074 4.16023 106.061 4.27243 106.011 4.3971C105.974 4.45943 105.93 4.53423 105.88 4.6215C105.843 4.70877 105.781 4.78357 105.693 4.8459C105.619 4.90823 105.525 4.93317 105.413 4.9207C105.313 4.90823 105.232 4.83343 105.17 4.6963C105.082 4.4719 104.995 4.27243 104.908 4.0979C104.833 3.9109 104.746 3.73013 104.646 3.5556C104.546 3.3686 104.434 3.1816 104.31 2.9946C104.185 2.79513 104.041 2.57073 103.879 2.3214H102.982C102.658 2.75773 102.302 3.18783 101.916 3.6117C101.529 4.0231 101.124 4.37217 100.7 4.6589C100.675 4.68383 100.638 4.68383 100.588 4.6589C100.538 4.63397 100.495 4.6028 100.457 4.5654C100.42 4.51553 100.395 4.46567 100.383 4.4158C100.37 4.36593 100.376 4.3223 100.401 4.2849ZM127.172 6.9029H122.834C122.697 6.9029 122.628 6.8468 122.628 6.7346V6.4915C122.628 6.36683 122.697 6.3045 122.834 6.3045H127.359L128.332 3.3312H123.806C123.669 3.3312 123.601 3.2751 123.601 3.1629V2.9198C123.601 2.79513 123.669 2.7328 123.806 2.7328H128.537L129.248 0.582299C129.31 0.420232 129.373 0.326732 129.435 0.301799C129.497 0.264399 129.578 0.258165 129.678 0.283098L130.108 0.357898C130.233 0.395299 130.314 0.451399 130.351 0.526198C130.389 0.588532 130.382 0.688265 130.333 0.825399L129.697 2.7328H137.457C137.619 2.7328 137.7 2.79513 137.7 2.9198V3.1629C137.7 3.2751 137.619 3.3312 137.457 3.3312H129.491L128.5 6.3045H138.729C138.891 6.3045 138.972 6.36683 138.972 6.4915V6.7346C138.972 6.8468 138.891 6.9029 138.729 6.9029H128.313L127.415 9.577H134.839C134.889 9.5022 134.933 9.43363 134.97 9.3713C135.02 9.2965 135.064 9.2217 135.101 9.1469C135.176 9.00977 135.263 8.93497 135.363 8.9225C135.463 8.91003 135.562 8.93497 135.662 8.9973C135.7 9.00977 135.743 9.0347 135.793 9.0721C135.855 9.1095 135.918 9.1469 135.98 9.1843C136.042 9.2217 136.098 9.26533 136.148 9.3152C136.198 9.3526 136.236 9.37753 136.261 9.39C136.41 9.51467 136.416 9.66427 136.279 9.8388C136.067 10.1255 135.799 10.4746 135.475 10.886C135.151 11.2849 134.802 11.6963 134.428 12.1202C134.066 12.5316 133.699 12.9368 133.325 13.3357C132.963 13.7222 132.645 14.0463 132.371 14.3081C132.994 14.545 133.53 14.7694 133.979 14.9813C134.428 15.1808 134.74 15.3491 134.914 15.4862C135.001 15.5485 135.064 15.6109 135.101 15.6732C135.139 15.7355 135.157 15.8353 135.157 15.9724C135.157 16.0846 135.151 16.1781 135.139 16.2529C135.126 16.3402 135.107 16.415 135.082 16.4773C135.045 16.5895 134.97 16.6581 134.858 16.683C134.758 16.7204 134.64 16.6955 134.503 16.6082C133.942 16.2716 133.318 15.9288 132.633 15.5797C131.947 15.2431 131.224 14.9065 130.464 14.5699C129.716 14.2208 128.949 13.8842 128.163 13.5601C127.378 13.236 126.618 12.9243 125.882 12.6251C125.845 12.6126 125.826 12.5815 125.826 12.5316C125.826 12.4817 125.832 12.4319 125.845 12.382C125.87 12.3321 125.901 12.2885 125.938 12.2511C125.988 12.2137 126.038 12.2012 126.088 12.2137C126.512 12.3384 126.96 12.4755 127.434 12.6251C127.92 12.7747 128.413 12.9305 128.911 13.0926C129.41 13.2547 129.903 13.423 130.389 13.5975C130.875 13.7596 131.342 13.9216 131.791 14.0837C131.941 13.8842 132.122 13.6349 132.334 13.3357C132.558 13.0365 132.789 12.7124 133.025 12.3633C133.275 12.0142 133.524 11.6527 133.773 11.2787C134.035 10.8922 134.278 10.512 134.503 10.138H127.228L127.135 10.4372C127.073 10.6491 126.929 10.7426 126.705 10.7177L126.331 10.6242C126.231 10.6117 126.156 10.5743 126.106 10.512C126.057 10.4497 126.05 10.3499 126.088 10.2128L127.172 6.9029ZM146.041 7.3517C146.041 7.2021 146.072 7.10237 146.134 7.0525C146.196 6.99017 146.277 6.959 146.377 6.959H146.639C146.726 6.959 146.801 6.98393 146.863 7.0338C146.926 7.08367 146.963 7.17093 146.976 7.2956H150.36V5.9492C149.538 5.9866 148.715 6.01777 147.892 6.0427C147.069 6.05517 146.334 6.05517 145.685 6.0427C145.635 6.0427 145.598 6.01777 145.573 5.9679C145.548 5.90557 145.536 5.84947 145.536 5.7996C145.536 5.73727 145.542 5.68117 145.554 5.6313C145.579 5.58143 145.617 5.5565 145.667 5.5565C146.39 5.5191 147.169 5.47547 148.004 5.4256C148.852 5.36327 149.675 5.2947 150.473 5.2199C151.283 5.1451 152.037 5.06407 152.735 4.9768C153.433 4.88953 154.001 4.79603 154.437 4.6963C154.537 4.67137 154.624 4.67137 154.699 4.6963C154.774 4.72123 154.842 4.75863 154.904 4.8085C155.029 4.93317 155.135 5.0703 155.222 5.2199C155.272 5.2947 155.278 5.3695 155.241 5.4443C155.204 5.50663 155.129 5.55027 155.017 5.5752C154.643 5.63753 154.131 5.69363 153.483 5.7435C152.835 5.79337 152.118 5.84323 151.333 5.8931V7.2956H154.717C154.717 7.05873 154.83 6.9403 155.054 6.9403H155.316C155.416 6.9403 155.497 6.97147 155.559 7.0338C155.621 7.08367 155.652 7.1834 155.652 7.333V10.138C155.652 10.3873 155.54 10.512 155.316 10.512H155.054C154.954 10.512 154.873 10.4871 154.811 10.4372C154.749 10.3873 154.717 10.2876 154.717 10.138V10.1006H151.333V11.5779H155.69V11.5592C155.69 11.4096 155.727 11.3099 155.802 11.26C155.877 11.2101 155.964 11.1852 156.064 11.1852H156.326C156.562 11.1852 156.681 11.3099 156.681 11.5592V14.626C156.681 14.9626 156.668 15.2556 156.644 15.5049C156.619 15.7542 156.562 15.9599 156.475 16.122C156.388 16.2841 156.257 16.415 156.083 16.5147C155.92 16.6144 155.696 16.683 155.409 16.7204C155.272 16.7453 155.166 16.7578 155.091 16.7578C155.017 16.7578 154.911 16.7578 154.774 16.7578C154.649 16.7578 154.562 16.7453 154.512 16.7204C154.462 16.6955 154.412 16.6456 154.362 16.5708C154.325 16.5085 154.281 16.4337 154.231 16.3464C154.194 16.2591 154.163 16.1968 154.138 16.1594C154.063 15.9599 154.131 15.854 154.343 15.8415L154.755 15.8041C154.979 15.7792 155.154 15.748 155.278 15.7106C155.403 15.6732 155.497 15.6109 155.559 15.5236C155.621 15.4363 155.659 15.3179 155.671 15.1683C155.684 15.0312 155.69 14.8379 155.69 14.5886V12.1389H151.333V13.8406L153.595 13.691C153.521 13.5289 153.44 13.3731 153.352 13.2235C153.265 13.0739 153.172 12.9243 153.072 12.7747C153.034 12.7124 153.047 12.65 153.109 12.5877C153.184 12.5254 153.259 12.5129 153.334 12.5503C153.67 12.7872 153.963 13.0365 154.213 13.2983C154.462 13.5476 154.636 13.7596 154.736 13.9341C154.823 14.0712 154.867 14.1959 154.867 14.3081C154.867 14.4078 154.842 14.52 154.792 14.6447C154.742 14.7818 154.68 14.8878 154.605 14.9626C154.53 15.0374 154.437 15.0748 154.325 15.0748C154.213 15.0748 154.131 15.0062 154.082 14.8691C154.032 14.7569 153.982 14.6385 153.932 14.5138C153.895 14.3891 153.845 14.2645 153.782 14.1398C153.421 14.1897 152.966 14.2582 152.417 14.3455C151.869 14.4203 151.302 14.5013 150.716 14.5886C150.13 14.6634 149.55 14.7382 148.977 14.813C148.416 14.8878 147.936 14.9439 147.537 14.9813C147.399 14.9938 147.3 14.9813 147.237 14.9439C147.188 14.9065 147.15 14.8379 147.125 14.7382C147.113 14.6759 147.1 14.6135 147.088 14.5512C147.088 14.4764 147.088 14.4078 147.088 14.3455C147.075 14.2832 147.088 14.2208 147.125 14.1585C147.163 14.0962 147.231 14.065 147.331 14.065L150.36 13.8967V12.1389H146.078V16.4212C146.078 16.6705 145.966 16.7952 145.741 16.7952H145.442C145.342 16.7952 145.261 16.7703 145.199 16.7204C145.137 16.6705 145.106 16.5708 145.106 16.4212V11.5779C145.106 11.4283 145.137 11.3286 145.199 11.2787C145.261 11.2164 145.342 11.1852 145.442 11.1852H145.741C145.841 11.1852 145.922 11.2164 145.985 11.2787C146.047 11.3286 146.078 11.4283 146.078 11.5779H150.36V10.1006H146.976V10.138C146.976 10.3873 146.863 10.512 146.639 10.512H146.377C146.277 10.512 146.196 10.4871 146.134 10.4372C146.072 10.3873 146.041 10.2876 146.041 10.138V7.3517ZM140.786 16.4399C141.359 15.3553 141.814 14.3455 142.151 13.4105C142.488 12.463 142.743 11.5218 142.918 10.5868C143.092 9.63933 143.204 8.67317 143.254 7.6883C143.304 6.69097 143.329 5.60637 143.329 4.4345V0.974998C143.304 0.725665 143.41 0.600999 143.647 0.600999H144.058C144.183 0.613465 144.264 0.657099 144.302 0.731899C144.351 0.794232 144.376 0.875266 144.376 0.974998V1.0685H155.503V1.0311C155.503 0.881498 155.534 0.781765 155.596 0.731899C155.659 0.682032 155.74 0.657099 155.839 0.657099H156.195C156.282 0.657099 156.357 0.682032 156.419 0.731899C156.494 0.781765 156.531 0.881498 156.531 1.0311V3.9109C156.531 4.0605 156.5 4.16023 156.438 4.2101C156.375 4.25997 156.294 4.2849 156.195 4.2849H155.839C155.752 4.2849 155.677 4.2662 155.615 4.2288C155.553 4.1914 155.515 4.10413 155.503 3.967H144.376V4.0418C144.376 5.30093 144.351 6.47903 144.302 7.5761C144.252 8.6607 144.121 9.71413 143.909 10.7364C143.709 11.7587 143.398 12.7622 142.974 13.7471C142.55 14.732 141.964 15.7418 141.216 16.7765C141.179 16.8388 141.129 16.87 141.066 16.87C141.004 16.87 140.948 16.8451 140.898 16.7952C140.848 16.7578 140.811 16.7017 140.786 16.6269C140.761 16.5646 140.761 16.5022 140.786 16.4399ZM144.376 3.406H155.503V1.6295H144.376V3.406ZM146.976 9.5396H150.36V7.8566H146.976V9.5396ZM151.333 9.5396H154.717V7.8566H151.333V9.5396ZM160.159 16.309C161.244 15.4613 162.166 14.6073 162.927 13.7471C163.7 12.8869 164.335 11.9768 164.834 11.0169C165.345 10.057 165.732 9.016 165.993 7.894C166.268 6.75953 166.449 5.49417 166.536 4.0979H161.337C161.2 4.0979 161.131 4.03557 161.131 3.9109V3.6304C161.131 3.50573 161.2 3.4434 161.337 3.4434H166.573L166.629 0.526198C166.629 0.413998 166.66 0.326732 166.723 0.264399C166.785 0.189599 166.866 0.158432 166.966 0.170899H167.396C167.521 0.183365 167.602 0.226999 167.639 0.301799C167.689 0.364132 167.714 0.445165 167.714 0.544898L167.639 3.4434H171.828V3.2751C171.828 3.13797 171.859 3.0507 171.921 3.0133C171.984 2.96343 172.065 2.9385 172.164 2.9385H172.613C172.813 2.95097 172.912 3.08187 172.912 3.3312C172.912 4.4906 172.9 5.64377 172.875 6.7907C172.863 7.93763 172.838 9.00977 172.8 10.0071C172.763 11.0044 172.719 11.902 172.669 12.6999C172.632 13.4853 172.582 14.1086 172.52 14.5699C172.445 15.106 172.295 15.5174 172.071 15.8041C171.859 16.0908 171.485 16.2903 170.949 16.4025C170.75 16.4399 170.488 16.4711 170.164 16.496C169.839 16.5334 169.565 16.5521 169.341 16.5521C169.216 16.5521 169.129 16.5396 169.079 16.5147C169.029 16.4898 168.973 16.4337 168.911 16.3464C168.836 16.2467 168.742 16.0846 168.63 15.8602C168.605 15.7854 168.599 15.7106 168.611 15.6358C168.624 15.5735 168.68 15.5423 168.78 15.5423C168.967 15.5174 169.216 15.4987 169.528 15.4862C169.839 15.4737 170.114 15.4426 170.351 15.3927C170.712 15.3304 170.974 15.2182 171.136 15.0561C171.298 14.9065 171.404 14.6447 171.454 14.2707C171.504 13.8468 171.547 13.3045 171.585 12.6438C171.635 11.9706 171.672 11.1977 171.697 10.325C171.722 9.45233 171.747 8.4924 171.772 7.4452C171.797 6.398 171.815 5.28223 171.828 4.0979H167.62C167.571 5.49417 167.415 6.79693 167.153 8.0062C166.891 9.203 166.48 10.325 165.919 11.3722C165.358 12.4069 164.628 13.3793 163.731 14.2894C162.846 15.187 161.761 16.041 160.477 16.8513C160.415 16.8887 160.352 16.8887 160.29 16.8513C160.228 16.8139 160.178 16.764 160.14 16.7017C160.103 16.6394 160.078 16.5646 160.066 16.4773C160.066 16.4025 160.097 16.3464 160.159 16.309ZM160.383 10.9047C160.346 10.6554 160.415 10.4434 160.589 10.2689C161.026 9.7827 161.406 9.27157 161.73 8.7355C162.054 8.18697 162.372 7.52623 162.684 6.7533C162.696 6.7159 162.733 6.6972 162.796 6.6972C162.858 6.68473 162.914 6.69097 162.964 6.7159C163.026 6.72837 163.076 6.7533 163.114 6.7907C163.164 6.8281 163.182 6.8655 163.17 6.9029C163.095 7.37663 162.995 7.85037 162.871 8.3241C162.746 8.79783 162.596 9.24663 162.422 9.6705C162.247 10.0944 162.054 10.4746 161.842 10.8112C161.63 11.1353 161.406 11.3847 161.169 11.5592C161.069 11.634 160.957 11.6589 160.832 11.634C160.708 11.5966 160.614 11.5156 160.552 11.3909C160.514 11.3161 160.477 11.2351 160.44 11.1478C160.415 11.0605 160.396 10.9795 160.383 10.9047ZM173.455 7.3143C173.43 7.2769 173.43 7.23327 173.455 7.1834C173.48 7.13353 173.517 7.0899 173.567 7.0525C173.617 7.0151 173.667 6.99017 173.717 6.9777C173.779 6.96523 173.823 6.97147 173.847 6.9964C174.084 7.2208 174.327 7.47637 174.577 7.7631C174.839 8.04983 175.082 8.3428 175.306 8.642C175.53 8.9412 175.73 9.23417 175.904 9.5209C176.079 9.79517 176.21 10.032 176.297 10.2315C176.447 10.5182 176.459 10.8112 176.335 11.1104C176.297 11.2226 176.26 11.3099 176.222 11.3722C176.185 11.4345 176.135 11.5031 176.073 11.5779C175.986 11.6776 175.873 11.7275 175.736 11.7275C175.599 11.715 175.499 11.634 175.437 11.4844C175.188 10.7738 174.895 10.0632 174.558 9.3526C174.222 8.642 173.854 7.96257 173.455 7.3143ZM180.205 14.9252C180.205 14.8379 180.224 14.7631 180.262 14.7008C180.311 14.626 180.392 14.5824 180.505 14.5699L180.879 14.5512C181.365 13.9902 181.864 13.3731 182.375 12.6999C182.886 12.0142 183.372 11.3099 183.833 10.5868C184.307 9.85127 184.743 9.12197 185.142 8.3989C185.541 7.66337 185.878 6.96523 186.152 6.3045C186.252 6.09257 186.401 6.01153 186.601 6.0614C186.688 6.0988 186.775 6.1362 186.863 6.1736C186.962 6.211 187.043 6.2484 187.106 6.2858C187.33 6.398 187.386 6.57877 187.274 6.8281C187.075 7.2395 186.807 7.7444 186.47 8.3428C186.133 8.9412 185.728 9.58947 185.254 10.2876C184.793 10.9733 184.27 11.6776 183.684 12.4007C183.11 13.1238 182.481 13.8157 181.795 14.4764L190.509 13.7658C190.21 13.2671 189.892 12.7747 189.555 12.2885C189.219 11.7898 188.832 11.2538 188.396 10.6803C188.371 10.6554 188.371 10.618 188.396 10.5681C188.421 10.5058 188.452 10.4559 188.49 10.4185C188.539 10.3686 188.589 10.3312 188.639 10.3063C188.702 10.2814 188.758 10.2876 188.807 10.325C189.306 10.8611 189.774 11.3847 190.21 11.8958C190.659 12.3945 191.058 12.8744 191.407 13.3357C191.768 13.797 192.074 14.2271 192.323 14.626C192.572 15.0125 192.759 15.3553 192.884 15.6545C192.971 15.854 192.965 16.0721 192.865 16.309C192.778 16.5209 192.685 16.6705 192.585 16.7578C192.498 16.8451 192.404 16.87 192.304 16.8326C192.205 16.8077 192.124 16.7329 192.061 16.6082C191.837 16.1469 191.619 15.7168 191.407 15.3179C191.207 14.9314 191.002 14.5574 190.79 14.1959C189.107 14.4702 187.424 14.732 185.741 14.9813C184.07 15.2182 182.4 15.4301 180.729 15.6171C180.579 15.642 180.474 15.6358 180.411 15.5984C180.349 15.5735 180.305 15.4924 180.28 15.3553C180.255 15.293 180.237 15.2244 180.224 15.1496C180.224 15.0748 180.218 15 180.205 14.9252ZM188.097 0.993699C188.072 0.943832 188.078 0.900199 188.116 0.862799C188.153 0.825398 188.197 0.794232 188.246 0.769299C188.296 0.744366 188.346 0.731899 188.396 0.731899C188.446 0.731899 188.477 0.738132 188.49 0.750599C188.913 1.4986 189.368 2.22167 189.855 2.9198C190.353 3.61793 190.877 4.2662 191.425 4.8646C191.986 5.463 192.572 6.0053 193.183 6.4915C193.807 6.9777 194.455 7.38287 195.128 7.707C195.315 7.79427 195.346 7.91893 195.222 8.081C195.172 8.1558 195.084 8.2493 194.96 8.3615C194.848 8.4737 194.723 8.5859 194.586 8.6981C194.424 8.82277 194.262 8.829 194.1 8.7168C193.551 8.36773 192.996 7.93763 192.435 7.4265C191.887 6.91537 191.351 6.3419 190.827 5.7061C190.316 5.05783 189.824 4.341 189.35 3.5556C188.889 2.7702 188.471 1.91623 188.097 0.993699ZM178.317 8.5859C178.89 8.0997 179.464 7.5761 180.037 7.0151C180.611 6.4541 181.153 5.86817 181.664 5.2573C182.188 4.64643 182.661 4.01687 183.085 3.3686C183.522 2.70787 183.889 2.03467 184.189 1.349C184.288 1.11213 184.469 1.0498 184.731 1.162L185.105 1.3303C185.329 1.43003 185.385 1.60457 185.273 1.8539C185.024 2.3775 184.687 2.9572 184.263 3.593C183.84 4.2288 183.341 4.87083 182.767 5.5191C182.194 6.16737 181.552 6.80317 180.841 7.4265C180.131 8.03737 179.37 8.59213 178.56 9.0908C178.522 9.11573 178.479 9.11573 178.429 9.0908C178.379 9.0534 178.335 9.00977 178.298 8.9599C178.273 8.89757 178.254 8.83523 178.242 8.7729C178.242 8.6981 178.267 8.63577 178.317 8.5859ZM198.045 1.4986C198.045 1.37393 198.108 1.3116 198.232 1.3116H212.8C212.962 1.3116 213.043 1.37393 213.043 1.4986V1.7604C213.043 1.8726 212.962 1.9287 212.8 1.9287H206.105V9.6705H213.697C213.859 9.6705 213.94 9.73283 213.94 9.8575V10.1193C213.94 10.244 213.859 10.3063 213.697 10.3063H206.105V16.4025C206.105 16.5396 206.074 16.6331 206.012 16.683C205.949 16.7453 205.868 16.7765 205.768 16.7765H205.301C205.214 16.7765 205.133 16.7516 205.058 16.7017C204.995 16.6518 204.964 16.5521 204.964 16.4025V10.3063H197.447C197.31 10.3063 197.241 10.244 197.241 10.1193V9.8575C197.241 9.73283 197.31 9.6705 197.447 9.6705H204.964V1.9287H198.232C198.108 1.9287 198.045 1.8726 198.045 1.7604V1.4986ZM207.713 8.1745C208 7.81297 208.274 7.43897 208.536 7.0525C208.798 6.65357 209.041 6.2671 209.265 5.8931C209.49 5.50663 209.689 5.1451 209.864 4.8085C210.051 4.45943 210.2 4.154 210.313 3.8922C210.387 3.73013 210.487 3.64287 210.612 3.6304C210.736 3.60547 210.867 3.63663 211.004 3.7239L211.453 4.0231C211.54 4.12283 211.565 4.22257 211.528 4.3223C211.503 4.42203 211.466 4.52177 211.416 4.6215C211.304 4.8085 211.123 5.07653 210.874 5.4256C210.637 5.7622 210.356 6.12373 210.032 6.5102C209.72 6.89667 209.39 7.2769 209.041 7.6509C208.704 8.0249 208.38 8.3241 208.069 8.5485C207.969 8.6233 207.869 8.6046 207.769 8.4924C207.67 8.36773 207.651 8.26177 207.713 8.1745ZM199.485 3.9483C199.46 3.92337 199.46 3.88597 199.485 3.8361C199.51 3.78623 199.541 3.73637 199.579 3.6865C199.629 3.63663 199.678 3.60547 199.728 3.593C199.791 3.56807 199.841 3.56807 199.878 3.593C200.589 4.27867 201.137 4.8833 201.524 5.4069C201.91 5.91803 202.203 6.38553 202.402 6.8094C202.465 6.9216 202.502 7.0525 202.515 7.2021C202.527 7.33923 202.508 7.47637 202.459 7.6135C202.409 7.7631 202.34 7.894 202.253 8.0062C202.128 8.1558 202.003 8.21813 201.879 8.1932C201.754 8.16827 201.661 8.08723 201.598 7.9501C201.287 7.15223 200.938 6.40423 200.551 5.7061C200.165 5.00797 199.809 4.42203 199.485 3.9483ZM228.713 9.2404C228.713 9.0908 228.744 8.99107 228.807 8.9412C228.869 8.89133 228.95 8.8664 229.05 8.8664H229.443C229.53 8.8664 229.605 8.89133 229.667 8.9412C229.742 8.99107 229.779 9.0908 229.779 9.2404V16.4212C229.779 16.5708 229.748 16.6705 229.686 16.7204C229.623 16.7703 229.542 16.7952 229.443 16.7952H229.05C228.963 16.7952 228.882 16.7703 228.807 16.7204C228.744 16.6705 228.713 16.5708 228.713 16.4212V15.4114H219.606V16.3838C219.606 16.5334 219.575 16.6331 219.513 16.683C219.451 16.7329 219.37 16.7578 219.27 16.7578H218.877C218.79 16.7578 218.709 16.7329 218.634 16.683C218.572 16.6331 218.541 16.5334 218.541 16.3838V9.2217C218.541 9.0721 218.572 8.97237 218.634 8.9225C218.696 8.87263 218.777 8.8477 218.877 8.8477H219.27C219.357 8.8477 219.432 8.87263 219.494 8.9225C219.569 8.97237 219.606 9.0721 219.606 9.2217V9.3713H228.713V9.2404ZM219.606 14.813H228.713V9.9697H219.606V14.813ZM216.932 6.5663C216.92 6.50397 216.939 6.4354 216.988 6.3606C217.038 6.2858 217.107 6.2484 217.194 6.2484L217.905 6.2297C218.391 5.8557 218.902 5.41937 219.438 4.9207C219.974 4.42203 220.492 3.9109 220.99 3.3873C221.501 2.85123 221.969 2.32763 222.393 1.8165C222.829 1.30537 223.184 0.844099 223.459 0.432699C223.558 0.295566 223.658 0.226999 223.758 0.226999C223.87 0.226999 223.988 0.270632 224.113 0.357898C224.188 0.407765 224.244 0.451399 224.281 0.488799C224.331 0.526198 224.4 0.576065 224.487 0.638399C224.574 0.700733 224.618 0.787999 224.618 0.900199C224.618 0.999932 224.581 1.09967 224.506 1.1994C224.194 1.5734 223.82 1.9848 223.384 2.4336C222.947 2.86993 222.474 3.3125 221.963 3.7613C221.464 4.2101 220.947 4.64643 220.411 5.0703C219.887 5.49417 219.382 5.86817 218.896 6.1923L228.975 5.8183C228.614 5.4069 228.227 4.9955 227.816 4.5841C227.417 4.16023 226.999 3.74883 226.563 3.3499C226.538 3.32497 226.532 3.28757 226.544 3.2377C226.557 3.18783 226.582 3.1442 226.619 3.1068C226.656 3.05693 226.7 3.01953 226.75 2.9946C226.8 2.96967 226.837 2.96967 226.862 2.9946C227.174 3.19407 227.56 3.4808 228.021 3.8548C228.495 4.2288 228.963 4.62773 229.424 5.0516C229.898 5.463 230.322 5.86193 230.696 6.2484C231.07 6.63487 231.319 6.9403 231.444 7.1647C231.506 7.25197 231.543 7.3517 231.556 7.4639C231.568 7.56363 231.543 7.70077 231.481 7.8753C231.456 7.92517 231.431 7.98127 231.406 8.0436C231.381 8.10593 231.344 8.16203 231.294 8.2119C231.232 8.29917 231.144 8.33657 231.032 8.3241C230.932 8.29917 230.845 8.2306 230.77 8.1184C230.583 7.84413 230.378 7.5574 230.153 7.2582C229.929 6.959 229.686 6.65357 229.424 6.3419C229.15 6.3793 228.707 6.42293 228.096 6.4728C227.498 6.52267 226.812 6.57877 226.039 6.6411C225.266 6.69097 224.443 6.74707 223.571 6.8094C222.711 6.87173 221.882 6.93407 221.084 6.9964C220.286 7.04627 219.557 7.09613 218.896 7.146C218.248 7.19587 217.749 7.23327 217.4 7.2582C217.263 7.27067 217.163 7.26443 217.101 7.2395C217.051 7.21457 217.013 7.15223 216.988 7.0525L216.932 6.5663Z" fill="black"/>
</svg>
