<svg width="151" height="150" viewBox="0 0 151 150" fill="none" xmlns="http://www.w3.org/2000/svg">
<g clip-path="url(#clip0_578_568)">
<g clip-path="url(#clip1_578_568)">
<path fill-rule="evenodd" clip-rule="evenodd" d="M25.7741 27.3205C26.2706 33.31 23.4624 36.0709 23.4624 36.0709C17.9694 41.4956 18.4895 46.5788 18.4895 46.5788H24.4527C25.1541 42.7172 26.9273 40.613 26.9273 40.613L27.324 27.3205C26.9168 27.3205 25.7741 27.3205 25.7741 27.3205Z" fill="#33D0DE"/>
<path fill-rule="evenodd" clip-rule="evenodd" d="M23.3074 85.395C23.3074 85.395 23.9378 86.6323 25.0333 86.9711L25.7925 87.113L26.268 83.6769C26.268 83.6769 22.6716 83.6349 23.3074 85.395Z" fill="#373B52"/>
<path d="M23.3074 85.395C23.3074 85.395 23.9378 86.6323 25.0333 86.9711L25.7925 87.113L26.268 83.6769C26.268 83.6769 22.6716 83.6349 23.3074 85.395Z" stroke="#373B52" stroke-width="0.683012"/>
<path fill-rule="evenodd" clip-rule="evenodd" d="M29.2811 70.8415C28.3328 67.1638 27.4737 66.507 27.4737 66.507L27.324 63.993C28.2881 59.1358 25.8608 59.6795 25.8608 59.6795C25.8608 59.6795 23.5937 67.4291 23.9221 71.5981C23.9221 71.5981 23.8616 73.9939 26.8827 77.6401L25.3328 87.7986C28.3958 89.937 33.5998 88.2662 33.5998 88.2662L34.4694 77.7584C35.9562 75.289 36.6025 71.2461 36.6025 71.2461L29.2811 70.8415Z" fill="white"/>
<path d="M29.2811 70.8415C28.3328 67.1638 27.4737 66.507 27.4737 66.507L27.324 63.993C28.2881 59.1358 25.8608 59.6795 25.8608 59.6795C25.8608 59.6795 23.5937 67.4291 23.9221 71.5981C23.9221 71.5981 23.8616 73.9939 26.8827 77.6401L25.3328 87.7986C28.3958 89.937 33.5998 88.2662 33.5998 88.2662L34.4694 77.7584C35.9562 75.289 36.6025 71.2461 36.6025 71.2461L29.2811 70.8415Z" stroke="#373B52" stroke-width="0.683012"/>
<path d="M108.4 15.1839H27.2373V71.0123H108.4V15.1839Z" fill="white"/>
<path d="M108.4 15.1839H27.2373V71.0123H108.4V15.1839Z" stroke="#373B52" stroke-width="0.683012"/>
<path fill-rule="evenodd" clip-rule="evenodd" d="M31.3406 28.3266C31.3406 27.8432 31.2592 27.6804 31.2539 27.7119C29.7277 38.0227 27.2951 40.1926 27.2951 40.1926V43.6261C31.9737 39.6357 31.3406 30.6226 31.3406 28.3266Z" fill="#37435C"/>
<path d="M31.3406 28.3266C31.3406 27.8432 31.2592 27.6804 31.2539 27.7119C29.7277 38.0228 27.2951 40.1926 27.2951 40.1926V43.6261C31.9737 39.6357 31.3406 30.6226 31.3406 28.3266Z" stroke="#373B52" stroke-width="0.683012" stroke-miterlimit="10"/>
<path fill-rule="evenodd" clip-rule="evenodd" d="M27.2951 27.6042V39.8669C30.5447 36.3021 31.0228 27.6042 31.0228 27.6042H27.2951Z" fill="white"/>
<path d="M27.2951 27.6042V39.8669C30.5447 36.3021 31.0228 27.6042 31.0228 27.6042H27.2951Z" stroke="#373B52" stroke-width="0.683012"/>
<path d="M68.4334 27.0289C68.9021 27.0289 69.282 26.649 69.282 26.1804C69.282 25.7117 68.9021 25.3319 68.4334 25.3319C67.9648 25.3319 67.5849 25.7117 67.5849 26.1804C67.5849 26.649 67.9648 27.0289 68.4334 27.0289Z" stroke="#373B52" stroke-width="0.683012"/>
<path fill-rule="evenodd" clip-rule="evenodd" d="M84.965 3.41507C84.1062 3.26754 83.2229 3.37802 82.4269 3.73253C81.6309 4.08704 80.9579 4.66966 80.493 5.40669C80.0281 6.14373 79.7923 7.00207 79.8153 7.87316C79.8383 8.74425 80.1191 9.58895 80.6222 10.3004C81.1253 11.0119 81.8281 11.5582 82.6417 11.8702C83.4553 12.1822 84.3432 12.246 85.193 12.0533C86.0429 11.8607 86.8165 11.4204 87.416 10.788C88.0156 10.1557 88.4141 9.35976 88.5613 8.50088C88.7586 7.34959 88.4905 6.16709 87.8161 5.21338C87.1417 4.25966 86.1162 3.61282 84.965 3.41507Z" fill="white"/>
<path d="M84.965 3.41507C84.1062 3.26754 83.2229 3.37802 82.4269 3.73253C81.6309 4.08704 80.9579 4.66966 80.493 5.40669C80.0281 6.14373 79.7923 7.00207 79.8153 7.87316C79.8383 8.74425 80.1191 9.58895 80.6222 10.3004C81.1253 11.0119 81.8281 11.5582 82.6417 11.8702C83.4553 12.1822 84.3432 12.246 85.193 12.0533C86.0429 11.8607 86.8165 11.4204 87.416 10.788C88.0156 10.1557 88.4141 9.35976 88.5613 8.50088C88.7586 7.34959 88.4905 6.16709 87.8161 5.21338C87.1417 4.25966 86.1162 3.61282 84.965 3.41507V3.41507Z" stroke="#373B52" stroke-width="0.683012"/>
<path d="M68.0762 25.7443C68.0762 25.7443 66.873 21.8538 69.4475 19.676C70.3275 18.9299 71.4203 18.3783 73.6191 18.4334C73.6191 18.4334 80.6278 18.9588 81.8599 11.4247" stroke="#373B52" stroke-width="0.683012"/>
<path fill-rule="evenodd" clip-rule="evenodd" d="M23.2128 85.5736L13.9738 126.394L32.6857 106.261L33.7522 87.4781C25.1095 89.0543 23.2128 85.5736 23.2128 85.5736Z" fill="white"/>
<path d="M23.2128 85.5736L13.9738 126.394L32.6857 106.261L33.7522 87.4781C25.1095 89.0543 23.2128 85.5736 23.2128 85.5736Z" stroke="#373B52" stroke-width="0.683012"/>
<path fill-rule="evenodd" clip-rule="evenodd" d="M29.3704 71.2434L36.0009 73.4921L36.5946 71.2434H29.3704Z" fill="#373B52"/>
<path d="M29.3704 71.2434L36.0009 73.4921L36.5946 71.2434H29.3704Z" stroke="#373B52" stroke-width="0.683012"/>
<path fill-rule="evenodd" clip-rule="evenodd" d="M19.9396 101.138C20.3468 102.935 24.0482 112.668 24.0482 112.668L26.8905 110.304C24.6681 107.025 19.9396 101.138 19.9396 101.138Z" fill="#373B52"/>
<path d="M19.9396 101.138C20.3468 102.935 24.0482 112.668 24.0482 112.668L26.8905 110.304C24.6681 107.025 19.9396 101.138 19.9396 101.138Z" stroke="#373B52" stroke-width="0.683012"/>
<path fill-rule="evenodd" clip-rule="evenodd" d="M122.155 94.3371C122.213 93.2496 120.103 93.1366 120.103 93.1366L119.239 93.0788L119.849 96.2312C122.289 95.4037 122.155 94.3371 122.155 94.3371Z" fill="#373B52"/>
<path d="M122.155 94.3371C122.213 93.2496 120.103 93.1366 120.103 93.1366L119.239 93.0788L119.849 96.2312C122.289 95.4037 122.155 94.3371 122.155 94.3371Z" stroke="#373B52" stroke-width="0.683012"/>
<path fill-rule="evenodd" clip-rule="evenodd" d="M113.489 94.3371C113.489 94.3371 111.555 95.0227 111.718 96.0157C112.302 96.4628 113.033 96.673 113.764 96.6042L113.489 94.3371Z" fill="#373B52"/>
<path d="M113.489 94.3371C113.489 94.3371 111.555 95.0227 111.718 96.0157C112.302 96.4628 113.033 96.673 113.764 96.6042L113.489 94.3371Z" stroke="#373B52" stroke-width="0.683012"/>
<path fill-rule="evenodd" clip-rule="evenodd" d="M108.734 66.4387L106.708 67.0613L113.454 85.7101L115.538 85.4553L108.734 66.4387Z" fill="#373B52"/>
<path d="M108.734 66.4387L106.708 67.0613L113.454 85.7101L115.538 85.4553L108.734 66.4387Z" stroke="#373B52" stroke-width="0.683012"/>
<path d="M108.3 71.0096C109.577 71.0096 110.612 69.9746 110.612 68.6979C110.612 67.4212 109.577 66.3862 108.3 66.3862C107.024 66.3862 105.989 67.4212 105.989 68.6979C105.989 69.9746 107.024 71.0096 108.3 71.0096Z" fill="#373B52"/>
<path d="M108.3 71.0096C109.577 71.0096 110.612 69.9746 110.612 68.6979C110.612 67.4212 109.577 66.3862 108.3 66.3862C107.024 66.3862 105.989 67.4212 105.989 68.6979C105.989 69.9746 107.024 71.0096 108.3 71.0096Z" stroke="#373B52" stroke-width="0.683012"/>
<path d="M104.396 68.0991C112.485 67.2118 118.262 59.3772 117.299 50.6C116.337 41.8229 108.999 35.427 100.909 36.3143C92.8201 37.2016 87.043 45.0362 88.0058 53.8134C88.9686 62.5905 96.3067 68.9865 104.396 68.0991Z" fill="#373B52"/>
<path d="M104.396 68.0991C112.485 67.2118 118.262 59.3772 117.299 50.6C116.337 41.8229 108.999 35.427 100.909 36.3143C92.8201 37.2016 87.043 45.0362 88.0058 53.8134C88.9686 62.5905 96.3067 68.9865 104.396 68.0991Z" stroke="#373B52" stroke-width="0.683012"/>
<path d="M105.579 68.0987C113.668 67.2114 119.445 59.3768 118.482 50.5996C117.52 41.8225 110.181 35.4265 102.092 36.3139C94.003 37.2012 88.2259 45.0358 89.1887 53.813C90.1515 62.5901 97.4897 68.986 105.579 68.0987Z" fill="white"/>
<path d="M105.579 68.0987C113.668 67.2114 119.445 59.3768 118.482 50.5996C117.52 41.8225 110.181 35.4265 102.092 36.3139C94.003 37.2012 88.2259 45.0358 89.1887 53.813C90.1515 62.5901 97.4897 68.986 105.579 68.0987Z" stroke="#373B52" stroke-width="0.683012"/>
<path d="M105.464 64.3121C111.263 63.8862 115.569 58.1582 115.082 51.5182C114.594 44.8782 109.497 39.8406 103.698 40.2665C97.8988 40.6924 93.5928 46.4204 94.0804 53.0604C94.568 59.7004 99.6646 64.738 105.464 64.3121Z" fill="#373B52"/>
<path d="M105.464 64.3121C111.263 63.8862 115.569 58.1582 115.082 51.5182C114.594 44.8782 109.497 39.8406 103.698 40.2665C97.8988 40.6924 93.5928 46.4204 94.0804 53.0604C94.568 59.7004 99.6646 64.738 105.464 64.3121Z" stroke="#373B52" stroke-width="0.683012"/>
<path d="M104.485 64.6428C110.284 64.2169 114.59 58.4889 114.102 51.8489C113.615 45.2089 108.518 40.1713 102.719 40.5972C96.9195 41.0231 92.6135 46.7511 93.1012 53.3911C93.5888 60.0311 98.6853 65.0686 104.485 64.6428Z" fill="white"/>
<path d="M104.485 64.6428C110.284 64.2169 114.59 58.4889 114.102 51.8489C113.615 45.2089 108.518 40.1713 102.719 40.5972C96.9195 41.0231 92.6135 46.7511 93.1012 53.3911C93.5888 60.0311 98.6853 65.0686 104.485 64.6428Z" stroke="#373B52" stroke-width="0.683012"/>
<path fill-rule="evenodd" clip-rule="evenodd" d="M100.714 40.9623C95.1182 42.662 91.8766 49.2557 93.4738 55.6891C95.0709 62.1226 100.905 65.9606 106.501 64.2609C107.118 64.0744 108.261 63.5727 108.261 63.3651V41.9107C107.139 41.2345 105.888 40.8008 104.588 40.6375C103.288 40.4741 101.968 40.5848 100.714 40.9623Z" fill="#4C6AFF"/>
<path d="M100.714 40.9623C95.1182 42.662 91.8766 49.2557 93.4738 55.6891C95.0709 62.1226 100.905 65.9606 106.501 64.2609C107.118 64.0744 108.261 63.5727 108.261 63.3651V41.9107C107.139 41.2345 105.888 40.8008 104.588 40.6375C103.288 40.4741 101.968 40.5848 100.714 40.9623V40.9623Z" stroke="#373B52" stroke-width="0.683012"/>
<path fill-rule="evenodd" clip-rule="evenodd" d="M118.714 85.4186L115.905 78.4702L112.322 72.5911C110.355 73.0639 112.498 77.3039 112.498 77.3039C113.333 79.087 114.03 80.9312 114.584 82.8205C114.973 85.4974 113.144 85.9492 113.144 85.9492C113.144 85.9492 110.457 82.3477 110.024 81.909C109.293 81.1708 109.057 80.8319 108.71 81.0815C107.833 81.7277 108.503 83.183 108.503 83.183C108.503 83.183 109.43 85.8836 111.671 90.3126C112.26 91.391 112.786 92.5022 113.247 93.641L113.749 97.1979C113.749 97.1979 115.285 99.7435 120.116 97.1743L118.714 85.4186Z" fill="white"/>
<path d="M118.714 85.4186L115.905 78.4702L112.322 72.5911C110.355 73.0639 112.498 77.3039 112.498 77.3039C113.333 79.087 114.03 80.9312 114.584 82.8205C114.973 85.4974 113.144 85.9492 113.144 85.9492C113.144 85.9492 110.457 82.3477 110.024 81.909C109.293 81.1708 109.057 80.8319 108.71 81.0815C107.833 81.7277 108.503 83.183 108.503 83.183C108.503 83.183 109.43 85.8836 111.671 90.3126C112.26 91.391 112.786 92.5022 113.247 93.641L113.749 97.1979C113.749 97.1979 115.285 99.7435 120.116 97.1743L118.714 85.4186Z" stroke="#373B52" stroke-width="0.683012"/>
<path fill-rule="evenodd" clip-rule="evenodd" d="M122.2 94.4632C122.2 94.4632 121.412 96.4755 116.783 97.1953C115.159 97.458 113.749 97.1953 111.792 96.4886L113.893 112.495L115.874 138.62H137.286L122.2 94.4632Z" fill="white"/>
<path d="M122.2 94.4632C122.2 94.4632 121.412 96.4755 116.783 97.1953C115.159 97.458 113.749 97.1953 111.792 96.4886L113.893 112.495L115.874 138.62H137.286L122.2 94.4632Z" stroke="#373B52" stroke-width="0.683012"/>
<path fill-rule="evenodd" clip-rule="evenodd" d="M58.2934 77.0359L56.0237 68.4746C52.514 68.0648 52.958 70.9282 52.958 70.9282C53.2785 72.9945 54.213 74.9166 55.6401 76.4449C55.6401 76.4449 56.6751 77.3801 57.5368 77.1988C58.6217 76.9703 58.2934 77.0359 58.2934 77.0359Z" fill="white"/>
<path d="M58.2934 77.0359L56.0237 68.4746C52.514 68.0648 52.958 70.9282 52.958 70.9282C53.2785 72.9945 54.213 74.9166 55.6401 76.4449C55.6401 76.4449 56.6751 77.3801 57.5368 77.1988C58.6217 76.9703 58.2934 77.0359 58.2934 77.0359Z" stroke="#373B52" stroke-width="0.683012"/>
<path fill-rule="evenodd" clip-rule="evenodd" d="M78.2583 68.4746L76.7741 77.0359C76.7741 77.0359 76.4431 76.9755 77.5306 77.2014C78.3897 77.3826 79.4247 76.4474 79.4247 76.4474C80.8525 74.919 81.7864 72.9955 82.1042 70.9282C82.1042 70.9282 82.1042 68.0385 78.2583 68.4746Z" fill="white"/>
<path d="M78.2583 68.4746L76.7741 77.0359C76.7741 77.0359 76.4431 76.9755 77.5306 77.2014C78.3897 77.3826 79.4247 76.4474 79.4247 76.4474C80.8525 74.919 81.7864 72.9955 82.1042 70.9282C82.1042 70.9282 82.1042 68.0385 78.2583 68.4746Z" stroke="#373B52" stroke-width="0.683012"/>
<path d="M73.8476 77.225H62.3835V95.8555H73.8476V77.225Z" stroke="#373B52" stroke-width="0.683012"/>
<path fill-rule="evenodd" clip-rule="evenodd" d="M79.2461 95.2224C78.3371 93.8695 75.458 93.0683 75.458 93.0683C68.1629 91.7706 62.4361 93.0131 62.4361 93.0131C57.6287 94.0928 57.6445 95.4194 57.6445 95.4194L57.1007 97.8389L79.8004 97.6103L79.2461 95.2224Z" fill="white"/>
<path d="M79.2461 95.2224C78.3371 93.8695 75.458 93.0683 75.458 93.0683C68.1629 91.7706 62.4361 93.0131 62.4361 93.0131C57.6287 94.0928 57.6445 95.4194 57.6445 95.4194L57.1007 97.8389L79.8004 97.6103L79.2461 95.2224Z" stroke="#373B52" stroke-width="0.683012"/>
<path fill-rule="evenodd" clip-rule="evenodd" d="M69.3503 96.7513L118.01 116.165C107.659 104.477 89.7303 96.7513 69.3503 96.7513Z" fill="white"/>
<path d="M69.3503 96.7513L118.01 116.165C107.659 104.477 89.7303 96.7513 69.3503 96.7513Z" stroke="#373B52" stroke-width="0.683012"/>
<path fill-rule="evenodd" clip-rule="evenodd" d="M23.8065 112.978C15.9991 120.247 11.3257 129.433 11.3257 139.419H44.4807C29.7723 129.32 23.8065 112.978 23.8065 112.978ZM44.6331 139.532V139.419H44.4702L44.6331 139.532ZM69.3266 96.7513L117.986 116.165C107.659 104.477 89.7303 96.7513 69.3503 96.7513H69.3266Z" fill="#FFC470"/>
<path d="M23.8065 112.978C15.9991 120.247 11.3257 129.433 11.3257 139.419H44.4807C29.7723 129.32 23.8065 112.978 23.8065 112.978ZM44.6331 139.532V139.419H44.4702L44.6331 139.532ZM69.3266 96.7513L117.986 116.165C107.659 104.477 89.7303 96.7513 69.3503 96.7513H69.3266Z" stroke="#373B52" stroke-width="0.683012"/>
<path fill-rule="evenodd" clip-rule="evenodd" d="M69.3502 96.7513C51.0613 97.0403 34.4404 103.253 23.8065 112.978C23.8065 112.978 30.7968 130.999 44.6436 139.532L119.707 138.788V118.214C113.856 111.032 98.2758 96.2916 69.3502 96.7513Z" fill="#4C6AFF"/>
<path d="M69.3502 96.7513C51.0613 97.0403 34.4404 103.253 23.8065 112.978C23.8065 112.978 30.7968 130.999 44.6436 139.532L119.707 138.788V118.214C113.856 111.032 98.2758 96.2916 69.3502 96.7513Z" stroke="#373B52" stroke-width="0.683012"/>
<path d="M3.47113 45.1839L19.3748 99.4991C25.0569 122.199 35.7408 133.713 44.6331 139.532C44.6331 139.532 67.3196 155.724 93.3083 139.3" stroke="#373B52" stroke-width="0.683012"/>
<path fill-rule="evenodd" clip-rule="evenodd" d="M68.4676 86.401H68.1812C65.0289 86.3248 62.3704 84.8984 61.4798 83.5954C57.9912 78.4912 55.8003 69.5437 55.5613 68.5402C55.5035 68.2171 54.1086 60.0604 56.4755 57.2285C56.7132 56.9293 57.0174 56.6896 57.364 56.5286C57.7106 56.3676 58.09 56.2898 58.472 56.3012C58.598 56.3012 58.7346 56.3012 58.8581 56.3222L59.2154 56.3616L59.2364 56.0017C59.2522 55.739 59.6541 49.697 64.4142 49.697C64.8598 49.7001 65.3042 49.7467 65.7408 49.8362H65.7644H65.7907C65.8117 49.8362 68.1734 50.028 72.7653 53.6059C74.4392 54.9253 75.9648 56.4227 77.3152 58.0717C80.5306 62.1514 80.239 63.7512 79.4588 68.028L79.38 68.464C79.2959 68.9237 79.2198 69.3572 79.1462 69.7775C78.5578 73.1584 78.0954 75.8195 74.8774 83.5796C73.8266 85.6628 70.8844 86.4115 68.4702 86.4115L68.4676 86.401Z" fill="#373B52"/>
<path d="M64.4116 50.0228C64.8343 50.026 65.2557 50.0699 65.6699 50.1541H65.7119H65.7618C65.7828 50.1541 68.0814 50.3669 72.5578 53.8555C74.2083 55.1555 75.712 56.6319 77.042 58.2583C80.1655 62.2145 79.9028 63.6594 79.12 67.9413L79.0412 68.3774C78.9571 68.8371 78.8809 69.2732 78.8074 69.6909C78.2005 73.1769 77.7566 75.6961 74.5701 83.3984C73.5797 85.345 70.7715 86.0412 68.4676 86.0412H68.1918C65.2522 85.9702 62.6147 84.6357 61.761 83.3853C58.3065 78.331 56.1314 69.4413 55.8923 68.4431C55.4799 66.1287 54.8415 59.6979 56.7356 57.4098C56.9423 57.1504 57.2066 56.9427 57.5075 56.8031C57.8085 56.6636 58.1378 56.5961 58.4694 56.606C58.587 56.6066 58.7045 56.6137 58.8214 56.627L59.5333 56.7005L59.5753 55.986C59.5885 55.7417 59.9799 49.9991 64.4116 49.9991M64.4116 49.3161C59.268 49.3161 58.8949 55.9466 58.8949 55.9466C58.7545 55.9311 58.6133 55.9232 58.472 55.9229C52.9396 55.9229 55.2277 68.5744 55.2277 68.5744C55.2277 68.5744 57.4816 78.3205 61.1988 83.7636C62.2312 85.2714 65.1051 86.6401 68.176 86.7163H68.4702C70.937 86.7163 74.0447 85.9755 75.1927 83.6742C78.8179 74.9343 78.9518 72.6856 79.7163 68.4877C80.5569 63.8511 81.0035 62.1594 77.5832 57.8222C76.2146 56.1607 74.6686 54.6535 72.9729 53.3275C68.2023 49.6103 65.8039 49.4895 65.8039 49.4895C65.3459 49.3935 64.8794 49.3443 64.4116 49.3424V49.3161Z" fill="#373B52"/>
<path fill-rule="evenodd" clip-rule="evenodd" d="M44.6331 139.532C59.3914 148.702 78.9124 149.335 93.3082 139.3C93.3187 139.3 44.5884 139.492 44.6331 139.532Z" fill="white"/>
<path d="M44.6331 139.532C59.3914 148.702 78.9124 149.335 93.3082 139.3C93.3187 139.3 44.5884 139.492 44.6331 139.532Z" stroke="#373B52" stroke-width="0.683012"/>
<path fill-rule="evenodd" clip-rule="evenodd" d="M64.69 139.377C74.7145 137.406 78.4527 132.039 78.9176 131.314C79.07 131.075 79.267 130.747 79.514 130.329C81.1138 127.642 84.8651 121.345 88.2723 121.345C89.0604 121.345 89.7802 121.679 90.4658 122.37C91.7005 123.612 91.8712 125.178 92.0893 127.164C92.2236 128.809 92.5291 130.436 93.0008 132.018C93.6602 134.102 94.338 135.47 95.6777 135.859C96.0805 135.977 96.4979 136.038 96.9176 136.04C100.569 136.04 102.224 131.188 102.292 130.983C105.786 118.81 109.687 112.469 109.727 112.405L109.743 112.379C111.989 107.942 113.804 107.28 114.686 107.28C114.932 107.28 115.175 107.33 115.401 107.427C120.408 109.584 121.346 127.271 121.354 127.45C121.39 127.76 121.419 128.083 121.448 128.43C121.653 130.694 121.961 134.115 124.377 134.115C124.585 134.114 124.792 134.09 124.995 134.044C126.883 133.626 128.328 129.265 128.486 128.769L131.638 118.571V118.553C131.638 118.516 132.353 114.983 133.827 113.926C134.098 113.711 134.431 113.585 134.778 113.567C135.644 113.567 136.136 114.617 136.396 115.487C136.656 116.356 136.934 117.883 137.247 119.606C138.424 126.068 140.284 136.287 145.764 138.975L64.69 139.377Z" fill="white"/>
<path d="M114.689 107.622C114.888 107.621 115.085 107.662 115.267 107.74C119.263 109.461 120.771 122.564 121.015 127.466V127.513C121.046 127.792 121.075 128.117 121.107 128.462C121.322 130.847 121.645 134.456 124.375 134.456C124.607 134.455 124.839 134.429 125.066 134.377C127.099 133.928 128.541 129.715 128.812 128.861L131.943 118.681V118.647V118.613C132.13 117.659 132.86 115.011 133.992 114.197C134.207 114.024 134.471 113.921 134.746 113.903C135.437 113.903 135.852 114.954 136.036 115.579C136.299 116.467 136.561 117.943 136.879 119.661C137.99 125.764 139.703 135.16 144.497 138.633L67.5955 139.019C75.6445 136.671 78.7785 132.163 79.204 131.498C79.3617 131.254 79.5587 130.923 79.8082 130.505C81.3844 127.865 85.0622 121.687 88.2723 121.687C88.9685 121.687 89.6068 121.989 90.2242 122.611C91.3748 123.767 91.5377 125.207 91.7504 127.201C91.8855 128.874 92.1964 130.528 92.6778 132.137C93.3687 134.325 94.0963 135.77 95.5832 136.201C96.0177 136.327 96.4677 136.393 96.9203 136.395C100.89 136.395 102.61 131.141 102.626 131.075C105.408 121.392 108.668 114.757 110.021 112.6L110.037 112.574V112.547C112.283 108.113 114.03 107.635 114.676 107.635M114.676 106.952C113.171 106.952 111.321 108.497 109.422 112.24C109.422 112.24 105.5 118.545 101.954 130.891C101.954 130.891 100.354 135.715 96.9019 135.715C96.5133 135.712 96.1269 135.656 95.754 135.546C94.5955 135.21 93.9676 134.012 93.3082 131.932C91.8976 127.466 92.9089 124.379 90.6813 122.146C89.8932 121.358 89.0736 121.019 88.2434 121.019C84.127 121.019 79.803 129.268 78.5998 131.146C77.3967 133.025 71.6331 139.597 57.3266 139.755L150.059 139.298H148.661C139.362 139.298 138.119 120.15 136.714 115.392C136.257 113.853 135.537 113.228 134.767 113.228C134.349 113.245 133.946 113.393 133.616 113.651C132.017 114.799 131.297 118.476 131.297 118.476L128.171 128.666C128.171 128.666 126.684 133.324 124.932 133.71C124.753 133.751 124.571 133.772 124.388 133.773C121.95 133.773 121.955 129.552 121.706 127.434C121.706 127.434 120.81 109.379 115.546 107.115C115.278 106.998 114.989 106.938 114.697 106.939L114.676 106.952ZM57.3266 139.755H56.8012H57.3266Z" fill="#373B52"/>
<path fill-rule="evenodd" clip-rule="evenodd" d="M5.49126 43.6603C5.19147 43.2597 4.77963 42.957 4.30781 42.7905C3.83599 42.624 3.32539 42.6011 2.84057 42.7248C2.35576 42.8484 1.9185 43.1131 1.5841 43.4853C1.2497 43.8574 1.03317 44.3204 0.961896 44.8157C0.890623 45.3109 0.967806 45.8162 1.18368 46.2675C1.39956 46.7189 1.74444 47.0961 2.17471 47.3515C2.60497 47.6069 3.1013 47.7289 3.60093 47.7022C4.10056 47.6755 4.58105 47.5012 4.98163 47.2014C5.24789 47.0026 5.47233 46.7532 5.64208 46.4675C5.81184 46.1818 5.92359 45.8655 5.97092 45.5366C6.01826 45.2076 6.00026 44.8726 5.91795 44.5506C5.83565 44.2287 5.69065 43.9261 5.49126 43.6603Z" fill="#373B52"/>
<path d="M5.49126 43.6603C5.19147 43.2597 4.77963 42.957 4.30781 42.7905C3.83599 42.624 3.32539 42.6011 2.84057 42.7248C2.35576 42.8484 1.9185 43.1131 1.5841 43.4853C1.2497 43.8574 1.03317 44.3204 0.961896 44.8157C0.890623 45.3109 0.967806 45.8162 1.18368 46.2675C1.39956 46.7189 1.74444 47.0961 2.17471 47.3515C2.60497 47.6069 3.1013 47.7289 3.60093 47.7022C4.10056 47.6755 4.58105 47.5012 4.98163 47.2014C5.24789 47.0026 5.47233 46.7532 5.64208 46.4675C5.81184 46.1818 5.92359 45.8655 5.97092 45.5366C6.01826 45.2076 6.00026 44.8726 5.91795 44.5506C5.83565 44.2287 5.69065 43.9261 5.49126 43.6603V43.6603Z" stroke="#373B52" stroke-width="0.683012"/>
<path d="M143.746 21.9194H133.023V54.9825H143.746V21.9194Z" fill="#FFC470"/>
<path d="M148.33 27.2706H137.607V60.3336H148.33V27.2706Z" stroke="#373B52" stroke-width="0.683012" stroke-miterlimit="10"/>
</g>
</g>
<defs>
<clipPath id="clip0_578_568">
<rect width="150" height="150" fill="white" transform="translate(0.5)"/>
</clipPath>
<clipPath id="clip1_578_568">
<rect width="150" height="150" fill="white" transform="translate(0.5)"/>
</clipPath>
</defs>
</svg>
