<svg width="2516" height="48" viewBox="0 0 2516 48" fill="none" xmlns="http://www.w3.org/2000/svg">
<g clip-path="url(#clip0_8744_1412)">
<rect width="2516" height="48" fill="url(#paint0_linear_8744_1412)"/>
<mask id="mask0_8744_1412" style="mask-type:luminance" maskUnits="userSpaceOnUse" x="0" y="0" width="3837" height="48">
<rect width="3836.9" height="48" fill="white"/>
</mask>
<g mask="url(#mask0_8744_1412)">
<mask id="mask1_8744_1412" style="mask-type:alpha" maskUnits="userSpaceOnUse" x="4" y="0" width="2516" height="48">
<g clip-path="url(#clip1_8744_1412)">
<rect x="4" width="2516" height="48" fill="url(#paint1_linear_8744_1412)"/>
<mask id="mask2_8744_1412" style="mask-type:luminance" maskUnits="userSpaceOnUse" x="4" y="0" width="3837" height="48">
<rect x="4" width="3836.9" height="48" fill="white"/>
</mask>
<g mask="url(#mask2_8744_1412)">
<path d="M88.07 19.004H89.358L91.556 27.39H91.612L93.894 19.004H95.14L97.408 27.39H97.464L99.662 19.004H100.95L98.08 29H96.806L94.538 20.67H94.496L92.214 29H90.94L88.07 19.004ZM106.336 18.808C107.442 18.808 108.38 19.102 109.136 19.69C109.892 20.278 110.34 21.076 110.48 22.07H109.374C109.234 21.342 108.87 20.782 108.31 20.39C107.764 20.012 107.106 19.83 106.322 19.83C105.16 19.83 104.264 20.236 103.634 21.048C103.046 21.804 102.752 22.798 102.752 24.044C102.752 25.29 103.032 26.284 103.62 27.012C104.236 27.782 105.118 28.174 106.294 28.174C107.092 28.174 107.764 27.964 108.324 27.544C108.912 27.096 109.318 26.438 109.514 25.57H110.62C110.396 26.732 109.878 27.642 109.052 28.286C108.282 28.888 107.358 29.196 106.294 29.196C104.74 29.196 103.55 28.678 102.724 27.656C101.968 26.732 101.604 25.528 101.604 24.044C101.604 22.56 101.982 21.342 102.752 20.39C103.592 19.326 104.796 18.808 106.336 18.808ZM115.135 19.004H116.465L120.399 29H119.153L118.089 26.2H113.497L112.433 29H111.201L115.135 19.004ZM113.861 25.234H117.725L115.835 20.236H115.779L113.861 25.234ZM121.088 20.894H122.88V17.73H123.902V20.894H126.758V17.604H127.752V20.894H130.594V17.604H131.588V20.894H133.702V21.86H131.588V26.27H126.758V21.86H123.902V28.832H133.226V29.854H122.88V21.86H121.088V20.894ZM127.752 21.86V25.29H130.594V21.86H127.752ZM136.6 18.108H146.26V23.666H143.572C144.496 24.744 145.938 25.598 147.884 26.228L147.45 27.11C146.092 26.606 144.972 26.004 144.104 25.318V30.428H143.096V25.164H143.922C143.334 24.688 142.872 24.184 142.522 23.666H140.268C139.288 25.01 137.678 26.116 135.438 26.998L134.906 26.116C136.852 25.472 138.294 24.66 139.218 23.666H136.6V18.108ZM145.294 22.77V21.286H141.892V22.77H145.294ZM140.912 22.77V21.286H137.566V22.77H140.912ZM137.566 20.446H140.912V19.004H137.566V20.446ZM141.892 19.004V20.446H145.294V19.004H141.892ZM138.924 25.15H139.932C139.932 26.256 139.764 27.194 139.442 27.964C139.022 28.972 138.056 29.798 136.572 30.442L135.9 29.63C137.16 29.112 138.014 28.468 138.434 27.684C138.742 27.012 138.91 26.172 138.924 25.15ZM159.714 22.784H156.676C155.808 22.784 155.388 22.392 155.388 21.622V21.034C154.814 21.202 154.226 21.37 153.638 21.538L153.092 20.74C153.904 20.53 154.674 20.306 155.388 20.082V17.632H156.368V19.76C157.964 19.172 159.266 18.542 160.288 17.842L160.932 18.514C159.644 19.354 158.132 20.096 156.368 20.712V21.426C156.368 21.748 156.55 21.916 156.942 21.916H159.532C159.84 21.916 160.064 21.846 160.19 21.734C160.358 21.594 160.47 21.16 160.526 20.46L161.45 20.754C161.352 21.72 161.156 22.308 160.876 22.518C160.624 22.686 160.246 22.784 159.714 22.784ZM159.952 23.582V27.754H158.916V24.506H152.182V27.95H151.16V23.582H159.952ZM156.438 27.768C158.244 28.272 159.882 28.902 161.366 29.63L160.806 30.484C159.224 29.658 157.6 29.014 155.934 28.538L156.438 27.768ZM155.066 25.122L156.046 25.206C155.85 27.026 155.416 28.258 154.758 28.902C154.03 29.686 152.406 30.19 149.872 30.4L149.466 29.49C151.72 29.378 153.204 28.986 153.932 28.314C154.576 27.684 154.954 26.62 155.066 25.122ZM151.328 20.362C150.768 20.754 150.152 21.132 149.48 21.482L149.172 20.502C150.894 19.62 152.154 18.612 152.938 17.492L153.764 17.898C153.372 18.5 152.882 19.06 152.308 19.578V22.966H151.328V20.362ZM169.43 17.548L170.382 17.8C170.228 18.528 170.06 19.2 169.864 19.816H175.296C175.296 24.492 175.226 27.376 175.086 28.468C174.932 29.7 174.176 30.316 172.818 30.316C172.622 30.316 172.272 30.302 171.768 30.274L171.53 29.364C171.978 29.392 172.356 29.42 172.678 29.42C173.532 29.42 174.022 28.972 174.148 28.076C174.246 27.292 174.302 24.856 174.33 20.796H173.378C173.07 23.134 172.65 24.982 172.104 26.34C171.46 27.796 170.508 29.112 169.234 30.274L168.618 29.476C169.794 28.412 170.662 27.236 171.25 25.948C171.796 24.646 172.202 22.924 172.468 20.796H171.376C170.816 23.848 169.752 26.06 168.184 27.446L167.526 26.69C168.968 25.458 169.948 23.484 170.48 20.796H169.514C169.136 21.692 168.716 22.42 168.24 23.008L167.498 22.378C168.394 21.258 169.038 19.648 169.43 17.548ZM164.362 21.468C164.208 22.168 164.026 22.854 163.802 23.512L162.92 23.26C163.452 21.776 163.746 20.222 163.816 18.584L164.698 18.654C164.67 19.27 164.614 19.886 164.53 20.488H165.51V17.576H166.49V20.488H167.666V21.468H166.49V24.828C166.882 24.646 167.246 24.464 167.61 24.268V25.22C167.246 25.416 166.868 25.598 166.49 25.78V30.4H165.51V26.2C164.796 26.48 164.068 26.746 163.312 26.984L163.074 26.004C163.914 25.808 164.726 25.556 165.51 25.248V21.468H164.362ZM178.124 17.702C179.076 18.444 179.888 19.172 180.546 19.9L179.832 20.614C179.244 19.914 178.446 19.172 177.424 18.36L178.124 17.702ZM186.3 30.148C185.544 30.148 184.732 30.134 183.85 30.12C182.968 30.106 182.24 30.022 181.68 29.868C181.148 29.7 180.658 29.35 180.224 28.846C180.042 28.608 179.86 28.496 179.692 28.496C179.356 28.496 178.796 29.14 178.012 30.428L177.256 29.742C178.012 28.566 178.67 27.852 179.258 27.6V23.344H177.256V22.42H180.196V27.67C180.308 27.754 180.406 27.852 180.518 27.978C180.854 28.384 181.204 28.678 181.596 28.86C182.016 29.056 182.646 29.168 183.458 29.196C184.186 29.21 185.082 29.224 186.16 29.224C186.832 29.224 187.518 29.21 188.218 29.196C188.89 29.182 189.422 29.168 189.8 29.14L189.548 30.148H186.3ZM182.114 18.36H188.54V19.284H182.114V18.36ZM181.26 21.538H189.562V22.504H185.194C184.424 24.492 183.738 25.906 183.122 26.746C184.942 26.55 186.44 26.298 187.63 26.018C187.294 25.234 186.916 24.478 186.51 23.75L187.336 23.484C188.092 24.772 188.764 26.242 189.352 27.894L188.456 28.132C188.316 27.698 188.162 27.278 187.994 26.886C186.454 27.25 184.438 27.544 181.946 27.782L181.694 26.9C182.282 26.732 183.108 25.262 184.2 22.504H181.26V21.538ZM193.608 21.454H194.546V23.54H195.834V24.45H194.546V26.34C195.022 26.228 195.456 26.116 195.876 26.004V26.956L194.546 27.292V30.4H193.608V27.502C192.81 27.656 191.984 27.796 191.13 27.922L191.004 26.942C191.928 26.83 192.796 26.69 193.608 26.536V24.45H191.424L191.214 23.61C191.606 22.77 191.956 21.72 192.278 20.474H191.116V19.522H192.502C192.642 18.878 192.768 18.22 192.894 17.52L193.818 17.73C193.692 18.36 193.566 18.962 193.44 19.522H195.904V20.474H193.202C192.894 21.622 192.572 22.644 192.222 23.54H193.608V21.454ZM197.738 20.74C197.206 21.23 196.674 21.692 196.128 22.112L195.582 21.272C197.01 20.222 198.298 18.99 199.432 17.59H200.16C201.378 19.102 202.624 20.292 203.898 21.188L203.366 21.986C202.05 21.034 200.86 19.872 199.796 18.5C199.124 19.312 198.452 20.054 197.752 20.726H201.756V21.566H197.738V20.74ZM198.718 30.302H198.046L197.822 29.476L198.438 29.504C198.746 29.504 198.9 29.35 198.9 29.042V27.782H197.332V30.4H196.45V22.686H199.754V29.224C199.754 29.938 199.404 30.302 198.718 30.302ZM197.332 26.998H198.9V25.668H197.332V26.998ZM197.332 24.884H198.9V23.498H197.332V24.884ZM200.594 23.078H201.378V28.104H200.594V23.078ZM202.12 30.33H200.93L200.72 29.448C201.098 29.476 201.462 29.504 201.812 29.504C202.106 29.504 202.26 29.294 202.26 28.902V22.448H203.142V29.126C203.142 29.924 202.792 30.33 202.12 30.33ZM210.842 20.614H214.328C214.86 19.676 215.322 18.668 215.7 17.59L216.624 17.94C216.204 19.004 215.784 19.886 215.336 20.614H217.422V21.566H214.552V21.986C214.552 22.686 214.51 23.344 214.44 23.974H217.66V24.94H214.762C215.098 26.48 216.134 28.048 217.87 29.644L217.17 30.386C215.56 28.79 214.552 27.208 214.146 25.654C213.6 27.81 212.522 29.406 210.926 30.442L210.324 29.644C211.892 28.692 212.9 27.124 213.334 24.94H210.632V23.974H213.474C213.53 23.414 213.572 22.826 213.586 22.21V21.566H210.842V20.614ZM212.228 17.674C212.788 18.5 213.222 19.228 213.53 19.858L212.774 20.376C212.452 19.704 212.018 18.976 211.458 18.164L212.228 17.674ZM205.046 18.136H210.618V19.074H209.708V26.76C210.03 26.648 210.338 26.55 210.646 26.452V27.432C210.338 27.53 210.016 27.628 209.708 27.712V30.47H208.742V27.978C207.622 28.258 206.474 28.524 205.27 28.748L205.018 27.796L205.9 27.656V19.074H205.046V18.136ZM206.866 27.474C207.51 27.334 208.126 27.194 208.742 27.04V24.968H206.866V27.474ZM206.866 24.044H208.742V22.042H206.866V24.044ZM206.866 21.132H208.742V19.074H206.866V21.132ZM220.11 18.066H224.184V24.198H220.11V18.066ZM223.246 23.316V21.496H221.034V23.316H223.246ZM221.034 20.656H223.246V18.948H221.034V20.656ZM226.424 20.782V21.972H229.56V20.782H226.424ZM229.56 19.942V18.738H226.424V19.942H229.56ZM226.34 22.798C226.172 23.848 225.738 24.73 225.024 25.444L224.296 24.786C225.066 24.03 225.458 23.092 225.486 21.944V17.87H230.54V24.114C230.54 24.842 230.106 25.22 229.238 25.22H228.286L228.048 24.324C228.37 24.352 228.664 24.366 228.944 24.366C229.35 24.366 229.56 24.17 229.56 23.778V22.798H226.34ZM230.176 25.766V29.112H231.73V30.022H219.06V29.112H220.628V25.766H230.176ZM221.594 29.112H223.456V26.69H221.594V29.112ZM224.436 29.112H226.312V26.69H224.436V29.112ZM227.292 29.112H229.21V26.69H227.292V29.112ZM242.818 17.52C243.49 18.024 244.064 18.542 244.54 19.06L243.896 19.704H245.604V20.67H241.292C241.39 22.406 241.572 23.778 241.824 24.786C241.908 25.136 242.006 25.458 242.104 25.766C242.804 24.646 243.364 23.33 243.798 21.832L244.708 22.224C244.148 24.072 243.42 25.64 242.524 26.9C242.72 27.348 242.93 27.74 243.154 28.062C243.616 28.734 243.994 29.07 244.274 29.07C244.526 29.056 244.764 28.328 244.974 26.886L245.884 27.39C245.548 29.252 245.072 30.19 244.442 30.19C243.854 30.19 243.224 29.77 242.552 28.93C242.3 28.594 242.062 28.202 241.852 27.768C240.872 28.916 239.724 29.77 238.408 30.358L237.848 29.518C239.248 28.888 240.438 27.964 241.404 26.746C241.208 26.228 241.026 25.668 240.872 25.066C240.564 23.89 240.368 22.42 240.256 20.67H235.454V22.994H238.884C238.856 25.36 238.744 26.886 238.562 27.572C238.38 28.174 237.946 28.482 237.246 28.51C236.91 28.51 236.504 28.482 236.056 28.454L235.748 27.544C236.294 27.572 236.756 27.586 237.134 27.586C237.442 27.572 237.638 27.362 237.722 26.97C237.806 26.494 237.848 25.486 237.876 23.946H235.454V24.366C235.398 26.872 234.838 28.888 233.802 30.4L233.032 29.714C233.928 28.426 234.39 26.648 234.432 24.366V19.704H240.214C240.186 19.004 240.172 18.29 240.172 17.534H241.208C241.208 18.318 241.222 19.032 241.25 19.704H243.868C243.448 19.2 242.888 18.682 242.174 18.136L242.818 17.52ZM258.12 22.644V27.866H257.126V23.568H249.692V28.034H248.698V22.644H258.12ZM249.538 18.08H257.28V21.594H249.538V18.08ZM256.3 20.712V18.976H250.518V20.712H256.3ZM253.024 24.478L254.046 24.562C253.85 26.62 253.416 28.006 252.744 28.734C252.016 29.602 250.35 30.162 247.746 30.4L247.354 29.49C249.622 29.35 251.134 28.902 251.876 28.132C252.52 27.418 252.912 26.2 253.024 24.478ZM254.41 27.726C256.23 28.244 257.896 28.874 259.408 29.602L258.862 30.442C257.252 29.602 255.6 28.958 253.906 28.482L254.41 27.726ZM269.614 20.67L269.432 21.398C269.782 23.036 270.23 24.45 270.79 25.626C271.336 24.212 271.63 22.56 271.686 20.67H269.614ZM270.328 26.634C269.782 25.556 269.32 24.324 268.942 22.924C268.69 23.568 268.41 24.142 268.116 24.646L267.486 23.876C268.312 22.308 268.872 20.194 269.152 17.534L270.132 17.702C270.048 18.416 269.936 19.088 269.824 19.704H273.52V20.67H272.61C272.54 23.008 272.106 25.01 271.322 26.662C272.05 27.922 272.904 28.888 273.912 29.574L273.366 30.4C272.386 29.7 271.546 28.748 270.846 27.572C270.174 28.692 269.306 29.63 268.256 30.386L267.738 29.546C268.83 28.79 269.684 27.824 270.328 26.634ZM263.692 24.072L264.63 24.184C264.532 24.45 264.434 24.702 264.35 24.954H267.276V25.78C266.968 26.704 266.45 27.502 265.722 28.174C266.394 28.482 267.038 28.79 267.654 29.126L267.108 29.91C266.492 29.546 265.778 29.168 264.952 28.804C264.028 29.448 262.866 29.966 261.466 30.358L260.99 29.518C262.138 29.21 263.132 28.832 263.944 28.37C263.328 28.104 262.684 27.838 261.998 27.586C262.362 26.97 262.684 26.396 262.964 25.836H261.312V24.954H263.356C263.482 24.646 263.594 24.352 263.692 24.072ZM264.798 27.782C265.498 27.222 266.03 26.564 266.366 25.836H263.958C263.734 26.312 263.482 26.76 263.202 27.18C263.762 27.376 264.294 27.572 264.798 27.782ZM262.418 17.828C262.754 18.374 263.034 18.962 263.286 19.578L262.558 19.914C262.264 19.228 261.956 18.626 261.62 18.094L262.418 17.828ZM266.674 17.786L267.402 18.122C267.122 18.738 266.772 19.34 266.324 19.928L265.61 19.564C266.058 18.962 266.422 18.374 266.674 17.786ZM261.34 20.25H264.07V17.576H265.008V20.25H267.556V21.132H265.008V21.286C265.764 21.664 266.548 22.098 267.332 22.574L266.814 23.358C266.114 22.798 265.512 22.35 265.008 22.014V23.834H264.07V21.174C263.608 22.28 262.768 23.232 261.564 24.044L261.074 23.232C262.152 22.602 262.908 21.902 263.328 21.132H261.34V20.25ZM276.698 30.274H275.508L275.298 29.322C275.662 29.364 276.026 29.392 276.362 29.392C276.712 29.392 276.894 29.182 276.894 28.79V25.36C276.334 25.57 275.788 25.766 275.242 25.934L274.99 24.954C275.634 24.8 276.278 24.604 276.894 24.38V21.216H275.214V20.25H276.894V17.604H277.874V20.25H279.218V21.216H277.874V23.974C278.322 23.778 278.756 23.568 279.176 23.344V24.338C278.742 24.562 278.308 24.758 277.874 24.954V29.042C277.874 29.854 277.482 30.274 276.698 30.274ZM280.884 24.086C280.716 26.48 280.17 28.58 279.246 30.4L278.462 29.7C279.456 27.852 279.96 25.444 279.974 22.504V18.122H287.352V21.524H284.72V23.176H287.716V24.086H284.72V25.808H287.072V30.4H286.134V29.714H282.34V30.4H281.402V25.808H283.74V24.086H280.884ZM283.74 21.524H280.954V22.504C280.954 22.728 280.94 22.952 280.94 23.176H283.74V21.524ZM282.34 28.818H286.134V26.704H282.34V28.818ZM286.372 19.06H280.954V20.614H286.372V19.06Z" fill="white"/>
</g>
<g clip-path="url(#clip2_8744_1412)">
<path d="M25 24C25 17.9249 29.9249 13 36 13H52C58.0751 13 63 17.9249 63 24C63 30.0751 58.0751 35 52 35H36C29.9249 35 25 30.0751 25 24Z" stroke="white" stroke-width="2"/>
<path d="M35.624 21.52H38.912V20.02C38.072 20.092 37.172 20.128 36.224 20.128L35.84 19C38.432 19 40.616 18.712 42.404 18.148L43.028 19.204C42.212 19.492 41.264 19.72 40.184 19.876V21.52H43.496V22.72H40.184V24.148H42.8V29.248H41.564V28.684H37.628V29.248H36.392V24.148H38.912V22.72H35.624V21.52ZM37.628 27.508H41.564V25.324H37.628V27.508ZM33.656 18.244C34.448 18.76 35.132 19.288 35.696 19.816L34.844 20.656C34.364 20.164 33.692 19.624 32.804 19.048L33.656 18.244ZM33.38 21.1C34.196 21.688 34.892 22.276 35.444 22.864L34.58 23.728C34.088 23.176 33.392 22.588 32.504 21.952L33.38 21.1ZM34.448 24.34L35.588 24.796C35.096 26.32 34.556 27.76 33.956 29.104L32.696 28.552C33.368 27.184 33.956 25.78 34.448 24.34ZM44.996 18.856H49.508V20.044H44.996V18.856ZM44.552 22.084H49.94V23.308H47.252C46.856 24.868 46.508 26.02 46.208 26.788C46.964 26.62 47.708 26.392 48.44 26.128C48.176 25.552 47.912 25.024 47.648 24.52L48.692 24.016C49.22 25 49.748 26.092 50.252 27.292C51.056 25.9 51.464 24.052 51.488 21.772V21.676H50.012V20.476H51.488V18.172H52.736V20.476H55.316C55.316 24.436 55.256 26.884 55.148 27.82C55.004 28.708 54.38 29.152 53.276 29.152C53.084 29.152 52.76 29.128 52.28 29.092L51.992 28C52.412 28.024 52.772 28.048 53.084 28.048C53.588 28.048 53.876 27.784 53.972 27.256C54.044 26.716 54.08 24.856 54.104 21.676H52.736V21.772C52.7 25.216 51.872 27.736 50.24 29.332L49.292 28.504C49.64 28.168 49.94 27.784 50.204 27.364L49.172 27.892C49.076 27.628 48.98 27.388 48.884 27.16C47.624 27.592 46.268 27.928 44.828 28.192L44.54 27.016C44.66 26.98 44.744 26.944 44.792 26.908C45.104 26.452 45.524 25.252 46.04 23.308H44.552V22.084Z" fill="white"/>
</g>
</g>
</mask>
<g mask="url(#mask1_8744_1412)">
<path fill-rule="evenodd" clip-rule="evenodd" d="M884 48H1583V0H920.741L884 48Z" fill="url(#paint2_linear_8744_1412)"/>
<path d="M1034.5 73.13L1034.64 24.4822L1086.5 -5.63004L1086.36 43.0175L1034.5 73.13Z" stroke="#006EFF"/>
<path fill-rule="evenodd" clip-rule="evenodd" d="M1111.36 -11.9614L1058.5 18.7325L1058.36 68.5386L1111.22 37.8444L1111.36 -11.9614Z" fill="#CFE4FF"/>
<path fill-rule="evenodd" clip-rule="evenodd" d="M1097.38 -20L1044.58 10.6937L1058.53 18.75L1111.33 -11.944L1097.38 -20H1097.38Z" fill="#F2F8FF"/>
<path fill-rule="evenodd" clip-rule="evenodd" d="M1044.64 10.6561L1044.5 60.5806L1058.36 68.6561L1058.5 18.7314L1044.64 10.6561Z" fill="white"/>
<path fill-rule="evenodd" clip-rule="evenodd" d="M1047.19 15.1117C1047.64 15.3714 1048.01 16.0014 1048.01 16.5181C1048 17.0348 1047.64 17.2432 1047.19 16.9835C1046.74 16.724 1046.37 16.094 1046.37 15.5774C1046.38 15.0607 1046.74 14.852 1047.19 15.1117Z" fill="#006EFF"/>
<path fill-rule="evenodd" clip-rule="evenodd" d="M1052.75 19.6552L1056.5 21.8262L1056.5 20.6832V20.653L1052.75 18.4821L1052.75 19.6552Z" fill="#006EFF"/>
<path fill-rule="evenodd" clip-rule="evenodd" d="M1056.49 29.1008L1046.75 23.4562L1046.76 20.4061L1056.5 26.0507V26.1291L1056.49 29.1008ZM1046.75 27.8692L1056.49 33.5138L1056.5 30.5422V30.4637L1046.76 24.8192L1046.75 27.8692ZM1056.49 37.9268L1046.75 32.2823L1046.76 29.2322L1056.5 34.877V34.9552L1056.49 37.9268ZM1046.75 36.6962L1056.49 42.3408L1056.5 39.3674V39.2892L1046.76 33.6446L1046.75 36.6962ZM1056.49 46.7531L1046.75 41.1083L1046.76 38.0585L1056.5 43.7031V43.7813L1056.49 46.7531ZM1046.75 45.5213L1056.49 51.1662L1056.5 48.1943V48.1161L1046.76 42.4715L1046.75 45.5213ZM1056.49 55.5792L1046.75 49.9346L1046.76 46.8845L1056.5 52.5291V52.6075L1056.49 55.5792ZM1046.75 54.3476L1056.49 59.9922L1056.5 57.0206V56.9421L1046.76 51.2975L1046.75 54.3476ZM1046.75 58.7615L1056.49 64.4061L1056.5 61.4327V61.3543L1046.76 55.7097L1046.75 58.7615Z" fill="#CFE4FF"/>
<path fill-rule="evenodd" clip-rule="evenodd" d="M1130.86 0.288574L1078 30.9825L1077.86 80.7886L1130.72 50.0944L1130.86 0.288574Z" fill="#CFE4FF"/>
<path fill-rule="evenodd" clip-rule="evenodd" d="M1116.88 -7.75L1064.08 22.9437L1078.03 31L1130.83 0.306004L1116.88 -7.75H1116.88Z" fill="#F2F8FF"/>
<path fill-rule="evenodd" clip-rule="evenodd" d="M1064.14 22.9061L1064 72.8306L1077.86 80.9061L1078 30.9814L1064.14 22.9061Z" fill="white"/>
<path fill-rule="evenodd" clip-rule="evenodd" d="M1066.69 27.3617C1067.14 27.6214 1067.51 28.2514 1067.51 28.7681C1067.5 29.2848 1067.14 29.4932 1066.69 29.2335C1066.24 28.974 1065.87 28.344 1065.87 27.8274C1065.88 27.3107 1066.24 27.102 1066.69 27.3617Z" fill="#006EFF"/>
<path fill-rule="evenodd" clip-rule="evenodd" d="M1072.25 31.9052L1076 34.0762L1076 32.9332V32.903L1072.25 30.7321L1072.25 31.9052Z" fill="#006EFF"/>
<path fill-rule="evenodd" clip-rule="evenodd" d="M1075.99 41.3508L1066.25 35.7062L1066.26 32.6561L1076 38.3007V38.3791L1075.99 41.3508ZM1066.25 40.1192L1075.99 45.7638L1076 42.7922V42.7137L1066.26 37.0692L1066.25 40.1192ZM1075.99 50.1768L1066.25 44.5323L1066.26 41.4822L1076 47.127V47.2052L1075.99 50.1768ZM1066.25 48.9462L1075.99 54.5908L1076 51.6174V51.5392L1066.26 45.8946L1066.25 48.9462ZM1075.99 59.0031L1066.25 53.3583L1066.26 50.3085L1076 55.9531V56.0313L1075.99 59.0031ZM1066.25 57.7713L1075.99 63.4162L1076 60.4443V60.3661L1066.26 54.7215L1066.25 57.7713ZM1075.99 67.8292L1066.25 62.1846L1066.26 59.1345L1076 64.7791V64.8575L1075.99 67.8292ZM1066.25 66.5976L1075.99 72.2422L1076 69.2706V69.1921L1066.26 63.5475L1066.25 66.5976ZM1066.25 71.0115L1075.99 76.6561L1076 73.6827V73.6043L1066.26 67.9597L1066.25 71.0115Z" fill="#CFE4FF"/>
<path fill-rule="evenodd" clip-rule="evenodd" d="M1123.79 11.8446L1119.47 14.3348L1119.49 19.289L1116.61 20.9486L1121.66 23.8255L1126.67 15.1392L1123.8 16.7988L1123.79 11.8446H1123.79Z" fill="#006EFF"/>
<path fill-rule="evenodd" clip-rule="evenodd" d="M1116.16 37.1557C1116.24 36.8246 1116.28 36.4031 1116.28 35.3091C1116.27 34.203 1116.23 33.8381 1116.15 33.6C1115.96 33.0818 1115.56 32.9228 1114.89 33.312C1114.23 33.695 1113.83 34.3125 1113.64 35.0488C1113.57 35.3783 1113.53 35.7893 1113.53 36.8954C1113.53 37.9894 1113.57 38.3648 1113.65 38.6046C1113.84 39.1211 1114.24 39.2798 1114.91 38.897C1115.58 38.5079 1115.98 37.8904 1116.16 37.1557ZM1117.28 32.5934C1117.42 32.9921 1117.46 33.4014 1117.47 34.622C1117.47 35.8408 1117.43 36.2966 1117.29 36.8549C1116.95 38.2867 1116.08 39.4294 1114.91 40.1054C1113.75 40.7755 1112.88 40.6394 1112.52 39.6095C1112.38 39.2108 1112.34 38.8014 1112.34 37.5826C1112.34 36.3621 1112.37 35.9065 1112.51 35.3478C1112.86 33.9162 1113.73 32.7751 1114.89 32.1052C1116.06 31.429 1116.93 31.5635 1117.28 32.5934ZM1123.07 27.5058C1123.13 27.4716 1123.17 27.4944 1123.17 27.5629L1123.17 28.5422C1123.17 28.6107 1123.13 28.6802 1123.07 28.7144L1119.98 30.5009C1119.94 30.5233 1119.92 30.5575 1119.92 30.6037L1119.93 32.5747C1119.93 32.6208 1119.95 32.6311 1119.98 32.6087L1122.59 31.103C1122.65 31.0688 1122.69 31.0916 1122.69 31.1601L1122.7 32.1394C1122.7 32.208 1122.66 32.2774 1122.6 32.3116L1119.99 33.8173C1119.95 33.8397 1119.93 33.874 1119.93 33.9201L1119.94 36.963C1119.94 37.0312 1119.9 37.0988 1119.84 37.1324L1118.87 37.6942C1118.81 37.7286 1118.77 37.7063 1118.77 37.638L1118.75 30.1165C1118.75 30.0479 1118.79 29.9794 1118.84 29.9452L1123.07 27.5058ZM1128.63 24.2934C1128.69 24.2592 1128.73 24.2822 1128.73 24.3505L1128.74 25.3301C1128.74 25.3983 1128.7 25.4678 1128.64 25.502L1125.54 27.2885C1125.5 27.3118 1125.48 27.3451 1125.48 27.3913L1125.49 29.3623C1125.49 29.4084 1125.51 29.4196 1125.55 29.3963L1128.16 27.8906C1128.22 27.8564 1128.26 27.8794 1128.26 27.9477L1128.26 28.9273C1128.26 28.9955 1128.22 29.065 1128.16 29.0992L1125.55 30.6049C1125.51 30.6282 1125.49 30.6616 1125.49 30.7077L1125.5 33.7506C1125.5 33.8188 1125.46 33.8866 1125.4 33.9209L1124.43 34.4818C1124.37 34.5162 1124.33 34.4948 1124.33 34.4265L1124.31 26.905C1124.31 26.8365 1124.35 26.767 1124.41 26.7328L1128.63 24.2934ZM1135.43 27.084C1135.46 26.9763 1135.47 26.878 1135.46 26.172C1135.46 25.4659 1135.45 25.3797 1135.42 25.2942C1135.36 25.1234 1135.19 25.1078 1134.99 25.222C1134.79 25.3422 1134.63 25.5468 1134.56 25.7924C1134.53 25.9121 1134.52 26.0095 1134.52 26.7156C1134.52 27.4216 1134.53 27.5087 1134.56 27.5821C1134.63 27.7587 1134.79 27.7797 1135 27.6595C1135.2 27.5453 1135.37 27.3356 1135.43 27.084ZM1136.2 24.6143C1136.27 24.814 1136.28 24.9104 1136.29 25.6968C1136.29 26.4833 1136.28 26.5918 1136.21 26.8705C1136.05 27.5097 1135.59 28.1425 1135 28.4801C1134.41 28.8236 1133.94 28.7292 1133.78 28.2732C1133.72 28.0684 1133.7 27.9778 1133.7 27.1914C1133.7 26.405 1133.72 26.2906 1133.78 26.0168C1133.93 25.3788 1134.4 24.745 1134.99 24.4013C1135.58 24.0639 1136.04 24.159 1136.2 24.6143ZM1130.61 25.9975C1130.68 26.1741 1130.83 26.196 1131.04 26.0758C1131.24 25.9607 1131.41 25.7508 1131.47 25.4993C1131.5 25.3915 1131.51 25.2931 1131.51 24.5873C1131.5 23.8811 1131.49 23.7949 1131.46 23.7096C1131.4 23.5388 1131.23 23.523 1131.04 23.6381C1130.83 23.7583 1130.67 23.9622 1130.6 24.2078C1130.57 24.3275 1130.56 24.4256 1130.56 25.1319C1130.56 25.8377 1130.58 25.9241 1130.61 25.9975ZM1132.25 25.2859C1132.1 25.9248 1131.63 26.5579 1131.04 26.8962C1130.45 27.2399 1129.99 27.1386 1129.83 26.6835C1129.76 26.4845 1129.75 26.3871 1129.75 25.6007C1129.75 24.8143 1129.76 24.7066 1129.83 24.427C1129.98 23.7881 1130.44 23.1611 1131.03 22.8176C1131.62 22.4791 1132.09 22.5744 1132.25 23.0294C1132.32 23.2294 1132.33 23.3258 1132.33 24.1122C1132.33 24.8986 1132.32 25.0072 1132.25 25.2859ZM1135.35 20.2924C1135.41 20.2582 1135.43 20.3024 1135.4 20.3761L1131.5 30.4113C1131.46 30.5141 1131.42 30.5714 1131.35 30.6119L1130.7 30.9897C1130.64 31.0241 1130.62 30.9771 1130.65 30.9037L1134.54 20.8691C1134.58 20.7673 1134.62 20.71 1134.7 20.6643L1135.35 20.2924Z" fill="#006EFF"/>
</g>
</g>
</g>
<defs>
<linearGradient id="paint0_linear_8744_1412" x1="1270.58" y1="-24.48" x2="1268.75" y2="72.4501" gradientUnits="userSpaceOnUse">
<stop stop-color="#006EFF"/>
<stop offset="1" stop-color="#434CCE"/>
</linearGradient>
<linearGradient id="paint1_linear_8744_1412" x1="1274.58" y1="-24.48" x2="1272.75" y2="72.4501" gradientUnits="userSpaceOnUse">
<stop stop-color="#006EFF"/>
<stop offset="1" stop-color="#434CCE"/>
</linearGradient>
<linearGradient id="paint2_linear_8744_1412" x1="1655.56" y1="48" x2="884" y2="48" gradientUnits="userSpaceOnUse">
<stop stop-color="#3A77FC"/>
<stop offset="1" stop-color="#0BC9CB"/>
</linearGradient>
<clipPath id="clip0_8744_1412">
<rect width="2516" height="48" fill="white"/>
</clipPath>
<clipPath id="clip1_8744_1412">
<rect width="2516" height="48" fill="white" transform="translate(4)"/>
</clipPath>
<clipPath id="clip2_8744_1412">
<rect width="40" height="24" fill="white" transform="translate(24 12)"/>
</clipPath>
</defs>
</svg>
