<svg width="150" height="23" viewBox="0 0 150 23" fill="none" xmlns="http://www.w3.org/2000/svg">
<path d="M22.482 4.991V17.4685C22.482 20.2338 20.2338 22.482 17.4685 22.482H5.01348C3.59712 22.482 2.33813 21.8975 1.41637 20.9532C0.539568 20.0539 0 18.8174 0 17.4685V5.01348C0 4.18165 0.202338 3.41727 0.56205 2.72033C1.39388 1.10163 3.08003 0 5.01348 0H17.4685C20.2338 0 22.482 2.22572 22.482 4.991Z" fill="white"/>
<path d="M8.83508 16.346L14.2083 11.7597L19.7613 7.48808C20.0986 7.2183 20.5932 7.57801 20.4358 7.98269L17.8504 15.042L8.83508 16.346Z" fill="#4C6AFF"/>
<path d="M13.0168 18.7754L17.8504 15.0434L7.17146 5.19629L3.05725 16.5047L12.0725 18.9777C12.3873 19.0677 12.747 18.9777 13.0168 18.7754Z" fill="#4C6AFF"/>
<path d="M7.14927 5.19567L3.03507 16.5041L1.41637 20.9555C0.539568 20.0563 0 18.8198 0 17.4708V5.01581C0 4.18397 0.202338 3.4196 0.56205 2.72266L7.14927 5.19567Z" fill="#4C6AFF"/>
<path d="M7.14936 5.19629L3.03516 16.5047L4.87868 16.9993L7.14936 5.19629Z" fill="#3D55CC"/>
<path d="M17.8285 15.0418L15.1532 11.04L14.2539 11.737L17.8285 15.0418Z" fill="#3D55CC"/>
<path d="M66.9513 11.2641H54.8335L55.0358 10.9943L55.9351 9.75777C55.9576 9.71281 56.025 9.69033 56.07 9.69033H66.007C66.4117 9.69033 66.7489 9.35309 66.7489 8.94841V3.238C66.7489 2.83332 66.4117 2.49609 66.007 2.49609H53.3497C52.945 2.49609 52.6077 2.83332 52.6077 3.238V8.94841C52.6077 9.35309 52.945 9.69033 53.3497 9.69033H54.1365L50.7867 14.2991C50.6968 14.434 50.7867 14.5914 50.9441 14.5914H52.3155C52.3829 14.5914 52.4279 14.5689 52.4728 14.524L53.7094 12.8378C53.7318 12.7928 53.7993 12.7704 53.8443 12.7704H56.2948C56.4297 12.7704 56.5196 12.9277 56.4297 13.0626L51.6185 19.6948C51.5286 19.8297 51.6185 19.9871 51.7759 19.9871H53.1473C53.2148 19.9871 53.2597 19.9646 53.3047 19.9196L58.4755 12.7928H61.3532C61.4881 12.7928 61.5781 12.9502 61.4881 13.0851L56.677 19.7173C56.5871 19.8522 56.677 20.0096 56.8344 20.0096H58.2058C58.2732 20.0096 58.3182 19.9871 58.3631 19.9421L63.534 12.8153H66.007C66.0969 12.8153 66.1869 12.9052 66.1869 12.9952V18.1436C66.1869 18.3459 66.0295 18.5257 65.8047 18.5257H63.7813C63.7138 18.5257 63.6689 18.5482 63.6239 18.5932L62.8146 19.7173C62.7246 19.8522 62.8146 20.0096 62.9719 20.0096H65.8272C66.8613 20.0096 67.6932 19.1777 67.6932 18.1436V12.0509C67.6932 11.6013 67.3559 11.2641 66.9513 11.2641ZM65.2426 4.13728V5.14897C65.2426 5.23889 65.1527 5.32882 65.0628 5.32882H54.2714C54.1815 5.32882 54.0916 5.23889 54.0916 5.14897V4.13728C54.0916 4.04735 54.1815 3.95742 54.2714 3.95742H65.0628C65.1752 3.97991 65.2426 4.04735 65.2426 4.13728ZM54.2714 6.83511H65.0628C65.1527 6.83511 65.2426 6.92504 65.2426 7.01497V8.02666C65.2426 8.11659 65.1527 8.20651 65.0628 8.20651H54.2714C54.1815 8.20651 54.0916 8.11659 54.0916 8.02666V7.01497C54.0916 6.90256 54.1815 6.83511 54.2714 6.83511Z" fill="white"/>
<path d="M46.2452 2.49609H30.2605C29.8558 2.49609 29.5186 2.83332 29.5186 3.238V19.7623C29.5186 19.8747 29.6085 19.9421 29.6984 19.9421H30.8225C30.9349 19.9421 31.0024 19.8522 31.0024 19.7623V4.15975C31.0024 4.06982 31.0923 3.9799 31.1822 3.9799H45.3234C45.4133 3.9799 45.5032 4.06982 45.5032 4.15975V18.166C45.5032 18.3234 45.3684 18.4583 45.211 18.4583H43.1202C43.0527 18.4583 43.0077 18.4808 42.9628 18.5257L42.1534 19.6498C42.0635 19.7847 42.1534 19.9421 42.3108 19.9421H45.1435C46.1552 19.9421 46.9871 19.1103 46.9871 18.0986V3.21551C46.9871 2.83331 46.6498 2.49609 46.2452 2.49609Z" fill="white"/>
<path d="M34.42 6.6788C34.3975 6.61135 34.33 6.58887 34.2626 6.58887H32.9811C32.8462 6.58887 32.7563 6.74624 32.8237 6.85865L35.2293 11.0403L32.8013 15.222C32.7338 15.3568 32.8237 15.4917 32.9586 15.4917H34.2401C34.3076 15.4917 34.375 15.4468 34.3975 15.4018L36.8705 11.1302C36.893 11.0628 36.893 10.9953 36.8705 10.9504L34.42 6.6788Z" fill="white"/>
<path d="M43.4804 15.2415L41.0748 11.0598L43.5028 6.87819C43.5703 6.74329 43.4804 6.6084 43.3455 6.6084H42.064C41.9965 6.6084 41.9291 6.65335 41.9066 6.69832L40.2429 9.57602L38.5793 6.69832C38.5568 6.63087 38.4893 6.6084 38.4219 6.6084H37.1404C37.0055 6.6084 36.9156 6.76578 36.9831 6.87819L39.4111 11.0598L36.9381 15.219C36.8707 15.3539 36.9606 15.4888 37.0955 15.4888H38.3769C38.4444 15.4888 38.5118 15.4438 38.5343 15.3988L40.198 12.5212L41.8617 15.3988C41.8841 15.4663 41.9516 15.4888 42.019 15.4888H43.3005C43.4579 15.5113 43.5478 15.3539 43.4804 15.2415Z" fill="white"/>
<path d="M108.229 6.20467V3.21456C108.229 2.80988 107.891 2.47266 107.487 2.47266H93.8176C93.4129 2.47266 93.0757 2.80988 93.0757 3.21456V12.4771C93.0757 13.5788 92.9183 14.6804 92.5811 15.737L91.367 19.7163C91.3221 19.8288 91.412 19.9636 91.5469 19.9636H92.716C92.8059 19.9636 92.8733 19.9187 92.8958 19.8288L94.0649 15.9618C94.3796 14.9052 94.537 13.8261 94.537 12.7245V6.96905H107.487C107.891 6.94657 108.229 6.60935 108.229 6.20467ZM106.565 5.46276H94.7393C94.6494 5.46276 94.5595 5.37283 94.5595 5.2829V4.13633C94.5595 4.0464 94.6494 3.95648 94.7393 3.95648H106.565C106.655 3.95648 106.745 4.0464 106.745 4.13633V5.2829C106.745 5.39531 106.655 5.46276 106.565 5.46276Z" fill="white"/>
<path d="M95.2108 10.724V11.8257C95.2108 11.9381 95.3232 12.028 95.4356 12.0055L100.269 10.5667C100.359 10.5442 100.404 10.4767 100.404 10.3868V9.91469V9.28519V8.81307C100.404 8.72314 100.337 8.6557 100.269 8.63322L96.0651 7.73394C95.9527 7.71145 95.8403 7.80138 95.8403 7.91379V9.01541C95.8403 9.10534 95.9077 9.17278 95.9752 9.19527L98.0211 9.62242C98.0211 9.62242 98.2009 9.66739 98.0211 9.71235C97.8412 9.75731 95.3457 10.4992 95.3457 10.4992C95.2783 10.5667 95.2108 10.6341 95.2108 10.724Z" fill="white"/>
<path d="M101.102 7.57715C100.989 7.57715 100.922 7.66707 100.922 7.757V11.1068C100.922 11.2192 101.012 11.2867 101.102 11.2867H102.226C102.338 11.2867 102.406 11.1968 102.406 11.1068V7.757C102.406 7.64459 102.316 7.57715 102.226 7.57715H101.102Z" fill="white"/>
<path d="M107.464 9.03867V7.93704C107.464 7.80215 107.352 7.73471 107.239 7.75719L103.035 8.65647C102.945 8.67895 102.9 8.74639 102.9 8.83632V9.30845V9.93795V10.4101C102.9 10.5 102.968 10.5674 103.035 10.5899L107.869 12.0288C107.981 12.0512 108.094 11.9613 108.094 11.8489V10.7248C108.094 10.6349 108.026 10.5674 107.959 10.545C107.959 10.545 105.508 9.82553 105.328 9.78057C105.148 9.73561 105.328 9.64568 105.328 9.64568L107.329 9.21852C107.397 9.19604 107.464 9.12859 107.464 9.03867Z" fill="white"/>
<path d="M108.385 15.6941H102.563C102.473 15.6941 102.383 15.6042 102.383 15.5143V14.4351C102.383 14.3452 102.473 14.2553 102.563 14.2553H107.441C107.554 14.2553 107.621 14.1654 107.621 14.0754V12.9513C107.621 12.8389 107.531 12.7715 107.441 12.7715H102.563C102.473 12.7715 102.383 12.6815 102.383 12.5916V11.9172C102.383 11.8047 102.293 11.7373 102.203 11.7373H101.079C100.966 11.7373 100.899 11.8272 100.899 11.9172V12.5916C100.899 12.6815 100.809 12.7715 100.719 12.7715H97.4143C97.3468 12.7715 97.2569 12.7265 97.2344 12.6591C97.167 12.4342 96.9646 12.2769 96.7173 12.2769H95.9754C95.863 12.2769 95.7955 12.3668 95.7955 12.4567V13.3335V13.6932C95.7955 14.008 96.0428 14.2553 96.3576 14.2553H96.7173H100.742C100.832 14.2553 100.921 14.3452 100.921 14.4351V15.5143C100.921 15.6042 100.832 15.6941 100.742 15.6941H94.9187C94.8063 15.6941 94.7389 15.7841 94.7389 15.874V16.9981C94.7389 17.1105 94.8288 17.1779 94.9187 17.1779H100.742C100.832 17.1779 100.921 17.2679 100.921 17.3578V19.7634C100.921 19.8758 101.011 19.9432 101.101 19.9432H102.225C102.338 19.9432 102.405 19.8533 102.405 19.7634V17.3578C102.405 17.2679 102.495 17.1779 102.585 17.1779H108.385C108.498 17.1779 108.565 17.088 108.565 16.9981V15.874C108.565 15.7616 108.498 15.6941 108.385 15.6941Z" fill="white"/>
<path d="M113.421 14.4325L115.445 8.51977C115.49 8.40736 115.4 8.27246 115.265 8.27246H113.916C113.826 8.27246 113.759 8.31743 113.736 8.40736L111.713 14.3201C111.668 14.4325 111.758 14.5674 111.893 14.5674H113.242C113.331 14.5449 113.399 14.5 113.421 14.4325Z" fill="white"/>
<path d="M127.698 8.40885C127.675 8.34141 127.608 8.27395 127.518 8.27395H126.416C126.327 8.27395 126.237 8.18403 126.237 8.0941V5.30634C126.237 4.90167 125.899 4.56443 125.495 4.56443H119.492C119.402 4.56443 119.312 4.4745 119.312 4.38457V2.58601C119.312 2.58601 119.222 2.49609 119.132 2.49609H117.828C117.716 2.49609 117.648 2.58601 117.648 2.58601V4.38457C117.648 4.4745 117.559 4.56443 117.469 4.56443H113.062C112.95 4.56443 112.882 4.65436 112.882 4.74429V6.04824C112.882 6.16065 112.972 6.2281 113.062 6.2281H117.064H117.446C117.446 6.2281 117.648 6.2281 117.648 6.43044C117.648 6.65526 117.648 6.85759 117.648 6.85759C117.648 9.51047 116.974 12.658 115.693 14.8612L112.792 19.6274C112.725 19.7622 112.815 19.9196 112.95 19.9196H114.478C114.546 19.9196 114.613 19.8747 114.636 19.8297L117.154 15.693C118.57 13.22 119.335 9.80274 119.335 6.83511C119.335 6.83511 119.335 6.72271 119.335 6.43044C119.335 6.13818 119.582 6.18313 119.582 6.18313H119.964H124.416C124.505 6.18313 124.595 6.27306 124.595 6.36298V17.9187C124.595 18.1211 124.438 18.3009 124.213 18.3009H122.46C122.392 18.3009 122.347 18.3234 122.302 18.3684L121.358 19.6723C121.268 19.8072 121.358 19.9646 121.515 19.9646H124.393C125.427 19.9646 126.259 19.1328 126.259 18.0986V9.28564L128.013 14.434C128.035 14.5015 128.103 14.5689 128.193 14.5689H129.541C129.676 14.5689 129.766 14.434 129.721 14.3216L127.698 8.40885Z" fill="white"/>
<path d="M146.515 13.9159C146.492 13.8485 146.425 13.826 146.357 13.826H144.874C144.739 13.826 144.649 13.9833 144.716 14.0958L146.74 18.0526C146.807 18.165 146.717 18.3224 146.582 18.3224H135.948C135.813 18.3224 135.723 18.1875 135.791 18.0526L140.287 9.10475C140.355 8.96986 140.265 8.83496 140.13 8.83496H138.601C138.534 8.83496 138.466 8.87992 138.444 8.94737L133.655 18.3449C133.475 18.6821 133.498 19.1092 133.7 19.4465C133.902 19.7837 134.262 19.986 134.644 19.986H147.886C148.291 19.986 148.651 19.7837 148.853 19.4465C149.055 19.1092 149.078 18.7046 148.875 18.3449L146.515 13.9159Z" fill="white"/>
<path d="M134.15 10.9927L137.545 4.49537C137.612 4.36048 137.522 4.22559 137.387 4.22559H135.858C135.791 4.22559 135.724 4.27056 135.701 4.31552L132.329 10.8128C132.261 10.9477 132.351 11.0826 132.486 11.0826H134.015C134.06 11.1051 134.127 11.0601 134.15 10.9927Z" fill="white"/>
<path d="M149.977 11.4205L146.2 4.31618C145.953 3.82158 145.436 3.50684 144.874 3.50684H139.186C139.073 3.50684 139.006 3.59676 139.006 3.68669V5.05808C139.006 5.17049 139.096 5.23794 139.186 5.23794H144.784C144.851 5.23794 144.918 5.28291 144.941 5.32787L148.223 11.5554C148.246 11.6228 148.313 11.6453 148.381 11.6453H149.797C149.954 11.7128 150.044 11.5554 149.977 11.4205Z" fill="white"/>
<path d="M72.6164 9.84675H86.0156C86.4203 9.84675 86.7575 9.50952 86.7575 9.10484V3.21456C86.7575 2.80988 86.4203 2.47266 86.0156 2.47266H72.6164C72.504 2.47266 72.4365 2.56258 72.4365 2.65251V3.77661C72.4365 3.88902 72.5264 3.95648 72.6164 3.95648H85.0939C85.1838 3.95648 85.2737 4.0464 85.2737 4.13633V5.32787C85.2737 5.4178 85.1838 5.50772 85.0939 5.50772H73.4482C73.3358 5.50772 73.2684 5.59765 73.2684 5.68758V6.81168C73.2684 6.92409 73.3583 6.99154 73.4482 6.99154H85.0939C85.1838 6.99154 85.2737 7.08147 85.2737 7.1714V8.18309C85.2737 8.27302 85.1838 8.36294 85.0939 8.36294H72.6164C72.504 8.36294 72.4365 8.45287 72.4365 8.54279V9.66689C72.4365 9.7793 72.504 9.84675 72.6164 9.84675Z" fill="white"/>
<path d="M88.3317 18.7952C86.6231 17.9858 85.1393 16.9516 83.9477 15.9399C83.8578 15.8725 83.8578 15.7376 83.9477 15.6702L87.0952 12.68C87.1627 12.6126 87.1627 12.5002 87.0952 12.4103L86.3308 11.6009C86.2634 11.5335 86.151 11.5335 86.061 11.6009L82.8236 14.6809C82.7562 14.7484 82.6438 14.7484 82.5763 14.6809C81.2049 13.3095 80.3506 12.1405 80.1033 11.7133V10.3869C80.1033 10.2745 80.0134 10.207 79.9235 10.207H78.7994C78.687 10.207 78.6195 10.297 78.6195 10.3869V11.7133C78.6195 11.9381 78.5745 12.1405 78.4621 12.3428C77.8326 13.5344 75.1348 17.0415 71.3578 18.6153C71.2454 18.6602 71.2004 18.7727 71.2679 18.8851L71.8299 19.9417C71.8749 20.0317 71.9873 20.0541 72.0772 20.0317C75.9891 18.2556 78.3497 15.243 79.3614 13.7592C79.4289 13.6468 79.5862 13.6468 79.6537 13.7592C80.8677 15.5128 83.7679 18.2556 87.365 20.0317C87.4324 20.0766 87.5224 20.0541 87.5898 19.9867L88.3992 19.1324C88.4891 18.9975 88.4666 18.8401 88.3317 18.7952Z" fill="white"/>
<path d="M74.55 14.929C74.6174 14.9965 74.7523 14.9965 74.8198 14.929L75.6067 14.1422C75.6741 14.0747 75.6741 13.9398 75.6067 13.8724L72.9763 11.242C72.9088 11.1745 72.7739 11.1745 72.7065 11.242L71.9196 12.0289C71.8522 12.0963 71.8522 12.2312 71.9196 12.2986L74.55 14.929Z" fill="white"/>
</svg>
