<svg width="48" height="48" viewBox="0 0 48 48" fill="none" xmlns="http://www.w3.org/2000/svg">
<path d="M23.994 0H24.006C37.24 0 48 10.766 48 24C48 37.234 37.238 48 24.006 48C19.126 48 14.598 46.546 10.806 44.036L1.58003 46.984L4.57003 38.066C1.59307 33.9809 -0.00741158 29.0548 2.5804e-05 24C2.5804e-05 10.766 10.762 0 23.994 0ZM17.128 13.192C16.67 12.098 16.322 12.056 15.628 12.028C15.3644 12.0108 15.1002 12.0015 14.836 12C13.932 12 12.988 12.264 12.416 12.846C11.726 13.552 10 15.2 10 18.586C10 21.968 12.474 25.24 12.806 25.698C13.154 26.154 17.63 33.198 24.576 36.068C30.01 38.314 31.622 38.106 32.86 37.842C34.666 37.454 36.93 36.122 37.5 34.516C38.07 32.906 38.07 31.534 37.904 31.242C37.736 30.952 37.278 30.786 36.584 30.438C35.888 30.092 32.512 28.428 31.872 28.206C31.246 27.972 30.65 28.054 30.178 28.72C29.51 29.648 28.858 30.592 28.328 31.16C27.912 31.604 27.23 31.66 26.662 31.424C25.898 31.104 23.758 30.356 21.116 28.012C19.074 26.196 17.684 23.936 17.282 23.258C16.878 22.564 17.24 22.162 17.56 21.788C17.906 21.358 18.24 21.054 18.588 20.652C18.936 20.25 19.128 20.042 19.352 19.57C19.588 19.112 19.422 18.64 19.254 18.294C19.088 17.948 17.698 14.564 17.128 13.194V13.192Z" fill="#5FC375"/>
</svg>
