<svg width="16" height="16" viewBox="0 0 16 16" fill="none" xmlns="http://www.w3.org/2000/svg">
<rect x="2" y="2" width="12" height="12" rx="1" stroke="#A8AAAD" stroke-width="1.2"/>
<path d="M4 7.72222C4 7.59949 4.09949 7.5 4.22222 7.5H11.7778C11.9005 7.5 12 7.59949 12 7.72222V8.47778C12 8.60051 11.9005 8.7 11.7778 8.7H4.22222C4.09949 8.7 4 8.60051 4 8.47778V7.72222Z" fill="#A8AAAD"/>
<path d="M8.27778 4C8.40051 4 8.5 4.09949 8.5 4.22222L8.5 11.7778C8.5 11.9005 8.40051 12 8.27778 12L7.52222 12C7.39949 12 7.3 11.9005 7.3 11.7778L7.3 4.22222C7.3 4.09949 7.39949 4 7.52222 4L8.27778 4Z" fill="#A8AAAD"/>
</svg>
