<svg width="16" height="16" viewBox="0 0 16 16" fill="none" xmlns="http://www.w3.org/2000/svg">
<rect width="16" height="16" rx="2" fill="white"/>
<rect x="0.5" y="0.5" width="15" height="15" rx="1.5" stroke="#262A33" stroke-opacity="0.16"/>
<path d="M4 7.72222C4 7.59949 4.09949 7.5 4.22222 7.5H11.7778C11.9005 7.5 12 7.59949 12 7.72222V8.27778C12 8.40051 11.9005 8.5 11.7778 8.5H4.22222C4.09949 8.5 4 8.40051 4 8.27778V7.72222Z" fill="#A8AAAD"/>
<path d="M8.27778 4C8.40051 4 8.5 4.09949 8.5 4.22222L8.5 11.7778C8.5 11.9005 8.40051 12 8.27778 12L7.72222 12C7.59949 12 7.5 11.9005 7.5 11.7778L7.5 4.22222C7.5 4.09949 7.59949 4 7.72222 4L8.27778 4Z" fill="#A8AAAD"/>
</svg>
