<svg width="60" height="60" viewBox="0 0 60 60" fill="none" xmlns="http://www.w3.org/2000/svg">
<g filter="url(#filter0_d_3841_94630)">
<circle cx="30" cy="25" r="20" fill="#FFB54D"/>
<circle cx="29" cy="20.3125" r="4.0625" fill="white"/>
<path d="M37.125 32.75V30.625C37.125 28.2088 35.1662 26.25 32.75 26.25H25.25C22.8338 26.25 20.875 28.2088 20.875 30.625V32.75C20.875 33.3023 21.3227 33.75 21.875 33.75H36.125C36.6773 33.75 37.125 33.3023 37.125 32.75Z" fill="white"/>
<path fill-rule="evenodd" clip-rule="evenodd" d="M34 22.5C34 22.2239 34.2239 22 34.5 22H39.5C39.7761 22 40 22.2239 40 22.5V23.5C40 23.7761 39.7761 24 39.5 24H34.5C34.2239 24 34 23.7761 34 23.5V22.5Z" fill="white"/>
<path fill-rule="evenodd" clip-rule="evenodd" d="M37.5 20C37.7761 20 38 20.2239 38 20.5L38 25.5C38 25.7761 37.7761 26 37.5 26L36.5 26C36.2239 26 36 25.7761 36 25.5L36 20.5C36 20.2239 36.2239 20 36.5 20L37.5 20Z" fill="white"/>
</g>
<defs>
<filter id="filter0_d_3841_94630" x="0" y="0" width="60" height="60" filterUnits="userSpaceOnUse" color-interpolation-filters="sRGB">
<feFlood flood-opacity="0" result="BackgroundImageFix"/>
<feColorMatrix in="SourceAlpha" type="matrix" values="0 0 0 0 0 0 0 0 0 0 0 0 0 0 0 0 0 0 127 0" result="hardAlpha"/>
<feOffset dy="5"/>
<feGaussianBlur stdDeviation="5"/>
<feComposite in2="hardAlpha" operator="out"/>
<feColorMatrix type="matrix" values="0 0 0 0 0.9625 0 0 0 0 0.604771 0 0 0 0 0.068177 0 0 0 0.23 0"/>
<feBlend mode="normal" in2="BackgroundImageFix" result="effect1_dropShadow_3841_94630"/>
<feBlend mode="normal" in="SourceGraphic" in2="effect1_dropShadow_3841_94630" result="shape"/>
</filter>
</defs>
</svg>
