<svg width="16" height="16" viewBox="0 0 16 16" fill="none" xmlns="http://www.w3.org/2000/svg"><path d="M16 0H0V16H16V0Z" fill="white" fill-opacity="0.01"/><path fill-rule="evenodd" clip-rule="evenodd" d="M3.5 4.33333C3.5 2.76853 4.76852 1.5 6.33333 1.5C7.89814 1.5 9.16667 2.76853 9.16667 4.33333C9.16667 5.89814 7.89814 7.16667 6.33333 7.16667C4.76852 7.16667 3.5 5.89814 3.5 4.33333ZM6.33333 2.5C5.32081 2.5 4.5 3.32081 4.5 4.33333C4.5 5.34586 5.32081 6.16667 6.33333 6.16667C7.34586 6.16667 8.16667 5.34586 8.16667 4.33333C8.16667 3.32081 7.34586 2.5 6.33333 2.5Z" fill="#3C3F47"/><path fill-rule="evenodd" clip-rule="evenodd" d="M12 9.16699C12.2761 9.16699 12.5 9.39085 12.5 9.66699V11.167H14C14.2761 11.167 14.5 11.3908 14.5 11.667C14.5 11.9431 14.2761 12.167 14 12.167H12.5V13.667C12.5 13.9431 12.2761 14.167 12 14.167C11.7239 14.167 11.5 13.9431 11.5 13.667V12.167H10C9.72386 12.167 9.5 11.9431 9.5 11.667C9.5 11.3908 9.72386 11.167 10 11.167H11.5V9.66699C11.5 9.39085 11.7239 9.16699 12 9.16699Z" fill="#3C3F47"/><path fill-rule="evenodd" clip-rule="evenodd" d="M6.24467 8.83301L9 8.83301C9.27614 8.83301 9.5 9.05687 9.5 9.33301C9.5 9.60915 9.27614 9.83301 9 9.83301H6.26667C5.51168 9.83301 4.97552 9.8334 4.55593 9.86768C4.14218 9.90148 3.88601 9.96573 3.68303 10.0691M6.24467 8.83301C5.51658 8.833 4.93958 8.833 4.4745 8.871ZM4.4745 8.871C3.99891 8.90985 3.5965 8.99092 3.22905 9.17813ZM3.22905 9.17813C2.63319 9.48174 2.14874 9.9662 1.84515 10.562ZM3.68303 10.0691C3.27535 10.2769 2.94388 10.6083 2.73615 11.016C2.63273 11.219 2.56848 11.4752 2.53467 11.8889C2.50192 12.2898 2.5001 12.797 2.50001 13.4997H9C9.27614 13.4997 9.5 13.7235 9.5 13.9997C9.5 14.2758 9.27614 14.4997 9 14.4997H2C1.72386 14.4997 1.5 14.2758 1.5 13.9997L1.5 13.5777C1.5 12.8496 1.49999 12.2726 1.53799 11.8075C1.57685 11.3319 1.65792 10.9295 1.84515 10.562" fill="#3C3F47"/><path d="M1.84619 10.5552L3.22656 9.18334C3.22656 9.18334 4.10263 8.90732 4.37109 8.875C4.63956 8.84268 4.75 8.85196 4.75 8.85196H5.11719L6.45312 8.82812L4.30334 9.82152L3.64779 10.095L1.84619 10.5899V10.5552Z" fill="#3C3F47"/></svg>