<svg width="16" height="16" viewBox="0 0 16 16" fill="none" xmlns="http://www.w3.org/2000/svg" color="#262A33">
<path d="M14.4927 10.8828H10.9927V14.3828H14.4927V10.8828Z" stroke="currentColor" stroke-width="1.2"/>
<path fill-rule="evenodd" clip-rule="evenodd" d="M8.59375 13.0293L7.09375 14.0293V12.0293L8.59375 13.0293Z" fill="currentColor" stroke="currentColor"/>
<path d="M12.0273 2.30328C13.6176 2.30328 14.9067 3.7673 14.9067 5.57326C14.9067 7.37922 13.6176 8.84323 12.0273 8.84323L7.99619 8.84317V7.27309L12.0273 7.27365C12.8542 7.27365 13.5246 6.51236 13.5246 5.57326C13.5246 4.69286 12.9354 3.96873 12.1804 3.88165L12.0273 3.87287L7.99619 3.87281V2.30273L12.0273 2.30328ZM7.99619 7.27309V8.84317L3.97313 8.84316C3.1462 8.84316 2.47585 9.60445 2.47585 10.5435C2.47585 11.424 3.06503 12.1481 3.82004 12.2352L3.97313 12.2439L7.99562 12.2432V13.8132L3.97313 13.8135C2.38289 13.8135 1.09375 12.3495 1.09375 10.5435C1.09375 8.73759 2.38289 7.27357 3.97313 7.27357L7.99619 7.27309Z" fill="currentColor"/>
<path d="M4.62628 1.78516H3.44207C2.52644 1.78516 1.78418 2.56866 1.78418 3.53516C1.78418 4.50165 2.52644 5.28516 3.44207 5.28516H4.62628C5.54191 5.28516 6.28418 4.50165 6.28418 3.53516C6.28418 2.56866 5.54191 1.78516 4.62628 1.78516Z" stroke="currentColor" stroke-width="1.2"/>
</svg>
