<svg xmlns="http://www.w3.org/2000/svg" width="80" height="80" fill="none"><mask id="path-1-outside-1_1653_39823" maskUnits="userSpaceOnUse" x="3.34766" y="6.62891" width="71" height="71" fill="black"><rect fill="white" x="3.34766" y="6.62891" width="71" height="71"/><path fill-rule="evenodd" clip-rule="evenodd" d="M71.5797 9.19809C72.3688 9.98723 72.8126 11.2259 73.0177 13.2127C73.1407 14.4317 73.1801 15.9648 73.1252 17.7745C73.0366 20.5832 72.7618 23.1582 72.715 23.5765C72.2811 30.39 69.9046 37.0067 65.84 42.7136C63.3328 46.2525 60.2315 49.3304 56.6738 51.8109C56.714 52.9035 56.7411 57.0781 55.1004 61.7211C52.5747 68.8775 47.3337 73.7296 39.9419 75.7541L38.2094 71.9143C40.9566 70.112 42.5472 68.0055 42.9352 65.6528C43.5537 61.9048 40.9968 58.5062 40.9714 58.4734L40.6588 58.0731L40.5218 58.0469L22.7407 40.2617L22.6989 40.0468L22.6325 40.1288C22.452 39.9943 19.1084 37.5456 15.4227 38.1699C13.0783 38.5669 10.9816 40.155 9.18836 42.8908L5.34766 41.1583C7.90211 31.833 14.1906 27.7675 19.0157 25.9989C23.7579 24.2623 27.9809 24.3747 28.7618 24.4141C31.2739 20.7261 34.4241 17.5162 38.0642 14.9354C43.7736 10.8715 50.3877 8.49426 57.1988 8.06523C57.6171 8.01519 60.1921 7.73711 63.0009 7.65508C64.8088 7.59766 66.3436 7.63539 67.5626 7.76172C69.5527 7.96516 70.7905 8.40894 71.5797 9.19809ZM23.2912 35.5432L25.5126 30.3457C25.7445 29.8049 25.9897 29.2692 26.2484 28.7388C24.2296 28.9089 22.243 29.3504 20.3421 30.0513C17.8227 30.9973 15.6992 32.3503 13.9716 34.1102C14.2292 34.0489 14.4892 33.9967 14.7517 33.9535C18.2504 33.3768 21.3766 34.5408 23.2912 35.5432ZM47.0187 66.9883C48.7889 65.1836 50.1422 62.9543 51.0784 60.3003C51.744 58.3876 52.1667 56.3989 52.3368 54.3809C51.7106 54.6964 51.0757 54.9909 50.432 55.2644L45.3535 57.4349C46.3912 59.2995 47.7595 62.6103 47.1434 66.3443C47.1079 66.5614 47.0663 66.7761 47.0187 66.9883ZM68.4748 23.1424C68.4916 22.9905 68.7508 20.6388 68.848 18.0484C68.9941 14.1659 68.6725 12.7082 68.5265 12.257C68.0728 12.1045 66.6152 11.7829 62.7326 11.9289C60.3486 12.0184 58.1667 12.2471 57.7159 12.2943C57.6627 12.2999 57.6336 12.303 57.6311 12.303L57.5228 12.3128C45.4404 13.065 34.1537 20.9852 29.4378 32.0208L26.7718 38.2593L42.5218 54.0093L48.7561 51.3433C59.7918 46.6273 67.7127 35.3406 68.4641 23.2582L68.474 23.15L68.4748 23.1424ZM10.5566 67.7473L13.0307 70.2214C15.0216 69.8398 16.9877 69.3382 18.9181 68.7194C23.3133 67.3166 26.5536 65.594 28.5445 63.599C30.9348 61.2086 32.0849 58.9618 32.0595 56.7305C32.0398 54.8512 31.1809 53.0883 29.4345 51.3427C27.688 49.5971 25.926 48.7382 24.0467 48.7177C21.8154 48.6955 19.5686 49.844 17.179 52.2327C15.1873 54.2244 13.4646 57.4647 12.0586 61.864C11.4404 63.7932 10.9388 65.7578 10.5566 67.7473ZM20.1945 55.2482C21.6776 53.7651 22.9852 52.9825 23.9786 52.9825H23.9999C24.4503 52.9874 25.1951 53.1359 26.419 54.3598C27.6429 55.5837 27.7906 56.3261 27.7955 56.7789C27.807 57.7739 27.0236 59.0897 25.5298 60.5835C23.3355 62.7778 18.8418 64.3791 15.4966 65.2814C16.4022 61.9362 18.001 57.4425 20.1945 55.2482ZM44.436 37.3269C45.7046 38.3669 47.2946 38.9348 48.935 38.9338C49.866 38.9357 50.7882 38.753 51.6482 38.3964C52.5082 38.0398 53.289 37.5162 53.9454 36.856C55.1051 35.6957 55.8265 34.1693 55.9868 32.5368C56.1472 30.9042 55.7364 29.2666 54.8246 27.9029C53.9128 26.5393 52.5563 25.534 50.9864 25.0584C49.4164 24.5828 47.7302 24.6663 46.2149 25.2947C44.6996 25.9231 43.4491 27.0575 42.6765 28.5046C41.9039 29.9516 41.657 31.6218 41.9778 33.2305C42.2986 34.8393 43.1674 36.2869 44.436 37.3269ZM47.1441 29.6619C47.6489 29.2473 48.2818 29.0206 48.935 29.0204V29.0187C49.3062 29.0178 49.6738 29.0906 50.0167 29.2328C50.3596 29.3751 50.6708 29.5839 50.9324 29.8472C51.3943 30.3091 51.6818 30.9168 51.7459 31.5668C51.81 32.2169 51.6467 32.869 51.2839 33.4122C50.9211 33.9554 50.3811 34.3559 49.7561 34.5457C49.1311 34.7354 48.4596 34.7025 47.8561 34.4527C47.2525 34.2028 46.7543 33.7515 46.4462 33.1755C46.1382 32.5995 46.0393 31.9345 46.1666 31.2938C46.2938 30.6532 46.6393 30.0764 47.1441 29.6619Z"/></mask><path fill-rule="evenodd" clip-rule="evenodd" d="M71.5797 9.19809C72.3688 9.98723 72.8126 11.2259 73.0177 13.2127C73.1407 14.4317 73.1801 15.9648 73.1252 17.7745C73.0366 20.5832 72.7618 23.1582 72.715 23.5765C72.2811 30.39 69.9046 37.0067 65.84 42.7136C63.3328 46.2525 60.2315 49.3304 56.6738 51.8109C56.714 52.9035 56.7411 57.0781 55.1004 61.7211C52.5747 68.8775 47.3337 73.7296 39.9419 75.7541L38.2094 71.9143C40.9566 70.112 42.5472 68.0055 42.9352 65.6528C43.5537 61.9048 40.9968 58.5062 40.9714 58.4734L40.6588 58.0731L40.5218 58.0469L22.7407 40.2617L22.6989 40.0468L22.6325 40.1288C22.452 39.9943 19.1084 37.5456 15.4227 38.1699C13.0783 38.5669 10.9816 40.155 9.18836 42.8908L5.34766 41.1583C7.90211 31.833 14.1906 27.7675 19.0157 25.9989C23.7579 24.2623 27.9809 24.3747 28.7618 24.4141C31.2739 20.7261 34.4241 17.5162 38.0642 14.9354C43.7736 10.8715 50.3877 8.49426 57.1988 8.06523C57.6171 8.01519 60.1921 7.73711 63.0009 7.65508C64.8088 7.59766 66.3436 7.63539 67.5626 7.76172C69.5527 7.96516 70.7905 8.40894 71.5797 9.19809ZM23.2912 35.5432L25.5126 30.3457C25.7445 29.8049 25.9897 29.2692 26.2484 28.7388C24.2296 28.9089 22.243 29.3504 20.3421 30.0513C17.8227 30.9973 15.6992 32.3503 13.9716 34.1102C14.2292 34.0489 14.4892 33.9967 14.7517 33.9535C18.2504 33.3768 21.3766 34.5408 23.2912 35.5432ZM47.0187 66.9883C48.7889 65.1836 50.1422 62.9543 51.0784 60.3003C51.744 58.3876 52.1667 56.3989 52.3368 54.3809C51.7106 54.6964 51.0757 54.9909 50.432 55.2644L45.3535 57.4349C46.3912 59.2995 47.7595 62.6103 47.1434 66.3443C47.1079 66.5614 47.0663 66.7761 47.0187 66.9883ZM68.4748 23.1424C68.4916 22.9905 68.7508 20.6388 68.848 18.0484C68.9941 14.1659 68.6725 12.7082 68.5265 12.257C68.0728 12.1045 66.6152 11.7829 62.7326 11.9289C60.3486 12.0184 58.1667 12.2471 57.7159 12.2943C57.6627 12.2999 57.6336 12.303 57.6311 12.303L57.5228 12.3128C45.4404 13.065 34.1537 20.9852 29.4378 32.0208L26.7718 38.2593L42.5218 54.0093L48.7561 51.3433C59.7918 46.6273 67.7127 35.3406 68.4641 23.2582L68.474 23.15L68.4748 23.1424ZM10.5566 67.7473L13.0307 70.2214C15.0216 69.8398 16.9877 69.3382 18.9181 68.7194C23.3133 67.3166 26.5536 65.594 28.5445 63.599C30.9348 61.2086 32.0849 58.9618 32.0595 56.7305C32.0398 54.8512 31.1809 53.0883 29.4345 51.3427C27.688 49.5971 25.926 48.7382 24.0467 48.7177C21.8154 48.6955 19.5686 49.844 17.179 52.2327C15.1873 54.2244 13.4646 57.4647 12.0586 61.864C11.4404 63.7932 10.9388 65.7578 10.5566 67.7473ZM20.1945 55.2482C21.6776 53.7651 22.9852 52.9825 23.9786 52.9825H23.9999C24.4503 52.9874 25.1951 53.1359 26.419 54.3598C27.6429 55.5837 27.7906 56.3261 27.7955 56.7789C27.807 57.7739 27.0236 59.0897 25.5298 60.5835C23.3355 62.7778 18.8418 64.3791 15.4966 65.2814C16.4022 61.9362 18.001 57.4425 20.1945 55.2482ZM44.436 37.3269C45.7046 38.3669 47.2946 38.9348 48.935 38.9338C49.866 38.9357 50.7882 38.753 51.6482 38.3964C52.5082 38.0398 53.289 37.5162 53.9454 36.856C55.1051 35.6957 55.8265 34.1693 55.9868 32.5368C56.1472 30.9042 55.7364 29.2666 54.8246 27.9029C53.9128 26.5393 52.5563 25.534 50.9864 25.0584C49.4164 24.5828 47.7302 24.6663 46.2149 25.2947C44.6996 25.9231 43.4491 27.0575 42.6765 28.5046C41.9039 29.9516 41.657 31.6218 41.9778 33.2305C42.2986 34.8393 43.1674 36.2869 44.436 37.3269ZM47.1441 29.6619C47.6489 29.2473 48.2818 29.0206 48.935 29.0204V29.0187C49.3062 29.0178 49.6738 29.0906 50.0167 29.2328C50.3596 29.3751 50.6708 29.5839 50.9324 29.8472C51.3943 30.3091 51.6818 30.9168 51.7459 31.5668C51.81 32.2169 51.6467 32.869 51.2839 33.4122C50.9211 33.9554 50.3811 34.3559 49.7561 34.5457C49.1311 34.7354 48.4596 34.7025 47.8561 34.4527C47.2525 34.2028 46.7543 33.7515 46.4462 33.1755C46.1382 32.5995 46.0393 31.9345 46.1666 31.2938C46.2938 30.6532 46.6393 30.0764 47.1441 29.6619Z" fill="url(#paint0_linear_1653_39823)"/><path d="M73.0177 13.2127L74.0126 13.1123L74.0124 13.11L73.0177 13.2127ZM71.5797 9.19809L70.8726 9.90519V9.90519L71.5797 9.19809ZM73.1252 17.7745L74.1247 17.806L74.1247 17.8048L73.1252 17.7745ZM72.715 23.5765L71.7212 23.4654L71.7185 23.4892L71.717 23.513L72.715 23.5765ZM65.84 42.7136L65.0254 42.1335L65.024 42.1355L65.84 42.7136ZM56.6738 51.8109L56.1019 50.9905L55.6544 51.3025L55.6745 51.8476L56.6738 51.8109ZM55.1004 61.7211L54.1576 61.3879L54.1574 61.3882L55.1004 61.7211ZM39.9419 75.7541L39.0304 76.1654L39.3818 76.9444L40.206 76.7186L39.9419 75.7541ZM38.2094 71.9143L37.6609 71.0781L36.9465 71.5467L37.2979 72.3255L38.2094 71.9143ZM42.9352 65.6528L41.9485 65.49L41.9485 65.4901L42.9352 65.6528ZM40.9714 58.4734L41.7618 57.8608L41.7596 57.858L40.9714 58.4734ZM40.6588 58.0731L41.447 57.4577L41.2159 57.1617L40.847 57.091L40.6588 58.0731ZM40.5218 58.0469L39.8146 58.7539L40.0319 58.9712L40.3336 59.029L40.5218 58.0469ZM22.7407 40.2617L21.7592 40.4527L21.8175 40.7526L22.0336 40.9687L22.7407 40.2617ZM22.6989 40.0468L23.6805 39.8557L23.271 37.7518L21.9218 39.4173L22.6989 40.0468ZM22.6325 40.1288L22.0348 40.9305L22.8049 41.5046L23.4095 40.7582L22.6325 40.1288ZM15.4227 38.1699L15.5897 39.1558L15.5897 39.1558L15.4227 38.1699ZM9.18836 42.8908L8.77717 43.8023L9.5562 44.1537L10.0247 43.439L9.18836 42.8908ZM5.34766 41.1583L4.38319 40.8941L4.15739 41.7184L4.93647 42.0698L5.34766 41.1583ZM19.0157 25.9989L18.6718 25.0599L18.6716 25.06L19.0157 25.9989ZM28.7618 24.4141L28.7115 25.4128L29.2722 25.4411L29.5883 24.977L28.7618 24.4141ZM38.0642 14.9354L38.6426 15.7511L38.6441 15.75L38.0642 14.9354ZM57.1988 8.06523L57.2617 9.06326L57.2897 9.06149L57.3176 9.05816L57.1988 8.06523ZM63.0009 7.65508L63.0301 8.65465L63.0326 8.65457L63.0009 7.65508ZM67.5626 7.76172L67.4595 8.75639L67.4609 8.75653L67.5626 7.76172ZM25.5126 30.3457L24.5935 29.9517L24.593 29.9527L25.5126 30.3457ZM23.2912 35.5432L22.8273 36.4292L23.7856 36.9309L24.2107 35.9363L23.2912 35.5432ZM26.2484 28.7388L27.1472 29.177L27.919 27.5944L26.1644 27.7423L26.2484 28.7388ZM20.3421 30.0513L19.9962 29.113L19.9906 29.1151L20.3421 30.0513ZM13.9716 34.1102L13.258 33.4096L10.8273 35.8857L14.2029 35.083L13.9716 34.1102ZM14.7517 33.9535L14.9141 34.9402L14.9144 34.9402L14.7517 33.9535ZM51.0784 60.3003L52.0215 60.6329L52.0229 60.6289L51.0784 60.3003ZM47.0187 66.9883L46.0429 66.7695L45.2751 70.1939L47.7326 67.6885L47.0187 66.9883ZM52.3368 54.3809L53.3333 54.4649L53.4834 52.6833L51.8868 53.4879L52.3368 54.3809ZM50.432 55.2644L50.041 54.344L50.039 54.3448L50.432 55.2644ZM45.3535 57.4349L44.9605 56.5154L43.94 56.9515L44.4797 57.9212L45.3535 57.4349ZM47.1434 66.3443L46.1567 66.1816L46.1565 66.1828L47.1434 66.3443ZM68.848 18.0484L67.8488 18.0109V18.0109L68.848 18.0484ZM68.4748 23.1424L67.4808 23.0328L67.4808 23.0332L68.4748 23.1424ZM68.5265 12.257L69.4779 11.9491L69.3228 11.4698L68.8453 11.3092L68.5265 12.257ZM62.7326 11.9289L62.7701 12.9282L62.7702 12.9282L62.7326 11.9289ZM57.7159 12.2943L57.6116 11.2998V11.2998L57.7159 12.2943ZM57.6311 12.303V11.303H57.5857L57.5406 11.3071L57.6311 12.303ZM57.5228 12.3128L57.5849 13.3109L57.5992 13.31L57.6133 13.3087L57.5228 12.3128ZM29.4378 32.0208L30.3573 32.4138L30.3573 32.4138L29.4378 32.0208ZM26.7718 38.2593L25.8522 37.8663L25.5864 38.4882L26.0646 38.9664L26.7718 38.2593ZM42.5218 54.0093L41.8146 54.7164L42.293 55.1947L42.9149 54.9288L42.5218 54.0093ZM48.7561 51.3433L48.3632 50.4237L48.3629 50.4238L48.7561 51.3433ZM68.4641 23.2582L67.4682 23.1677L67.467 23.1819L67.4661 23.1962L68.4641 23.2582ZM68.474 23.15L67.48 23.0408L67.4789 23.0501L67.4781 23.0594L68.474 23.15ZM13.0307 70.2214L12.3236 70.9285L12.6984 71.3033L13.2189 71.2035L13.0307 70.2214ZM10.5566 67.7473L9.57459 67.5587L9.47456 68.0794L9.84953 68.4544L10.5566 67.7473ZM18.9181 68.7194L18.614 67.7667L18.6128 67.7671L18.9181 68.7194ZM28.5445 63.599L27.8373 62.8919L27.8366 62.8926L28.5445 63.599ZM32.0595 56.7305L31.0595 56.741L31.0596 56.7419L32.0595 56.7305ZM29.4345 51.3427L28.7276 52.05H28.7276L29.4345 51.3427ZM24.0467 48.7177L24.0576 47.7178L24.0566 47.7177L24.0467 48.7177ZM17.179 52.2327L16.472 51.5255L16.4719 51.5256L17.179 52.2327ZM12.0586 61.864L13.0109 62.1692L13.0112 62.1685L12.0586 61.864ZM20.1945 55.2482L19.4874 54.5411L19.4873 54.5412L20.1945 55.2482ZM23.9999 52.9825L24.0108 51.9825H23.9999V52.9825ZM27.7955 56.7789L26.7956 56.7898L26.7956 56.7904L27.7955 56.7789ZM25.5298 60.5835L24.8227 59.8764H24.8227L25.5298 60.5835ZM15.4966 65.2814L14.5313 65.0201L14.0765 66.7002L15.757 66.2469L15.4966 65.2814ZM48.935 38.9338L48.937 37.9338L48.9344 37.9338L48.935 38.9338ZM51.6482 38.3964L52.0312 39.3201H52.0312L51.6482 38.3964ZM53.9454 36.856L53.2381 36.149L53.2363 36.1509L53.9454 36.856ZM54.8246 27.9029L55.6559 27.3471V27.3471L54.8246 27.9029ZM46.2149 25.2947L46.5979 26.2185L46.2149 25.2947ZM42.6765 28.5046L43.5586 28.9755V28.9755L42.6765 28.5046ZM41.9778 33.2305L42.9585 33.0349L41.9778 33.2305ZM48.935 29.0204L48.9353 30.0204L49.935 30.02V29.0204H48.935ZM48.935 29.0187L48.9326 28.0187L47.935 28.021V29.0187H48.935ZM50.0167 29.2328L50.3998 28.3091L50.3998 28.3091L50.0167 29.2328ZM50.9324 29.8472L50.223 30.552L50.2254 30.5544L50.9324 29.8472ZM51.7459 31.5668L52.7411 31.4687V31.4687L51.7459 31.5668ZM51.2839 33.4122L50.4523 32.8568H50.4523L51.2839 33.4122ZM49.7561 34.5457L49.4657 33.5888L49.4656 33.5888L49.7561 34.5457ZM47.8561 34.4527L47.4736 35.3766L47.8561 34.4527ZM46.4462 33.1755L45.5644 33.6471V33.6471L46.4462 33.1755ZM46.1666 31.2938L45.1857 31.099V31.099L46.1666 31.2938ZM74.0124 13.11C73.8003 11.0553 73.3243 9.5285 72.2868 8.49098L70.8726 9.90519C71.4133 10.446 71.8249 11.3965 72.023 13.3154L74.0124 13.11ZM74.1247 17.8048C74.1805 15.9675 74.1414 14.3881 74.0126 13.1123L72.0228 13.3131C72.1401 14.4752 72.1797 15.9622 72.1256 17.7441L74.1247 17.8048ZM73.7088 23.6876C73.7568 23.258 74.0349 20.6531 74.1247 17.806L72.1256 17.7429C72.0383 20.5133 71.7667 23.0583 71.7212 23.4654L73.7088 23.6876ZM66.6545 43.2937C70.8243 37.4392 73.2669 30.6445 73.713 23.6401L71.717 23.513C71.2952 30.1356 68.9849 36.5742 65.0254 42.1335L66.6545 43.2937ZM57.2457 52.6312C60.8982 50.0847 64.082 46.9248 66.6559 43.2917L65.024 42.1355C62.5835 45.5802 59.5649 48.5762 56.1019 50.9905L57.2457 52.6312ZM56.0433 62.0542C57.7428 57.2447 57.7156 52.9291 57.6731 51.7741L55.6745 51.8476C55.7124 52.8779 55.7393 56.9115 54.1576 61.3879L56.0433 62.0542ZM40.206 76.7186C47.9103 74.6085 53.4073 69.523 56.0434 62.0539L54.1574 61.3882C51.7421 68.232 46.7571 72.8507 39.6777 74.7897L40.206 76.7186ZM37.2979 72.3255L39.0304 76.1654L40.8534 75.3429L39.1209 71.503L37.2979 72.3255ZM41.9485 65.4901C41.6212 67.4747 40.2659 69.3692 37.6609 71.0781L38.7579 72.7504C41.6473 70.8549 43.4732 68.5362 43.9219 65.8155L41.9485 65.4901ZM40.181 59.086C40.1569 59.0549 40.7523 59.8393 41.2752 61.0629C41.8008 62.2928 42.2148 63.8763 41.9485 65.49L43.9219 65.8156C44.2741 63.6813 43.7189 61.6916 43.1143 60.2769C42.5071 58.8561 41.8113 57.9248 41.7618 57.8608L40.181 59.086ZM39.8706 58.6885L40.1831 59.0888L41.7596 57.858L41.447 57.4577L39.8706 58.6885ZM40.3336 59.029L40.4706 59.0553L40.847 57.091L40.71 57.0647L40.3336 59.029ZM22.0336 40.9687L39.8146 58.7539L41.229 57.3398L23.4479 39.5547L22.0336 40.9687ZM21.7173 40.2378L21.7592 40.4527L23.7223 40.0706L23.6805 39.8557L21.7173 40.2378ZM23.4095 40.7582L23.476 40.6762L21.9218 39.4173L21.8554 39.4994L23.4095 40.7582ZM15.5897 39.1558C17.1761 38.8871 18.7321 39.2761 19.9567 39.7875C21.1736 40.2958 21.9818 40.8911 22.0348 40.9305L23.2301 39.327C23.1026 39.232 22.1488 38.5357 20.7274 37.942C19.3137 37.3516 17.355 36.8284 15.2557 37.1839L15.5897 39.1558ZM10.0247 43.439C11.7247 40.8454 13.6106 39.491 15.5897 39.1558L15.2558 37.1839C12.546 37.6428 10.2384 39.4646 8.35201 42.3426L10.0247 43.439ZM4.93647 42.0698L8.77717 43.8023L9.59955 41.9792L5.75885 40.2467L4.93647 42.0698ZM18.6716 25.06C13.6331 26.9068 7.04572 31.1742 4.38319 40.8941L6.31213 41.4225C8.7585 32.4917 14.7481 28.6282 19.3599 26.9378L18.6716 25.06ZM28.8122 23.4153C27.9656 23.3726 23.5916 23.2583 18.6718 25.0599L19.3596 26.9379C23.9243 25.2663 27.9962 25.3767 28.7115 25.4128L28.8122 23.4153ZM37.4858 14.1196C33.7486 16.7693 30.5144 20.0648 27.9354 23.8511L29.5883 24.977C32.0334 21.3875 35.0995 18.2632 38.6426 15.7511L37.4858 14.1196ZM57.1359 7.06721C50.1333 7.50831 43.3409 9.95199 37.4843 14.1207L38.6441 15.75C44.2062 11.7911 50.6422 9.48021 57.2617 9.06326L57.1359 7.06721ZM62.9717 6.6555C60.1234 6.73869 57.5168 7.02007 57.08 7.07231L57.3176 9.05816C57.7175 9.01032 60.2608 8.73553 63.0301 8.65465L62.9717 6.6555ZM67.6657 6.76705C66.3873 6.63456 64.8045 6.59729 62.9691 6.65558L63.0326 8.65457C64.8132 8.59802 66.3 8.63622 67.4595 8.75639L67.6657 6.76705ZM72.2868 8.49098C71.2491 7.45327 69.7229 6.97734 67.6643 6.7669L67.4609 8.75653C69.3825 8.95297 70.332 9.36462 70.8726 9.90519L72.2868 8.49098ZM24.593 29.9527L22.3716 35.1502L24.2107 35.9363L26.4321 30.7387L24.593 29.9527ZM25.3496 28.3005C25.0838 28.8455 24.8318 29.3959 24.5935 29.9517L26.4317 30.7398C26.6571 30.2139 26.8956 29.693 27.1472 29.177L25.3496 28.3005ZM20.6881 30.9895C22.5046 30.3197 24.4031 29.8978 26.3324 29.7352L26.1644 27.7423C24.0561 27.92 21.9813 28.381 19.9962 29.113L20.6881 30.9895ZM14.6852 34.8107C16.3017 33.164 18.298 31.887 20.6937 30.9874L19.9906 29.1151C17.3473 30.1077 15.0967 31.5366 13.258 33.4096L14.6852 34.8107ZM14.5893 32.9668C14.3038 33.0137 14.0208 33.0706 13.7403 33.1373L14.2029 35.083C14.4376 35.0272 14.6746 34.9796 14.9141 34.9402L14.5893 32.9668ZM23.755 34.6573C21.7478 33.6064 18.3914 32.3401 14.5891 32.9668L14.9144 34.9402C18.1093 34.4135 21.0053 35.4752 22.8273 36.4292L23.755 34.6573ZM50.1354 59.9676C49.2422 62.4995 47.9617 64.5989 46.3048 66.288L47.7326 67.6885C49.6162 65.7683 51.0422 63.409 52.0215 60.6329L50.1354 59.9676ZM51.3403 54.2969C51.1773 56.2315 50.772 58.138 50.134 59.9716L52.0229 60.6289C52.716 58.6372 53.1562 56.5663 53.3333 54.4649L51.3403 54.2969ZM50.823 56.1848C51.4867 55.9028 52.1413 55.5992 52.7868 55.2739L51.8868 53.4879C51.2799 53.7937 50.6647 54.079 50.041 54.344L50.823 56.1848ZM45.7465 58.3545L50.825 56.1839L50.039 54.3448L44.9605 56.5154L45.7465 58.3545ZM48.1301 66.5071C48.7993 62.4508 47.313 58.8996 46.2273 56.9486L44.4797 57.9212C45.4693 59.6994 46.7196 62.7697 46.1567 66.1816L48.1301 66.5071ZM47.9945 67.2071C48.0464 66.9757 48.0916 66.742 48.1303 66.5059L46.1565 66.1828C46.1241 66.3809 46.0862 66.5765 46.0429 66.7695L47.9945 67.2071ZM67.8488 18.0109C67.7529 20.5647 67.4968 22.8879 67.4808 23.0328L69.4688 23.2519C69.4863 23.0931 69.7487 20.7129 69.8473 18.086L67.8488 18.0109ZM67.5751 12.5649C67.6673 12.8501 67.9932 14.1696 67.8488 18.0109L69.8473 18.086C69.9949 14.1622 69.6777 12.5663 69.4779 11.9491L67.5751 12.5649ZM62.7702 12.9282C66.6158 12.7836 67.9279 13.1108 68.2077 13.2049L68.8453 11.3092C68.2178 11.0981 66.6145 10.7822 62.695 10.9296L62.7702 12.9282ZM57.8201 13.2889C58.2664 13.2421 60.421 13.0164 62.7701 12.9282L62.6951 10.9296C60.2762 11.0204 58.067 11.2521 57.6116 11.2998L57.8201 13.2889ZM57.6311 13.303C57.6668 13.303 57.6957 13.3009 57.6968 13.3008C57.7054 13.3003 57.7122 13.2997 57.7157 13.2994C57.723 13.2988 57.7294 13.2982 57.7328 13.2979C57.7404 13.2972 57.7489 13.2963 57.7564 13.2955C57.7721 13.2939 57.7941 13.2916 57.8201 13.2889L57.6116 11.2998C57.5845 11.3026 57.5653 11.3046 57.5525 11.306C57.5495 11.3063 57.5471 11.3065 57.5453 11.3067C57.5435 11.3069 57.5428 11.3069 57.543 11.3069C57.5431 11.3069 57.5438 11.3068 57.5449 11.3067C57.5458 11.3067 57.548 11.3065 57.5508 11.3062C57.5523 11.3061 57.5544 11.3059 57.5568 11.3058C57.5592 11.3056 57.5627 11.3053 57.5669 11.305C57.5708 11.3048 57.5775 11.3044 57.5859 11.304C57.5901 11.3038 57.5959 11.3036 57.6027 11.3034C57.6093 11.3032 57.6191 11.303 57.6311 11.303V13.303ZM57.6133 13.3087L57.7216 13.2989L57.5406 11.3071L57.4323 11.3169L57.6133 13.3087ZM30.3573 32.4138C34.9232 21.7295 45.8756 14.0399 57.5849 13.3109L57.4607 11.3147C45.0053 12.0902 33.3843 20.2408 28.5182 31.6279L30.3573 32.4138ZM27.6913 38.6523L30.3573 32.4138L28.5182 31.6278L25.8522 37.8663L27.6913 38.6523ZM43.2289 53.3022L27.4789 37.5522L26.0646 38.9664L41.8146 54.7164L43.2289 53.3022ZM48.3629 50.4238L42.1286 53.0898L42.9149 54.9288L49.1493 52.2627L48.3629 50.4238ZM67.4661 23.1962C66.7379 34.9055 59.0475 45.8579 48.3632 50.4237L49.1491 52.2628C60.5361 47.3967 68.6876 35.7758 69.4622 23.3203L67.4661 23.1962ZM67.4781 23.0594L67.4682 23.1677L69.46 23.3488L69.4699 23.2405L67.4781 23.0594ZM67.4808 23.0332L67.48 23.0408L69.468 23.2591L69.4688 23.2515L67.4808 23.0332ZM13.7378 69.5143L11.2637 67.0402L9.84953 68.4544L12.3236 70.9285L13.7378 69.5143ZM18.6128 67.7671C16.7208 68.3736 14.7938 68.8652 12.8425 69.2392L13.2189 71.2035C15.2494 70.8143 17.2546 70.3027 19.2233 69.6716L18.6128 67.7671ZM27.8366 62.8926C26.0088 64.7242 22.9432 66.3851 18.614 67.7667L19.2221 69.672C23.6835 68.2482 27.0983 66.4638 29.2523 64.3054L27.8366 62.8926ZM31.0596 56.7419C31.0806 58.5924 30.1343 60.5949 27.8373 62.8919L29.2516 64.3061C31.7354 61.8223 33.0892 59.3311 33.0594 56.7191L31.0596 56.7419ZM28.7276 52.05C30.349 53.6707 31.0434 55.1975 31.0595 56.741L33.0594 56.72C33.0362 54.5048 32.0128 52.5059 30.1414 50.6354L28.7276 52.05ZM24.0358 49.7176C25.5795 49.7345 27.1058 50.4289 28.7276 52.05L30.1414 50.6354C28.2703 48.7652 26.2725 47.7419 24.0576 47.7178L24.0358 49.7176ZM17.886 52.94C20.1816 50.6452 22.1847 49.6993 24.0368 49.7176L24.0566 47.7177C21.4461 47.6918 18.9556 49.0428 16.472 51.5255L17.886 52.94ZM13.0112 62.1685C14.3961 57.835 16.0572 54.7688 17.8861 52.9398L16.4719 51.5256C14.3174 53.6801 12.5332 57.0944 11.1061 61.5596L13.0112 62.1685ZM11.5387 67.9359C11.9133 65.9859 12.4049 64.0602 13.0109 62.1692L11.1063 61.5588C10.4758 63.5262 9.96432 65.5298 9.57459 67.5587L11.5387 67.9359ZM23.9786 51.9825C23.231 51.9825 22.4745 52.2714 21.7565 52.7012C21.0281 53.1373 20.2661 53.7624 19.4874 54.5411L20.9016 55.9553C21.606 55.2509 22.2393 54.7432 22.7839 54.4172C23.3388 54.0849 23.7328 53.9825 23.9786 53.9825V51.9825ZM23.9999 51.9825H23.9786V53.9825H23.9999V51.9825ZM27.1261 53.6527C25.7727 52.2993 24.7916 51.9911 24.0108 51.9826L23.989 53.9824C24.1089 53.9837 24.6175 53.9725 25.7119 55.0669L27.1261 53.6527ZM28.7954 56.768C28.7869 55.9849 28.4797 55.0062 27.1261 53.6527L25.7119 55.0669C26.8062 56.1612 26.7942 56.6673 26.7956 56.7898L28.7954 56.768ZM26.2369 61.2906C27.0211 60.5064 27.6497 59.739 28.0863 59.0058C28.5165 58.2835 28.8041 57.5207 28.7954 56.7674L26.7956 56.7904C26.7984 57.0321 26.7001 57.4248 26.3679 57.9825C26.0423 58.5295 25.5323 59.1668 24.8227 59.8764L26.2369 61.2906ZM15.757 66.2469C17.4597 65.7876 19.4687 65.147 21.3426 64.3344C23.1978 63.53 25.0067 62.5209 26.2369 61.2906L24.8227 59.8764C23.8586 60.8405 22.3234 61.7292 20.5469 62.4995C18.7892 63.2617 16.8786 63.8729 15.2361 64.316L15.757 66.2469ZM19.4873 54.5412C18.2574 55.7716 17.2491 57.5805 16.4451 59.4355C15.6329 61.3093 14.9921 63.318 14.5313 65.0201L16.4618 65.5428C16.9066 63.8997 17.5181 61.9889 18.2801 60.2309C19.0502 58.4543 19.9381 56.9192 20.9017 55.9552L19.4873 54.5412ZM48.9344 37.9338C47.5253 37.9347 46.1596 37.4469 45.0699 36.5536L43.802 38.1003C45.2495 39.2869 47.0638 39.9349 48.9355 39.9338L48.9344 37.9338ZM51.2651 37.4727C50.5272 37.7787 49.7359 37.9354 48.937 37.9338L48.9329 39.9338C49.9961 39.936 51.0492 39.7274 52.0312 39.3201L51.2651 37.4727ZM53.2363 36.1509C52.673 36.7174 52.003 37.1667 51.2651 37.4727L52.0312 39.3201C53.0133 38.9129 53.9049 38.315 54.6546 37.5611L53.2363 36.1509ZM54.9916 32.439C54.8539 33.8413 54.2342 35.1525 53.2381 36.149L54.6527 37.5629C55.9759 36.239 56.7991 34.4973 56.9821 32.6345L54.9916 32.439ZM53.9933 28.4588C54.7765 29.6301 55.1293 31.0367 54.9916 32.439L56.9821 32.6345C57.165 30.7717 56.6963 28.9031 55.6559 27.3471L53.9933 28.4588ZM50.6965 26.0155C52.045 26.424 53.2101 27.2875 53.9933 28.4588L55.6559 27.3471C54.6155 25.7911 53.0677 24.6441 51.2763 24.1014L50.6965 26.0155ZM46.5979 26.2185C47.8995 25.6787 49.3479 25.607 50.6965 26.0155L51.2763 24.1014C49.4849 23.5587 47.5608 23.654 45.8318 24.371L46.5979 26.2185ZM43.5586 28.9755C44.2223 27.7326 45.2964 26.7582 46.5979 26.2185L45.8318 24.371C44.1028 25.088 42.676 26.3824 41.7944 28.0336L43.5586 28.9755ZM42.9585 33.0349C42.6829 31.6531 42.895 30.2185 43.5586 28.9755L41.7944 28.0336C40.9128 29.6847 40.631 31.5905 40.9971 33.4261L42.9585 33.0349ZM45.0699 36.5536C43.9803 35.6603 43.2341 34.4168 42.9585 33.0349L40.9971 33.4261C41.3632 35.2617 42.3545 36.9136 43.802 38.1003L45.0699 36.5536ZM48.9346 28.0204C48.05 28.0207 47.193 28.3277 46.5094 28.8891L47.7787 30.4347C48.1047 30.1669 48.5135 30.0205 48.9353 30.0204L48.9346 28.0204ZM47.935 29.0187V29.0204H49.935V29.0187H47.935ZM50.3998 28.3091C49.9348 28.1163 49.4361 28.0175 48.9326 28.0187L48.9373 30.0187C49.1762 30.0182 49.4129 30.065 49.6336 30.1565L50.3998 28.3091ZM51.6419 29.1425C51.287 28.7853 50.8649 28.502 50.3998 28.3091L49.6336 30.1565C49.8543 30.2481 50.0546 30.3825 50.223 30.552L51.6419 29.1425ZM52.7411 31.4687C52.6543 30.5885 52.265 29.7655 51.6395 29.1401L50.2254 30.5544C50.5237 30.8527 50.7093 31.2451 50.7507 31.665L52.7411 31.4687ZM52.1154 33.9677C52.6068 33.2321 52.8279 32.349 52.7411 31.4687L50.7507 31.665C50.7921 32.0848 50.6867 32.506 50.4523 32.8568L52.1154 33.9677ZM50.0466 35.5025C50.893 35.2456 51.6241 34.7032 52.1154 33.9677L50.4523 32.8568C50.218 33.2075 49.8693 33.4662 49.4657 33.5888L50.0466 35.5025ZM47.4736 35.3766C48.2908 35.715 49.2001 35.7595 50.0466 35.5025L49.4656 33.5888C49.062 33.7113 48.6283 33.6901 48.2385 33.5287L47.4736 35.3766ZM45.5644 33.6471C45.9816 34.4271 46.6563 35.0383 47.4736 35.3766L48.2385 33.5287C47.8488 33.3674 47.527 33.0759 47.328 32.7039L45.5644 33.6471ZM45.1857 31.099C45.0134 31.9666 45.1473 32.8671 45.5644 33.6471L47.328 32.7039C47.1291 32.3319 47.0652 31.9024 47.1474 31.4886L45.1857 31.099ZM46.5094 28.8891C45.8258 29.4504 45.3581 30.2314 45.1857 31.099L47.1474 31.4886C47.2296 31.0749 47.4527 30.7024 47.7787 30.4347L46.5094 28.8891Z" fill="url(#paint1_linear_1653_39823)" mask="url(#path-1-outside-1_1653_39823)"/><defs><linearGradient id="paint0_linear_1653_39823" x1="54.0843" y1="9.8977" x2="33.5505" y2="78.5518" gradientUnits="userSpaceOnUse"><stop stop-color="#D2DEFF"/><stop offset="1" stop-color="#E9EEFF"/></linearGradient><linearGradient id="paint1_linear_1653_39823" x1="54.0843" y1="9.8977" x2="33.5505" y2="78.5518" gradientUnits="userSpaceOnUse"><stop stop-color="#D2DEFF"/><stop offset="1" stop-color="#E9EEFF"/></linearGradient></defs></svg>