<svg xmlns="http://www.w3.org/2000/svg" width="81" height="81" viewBox="0 0 81 81" fill="none">
  <g opacity="0.4">
    <mask id="path-1-outside-1_496_35569" maskUnits="userSpaceOnUse" x="5.66504" y="5.82324" width="70" height="70" fill="black">
      <rect fill="white" x="5.66504" y="5.82324" width="70" height="70"/>
      <path fill-rule="evenodd" clip-rule="evenodd" d="M25.3521 51.3212H25.5763C26.073 56.7835 28.0838 61.8596 31.3719 65.8284C33.2624 68.1224 35.4772 69.918 37.9531 71.1836C40.5477 72.5125 43.3162 73.1849 46.1718 73.1849C49.0273 73.1849 51.7959 72.5125 54.4062 71.1836C56.8821 69.918 59.097 68.1145 60.9875 65.8284C64.3003 61.8215 66.3231 56.6859 66.7967 51.1636C70.6691 50.0558 73.5168 46.4834 73.5168 42.256C73.5168 37.146 69.364 32.9932 64.254 32.9932C59.144 32.9932 54.9912 37.146 54.9912 42.256C54.9912 46.596 57.9869 50.2455 62.0203 51.2468C60.9872 60.9355 54.2783 68.4388 46.1797 68.4388C38.1015 68.4388 31.4061 60.9734 30.347 51.3202C35.066 51.2684 39.4816 49.1535 42.7861 45.3411C46.053 41.5838 47.8565 36.6083 47.8565 31.3322V10.9952C47.8565 9.24707 46.4802 7.82324 44.7874 7.82324H37.3835C36.0704 7.82324 35.0105 8.8832 35.0105 10.1963C35.0105 11.5094 36.0704 12.5693 37.3835 12.5693H43.1105V31.3401C43.1105 39.7486 37.3044 46.583 30.1694 46.583H25.3521C18.2172 46.583 12.4111 39.7407 12.4111 31.3401V12.5693H19.1189C20.432 12.5693 21.492 11.5094 21.492 10.1963C21.492 8.8832 20.432 7.82324 19.1189 7.82324H10.7342C9.04141 7.82324 7.66504 9.24707 7.66504 10.9952V31.3401C7.66504 36.6162 9.46855 41.5917 12.7354 45.349C16.0814 49.2013 20.5665 51.3212 25.3521 51.3212ZM59.7373 42.256C59.7373 39.7643 61.7623 37.7393 64.254 37.7393C66.7457 37.7393 68.7707 39.7643 68.7707 42.256C68.7707 44.7477 66.7457 46.7727 64.254 46.7727C61.7623 46.7727 59.7373 44.7477 59.7373 42.256Z"/>
    </mask>
    <path fill-rule="evenodd" clip-rule="evenodd" d="M25.3521 51.3212H25.5763C26.073 56.7835 28.0838 61.8596 31.3719 65.8284C33.2624 68.1224 35.4772 69.918 37.9531 71.1836C40.5477 72.5125 43.3162 73.1849 46.1718 73.1849C49.0273 73.1849 51.7959 72.5125 54.4062 71.1836C56.8821 69.918 59.097 68.1145 60.9875 65.8284C64.3003 61.8215 66.3231 56.6859 66.7967 51.1636C70.6691 50.0558 73.5168 46.4834 73.5168 42.256C73.5168 37.146 69.364 32.9932 64.254 32.9932C59.144 32.9932 54.9912 37.146 54.9912 42.256C54.9912 46.596 57.9869 50.2455 62.0203 51.2468C60.9872 60.9355 54.2783 68.4388 46.1797 68.4388C38.1015 68.4388 31.4061 60.9734 30.347 51.3202C35.066 51.2684 39.4816 49.1535 42.7861 45.3411C46.053 41.5838 47.8565 36.6083 47.8565 31.3322V10.9952C47.8565 9.24707 46.4802 7.82324 44.7874 7.82324H37.3835C36.0704 7.82324 35.0105 8.8832 35.0105 10.1963C35.0105 11.5094 36.0704 12.5693 37.3835 12.5693H43.1105V31.3401C43.1105 39.7486 37.3044 46.583 30.1694 46.583H25.3521C18.2172 46.583 12.4111 39.7407 12.4111 31.3401V12.5693H19.1189C20.432 12.5693 21.492 11.5094 21.492 10.1963C21.492 8.8832 20.432 7.82324 19.1189 7.82324H10.7342C9.04141 7.82324 7.66504 9.24707 7.66504 10.9952V31.3401C7.66504 36.6162 9.46855 41.5917 12.7354 45.349C16.0814 49.2013 20.5665 51.3212 25.3521 51.3212ZM59.7373 42.256C59.7373 39.7643 61.7623 37.7393 64.254 37.7393C66.7457 37.7393 68.7707 39.7643 68.7707 42.256C68.7707 44.7477 66.7457 46.7727 64.254 46.7727C61.7623 46.7727 59.7373 44.7477 59.7373 42.256Z" fill="url(#paint0_linear_496_35569)"/>
    <path d="M25.5763 51.3212L27.568 51.1401L27.4026 49.3212H25.5763V51.3212ZM31.3719 65.8284L32.9153 64.5564L32.912 64.5525L31.3719 65.8284ZM37.9531 71.1836L38.8649 69.4035L38.8634 69.4028L37.9531 71.1836ZM54.4062 71.1836L55.3136 72.9659L55.3166 72.9644L54.4062 71.1836ZM60.9875 65.8284L62.5287 67.103L62.5289 67.1028L60.9875 65.8284ZM66.7967 51.1636L66.2466 49.2407L64.9217 49.6198L64.804 50.9927L66.7967 51.1636ZM62.0203 51.2468L64.009 51.4589L64.1938 49.7257L62.5021 49.3057L62.0203 51.2468ZM30.347 51.3202L30.3251 49.3203L28.1183 49.3446L28.359 51.5383L30.347 51.3202ZM42.7861 45.3411L41.2769 44.0288L41.2749 44.0311L42.7861 45.3411ZM43.1105 12.5693H45.1105V10.5693H43.1105V12.5693ZM12.4111 12.5693V10.5693H10.4111V12.5693H12.4111ZM12.7354 45.349L14.2454 44.0375L14.2447 44.0367L12.7354 45.349ZM25.5763 49.3212H25.3521V53.3212H25.5763V49.3212ZM32.912 64.5525C29.9025 60.9198 28.0313 56.2341 27.568 51.1401L23.5845 51.5023C24.1147 57.333 26.2652 62.7994 29.8318 67.1044L32.912 64.5525ZM38.8634 69.4028C36.6445 68.2685 34.6416 66.6511 32.9153 64.5564L29.8285 67.1004C31.8833 69.5936 34.31 71.5675 37.0428 72.9644L38.8634 69.4028ZM46.1718 71.1849C43.6388 71.1849 41.1822 70.5904 38.8649 69.4035L37.0414 72.9637C39.9131 74.4346 42.9936 75.1849 46.1718 75.1849V71.1849ZM53.4989 69.4013C51.1624 70.5907 48.704 71.1849 46.1718 71.1849V75.1849C49.3507 75.1849 52.4294 74.4342 55.3136 72.9659L53.4989 69.4013ZM59.4463 64.5538C57.7171 66.6447 55.7127 68.2696 53.4959 69.4028L55.3166 72.9644C58.0516 71.5663 60.4768 69.5842 62.5287 67.103L59.4463 64.5538ZM64.804 50.9927C64.3624 56.1425 62.4796 60.8849 59.4461 64.554L62.5289 67.1028C66.1209 62.7581 68.2839 57.2292 68.7893 51.3345L64.804 50.9927ZM71.5168 42.256C71.5168 45.5641 69.2866 48.3711 66.2466 49.2407L67.3468 53.0865C72.0517 51.7405 75.5168 47.4027 75.5168 42.256H71.5168ZM64.254 34.9932C68.2594 34.9932 71.5168 38.2506 71.5168 42.256H75.5168C75.5168 36.0414 70.4685 30.9932 64.254 30.9932V34.9932ZM56.9912 42.256C56.9912 38.2506 60.2486 34.9932 64.254 34.9932V30.9932C58.0395 30.9932 52.9912 36.0414 52.9912 42.256H56.9912ZM62.5021 49.3057C59.3383 48.5203 56.9912 45.6542 56.9912 42.256H52.9912C52.9912 47.5377 56.6354 51.9708 61.5384 53.1879L62.5021 49.3057ZM46.1797 70.4388C55.6341 70.4388 62.907 61.7944 64.009 51.4589L60.0315 51.0348C59.0675 60.0766 52.9225 66.4388 46.1797 66.4388V70.4388ZM28.359 51.5383C29.4888 61.8373 36.7494 70.4388 46.1797 70.4388V66.4388C39.4536 66.4388 33.3233 60.1095 32.3351 51.1021L28.359 51.5383ZM41.2749 44.0311C38.3181 47.4422 34.4317 49.2753 30.3251 49.3203L30.369 53.3201C35.7002 53.2616 40.645 50.8647 44.2974 46.6511L41.2749 44.0311ZM45.8565 31.3322C45.8565 36.1562 44.2081 40.6576 41.2769 44.0288L44.2954 46.6534C47.898 42.51 49.8565 37.0604 49.8565 31.3322H45.8565ZM45.8565 10.9952V31.3322H49.8565V10.9952H45.8565ZM44.7874 9.82324C45.3134 9.82324 45.8565 10.2884 45.8565 10.9952H49.8565C49.8565 8.2057 47.6469 5.82324 44.7874 5.82324V9.82324ZM37.3835 9.82324H44.7874V5.82324H37.3835V9.82324ZM37.0105 10.1963C37.0105 9.98777 37.175 9.82324 37.3835 9.82324V5.82324C34.9658 5.82324 33.0105 7.77863 33.0105 10.1963H37.0105ZM37.3835 10.5693C37.175 10.5693 37.0105 10.4048 37.0105 10.1963H33.0105C33.0105 12.6139 34.9658 14.5693 37.3835 14.5693V10.5693ZM43.1105 10.5693H37.3835V14.5693H43.1105V10.5693ZM45.1105 31.3401V12.5693H41.1105V31.3401H45.1105ZM30.1694 48.583C38.7031 48.583 45.1105 40.5341 45.1105 31.3401H41.1105C41.1105 38.9632 35.9057 44.583 30.1694 44.583V48.583ZM25.3521 48.583H30.1694V44.583H25.3521V48.583ZM10.4111 31.3401C10.4111 40.5255 16.8179 48.583 25.3521 48.583V44.583C19.6165 44.583 14.4111 38.956 14.4111 31.3401H10.4111ZM10.4111 12.5693V31.3401H14.4111V12.5693H10.4111ZM19.1189 10.5693H12.4111V14.5693H19.1189V10.5693ZM19.492 10.1963C19.492 10.4048 19.3275 10.5693 19.1189 10.5693V14.5693C21.5366 14.5693 23.492 12.6139 23.492 10.1963H19.492ZM19.1189 9.82324C19.3275 9.82324 19.492 9.98778 19.492 10.1963H23.492C23.492 7.77863 21.5366 5.82324 19.1189 5.82324V9.82324ZM10.7342 9.82324H19.1189V5.82324H10.7342V9.82324ZM9.66504 10.9952C9.66504 10.2884 10.2081 9.82324 10.7342 9.82324V5.82324C7.87468 5.82324 5.66504 8.2057 5.66504 10.9952H9.66504ZM9.66504 31.3401V10.9952H5.66504V31.3401H9.66504ZM14.2447 44.0367C11.3135 40.6655 9.66504 36.1641 9.66504 31.3401H5.66504C5.66504 37.0683 7.62359 42.5179 11.2262 46.6613L14.2447 44.0367ZM25.3521 49.3212C21.1866 49.3212 17.2391 47.4842 14.2454 44.0375L11.2255 46.6605C14.9237 50.9183 19.9464 53.3212 25.3521 53.3212V49.3212ZM64.254 35.7393C60.6577 35.7393 57.7373 38.6597 57.7373 42.256H61.7373C61.7373 40.8688 62.8669 39.7393 64.254 39.7393V35.7393ZM70.7707 42.256C70.7707 38.6597 67.8503 35.7393 64.254 35.7393V39.7393C65.6411 39.7393 66.7707 40.8688 66.7707 42.256H70.7707ZM64.254 48.7727C67.8503 48.7727 70.7707 45.8522 70.7707 42.256H66.7707C66.7707 43.6431 65.6411 44.7727 64.254 44.7727V48.7727ZM57.7373 42.256C57.7373 45.8522 60.6577 48.7727 64.254 48.7727V44.7727C62.8669 44.7727 61.7373 43.6431 61.7373 42.256H57.7373Z" fill="url(#paint1_linear_496_35569)" mask="url(#path-1-outside-1_496_35569)"/>
  </g>
  <defs>
    <linearGradient id="paint0_linear_496_35569" x1="55" y1="10" x2="35.5" y2="76" gradientUnits="userSpaceOnUse">
      <stop stop-color="#C9D6FF"/>
      <stop offset="1" stop-color="#E7EDFF"/>
    </linearGradient>
    <linearGradient id="paint1_linear_496_35569" x1="55" y1="10" x2="35.5" y2="76" gradientUnits="userSpaceOnUse">
      <stop stop-color="#C9D6FF"/>
      <stop offset="1" stop-color="#E7EDFF"/>
    </linearGradient>
  </defs>
</svg>