<svg width="16" height="16" viewBox="0 0 16 16" fill="none" xmlns="http://www.w3.org/2000/svg">
<circle cx="8" cy="8" r="5.4" fill="#6BA9FF" fill-opacity="0.2" stroke="#F7A87C" stroke-width="1.2"/>
<path d="M3.92436 6.50107V8.64307H5.42736V8.36407H4.24836V6.50107H3.92436ZM6.64482 6.45907C6.31782 6.45907 6.05982 6.56407 5.87382 6.78007C5.69382 6.98407 5.60682 7.24807 5.60682 7.57507C5.60682 7.89907 5.69382 8.16307 5.87382 8.36707C6.05982 8.57707 6.31782 8.68507 6.64482 8.68507C6.96882 8.68507 7.22682 8.58007 7.41582 8.37007C7.59582 8.16607 7.68582 7.90207 7.68582 7.57507C7.68582 7.24507 7.59582 6.97807 7.41582 6.77707C7.22682 6.56407 6.96882 6.45907 6.64482 6.45907ZM6.64482 6.74707C6.87282 6.74707 7.04982 6.81907 7.17282 6.96907C7.29282 7.11607 7.35582 7.31707 7.35582 7.57507C7.35582 7.83007 7.29282 8.03107 7.17282 8.17507C7.04982 8.32207 6.87282 8.39707 6.64482 8.39707C6.41682 8.39707 6.23982 8.31907 6.11382 8.16907C5.99382 8.02207 5.93382 7.82407 5.93382 7.57507C5.93382 7.32307 5.99382 7.12507 6.11382 6.97807C6.23982 6.82207 6.41682 6.74707 6.64482 6.74707ZM8.94413 6.45907C8.62913 6.45907 8.37713 6.56707 8.19113 6.78907C8.01413 6.99607 7.92713 7.26007 7.92713 7.58107C7.92713 7.89907 8.01413 8.16007 8.19113 8.36107C8.38013 8.57707 8.64413 8.68507 8.98613 8.68507C9.17213 8.68507 9.34313 8.66107 9.49913 8.61307C9.64613 8.56507 9.77513 8.49907 9.88613 8.41207V7.51207H8.96813V7.79107H9.55913V8.25607C9.48713 8.30107 9.40913 8.33707 9.31913 8.36107C9.22613 8.38507 9.12713 8.40007 9.02213 8.40007C8.75513 8.40007 8.55713 8.32507 8.43113 8.17507C8.31113 8.03707 8.25413 7.83907 8.25413 7.58107C8.25413 7.31707 8.31713 7.11007 8.44913 6.96007C8.57213 6.81607 8.73713 6.74707 8.94413 6.74707C9.11213 6.74707 9.25013 6.78307 9.35213 6.85807C9.45413 6.93007 9.52013 7.03807 9.55013 7.18207H9.88013C9.84113 6.94207 9.74513 6.76507 9.59213 6.64507C9.43313 6.51907 9.21713 6.45907 8.94413 6.45907ZM11.2268 6.45907C10.8998 6.45907 10.6418 6.56407 10.4558 6.78007C10.2758 6.98407 10.1888 7.24807 10.1888 7.57507C10.1888 7.89907 10.2758 8.16307 10.4558 8.36707C10.6418 8.57707 10.8998 8.68507 11.2268 8.68507C11.5508 8.68507 11.8088 8.58007 11.9978 8.37007C12.1778 8.16607 12.2678 7.90207 12.2678 7.57507C12.2678 7.24507 12.1778 6.97807 11.9978 6.77707C11.8088 6.56407 11.5508 6.45907 11.2268 6.45907ZM11.2268 6.74707C11.4548 6.74707 11.6318 6.81907 11.7548 6.96907C11.8748 7.11607 11.9378 7.31707 11.9378 7.57507C11.9378 7.83007 11.8748 8.03107 11.7548 8.17507C11.6318 8.32207 11.4548 8.39707 11.2268 8.39707C10.9988 8.39707 10.8218 8.31907 10.6958 8.16907C10.5758 8.02207 10.5158 7.82407 10.5158 7.57507C10.5158 7.32307 10.5758 7.12507 10.6958 6.97807C10.8218 6.82207 10.9988 6.74707 11.2268 6.74707Z" fill="#6BA9FF"/>
<path d="M3.92436 6.50107V5.30107H2.72436V6.50107H3.92436ZM3.92436 8.64307H2.72436V9.84307H3.92436V8.64307ZM5.42736 8.64307V9.84307H6.62736V8.64307H5.42736ZM5.42736 8.36407H6.62736V7.16407H5.42736V8.36407ZM4.24836 8.36407H3.04836V9.56407H4.24836V8.36407ZM4.24836 6.50107H5.44836V5.30107H4.24836V6.50107ZM2.72436 6.50107V8.64307H5.12436V6.50107H2.72436ZM3.92436 9.84307H5.42736V7.44307H3.92436V9.84307ZM6.62736 8.64307V8.36407H4.22736V8.64307H6.62736ZM5.42736 7.16407H4.24836V9.56407H5.42736V7.16407ZM5.44836 8.36407V6.50107H3.04836V8.36407H5.44836ZM4.24836 5.30107H3.92436V7.70107H4.24836V5.30107ZM5.87382 6.78007L6.77362 7.57401L6.77841 7.56858L6.78314 7.56309L5.87382 6.78007ZM5.87382 8.36707L4.97401 9.16101L4.97551 9.16271L5.87382 8.36707ZM7.41582 8.37007L8.30781 9.17286L8.31562 9.16401L7.41582 8.37007ZM7.41582 6.77707L6.51822 7.57353L6.52188 7.57761L7.41582 6.77707ZM7.17282 6.96907L8.10241 6.21021L8.10074 6.20817L7.17282 6.96907ZM7.17282 8.17507L8.09314 8.94514L8.09468 8.94329L7.17282 8.17507ZM6.11382 8.16907L5.18422 8.92792L5.18955 8.93445L5.19497 8.9409L6.11382 8.16907ZM6.11382 6.97807L7.04342 7.73693L7.04735 7.73207L6.11382 6.97807ZM6.64482 5.25907C6.03702 5.25907 5.41968 5.46843 4.96449 5.99704L6.78314 7.56309C6.77097 7.57723 6.7537 7.59395 6.73131 7.61019C6.70887 7.62646 6.6861 7.63876 6.66545 7.64731C6.6236 7.66464 6.60937 7.65907 6.64482 7.65907V5.25907ZM4.97401 5.98612C4.55883 6.45666 4.40682 7.02561 4.40682 7.57507H6.80682C6.80682 7.51723 6.81454 7.50102 6.81091 7.51188C6.80907 7.51741 6.80509 7.52742 6.79795 7.53991C6.79075 7.5525 6.7823 7.56418 6.77362 7.57401L4.97401 5.98612ZM4.40682 7.57507C4.40682 8.12313 4.55969 8.69145 4.97401 9.16101L6.77362 7.57312C6.78228 7.58293 6.79065 7.59451 6.79774 7.60691C6.80479 7.61922 6.80873 7.62911 6.81059 7.63465C6.81426 7.64561 6.80682 7.63034 6.80682 7.57507H4.40682ZM4.97551 9.16271C5.42349 9.6685 6.02954 9.88507 6.64482 9.88507V7.48507C6.61375 7.48507 6.62704 7.48017 6.66545 7.49607C6.68415 7.50382 6.70462 7.51483 6.7248 7.52926C6.74493 7.54365 6.76072 7.55856 6.77212 7.57142L4.97551 9.16271ZM6.64482 9.88507C7.25195 9.88507 7.85564 9.67519 8.30777 9.17282L6.52386 7.56731C6.53463 7.55535 6.54987 7.54112 6.56954 7.52724C6.58926 7.51334 6.60926 7.50273 6.62746 7.4953C6.6648 7.48006 6.67699 7.48507 6.64482 7.48507V9.88507ZM8.31562 9.16401C8.72561 8.69936 8.88582 8.13406 8.88582 7.57507H6.48582C6.48582 7.62878 6.47846 7.64338 6.48217 7.63247C6.484 7.62709 6.48776 7.61783 6.49431 7.60646C6.5009 7.59504 6.50848 7.58466 6.51601 7.57612L8.31562 9.16401ZM8.88582 7.57507C8.88582 7.02021 8.72933 6.44504 8.30976 5.97652L6.52188 7.57761C6.51152 7.56605 6.50225 7.5532 6.49473 7.54017C6.48727 7.52726 6.48327 7.51719 6.48151 7.51197C6.47805 7.50174 6.48582 7.51837 6.48582 7.57507H8.88582ZM8.3134 5.98061C7.86021 5.46987 7.25289 5.25907 6.64482 5.25907V7.65907C6.67708 7.65907 6.66367 7.6641 6.62469 7.64807C6.60565 7.64025 6.58492 7.62913 6.56462 7.61466C6.54438 7.60024 6.52893 7.58558 6.51823 7.57352L8.3134 5.98061ZM6.64482 7.94707C6.6339 7.94707 6.57267 7.94538 6.48632 7.90937C6.39344 7.87064 6.30828 7.80726 6.24489 7.72996L8.10074 6.20817C7.6998 5.71922 7.14519 5.54707 6.64482 5.54707V7.94707ZM6.24322 7.72792C6.19624 7.67037 6.17219 7.61552 6.16146 7.58034C6.15167 7.54821 6.15582 7.54225 6.15582 7.57507H8.55582C8.55582 7.12447 8.44389 6.62853 8.10241 6.21021L6.24322 7.72792ZM6.15582 7.57507C6.15582 7.6391 6.14112 7.53865 6.25095 7.40684L8.09468 8.94329C8.44452 8.52349 8.55582 8.02104 8.55582 7.57507H6.15582ZM6.25249 7.405C6.31308 7.33259 6.39366 7.27266 6.48231 7.23532C6.56611 7.20001 6.62767 7.19707 6.64482 7.19707V9.59707C7.15769 9.59707 7.70051 9.41437 8.09314 8.94513L6.25249 7.405ZM6.64482 7.19707C6.66829 7.19707 6.73296 7.20141 6.81715 7.2378C6.90503 7.27578 6.97938 7.33381 7.03266 7.39724L5.19497 8.9409C5.57993 9.39918 6.11344 9.59707 6.64482 9.59707V7.19707ZM7.04341 7.41021C7.09109 7.46862 7.11594 7.525 7.12725 7.56231C7.13756 7.59635 7.13382 7.60482 7.13382 7.57507H4.73382C4.73382 8.01349 4.8412 8.50772 5.18422 8.92792L7.04341 7.41021ZM7.13382 7.57507C7.13382 7.54257 7.13786 7.55004 7.12761 7.584C7.11629 7.6215 7.09128 7.67828 7.04341 7.73692L5.18422 6.21921C4.84023 6.6406 4.73382 7.13567 4.73382 7.57507H7.13382ZM7.04735 7.73207C6.99166 7.80102 6.91193 7.86462 6.81715 7.90559C6.72804 7.9441 6.66196 7.94707 6.64482 7.94707V5.54707C6.12378 5.54707 5.57448 5.73601 5.18029 6.22406L7.04735 7.73207ZM8.19113 6.78907L9.10321 7.56897L9.11095 7.55973L8.19113 6.78907ZM8.19113 8.36107L9.09422 7.57086L9.09172 7.56801L8.19113 8.36107ZM9.49913 8.61307L9.85203 9.76L9.86185 9.75698L9.87161 9.75379L9.49913 8.61307ZM9.88613 8.41207L10.6264 9.35653L11.0861 8.9962V8.41207H9.88613ZM9.88613 7.51207H11.0861V6.31207H9.88613V7.51207ZM8.96813 7.51207V6.31207H7.76813V7.51207H8.96813ZM8.96813 7.79107H7.76813V8.99107H8.96813V7.79107ZM9.55913 7.79107H10.7591V6.59107H9.55913V7.79107ZM9.55913 8.25607L10.1951 9.27366L10.7591 8.92116V8.25607H9.55913ZM9.31913 8.36107L9.61899 9.52304L9.62832 9.52055L9.31913 8.36107ZM8.43113 8.17507L9.34997 7.40324L9.34338 7.39539L9.33666 7.38765L8.43113 8.17507ZM8.44913 6.96007L9.34998 7.75282L9.35583 7.74618L9.36158 7.73945L8.44913 6.96007ZM9.35213 6.85807L8.64126 7.82485L8.65062 7.83173L8.66011 7.83843L9.35213 6.85807ZM9.55013 7.18207L8.37535 7.42681L8.57436 8.38207H9.55013V7.18207ZM9.88013 7.18207V8.38207H11.2909L11.0646 6.98959L9.88013 7.18207ZM9.59213 6.64507L8.84682 7.58557L8.85156 7.58929L9.59213 6.64507ZM8.94413 5.25907C8.32073 5.25907 7.71365 5.49045 7.2713 6.0184L9.11095 7.55973C9.08996 7.58479 9.05082 7.61816 8.99869 7.64088C8.95018 7.66202 8.92467 7.65907 8.94413 7.65907V5.25907ZM7.27909 6.00921C6.88149 6.47419 6.72713 7.03256 6.72713 7.58107H9.12713C9.12713 7.52871 9.13419 7.51271 9.1315 7.52082C9.13018 7.52479 9.12716 7.53252 9.12163 7.54237C9.11607 7.55228 9.10961 7.56139 9.10317 7.56893L7.27909 6.00921ZM6.72713 7.58107C6.72713 8.12694 6.88205 8.69025 7.29054 9.15412L9.09172 7.56801C9.10077 7.57829 9.10932 7.59017 9.11653 7.60274C9.12368 7.61523 9.1278 7.62543 9.12986 7.63154C9.13397 7.64375 9.12713 7.63114 9.12713 7.58107H6.72713ZM7.28804 9.15127C7.74771 9.67662 8.36889 9.88507 8.98613 9.88507V7.48507C8.94091 7.48507 8.94787 7.47801 8.98451 7.49296C9.00262 7.50035 9.02354 7.51138 9.0447 7.5265C9.06584 7.5416 9.08239 7.55734 9.09422 7.57086L7.28804 9.15127ZM8.98613 9.88507C9.27536 9.88507 9.56702 9.8477 9.85203 9.76L9.14622 7.46613C9.11923 7.47444 9.0689 7.48507 8.98613 7.48507V9.88507ZM9.87161 9.75379C10.1314 9.66896 10.3895 9.54217 10.6264 9.35653L9.14587 7.4676C9.15248 7.46242 9.15618 7.46063 9.15465 7.46142C9.15285 7.46235 9.14433 7.46657 9.12665 7.47234L9.87161 9.75379ZM11.0861 8.41207V7.51207H8.68613V8.41207H11.0861ZM9.88613 6.31207H8.96813V8.71207H9.88613V6.31207ZM7.76813 7.51207V7.79107H10.1681V7.51207H7.76813ZM8.96813 8.99107H9.55913V6.59107H8.96813V8.99107ZM8.35913 7.79107V8.25607H10.7591V7.79107H8.35913ZM8.92313 7.23847C8.93069 7.23374 8.94304 7.22673 8.95947 7.21944C8.97609 7.21207 8.99329 7.20602 9.00993 7.20158L9.62832 9.52055C9.84551 9.46263 10.0328 9.37514 10.1951 9.27366L8.92313 7.23847ZM9.01927 7.19913C9.01398 7.2005 9.01206 7.2007 9.01299 7.20057C9.01404 7.20043 9.01727 7.20007 9.02213 7.20007V9.60007C9.24266 9.60007 9.44301 9.56841 9.61898 9.523L9.01927 7.19913ZM9.02213 7.20007C8.99711 7.20007 9.03168 7.19609 9.10024 7.22216C9.17679 7.25127 9.27072 7.30888 9.34997 7.40324L7.51228 8.9469C7.94234 9.45887 8.53891 9.60007 9.02213 9.60007V7.20007ZM9.33666 7.38765C9.40503 7.46628 9.43611 7.54129 9.44845 7.58305C9.45941 7.62016 9.45413 7.62526 9.45413 7.58107H7.05413C7.05413 7.9966 7.14411 8.52377 7.5256 8.96248L9.33666 7.38765ZM9.45413 7.58107C9.45413 7.54198 9.45907 7.54862 9.4478 7.5848C9.43507 7.62565 9.40614 7.68901 9.34998 7.75282L7.54827 6.16731C7.16229 6.60593 7.05413 7.1335 7.05413 7.58107H9.45413ZM9.36158 7.73945C9.30802 7.80215 9.23105 7.86271 9.13662 7.90306C9.04624 7.94168 8.97458 7.94707 8.94413 7.94707V5.54707C8.4372 5.54707 7.91889 5.73321 7.53668 6.18068L9.36158 7.73945ZM8.94413 7.94707C8.94354 7.94707 8.93598 7.94705 8.92242 7.94543C8.90884 7.94381 8.88781 7.94042 8.86091 7.93318C8.80629 7.91847 8.72642 7.88746 8.64126 7.82485L10.063 5.89128C9.68773 5.61536 9.26948 5.54707 8.94413 5.54707V7.94707ZM8.66011 7.83843C8.57557 7.77876 8.50529 7.70243 8.45419 7.61881C8.40485 7.53807 8.38395 7.46809 8.37535 7.42681L10.7249 6.93732C10.6447 6.55228 10.4378 6.15558 10.0441 5.87771L8.66011 7.83843ZM9.55013 8.38207H9.88013V5.98207H9.55013V8.38207ZM11.0646 6.98959C10.9888 6.52335 10.774 6.04698 10.3327 5.70084L8.85156 7.58929C8.79389 7.54406 8.75 7.48896 8.72203 7.43696C8.69611 7.38877 8.69354 7.36149 8.69566 7.37454L11.0646 6.98959ZM10.3374 5.70457C9.89615 5.35488 9.38196 5.25907 8.94413 5.25907V7.65907C8.99519 7.65907 9.00333 7.66494 8.98227 7.65895C8.9576 7.65192 8.90538 7.63196 8.84683 7.58556L10.3374 5.70457ZM10.4558 6.78007L11.3557 7.57401L11.3604 7.56858L11.3652 7.56309L10.4558 6.78007ZM10.4558 8.36707L9.55604 9.16101L9.55754 9.16271L10.4558 8.36707ZM11.9978 8.37007L12.8898 9.17286L12.8977 9.16401L11.9978 8.37007ZM11.9978 6.77707L11.1002 7.57353L11.1039 7.57761L11.9978 6.77707ZM11.7548 6.96907L12.6844 6.21021L12.6828 6.20817L11.7548 6.96907ZM11.7548 8.17507L12.6752 8.94514L12.6767 8.94329L11.7548 8.17507ZM10.6958 8.16907L9.76625 8.92792L9.77158 8.93445L9.777 8.9409L10.6958 8.16907ZM10.6958 6.97807L11.6255 7.73693L11.6294 7.73207L10.6958 6.97807ZM11.2268 5.25907C10.6191 5.25907 10.0017 5.46843 9.54653 5.99704L11.3652 7.56309C11.353 7.57723 11.3357 7.59395 11.3133 7.61019C11.2909 7.62646 11.2681 7.63876 11.2475 7.64731C11.2056 7.66464 11.1914 7.65907 11.2268 7.65907V5.25907ZM9.55604 5.98612C9.14086 6.45666 8.98885 7.02561 8.98885 7.57507H11.3888C11.3888 7.51723 11.3966 7.50102 11.3929 7.51188C11.3911 7.51741 11.3871 7.52742 11.38 7.53991C11.3728 7.5525 11.3643 7.56418 11.3557 7.57401L9.55604 5.98612ZM8.98885 7.57507C8.98885 8.12313 9.14172 8.69145 9.55604 9.16101L11.3557 7.57312C11.3643 7.58293 11.3727 7.59451 11.3798 7.60691C11.3868 7.61922 11.3908 7.62911 11.3926 7.63465C11.3963 7.64561 11.3888 7.63034 11.3888 7.57507H8.98885ZM9.55754 9.16271C10.0055 9.6685 10.6116 9.88507 11.2268 9.88507V7.48507C11.1958 7.48507 11.2091 7.48017 11.2475 7.49607C11.2662 7.50382 11.2867 7.51483 11.3068 7.52926C11.327 7.54365 11.3428 7.55856 11.3542 7.57142L9.55754 9.16271ZM11.2268 9.88507C11.834 9.88507 12.4377 9.67519 12.8898 9.17282L11.1059 7.56731C11.1167 7.55535 11.1319 7.54112 11.1516 7.52724C11.1713 7.51334 11.1913 7.50273 11.2095 7.4953C11.2468 7.48006 11.259 7.48507 11.2268 7.48507V9.88507ZM12.8977 9.16401C13.3076 8.69936 13.4678 8.13406 13.4678 7.57507H11.0678C11.0678 7.62878 11.0605 7.64338 11.0642 7.63247C11.066 7.62709 11.0698 7.61783 11.0763 7.60646C11.0829 7.59504 11.0905 7.58466 11.098 7.57612L12.8977 9.16401ZM13.4678 7.57507C13.4678 7.02021 13.3114 6.44504 12.8918 5.97652L11.1039 7.57761C11.0936 7.56605 11.0843 7.5532 11.0768 7.54017C11.0693 7.52726 11.0653 7.51719 11.0635 7.51197C11.0601 7.50174 11.0678 7.51837 11.0678 7.57507H13.4678ZM12.8954 5.98061C12.4422 5.46987 11.8349 5.25907 11.2268 5.25907V7.65907C11.2591 7.65907 11.2457 7.6641 11.2067 7.64807C11.1877 7.64025 11.1669 7.62913 11.1467 7.61466C11.1264 7.60024 11.111 7.58558 11.1003 7.57352L12.8954 5.98061ZM11.2268 7.94707C11.2159 7.94707 11.1547 7.94538 11.0683 7.90937C10.9755 7.87064 10.8903 7.80726 10.8269 7.72996L12.6828 6.20817C12.2818 5.71922 11.7272 5.54707 11.2268 5.54707V7.94707ZM10.8253 7.72792C10.7783 7.67037 10.7542 7.61552 10.7435 7.58034C10.7337 7.54821 10.7378 7.54225 10.7378 7.57507H13.1378C13.1378 7.12447 13.0259 6.62853 12.6844 6.21021L10.8253 7.72792ZM10.7378 7.57507C10.7378 7.6391 10.7231 7.53865 10.833 7.40684L12.6767 8.94329C13.0265 8.52349 13.1378 8.02104 13.1378 7.57507H10.7378ZM10.8345 7.405C10.8951 7.33259 10.9757 7.27266 11.0643 7.23532C11.1481 7.20001 11.2097 7.19707 11.2268 7.19707V9.59707C11.7397 9.59707 12.2825 9.41437 12.6752 8.94513L10.8345 7.405ZM11.2268 7.19707C11.2503 7.19707 11.315 7.20141 11.3992 7.2378C11.4871 7.27578 11.5614 7.33381 11.6147 7.39724L9.777 8.9409C10.162 9.39918 10.6955 9.59707 11.2268 9.59707V7.19707ZM11.6254 7.41021C11.6731 7.46862 11.698 7.525 11.7093 7.56231C11.7196 7.59635 11.7158 7.60482 11.7158 7.57507H9.31585C9.31585 8.01349 9.42323 8.50772 9.76625 8.92792L11.6254 7.41021ZM11.7158 7.57507C11.7158 7.54257 11.7199 7.55004 11.7096 7.584C11.6983 7.6215 11.6733 7.67828 11.6254 7.73692L9.76625 6.21921C9.42226 6.6406 9.31585 7.13567 9.31585 7.57507H11.7158ZM11.6294 7.73207C11.5737 7.80102 11.494 7.86462 11.3992 7.90559C11.3101 7.9441 11.244 7.94707 11.2268 7.94707V5.54707C10.7058 5.54707 10.1565 5.73601 9.76232 6.22406L11.6294 7.73207Z" fill="#F7A87C"/>
<path d="M8.00048 1.4C4.3552 1.4 1.4 4.3552 1.4 8.00048C1.4 11.6458 4.3552 14.601 8.00048 14.601C11.6459 14.601 14.6 11.6456 14.6 8.00048C14.6 4.35533 11.6459 1.4 8.00048 1.4Z" fill="#F7A87C" stroke="#F7A87C" stroke-width="1.2"/>
<path d="M8.27467 11.912V10.8729C9.16948 10.815 10.093 10.3246 10.0932 9.25701C10.0932 7.09224 6.74488 8.04471 6.74488 6.68815C6.74488 5.96655 7.3222 5.73568 7.92822 5.73568C8.64982 5.73568 9.11157 6.02445 9.19818 6.8037H9.92001C9.89107 5.70625 9.19842 5.21554 8.27467 5.12893V4.08984H7.72677V5.12893C6.86018 5.21554 6.05199 5.70601 6.05199 6.71638C6.05199 8.73687 9.40034 7.72676 9.40034 9.25653C9.40034 10.0358 8.70746 10.2667 8.07248 10.2667C7.29324 10.2667 6.62931 9.92045 6.62931 8.9967H5.90771C5.90771 10.209 6.71592 10.7574 7.72605 10.8729V11.912H8.27467Z" fill="white" stroke="white" stroke-width="0.8"/>
</svg>
