<svg width="16" height="16" viewBox="0 0 16 16" fill="none" xmlns="http://www.w3.org/2000/svg">
<circle cx="8" cy="8" r="6" fill="#6BA9FF" fill-opacity="0.2"/>
<path d="M3.92436 6.50107V8.64307H5.42736V8.36407H4.24836V6.50107H3.92436ZM6.64482 6.45907C6.31782 6.45907 6.05982 6.56407 5.87382 6.78007C5.69382 6.98407 5.60682 7.24807 5.60682 7.57507C5.60682 7.89907 5.69382 8.16307 5.87382 8.36707C6.05982 8.57707 6.31782 8.68507 6.64482 8.68507C6.96882 8.68507 7.22682 8.58007 7.41582 8.37007C7.59582 8.16607 7.68582 7.90207 7.68582 7.57507C7.68582 7.24507 7.59582 6.97807 7.41582 6.77707C7.22682 6.56407 6.96882 6.45907 6.64482 6.45907ZM6.64482 6.74707C6.87282 6.74707 7.04982 6.81907 7.17282 6.96907C7.29282 7.11607 7.35582 7.31707 7.35582 7.57507C7.35582 7.83007 7.29282 8.03107 7.17282 8.17507C7.04982 8.32207 6.87282 8.39707 6.64482 8.39707C6.41682 8.39707 6.23982 8.31907 6.11382 8.16907C5.99382 8.02207 5.93382 7.82407 5.93382 7.57507C5.93382 7.32307 5.99382 7.12507 6.11382 6.97807C6.23982 6.82207 6.41682 6.74707 6.64482 6.74707ZM8.94413 6.45907C8.62913 6.45907 8.37713 6.56707 8.19113 6.78907C8.01413 6.99607 7.92713 7.26007 7.92713 7.58107C7.92713 7.89907 8.01413 8.16007 8.19113 8.36107C8.38013 8.57707 8.64413 8.68507 8.98613 8.68507C9.17213 8.68507 9.34313 8.66107 9.49913 8.61307C9.64613 8.56507 9.77513 8.49907 9.88613 8.41207V7.51207H8.96813V7.79107H9.55913V8.25607C9.48713 8.30107 9.40913 8.33707 9.31913 8.36107C9.22613 8.38507 9.12713 8.40007 9.02213 8.40007C8.75513 8.40007 8.55713 8.32507 8.43113 8.17507C8.31113 8.03707 8.25413 7.83907 8.25413 7.58107C8.25413 7.31707 8.31713 7.11007 8.44913 6.96007C8.57213 6.81607 8.73713 6.74707 8.94413 6.74707C9.11213 6.74707 9.25013 6.78307 9.35213 6.85807C9.45413 6.93007 9.52013 7.03807 9.55013 7.18207H9.88013C9.84113 6.94207 9.74513 6.76507 9.59213 6.64507C9.43313 6.51907 9.21713 6.45907 8.94413 6.45907ZM11.2268 6.45907C10.8998 6.45907 10.6418 6.56407 10.4558 6.78007C10.2758 6.98407 10.1888 7.24807 10.1888 7.57507C10.1888 7.89907 10.2758 8.16307 10.4558 8.36707C10.6418 8.57707 10.8998 8.68507 11.2268 8.68507C11.5508 8.68507 11.8088 8.58007 11.9978 8.37007C12.1778 8.16607 12.2678 7.90207 12.2678 7.57507C12.2678 7.24507 12.1778 6.97807 11.9978 6.77707C11.8088 6.56407 11.5508 6.45907 11.2268 6.45907ZM11.2268 6.74707C11.4548 6.74707 11.6318 6.81907 11.7548 6.96907C11.8748 7.11607 11.9378 7.31707 11.9378 7.57507C11.9378 7.83007 11.8748 8.03107 11.7548 8.17507C11.6318 8.32207 11.4548 8.39707 11.2268 8.39707C10.9988 8.39707 10.8218 8.31907 10.6958 8.16907C10.5758 8.02207 10.5158 7.82407 10.5158 7.57507C10.5158 7.32307 10.5758 7.12507 10.6958 6.97807C10.8218 6.82207 10.9988 6.74707 11.2268 6.74707Z" fill="#6BA9FF"/>
<path d="M8.00048 1.4C4.3552 1.4 1.4 4.3552 1.4 8.00048C1.4 11.6458 4.3552 14.601 8.00048 14.601C11.6459 14.601 14.6 11.6456 14.6 8.00048C14.6 4.35533 11.6459 1.4 8.00048 1.4Z" fill="#C0C8D6" stroke="#C0C8D6" stroke-width="1.2"/>
<path d="M8.27467 11.912V10.8729C9.16948 10.815 10.093 10.3246 10.0932 9.25701C10.0932 7.09224 6.74488 8.04471 6.74488 6.68815C6.74488 5.96655 7.3222 5.73568 7.92822 5.73568C8.64982 5.73568 9.11157 6.02445 9.19818 6.8037H9.92001C9.89107 5.70625 9.19842 5.21554 8.27467 5.12893V4.08984H7.72677V5.12893C6.86018 5.21554 6.05199 5.70601 6.05199 6.71638C6.05199 8.73687 9.40034 7.72676 9.40034 9.25653C9.40034 10.0358 8.70746 10.2667 8.07248 10.2667C7.29324 10.2667 6.62931 9.92045 6.62931 8.9967H5.90771C5.90771 10.209 6.71592 10.7574 7.72605 10.8729V11.912H8.27467Z" fill="#C0C8D6" stroke="white" stroke-width="0.8"/>
</svg>
