<svg width="56" height="56" viewBox="0 0 56 56" fill="none" xmlns="http://www.w3.org/2000/svg">
<circle cx="28" cy="28" r="28" fill="black" fill-opacity="0.5"/>
<path d="M34.0371 25.6157H32.4139" stroke="white" stroke-width="1.46087" stroke-linejoin="round"/>
<circle cx="27.9998" cy="28.6087" r="2.92174" stroke="white" stroke-width="1.46087"/>
<path d="M20.0869 24.0814C20.0869 23.5435 20.5229 23.1075 21.0608 23.1075H22.43C22.525 23.1075 22.6113 23.0523 22.6511 22.9661L23.1575 21.8699C23.3168 21.5252 23.6619 21.3044 24.0416 21.3044H26.3341H27.3771C27.7568 21.3044 28.1019 21.5252 28.2612 21.8699L28.7676 22.9661C28.8074 23.0523 28.8937 23.1075 28.9886 23.1075H34.9391C35.477 23.1075 35.913 23.5435 35.913 24.0814V33.7218C35.913 34.2597 35.477 34.6957 34.9391 34.6957H28H21.0608C20.523 34.6957 20.0869 34.2597 20.0869 33.7218V24.0814Z" stroke="white" stroke-width="1.46087"/>
</svg>
