<svg width="59" height="17" viewBox="0 0 59 17" fill="none" xmlns="http://www.w3.org/2000/svg">
<path fill-rule="evenodd" clip-rule="evenodd" d="M14.4255 15H57.0003C58.1048 15 59.0003 14.1046 59.0003 13V4C59.0003 2.89543 58.1048 2 57.0003 2H14.4256L15.5227 2.63339C16.5128 3.20502 17.1227 4.26143 17.1227 5.40468V11.5953C17.1227 12.7385 16.5128 13.7949 15.5227 14.3666L14.4255 15Z" fill="url(#paint0_linear_4549_53075)"/>
<path fill-rule="evenodd" clip-rule="evenodd" d="M14.4255 15H57.0003C58.1048 15 59.0003 14.1046 59.0003 13V4C59.0003 2.89543 58.1048 2 57.0003 2H14.4256L15.2917 2.5H57.0003C57.8287 2.5 58.5003 3.17157 58.5003 4V13C58.5003 13.8284 57.8287 14.5 57.0003 14.5H15.2916L14.4255 15Z" fill="url(#paint1_linear_4549_53075)"/>
<path d="M26.733 12.912H25.4695L25.2795 12.228L26.5145 12.2565C26.752 12.2565 26.8755 12.114 26.8755 11.829V5.274H20.6245V12.9405H19.9405V4.609H27.5595V11.981C27.5595 12.5985 27.284 12.912 26.733 12.912ZM21.318 6.3665H26.1915V7.003H21.318V6.3665ZM21.85 8.029H25.6595V11.088H21.85V8.029ZM24.9945 10.48V8.6465H22.515V10.48H24.9945ZM30.096 5.958H32.908V5.369H29.184V4.78H32.908V4.21H33.592V4.78H37.316V5.369H33.592V5.958H36.404V7.8105H33.592V8.3995H36.537V9.682H37.5725V10.2425H36.537V11.487H33.592V12.114C33.592 12.646 33.307 12.912 32.7465 12.912H31.578L31.4355 12.266C31.8155 12.2945 32.1765 12.3135 32.5185 12.3135C32.775 12.3135 32.908 12.19 32.908 11.9525V11.487H29.7825V10.936H32.908V10.2425H28.9275V9.682H32.908V8.9505H29.7825V8.3995H32.908V7.8105H30.096V5.958ZM35.72 7.288V6.4805H33.592V7.288H35.72ZM32.908 7.288V6.4805H30.78V7.288H32.908ZM33.592 8.9505V9.682H35.8815V8.9505H33.592ZM35.8815 10.2425H33.592V10.936H35.8815V10.2425ZM41.781 11.0595V11.715C40.85 12.076 39.786 12.3705 38.589 12.589L38.5035 11.924C39.7575 11.715 40.85 11.4205 41.781 11.0595ZM40.09 4.191L40.7455 4.4475C40.261 5.6825 39.767 6.6705 39.273 7.4115C39.7005 7.3735 40.128 7.3165 40.5555 7.25C40.7265 6.908 40.9165 6.547 41.1065 6.167L41.7145 6.395C40.8785 8.0005 40.1755 9.1405 39.6245 9.815C40.3085 9.682 40.9925 9.5015 41.6765 9.2735V9.891C40.679 10.214 39.729 10.442 38.817 10.5655L38.627 9.9385C38.7505 9.8815 38.855 9.815 38.9405 9.739C39.292 9.378 39.7195 8.751 40.2135 7.8675C39.691 7.9435 39.159 8.01 38.627 8.0765L38.4655 7.4495C38.57 7.4115 38.665 7.326 38.7505 7.2025C39.2635 6.3285 39.71 5.3215 40.09 4.191ZM46.3885 5.92L46.4835 6.547L44.042 6.889C44.061 7.345 44.0895 7.7725 44.1275 8.181L46.645 7.782L46.7495 8.428L44.2035 8.827C44.2225 8.998 44.251 9.169 44.2795 9.321C44.3745 9.815 44.4885 10.2425 44.6215 10.6225C45.1345 10.1475 45.5905 9.6155 45.9895 9.0075L46.531 9.378C46.0275 10.1095 45.486 10.7365 44.897 11.2495C44.935 11.3065 44.9635 11.373 45.0015 11.43C45.315 11.8955 45.5905 12.133 45.8375 12.133C46.0845 12.133 46.303 11.62 46.474 10.6035L47.0535 10.9835C46.7875 12.2375 46.4075 12.874 45.9135 12.874C45.4575 12.855 45.03 12.57 44.6215 12C44.536 11.886 44.46 11.772 44.403 11.6485C43.7 12.171 42.94 12.5605 42.1325 12.8075L41.7335 12.2565C42.6075 11.9715 43.396 11.5725 44.099 11.05C43.9185 10.632 43.776 10.176 43.662 9.663C43.605 9.416 43.567 9.1785 43.529 8.9315L41.819 9.207L41.724 8.561L43.4435 8.2855C43.396 7.877 43.3675 7.44 43.358 6.984L41.99 7.1835L41.8855 6.5565L43.339 6.3475V4.2385H44.023V6.2525L46.3885 5.92ZM45.087 4.21C45.5715 4.666 45.942 5.0555 46.208 5.388L45.676 5.7585C45.41 5.388 45.03 4.9795 44.555 4.5425L45.087 4.21ZM48.697 4.989H51.8985V4.2385H52.6015V4.989H55.803V5.616H52.6015V6.4425H56.1925V8.181H55.5275V7.041H51.8985L52.421 7.2975C51.851 7.7535 51.262 8.143 50.6445 8.4755C51.5185 8.4565 52.231 8.4375 52.763 8.3995C53.0955 8.1715 53.4375 7.934 53.7795 7.687L54.3305 8.0575C53.2095 8.8935 52.0125 9.53 50.7205 9.986C51.9555 9.948 53.181 9.8815 54.416 9.796C54.207 9.568 53.9885 9.3495 53.7605 9.1215L54.2545 8.808C54.948 9.4825 55.48 10.0715 55.8505 10.5845L55.3375 10.955C55.1855 10.727 55.0145 10.499 54.8245 10.271C54.055 10.3185 53.333 10.366 52.649 10.404V12.2185C52.649 12.6935 52.383 12.9405 51.87 12.9405H51.0055L50.863 12.304C51.129 12.3325 51.395 12.3515 51.642 12.3515C51.851 12.3515 51.965 12.247 51.965 12.057V10.4325C50.92 10.48 49.9605 10.518 49.0865 10.537L48.9535 9.9195C49.153 9.929 49.3525 9.9385 49.5425 9.9385C50.3215 9.72 51.1195 9.378 51.9555 8.903C51.3095 8.922 50.578 8.9505 49.7515 8.9695L49.6185 8.447C49.761 8.4185 49.9035 8.3615 50.046 8.2855C50.6635 7.934 51.2525 7.516 51.8035 7.041H48.9725V8.1715H48.3075V6.4425H51.8985V5.616H48.697V4.989ZM53.656 10.9075C54.644 11.2685 55.537 11.7055 56.3445 12.2185L55.993 12.7695C55.119 12.1995 54.226 11.7435 53.314 11.411L53.656 10.9075ZM50.6635 10.8885L51.0625 11.335C50.35 11.905 49.457 12.3705 48.3835 12.741L48.0985 12.133C49.134 11.8195 49.989 11.4015 50.6635 10.8885Z" fill="#694607"/>
<path d="M7.8 1.09697C8.23316 0.84688 8.76684 0.84688 9.2 1.09697L14.5612 4.19227C14.9944 4.44235 15.2612 4.90453 15.2612 5.4047V11.5953C15.2612 12.0955 14.9944 12.5576 14.5612 12.8077L9.2 15.903C8.76684 16.1531 8.23316 16.1531 7.8 15.903L2.43878 12.8077C2.00562 12.5576 1.73878 12.0955 1.73878 11.5953V5.4047C1.73878 4.90453 2.00562 4.44235 2.43878 4.19227L7.8 1.09697Z" fill="url(#paint2_linear_4549_53075)" stroke="url(#paint3_linear_4549_53075)" stroke-width="1.2"/>
<path opacity="0.26" d="M8.15009 2.20204C8.36667 2.077 8.63351 2.077 8.85009 2.20204L13.7793 5.0479C13.9958 5.17294 14.1293 5.40403 14.1293 5.65411V11.3458C14.1293 11.5959 13.9958 11.827 13.7793 11.952L8.85009 14.7979C8.63351 14.9229 8.36667 14.9229 8.15009 14.7979L3.22093 11.952C3.00435 11.827 2.87093 11.5959 2.87093 11.3458V5.65411C2.87093 5.40403 3.00435 5.17294 3.22093 5.0479L8.15009 2.20204Z" fill="url(#paint4_linear_4549_53075)"/>
<g opacity="0.4">
<mask id="mask0_4549_53075" style="mask-type:alpha" maskUnits="userSpaceOnUse" x="2" y="2" width="13" height="13">
<path d="M8.15009 2.20204C8.36667 2.077 8.63351 2.077 8.85009 2.20204L13.7793 5.0479C13.9958 5.17294 14.1293 5.40403 14.1293 5.65411V11.3458C14.1293 11.5959 13.9958 11.827 13.7793 11.952L8.85009 14.7979C8.63351 14.9229 8.36667 14.9229 8.15009 14.7979L3.22093 11.952C3.00435 11.827 2.87093 11.5959 2.87093 11.3458V5.65411C2.87093 5.40403 3.00435 5.17294 3.22093 5.0479L8.15009 2.20204Z" fill="url(#paint5_linear_4549_53075)"/>
</mask>
<g mask="url(#mask0_4549_53075)">
<path d="M6.5 -0.499634H10.5L9 8.50037H8L6.5 -0.499634Z" fill="url(#paint6_linear_4549_53075)"/>
<path d="M6.5 17.4996H10.5L9 8.49957H8L6.5 17.4996Z" fill="url(#paint7_linear_4549_53075)"/>
<path d="M17.4998 6.5L17.4998 10.5L8.49982 9L8.49982 8L17.4998 6.5Z" fill="url(#paint8_linear_4549_53075)"/>
<path d="M-0.499634 6.5L-0.499634 10.5L8.50037 9L8.50037 8L-0.499634 6.5Z" fill="url(#paint9_linear_4549_53075)"/>
<path d="M13.4498 0.721619L16.2783 3.55005L8.85364 8.85335L8.14653 8.14624L13.4498 0.721619Z" fill="url(#paint10_linear_4549_53075)"/>
<path d="M0.721863 13.4498L3.55029 16.2783L8.85359 8.85364L8.14648 8.14653L0.721863 13.4498Z" fill="url(#paint11_linear_4549_53075)"/>
<path d="M16.2783 13.4498L13.4499 16.2783L8.14659 8.85363L8.8537 8.14653L16.2783 13.4498Z" fill="url(#paint12_linear_4549_53075)"/>
<path d="M3.55035 0.721619L0.721927 3.55005L8.14655 8.85335L8.85365 8.14624L3.55035 0.721619Z" fill="url(#paint13_linear_4549_53075)"/>
</g>
</g>
<g clip-path="url(#clip0_4549_53075)">
<g filter="url(#filter0_d_4549_53075)">
<path d="M5.5 9.625V7.1875C5.5 6.73995 5.67779 6.31072 5.99426 5.99426C6.31072 5.67779 6.73995 5.5 7.1875 5.5C7.63505 5.5 8.06428 5.67779 8.38074 5.99426C8.69721 6.31072 8.875 6.73995 8.875 7.1875V9.8125C8.875 10.0611 8.97377 10.2996 9.14959 10.4754C9.3254 10.6512 9.56386 10.75 9.8125 10.75C10.0611 10.75 10.2996 10.6512 10.4754 10.4754C10.6512 10.2996 10.75 10.0611 10.75 9.8125V7.31125C10.4997 7.22278 10.2887 7.04868 10.1544 6.8197C10.02 6.59072 9.97094 6.32162 10.0158 6.05995C10.0607 5.79829 10.1966 5.56092 10.3996 5.3898C10.6026 5.21867 10.8595 5.12482 11.125 5.12482C11.3905 5.12482 11.6474 5.21867 11.8504 5.3898C12.0534 5.56092 12.1893 5.79829 12.2342 6.05995C12.2791 6.32162 12.23 6.59072 12.0956 6.8197C11.9613 7.04868 11.7503 7.22278 11.5 7.31125V9.8125C11.5 10.2601 11.3222 10.6893 11.0057 11.0057C10.6893 11.3222 10.2601 11.5 9.8125 11.5C9.36495 11.5 8.93573 11.3222 8.61926 11.0057C8.30279 10.6893 8.125 10.2601 8.125 9.8125V7.1875C8.125 6.93886 8.02623 6.7004 7.85041 6.52459C7.6746 6.34877 7.43614 6.25 7.1875 6.25C6.93886 6.25 6.7004 6.34877 6.52459 6.52459C6.34877 6.7004 6.25 6.93886 6.25 7.1875V9.625H7.375L5.875 11.5L4.375 9.625H5.5Z" fill="url(#paint14_linear_4549_53075)"/>
</g>
</g>
<defs>
<filter id="filter0_d_4549_53075" x="3.875" y="4.62482" width="9.87537" height="8.37518" filterUnits="userSpaceOnUse" color-interpolation-filters="sRGB">
<feFlood flood-opacity="0" result="BackgroundImageFix"/>
<feColorMatrix in="SourceAlpha" type="matrix" values="0 0 0 0 0 0 0 0 0 0 0 0 0 0 0 0 0 0 127 0" result="hardAlpha"/>
<feOffset dx="0.5" dy="0.5"/>
<feGaussianBlur stdDeviation="0.5"/>
<feComposite in2="hardAlpha" operator="out"/>
<feColorMatrix type="matrix" values="0 0 0 0 0.933333 0 0 0 0 0.655277 0 0 0 0 0.427778 0 0 0 1 0"/>
<feBlend mode="normal" in2="BackgroundImageFix" result="effect1_dropShadow_4549_53075"/>
<feBlend mode="normal" in="SourceGraphic" in2="effect1_dropShadow_4549_53075" result="shape"/>
</filter>
<linearGradient id="paint0_linear_4549_53075" x1="13.4565" y1="5.5" x2="58.89" y2="13.1546" gradientUnits="userSpaceOnUse">
<stop stop-color="#FFEFE9"/>
<stop offset="1" stop-color="#FFEDD5"/>
</linearGradient>
<linearGradient id="paint1_linear_4549_53075" x1="13.4565" y1="5.5" x2="58.89" y2="13.1546" gradientUnits="userSpaceOnUse">
<stop stop-color="#FFBF92"/>
<stop offset="1" stop-color="#FD9A31"/>
</linearGradient>
<linearGradient id="paint2_linear_4549_53075" x1="6" y1="1.5" x2="10" y2="15.5" gradientUnits="userSpaceOnUse">
<stop stop-color="#FFB681"/>
<stop offset="1" stop-color="#FA9A43"/>
</linearGradient>
<linearGradient id="paint3_linear_4549_53075" x1="5" y1="7.40675e-08" x2="11" y2="17" gradientUnits="userSpaceOnUse">
<stop stop-color="#FFE5DB"/>
<stop offset="1" stop-color="#FFE9C0"/>
</linearGradient>
<linearGradient id="paint4_linear_4549_53075" x1="6.20597" y1="2.38232" x2="9.2648" y2="15" gradientUnits="userSpaceOnUse">
<stop stop-color="white" stop-opacity="0.49"/>
<stop offset="1" stop-color="white" stop-opacity="0.21"/>
</linearGradient>
<linearGradient id="paint5_linear_4549_53075" x1="6.20597" y1="2.38232" x2="9.2648" y2="15" gradientUnits="userSpaceOnUse">
<stop stop-color="#B8EFFF"/>
<stop offset="1" stop-color="white" stop-opacity="0.85"/>
</linearGradient>
<linearGradient id="paint6_linear_4549_53075" x1="8.5" y1="-0.999634" x2="8.5" y2="8.50037" gradientUnits="userSpaceOnUse">
<stop stop-color="white" stop-opacity="0.69"/>
<stop offset="1" stop-color="white" stop-opacity="0"/>
</linearGradient>
<linearGradient id="paint7_linear_4549_53075" x1="8.5" y1="17.9996" x2="8.5" y2="8.49957" gradientUnits="userSpaceOnUse">
<stop stop-color="white" stop-opacity="0.69"/>
<stop offset="1" stop-color="white" stop-opacity="0"/>
</linearGradient>
<linearGradient id="paint8_linear_4549_53075" x1="17.9998" y1="8.5" x2="8.49982" y2="8.5" gradientUnits="userSpaceOnUse">
<stop stop-color="white" stop-opacity="0.69"/>
<stop offset="1" stop-color="white" stop-opacity="0"/>
</linearGradient>
<linearGradient id="paint9_linear_4549_53075" x1="-0.999634" y1="8.5" x2="8.50037" y2="8.5" gradientUnits="userSpaceOnUse">
<stop stop-color="white" stop-opacity="0.69"/>
<stop offset="1" stop-color="white" stop-opacity="0"/>
</linearGradient>
<linearGradient id="paint10_linear_4549_53075" x1="15.2176" y1="1.78228" x2="8.50008" y2="8.49979" gradientUnits="userSpaceOnUse">
<stop stop-color="white" stop-opacity="0.69"/>
<stop offset="1" stop-color="white" stop-opacity="0"/>
</linearGradient>
<linearGradient id="paint11_linear_4549_53075" x1="1.78252" y1="15.2176" x2="8.50004" y2="8.50008" gradientUnits="userSpaceOnUse">
<stop stop-color="white" stop-opacity="0.69"/>
<stop offset="1" stop-color="white" stop-opacity="0"/>
</linearGradient>
<linearGradient id="paint12_linear_4549_53075" x1="15.2177" y1="15.2176" x2="8.50015" y2="8.50008" gradientUnits="userSpaceOnUse">
<stop stop-color="white" stop-opacity="0.69"/>
<stop offset="1" stop-color="white" stop-opacity="0"/>
</linearGradient>
<linearGradient id="paint13_linear_4549_53075" x1="1.78259" y1="1.78228" x2="8.5001" y2="8.49979" gradientUnits="userSpaceOnUse">
<stop stop-color="white" stop-opacity="0.69"/>
<stop offset="1" stop-color="white" stop-opacity="0"/>
</linearGradient>
<linearGradient id="paint14_linear_4549_53075" x1="7.26264" y1="4.91231" x2="8.30866" y2="11.3731" gradientUnits="userSpaceOnUse">
<stop stop-color="white"/>
<stop offset="1" stop-color="#FFE6D8"/>
</linearGradient>
<clipPath id="clip0_4549_53075">
<rect width="9" height="9" fill="white" transform="translate(4 4)"/>
</clipPath>
</defs>
</svg>
