<svg width="60" height="60" viewBox="0 0 60 60" fill="none" xmlns="http://www.w3.org/2000/svg">
<g filter="url(#filter0_d_3841_94628)">
<circle cx="30" cy="25" r="20" fill="#9965FE"/>
<path fill-rule="evenodd" clip-rule="evenodd" d="M22 17.5C21.4477 17.5 21 17.9477 21 18.5V29.7108C21 30.2631 21.4477 30.7108 22 30.7108H27L29.6463 33.3593C29.8415 33.5548 30.1584 33.5548 30.3536 33.3593L33 30.7108H38C38.5523 30.7108 39 30.2631 39 29.7108V18.5C39 17.9477 38.5523 17.5 38 17.5H22Z" fill="white"/>
<rect x="24.5" y="23.2399" width="2.4" height="2.40197" rx="1.2" fill="#9965FE"/>
<rect x="28.8" y="23.2399" width="2.4" height="2.40197" rx="1.2" fill="#9965FE"/>
<rect x="33.1001" y="23.2399" width="2.4" height="2.40197" rx="1.2" fill="#9965FE"/>
</g>
<defs>
<filter id="filter0_d_3841_94628" x="0" y="0" width="60" height="60" filterUnits="userSpaceOnUse" color-interpolation-filters="sRGB">
<feFlood flood-opacity="0" result="BackgroundImageFix"/>
<feColorMatrix in="SourceAlpha" type="matrix" values="0 0 0 0 0 0 0 0 0 0 0 0 0 0 0 0 0 0 127 0" result="hardAlpha"/>
<feOffset dy="5"/>
<feGaussianBlur stdDeviation="5"/>
<feComposite in2="hardAlpha" operator="out"/>
<feColorMatrix type="matrix" values="0 0 0 0 0.354361 0 0 0 0 0.068177 0 0 0 0 0.9625 0 0 0 0.24 0"/>
<feBlend mode="normal" in2="BackgroundImageFix" result="effect1_dropShadow_3841_94628"/>
<feBlend mode="normal" in="SourceGraphic" in2="effect1_dropShadow_3841_94628" result="shape"/>
</filter>
</defs>
</svg>
