<svg width="20" height="20" viewBox="0 0 20 20" fill="none" xmlns="http://www.w3.org/2000/svg">
<path d="M10 2C14.4183 2 18 5.58172 18 10C18 14.4183 14.4183 18 10 18C5.58172 18 2 14.4183 2 10C2 5.58172 5.58172 2 10 2Z" fill="#FFB54C"/>
<path fill-rule="evenodd" clip-rule="evenodd" d="M10.8504 13.7988C10.8504 14.075 10.6265 14.2988 10.3504 14.2988L9.65039 14.2988C9.37425 14.2988 9.15039 14.075 9.15039 13.7988L9.15039 13.0988C9.15039 12.8227 9.37425 12.5988 9.65039 12.5988L10.3504 12.5988C10.6265 12.5988 10.8504 12.8227 10.8504 13.0988L10.8504 13.7988ZM10.8504 10.9492C10.8504 11.2254 10.6265 11.4492 10.3504 11.4492L9.65039 11.4492C9.37425 11.4492 9.15039 11.2254 9.15039 10.9492L9.15039 6.24922C9.15039 5.97308 9.37425 5.74922 9.65039 5.74922L10.3504 5.74922C10.6265 5.74922 10.8504 5.97308 10.8504 6.24922L10.8504 10.9492Z" fill="white"/>
</svg>
