<svg width="16" height="16" viewBox="0 0 16 16" fill="none" xmlns="http://www.w3.org/2000/svg">
<path d="M8.00001 14.4C11.5346 14.4 14.4 11.5346 14.4 7.99998C14.4 4.46535 11.5346 1.59998 8.00001 1.59998C4.46538 1.59998 1.60001 4.46535 1.60001 7.99998C1.60001 11.5346 4.46538 14.4 8.00001 14.4Z" fill="#FFB54C"/>
<path fill-rule="evenodd" clip-rule="evenodd" d="M8.68031 4.9603C8.68031 4.73939 8.50123 4.5603 8.28031 4.5603L7.72031 4.5603C7.4994 4.5603 7.32031 4.73939 7.32031 4.9603V5.5203C7.32031 5.74122 7.4994 5.9203 7.72031 5.9203H8.28031C8.50123 5.9203 8.68031 5.74122 8.68031 5.5203V4.9603ZM8.68031 7.23999C8.68031 7.01908 8.50123 6.83999 8.28031 6.83999H7.72031C7.4994 6.83999 7.32031 7.01908 7.32031 7.23999V11C7.32031 11.2209 7.4994 11.4 7.72031 11.4H8.28031C8.50123 11.4 8.68031 11.2209 8.68031 11L8.68031 7.23999Z" fill="white"/>
</svg>
