<svg width="16" height="16" viewBox="0 0 16 16" fill="none" xmlns="http://www.w3.org/2000/svg">
<path d="M10.3333 10.3333H13.3333C13.7015 10.3333 14 10.0349 14 9.66667V2.66667C14 2.29848 13.7015 2 13.3333 2H6.33329C5.96509 2 5.66663 2.29848 5.66663 2.66667V5.66667" stroke="currentColor" stroke-width="1.2" stroke-linecap="round" stroke-linejoin="round"/>
<path d="M5.66667 5.66699H2.66667C2.29848 5.66699 2 5.96546 2 6.33366V13.3337C2 13.7019 2.29848 14.0003 2.66667 14.0003H9.66667C10.0349 14.0003 10.3333 13.7019 10.3333 13.3337V10.3337" stroke="currentColor" stroke-width="1.2" stroke-linecap="round" stroke-linejoin="round"/>
<path d="M9.66663 5.66699H6.33329C5.9651 5.66699 5.66663 5.96547 5.66663 6.33366V9.66699C5.66663 10.0352 5.9651 10.3337 6.33329 10.3337H9.66663C10.0348 10.3337 10.3333 10.0352 10.3333 9.66699V6.33366C10.3333 5.96547 10.0348 5.66699 9.66663 5.66699Z" stroke="currentColor" stroke-width="1.2" stroke-linecap="round" stroke-linejoin="round"/>
</svg>
