<svg width="17" height="16" viewBox="0 0 17 16" fill="none" xmlns="http://www.w3.org/2000/svg">
<path fill-rule="evenodd" clip-rule="evenodd" d="M2.7 8C2.7 11.2033 5.29675 13.8 8.5 13.8C11.7033 13.8 14.3 11.2033 14.3 8C14.3 4.79675 11.7033 2.2 8.5 2.2C5.29675 2.2 2.7 4.79675 2.7 8ZM8.5 1C4.63401 1 1.5 4.13401 1.5 8C1.5 11.866 4.63401 15 8.5 15C12.366 15 15.5 11.866 15.5 8C15.5 4.13401 12.366 1 8.5 1Z" fill="#939CAD"/>
<path d="M7.89999 11.65C7.89999 11.9814 8.16862 12.25 8.49999 12.25C8.83136 12.25 9.09999 11.9814 9.09999 11.65V6.85C9.09999 6.51863 8.83136 6.25 8.49999 6.25C8.16862 6.25 7.89999 6.51863 7.89999 6.85V11.65Z" fill="#939CAD"/>
<path d="M7.75 4.5C7.75 4.91421 8.08579 5.25 8.5 5.25C8.91421 5.25 9.25 4.91421 9.25 4.5C9.25 4.08579 8.91421 3.75 8.5 3.75C8.08579 3.75 7.75 4.08579 7.75 4.5Z" fill="#939CAD"/>
</svg>
