<svg width="16" height="16" viewBox="0 0 16 16" fill="none" xmlns="http://www.w3.org/2000/svg" color="#262A33">
<path d="M16 0H0V16H16V0Z" fill="white" fill-opacity="0.01"/>
<path d="M6.33333 6.66667C7.622 6.66667 8.66667 5.622 8.66667 4.33333C8.66667 3.04467 7.622 2 6.33333 2C5.04467 2 4 3.04467 4 4.33333C4 5.622 5.04467 6.66667 6.33333 6.66667Z" stroke="currentColor" stroke-width="1.2" stroke-linecap="round" stroke-linejoin="round"/>
<path d="M10.8693 2.33325C11.5469 2.74155 12.0001 3.48449 12.0001 4.33325C12.0001 5.18202 11.5469 5.92495 10.8693 6.33325" stroke="currentColor" stroke-width="1.2" stroke-linecap="round" stroke-linejoin="round"/>
<path d="M1.33337 13.5999V13.9999H11.3334V13.5999C11.3334 12.1065 11.3334 11.3597 11.0427 10.7893C10.7871 10.2875 10.3791 9.87955 9.87734 9.62389C9.30691 9.33325 8.56017 9.33325 7.06671 9.33325H5.60004C4.10657 9.33325 3.35984 9.33325 2.7894 9.62389C2.28763 9.87955 1.87968 10.2875 1.62402 10.7893C1.33337 11.3597 1.33337 12.1065 1.33337 13.5999Z" stroke="currentColor" stroke-width="1.2" stroke-linecap="round" stroke-linejoin="round"/>
<path d="M14.6666 14.0001V13.6001C14.6666 12.1066 14.6666 11.3599 14.376 10.7894C14.1203 10.2877 13.7123 9.87969 13.2106 9.62402" stroke="currentColor" stroke-width="1.2" stroke-linecap="round" stroke-linejoin="round"/>
</svg>
