<svg width="16" height="16" viewBox="0 0 16 16" fill="none" xmlns="http://www.w3.org/2000/svg" color="#262A33">
<path d="M16 0H0V16H16V0Z" fill="white" fill-opacity="0.01"/>
<path d="M13.3334 8.99992V1.99992C13.3334 1.63173 13.0349 1.33325 12.6667 1.33325H3.33341C2.96522 1.33325 2.66675 1.63173 2.66675 1.99992V13.9999C2.66675 14.3681 2.96522 14.6666 3.33341 14.6666H7.00008" stroke="currentColor" stroke-width="1.2" stroke-linecap="round" stroke-linejoin="round"/>
<path d="M5.66675 4H10.3334" stroke="currentColor" stroke-width="1.2" stroke-linecap="round" stroke-linejoin="round"/>
<path d="M5.66675 6.66675H10.3334" stroke="currentColor" stroke-width="1.2" stroke-linecap="round" stroke-linejoin="round"/>
<path d="M5.66675 9.33325H7.66675" stroke="currentColor" stroke-width="1.2" stroke-linecap="round" stroke-linejoin="round"/>
<path d="M13 14.6667L11.8452 13.5119L13 14.6667ZM11.8452 13.5119C12.1468 13.2103 12.3333 12.7936 12.3333 12.3334C12.3333 11.4129 11.5871 10.6667 10.6667 10.6667C9.7462 10.6667 9 11.4129 9 12.3334C9 13.2539 9.7462 14.0001 10.6667 14.0001C11.1269 14.0001 11.5436 13.8135 11.8452 13.5119Z" stroke="currentColor" stroke-width="1.2" stroke-linecap="round" stroke-linejoin="round"/>
</svg>
