<svg width="16" height="16" viewBox="0 0 16 16" fill="none" xmlns="http://www.w3.org/2000/svg" color="#262A33">
<path d="M7.76615 14.0225L7.73102 14.019L7.71654 14.0196C4.56854 13.9551 2.05375 12.8052 1.9999 11.3874L2.00746 11.3872L2.00659 8.16133C2.00156 8.11632 1.99902 8.07103 1.99902 8.02547L2.00002 7.99797L2.00702 7.99765L2.00659 4.83987C2.00156 4.79487 1.99902 4.74958 1.99902 4.70402C1.99902 3.22304 4.68391 2.02246 7.9959 2.02246C11.2052 2.02246 13.8257 3.14977 13.9851 4.56716C13.9891 4.58015 13.9916 4.59315 13.9938 4.60629L14.0016 4.70402L14.0018 8.02427C14.0018 8.35705 13.7332 8.62681 13.4018 8.62681C13.1036 8.62681 12.8562 8.4083 12.8097 8.12201L12.8018 8.02427L12.801 7.1812L12.8024 6.30784C11.7089 6.96207 9.96299 7.38558 7.9959 7.38558C6.03909 7.38558 4.30119 6.96649 3.20659 6.31809L3.20737 8.08752C3.35248 8.64144 5.37334 9.50196 7.9959 9.50196L8.18268 9.50105C8.51405 9.50105 8.78268 9.77081 8.78268 10.1036C8.78268 10.4031 8.56509 10.6515 8.28 10.6982L8.18268 10.7061H7.76615L7.73002 10.703L7.63166 10.7022C5.82437 10.6538 4.23278 10.2474 3.20659 9.63954L3.20746 11.3872L3.20602 11.396L3.22447 11.4464C3.47846 12.0094 5.45471 12.8174 7.9959 12.8174L8.18268 12.8174C8.51405 12.8174 8.78268 13.0871 8.78268 13.4199C8.78268 13.7194 8.56509 13.9679 8.28 14.0146L8.18268 14.0225H7.76615ZM7.9959 3.22754C5.34127 3.22754 3.30314 4.10923 3.20289 4.66216L3.20746 4.70402L3.20737 4.76607C3.35248 5.31999 5.37334 6.1805 7.9959 6.1805C10.7186 6.1805 12.7928 5.25302 12.7928 4.70402C12.7928 4.15503 10.7186 3.22754 7.9959 3.22754Z" fill="currentColor"/>
<path d="M9.99121 10.7881H13.4912" stroke="currentColor" stroke-linecap="round"/>
<path d="M13.5029 12.2861H10.0029" stroke="currentColor" stroke-linecap="round"/>
<path d="M12.0889 9.48926L13.5889 10.7728" stroke="currentColor" stroke-linecap="round"/>
<path d="M11.4912 13.5853L9.99121 12.3018" stroke="currentColor" stroke-linecap="round"/>
</svg>
