<svg width="16" height="16" viewBox="0 0 16 16" fill="none" xmlns="http://www.w3.org/2000/svg">
<path fill-rule="evenodd" clip-rule="evenodd" d="M15 4.0999H1V2.8999H15V4.0999ZM3.6 4.99996V13.2C3.6 13.3104 3.68954 13.4 3.8 13.4H12.2C12.3105 13.4 12.4 13.3104 12.4 13.2V4.99996H13.6V13.2C13.6 13.9732 12.9732 14.6 12.2 14.6H3.8C3.0268 14.6 2.4 13.9732 2.4 13.2V4.99996H3.6ZM7.4 5.99996V11H8.6V5.99996H7.4Z" fill="#7D8085"/>
<path d="M5 3.5L5.46213 1.65149C5.48439 1.56246 5.56438 1.5 5.65616 1.5H10.3438C10.4356 1.5 10.5156 1.56246 10.5379 1.65149L11 3.5" stroke="#7D8085" stroke-width="1.2"/>
</svg>
