<svg width="24" height="24" viewBox="0 0 24 24" fill="none" xmlns="http://www.w3.org/2000/svg">
<g filter="url(#filter0_d_1634_88486)">
<circle cx="12" cy="9" r="8" fill="#33D0DE"/>
</g>
<g clip-path="url(#clip0_1634_88486)">
<path fill-rule="evenodd" clip-rule="evenodd" d="M16.3173 12.7641C15.3129 11.5353 14.2548 10.8315 13.4753 10.6657C12.6959 10.5 11.9695 10.5501 11.2647 10.6657V12.7641L7.98047 9.26681L11.2647 5.76953V7.8679C12.5678 7.87823 13.8262 8.33999 14.7387 9.26681C15.6513 10.1936 16.1775 11.3819 16.3173 12.7641Z" fill="white"/>
<path d="M16.3173 12.7641L16.027 13.0014C16.1317 13.1296 16.3081 13.1739 16.4609 13.1105C16.6138 13.0471 16.7071 12.891 16.6904 12.7263L16.3173 12.7641ZM11.2647 10.6657L11.204 10.2957L10.8897 10.3473V10.6657H11.2647ZM11.2647 12.7641L10.9913 13.0208C11.0966 13.1329 11.2597 13.1694 11.4027 13.1128C11.5457 13.0561 11.6397 12.9179 11.6397 12.7641H11.2647ZM7.98047 9.26681L7.70711 9.01011C7.57159 9.15442 7.57159 9.37921 7.70711 9.52352L7.98047 9.26681ZM11.2647 5.76953H11.6397C11.6397 5.61571 11.5457 5.47749 11.4027 5.42087C11.2597 5.36424 11.0966 5.4007 10.9913 5.51282L11.2647 5.76953ZM11.2647 7.8679H10.8897V8.23994L11.2617 8.24289L11.2647 7.8679ZM14.7387 9.26681L14.4715 9.52991L14.4715 9.52991L14.7387 9.26681ZM16.6077 12.5268C15.5773 11.2662 14.4511 10.4898 13.5533 10.2989L13.3973 11.0325C14.0584 11.1731 15.0486 11.8044 16.027 13.0014L16.6077 12.5268ZM13.5533 10.2989C12.7103 10.1196 11.9323 10.1762 11.204 10.2957L11.3254 11.0358C12.0066 10.924 12.6815 10.8803 13.3973 11.0325L13.5533 10.2989ZM10.8897 10.6657V12.7641H11.6397V10.6657H10.8897ZM11.538 12.5074L8.25383 9.01011L7.70711 9.52352L10.9913 13.0208L11.538 12.5074ZM8.25383 9.52352L11.538 6.02624L10.9913 5.51282L7.70711 9.01011L8.25383 9.52352ZM10.8897 5.76953V7.8679H11.6397V5.76953H10.8897ZM11.2617 8.24289C12.4799 8.25254 13.6383 8.68363 14.4715 9.52991L15.006 9.00372C14.0141 7.99635 12.6557 7.50391 11.2677 7.49291L11.2617 8.24289ZM14.4715 9.52991C15.318 10.3896 15.812 11.4954 15.9442 12.8018L16.6904 12.7263C16.5429 11.2683 15.9846 9.99768 15.0059 9.00371L14.4715 9.52991Z" fill="white"/>
</g>
<defs>
<filter id="filter0_d_1634_88486" x="0" y="0" width="24" height="24" filterUnits="userSpaceOnUse" color-interpolation-filters="sRGB">
<feFlood flood-opacity="0" result="BackgroundImageFix"/>
<feColorMatrix in="SourceAlpha" type="matrix" values="0 0 0 0 0 0 0 0 0 0 0 0 0 0 0 0 0 0 127 0" result="hardAlpha"/>
<feOffset dy="3"/>
<feGaussianBlur stdDeviation="2"/>
<feComposite in2="hardAlpha" operator="out"/>
<feColorMatrix type="matrix" values="0 0 0 0 0.2 0 0 0 0 0.815686 0 0 0 0 0.870588 0 0 0 0.2 0"/>
<feBlend mode="normal" in2="BackgroundImageFix" result="effect1_dropShadow_1634_88486"/>
<feBlend mode="normal" in="SourceGraphic" in2="effect1_dropShadow_1634_88486" result="shape"/>
</filter>
<clipPath id="clip0_1634_88486">
<rect width="10.1053" height="10.1739" fill="white" transform="translate(7.1582 4.17969)"/>
</clipPath>
</defs>
</svg>
