<svg width="56" height="56" viewBox="0 0 56 56" fill="none" xmlns="http://www.w3.org/2000/svg">
<g clip-path="url(#clip0_2681_138960)">
<g filter="url(#filter0_d_2681_138960)">
<circle cx="27.998" cy="23.998" r="19.998" fill="#3081F2"/>
<g clip-path="url(#clip1_2681_138960)">
<g filter="url(#filter1_d_2681_138960)">
<path fill-rule="evenodd" clip-rule="evenodd" d="M26.8892 15.3433C22.0638 15.4649 18.1895 19.4147 18.1895 24.2694C18.1895 29.2008 22.1871 33.1984 27.1185 33.1984C31.9734 33.1984 35.9234 29.3237 36.0446 24.4979H26.8892V15.3433Z" fill="white"/>
<path fill-rule="evenodd" clip-rule="evenodd" d="M37.1896 23.1264C37.1802 22.7376 37.1465 22.3548 37.09 21.9795C37.0662 21.8208 37.0382 21.6634 37.0063 21.5075C36.2425 17.7746 33.2075 14.869 29.4081 14.2975L29.4081 14.2975L29.3152 14.284C28.9704 14.2358 28.6196 14.2067 28.2637 14.198V23.1264H37.1896Z" fill="white"/>
</g>
</g>
</g>
</g>
<defs>
<filter id="filter0_d_2681_138960" x="0" y="0" width="55.9961" height="55.9961" filterUnits="userSpaceOnUse" color-interpolation-filters="sRGB">
<feFlood flood-opacity="0" result="BackgroundImageFix"/>
<feColorMatrix in="SourceAlpha" type="matrix" values="0 0 0 0 0 0 0 0 0 0 0 0 0 0 0 0 0 0 127 0" result="hardAlpha"/>
<feOffset dy="4"/>
<feGaussianBlur stdDeviation="4"/>
<feComposite in2="hardAlpha" operator="out"/>
<feColorMatrix type="matrix" values="0 0 0 0 0.0423582 0 0 0 0 0.365749 0 0 0 0 0.816898 0 0 0 0.17 0"/>
<feBlend mode="normal" in2="BackgroundImageFix" result="effect1_dropShadow_2681_138960"/>
<feBlend mode="normal" in="SourceGraphic" in2="effect1_dropShadow_2681_138960" result="shape"/>
</filter>
<filter id="filter1_d_2681_138960" x="15.1895" y="13.198" width="25" height="25.0005" filterUnits="userSpaceOnUse" color-interpolation-filters="sRGB">
<feFlood flood-opacity="0" result="BackgroundImageFix"/>
<feColorMatrix in="SourceAlpha" type="matrix" values="0 0 0 0 0 0 0 0 0 0 0 0 0 0 0 0 0 0 127 0" result="hardAlpha"/>
<feOffset dy="2"/>
<feGaussianBlur stdDeviation="1.5"/>
<feComposite in2="hardAlpha" operator="out"/>
<feColorMatrix type="matrix" values="0 0 0 0 0.0124289 0 0 0 0 0.368808 0 0 0 0 0.865979 0 0 0 0.66 0"/>
<feBlend mode="normal" in2="BackgroundImageFix" result="effect1_dropShadow_2681_138960"/>
<feBlend mode="normal" in="SourceGraphic" in2="effect1_dropShadow_2681_138960" result="shape"/>
</filter>
<clipPath id="clip0_2681_138960">
<rect width="56" height="56" fill="white"/>
</clipPath>
<clipPath id="clip1_2681_138960">
<rect width="23.3846" height="23.3846" fill="white" transform="translate(16 12)"/>
</clipPath>
</defs>
</svg>
