<svg width="56" height="56" viewBox="0 0 56 56" fill="none" xmlns="http://www.w3.org/2000/svg">
<g filter="url(#filter0_d_4498_215831)">
<circle cx="28" cy="24" r="20" fill="#FFB54C"/>
<g clip-path="url(#clip0_4498_215831)">
<g filter="url(#filter1_d_4498_215831)">
<mask id="mask0_4498_215831" style="mask-type:alpha" maskUnits="userSpaceOnUse" x="19" y="15" width="18" height="16">
<rect x="19.668" y="15.25" width="16.6667" height="15.5556" rx="0.666667" fill="#D9D9D9"/>
</mask>
<g mask="url(#mask0_4498_215831)">
<path d="M20.7793 17.2497C20.7793 16.8815 21.0778 16.583 21.446 16.583H34.5571C34.9253 16.583 35.2237 16.8815 35.2237 17.2497V19.5637C35.2237 19.7978 35.101 20.0147 34.9004 20.1352L28.3448 24.0729C28.1335 24.1998 27.8695 24.1998 27.6582 24.0729L21.1027 20.1352C20.902 20.0147 20.7793 19.7978 20.7793 19.5637V17.2497Z" fill="white"/>
<g filter="url(#filter2_d_4498_215831)">
<path fill-rule="evenodd" clip-rule="evenodd" d="M35.4917 21.2411C35.862 21.0173 36.3346 21.2839 36.3346 21.7166V30.2497C36.3346 30.3993 36.2755 30.5351 36.1793 30.635C36.1563 30.6589 36.1591 30.6992 36.1875 30.7163C36.229 30.7414 36.2112 30.8053 36.1627 30.8053H35.7791H20.2235H19.8399C19.7914 30.8053 19.7736 30.7414 19.8151 30.7163C19.8435 30.6992 19.8463 30.6589 19.8233 30.635C19.7271 30.5351 19.668 30.3993 19.668 30.2497V21.7166C19.668 21.2839 20.1406 21.0173 20.5109 21.2411L27.6565 25.56C27.8685 25.6882 28.1341 25.6882 28.3461 25.56L35.4917 21.2411Z" fill="white"/>
</g>
</g>
</g>
</g>
</g>
<defs>
<filter id="filter0_d_4498_215831" x="1" y="1" width="54" height="54" filterUnits="userSpaceOnUse" color-interpolation-filters="sRGB">
<feFlood flood-opacity="0" result="BackgroundImageFix"/>
<feColorMatrix in="SourceAlpha" type="matrix" values="0 0 0 0 0 0 0 0 0 0 0 0 0 0 0 0 0 0 127 0" result="hardAlpha"/>
<feOffset dy="4"/>
<feGaussianBlur stdDeviation="3.5"/>
<feComposite in2="hardAlpha" operator="out"/>
<feColorMatrix type="matrix" values="0 0 0 0 0.9625 0 0 0 0 0.604771 0 0 0 0 0.068177 0 0 0 0.23 0"/>
<feBlend mode="normal" in2="BackgroundImageFix" result="effect1_dropShadow_4498_215831"/>
<feBlend mode="normal" in="SourceGraphic" in2="effect1_dropShadow_4498_215831" result="shape"/>
</filter>
<filter id="filter1_d_4498_215831" x="17.168" y="15.4163" width="21.666" height="19.2227" filterUnits="userSpaceOnUse" color-interpolation-filters="sRGB">
<feFlood flood-opacity="0" result="BackgroundImageFix"/>
<feColorMatrix in="SourceAlpha" type="matrix" values="0 0 0 0 0 0 0 0 0 0 0 0 0 0 0 0 0 0 127 0" result="hardAlpha"/>
<feOffset dy="1.33333"/>
<feGaussianBlur stdDeviation="1.25"/>
<feComposite in2="hardAlpha" operator="out"/>
<feColorMatrix type="matrix" values="0 0 0 0 1 0 0 0 0 0.592863 0 0 0 0 0.298039 0 0 0 1 0"/>
<feBlend mode="normal" in2="BackgroundImageFix" result="effect1_dropShadow_4498_215831"/>
<feBlend mode="normal" in="SourceGraphic" in2="effect1_dropShadow_4498_215831" result="shape"/>
</filter>
<filter id="filter2_d_4498_215831" x="18.5569" y="18.9379" width="21.1105" height="14.09" filterUnits="userSpaceOnUse" color-interpolation-filters="sRGB">
<feFlood flood-opacity="0" result="BackgroundImageFix"/>
<feColorMatrix in="SourceAlpha" type="matrix" values="0 0 0 0 0 0 0 0 0 0 0 0 0 0 0 0 0 0 127 0" result="hardAlpha"/>
<feOffset dx="1.11111"/>
<feGaussianBlur stdDeviation="1.11111"/>
<feComposite in2="hardAlpha" operator="out"/>
<feColorMatrix type="matrix" values="0 0 0 0 0.0159722 0 0 0 0 0.31625 0 0 0 0 0.766667 0 0 0 0.2 0"/>
<feBlend mode="normal" in2="BackgroundImageFix" result="effect1_dropShadow_4498_215831"/>
<feBlend mode="normal" in="SourceGraphic" in2="effect1_dropShadow_4498_215831" result="shape"/>
</filter>
<clipPath id="clip0_4498_215831">
<rect width="20" height="20" fill="white" transform="translate(18 14)"/>
</clipPath>
</defs>
</svg>
