<svg width="24" height="24" viewBox="0 0 24 24" fill="none" xmlns="http://www.w3.org/2000/svg">
<g filter="url(#filter0_d_1634_88462)">
<circle cx="12" cy="9" r="8" fill="#FFB54C"/>
</g>
<g clip-path="url(#clip0_1634_88462)">
<path fill-rule="evenodd" clip-rule="evenodd" d="M8.41704 6.90333C8.25778 6.99793 8.16016 7.16946 8.16016 7.3547V12.2701C8.16016 12.5601 8.39521 12.7951 8.68516 12.7951H15.7352C16.0251 12.7951 16.2602 12.5601 16.2602 12.2701V7.3547C16.2602 7.16946 16.1625 6.99793 16.0033 6.90333L12.4783 4.80947C12.313 4.7113 12.1073 4.7113 11.942 4.80947L8.41704 6.90333ZM9.57579 7.45664C9.38607 7.29611 9.10213 7.31977 8.94159 7.50949C8.78106 7.69921 8.80472 7.98315 8.99444 8.14369L11.9194 10.6187C12.0872 10.7607 12.333 10.7607 12.5008 10.6187L15.4258 8.14369C15.6155 7.98315 15.6392 7.69921 15.4786 7.50949C15.3181 7.31977 15.0342 7.29611 14.8444 7.45664L12.2101 9.68569L9.57579 7.45664Z" fill="white"/>
</g>
<defs>
<filter id="filter0_d_1634_88462" x="0" y="0" width="24" height="24" filterUnits="userSpaceOnUse" color-interpolation-filters="sRGB">
<feFlood flood-opacity="0" result="BackgroundImageFix"/>
<feColorMatrix in="SourceAlpha" type="matrix" values="0 0 0 0 0 0 0 0 0 0 0 0 0 0 0 0 0 0 127 0" result="hardAlpha"/>
<feOffset dy="3"/>
<feGaussianBlur stdDeviation="2"/>
<feComposite in2="hardAlpha" operator="out"/>
<feColorMatrix type="matrix" values="0 0 0 0 1 0 0 0 0 0.709804 0 0 0 0 0.298039 0 0 0 0.2 0"/>
<feBlend mode="normal" in2="BackgroundImageFix" result="effect1_dropShadow_1634_88462"/>
<feBlend mode="normal" in="SourceGraphic" in2="effect1_dropShadow_1634_88462" result="shape"/>
</filter>
<clipPath id="clip0_1634_88462">
<rect width="9" height="9" fill="white" transform="translate(7.71094 4.2002)"/>
</clipPath>
</defs>
</svg>
