<svg width="24" height="24" viewBox="0 0 24 24" fill="none" xmlns="http://www.w3.org/2000/svg">
<g filter="url(#filter0_d_1634_88441)">
<circle cx="12" cy="9" r="8" fill="#0FD683"/>
</g>
<path fill-rule="evenodd" clip-rule="evenodd" d="M7.94636 12.5844C8.95073 11.3556 10.0089 10.6518 10.7883 10.486C11.5678 10.3203 12.2942 10.3704 12.999 10.486V12.5844L16.2832 9.08713L12.999 5.58984V7.68821C11.6959 7.69854 10.4375 8.16031 9.52494 9.08713C8.61238 10.0139 8.08621 11.2022 7.94636 12.5844Z" fill="white"/>
<path d="M7.94636 12.5844L8.23671 12.8217C8.13197 12.9499 7.95562 12.9942 7.80274 12.9308C7.64986 12.8674 7.55661 12.7113 7.57327 12.5467L7.94636 12.5844ZM12.999 10.486L13.0597 10.116L13.374 10.1676V10.486H12.999ZM12.999 12.5844L13.2724 12.8411C13.1671 12.9532 13.004 12.9897 12.8609 12.9331C12.7179 12.8764 12.624 12.7382 12.624 12.5844H12.999ZM16.2832 9.08713L16.5566 8.83042C16.6921 8.97473 16.6921 9.19952 16.5566 9.34383L16.2832 9.08713ZM12.999 5.58984H12.624C12.624 5.43602 12.7179 5.2978 12.8609 5.24118C13.004 5.18455 13.1671 5.22101 13.2724 5.33314L12.999 5.58984ZM12.999 7.68821H13.374V8.06025L13.002 8.0632L12.999 7.68821ZM9.52494 9.08713L9.79215 9.35022L9.79215 9.35023L9.52494 9.08713ZM7.65601 12.3471C8.68637 11.0865 9.81255 10.3102 10.7103 10.1192L10.8663 10.8528C10.2052 10.9934 9.2151 11.6248 8.23671 12.8217L7.65601 12.3471ZM10.7103 10.1192C11.5534 9.93996 12.3314 9.99647 13.0597 10.116L12.9383 10.8561C12.257 10.7443 11.5822 10.7006 10.8663 10.8528L10.7103 10.1192ZM13.374 10.486V12.5844H12.624V10.486H13.374ZM12.7256 12.3277L16.0098 8.83042L16.5566 9.34383L13.2724 12.8411L12.7256 12.3277ZM16.0098 9.34383L12.7256 5.84655L13.2724 5.33314L16.5566 8.83042L16.0098 9.34383ZM13.374 5.58984V7.68821H12.624V5.58984H13.374ZM13.002 8.0632C11.7838 8.07286 10.6254 8.50395 9.79215 9.35022L9.25772 8.82403C10.2496 7.81666 11.6079 7.32423 12.996 7.31323L13.002 8.0632ZM9.79215 9.35023C8.94571 10.2099 8.45164 11.3157 8.31946 12.6222L7.57327 12.5467C7.72078 11.0887 8.27905 9.818 9.25772 8.82403L9.79215 9.35023Z" fill="white"/>
<defs>
<filter id="filter0_d_1634_88441" x="0" y="0" width="24" height="24" filterUnits="userSpaceOnUse" color-interpolation-filters="sRGB">
<feFlood flood-opacity="0" result="BackgroundImageFix"/>
<feColorMatrix in="SourceAlpha" type="matrix" values="0 0 0 0 0 0 0 0 0 0 0 0 0 0 0 0 0 0 127 0" result="hardAlpha"/>
<feOffset dy="3"/>
<feGaussianBlur stdDeviation="2"/>
<feComposite in2="hardAlpha" operator="out"/>
<feColorMatrix type="matrix" values="0 0 0 0 0.0588235 0 0 0 0 0.839216 0 0 0 0 0.513726 0 0 0 0.2 0"/>
<feBlend mode="normal" in2="BackgroundImageFix" result="effect1_dropShadow_1634_88441"/>
<feBlend mode="normal" in="SourceGraphic" in2="effect1_dropShadow_1634_88441" result="shape"/>
</filter>
</defs>
</svg>
