<svg width="56" height="56" viewBox="0 0 56 56" fill="none" xmlns="http://www.w3.org/2000/svg">
<g filter="url(#filter0_d_4498_215841)">
<circle cx="28" cy="24" r="20" fill="#00C4D6"/>
<g clip-path="url(#clip0_4498_215841)">
<g filter="url(#filter1_d_4498_215841)">
<path d="M20 16.5642C20 16.2526 20.2526 16 20.5642 16H34.4946C34.8062 16 35.0588 16.2526 35.0588 16.5642V19H20V16.5642Z" fill="white"/>
<path fill-rule="evenodd" clip-rule="evenodd" d="M20.5642 20.0127C20.2526 20.0127 20 20.2653 20 20.5769V28.4337V30.6941C20 31.1886 20.5908 31.4439 20.9509 31.105L23.6265 28.5871C23.7312 28.4886 23.8695 28.4337 24.0132 28.4337H27.5789H34.5937C34.9053 28.4337 35.1579 28.1811 35.1579 27.8695V20.5769C35.1579 20.2653 34.9053 20.0127 34.5937 20.0127H20.5642ZM24.3408 25.3232C24.8774 25.3232 25.3125 24.8882 25.3125 24.3515C25.3125 23.8149 24.8774 23.3799 24.3408 23.3799C23.8042 23.3799 23.3691 23.8149 23.3691 24.3515C23.3691 24.8882 23.8042 25.3232 24.3408 25.3232ZM28.5507 24.3515C28.5507 24.8882 28.1157 25.3232 27.5791 25.3232C27.0424 25.3232 26.6074 24.8882 26.6074 24.3515C26.6074 23.8149 27.0424 23.3799 27.5791 23.3799C28.1157 23.3799 28.5507 23.8149 28.5507 24.3515ZM30.8174 25.3232C31.354 25.3232 31.789 24.8882 31.789 24.3515C31.789 23.8149 31.354 23.3799 30.8174 23.3799C30.2807 23.3799 29.8457 23.8149 29.8457 24.3515C29.8457 24.8882 30.2807 25.3232 30.8174 25.3232Z" fill="white"/>
</g>
</g>
</g>
<defs>
<filter id="filter0_d_4498_215841" x="1" y="1" width="54" height="54" filterUnits="userSpaceOnUse" color-interpolation-filters="sRGB">
<feFlood flood-opacity="0" result="BackgroundImageFix"/>
<feColorMatrix in="SourceAlpha" type="matrix" values="0 0 0 0 0 0 0 0 0 0 0 0 0 0 0 0 0 0 127 0" result="hardAlpha"/>
<feOffset dy="4"/>
<feGaussianBlur stdDeviation="3.5"/>
<feComposite in2="hardAlpha" operator="out"/>
<feColorMatrix type="matrix" values="0 0 0 0 0.2 0 0 0 0 0.815686 0 0 0 0 0.870588 0 0 0 0.23 0"/>
<feBlend mode="normal" in2="BackgroundImageFix" result="effect1_dropShadow_4498_215841"/>
<feBlend mode="normal" in="SourceGraphic" in2="effect1_dropShadow_4498_215841" result="shape"/>
</filter>
<filter id="filter1_d_4498_215841" x="17" y="14.6" width="21.1582" height="21.2598" filterUnits="userSpaceOnUse" color-interpolation-filters="sRGB">
<feFlood flood-opacity="0" result="BackgroundImageFix"/>
<feColorMatrix in="SourceAlpha" type="matrix" values="0 0 0 0 0 0 0 0 0 0 0 0 0 0 0 0 0 0 127 0" result="hardAlpha"/>
<feOffset dy="1.6"/>
<feGaussianBlur stdDeviation="1.5"/>
<feComposite in2="hardAlpha" operator="out"/>
<feColorMatrix type="matrix" values="0 0 0 0 0.00139731 0 0 0 0 0.618793 0 0 0 0 0.754319 0 0 0 0.41 0"/>
<feBlend mode="normal" in2="BackgroundImageFix" result="effect1_dropShadow_4498_215841"/>
<feBlend mode="normal" in="SourceGraphic" in2="effect1_dropShadow_4498_215841" result="shape"/>
</filter>
<clipPath id="clip0_4498_215841">
<rect width="20" height="20" fill="white" transform="translate(18 14)"/>
</clipPath>
</defs>
</svg>
