<svg width="16" height="16" viewBox="0 0 16 16" fill="none" xmlns="http://www.w3.org/2000/svg">
<mask id="path-1-inside-1_10338_141642" fill="white">
<path d="M2.5 2V14C2.5 14.5523 2.94771 15 3.5 15H12.5C13.0523 15 13.5 14.5523 13.5 14V5.38848C13.5 5.12205 13.3937 4.86665 13.2046 4.67891L9.79246 1.29043C9.60513 1.1044 9.35184 1 9.08783 1H3.5C2.94772 1 2.5 1.44772 2.5 2Z"/>
</mask>
<path d="M9 5.5H8.5V6H9V5.5ZM11 11.5H5V12.5H11V11.5ZM8 9.5H5V10.5H8V9.5ZM8.5 1.5V5.5H9.5V1.5H8.5ZM9 6H13V5H9V6ZM9.79246 1.29043L10.4971 0.580867V0.580867L9.79246 1.29043ZM13.2046 4.67891L13.9093 3.96935L13.9093 3.96935L13.2046 4.67891ZM3.5 14V2H1.5V14H3.5ZM12.5 14H3.5V16H12.5V14ZM3.5 2H9.08783V0H3.5V2ZM12.5 5.38848V14H14.5V5.38848H12.5ZM9.08783 2L12.5 5.38848L13.9093 3.96935L10.4971 0.580867L9.08783 2ZM14.5 5.38848C14.5 4.85563 14.2874 4.34481 13.9093 3.96935L12.5 5.38848V5.38848H14.5ZM9.08783 2V2L10.4971 0.580867C10.1224 0.208805 9.61585 0 9.08783 0V2ZM1.5 14C1.5 15.1046 2.39543 16 3.5 16V14H3.5H1.5ZM12.5 16C13.6046 16 14.5 15.1046 14.5 14H12.5V14V16ZM3.5 2V2V0C2.39543 0 1.5 0.895431 1.5 2H3.5Z" fill="#C0C8D6" mask="url(#path-1-inside-1_10338_141642)"/>
</svg>
