<svg width="16" height="16" viewBox="0 0 16 16" fill="none" xmlns="http://www.w3.org/2000/svg" color="#262A33">
<rect x="2" y="2" width="12" height="12" stroke="currentColor" stroke-width="1.2" stroke-linejoin="round"/>
<path d="M11 8V7.4C10.7727 7.4 10.565 7.5284 10.4633 7.73167L11 8ZM5 8L5.53666 7.73167C5.43502 7.5284 5.22726 7.4 5 7.4V8ZM10 10V10.6C10.2273 10.6 10.435 10.4716 10.5367 10.2683L10 10ZM6 10L5.46334 10.2683C5.56498 10.4716 5.77274 10.6 6 10.6V10ZM11 8.6H13.5V7.4H11V8.6ZM2.5 8.6H5V7.4H2.5V8.6ZM10.5367 10.2683L11.5367 8.26833L10.4633 7.73167L9.46334 9.73167L10.5367 10.2683ZM4.46334 8.26833L5.46334 10.2683L6.53666 9.73167L5.53666 7.73167L4.46334 8.26833ZM6 10.6H10V9.4H6V10.6Z" fill="currentColor"/>
</svg>
