<svg width="15" height="14" viewBox="0 0 15 14" fill="none" xmlns="http://www.w3.org/2000/svg">
<path fill-rule="evenodd" clip-rule="evenodd" d="M3.125 1.3125C2.64175 1.3125 2.25 1.70425 2.25 2.1875V11.8125C2.25 12.2957 2.64175 12.6875 3.125 12.6875H7.5H11.875C12.3582 12.6875 12.75 12.2957 12.75 11.8125V2.1875C12.75 1.70425 12.3582 1.3125 11.875 1.3125H3.125ZM3.125 2.1875L11.875 2.1875V11.8125H7.5H3.125V2.1875ZM4.875 3.9375C4.63338 3.9375 4.4375 4.13338 4.4375 4.375C4.4375 4.61662 4.63338 4.8125 4.875 4.8125H10.125C10.3666 4.8125 10.5625 4.61662 10.5625 4.375C10.5625 4.13338 10.3666 3.9375 10.125 3.9375H4.875ZM4.875 6.5625C4.63338 6.5625 4.4375 6.75838 4.4375 7C4.4375 7.24162 4.63338 7.4375 4.875 7.4375H7.9375C8.17912 7.4375 8.375 7.24162 8.375 7C8.375 6.75838 8.17912 6.5625 7.9375 6.5625H4.875Z" fill="white"/>
</svg>
