<svg width="20" height="24" viewBox="0 0 20 24" fill="none" xmlns="http://www.w3.org/2000/svg">
<path d="M10 4C14.4183 4 18 7.58172 18 12C18 16.4183 14.4183 20 10 20C5.58172 20 2 16.4183 2 12C2 7.58172 5.58172 4 10 4Z" fill="#FFB54C"/>
<path fill-rule="evenodd" clip-rule="evenodd" d="M10.8494 15.7996C10.8494 16.0757 10.6256 16.2996 10.3494 16.2996L9.64941 16.2996C9.37327 16.2996 9.14941 16.0757 9.14941 15.7996L9.14941 15.0996C9.14941 14.8234 9.37327 14.5996 9.64941 14.5996L10.3494 14.5996C10.6256 14.5996 10.8494 14.8234 10.8494 15.0996L10.8494 15.7996ZM10.8494 12.95C10.8494 13.2261 10.6256 13.45 10.3494 13.45L9.64941 13.45C9.37327 13.45 9.14941 13.2261 9.14941 12.95L9.14941 8.24995C9.14941 7.97381 9.37327 7.74995 9.64941 7.74995L10.3494 7.74995C10.6256 7.74995 10.8494 7.97381 10.8494 8.24995L10.8494 12.95Z" fill="white"/>
</svg>
