<svg width="40" height="40" viewBox="0 0 40 40" fill="none" xmlns="http://www.w3.org/2000/svg">
<g clip-path="url(#clip0_4408_206789)">
<g filter="url(#filter0_d_4408_206789)">
<circle cx="19.9992" cy="17.1417" r="14.2843" fill="#6557FF"/>
</g>
<g clip-path="url(#clip1_4408_206789)">
<g filter="url(#filter1_d_4408_206789)">
<path fill-rule="evenodd" clip-rule="evenodd" d="M14.375 12.8569V20.6815C14.375 21.076 14.6948 21.3958 15.0893 21.3958H18.1845L19.6546 22.5234C19.911 22.7201 20.2676 22.7201 20.524 22.5234L21.994 21.3958H25.0893C25.4838 21.3958 25.8036 21.076 25.8036 20.6815V12.8569C25.8036 12.4624 25.4838 12.1426 25.0893 12.1426H15.0893C14.6948 12.1426 14.375 12.4624 14.375 12.8569ZM17.5446 16.25C17.1748 16.25 16.875 16.5498 16.875 16.9196C16.875 17.2895 17.1748 17.5893 17.5446 17.5893C17.9145 17.5893 18.2143 17.2895 18.2143 16.9196C18.2143 16.5498 17.9145 16.25 17.5446 16.25ZM19.3301 16.9196C19.3301 16.5498 19.6299 16.25 19.9997 16.25C20.3696 16.25 20.6694 16.5498 20.6694 16.9196C20.6694 17.2895 20.3696 17.5893 19.9997 17.5893C19.6299 17.5893 19.3301 17.2895 19.3301 16.9196ZM22.4548 16.25C22.085 16.25 21.7852 16.5498 21.7852 16.9196C21.7852 17.2895 22.085 17.5893 22.4548 17.5893C22.8246 17.5893 23.1244 17.2895 23.1244 16.9196C23.1244 16.5498 22.8246 16.25 22.4548 16.25Z" fill="white"/>
</g>
</g>
</g>
<defs>
<filter id="filter0_d_4408_206789" x="0.714844" y="0.714565" width="38.5684" height="38.5684" filterUnits="userSpaceOnUse" color-interpolation-filters="sRGB">
<feFlood flood-opacity="0" result="BackgroundImageFix"/>
<feColorMatrix in="SourceAlpha" type="matrix" values="0 0 0 0 0 0 0 0 0 0 0 0 0 0 0 0 0 0 127 0" result="hardAlpha"/>
<feOffset dy="2.85714"/>
<feGaussianBlur stdDeviation="2.5"/>
<feComposite in2="hardAlpha" operator="out"/>
<feColorMatrix type="matrix" values="0 0 0 0 0.418824 0 0 0 0 0.368627 0 0 0 0 0.996078 0 0 0 0.27 0"/>
<feBlend mode="normal" in2="BackgroundImageFix" result="effect1_dropShadow_4408_206789"/>
<feBlend mode="normal" in="SourceGraphic" in2="effect1_dropShadow_4408_206789" result="shape"/>
</filter>
<filter id="filter1_d_4408_206789" x="12.9464" y="11.6426" width="14.2849" height="13.3864" filterUnits="userSpaceOnUse" color-interpolation-filters="sRGB">
<feFlood flood-opacity="0" result="BackgroundImageFix"/>
<feColorMatrix in="SourceAlpha" type="matrix" values="0 0 0 0 0 0 0 0 0 0 0 0 0 0 0 0 0 0 127 0" result="hardAlpha"/>
<feOffset dy="0.928571"/>
<feGaussianBlur stdDeviation="0.714286"/>
<feComposite in2="hardAlpha" operator="out"/>
<feColorMatrix type="matrix" values="0 0 0 0 0.274931 0 0 0 0 0.215833 0 0 0 0 0.925 0 0 0 1 0"/>
<feBlend mode="normal" in2="BackgroundImageFix" result="effect1_dropShadow_4408_206789"/>
<feBlend mode="normal" in="SourceGraphic" in2="effect1_dropShadow_4408_206789" result="shape"/>
</filter>
<clipPath id="clip0_4408_206789">
<rect width="40" height="40" fill="white"/>
</clipPath>
<clipPath id="clip1_4408_206789">
<rect width="14.2857" height="14.2857" fill="white" transform="translate(12.8574 10)"/>
</clipPath>
</defs>
</svg>
