<svg width="16" height="16" viewBox="0 0 16 16" fill="none" xmlns="http://www.w3.org/2000/svg">
<circle cx="12" cy="12" r="4" fill="#FFE1B7"/>
<path d="M11.7396 11.3691H5.04194C4.38159 11.3691 4.41356 12.3269 5.04194 12.3269H11.7396C12.3568 12.3269 12.4128 11.3691 11.7396 11.3691Z" fill="#3F465C"/>
<path d="M11.746 11.3711H5.04666C4.34635 11.3711 4.4151 12.3288 5.04666 12.3288H11.7444C12.3711 12.3288 12.3871 11.3711 11.746 11.3711V11.3711Z" fill="#3F465C"/>
<path d="M13.1151 4.23583V12.7179C13.1151 12.9353 12.9392 13.1112 12.7218 13.1112H4.10383C3.52344 13.1096 2.86789 12.6555 2.86789 11.8497C2.86789 11.167 3.33795 10.5898 3.89277 10.5898H11.7465C12.0103 10.5898 12.2245 10.3755 12.2245 10.1117V2.38592C12.2245 2.12211 12.0119 1.90625 11.7465 1.90625H4.78975C3.20206 1.90625 1.91016 3.19816 1.91016 4.78584V11.8737C1.91016 12.0064 1.92136 12.1375 1.94533 12.267C2.12122 13.2903 2.92705 14.0673 3.89117 14.0673H12.7202C13.4653 14.0657 14.0696 13.463 14.0712 12.7163V4.23742C14.0712 3.59467 13.1151 3.60267 13.1151 4.23583ZM4.78975 2.86398H11.2668V9.63205H3.89277C3.52662 9.63364 3.17008 9.74397 2.86789 9.95183V4.78584C2.86948 3.72578 3.72969 2.86558 4.78975 2.86398Z" fill="#3F465C"/>
</svg>
