<svg width="16" height="16" viewBox="0 0 16 16" fill="none" xmlns="http://www.w3.org/2000/svg" color="#262A33">
<path d="M7.99999 5.99992C9.28865 5.99992 10.3333 4.95525 10.3333 3.66659C10.3333 2.37792 9.28865 1.33325 7.99999 1.33325C6.71133 1.33325 5.66666 2.37792 5.66666 3.66659C5.66666 4.95525 6.71133 5.99992 7.99999 5.99992Z" stroke="currentColor" stroke-width="1.2" stroke-linecap="round" stroke-linejoin="round"/>
<path d="M1.33334 13.6666C1.33334 10.7211 4.01964 8.33325 7.33334 8.33325" stroke="currentColor" stroke-width="1.2" stroke-linecap="round" stroke-linejoin="round"/>
<path d="M11.3333 14.3333C12.9902 14.3333 14.3333 12.9901 14.3333 11.3333C14.3333 9.6764 12.9902 8.33325 11.3333 8.33325C9.67649 8.33325 8.33334 9.6764 8.33334 11.3333C8.33334 12.9901 9.67649 14.3333 11.3333 14.3333Z" stroke="currentColor" stroke-width="1.2"/>
<path d="M8.5 11.5H14" stroke="currentColor" stroke-width="1.2"/>
</svg>
