<svg width="29" height="29" viewBox="0 0 29 29" fill="none" xmlns="http://www.w3.org/2000/svg">
<g clip-path="url(#clip0_7289_121535)">
<path d="M28.5718 14.4119C28.7118 23.1016 23.264 28.5438 14.5743 28.4094C5.88459 28.5438 0.442336 23.1016 0.576712 14.4119C0.442336 5.72218 5.88459 0.279921 14.5743 0.414298C23.264 0.279921 28.7062 5.72218 28.5718 14.4119Z" fill="#3063E7" fill-opacity="0.7"/>
<path d="M28.5333 15.9066C28.1078 9.71965 23.8805 5.91231 17.3744 6.01309C10.426 5.90111 6.06438 10.2628 6.17636 17.2111C6.06998 23.7172 9.88292 27.9445 16.0642 28.37C23.3934 27.9221 28.0854 23.2301 28.5333 15.9066Z" fill="#3B77EB" fill-opacity="0.2"/>
<path d="M28.3419 17.6377C27.5301 13.8528 24.5402 11.546 20.173 11.6132C14.9603 11.5292 11.6904 14.799 11.7744 20.0117C11.7072 24.3789 14.014 27.3688 17.7934 28.1807C23.566 27.24 27.4013 23.4047 28.3419 17.6377Z" fill="#386EE7" fill-opacity="0.2"/>
<path d="M27.855 19.7096C26.9536 18.0971 25.2403 17.1789 22.9727 17.2125C19.4957 17.1565 17.3176 19.3345 17.3736 22.8115C17.3344 25.0791 18.2583 26.7924 19.8652 27.6939C21.7587 27.1379 23.4824 26.1156 24.8783 24.7207C26.2742 23.3257 27.2977 21.6028 27.855 19.7096Z" fill="#386EE7" fill-opacity="0.3"/>
<path d="M9.38684 11.4994C9.38684 11.1404 9.67786 10.8494 10.0368 10.8494H19.2993C19.6583 10.8494 19.9493 11.1404 19.9493 11.4994V19.1369C19.9493 19.4959 19.6583 19.7869 19.2993 19.7869H10.0368C9.67786 19.7869 9.38684 19.4959 9.38684 19.1369V11.4994Z" stroke="#FBFBFB" stroke-width="1.21875" stroke-linecap="round"/>
<path d="M9.79309 11.2556L14.3075 14.2652C14.5259 14.4108 14.8103 14.4108 15.0286 14.2652L19.5431 11.2556" stroke="#FBFBFB" stroke-width="1.21875"/>
</g>
<defs>
<clipPath id="clip0_7289_121535">
<rect width="28" height="28" fill="white" transform="translate(0.574341 0.411865)"/>
</clipPath>
</defs>
</svg>
