<svg width="29" height="29" viewBox="0 0 29 29" fill="none" xmlns="http://www.w3.org/2000/svg">
<g clip-path="url(#clip0_7289_121493)">
<path d="M28.5718 14.4119C28.7118 23.1016 23.264 28.5438 14.5743 28.4094C5.88459 28.5438 0.442336 23.1016 0.576712 14.4119C0.442336 5.72218 5.88459 0.279921 14.5743 0.414298C23.264 0.279921 28.7062 5.72218 28.5718 14.4119Z" fill="#8DD6BC"/>
<path opacity="0.4" d="M28.5332 15.9061C28.1077 9.71916 23.8804 5.91182 17.3744 6.0126C10.426 5.90062 6.06432 10.2623 6.1763 17.2107C6.06992 23.7167 9.88286 27.944 16.0642 28.3695C23.3933 27.9216 28.0853 23.2296 28.5332 15.9061Z" fill="#52C79D"/>
<path opacity="0.5" d="M28.3419 17.6375C27.53 13.8525 24.5401 11.5457 20.1729 11.6129C14.9602 11.5289 11.6904 14.7988 11.7743 20.0114C11.7072 24.3787 14.014 27.3686 17.7933 28.1804C23.5659 27.2398 27.4012 23.4045 28.3419 17.6375Z" fill="#52C79D"/>
<path d="M27.8551 19.7094C26.9536 18.0969 25.2403 17.1786 22.9727 17.2122C19.4957 17.1562 17.3177 19.3343 17.3737 22.8113C17.3345 25.0789 18.2583 26.7922 19.8653 27.6936C21.7588 27.1377 23.4825 26.1154 24.8784 24.7204C26.2743 23.3255 27.2978 21.6025 27.8551 19.7094Z" fill="#52C79D"/>
<g clip-path="url(#clip1_7289_121493)">
<path d="M13.0824 16.4205L9.48669 14.4721C8.86093 14.1331 8.95624 13.207 9.63794 13.0025L18.0183 10.4884C18.6285 10.3053 19.1975 10.8743 19.0144 11.4845L16.5003 19.8649C16.2958 20.5466 15.3697 20.6419 15.0307 20.0161L13.0824 16.4205ZM13.0824 16.4205L14.8992 14.6036" stroke="white" stroke-width="1.23529" stroke-linejoin="round"/>
</g>
</g>
<defs>
<clipPath id="clip0_7289_121493">
<rect width="28" height="28" fill="white" transform="translate(0.574341 0.411865)"/>
</clipPath>
<clipPath id="clip1_7289_121493">
<rect width="13.1765" height="13.1765" fill="white" transform="translate(6.33905 13.8464) rotate(-45)"/>
</clipPath>
</defs>
</svg>
