<svg width="113" height="44" viewBox="0 0 113 44" fill="none" xmlns="http://www.w3.org/2000/svg">
<path d="M0 2C0 0.895431 0.89543 0 2 0H111C112.105 0 113 0.895431 113 2V42C113 43.1046 112.105 44 111 44H2C0.895431 44 0 43.1046 0 42V2Z" fill="white"/>
<path d="M2 0.5H111C111.828 0.5 112.5 1.17157 112.5 2V42C112.5 42.8284 111.828 43.5 111 43.5H2C1.17157 43.5 0.5 42.8284 0.5 42V2C0.5 1.17157 1.17157 0.5 2 0.5Z" stroke="#262A33" stroke-opacity="0.16"/>
<rect x="16" y="32" width="81" height="4" fill="#D6DBE3"/>
<rect x="16" y="24" width="58" height="4" fill="#BCC4D0"/>
<path d="M16.44 11.288V12.088H19.504L16.2 16.264V17H20.912V16.2H17.424L20.72 12.032V11.288H16.44ZM21.5894 11.176V17H22.5014V14.688C22.5014 14.336 22.5814 14.056 22.7494 13.832C22.9094 13.608 23.1334 13.496 23.4214 13.496C23.7334 13.496 23.9654 13.592 24.1254 13.792C24.2614 13.976 24.3334 14.248 24.3334 14.6V17H25.2454V14.44C25.2454 13.888 25.1254 13.472 24.8934 13.192C24.6454 12.896 24.2694 12.752 23.7654 12.752C23.5014 12.752 23.2694 12.8 23.0694 12.904C22.8454 13.016 22.6534 13.184 22.5014 13.416V11.176H21.5894ZM28.0866 12.752C27.5586 12.752 27.1426 12.84 26.8386 13.032C26.4786 13.24 26.2546 13.576 26.1666 14.032L27.0706 14.104C27.1186 13.888 27.2386 13.728 27.4146 13.624C27.5666 13.528 27.7666 13.488 28.0226 13.488C28.6146 13.488 28.9106 13.752 28.9106 14.296V14.456L28.0066 14.48C27.3986 14.496 26.9266 14.624 26.5906 14.864C26.2226 15.112 26.0466 15.472 26.0466 15.936C26.0466 16.28 26.1746 16.56 26.4306 16.784C26.6786 17 27.0146 17.112 27.4466 17.112C27.8066 17.112 28.1186 17.048 28.3826 16.928C28.6146 16.816 28.8146 16.664 28.9746 16.456V17H29.8226V14.36C29.8226 13.856 29.6946 13.472 29.4386 13.208C29.1506 12.904 28.6946 12.752 28.0866 12.752ZM28.9106 15.112V15.32C28.9106 15.64 28.7826 15.904 28.5426 16.112C28.3026 16.312 28.0066 16.416 27.6546 16.416C27.4546 16.416 27.2946 16.36 27.1666 16.264C27.0386 16.168 26.9826 16.048 26.9826 15.904C26.9826 15.408 27.3426 15.152 28.0706 15.136L28.9106 15.112ZM32.9207 12.752C32.6727 12.752 32.4487 12.8 32.2407 12.904C32.0407 13 31.8567 13.152 31.6967 13.344V12.864H30.7847V17H31.6967V14.512C31.7287 14.184 31.8407 13.928 32.0327 13.752C32.2007 13.592 32.4007 13.512 32.6247 13.512C33.2487 13.512 33.5607 13.848 33.5607 14.528V17H34.4727V14.448C34.4727 13.312 33.9527 12.752 32.9207 12.752ZM37.1531 12.752C36.5931 12.752 36.1371 12.944 35.7931 13.328C35.4411 13.712 35.2731 14.216 35.2731 14.84C35.2731 15.464 35.4411 15.968 35.7931 16.344C36.1371 16.712 36.5931 16.904 37.1531 16.904C37.6651 16.904 38.0731 16.688 38.3771 16.264V16.872C38.3771 17.608 38.0331 17.976 37.3451 17.976C37.0251 17.976 36.7931 17.928 36.6491 17.84C36.4971 17.744 36.4011 17.584 36.3531 17.352H35.4411C35.5211 17.816 35.7131 18.152 36.0171 18.376C36.3211 18.584 36.7611 18.696 37.3451 18.696C38.6411 18.696 39.2891 18.04 39.2891 16.736V12.864H38.3771V13.368C38.0731 12.952 37.6651 12.752 37.1531 12.752ZM37.2971 13.488C37.6411 13.488 37.9131 13.608 38.1051 13.848C38.2891 14.088 38.3851 14.416 38.3851 14.84C38.3851 15.256 38.2891 15.576 38.1051 15.816C37.9131 16.04 37.6411 16.16 37.2891 16.16C36.8891 16.16 36.6091 16.024 36.4331 15.76C36.2811 15.536 36.2091 15.232 36.2091 14.84C36.2091 14.408 36.3051 14.08 36.4971 13.848C36.6891 13.608 36.9531 13.488 37.2971 13.488ZM41.8056 12.752C41.2936 12.752 40.8856 12.856 40.5736 13.08C40.2536 13.288 40.1016 13.584 40.1016 13.968C40.1016 14.328 40.2616 14.608 40.5816 14.808C40.7816 14.936 41.1256 15.056 41.6136 15.168C42.0296 15.264 42.3016 15.336 42.4296 15.4C42.6696 15.512 42.7896 15.664 42.7896 15.856C42.7896 16.192 42.4696 16.368 41.8296 16.368C41.5256 16.368 41.3096 16.312 41.1736 16.216C41.0376 16.104 40.9416 15.92 40.8936 15.656H40.0056C40.0936 16.624 40.7096 17.112 41.8616 17.112C43.1016 17.112 43.7256 16.672 43.7256 15.792C43.7256 15.424 43.5576 15.128 43.2296 14.92C43.0056 14.768 42.6536 14.64 42.1896 14.528C41.7736 14.424 41.5016 14.344 41.3656 14.288C41.1416 14.192 41.0376 14.072 41.0376 13.944C41.0376 13.784 41.1016 13.672 41.2456 13.6C41.3656 13.528 41.5496 13.496 41.7896 13.496C42.0696 13.496 42.2776 13.536 42.4136 13.624C42.5416 13.704 42.6376 13.856 42.7016 14.064H43.5896C43.4936 13.184 42.8936 12.752 41.8056 12.752ZM46.3288 12.752C45.8008 12.752 45.3848 12.84 45.0808 13.032C44.7208 13.24 44.4967 13.576 44.4088 14.032L45.3128 14.104C45.3608 13.888 45.4808 13.728 45.6568 13.624C45.8088 13.528 46.0088 13.488 46.2648 13.488C46.8568 13.488 47.1528 13.752 47.1528 14.296V14.456L46.2488 14.48C45.6408 14.496 45.1688 14.624 44.8328 14.864C44.4648 15.112 44.2888 15.472 44.2888 15.936C44.2888 16.28 44.4168 16.56 44.6728 16.784C44.9208 17 45.2568 17.112 45.6888 17.112C46.0488 17.112 46.3608 17.048 46.6248 16.928C46.8568 16.816 47.0568 16.664 47.2168 16.456V17H48.0648V14.36C48.0648 13.856 47.9368 13.472 47.6808 13.208C47.3928 12.904 46.9368 12.752 46.3288 12.752ZM47.1528 15.112V15.32C47.1528 15.64 47.0248 15.904 46.7848 16.112C46.5448 16.312 46.2488 16.416 45.8968 16.416C45.6968 16.416 45.5368 16.36 45.4088 16.264C45.2808 16.168 45.2248 16.048 45.2248 15.904C45.2248 15.408 45.5848 15.152 46.3128 15.136L47.1528 15.112ZM51.1629 12.752C50.9149 12.752 50.6909 12.8 50.4829 12.904C50.2829 13 50.0989 13.152 49.9389 13.344V12.864H49.0269V17H49.9389V14.512C49.9709 14.184 50.0829 13.928 50.2749 13.752C50.4429 13.592 50.6429 13.512 50.8669 13.512C51.4909 13.512 51.8029 13.848 51.8029 14.528V17H52.7149V14.448C52.7149 13.312 52.1949 12.752 51.1629 12.752Z" fill="#262A33"/>
</svg>
