<svg width="16" height="16" viewBox="0 0 16 16" fill="none" xmlns="http://www.w3.org/2000/svg">
<path fill-rule="evenodd" clip-rule="evenodd" d="M8 1C4.13401 1 1 4.13401 1 8C1 11.866 4.13401 15 8 15C11.866 15 15 11.866 15 8C15 4.13401 11.866 1 8 1ZM7.99999 3.75C7.66862 3.75 7.39999 4.01863 7.39999 4.35V9.15C7.39999 9.48137 7.66862 9.75 7.99999 9.75C8.33136 9.75 8.59999 9.48137 8.59999 9.15V4.35C8.59999 4.01863 8.33136 3.75 7.99999 3.75ZM8 10.75C7.58579 10.75 7.25 11.0858 7.25 11.5C7.25 11.9142 7.58579 12.25 8 12.25C8.41421 12.25 8.75 11.9142 8.75 11.5C8.75 11.0858 8.41421 10.75 8 10.75Z" fill="#0075FF"/>
</svg>
