<svg width="17" height="16" viewBox="0 0 17 16" fill="none" xmlns="http://www.w3.org/2000/svg">
<circle cx="8.5" cy="8" r="6" stroke="currentColor"/>
<path d="M8.89167 8.10449H11.2424L10.9812 9.14927H8.89167V13.8508H7.84689V9.14927H5.75732V8.10449H7.84689V7.12658C7.84689 6.19515 7.94405 5.85717 8.12585 5.51657C8.30399 5.18005 8.57918 4.90485 8.9157 4.72671C9.2563 4.54492 9.59429 4.44775 10.5257 4.44775C10.7984 4.44775 11.0377 4.47387 11.2424 4.52611V5.49254H10.5257C9.83407 5.49254 9.62354 5.53328 9.40884 5.64821C9.25003 5.73284 9.13197 5.8509 9.04734 6.0097C8.93242 6.22441 8.89167 6.43493 8.89167 7.12658V8.10449Z" fill="currentColor"/>
</svg>
