<svg width="22" height="22" viewBox="0 0 22 22" fill="none" xmlns="http://www.w3.org/2000/svg">
<path d="M11 19.8C15.8601 19.8 19.8 15.8601 19.8 11C19.8 6.13991 15.8601 2.20001 11 2.20001C6.13985 2.20001 2.19995 6.13991 2.19995 11C2.19995 15.8601 6.13985 19.8 11 19.8Z" fill="#4C6AFF"/>
<path fill-rule="evenodd" clip-rule="evenodd" d="M11.9354 6.92051C11.9354 6.56152 11.6444 6.27051 11.2854 6.27051L10.7154 6.27051C10.3564 6.27051 10.0654 6.56152 10.0654 6.92051L10.0654 7.49051C10.0654 7.84949 10.3564 8.14051 10.7154 8.14051H11.2854C11.6444 8.14051 11.9354 7.84949 11.9354 7.49051V6.92051ZM11.9354 10.0551C11.9354 9.69607 11.6444 9.40506 11.2854 9.40506H10.7154C10.3564 9.40506 10.0654 9.69607 10.0654 10.0551L10.0654 15.0251C10.0654 15.384 10.3564 15.6751 10.7154 15.6751H11.2854C11.6444 15.6751 11.9354 15.384 11.9354 15.0251L11.9354 10.0551Z" fill="white"/>
</svg>
