<svg width="16" height="16" viewBox="0 0 16 16" fill="none" xmlns="http://www.w3.org/2000/svg">
<path d="M8.00004 14.6663C4.31804 14.6663 1.33337 11.6817 1.33337 7.99967C1.33337 5.01434 3.29537 2.48767 6.00004 1.63834V3.05434C4.85399 3.5197 3.90524 4.36881 3.31608 5.45642C2.72692 6.54402 2.53396 7.80255 2.77021 9.01671C3.00646 10.2309 3.65723 11.3252 4.61122 12.1126C5.5652 12.8999 6.76311 13.3313 8.00004 13.333C9.06256 13.333 10.1009 13.0157 10.9819 12.4218C11.863 11.828 12.5467 10.9846 12.9454 9.99967H14.3614C13.512 12.7043 10.9854 14.6663 8.00004 14.6663ZM14.6334 8.66634H7.33337V1.36634C7.55271 1.34434 7.77537 1.33301 8.00004 1.33301C11.682 1.33301 14.6667 4.31767 14.6667 7.99967C14.6667 8.22434 14.6554 8.44701 14.6334 8.66634ZM8.66671 2.70767V7.33301H13.292C13.1437 6.15808 12.6086 5.0659 11.7712 4.2285C10.9338 3.3911 9.84164 2.85606 8.66671 2.70767Z" fill="#626E85"/>
</svg>
