<svg width="17" height="17" viewBox="0 0 17 17" fill="none" color="#262A33" xmlns="http://www.w3.org/2000/svg">
<path d="M11.295 8.75C11.295 10.8501 10.6074 12.5113 9.91728 13.6505C9.57223 14.22 9.22784 14.6568 8.97181 14.9492C8.94587 14.9788 8.92086 15.0069 8.89686 15.0335C8.8721 15.0058 8.84624 14.9765 8.81941 14.9456C8.56297 14.6498 8.2182 14.2091 7.87283 13.6367C7.18187 12.4916 6.49463 10.8302 6.49463 8.75C6.49463 6.67815 7.18171 5.01669 7.87303 3.86901C8.21852 3.29544 8.56345 2.85306 8.82007 2.55596C8.8484 2.52316 8.87563 2.49215 8.90165 2.46295C8.92513 2.48848 8.94958 2.51545 8.97492 2.54384C9.23013 2.82984 9.57376 3.25896 9.91818 3.82306C10.6066 4.9506 11.295 6.61144 11.295 8.75ZM8.56757 2.12803C8.56748 2.12795 8.56757 2.12802 8.56782 2.12824L8.56757 2.12803Z" stroke="currentColor"/>
<circle cx="8.89453" cy="8.75" r="6.5" stroke="currentColor"/>
<path d="M1.89453 8.75H15.8945" stroke="currentColor"/>
</svg>
