<svg width="16" height="16" viewBox="0 0 16 16" fill="none" xmlns="http://www.w3.org/2000/svg">
<path d="M2.00002 12.667V3.80034C1.99998 3.66349 2.04205 3.52994 2.12053 3.41783C2.19901 3.30572 2.31009 3.22047 2.43869 3.17367L8.88602 0.82967C8.93638 0.811341 8.99042 0.805426 9.04356 0.812426C9.09669 0.819426 9.14736 0.839136 9.19126 0.869884C9.23515 0.900632 9.27099 0.941511 9.29573 0.989056C9.32046 1.0366 9.33337 1.08941 9.33335 1.143V4.445L13.544 5.84834C13.6768 5.89257 13.7923 5.97748 13.8742 6.09104C13.956 6.20459 14.0001 6.34103 14 6.481V12.667H15.3334V14.0003H0.666687V12.667H2.00002ZM3.33335 12.667H8.00002V2.57034L3.33335 4.26767V12.667ZM12.6667 12.667V6.96167L9.33335 5.85034V12.667H12.6667Z" fill="#626E85"/>
</svg>
