<svg width="20" height="20" viewBox="0 0 20 20" fill="none" xmlns="http://www.w3.org/2000/svg">
<g clip-path="url(#clip0_5664_120846)">
<path fill-rule="evenodd" clip-rule="evenodd" d="M15.4422 4.55815C15.6863 4.80223 15.6863 5.19796 15.4422 5.44204L10.8841 10.0001L15.4422 14.5582C15.6863 14.8022 15.6863 15.198 15.4422 15.442C15.1981 15.6861 14.8024 15.6861 14.5583 15.442L10.0002 10.884L5.44219 15.442C5.19811 15.6861 4.80238 15.6861 4.5583 15.442C4.31422 15.198 4.31422 14.8022 4.5583 14.5582L9.11636 10.0001L4.5583 5.44204C4.31422 5.19796 4.31422 4.80223 4.5583 4.55815C4.80238 4.31408 5.19811 4.31408 5.44219 4.55815L10.0002 9.11621L14.5583 4.55815C14.8024 4.31408 15.1981 4.31408 15.4422 4.55815Z" fill="#3F465C"/>
</g>
<defs>
<clipPath id="clip0_5664_120846">
<rect width="20" height="20" fill="white"/>
</clipPath>
</defs>
</svg>
