<svg width="16" height="16" viewBox="0 0 16 16" fill="none" xmlns="http://www.w3.org/2000/svg">
<path d="M7.99997 14.4001C11.5346 14.4001 14.4 11.5347 14.4 8.0001C14.4 4.46547 11.5346 1.6001 7.99997 1.6001C4.46535 1.6001 1.59998 4.46547 1.59998 8.0001C1.59998 11.5347 4.46535 14.4001 7.99997 14.4001Z" fill="#FFB54C"/>
<path fill-rule="evenodd" clip-rule="evenodd" d="M8.67946 4.96055C8.67946 4.73963 8.50037 4.56055 8.27946 4.56055H7.71946C7.49854 4.56055 7.31946 4.73963 7.31946 4.96055V5.52055C7.31946 5.74146 7.49854 5.92055 7.71946 5.92055H8.27946C8.50037 5.92055 8.67946 5.74146 8.67946 5.52055L8.67946 4.96055ZM8.67946 7.24023C8.67946 7.01932 8.50037 6.84023 8.27946 6.84023H7.71946C7.49854 6.84023 7.31946 7.01932 7.31946 7.24023V11.0002C7.31946 11.2211 7.49854 11.4002 7.71946 11.4002H8.27946C8.50037 11.4002 8.67946 11.2211 8.67946 11.0002L8.67946 7.24023Z" fill="white"/>
</svg>
