<svg width="16" height="16" viewBox="0 0 16 16" fill="none" xmlns="http://www.w3.org/2000/svg">
<path d="M7.99961 14.3996C11.5342 14.3996 14.3996 11.5342 14.3996 7.99961C14.3996 4.46499 11.5342 1.59961 7.99961 1.59961C4.46499 1.59961 1.59961 4.46499 1.59961 7.99961C1.59961 11.5342 4.46499 14.3996 7.99961 14.3996Z" fill="#FE5B4C"/>
<path fill-rule="evenodd" clip-rule="evenodd" d="M8.68031 11.0004C8.68031 11.2213 8.50123 11.4004 8.28031 11.4004L7.72031 11.4004C7.4994 11.4004 7.32031 11.2213 7.32031 11.0004L7.32031 10.4404C7.32031 10.2195 7.4994 10.0404 7.72031 10.0404L8.28031 10.0404C8.50123 10.0404 8.68031 10.2195 8.68031 10.4404L8.68031 11.0004ZM8.68031 8.7207C8.68031 8.94162 8.50123 9.1207 8.28031 9.1207L7.72031 9.1207C7.4994 9.1207 7.32031 8.94162 7.32031 8.7207L7.32031 4.9607C7.32031 4.73979 7.4994 4.5607 7.72031 4.5607L8.28031 4.5607C8.50123 4.5607 8.68031 4.73979 8.68031 4.9607L8.68031 8.7207Z" fill="white"/>
</svg>
