<svg width="40" height="40" viewBox="0 0 40 40" fill="none" xmlns="http://www.w3.org/2000/svg">
<g clip-path="url(#clip0_6074_95473)">
<rect width="40" height="40" fill="#FFD394"/>
<rect x="-15" y="3.75" width="31.25" height="47.5" rx="7.5" fill="#D35A21"/>
<rect x="12.5" y="22.5" width="15" height="35" rx="7.5" fill="#ED7B2F"/>
<g filter="url(#filter0_b_6074_95473)">
<path d="M18.75 15C18.75 13.6193 19.8693 12.5 21.25 12.5H32.5C33.8807 12.5 35 13.6193 35 15V26.25C35 27.6307 33.8807 28.75 32.5 28.75H21.25C19.8693 28.75 18.75 27.6307 18.75 26.25V15Z" fill="white" fill-opacity="0.5"/>
<path d="M18.75 15C18.75 13.6193 19.8693 12.5 21.25 12.5H32.5C33.8807 12.5 35 13.6193 35 15V26.25C35 27.6307 33.8807 28.75 32.5 28.75H21.25C19.8693 28.75 18.75 27.6307 18.75 26.25V15Z" stroke="#D35A21" stroke-width="2.5"/>
</g>
<path d="M22.4375 18C22.0233 17.6893 21.4357 17.7733 21.125 18.1875C20.8143 18.6017 20.8983 19.1893 21.3125 19.5L22.4375 18ZM32.4375 19.5C32.8517 19.1893 32.9357 18.6017 32.625 18.1875C32.3143 17.7733 31.7267 17.6893 31.3125 18L32.4375 19.5ZM30.8655 19.5071L31.428 20.2571L30.8655 19.5071ZM21.3125 19.5L22.322 20.2571L23.447 18.7571L22.4375 18L21.3125 19.5ZM31.428 20.2571L32.4375 19.5L31.3125 18L30.303 18.7571L31.428 20.2571ZM27.5615 19.5948C28.4213 20.8845 30.188 21.1871 31.428 20.2571L30.303 18.7571C29.9241 19.0413 29.3843 18.9488 29.1216 18.5547L27.5615 19.5948ZM22.322 20.2571C23.562 21.1871 25.3287 20.8845 26.1885 19.5948L24.6284 18.5547C24.3657 18.9488 23.8259 19.0413 23.447 18.7571L22.322 20.2571ZM26.1885 19.5948C26.5151 19.1049 27.2349 19.1049 27.5615 19.5948L29.1216 18.5547C28.0528 16.9516 25.6972 16.9516 24.6284 18.5547L26.1885 19.5948Z" fill="white"/>
<path d="M22.4375 21.75C22.0233 21.4393 21.4357 21.5233 21.125 21.9375C20.8143 22.3517 20.8983 22.9393 21.3125 23.25L22.4375 21.75ZM32.4375 23.25C32.8517 22.9393 32.9357 22.3517 32.625 21.9375C32.3143 21.5233 31.7267 21.4393 31.3125 21.75L32.4375 23.25ZM30.8655 23.2571L31.428 24.0071L30.8655 23.2571ZM21.3125 23.25L22.322 24.0071L23.447 22.5071L22.4375 21.75L21.3125 23.25ZM31.428 24.0071L32.4375 23.25L31.3125 21.75L30.303 22.5071L31.428 24.0071ZM27.5615 23.3448C28.4213 24.6345 30.188 24.9371 31.428 24.0071L30.303 22.5071C29.9241 22.7913 29.3843 22.6988 29.1216 22.3047L27.5615 23.3448ZM22.322 24.0071C23.562 24.9371 25.3287 24.6345 26.1885 23.3448L24.6284 22.3047C24.3657 22.6988 23.8259 22.7913 23.447 22.5071L22.322 24.0071ZM26.1885 23.3448C26.5151 22.8549 27.2349 22.8549 27.5615 23.3448L29.1216 22.3047C28.0528 20.7016 25.6972 20.7016 24.6284 22.3047L26.1885 23.3448Z" fill="white"/>
</g>
<defs>
<filter id="filter0_b_6074_95473" x="11.1" y="4.85" width="31.55" height="31.55" filterUnits="userSpaceOnUse" color-interpolation-filters="sRGB">
<feFlood flood-opacity="0" result="BackgroundImageFix"/>
<feGaussianBlur in="BackgroundImage" stdDeviation="3.2"/>
<feComposite in2="SourceAlpha" operator="in" result="effect1_backgroundBlur_6074_95473"/>
<feBlend mode="normal" in="SourceGraphic" in2="effect1_backgroundBlur_6074_95473" result="shape"/>
</filter>
<clipPath id="clip0_6074_95473">
<rect width="40" height="40" rx="20" fill="white"/>
</clipPath>
</defs>
</svg>
