<svg width="21" height="20" viewBox="0 0 21 20" fill="none" xmlns="http://www.w3.org/2000/svg">
<path d="M10.8 18C15.2183 18 18.8 14.4183 18.8 10C18.8 5.58172 15.2183 2 10.8 2C6.38177 2 2.80005 5.58172 2.80005 10C2.80005 14.4183 6.38177 18 10.8 18Z" fill="#0FD683"/>
<path fill-rule="evenodd" clip-rule="evenodd" d="M9.77328 12.6916C9.90438 12.6941 10.0363 12.6453 10.1363 12.5452L14.1668 8.51472C14.3621 8.31946 14.3621 8.00288 14.1668 7.80762L13.8133 7.45406C13.618 7.2588 13.3014 7.2588 13.1062 7.45406L9.76518 10.795L8.49385 9.52371C8.29859 9.32845 7.98201 9.32845 7.78674 9.52371L7.43319 9.87726C7.23793 10.0725 7.23793 10.3891 7.43319 10.5844L9.39459 12.5458C9.49862 12.6498 9.63707 12.6984 9.77328 12.6916Z" fill="white"/>
</svg>
