<svg width="16" height="16" viewBox="0 0 16 16" fill="none" xmlns="http://www.w3.org/2000/svg">
  <path fill-rule="evenodd" clip-rule="evenodd"
    d="M2.2 8C2.2 11.2033 4.79675 13.8 8 13.8C11.2033 13.8 13.8 11.2033 13.8 8C13.8 4.79675 11.2033 2.2 8 2.2C4.79675 2.2 2.2 4.79675 2.2 8ZM8 1C4.13401 1 1 4.13401 1 8C1 11.866 4.13401 15 8 15C11.866 15 15 11.866 15 8C15 4.13401 11.866 1 8 1Z"
    fill="#939CAD" />
  <path
    d="M7.39999 11.65C7.39999 11.9814 7.66862 12.25 7.99999 12.25C8.33136 12.25 8.59999 11.9814 8.59999 11.65V6.85C8.59999 6.51863 8.33136 6.25 7.99999 6.25C7.66862 6.25 7.39999 6.51863 7.39999 6.85V11.65Z"
    fill="#939CAD" />
  <path
    d="M7.25 4.5C7.25 4.91421 7.58579 5.25 8 5.25C8.41421 5.25 8.75 4.91421 8.75 4.5C8.75 4.08579 8.41421 3.75 8 3.75C7.58579 3.75 7.25 4.08579 7.25 4.5Z"
    fill="#939CAD" />
</svg>