<svg width="16" height="16" viewBox="0 0 16 16" fill="none" xmlns="http://www.w3.org/2000/svg">
<g clip-path="url(#clip0_5861_82325)">
<path d="M3.64192 2.95532C4.85162 1.90709 6.39924 1.33109 7.99992 1.33332C11.6819 1.33332 14.6666 4.31799 14.6666 7.99999C14.6666 9.42399 14.2199 10.744 13.4599 11.8267L11.3333 7.99999H13.3333C13.3333 6.9544 13.0261 5.93186 12.4497 5.05949C11.8733 4.18712 11.0532 3.50343 10.0914 3.0934C9.12954 2.68338 8.0684 2.56512 7.03989 2.75333C6.01138 2.94154 5.06089 3.42792 4.30659 4.15199L3.64192 2.95532ZM12.3579 13.0447C11.1482 14.0929 9.60059 14.6689 7.99992 14.6667C4.31792 14.6667 1.33325 11.682 1.33325 7.99999C1.33325 6.57599 1.77992 5.25599 2.53992 4.17332L4.66659 7.99999H2.66659C2.6665 9.04557 2.97375 10.0681 3.55014 10.9405C4.12653 11.8128 4.94663 12.4965 5.90847 12.9066C6.8703 13.3166 7.93144 13.4349 8.95995 13.2466C9.98845 13.0584 10.9389 12.5721 11.6933 11.848L12.3579 13.0447Z" fill="#939CAD"/>
</g>
<defs>
<clipPath id="clip0_5861_82325">
<rect width="16" height="16" fill="white"/>
</clipPath>
</defs>
</svg>
