<svg width="16" height="16" viewBox="0 0 16 16" fill="none" xmlns="http://www.w3.org/2000/svg">
<path d="M4 5.96777L6.5 8.46777L10 4.96777L12.5 7.46777" stroke="#386EE7" stroke-linecap="round" stroke-linejoin="round"/>
<path d="M5.90113 13.5H2C1.44772 13.5 1 13.0523 1 12.5V3C1 2.44772 1.44772 2 2 2H14C14.5523 2 15 2.44772 15 3V9" stroke="#386EE7" stroke-linecap="round"/>
<path d="M7.07849 11.8042C7.0515 11.7643 7.02759 11.7271 7.00665 11.6934C7.02759 11.6596 7.0515 11.6225 7.07849 11.5825C7.21786 11.376 7.43731 11.0969 7.7521 10.8171C8.37502 10.2634 9.38484 9.69336 10.9355 9.69336C12.4863 9.69336 13.4961 10.2634 14.119 10.8171C14.4338 11.0969 14.6532 11.376 14.7926 11.5825C14.8168 11.6183 14.8385 11.6518 14.8578 11.6827C14.8355 11.716 14.8103 11.7525 14.7821 11.7916C14.6311 12.001 14.3975 12.2832 14.0718 12.5657C13.4253 13.1266 12.4129 13.6934 10.9355 13.6934C9.38484 13.6934 8.37502 13.1234 7.7521 12.5697C7.43731 12.2898 7.21786 12.0107 7.07849 11.8042Z" stroke="#386EE7" stroke-linejoin="round"/>
<path d="M11.6855 11.6934C11.6855 12.1076 11.3498 12.4434 10.9355 12.4434C10.5213 12.4434 10.1855 12.1076 10.1855 11.6934C10.1855 11.2791 10.5213 10.9434 10.9355 10.9434C11.3498 10.9434 11.6855 11.2791 11.6855 11.6934Z" fill="#386EE7"/>
</svg>
