<svg width="16" height="16" viewBox="0 0 16 16" fill="none" color="#262A33" xmlns="http://www.w3.org/2000/svg">
<g clip-path="url(#clip0_897_43993)">
<rect x="2" y="2" width="12" height="12" stroke="currentColor" stroke-linejoin="round"/>
<path d="M11.0001 11.267H11.1001V11.167V8.45246C11.1001 7.89799 10.8798 7.36623 10.4877 6.97416C10.0957 6.58209 9.56392 6.36183 9.00945 6.36183C8.55903 6.36183 8.16369 6.52978 7.84269 6.79503V6.64279V6.54279H7.74269H7.01882H6.91882V6.64279V11.167V11.267H7.01882H7.74269H7.84269V11.167V8.45246C7.84269 8.14301 7.96561 7.84624 8.18442 7.62743C8.40324 7.40862 8.70001 7.28569 9.00945 7.28569C9.3189 7.28569 9.61567 7.40862 9.83448 7.62743C10.0533 7.84624 10.1762 8.14301 10.1762 8.45246V11.167V11.267H10.2762H11.0001ZM4.84723 6.54279H4.74723V6.64279V11.167V11.267H4.84723H5.57109H5.67109V11.167V6.64279V6.54279H5.57109H4.84723ZM4.75456 5.83063C4.87513 5.95119 5.03865 6.01893 5.20916 6.01893C5.37967 6.01893 5.54319 5.95119 5.66376 5.83063C5.78432 5.71006 5.85206 5.54654 5.85206 5.37603C5.85206 5.20552 5.78432 5.042 5.66376 4.92143C5.54319 4.80086 5.37967 4.73313 5.20916 4.73313C5.03865 4.73313 4.87513 4.80086 4.75456 4.92143C4.63399 5.042 4.56626 5.20552 4.56626 5.37603C4.56626 5.54654 4.63399 5.71006 4.75456 5.83063Z" fill="currentColor" stroke="currentColor" stroke-width="0.2"/>
</g>
<defs>
<clipPath id="clip0_897_43993">
<rect width="16" height="16" fill="white"/>
</clipPath>
</defs>
</svg>
