<svg width="56" height="56" viewBox="0 0 56 56" fill="none" xmlns="http://www.w3.org/2000/svg">
<circle cx="28" cy="28" r="28" fill="#E5E5E7"/>
<path d="M8.98 23.004V33H15.994V31.698H10.492V23.004H8.98ZM21.6755 22.808C20.1495 22.808 18.9455 23.298 18.0775 24.306C17.2375 25.258 16.8315 26.49 16.8315 28.016C16.8315 29.528 17.2375 30.76 18.0775 31.712C18.9455 32.692 20.1495 33.196 21.6755 33.196C23.1875 33.196 24.3915 32.706 25.2735 31.726C26.1135 30.774 26.5335 29.542 26.5335 28.016C26.5335 26.476 26.1135 25.23 25.2735 24.292C24.3915 23.298 23.1875 22.808 21.6755 22.808ZM21.6755 24.152C22.7395 24.152 23.5655 24.488 24.1395 25.188C24.6995 25.874 24.9935 26.812 24.9935 28.016C24.9935 29.206 24.6995 30.144 24.1395 30.816C23.5655 31.502 22.7395 31.852 21.6755 31.852C20.6115 31.852 19.7855 31.488 19.1975 30.788C18.6375 30.102 18.3575 29.178 18.3575 28.016C18.3575 26.84 18.6375 25.916 19.1975 25.23C19.7855 24.502 20.6115 24.152 21.6755 24.152ZM32.4056 22.808C30.9356 22.808 29.7596 23.312 28.8916 24.348C28.0656 25.314 27.6596 26.546 27.6596 28.044C27.6596 29.528 28.0656 30.746 28.8916 31.684C29.7736 32.692 31.0056 33.196 32.6016 33.196C33.4696 33.196 34.2676 33.084 34.9956 32.86C35.6816 32.636 36.2836 32.328 36.8016 31.922V27.722H32.5176V29.024H35.2756V31.194C34.9396 31.404 34.5756 31.572 34.1556 31.684C33.7216 31.796 33.2596 31.866 32.7696 31.866C31.5236 31.866 30.5996 31.516 30.0116 30.816C29.4516 30.172 29.1856 29.248 29.1856 28.044C29.1856 26.812 29.4796 25.846 30.0956 25.146C30.6696 24.474 31.4396 24.152 32.4056 24.152C33.1896 24.152 33.8336 24.32 34.3096 24.67C34.7856 25.006 35.0936 25.51 35.2336 26.182H36.7736C36.5916 25.062 36.1436 24.236 35.4296 23.676C34.6876 23.088 33.6796 22.808 32.4056 22.808ZM43.0583 22.808C41.5323 22.808 40.3283 23.298 39.4603 24.306C38.6203 25.258 38.2143 26.49 38.2143 28.016C38.2143 29.528 38.6203 30.76 39.4603 31.712C40.3283 32.692 41.5323 33.196 43.0583 33.196C44.5703 33.196 45.7743 32.706 46.6563 31.726C47.4963 30.774 47.9163 29.542 47.9163 28.016C47.9163 26.476 47.4963 25.23 46.6563 24.292C45.7743 23.298 44.5703 22.808 43.0583 22.808ZM43.0583 24.152C44.1223 24.152 44.9483 24.488 45.5223 25.188C46.0823 25.874 46.3763 26.812 46.3763 28.016C46.3763 29.206 46.0823 30.144 45.5223 30.816C44.9483 31.502 44.1223 31.852 43.0583 31.852C41.9943 31.852 41.1683 31.488 40.5803 30.788C40.0203 30.102 39.7403 29.178 39.7403 28.016C39.7403 26.84 40.0203 25.916 40.5803 25.23C41.1683 24.502 41.9943 24.152 43.0583 24.152Z" fill="white"/>
</svg>
