<svg width="16" height="16" viewBox="0 0 16 16" fill="none" xmlns="http://www.w3.org/2000/svg">
<mask id="path-1-inside-1" fill="white">
<path fill-rule="evenodd" clip-rule="evenodd" d="M12.7597 2.60608C12.6022 2.2384 12.2406 2 11.8406 2H4.1594C3.75937 2 3.39783 2.2384 3.24025 2.60608L0.580855 8.81134C0.527508 8.93582 0.5 9.06983 0.5 9.20526V13C0.5 13.5523 0.947715 14 1.5 14H14.5C15.0523 14 15.5 13.5523 15.5 13V9.20526C15.5 9.06983 15.4725 8.93582 15.4191 8.81134L12.7597 2.60608Z"/>
</mask>
<path d="M15.4191 8.81134L14.5 9.20526L15.4191 8.81134ZM12.7597 2.60608L11.8406 3L12.7597 2.60608ZM4.1594 3H11.8406V1H4.1594V3ZM1.5 9.20526L4.1594 3L2.32111 2.21216L-0.33829 8.41742L1.5 9.20526ZM-0.5 9.20526V13H1.5V9.20526H-0.5ZM1.5 15H14.5V13H1.5V15ZM16.5 13V9.20526H14.5V13H16.5ZM11.8406 3L14.5 9.20526L16.3383 8.41742L13.6789 2.21216L11.8406 3ZM16.5 9.20526C16.5 8.9344 16.445 8.66637 16.3383 8.41742L14.5 9.20526V9.20526H16.5ZM14.5 15C15.6046 15 16.5 14.1046 16.5 13H14.5V15ZM-0.5 13C-0.5 14.1046 0.395431 15 1.5 15V13H-0.5ZM-0.33829 8.41742C-0.444984 8.66637 -0.5 8.9344 -0.5 9.20526H1.5L-0.33829 8.41742ZM11.8406 3L13.6789 2.21216C13.3637 1.47679 12.6407 1 11.8406 1V3ZM4.1594 1C3.35934 1 2.63626 1.47679 2.32111 2.21216L4.1594 3L4.1594 3V1Z" fill="#A8AAAD" mask="url(#path-1-inside-1)"/>
<line x1="1.5" y1="9.5" x2="14.5" y2="9.5" stroke="#A8AAAD"/>
<path d="M6.5 6.5L7.5 7.5L10 5" stroke="#A8AAAD" stroke-linecap="round" stroke-linejoin="round"/>
</svg>
