<svg width="16" height="16" viewBox="0 0 16 16" fill="none" xmlns="http://www.w3.org/2000/svg">
<path fill-rule="evenodd" clip-rule="evenodd" d="M3.46973 7.9485C3.46973 7.80324 3.52508 7.66455 3.62247 7.56579L8.90936 2.20461C9.04847 2.06354 9.25078 2.02601 9.42463 2.10903C9.59849 2.19204 9.71087 2.37982 9.71087 2.58732L9.71087 5.12841C12.198 5.85916 15.5736 7.8753 15.8154 12.3708C15.8267 12.5815 15.7209 12.7789 15.5472 12.871C15.3736 12.9631 15.1663 12.9317 15.0221 12.7915C13.2036 11.0234 11.5243 10.7702 9.71087 10.741L9.71087 13.3097C9.71087 13.5172 9.59849 13.705 9.42463 13.788C9.25078 13.871 9.04847 13.8335 8.90936 13.6924L3.62247 8.33121C3.52508 8.23245 3.46973 8.09376 3.46973 7.9485ZM4.64864 7.9485L8.75662 12.1142L8.75662 10.2157C8.75662 10.0773 8.80689 9.94459 8.89637 9.84672C8.98584 9.74885 9.1072 9.69386 9.23374 9.69386C11.0026 9.69386 12.8018 9.7929 14.6897 11.1867C13.9648 8.05352 11.2515 6.58195 9.12622 6.04425C8.90985 5.98951 8.75662 5.77872 8.75662 5.5358L8.75662 3.78279L4.64864 7.9485Z" fill="#A8AAAD"/>
<path d="M5.60932 2.5869L0.661133 8L5.60932 13.4131" stroke="#A8AAAD" stroke-linecap="round" stroke-linejoin="round"/>
</svg>
