<svg width="16" height="16" viewBox="0 0 16 16" fill="none" xmlns="http://www.w3.org/2000/svg">
<path d="M7.07015 11.0283C7.58209 11.084 9.05871 11.0927 11.5 11.0561C11.3624 11.3504 11.244 11.6186 11.1448 11.8589C9.78657 11.8589 8.51716 11.8397 7.33483 11.8032C6.62612 11.8032 6.06542 11.6099 5.65099 11.2216C5.47338 11.3696 5.22786 11.6273 4.91269 11.9964L4.5 11.0283C4.51915 11.0109 4.54876 10.983 4.58881 10.9447C4.74552 10.8333 4.95274 10.6765 5.20871 10.4745V8.67579H4.5296V7.81733H6.06542V10.5581C6.28134 10.7793 6.56692 10.9273 6.92214 11.0004L6.56692 10.4188C6.68532 10.29 6.75323 10.0862 6.77413 9.80937V5.76957H10.7321V8.62007L11.2928 9.22952C11.2527 9.24868 11.204 9.27654 11.1448 9.3131C10.7512 9.5534 10.4465 9.71882 10.2289 9.81111C10.544 10.0323 10.8488 10.236 11.1448 10.4206L10.5249 11.03C9.93458 10.6051 9.38259 10.2273 8.87065 9.89469V10.532C7.96517 10.7148 7.36443 10.882 7.07015 11.0283ZM4.64801 5.96286L5.41592 5.49271C5.47512 5.54843 5.55348 5.64072 5.65274 5.76957C5.88955 6.04644 6.13507 6.35987 6.39104 6.70987L5.56393 7.20788C5.24876 6.72902 4.94403 6.3146 4.64801 5.96286ZM9.81617 6.98674V6.54445H7.66045V6.98674H9.81617ZM7.66045 8.12206H9.81617V7.67977H7.66045V8.12206ZM8.69303 9.78325C8.63383 9.72753 8.54502 9.6631 8.42662 9.58997C8.30821 9.49768 8.2194 9.43325 8.1602 9.39669L8.69129 8.89868H7.65697V10.034C7.95647 9.93997 8.2995 9.85639 8.69303 9.78325ZM10.2881 8.89693H8.75224C9.04826 9.06236 9.31294 9.22952 9.54975 9.39494C9.80572 9.22952 10.053 9.0641 10.2881 8.89693Z" fill="#A8AAAD"/>
<path d="M15 8.49954C15 12.3655 11.866 15.4995 8 15.4995C4.13401 15.4995 1 12.3655 1 8.49954C1 4.63355 4.13401 1.49954 8 1.49954C9.60524 1.49954 11.0843 2.03987 12.2652 2.94858" stroke="#A8AAAD" stroke-linecap="round"/>
<path d="M9.99961 3.52739L12.5095 3.04351L12.256 0.500001" stroke="#A8AAAD" stroke-linecap="round" stroke-linejoin="round"/>
</svg>
