<svg width="260" height="233" viewBox="0 0 260 233" fill="none" xmlns="http://www.w3.org/2000/svg">
<rect x="10" width="77.2023" height="132.555" fill="#F6F7FA"/>
<path d="M16.595 15.377C17.113 15.244 17.617 15.09 18.093 14.922V16.672H18.744V16.14L19.094 16.707C19.794 16.329 20.368 15.867 20.823 15.321C21.243 15.846 21.74 16.329 22.314 16.763L22.769 16.224C22.181 15.79 21.663 15.3 21.229 14.754C21.705 13.956 21.978 13.011 22.034 11.919H22.587V11.268H20.375C20.445 10.981 20.515 10.673 20.571 10.351L19.906 10.239C19.71 11.471 19.332 12.451 18.779 13.179L19.185 13.683C19.311 13.529 19.437 13.368 19.556 13.186C19.787 13.746 20.074 14.278 20.417 14.775C19.997 15.307 19.437 15.748 18.744 16.084V10.295H18.093V14.285C17.806 14.397 17.519 14.495 17.225 14.586V10.876H16.574V14.614C16.574 14.705 16.511 14.775 16.399 14.817L16.595 15.377ZM20.172 11.919H21.404C21.355 12.78 21.159 13.536 20.809 14.18C20.459 13.662 20.165 13.095 19.941 12.479C20.025 12.297 20.102 12.115 20.172 11.919ZM24.757 10.204C24.421 11.282 23.903 12.227 23.203 13.039L23.42 13.746C23.637 13.515 23.847 13.277 24.043 13.025V16.721H24.694V12.059C24.974 11.569 25.205 11.044 25.38 10.491L24.757 10.204ZM25.933 10.708C25.793 11.604 25.513 12.367 25.107 12.99L25.534 13.543C25.786 13.179 25.996 12.78 26.171 12.339H27.228V13.844H25.24V14.488H27.228V16.693H27.893V14.488H29.699V13.844H27.893V12.339H29.44V11.688H27.893V10.288H27.228V11.688H26.388C26.465 11.408 26.528 11.107 26.584 10.792L25.933 10.708ZM30.476 12.885V13.529H31.456C31.19 14.145 30.777 14.691 30.217 15.181L30.504 15.923C30.931 15.447 31.281 14.922 31.547 14.341V16.728H32.212V14.313C32.394 14.565 32.604 14.88 32.849 15.258L33.227 14.698C32.884 14.327 32.548 13.991 32.212 13.69V13.529H33.108V12.885H32.212V12.199H31.547V12.885H30.476ZM36.279 12.388H33.395V16.728H34.032V16.462H35.635V16.728H36.279V12.388ZM34.032 15.874V15.23H35.635V15.874H34.032ZM34.032 14.67V14.103H35.635V14.67H34.032ZM34.032 13.543V12.976H35.635V13.543H34.032ZM31.456 11.331H31.799C31.981 11.597 32.142 11.877 32.275 12.164L32.884 11.933C32.786 11.744 32.66 11.541 32.506 11.331H33.486V10.743H31.743C31.792 10.624 31.841 10.498 31.883 10.372L31.246 10.232C31.064 10.764 30.77 11.254 30.35 11.709L30.931 12.073C31.127 11.849 31.302 11.597 31.456 11.331ZM34.452 11.331H34.809C34.991 11.597 35.159 11.87 35.299 12.15L35.88 11.933C35.782 11.751 35.656 11.548 35.502 11.331H36.678V10.743H34.69C34.732 10.61 34.781 10.477 34.823 10.337L34.186 10.197C34.032 10.757 33.78 11.289 33.416 11.786L33.976 12.143C34.151 11.891 34.312 11.625 34.452 11.331Z" fill="#262A33"/>
<rect x="14.3701" y="50.3064" width="68.4624" height="19.6647" rx="1.55791" fill="white"/>
<circle cx="24.0207" cy="60.1716" r="5.06321" fill="#F0F2F7"/>
<rect x="31.4208" y="55.1591" width="48.0694" height="3.64162" rx="0.389478" fill="#F0F2F7"/>
<rect x="31.4208" y="61.6789" width="48.0694" height="3.64162" rx="0.389478" fill="#F0F2F7"/>
<rect x="14.3701" y="27" width="68.4624" height="19.6647" rx="1.55791" fill="white"/>
<circle cx="24.0207" cy="36.8652" r="5.06321" fill="#F0F2F7"/>
<rect x="31.4208" y="31.8527" width="48.0694" height="3.64162" rx="0.389478" fill="#F0F2F7"/>
<rect x="31.4208" y="38.3725" width="48.0694" height="3.64162" rx="0.389478" fill="#F0F2F7"/>
<rect x="14.3701" y="73.6128" width="68.4624" height="19.6647" rx="1.55791" fill="white"/>
<circle cx="24.0207" cy="83.478" r="5.06321" fill="#F0F2F7"/>
<rect x="31.4208" y="78.4654" width="48.0694" height="3.64162" rx="0.389478" fill="#F0F2F7"/>
<rect x="31.4208" y="84.9854" width="48.0694" height="3.64162" rx="0.389478" fill="#F0F2F7"/>
<rect x="14.3701" y="96.9189" width="68.4624" height="19.6647" rx="1.55791" fill="white"/>
<circle cx="24.0207" cy="106.784" r="5.06321" fill="#F0F2F7"/>
<rect x="31.4208" y="101.772" width="48.0694" height="3.64162" rx="0.389478" fill="#F0F2F7"/>
<rect x="31.4208" y="108.292" width="48.0694" height="3.64162" rx="0.389478" fill="#F0F2F7"/>
<rect x="87.0004" width="163" height="133" fill="#F0F2F7"/>
<path d="M93.111 10.0191L94.3881 11.7457L92.9469 13.7077H93.8388L94.8091 12.3022L95.7722 13.7077H96.6569L95.2229 11.7457L96.5 10.0191H95.6153L94.8091 11.1892L93.9957 10.0191H93.111ZM96.8943 10.0191L98.1714 11.7457L96.7302 13.7077H97.622L98.5923 12.3022L99.5555 13.7077H100.44L99.0062 11.7457L100.283 10.0191H99.3986L98.5923 11.1892L97.779 10.0191H96.8943ZM100.678 10.0191L101.955 11.7457L100.514 13.7077H101.405L102.376 12.3022L103.339 13.7077H104.223L102.789 11.7457L104.067 10.0191H103.182L102.376 11.1892L101.562 10.0191H100.678ZM104.461 10.0191L105.738 11.7457L104.297 13.7077H105.189L106.159 12.3022L107.122 13.7077H108.007L106.573 11.7457L107.85 10.0191H106.965L106.159 11.1892L105.346 10.0191H104.461ZM108.244 10.0191L109.521 11.7457L108.08 13.7077H108.972L109.942 12.3022L110.905 13.7077H111.79L110.356 11.7457L111.633 10.0191H110.748L109.942 11.1892L109.129 10.0191H108.244ZM112.027 10.0191L113.305 11.7457L111.863 13.7077H112.755L113.726 12.3022L114.689 13.7077H115.573L114.139 11.7457L115.416 10.0191H114.532L113.726 11.1892L112.912 10.0191H112.027Z" fill="#262A33"/>
<rect x="92.0004" y="20.0001" width="153" height="107" rx="1.42692" fill="white"/>
<path d="M109.532 26.0482L110.487 27.3165L109.417 28.7466H109.913L110.722 27.6244L111.526 28.7466H112.022L110.952 27.3165L111.907 26.0482H111.416L110.722 27.0086L110.023 26.0482H109.532ZM112.188 26.0482L113.143 27.3165L112.073 28.7466H112.569L113.378 27.6244L114.181 28.7466H114.677L113.607 27.3165L114.562 26.0482H114.072L113.378 27.0086L112.678 26.0482H112.188ZM114.843 26.0482L115.798 27.3165L114.728 28.7466H115.224L116.033 27.6244L116.837 28.7466H117.333L116.263 27.3165L117.218 26.0482H116.727L116.033 27.0086L115.334 26.0482H114.843ZM117.499 26.0482L118.454 27.3165L117.384 28.7466H117.88L118.689 27.6244L119.492 28.7466H119.988L118.918 27.3165L119.873 26.0482H119.383L118.689 27.0086L117.989 26.0482H117.499ZM120.154 26.0482L121.109 27.3165L120.039 28.7466H120.535L121.344 27.6244L122.148 28.7466H122.644L121.574 27.3165L122.529 26.0482H122.038L121.344 27.0086L120.645 26.0482H120.154ZM122.81 26.0482L123.765 27.3165L122.695 28.7466H123.191L124 27.6244L124.803 28.7466H125.299L124.229 27.3165L125.184 26.0482H124.694L124 27.0086L123.3 26.0482H122.81Z" fill="#262A33"/>
<path d="M109.509 32.1969L110.305 33.2538L109.413 34.4456H109.826L110.5 33.5104L111.17 34.4456H111.583L110.692 33.2538L111.488 32.1969H111.079L110.5 32.9972L109.918 32.1969H109.509ZM111.722 32.1969L112.518 33.2538L111.626 34.4456H112.039L112.713 33.5104L113.383 34.4456H113.796L112.905 33.2538L113.701 32.1969H113.292L112.713 32.9972L112.13 32.1969H111.722ZM114.035 33.1712V33.467H116.231V33.1712H114.035ZM116.568 32.1969L117.364 33.2538L116.472 34.4456H116.885L117.56 33.5104L118.229 34.4456H118.643L117.751 33.2538L118.547 32.1969H118.138L117.56 32.9972L116.977 32.1969H116.568ZM118.781 32.1969L119.577 33.2538L118.685 34.4456H119.098L119.772 33.5104L120.442 34.4456H120.855L119.964 33.2538L120.76 32.1969H120.351L119.772 32.9972L119.19 32.1969H118.781ZM121.094 33.1712V33.467H123.29V33.1712H121.094ZM123.627 32.1969L124.423 33.2538L123.531 34.4456H123.945L124.619 33.5104L125.289 34.4456H125.702L124.81 33.2538L125.606 32.1969H125.197L124.619 32.9972L124.036 32.1969H123.627ZM125.84 32.1969L126.636 33.2538L125.744 34.4456H126.158L126.832 33.5104L127.501 34.4456H127.915L127.023 33.2538L127.819 32.1969H127.41L126.832 32.9972L126.249 32.1969H125.84Z" fill="#747A8C"/>
<circle cx="102.432" cy="29.5756" r="5.21923" fill="#EBEDF2"/>
<rect x="98.9526" y="42.6238" width="58.2814" height="3.47949" rx="0.869872" fill="#EBEDF2"/>
<rect x="99.0004" y="52" width="140" height="4" rx="0.869872" fill="#EBEDF2"/>
<rect x="99.0004" y="62" width="140" height="3" rx="0.869872" fill="#EBEDF2"/>
<rect x="99.0004" y="71" width="140" height="4" rx="0.869872" fill="#EBEDF2"/>
<rect x="99.0004" y="81" width="140" height="3" rx="0.869872" fill="#EBEDF2"/>
<rect x="99.0004" y="90" width="140" height="4" rx="0.869872" fill="#EBEDF2"/>
<circle cx="49.5" cy="47.5" r="2" fill="white" stroke="#4C6AFF"/>
<path d="M49.5 49L49.5 149" stroke="#4C6AFF" stroke-dasharray="2 2"/>
<g filter="url(#filter0_d_10173_170072)">
<rect x="10" y="146" width="240" height="73" rx="2" fill="white"/>
<rect x="10.25" y="146.25" width="239.5" height="72.5" rx="1.75" stroke="#EBEDF2" stroke-width="0.5"/>
</g>
<circle cx="32" cy="170" r="14" fill="#F0F2F7"/>
<path d="M59.972 164.904C60.668 164.904 61.028 164.508 61.028 163.74V160.668H59.9V163.464C59.9 163.764 59.792 163.92 59.6 163.92C59.336 163.92 59.072 163.896 58.784 163.848L59.036 164.904H59.972ZM54.932 161.748V164.88H56.036V160.308C56.408 159.732 56.756 159.096 57.08 158.4L55.976 158.148C55.256 159.672 54.38 160.86 53.36 161.724L54.092 162.588C54.38 162.324 54.656 162.048 54.932 161.748ZM58.676 158.136C58.1 159.384 57.392 160.356 56.576 161.076L57.272 161.928C57.812 161.436 58.304 160.86 58.76 160.2H62.96C62.828 160.632 62.672 161.016 62.492 161.364L63.5 161.64C63.74 161.064 63.932 160.476 64.088 159.876V159.168H59.372C59.492 158.928 59.624 158.664 59.756 158.388L58.676 158.136ZM54.704 165.408C54.488 166.368 54.128 167.256 53.624 168.096L54.596 168.72C55.112 167.844 55.52 166.812 55.808 165.636L54.704 165.408ZM60.752 169.056C61.22 169.056 61.568 168.96 61.808 168.768C62.06 168.552 62.228 167.904 62.324 166.824L61.244 166.464C61.208 167.196 61.124 167.628 61.004 167.772C60.896 167.904 60.74 167.976 60.536 167.976H58.064C57.776 167.976 57.632 167.82 57.632 167.508V165.3H56.48V167.736C56.48 168.612 56.888 169.056 57.704 169.056H60.752ZM62.888 164.988L61.964 165.564C62.684 166.608 63.26 167.556 63.692 168.42L64.64 167.76C64.232 166.968 63.656 166.044 62.888 164.988ZM58.352 161.724C57.944 162.564 57.44 163.308 56.852 163.932L57.716 164.532C58.316 163.86 58.832 163.068 59.264 162.156L58.352 161.724ZM62.576 161.712L61.628 162.132C62.18 162.84 62.672 163.656 63.128 164.58L64.1 164.076C63.656 163.212 63.152 162.432 62.576 161.712ZM59.264 164.988L58.4 165.54C58.94 166.2 59.372 166.8 59.684 167.352L60.572 166.728C60.272 166.224 59.84 165.648 59.264 164.988ZM67.424 158.052C67.304 158.844 67.16 159.612 67.016 160.356H65.624V161.448H66.776C66.488 162.636 66.176 163.74 65.816 164.772C66.464 165.252 67.064 165.708 67.616 166.152C67.076 167.004 66.38 167.736 65.528 168.348L66.308 169.308C67.184 168.636 67.916 167.82 68.504 166.884C69.032 167.34 69.5 167.772 69.884 168.168L70.664 167.268C70.256 166.86 69.716 166.392 69.044 165.876C69.692 164.484 70.064 162.852 70.148 160.98V160.356H68.144C68.276 159.672 68.408 158.94 68.54 158.148L67.424 158.052ZM68.132 165.192C67.808 164.952 67.448 164.688 67.064 164.424C67.352 163.62 67.64 162.624 67.916 161.448H69.032C68.936 162.84 68.636 164.088 68.132 165.192ZM70.436 163.104V164.208H73.04V167.424C73.04 167.832 72.92 168.036 72.692 168.036C72.116 168.036 71.576 168.024 71.084 168.024L71.384 169.104H73.16C73.832 169.104 74.18 168.66 74.18 167.772V164.208H76.52V163.104H74.18V162.072C74.888 161.352 75.524 160.596 76.088 159.792V158.688H70.772V159.792H74.78C74.228 160.536 73.64 161.184 73.04 161.724V163.104H70.436ZM79.304 166.284C79.016 166.284 78.788 166.356 78.62 166.524C78.44 166.692 78.356 166.908 78.356 167.184C78.356 167.436 78.44 167.652 78.608 167.82C78.776 167.988 78.98 168.072 79.232 168.072C79.352 168.072 79.448 168.06 79.52 168.036C79.52 168.324 79.424 168.6 79.22 168.876C79.004 169.14 78.728 169.32 78.404 169.44V170.184C79.004 170.016 79.484 169.704 79.844 169.248C80.204 168.792 80.384 168.264 80.384 167.652C80.384 167.244 80.276 166.92 80.084 166.656C79.868 166.404 79.616 166.284 79.304 166.284ZM95.972 164.904C96.668 164.904 97.028 164.508 97.028 163.74V160.668H95.9V163.464C95.9 163.764 95.792 163.92 95.6 163.92C95.336 163.92 95.072 163.896 94.784 163.848L95.036 164.904H95.972ZM90.932 161.748V164.88H92.036V160.308C92.408 159.732 92.756 159.096 93.08 158.4L91.976 158.148C91.256 159.672 90.38 160.86 89.36 161.724L90.092 162.588C90.38 162.324 90.656 162.048 90.932 161.748ZM94.676 158.136C94.1 159.384 93.392 160.356 92.576 161.076L93.272 161.928C93.812 161.436 94.304 160.86 94.76 160.2H98.96C98.828 160.632 98.672 161.016 98.492 161.364L99.5 161.64C99.74 161.064 99.932 160.476 100.088 159.876V159.168H95.372C95.492 158.928 95.624 158.664 95.756 158.388L94.676 158.136ZM90.704 165.408C90.488 166.368 90.128 167.256 89.624 168.096L90.596 168.72C91.112 167.844 91.52 166.812 91.808 165.636L90.704 165.408ZM96.752 169.056C97.22 169.056 97.568 168.96 97.808 168.768C98.06 168.552 98.228 167.904 98.324 166.824L97.244 166.464C97.208 167.196 97.124 167.628 97.004 167.772C96.896 167.904 96.74 167.976 96.536 167.976H94.064C93.776 167.976 93.632 167.82 93.632 167.508V165.3H92.48V167.736C92.48 168.612 92.888 169.056 93.704 169.056H96.752ZM98.888 164.988L97.964 165.564C98.684 166.608 99.26 167.556 99.692 168.42L100.64 167.76C100.232 166.968 99.656 166.044 98.888 164.988ZM94.352 161.724C93.944 162.564 93.44 163.308 92.852 163.932L93.716 164.532C94.316 163.86 94.832 163.068 95.264 162.156L94.352 161.724ZM98.576 161.712L97.628 162.132C98.18 162.84 98.672 163.656 99.128 164.58L100.1 164.076C99.656 163.212 99.152 162.432 98.576 161.712ZM95.264 164.988L94.4 165.54C94.94 166.2 95.372 166.8 95.684 167.352L96.572 166.728C96.272 166.224 95.84 165.648 95.264 164.988ZM105.344 162.636H109.832V163.692H105.344V162.636ZM109.832 164.688V165.72H105.344V164.688H109.832ZM109.832 166.704V167.796C109.832 168.06 109.676 168.192 109.388 168.192C108.992 168.192 108.572 168.168 108.128 168.132L108.404 169.164H109.748C110.516 169.14 110.9 168.804 110.9 168.144V161.652H105.428C105.656 161.28 105.872 160.896 106.064 160.5H112.352V159.396H106.556C106.7 159.024 106.832 158.628 106.952 158.22L105.788 158.088C105.644 158.52 105.488 158.964 105.308 159.396H101.792V160.5H104.756C103.964 161.916 102.86 163.188 101.468 164.292L102.2 165.252C102.968 164.628 103.652 163.956 104.276 163.224V169.212H105.344V166.704H109.832ZM113.564 163.032V164.16H124.424V163.032H113.564ZM131.024 163.86C130.856 164.88 130.616 165.708 130.304 166.344C129.932 167.04 129.38 167.676 128.66 168.252L129.392 169.188C130.244 168.504 130.892 167.736 131.324 166.884C131.66 166.116 131.936 165.108 132.14 163.86H133.952C133.928 165.756 133.88 166.884 133.808 167.22C133.748 167.748 133.52 168.012 133.124 168.012C132.74 168.012 132.284 167.988 131.756 167.94L132.032 169.02C132.632 169.044 133.052 169.068 133.304 169.068C134.24 169.068 134.768 168.624 134.888 167.748C135.008 167.112 135.068 165.444 135.068 162.756H129.644C130.496 161.724 131.204 160.368 131.768 158.688L130.712 158.268C130.16 160.068 129.32 161.52 128.204 162.6L129.08 163.368C129.248 163.2 129.428 163.008 129.596 162.816V163.86H131.024ZM128.12 158.1C127.52 159.936 126.608 161.544 125.36 162.924L125.72 164.124C126.116 163.716 126.488 163.296 126.836 162.864V169.26H127.988V161.172C128.468 160.344 128.852 159.48 129.152 158.58L128.12 158.1ZM133.82 158.112L132.848 158.664C133.4 160.512 134.384 162.012 135.8 163.188L136.568 162.288C135.26 161.208 134.348 159.816 133.82 158.112ZM140.648 161.568V162.66H143.972V164.22H141.416V169.236H142.556V168.648H146.648V169.224H147.776V164.22H145.136V162.66H148.484V161.568H145.136V159.816C146.216 159.66 147.164 159.432 147.992 159.144L147.428 158.184C145.652 158.76 143.468 159.048 140.864 159.048L141.224 160.068C142.196 160.068 143.108 160.02 143.972 159.948V161.568H140.648ZM142.556 167.58V165.288H146.648V167.58H142.556ZM138.62 158.28L137.84 159.012C138.716 159.588 139.4 160.128 139.88 160.62L140.66 159.852C140.096 159.324 139.412 158.796 138.62 158.28ZM138.344 161.136L137.54 161.916C138.428 162.552 139.124 163.14 139.616 163.692L140.408 162.9C139.856 162.312 139.16 161.724 138.344 161.136ZM139.508 164.364C139.016 165.804 138.428 167.208 137.744 168.588L138.884 169.092C139.484 167.748 140.048 166.308 140.552 164.772L139.508 164.364ZM150.02 158.904V159.996H154.484V158.904H150.02ZM149.576 162.144V163.248H151.112C150.56 165.264 150.128 166.5 149.804 166.968C149.756 167.004 149.684 167.04 149.564 167.064L149.84 168.144C151.304 167.88 152.66 167.532 153.92 167.1L154.232 167.868L155.216 167.364C154.712 166.152 154.184 165.036 153.632 164.028L152.672 164.496C152.948 165.012 153.224 165.564 153.5 166.152C152.696 166.452 151.892 166.692 151.1 166.86C151.412 166.092 151.784 164.892 152.216 163.248H154.916V162.144H149.576ZM156.548 158.196V160.524H155.024V161.628H156.548V161.736C156.524 164.868 155.78 167.136 154.328 168.552L155.18 169.308C156.812 167.712 157.64 165.192 157.676 161.736V161.628H159.164C159.14 164.82 159.104 166.704 159.032 167.268C158.936 167.844 158.636 168.132 158.108 168.132C157.796 168.132 157.424 168.108 156.992 168.072L157.256 169.08C157.736 169.104 158.072 169.128 158.264 169.128C159.356 169.128 159.968 168.672 160.1 167.76C160.208 166.848 160.268 164.436 160.268 160.524H157.676V158.196H156.548ZM161.696 159.84V160.944H164.996C164.972 161.304 164.948 161.82 164.924 162.48C164.864 163.608 164.636 164.628 164.228 165.54C163.82 166.452 162.98 167.436 161.708 168.504L162.536 169.296C163.592 168.432 164.42 167.484 165.008 166.452C165.44 165.684 165.728 164.832 165.896 163.908H169.82C169.796 165.564 169.76 166.608 169.688 167.016C169.544 167.736 169.22 168.096 168.716 168.12C168.284 168.12 167.744 168.096 167.108 168.072L167.444 169.104C167.972 169.14 168.44 169.164 168.824 169.164C169.772 169.14 170.372 168.648 170.636 167.688C170.828 167.028 170.936 165.408 170.972 162.828H166.028L166.124 160.944H172.364V159.84H167.912C167.648 159.168 167.348 158.592 167.024 158.1L165.944 158.496C166.256 158.928 166.52 159.372 166.748 159.84H161.696ZM178.136 160.104C177.896 160.416 177.656 160.728 177.404 161.04H174.212V161.952H176.636C176.348 162.264 176.06 162.588 175.76 162.912C176.504 163.056 177.26 163.212 178.016 163.392C177.056 163.632 175.724 163.764 174.044 163.764L174.668 164.7C176.66 164.664 178.292 164.364 179.552 163.788C180.728 164.1 181.904 164.472 183.068 164.88L183.728 164.016C182.684 163.68 181.664 163.392 180.668 163.14C181.076 162.828 181.472 162.432 181.844 161.952H183.812V161.04H178.652C178.82 160.848 178.988 160.632 179.168 160.404L178.136 160.104ZM179.408 162.84C178.736 162.684 178.076 162.552 177.428 162.444L177.884 161.952H180.572C180.26 162.276 179.864 162.576 179.408 162.84ZM183.884 159.036H179.564C179.42 158.688 179.288 158.376 179.144 158.088L177.956 158.28C178.124 158.52 178.28 158.772 178.424 159.036H174.116V160.836H175.172V159.984H182.828V160.836H183.884V159.036ZM173.828 165.228V166.212H177.476C176.732 166.872 175.448 167.472 173.624 168.024L174.248 169.032C176.24 168.264 177.632 167.376 178.448 166.344V169.2H179.6V166.368C180.512 167.424 181.928 168.276 183.872 168.948L184.364 167.952C182.684 167.52 181.412 166.932 180.56 166.212H184.184V165.228H179.6V164.364H178.448V165.228H173.828ZM187.832 158.076C187.304 159.192 186.5 160.176 185.42 161.016L185.744 162.108C187.184 161.052 188.216 159.852 188.816 158.532L187.832 158.076ZM188.264 160.848C187.664 162.168 186.752 163.332 185.528 164.328L185.852 165.408C186.296 165.06 186.716 164.7 187.112 164.316V169.164H188.204V163.068C188.612 162.516 188.96 161.928 189.236 161.304L188.264 160.848ZM192.32 158.136V159.348H189.74V160.392H192.32V161.628H189.308V162.684H196.508V161.628H193.412V160.392H196.016V159.348H193.412V158.136H192.32ZM189.344 163.884V164.952H193.904V167.508C193.904 167.892 193.712 168.096 193.34 168.096C192.848 168.096 192.332 168.072 191.78 168.024L192.044 169.116H193.748C194.6 169.116 195.032 168.672 195.032 167.784V164.952H196.34V163.884H195.032V163.092H193.904V163.884H189.344ZM190.904 165.252L190.016 165.816C190.652 166.476 191.156 167.076 191.54 167.616L192.428 166.992C192.068 166.5 191.564 165.924 190.904 165.252ZM199.352 162.612V167.148H206.696V162.612H199.352ZM205.592 166.14H200.456V165.384H205.592V166.14ZM200.456 164.424V163.62H205.592V164.424H200.456ZM198.056 159.144V160.2H201.476C200.564 160.896 199.232 161.484 197.468 161.964L198.08 162.972C200.072 162.252 201.536 161.328 202.472 160.224V162.252H203.576V160.212C204.476 161.34 205.952 162.264 208.016 162.972L208.508 161.94C206.792 161.508 205.484 160.92 204.596 160.2H207.992V159.144H203.576V158.136H202.472V159.144H198.056ZM197.816 167.868V168.912H208.196V167.868H197.816ZM210.02 166.932C210.908 166.704 211.772 166.44 212.588 166.152V169.152H213.704V168.24L214.304 169.212C215.504 168.564 216.488 167.772 217.268 166.836C217.988 167.736 218.84 168.564 219.824 169.308L220.604 168.384C219.596 167.64 218.708 166.8 217.964 165.864C218.78 164.496 219.248 162.876 219.344 161.004H220.292V159.888H216.5C216.62 159.396 216.74 158.868 216.836 158.316L215.696 158.124C215.36 160.236 214.712 161.916 213.764 163.164L214.46 164.028C214.676 163.764 214.892 163.488 215.096 163.176C215.492 164.136 215.984 165.048 216.572 165.9C215.852 166.812 214.892 167.568 213.704 168.144V158.22H212.588V165.06C212.096 165.252 211.604 165.42 211.1 165.576V159.216H209.984V165.624C209.984 165.78 209.876 165.9 209.684 165.972L210.02 166.932ZM216.152 161.004H218.264C218.18 162.48 217.844 163.776 217.244 164.88C216.644 163.992 216.14 163.02 215.756 161.964C215.9 161.652 216.032 161.34 216.152 161.004Z" fill="black"/>
<path d="M53.62 184.91C54.21 184.91 54.51 184.61 54.51 184.02V181.1C54.81 180.96 55.12 180.82 55.42 180.66V179.93C55.12 180.09 54.81 180.24 54.51 180.38V178.44H55.34V177.75H54.51V175.86H53.77V177.75H52.55V178.44H53.77V180.68C53.31 180.86 52.83 181 52.35 181.12L52.53 181.84C52.95 181.71 53.36 181.57 53.77 181.41V183.84C53.77 184.11 53.63 184.25 53.37 184.25C53.13 184.25 52.87 184.23 52.6 184.21L52.75 184.91H53.62ZM58.18 179.18V180.03H56.95V180.61H58.18V181.4H57.23V183.66H59.77V181.4H58.81V180.61H60.07V180.03H58.81V179.18H60.52V183.87C60.52 184.16 60.39 184.31 60.14 184.31L59.28 184.28L59.46 184.96H60.36C60.91 184.96 61.19 184.64 61.19 184.02V178.58H59.83C60.01 178.28 60.18 177.93 60.33 177.55L59.64 177.32C59.5 177.76 59.32 178.18 59.12 178.58H57.84C57.68 178.12 57.52 177.73 57.34 177.39L56.69 177.63C56.87 177.92 57.03 178.24 57.17 178.58H55.84V184.97H56.51V179.18H58.18ZM59.17 183.13H57.83V181.94H59.17V183.13ZM58.47 175.76L57.74 175.88C57.85 176.1 57.95 176.33 58.05 176.59H55.58V177.22H61.44V176.59H58.78C58.68 176.29 58.58 176.01 58.47 175.76ZM62.58 176.23V176.88H65.53V177.77H63.2V180.29H65.83C65.67 180.57 65.5 180.87 65.32 181.18H62.45V181.84H64.92C64.7 182.18 64.48 182.53 64.24 182.88C65.07 183.07 65.9 183.29 66.73 183.54C65.83 183.89 64.48 184.17 62.7 184.38L62.97 185.02C65.13 184.73 66.69 184.33 67.64 183.82C68.75 184.18 69.86 184.59 70.96 185.06L71.41 184.47C70.35 184.05 69.31 183.69 68.29 183.38C68.82 182.95 69.19 182.44 69.39 181.84H71.54V181.18H66.13C66.29 180.9 66.46 180.61 66.64 180.29H70.8V177.77H68.47V176.88H71.42V176.23H62.58ZM67.52 183.15C66.75 182.93 66 182.74 65.26 182.58C65.41 182.36 65.57 182.11 65.74 181.84H68.66C68.46 182.36 68.08 182.8 67.52 183.15ZM67.78 177.77H66.22V176.88H67.78V177.77ZM70.11 179.67H68.47V178.4H70.11V179.67ZM67.78 179.67H66.22V178.4H67.78V179.67ZM65.53 179.67H63.89V178.4H65.53V179.67ZM76.97 179.93C77.91 180.89 78.68 181.8 79.26 182.66L79.8 182.11C79.09 181.16 78.22 180.19 77.18 179.21C77.26 178.88 77.32 178.52 77.37 178.14H80.23V183.72C80.23 184.04 80.07 184.21 79.75 184.21L78.22 184.17L78.42 184.89H79.99C80.63 184.89 80.96 184.55 80.96 183.88V177.44H77.45C77.49 176.94 77.52 176.39 77.52 175.8H76.79C76.79 176.38 76.76 176.93 76.71 177.44H73.05V184.99H73.78V178.14H76.63C76.56 178.6 76.47 179.02 76.36 179.41C76 180.52 75.26 181.44 74.14 182.18L74.62 182.77C75.78 182.01 76.56 181.07 76.97 179.93ZM87.12 175.78L86.35 175.91C86.47 176.14 86.59 176.39 86.71 176.67H82.91V178.5H83.61V177.34H90.39V178.45H91.09V176.67H87.46C87.35 176.34 87.24 176.04 87.12 175.78ZM86.74 178.98C85.74 180.08 84.33 180.96 82.5 181.64L82.88 182.23C83.3 182.07 83.71 181.9 84.12 181.7V185.01H84.82V184.59H89.29V185.01H89.98V181.74C90.32 181.9 90.69 182.06 91.09 182.22L91.48 181.63C89.5 180.87 88.1 179.99 87.29 178.98H86.74ZM84.82 183.93V182.33H89.29V183.93H84.82ZM84.14 181.69C85.25 181.14 86.21 180.45 87.01 179.61C87.69 180.39 88.65 181.09 89.87 181.69H84.14ZM88.17 177.76L87.71 178.21C88.98 178.88 89.98 179.51 90.71 180.11L91.21 179.62C90.39 179 89.37 178.38 88.17 177.76ZM85.8 177.75C84.96 178.45 83.94 179.05 82.72 179.57L83.15 180.13C84.39 179.57 85.43 178.92 86.28 178.18L85.8 177.75ZM99.3501 177.36V178.03H101.13V178.9C101.13 179.42 101.09 179.92 101.02 180.38H98.9401V181.08H100.88C100.5 182.59 99.6601 183.68 98.3801 184.36L98.8201 184.95C100.15 184.19 101.04 183.02 101.49 181.42C102.12 182.84 103.12 184.01 104.48 184.94L104.97 184.38C103.62 183.54 102.63 182.44 102.01 181.08H104.74V180.38H103.96V177.36H101.83V175.85H101.13V177.36H99.3501ZM101.83 178.03H103.26V180.38H101.71C101.79 179.87 101.83 179.33 101.83 178.75V178.03ZM96.0901 177.76C96.0601 178.72 95.9301 179.63 95.7101 180.49L96.3001 180.66C96.5101 179.76 96.6301 178.8 96.6601 177.8L96.0901 177.76ZM98.6101 177.54L98.0701 177.71C98.3501 178.41 98.5801 179.13 98.7601 179.88L99.3501 179.74C99.1301 178.91 98.8901 178.18 98.6101 177.54ZM97.1601 175.86V184.96H97.8701V175.86H97.1601ZM107.86 178.1L107.23 178.4C107.57 178.9 107.89 179.46 108.18 180.1L108.8 179.79C108.5 179.17 108.19 178.61 107.86 178.1ZM109.31 180.91C108.7 182.04 107.49 183.05 105.69 183.94L106.09 184.58C107.99 183.55 109.26 182.33 109.9 180.91H109.96V184.98H110.7V180.91H110.74C111.45 182.26 112.69 183.48 114.46 184.57L114.95 183.95C113.25 183.06 112.04 182.05 111.33 180.91H114.67V180.22H112.41C112.78 179.64 113.11 178.99 113.4 178.26L112.7 178.01C112.42 178.8 112.09 179.54 111.7 180.22H110.7V177.71H114.38V177.02H110.7V175.87H109.96V177.02H106.36V177.71H109.96V180.22H105.97V180.91H109.31ZM121.27 181.2H122.45V182.42H120.27V183.07H122.45V185.03H123.15V183.07H124.85V182.42H123.15V181.2H124.64V180.55H123.15V179.62H122.45V180.55H121.53C121.59 180.32 121.65 180.07 121.71 179.8L121.11 179.69C120.96 180.49 120.67 181.12 120.23 181.6L120.65 182.11C120.89 181.85 121.09 181.55 121.27 181.2ZM121.68 177.07C121.61 177.4 121.5 177.69 121.35 177.95C121.13 178.31 120.79 178.63 120.34 178.89L120.76 179.44C121.27 179.1 121.66 178.71 121.92 178.29C122.11 177.94 122.26 177.53 122.36 177.07H123.83C123.81 177.79 123.77 178.24 123.71 178.41C123.64 178.58 123.47 178.67 123.19 178.68C122.96 178.67 122.67 178.65 122.33 178.63L122.5 179.23C122.82 179.25 123.1 179.27 123.34 179.27C123.77 179.27 124.07 179.13 124.25 178.87C124.43 178.6 124.52 177.79 124.52 176.43H120.35V177.07H121.68ZM116.96 180.68H117.87V181.99H116.95C116.95 181.91 116.96 181.84 116.96 181.76V180.68ZM116.92 182.6H117.87V184.86H118.45V182.6H119.38V183.99C119.38 184.23 119.27 184.36 119.05 184.36C118.89 184.36 118.71 184.34 118.52 184.32L118.69 184.92H119.26C119.74 184.92 119.99 184.68 119.99 184.21V178.21H118.79C119.01 177.9 119.24 177.52 119.46 177.08V176.58H117.68C117.76 176.38 117.85 176.16 117.93 175.94L117.28 175.79C116.89 176.83 116.4 177.67 115.8 178.31L116.24 178.84C116.27 178.8 116.3 178.77 116.34 178.73V181.8C116.33 182.94 116.13 183.89 115.75 184.63L116.24 185.08C116.6 184.42 116.83 183.59 116.92 182.6ZM118.06 178.21H116.76C116.98 177.89 117.2 177.55 117.4 177.17H118.7C118.48 177.56 118.27 177.91 118.06 178.21ZM119.38 181.99H118.45V180.68H119.38V181.99ZM119.38 180.08H118.45V178.83H119.38V180.08ZM117.87 178.83V180.08H116.96V178.83H117.87ZM131.85 175.8V178.52H129.91V182.86H130.61V179.16H133.78V182.82H134.48V178.52H132.56V175.8H131.85ZM134.13 176.02C133.89 176.61 133.58 177.2 133.18 177.8L133.78 178.12C134.18 177.54 134.5 176.93 134.74 176.31L134.13 176.02ZM130.32 176.13L129.7 176.43C130.02 176.92 130.33 177.48 130.63 178.1L131.22 177.8C130.94 177.2 130.64 176.64 130.32 176.13ZM131.8 179.73V180.83C131.78 181.74 131.6 182.48 131.27 183.05C130.91 183.6 130.29 184.04 129.39 184.37L129.78 184.98C130.73 184.64 131.41 184.15 131.83 183.52C132.25 182.85 132.48 181.95 132.51 180.83V179.73H131.8ZM132.79 182.79L132.43 183.33C133.17 183.75 133.89 184.32 134.59 185.04L134.99 184.42C134.32 183.78 133.59 183.23 132.79 182.79ZM126.97 175.85C126.71 177.05 126.29 178.15 125.71 179.14L126.3 179.51C126.63 178.95 126.92 178.33 127.17 177.65H129.18V176.97H127.4C127.49 176.65 127.58 176.33 127.66 175.99L126.97 175.85ZM126.71 178.98V179.63H127.31V180.87H126V181.54H127.31V183.79C127.31 183.93 127.21 184.04 127.03 184.12L127.32 184.74C128.12 184.5 128.83 184.2 129.44 183.84L129.32 183.2C128.87 183.48 128.43 183.71 128 183.87V181.54H129.3V180.87H128V179.63H128.98V178.98H126.71ZM138.39 179.69V181.43H140.75V182H137.91V185H138.58V182.58H140.75V183.5C140.24 183.54 139.72 183.57 139.18 183.61L139.33 184.21C140.5 184.1 141.6 183.97 142.64 183.83C142.69 183.97 142.74 184.13 142.8 184.29L143.3 184.07C143.12 183.55 142.91 183.06 142.67 182.58H143.86V184C143.86 184.26 143.74 184.39 143.52 184.39L142.51 184.36L142.67 184.97H143.72C144.24 184.97 144.51 184.69 144.51 184.14V182H141.43V181.43H143.83V179.69H141.43V179.14C142.47 179.09 143.39 179.02 144.18 178.92L143.88 178.4C142.3 178.58 140.31 178.67 137.92 178.67L138.1 179.21C139.04 179.21 139.93 179.19 140.75 179.17V179.69H138.39ZM141.39 182.58H142.1C142.22 182.8 142.33 183.05 142.44 183.32L141.39 183.44V182.58ZM143.18 180.91H141.43V180.22H143.18V180.91ZM140.75 180.91H139.05V180.22H140.75V180.91ZM143.61 176.79V177.53H137.47V176.79H143.61ZM137.47 178.08H144.3V176.21H136.77V179.14C136.76 181.28 136.43 183.03 135.78 184.38L136.31 184.86C137.07 183.27 137.46 181.36 137.47 179.14V178.08ZM146.54 176.22V176.92H150.05V179.64H145.91V180.36H150.05V183.73C150.05 184.07 149.87 184.24 149.52 184.24C149.06 184.24 148.57 184.22 148.06 184.2L148.21 184.89H149.77C150.44 184.89 150.78 184.56 150.78 183.91V180.36H154.75V179.64H150.78V176.92H154.05V176.22H146.54ZM161.15 181.39C161.65 181.39 161.91 181.11 161.91 180.56V177.85H161.19V180.39C161.19 180.64 161.09 180.77 160.91 180.77C160.69 180.77 160.45 180.75 160.2 180.72L160.35 181.39H161.15ZM157.05 178.52V181.4H157.75V177.58C158.07 177.09 158.36 176.55 158.62 175.97L157.92 175.82C157.34 177.09 156.6 178.12 155.7 178.9L156.15 179.45C156.46 179.17 156.76 178.86 157.05 178.52ZM160.17 175.81C159.7 176.86 159.09 177.71 158.34 178.37L158.78 178.91C159.26 178.47 159.7 177.97 160.08 177.39H163.77C163.66 177.79 163.52 178.15 163.35 178.48L164 178.65C164.2 178.17 164.36 177.68 164.49 177.18V176.73H160.48C160.6 176.49 160.73 176.23 160.85 175.96L160.17 175.81ZM156.88 181.91C156.68 182.73 156.38 183.49 155.96 184.17L156.57 184.56C157 183.85 157.33 183.01 157.57 182.05L156.88 181.91ZM161.8 184.85C162.16 184.85 162.43 184.77 162.6 184.61C162.8 184.42 162.93 183.89 163 183.01L162.32 182.79C162.28 183.45 162.21 183.85 162.09 183.99C162 184.11 161.86 184.17 161.66 184.17H159.46C159.18 184.17 159.05 184.02 159.05 183.74V181.78H158.32V183.89C158.32 184.53 158.62 184.85 159.24 184.85H161.8ZM163.5 181.6L162.91 181.96C163.52 182.82 164.01 183.61 164.37 184.33L164.96 183.91C164.62 183.25 164.14 182.48 163.5 181.6ZM159.9 178.81C159.54 179.53 159.11 180.16 158.61 180.7L159.16 181.08C159.66 180.52 160.1 179.85 160.48 179.08L159.9 178.81ZM163.22 178.8L162.61 179.06C163.07 179.66 163.5 180.34 163.88 181.12L164.49 180.81C164.12 180.07 163.7 179.4 163.22 178.8ZM160.4 181.51L159.84 181.86C160.32 182.42 160.7 182.94 160.98 183.4L161.54 183.01C161.28 182.58 160.9 182.08 160.4 181.51ZM169.37 177.56H167.76C167.96 177.06 168.11 176.51 168.23 175.92L167.51 175.82C167.42 176.42 167.28 177 167.08 177.56H166.15V184.67H166.85V183.81H168.67V184.38H169.37V177.56ZM166.85 183.14V180.95H168.67V183.14H166.85ZM166.85 180.3V178.24H168.67V180.3H166.85ZM171.11 179.88L170.53 180.24C171.22 181.06 171.77 181.8 172.18 182.46L172.75 182.06C172.37 181.44 171.83 180.71 171.11 179.88ZM174.54 177.57H171.35C171.53 177.05 171.67 176.49 171.79 175.9L171.08 175.81C170.82 177.23 170.35 178.43 169.65 179.41L170.08 179.98C170.47 179.47 170.8 178.9 171.08 178.27H173.83C173.81 181.15 173.77 182.88 173.71 183.44C173.63 183.95 173.36 184.21 172.89 184.21C172.58 184.21 172.22 184.2 171.8 184.18L171.97 184.84C172.45 184.86 172.79 184.88 172.99 184.88C173.83 184.88 174.29 184.49 174.39 183.73C174.49 182.95 174.54 180.89 174.54 177.57ZM175.84 178.88V179.58H178.5C178.29 180.27 178.06 180.93 177.82 181.57H182.76C182.23 182.23 181.5 182.87 180.58 183.47C179.89 183.23 179.17 183 178.42 182.8L178.04 183.36C179.63 183.79 181.18 184.37 182.68 185.11L183.08 184.48C182.53 184.22 181.95 183.97 181.35 183.75C182.38 183.01 183.13 182.26 183.61 181.52V180.9H178.85C178.99 180.49 179.14 180.05 179.28 179.58H184.82V178.88H179.47C179.57 178.49 179.67 178.08 179.77 177.64H184.23V176.97H179.92C180 176.61 180.07 176.22 180.15 175.82L179.41 175.76C179.33 176.16 179.25 176.56 179.16 176.97H176.52V177.64H179.01C178.91 178.06 178.81 178.47 178.7 178.88H175.84ZM188.39 179.69V181.43H190.75V182H187.91V185H188.58V182.58H190.75V183.5C190.24 183.54 189.72 183.57 189.18 183.61L189.33 184.21C190.5 184.1 191.6 183.97 192.64 183.83C192.69 183.97 192.74 184.13 192.8 184.29L193.3 184.07C193.12 183.55 192.91 183.06 192.67 182.58H193.86V184C193.86 184.26 193.74 184.39 193.52 184.39L192.51 184.36L192.67 184.97H193.72C194.24 184.97 194.51 184.69 194.51 184.14V182H191.43V181.43H193.83V179.69H191.43V179.14C192.47 179.09 193.39 179.02 194.18 178.92L193.88 178.4C192.3 178.58 190.31 178.67 187.92 178.67L188.1 179.21C189.04 179.21 189.93 179.19 190.75 179.17V179.69H188.39ZM191.39 182.58H192.1C192.22 182.8 192.33 183.05 192.44 183.32L191.39 183.44V182.58ZM193.18 180.91H191.43V180.22H193.18V180.91ZM190.75 180.91H189.05V180.22H190.75V180.91ZM193.61 176.79V177.53H187.47V176.79H193.61ZM187.47 178.08H194.3V176.21H186.77V179.14C186.76 181.28 186.43 183.03 185.78 184.38L186.31 184.86C187.07 183.27 187.46 181.36 187.47 179.14V178.08ZM197.06 179.32V185H197.78V178.22C198.14 177.57 198.45 176.88 198.69 176.16L198.04 175.86C197.55 177.4 196.77 178.77 195.69 179.97L195.9 180.69C196.32 180.26 196.71 179.8 197.06 179.32ZM198.5 178.27V178.97H200.52C200.3 181.45 199.52 183.29 198.18 184.51L198.71 184.97C200.15 183.64 200.99 181.64 201.21 178.97H201.84V184.01C201.84 184.56 202.1 184.84 202.63 184.84H203.87C204.13 184.83 204.34 184.73 204.48 184.55C204.62 184.33 204.73 183.68 204.8 182.62L204.15 182.41C204.12 183.33 204.06 183.86 203.97 184.01C203.89 184.12 203.8 184.18 203.69 184.18H202.82C202.62 184.18 202.53 184.08 202.53 183.88V178.97H204.61V178.27H201.25C201.26 178.07 201.27 177.87 201.27 177.67V175.86H200.58V177.67C200.58 177.87 200.57 178.07 200.56 178.27H198.5ZM202.58 176.04L202.11 176.49C202.77 176.96 203.28 177.41 203.66 177.84L204.15 177.35C203.73 176.91 203.2 176.47 202.58 176.04ZM208.8 175.76C208.16 177.34 207.13 178.74 205.71 179.96L205.94 180.71C206.47 180.27 206.96 179.8 207.41 179.31V185.02H208.13V178.43C208.67 177.69 209.12 176.91 209.47 176.07L208.8 175.76ZM213.41 184.84C213.89 184.84 214.22 184.72 214.4 184.48C214.57 184.24 214.69 183.54 214.76 182.39L214.09 182.17C214.05 183.16 213.98 183.74 213.87 183.9C213.75 184.06 213.55 184.15 213.29 184.15H211.67C211.33 184.15 211.17 183.99 211.17 183.68V180.3C212.41 179.52 213.5 178.63 214.43 177.63L213.93 177.06C213.14 177.95 212.22 178.75 211.17 179.45V175.88H210.45V179.89C209.94 180.19 209.4 180.46 208.84 180.72L209.16 181.4C209.6 181.19 210.03 180.97 210.45 180.73V183.78C210.45 184.48 210.8 184.84 211.5 184.84H213.41ZM218.41 178.74V179.43H221.27V180.98H219.08V185.01H219.79V184.46H223.54V184.99H224.25V180.98H222V179.43H224.88V178.74H222V177.08C222.91 176.95 223.71 176.76 224.41 176.51L224.06 175.89C222.62 176.38 220.8 176.63 218.62 176.63L218.84 177.28C219.7 177.28 220.51 177.24 221.27 177.17V178.74H218.41ZM219.79 183.78V181.66H223.54V183.78H219.79ZM216.6 175.97L216.11 176.44C216.83 176.92 217.4 177.36 217.81 177.78L218.3 177.29C217.84 176.85 217.27 176.41 216.6 175.97ZM216.37 178.36L215.87 178.85C216.6 179.37 217.17 179.87 217.59 180.34L218.09 179.84C217.63 179.34 217.05 178.85 216.37 178.36ZM217.55 181.02C217.13 182.23 216.62 183.41 216.04 184.57L216.76 184.88C217.28 183.76 217.76 182.55 218.2 181.27L217.55 181.02ZM226.23 176.53V177.22H229.85V176.53H226.23ZM225.84 179.23V179.93H227.23C226.73 181.75 226.33 182.86 226.03 183.27C225.99 183.29 225.94 183.31 225.87 183.33L226.04 184.01C227.28 183.79 228.44 183.49 229.5 183.11C229.6 183.34 229.7 183.58 229.8 183.84L230.42 183.52C230 182.51 229.55 181.58 229.07 180.72L228.46 181.02C228.72 181.48 228.97 181.97 229.23 182.51C228.45 182.8 227.66 183.03 226.87 183.19C227.17 182.53 227.52 181.45 227.92 179.93H230.23V179.23H225.84ZM231.73 175.86V177.88H230.38V178.58H231.73V178.7C231.71 181.39 231.07 183.34 229.82 184.55L230.36 185.02C231.72 183.69 232.42 181.58 232.45 178.7V178.58H233.93C233.91 181.27 233.87 182.88 233.81 183.41C233.73 183.98 233.44 184.27 232.95 184.27C232.68 184.27 232.36 184.25 232 184.23L232.16 184.87C232.58 184.89 232.87 184.9 233.04 184.9C233.9 184.9 234.39 184.49 234.49 183.68C234.58 182.94 234.63 181.01 234.63 177.88H232.45V175.86H231.73ZM52.65 195.31V196H55.44C55.43 196.34 55.41 196.82 55.38 197.45C55.33 198.4 55.14 199.26 54.8 200.03C54.45 200.8 53.74 201.63 52.68 202.53L53.2 203.03C54.08 202.32 54.76 201.54 55.25 200.68C55.61 200.02 55.86 199.29 55.99 198.48H59.49C59.47 199.86 59.44 200.77 59.38 201.19C59.26 201.89 58.95 202.25 58.44 202.27C58.09 202.27 57.66 202.26 57.14 202.24L57.36 202.89C57.8 202.91 58.19 202.93 58.51 202.93C59.3 202.9 59.79 202.46 59.99 201.61C60.12 201.05 60.2 199.78 60.22 197.8H56.07V197.78L56.16 196H61.43V195.31H57.69C57.45 194.72 57.19 194.21 56.91 193.79L56.23 194.04C56.52 194.44 56.76 194.87 56.96 195.31H52.65ZM66.32 195.43C66.12 195.71 65.9 196 65.67 196.29H63.03V196.87H65.2C64.96 197.15 64.71 197.43 64.45 197.73C65.14 197.86 65.83 198.01 66.53 198.19C65.65 198.47 64.45 198.61 62.93 198.61L63.32 199.2C65.02 199.18 66.39 198.92 67.44 198.43C68.45 198.7 69.46 199.01 70.46 199.37L70.88 198.82C69.95 198.51 69.04 198.24 68.16 198.02C68.57 197.72 68.95 197.34 69.31 196.87H70.99V196.29H66.46C66.62 196.08 66.79 195.86 66.97 195.62L66.32 195.43ZM67.36 197.82C66.73 197.66 66.11 197.53 65.5 197.43C65.65 197.27 65.82 197.08 66 196.87H68.54C68.24 197.23 67.84 197.54 67.36 197.82ZM71.02 194.62H67.39C67.27 194.32 67.15 194.04 67.01 193.79L66.26 193.91C66.41 194.13 66.55 194.36 66.68 194.62H62.98V196.03H63.66V195.23H70.34V196.03H71.02V194.62ZM62.72 199.78V200.42H66.01C65.39 201.06 64.25 201.63 62.59 202.13L62.99 202.77C64.79 202.11 66.01 201.33 66.65 200.43V202.98H67.39V200.46C68.13 201.38 69.37 202.13 71.11 202.7L71.42 202.07C69.89 201.66 68.76 201.11 68.04 200.42H71.29V199.78H67.39V199H66.65V199.78H62.72Z" fill="#545A6E"/>
<line x1="52" y1="189" x2="239" y2="189" stroke="#FFB54C" stroke-width="2"/>
<line x1="52" y1="206" x2="70" y2="206" stroke="#FFB54C" stroke-width="2"/>
<defs>
<filter id="filter0_d_10173_170072" x="0" y="140" width="260" height="93" filterUnits="userSpaceOnUse" color-interpolation-filters="sRGB">
<feFlood flood-opacity="0" result="BackgroundImageFix"/>
<feColorMatrix in="SourceAlpha" type="matrix" values="0 0 0 0 0 0 0 0 0 0 0 0 0 0 0 0 0 0 127 0" result="hardAlpha"/>
<feOffset dy="4"/>
<feGaussianBlur stdDeviation="5"/>
<feColorMatrix type="matrix" values="0 0 0 0 0.184314 0 0 0 0 0.32549 0 0 0 0 0.52549 0 0 0 0.1 0"/>
<feBlend mode="normal" in2="BackgroundImageFix" result="effect1_dropShadow_10173_170072"/>
<feBlend mode="normal" in="SourceGraphic" in2="effect1_dropShadow_10173_170072" result="shape"/>
</filter>
</defs>
</svg>
