<svg width="21" height="21" viewBox="0 0 21 21" fill="none" xmlns="http://www.w3.org/2000/svg">
<path d="M10.1543 18.5C14.5726 18.5 18.1543 14.9183 18.1543 10.5C18.1543 6.08172 14.5726 2.5 10.1543 2.5C5.73602 2.5 2.1543 6.08172 2.1543 10.5C2.1543 14.9183 5.73602 18.5 10.1543 18.5Z" fill="#FE5B4C"/>
<path fill-rule="evenodd" clip-rule="evenodd" d="M7.67965 13.3292C7.87491 13.5245 8.19149 13.5245 8.38676 13.3292L10.1542 11.5618L11.9217 13.3293C12.117 13.5246 12.4336 13.5246 12.6288 13.3293L12.9824 12.9758C13.1776 12.7805 13.1776 12.4639 12.9824 12.2687L11.2148 10.5011L12.983 8.73303C13.1782 8.53776 13.1782 8.22118 12.983 8.02592L12.6294 7.67237C12.4341 7.4771 12.1176 7.4771 11.9223 7.67237L10.1542 9.44047L8.38619 7.67248C8.19093 7.47722 7.87435 7.47722 7.67908 7.67248L7.32553 8.02603C7.13027 8.22129 7.13027 8.53788 7.32553 8.73314L9.09352 10.5011L7.3261 12.2686C7.13083 12.4638 7.13083 12.7804 7.3261 12.9757L7.67965 13.3292Z" fill="white"/>
</svg>
