<svg width="21" height="21" viewBox="0 0 21 21" fill="none" xmlns="http://www.w3.org/2000/svg">
<path d="M10.9551 18.5C15.3734 18.5 18.9551 14.9183 18.9551 10.5C18.9551 6.08172 15.3734 2.5 10.9551 2.5C6.5368 2.5 2.95508 6.08172 2.95508 10.5C2.95508 14.9183 6.5368 18.5 10.9551 18.5Z" fill="#0FD683"/>
<path fill-rule="evenodd" clip-rule="evenodd" d="M9.92794 13.1926C10.059 13.195 10.1909 13.1463 10.291 13.0462L14.3215 9.0157C14.5167 8.82044 14.5167 8.50386 14.3215 8.30859L13.9679 7.95504C13.7727 7.75978 13.4561 7.75978 13.2608 7.95504L9.91985 11.296L8.64851 10.0247C8.45325 9.82943 8.13667 9.82942 7.94141 10.0247L7.58785 10.3782C7.39259 10.5735 7.39259 10.8901 7.58785 11.0853L9.54925 13.0467C9.65328 13.1508 9.79174 13.1994 9.92794 13.1926Z" fill="white"/>
</svg>
