<svg width="20" height="20" viewBox="0 0 20 20" fill="none" xmlns="http://www.w3.org/2000/svg">
<path d="M10.1382 14.2428C10.0609 14.3167 9.93908 14.3167 9.86176 14.2428L3.17269 7.84454C3.04237 7.71989 3.1306 7.50001 3.31093 7.50001L16.6891 7.50001C16.8694 7.50001 16.9576 7.71989 16.8273 7.84454L10.1382 14.2428Z" fill="#959CAB"/>
<path d="M6.875 1.45C6.875 1.33954 6.96454 1.25 7.075 1.25H12.925C13.0355 1.25 13.125 1.33954 13.125 1.45V7.5H6.875V1.45Z" fill="#959CAB"/>
<path d="M3.125 16.5C3.125 16.3619 3.23693 16.25 3.375 16.25H16.625C16.7631 16.25 16.875 16.3619 16.875 16.5V17.875C16.875 18.0131 16.7631 18.125 16.625 18.125H3.375C3.23693 18.125 3.125 18.0131 3.125 17.875V16.5Z" fill="#959CAB"/>
</svg>
