<svg width="60" height="40" viewBox="0 0 60 40" fill="none" xmlns="http://www.w3.org/2000/svg">
<path fill-rule="evenodd" clip-rule="evenodd" d="M25.75 10.375C25.75 11.2725 25.0225 12 24.125 12C23.2275 12 22.5 11.2725 22.5 10.375C22.5 9.47754 23.2275 8.75 24.125 8.75C25.0225 8.75 25.75 9.47754 25.75 10.375ZM31.6252 10.375C31.6252 11.2725 30.8977 12 30.0002 12C29.1028 12 28.3752 11.2725 28.3752 10.375C28.3752 9.47754 29.1028 8.75 30.0002 8.75C30.8977 8.75 31.6252 9.47754 31.6252 10.375ZM35.8755 12C36.773 12 37.5005 11.2725 37.5005 10.375C37.5005 9.47754 36.773 8.75 35.8755 8.75C34.978 8.75 34.2505 9.47754 34.2505 10.375C34.2505 11.2725 34.978 12 35.8755 12Z" fill="white"/>
<path d="M18.864 26.676H29.148V27.48H24.432V28.524H28.152V33.276H24.288C24.144 34.068 23.916 34.704 23.58 35.184C25.26 35.892 27.252 36.288 29.556 36.36L29.34 37.188C26.928 37.092 24.828 36.624 23.04 35.808C22.2 36.528 20.82 36.984 18.912 37.2L18.54 36.408C20.208 36.276 21.432 35.94 22.2 35.388C21.504 35.004 20.856 34.56 20.268 34.056L20.928 33.6C21.492 34.068 22.116 34.476 22.788 34.824C23.076 34.416 23.292 33.9 23.412 33.276H19.896V28.524H23.568V27.48H18.864V26.676ZM27.3 32.52V31.248H24.432V31.668L24.396 32.52H27.3ZM23.532 32.52C23.556 32.244 23.568 31.956 23.568 31.668V31.248H20.748V32.52H23.532ZM20.748 30.528H23.568V29.268H20.748V30.528ZM24.432 29.268V30.528H27.3V29.268H24.432ZM35.952 26.16L36.72 26.568C36.504 26.808 36.276 27.036 36.036 27.252H39.48V27.936C38.184 30.24 35.772 31.536 32.268 31.812L31.896 31.032C32.976 30.96 33.936 30.804 34.8 30.552C34.428 30.096 34.032 29.676 33.624 29.304L34.38 28.944C34.812 29.352 35.22 29.784 35.604 30.264C36.852 29.76 37.824 29.004 38.496 28.02H34.992C34.056 28.572 32.952 28.992 31.668 29.28L31.164 28.488C33.3 28.08 34.896 27.312 35.952 26.16ZM35.496 33.66C35.952 34.128 36.396 34.632 36.804 35.172C38.136 34.596 39.18 33.768 39.948 32.712H36.396C35.34 33.216 34.092 33.6 32.64 33.852L32.124 33.084C34.74 32.82 36.672 32.016 37.92 30.696L38.664 31.104C38.376 31.392 38.076 31.668 37.74 31.92H41.028V32.604C39.324 35.436 36.156 36.9 31.5 37.008L31.152 36.18C33.024 36.168 34.644 35.94 36 35.484C35.592 34.944 35.172 34.452 34.728 34.02L35.496 33.66Z" fill="white"/>
</svg>
