<svg xmlns="http://www.w3.org/2000/svg" width="24" height="24" viewBox="0 0 24 24" fill="none">
<path d="M12 6.75C11.1716 6.75 10.5 6.07843 10.5 5.25C10.5 4.42157 11.1716 3.75 12 3.75C12.8284 3.75 13.5 4.42157 13.5 5.25C13.5 6.07843 12.8284 6.75 12 6.75Z" fill="#8D92A1"/>
<path d="M12 13.5C11.1716 13.5 10.5 12.8284 10.5 12C10.5 11.1716 11.1716 10.5 12 10.5C12.8284 10.5 13.5 11.1716 13.5 12C13.5 12.8284 12.8284 13.5 12 13.5Z" fill="#8D92A1"/>
<path d="M12 20.25C11.1716 20.25 10.5 19.5784 10.5 18.75C10.5 17.9216 11.1716 17.25 12 17.25C12.8284 17.25 13.5 17.9216 13.5 18.75C13.5 19.5784 12.8284 20.25 12 20.25Z" fill="#8D92A1"/>
</svg>
