<svg width="69" height="17" viewBox="0 0 69 17" fill="none" xmlns="http://www.w3.org/2000/svg">
<path fill-rule="evenodd" clip-rule="evenodd" d="M14.4255 15H67C68.1046 15 69 14.1046 69 13V4C69 2.89543 68.1046 2 67 2H14.4256L15.5227 2.63339C16.5128 3.20502 17.1227 4.26143 17.1227 5.40468V11.5953C17.1227 12.7385 16.5128 13.7949 15.5227 14.3666L14.4255 15Z" fill="url(#paint0_linear_4549_53175)"/>
<path fill-rule="evenodd" clip-rule="evenodd" d="M14.4255 15H67C68.1046 15 69 14.1046 69 13V4C69 2.89543 68.1046 2 67 2H14.4256L15.2917 2.5H67C67.8284 2.5 68.5 3.17157 68.5 4V13C68.5 13.8284 67.8284 14.5 67 14.5H15.2916L14.4255 15Z" fill="url(#paint1_linear_4549_53175)"/>
<path d="M22.781 11.0595V11.715C21.85 12.076 20.786 12.3705 19.589 12.589L19.5035 11.924C20.7575 11.715 21.85 11.4205 22.781 11.0595ZM21.09 4.191L21.7455 4.4475C21.261 5.6825 20.767 6.6705 20.273 7.4115C20.7005 7.3735 21.128 7.3165 21.5555 7.25C21.7265 6.908 21.9165 6.547 22.1065 6.167L22.7145 6.395C21.8785 8.0005 21.1755 9.1405 20.6245 9.815C21.3085 9.682 21.9925 9.5015 22.6765 9.2735V9.891C21.679 10.214 20.729 10.442 19.817 10.5655L19.627 9.9385C19.7505 9.8815 19.855 9.815 19.9405 9.739C20.292 9.378 20.7195 8.751 21.2135 7.8675C20.691 7.9435 20.159 8.01 19.627 8.0765L19.4655 7.4495C19.57 7.4115 19.665 7.326 19.7505 7.2025C20.2635 6.3285 20.71 5.3215 21.09 4.191ZM27.3885 5.92L27.4835 6.547L25.042 6.889C25.061 7.345 25.0895 7.7725 25.1275 8.181L27.645 7.782L27.7495 8.428L25.2035 8.827C25.2225 8.998 25.251 9.169 25.2795 9.321C25.3745 9.815 25.4885 10.2425 25.6215 10.6225C26.1345 10.1475 26.5905 9.6155 26.9895 9.0075L27.531 9.378C27.0275 10.1095 26.486 10.7365 25.897 11.2495C25.935 11.3065 25.9635 11.373 26.0015 11.43C26.315 11.8955 26.5905 12.133 26.8375 12.133C27.0845 12.133 27.303 11.62 27.474 10.6035L28.0535 10.9835C27.7875 12.2375 27.4075 12.874 26.9135 12.874C26.4575 12.855 26.03 12.57 25.6215 12C25.536 11.886 25.46 11.772 25.403 11.6485C24.7 12.171 23.94 12.5605 23.1325 12.8075L22.7335 12.2565C23.6075 11.9715 24.396 11.5725 25.099 11.05C24.9185 10.632 24.776 10.176 24.662 9.663C24.605 9.416 24.567 9.1785 24.529 8.9315L22.819 9.207L22.724 8.561L24.4435 8.2855C24.396 7.877 24.3675 7.44 24.358 6.984L22.99 7.1835L22.8855 6.5565L24.339 6.3475V4.2385H25.023V6.2525L27.3885 5.92ZM26.087 4.21C26.5715 4.666 26.942 5.0555 27.208 5.388L26.676 5.7585C26.41 5.388 26.03 4.9795 25.555 4.5425L26.087 4.21ZM29.697 4.989H32.8985V4.2385H33.6015V4.989H36.803V5.616H33.6015V6.4425H37.1925V8.181H36.5275V7.041H32.8985L33.421 7.2975C32.851 7.7535 32.262 8.143 31.6445 8.4755C32.5185 8.4565 33.231 8.4375 33.763 8.3995C34.0955 8.1715 34.4375 7.934 34.7795 7.687L35.3305 8.0575C34.2095 8.8935 33.0125 9.53 31.7205 9.986C32.9555 9.948 34.181 9.8815 35.416 9.796C35.207 9.568 34.9885 9.3495 34.7605 9.1215L35.2545 8.808C35.948 9.4825 36.48 10.0715 36.8505 10.5845L36.3375 10.955C36.1855 10.727 36.0145 10.499 35.8245 10.271C35.055 10.3185 34.333 10.366 33.649 10.404V12.2185C33.649 12.6935 33.383 12.9405 32.87 12.9405H32.0055L31.863 12.304C32.129 12.3325 32.395 12.3515 32.642 12.3515C32.851 12.3515 32.965 12.247 32.965 12.057V10.4325C31.92 10.48 30.9605 10.518 30.0865 10.537L29.9535 9.9195C30.153 9.929 30.3525 9.9385 30.5425 9.9385C31.3215 9.72 32.1195 9.378 32.9555 8.903C32.3095 8.922 31.578 8.9505 30.7515 8.9695L30.6185 8.447C30.761 8.4185 30.9035 8.3615 31.046 8.2855C31.6635 7.934 32.2525 7.516 32.8035 7.041H29.9725V8.1715H29.3075V6.4425H32.8985V5.616H29.697V4.989ZM34.656 10.9075C35.644 11.2685 36.537 11.7055 37.3445 12.2185L36.993 12.7695C36.119 12.1995 35.226 11.7435 34.314 11.411L34.656 10.9075ZM31.6635 10.8885L32.0625 11.335C31.35 11.905 30.457 12.3705 29.3835 12.741L29.0985 12.133C30.134 11.8195 30.989 11.4015 31.6635 10.8885ZM42.37 6.3095H44.7355C45.0965 5.673 45.41 4.989 45.6665 4.2575L46.2935 4.495C46.0085 5.217 45.7235 5.8155 45.4195 6.3095H46.835V6.9555H44.8875V7.2405C44.8875 7.7155 44.859 8.162 44.8115 8.5895H46.9965V9.245H45.03C45.258 10.29 45.961 11.354 47.139 12.437L46.664 12.9405C45.5715 11.8575 44.8875 10.784 44.612 9.7295C44.2415 11.1925 43.51 12.2755 42.427 12.9785L42.0185 12.437C43.0825 11.791 43.7665 10.727 44.061 9.245H42.2275V8.5895H44.156C44.194 8.2095 44.2225 7.8105 44.232 7.3925V6.9555H42.37V6.3095ZM43.3105 4.3145C43.6905 4.875 43.985 5.369 44.194 5.7965L43.681 6.148C43.4625 5.692 43.168 5.198 42.788 4.647L43.3105 4.3145ZM38.437 4.628H42.218V5.2645H41.6005V10.48C41.819 10.404 42.028 10.3375 42.237 10.271V10.936C42.028 11.0025 41.8095 11.069 41.6005 11.126V12.9975H40.945V11.3065C40.185 11.4965 39.406 11.677 38.589 11.829L38.418 11.183L39.0165 11.088V5.2645H38.437V4.628ZM39.672 10.9645C40.109 10.8695 40.527 10.7745 40.945 10.67V9.264H39.672V10.9645ZM39.672 8.637H40.945V7.2785H39.672V8.637ZM39.672 6.661H40.945V5.2645H39.672V6.661ZM51.8985 12.9215H50.8345L50.6825 12.247C51.0245 12.2755 51.3475 12.2945 51.661 12.2945C51.889 12.2945 52.0125 12.171 52.0125 11.943V9.6155C51.1005 9.6725 50.1125 9.7295 49.039 9.777L48.849 9.169C49.0675 9.15 49.267 9.1025 49.4475 9.0455C50.2265 8.7035 51.1005 8.1715 52.0695 7.4495C51.243 7.516 50.35 7.573 49.4 7.63L49.2575 7.022C49.4285 7.003 49.5805 6.9555 49.723 6.8985C50.198 6.661 50.7585 6.1955 51.4045 5.4925C50.597 5.5305 49.742 5.5495 48.83 5.5495L48.6305 4.951C51.357 4.951 53.6275 4.7515 55.4325 4.3525L55.765 4.932C54.777 5.16 53.618 5.331 52.269 5.4355C51.68 6.1195 51.0815 6.6515 50.4735 7.0505C51.2335 7.0125 52.003 6.9555 52.782 6.889C53.2095 6.547 53.6465 6.167 54.1025 5.7585L54.7295 6.072C53.124 7.4875 51.7275 8.504 50.5305 9.131C52.079 9.0455 53.409 8.941 54.511 8.808C54.2735 8.504 54.0265 8.1905 53.77 7.8865L54.283 7.573C55.062 8.485 55.6605 9.2735 56.0785 9.948L55.5275 10.3375C55.347 10.0145 55.138 9.6915 54.91 9.359C54.2545 9.435 53.523 9.5015 52.706 9.568V12.114C52.706 12.646 52.4305 12.9215 51.8985 12.9215ZM54.0075 10.1475C54.967 10.841 55.765 11.5345 56.411 12.2375L55.9265 12.722C55.347 12.057 54.5585 11.3445 53.5515 10.5845L54.0075 10.1475ZM50.388 10.214L50.8725 10.6415C50.2265 11.4205 49.4285 12.095 48.4785 12.6745L48.051 12.1235C48.982 11.5725 49.761 10.936 50.388 10.214ZM62.092 4.2575C62.092 5.0745 62.0635 5.7775 62.0255 6.3665C62.5575 8.9505 63.935 10.9265 66.1485 12.285L65.702 12.8835C63.764 11.6105 62.453 9.9005 61.7785 7.7535C61.2085 9.8245 59.8595 11.5345 57.7505 12.893L57.3325 12.285C59.945 10.6795 61.294 8.504 61.3795 5.768C61.389 5.122 61.3985 4.6185 61.3985 4.2575H62.092Z" fill="#694607"/>
<path d="M7.8 1.09697C8.23316 0.84688 8.76684 0.84688 9.2 1.09697L14.5612 4.19227C14.9944 4.44235 15.2612 4.90453 15.2612 5.4047V11.5953C15.2612 12.0955 14.9944 12.5576 14.5612 12.8077L9.2 15.903C8.76684 16.1531 8.23316 16.1531 7.8 15.903L2.43878 12.8077C2.00562 12.5576 1.73878 12.0955 1.73878 11.5953V5.4047C1.73878 4.90453 2.00562 4.44235 2.43878 4.19227L7.8 1.09697Z" fill="url(#paint2_linear_4549_53175)" stroke="url(#paint3_linear_4549_53175)" stroke-width="1.2"/>
<path opacity="0.26" d="M8.15009 2.20204C8.36667 2.077 8.63351 2.077 8.85009 2.20204L13.7793 5.0479C13.9958 5.17294 14.1293 5.40403 14.1293 5.65411V11.3458C14.1293 11.5959 13.9958 11.827 13.7793 11.952L8.85009 14.7979C8.63351 14.9229 8.36667 14.9229 8.15009 14.7979L3.22093 11.952C3.00435 11.827 2.87093 11.5959 2.87093 11.3458V5.65411C2.87093 5.40403 3.00435 5.17294 3.22093 5.0479L8.15009 2.20204Z" fill="url(#paint4_linear_4549_53175)"/>
<g opacity="0.4">
<mask id="mask0_4549_53175" style="mask-type:alpha" maskUnits="userSpaceOnUse" x="2" y="2" width="13" height="13">
<path d="M8.15009 2.20204C8.36667 2.077 8.63351 2.077 8.85009 2.20204L13.7793 5.0479C13.9958 5.17294 14.1293 5.40403 14.1293 5.65411V11.3458C14.1293 11.5959 13.9958 11.827 13.7793 11.952L8.85009 14.7979C8.63351 14.9229 8.36667 14.9229 8.15009 14.7979L3.22093 11.952C3.00435 11.827 2.87093 11.5959 2.87093 11.3458V5.65411C2.87093 5.40403 3.00435 5.17294 3.22093 5.0479L8.15009 2.20204Z" fill="url(#paint5_linear_4549_53175)"/>
</mask>
<g mask="url(#mask0_4549_53175)">
<path d="M6.5 -0.499634H10.5L9 8.50037H8L6.5 -0.499634Z" fill="url(#paint6_linear_4549_53175)"/>
<path d="M6.5 17.4996H10.5L9 8.49957H8L6.5 17.4996Z" fill="url(#paint7_linear_4549_53175)"/>
<path d="M17.4998 6.5L17.4998 10.5L8.49982 9L8.49982 8L17.4998 6.5Z" fill="url(#paint8_linear_4549_53175)"/>
<path d="M-0.499634 6.5L-0.499634 10.5L8.50037 9L8.50037 8L-0.499634 6.5Z" fill="url(#paint9_linear_4549_53175)"/>
<path d="M13.4498 0.721619L16.2783 3.55005L8.85364 8.85335L8.14653 8.14624L13.4498 0.721619Z" fill="url(#paint10_linear_4549_53175)"/>
<path d="M0.721863 13.4498L3.55029 16.2783L8.85359 8.85364L8.14648 8.14653L0.721863 13.4498Z" fill="url(#paint11_linear_4549_53175)"/>
<path d="M16.2783 13.4498L13.4499 16.2783L8.14659 8.85363L8.8537 8.14653L16.2783 13.4498Z" fill="url(#paint12_linear_4549_53175)"/>
<path d="M3.55035 0.721619L0.721927 3.55005L8.14655 8.85335L8.85365 8.14624L3.55035 0.721619Z" fill="url(#paint13_linear_4549_53175)"/>
</g>
</g>
<g clip-path="url(#clip0_4549_53175)">
<g filter="url(#filter0_d_4549_53175)">
<path d="M5.5 9.625V7.1875C5.5 6.73995 5.67779 6.31072 5.99426 5.99426C6.31072 5.67779 6.73995 5.5 7.1875 5.5C7.63505 5.5 8.06428 5.67779 8.38074 5.99426C8.69721 6.31072 8.875 6.73995 8.875 7.1875V9.8125C8.875 10.0611 8.97377 10.2996 9.14959 10.4754C9.3254 10.6512 9.56386 10.75 9.8125 10.75C10.0611 10.75 10.2996 10.6512 10.4754 10.4754C10.6512 10.2996 10.75 10.0611 10.75 9.8125V7.31125C10.4997 7.22278 10.2887 7.04868 10.1544 6.8197C10.02 6.59072 9.97094 6.32162 10.0158 6.05995C10.0607 5.79829 10.1966 5.56092 10.3996 5.3898C10.6026 5.21867 10.8595 5.12482 11.125 5.12482C11.3905 5.12482 11.6474 5.21867 11.8504 5.3898C12.0534 5.56092 12.1893 5.79829 12.2342 6.05995C12.2791 6.32162 12.23 6.59072 12.0956 6.8197C11.9613 7.04868 11.7503 7.22278 11.5 7.31125V9.8125C11.5 10.2601 11.3222 10.6893 11.0057 11.0057C10.6893 11.3222 10.2601 11.5 9.8125 11.5C9.36495 11.5 8.93573 11.3222 8.61926 11.0057C8.30279 10.6893 8.125 10.2601 8.125 9.8125V7.1875C8.125 6.93886 8.02623 6.7004 7.85041 6.52459C7.6746 6.34877 7.43614 6.25 7.1875 6.25C6.93886 6.25 6.7004 6.34877 6.52459 6.52459C6.34877 6.7004 6.25 6.93886 6.25 7.1875V9.625H7.375L5.875 11.5L4.375 9.625H5.5Z" fill="url(#paint14_linear_4549_53175)"/>
</g>
</g>
<defs>
<filter id="filter0_d_4549_53175" x="3.875" y="4.62482" width="9.87537" height="8.37518" filterUnits="userSpaceOnUse" color-interpolation-filters="sRGB">
<feFlood flood-opacity="0" result="BackgroundImageFix"/>
<feColorMatrix in="SourceAlpha" type="matrix" values="0 0 0 0 0 0 0 0 0 0 0 0 0 0 0 0 0 0 127 0" result="hardAlpha"/>
<feOffset dx="0.5" dy="0.5"/>
<feGaussianBlur stdDeviation="0.5"/>
<feComposite in2="hardAlpha" operator="out"/>
<feColorMatrix type="matrix" values="0 0 0 0 0.933333 0 0 0 0 0.655277 0 0 0 0 0.427778 0 0 0 1 0"/>
<feBlend mode="normal" in2="BackgroundImageFix" result="effect1_dropShadow_4549_53175"/>
<feBlend mode="normal" in="SourceGraphic" in2="effect1_dropShadow_4549_53175" result="shape"/>
</filter>
<linearGradient id="paint0_linear_4549_53175" x1="13.2391" y1="5.5" x2="68.1092" y2="16.8184" gradientUnits="userSpaceOnUse">
<stop stop-color="#FFEFE9"/>
<stop offset="1" stop-color="#FFEDD5"/>
</linearGradient>
<linearGradient id="paint1_linear_4549_53175" x1="13.2391" y1="5.5" x2="68.1092" y2="16.8184" gradientUnits="userSpaceOnUse">
<stop stop-color="#FFBF92"/>
<stop offset="1" stop-color="#FD9A31"/>
</linearGradient>
<linearGradient id="paint2_linear_4549_53175" x1="6" y1="1.5" x2="10" y2="15.5" gradientUnits="userSpaceOnUse">
<stop stop-color="#FFB681"/>
<stop offset="1" stop-color="#FA9A43"/>
</linearGradient>
<linearGradient id="paint3_linear_4549_53175" x1="5" y1="7.40675e-08" x2="11" y2="17" gradientUnits="userSpaceOnUse">
<stop stop-color="#FFE5DB"/>
<stop offset="1" stop-color="#FFE9C0"/>
</linearGradient>
<linearGradient id="paint4_linear_4549_53175" x1="6.20597" y1="2.38232" x2="9.2648" y2="15" gradientUnits="userSpaceOnUse">
<stop stop-color="white" stop-opacity="0.49"/>
<stop offset="1" stop-color="white" stop-opacity="0.21"/>
</linearGradient>
<linearGradient id="paint5_linear_4549_53175" x1="6.20597" y1="2.38232" x2="9.2648" y2="15" gradientUnits="userSpaceOnUse">
<stop stop-color="#B8EFFF"/>
<stop offset="1" stop-color="white" stop-opacity="0.85"/>
</linearGradient>
<linearGradient id="paint6_linear_4549_53175" x1="8.5" y1="-0.999634" x2="8.5" y2="8.50037" gradientUnits="userSpaceOnUse">
<stop stop-color="white" stop-opacity="0.69"/>
<stop offset="1" stop-color="white" stop-opacity="0"/>
</linearGradient>
<linearGradient id="paint7_linear_4549_53175" x1="8.5" y1="17.9996" x2="8.5" y2="8.49957" gradientUnits="userSpaceOnUse">
<stop stop-color="white" stop-opacity="0.69"/>
<stop offset="1" stop-color="white" stop-opacity="0"/>
</linearGradient>
<linearGradient id="paint8_linear_4549_53175" x1="17.9998" y1="8.5" x2="8.49982" y2="8.5" gradientUnits="userSpaceOnUse">
<stop stop-color="white" stop-opacity="0.69"/>
<stop offset="1" stop-color="white" stop-opacity="0"/>
</linearGradient>
<linearGradient id="paint9_linear_4549_53175" x1="-0.999634" y1="8.5" x2="8.50037" y2="8.5" gradientUnits="userSpaceOnUse">
<stop stop-color="white" stop-opacity="0.69"/>
<stop offset="1" stop-color="white" stop-opacity="0"/>
</linearGradient>
<linearGradient id="paint10_linear_4549_53175" x1="15.2176" y1="1.78228" x2="8.50008" y2="8.49979" gradientUnits="userSpaceOnUse">
<stop stop-color="white" stop-opacity="0.69"/>
<stop offset="1" stop-color="white" stop-opacity="0"/>
</linearGradient>
<linearGradient id="paint11_linear_4549_53175" x1="1.78252" y1="15.2176" x2="8.50004" y2="8.50008" gradientUnits="userSpaceOnUse">
<stop stop-color="white" stop-opacity="0.69"/>
<stop offset="1" stop-color="white" stop-opacity="0"/>
</linearGradient>
<linearGradient id="paint12_linear_4549_53175" x1="15.2177" y1="15.2176" x2="8.50015" y2="8.50008" gradientUnits="userSpaceOnUse">
<stop stop-color="white" stop-opacity="0.69"/>
<stop offset="1" stop-color="white" stop-opacity="0"/>
</linearGradient>
<linearGradient id="paint13_linear_4549_53175" x1="1.78259" y1="1.78228" x2="8.5001" y2="8.49979" gradientUnits="userSpaceOnUse">
<stop stop-color="white" stop-opacity="0.69"/>
<stop offset="1" stop-color="white" stop-opacity="0"/>
</linearGradient>
<linearGradient id="paint14_linear_4549_53175" x1="7.26264" y1="4.91231" x2="8.30866" y2="11.3731" gradientUnits="userSpaceOnUse">
<stop stop-color="white"/>
<stop offset="1" stop-color="#FFE6D8"/>
</linearGradient>
<clipPath id="clip0_4549_53175">
<rect width="9" height="9" fill="white" transform="translate(4 4)"/>
</clipPath>
</defs>
</svg>
