<svg width="69" height="18" viewBox="0 0 69 18" fill="none" xmlns="http://www.w3.org/2000/svg">
<path fill-rule="evenodd" clip-rule="evenodd" d="M14.4255 16H67C68.1046 16 69 15.1046 69 14V5C69 3.89543 68.1046 3 67 3H14.4256L15.5227 3.63339C16.5128 4.20502 17.1227 5.26143 17.1227 6.40468V12.5953C17.1227 13.7385 16.5128 14.7949 15.5227 15.3666L14.4255 16Z" fill="url(#paint0_linear_3439_45963)"/>
<path fill-rule="evenodd" clip-rule="evenodd" d="M14.4255 16H67.0003C68.1048 16 69.0003 15.1046 69.0003 14V5C69.0003 3.89543 68.1048 3 67.0003 3H14.4256L15.2917 3.5H67.0003C67.8287 3.5 68.5003 4.17157 68.5003 5V14C68.5003 14.8284 67.8287 15.5 67.0003 15.5H15.2916L14.4255 16Z" fill="url(#paint1_linear_3439_45963)"/>
<path d="M26.543 11.005V13.9785H25.878V13.57H21.793V13.9785H21.128V11.005H26.543ZM21.793 12.9525H25.878V11.6225H21.793V12.9525ZM22.553 6.768L23.218 6.9105C23.0755 7.129 22.933 7.338 22.781 7.5375H26.2865V8.0885C25.897 8.63 25.3365 9.105 24.605 9.523C25.6405 9.9315 26.7995 10.1785 28.082 10.2735L27.93 10.891C26.41 10.777 25.0705 10.4445 23.8925 9.8745C22.7715 10.3875 21.356 10.7865 19.646 11.081L19.3895 10.473C20.919 10.226 22.192 9.9125 23.199 9.5135C22.7145 9.2285 22.268 8.9055 21.8595 8.5445C21.489 8.877 21.09 9.1715 20.672 9.4375L20.235 8.9055C21.1755 8.364 21.945 7.6515 22.553 6.768ZM23.902 9.2095C24.5575 8.8865 25.08 8.516 25.4695 8.117H22.287L22.2585 8.1455C22.762 8.5635 23.313 8.915 23.902 9.2095ZM27.607 5.951V7.7465H26.9135V6.5685H20.5865V7.7465H19.893V5.951H23.37C23.256 5.704 23.142 5.4855 23.0185 5.286L23.769 5.172C23.883 5.4 23.9875 5.666 24.1015 5.951H27.607ZM36.0905 7.0815H30.666V8.934H36.0905V7.0815ZM30.666 9.599C30.6185 11.2995 30.172 12.7625 29.317 13.988L28.8135 13.532C29.583 12.468 29.9725 11.081 29.9915 9.3805V6.407H33.0885C32.9175 6.008 32.737 5.6375 32.5375 5.2955L33.269 5.1815C33.44 5.5425 33.611 5.951 33.782 6.407H36.784V9.599H30.666ZM42.37 7.3095H44.7355C45.0965 6.673 45.41 5.989 45.6665 5.2575L46.2935 5.495C46.0085 6.217 45.7235 6.8155 45.4195 7.3095H46.835V7.9555H44.8875V8.2405C44.8875 8.7155 44.859 9.162 44.8115 9.5895H46.9965V10.245H45.03C45.258 11.29 45.961 12.354 47.139 13.437L46.664 13.9405C45.5715 12.8575 44.8875 11.784 44.612 10.7295C44.2415 12.1925 43.51 13.2755 42.427 13.9785L42.0185 13.437C43.0825 12.791 43.7665 11.727 44.061 10.245H42.2275V9.5895H44.156C44.194 9.2095 44.2225 8.8105 44.232 8.3925V7.9555H42.37V7.3095ZM43.3105 5.3145C43.6905 5.875 43.985 6.369 44.194 6.7965L43.681 7.148C43.4625 6.692 43.168 6.198 42.788 5.647L43.3105 5.3145ZM38.437 5.628H42.218V6.2645H41.6005V11.48C41.819 11.404 42.028 11.3375 42.237 11.271V11.936C42.028 12.0025 41.8095 12.069 41.6005 12.126V13.9975H40.945V12.3065C40.185 12.4965 39.406 12.677 38.589 12.829L38.418 12.183L39.0165 12.088V6.2645H38.437V5.628ZM39.672 11.9645C40.109 11.8695 40.527 11.7745 40.945 11.67V10.264H39.672V11.9645ZM39.672 9.637H40.945V8.2785H39.672V9.637ZM39.672 7.661H40.945V6.2645H39.672V7.661ZM51.8985 13.9215H50.8345L50.6825 13.247C51.0245 13.2755 51.3475 13.2945 51.661 13.2945C51.889 13.2945 52.0125 13.171 52.0125 12.943V10.6155C51.1005 10.6725 50.1125 10.7295 49.039 10.777L48.849 10.169C49.0675 10.15 49.267 10.1025 49.4475 10.0455C50.2265 9.7035 51.1005 9.1715 52.0695 8.4495C51.243 8.516 50.35 8.573 49.4 8.63L49.2575 8.022C49.4285 8.003 49.5805 7.9555 49.723 7.8985C50.198 7.661 50.7585 7.1955 51.4045 6.4925C50.597 6.5305 49.742 6.5495 48.83 6.5495L48.6305 5.951C51.357 5.951 53.6275 5.7515 55.4325 5.3525L55.765 5.932C54.777 6.16 53.618 6.331 52.269 6.4355C51.68 7.1195 51.0815 7.6515 50.4735 8.0505C51.2335 8.0125 52.003 7.9555 52.782 7.889C53.2095 7.547 53.6465 7.167 54.1025 6.7585L54.7295 7.072C53.124 8.4875 51.7275 9.504 50.5305 10.131C52.079 10.0455 53.409 9.941 54.511 9.808C54.2735 9.504 54.0265 9.1905 53.77 8.8865L54.283 8.573C55.062 9.485 55.6605 10.2735 56.0785 10.948L55.5275 11.3375C55.347 11.0145 55.138 10.6915 54.91 10.359C54.2545 10.435 53.523 10.5015 52.706 10.568V13.114C52.706 13.646 52.4305 13.9215 51.8985 13.9215ZM54.0075 11.1475C54.967 11.841 55.765 12.5345 56.411 13.2375L55.9265 13.722C55.347 13.057 54.5585 12.3445 53.5515 11.5845L54.0075 11.1475ZM50.388 11.214L50.8725 11.6415C50.2265 12.4205 49.4285 13.095 48.4785 13.6745L48.051 13.1235C48.982 12.5725 49.761 11.936 50.388 11.214ZM62.092 5.2575C62.092 6.0745 62.0635 6.7775 62.0255 7.3665C62.5575 9.9505 63.935 11.9265 66.1485 13.285L65.702 13.8835C63.764 12.6105 62.453 10.9005 61.7785 8.7535C61.2085 10.8245 59.8595 12.5345 57.7505 13.893L57.3325 13.285C59.945 11.6795 61.294 9.504 61.3795 6.768C61.389 6.122 61.3985 5.6185 61.3985 5.2575H62.092Z" fill="#176C71"/>
<path d="M7.86122 1.98759C8.29438 1.7375 8.82806 1.7375 9.26122 1.98759L14.6224 5.08289C15.0556 5.33298 15.3224 5.79515 15.3224 6.29533V12.4859C15.3224 12.9861 15.0556 13.4483 14.6224 13.6984L9.26122 16.7937C8.82806 17.0437 8.29438 17.0437 7.86122 16.7937L2.5 13.6984C2.06684 13.4483 1.8 12.9861 1.8 12.4859V6.29533C1.8 5.79515 2.06684 5.33298 2.5 5.08289L7.86122 1.98759Z" fill="url(#paint2_linear_3439_45963)" stroke="url(#paint3_linear_3439_45963)" stroke-width="1.2"/>
<path opacity="0.4" d="M8.21131 3.0927C8.42789 2.96765 8.69473 2.96765 8.91131 3.0927L13.8405 5.93855C14.0571 6.0636 14.1905 6.29468 14.1905 6.54477V12.2365C14.1905 12.4866 14.0571 12.7177 13.8405 12.8427L8.91131 15.6886C8.69473 15.8136 8.42789 15.8136 8.21131 15.6886L3.28214 12.8427C3.06556 12.7177 2.93214 12.4866 2.93214 12.2365V6.54477C2.93214 6.29468 3.06556 6.0636 3.28214 5.93855L8.21131 3.0927Z" fill="url(#paint4_linear_3439_45963)"/>
<g opacity="0.5">
<mask id="mask0_3439_45963" style="mask-type:alpha" maskUnits="userSpaceOnUse" x="2" y="2" width="13" height="14">
<path d="M8.21131 3.0927C8.42789 2.96765 8.69473 2.96765 8.91131 3.0927L13.8405 5.93855C14.0571 6.0636 14.1905 6.29468 14.1905 6.54477V12.2365C14.1905 12.4866 14.0571 12.7177 13.8405 12.8427L8.91131 15.6886C8.69473 15.8136 8.42789 15.8136 8.21131 15.6886L3.28214 12.8427C3.06556 12.7177 2.93214 12.4866 2.93214 12.2365V6.54477C2.93214 6.29468 3.06556 6.0636 3.28214 5.93855L8.21131 3.0927Z" fill="url(#paint5_linear_3439_45963)"/>
</mask>
<g mask="url(#mask0_3439_45963)">
<path d="M6.56122 0.391113H10.5612L9.06122 9.39111H8.06122L6.56122 0.391113Z" fill="url(#paint6_linear_3439_45963)"/>
<path d="M6.56122 18.3901H10.5612L9.06122 9.39014H8.06122L6.56122 18.3901Z" fill="url(#paint7_linear_3439_45963)"/>
<path d="M17.5611 7.39062L17.5611 11.3906L8.56105 9.89062L8.56105 8.89062L17.5611 7.39062Z" fill="url(#paint8_linear_3439_45963)"/>
<path d="M-0.438416 7.39062L-0.438416 11.3906L8.56158 9.89063L8.56158 8.89063L-0.438416 7.39062Z" fill="url(#paint9_linear_3439_45963)"/>
<path d="M13.511 1.6123L16.3395 4.44073L8.91485 9.74403L8.20775 9.03693L13.511 1.6123Z" fill="url(#paint10_linear_3439_45963)"/>
<path d="M0.783096 14.3403L3.61152 17.1688L8.91482 9.74414L8.20772 9.03703L0.783096 14.3403Z" fill="url(#paint11_linear_3439_45963)"/>
<path d="M16.3395 14.3403L13.5111 17.1688L8.20781 9.74414L8.91492 9.03703L16.3395 14.3403Z" fill="url(#paint12_linear_3439_45963)"/>
<path d="M3.61159 1.6123L0.78316 4.44073L8.20778 9.74403L8.91489 9.03693L3.61159 1.6123Z" fill="url(#paint13_linear_3439_45963)"/>
</g>
</g>
<g filter="url(#filter0_d_3439_45963)">
<path fill-rule="evenodd" clip-rule="evenodd" d="M8.5614 9.01514C9.49338 9.01514 10.2489 8.25962 10.2489 7.32764C10.2489 6.39566 9.49338 5.64014 8.5614 5.64014C7.62942 5.64014 6.8739 6.39566 6.8739 7.32764C6.8739 8.25962 7.62942 9.01514 8.5614 9.01514ZM7.06116 9.57834C5.81852 9.57834 4.81116 10.5857 4.81116 11.8283V12.3908C4.81116 12.8051 5.14694 13.1408 5.56116 13.1408H11.5612C11.9754 13.1408 12.3112 12.8051 12.3112 12.3908V11.8283C12.3112 10.5857 11.3038 9.57834 10.0612 9.57834H9.7065C9.5772 9.57834 9.45703 9.64495 9.3885 9.75459L8.56116 11.0783L7.73381 9.75459C7.66529 9.64495 7.54511 9.57834 7.41581 9.57834H7.06116Z" fill="url(#paint14_linear_3439_45963)"/>
</g>
<defs>
<filter id="filter0_d_3439_45963" x="4.31116" y="5.14014" width="9.5" height="9.50049" filterUnits="userSpaceOnUse" color-interpolation-filters="sRGB">
<feFlood flood-opacity="0" result="BackgroundImageFix"/>
<feColorMatrix in="SourceAlpha" type="matrix" values="0 0 0 0 0 0 0 0 0 0 0 0 0 0 0 0 0 0 127 0" result="hardAlpha"/>
<feOffset dx="0.5" dy="0.5"/>
<feGaussianBlur stdDeviation="0.5"/>
<feComposite in2="hardAlpha" operator="out"/>
<feColorMatrix type="matrix" values="0 0 0 0 0.28125 0 0 0 0 0.833333 0 0 0 0 0.800209 0 0 0 1 0"/>
<feBlend mode="normal" in2="BackgroundImageFix" result="effect1_dropShadow_3439_45963"/>
<feBlend mode="normal" in="SourceGraphic" in2="effect1_dropShadow_3439_45963" result="shape"/>
</filter>
<linearGradient id="paint0_linear_3439_45963" x1="14.521" y1="6.50001" x2="69.0307" y2="12.7311" gradientUnits="userSpaceOnUse">
<stop stop-color="#D9FFE7"/>
<stop offset="1" stop-color="#DFFDFE"/>
</linearGradient>
<linearGradient id="paint1_linear_3439_45963" x1="13.2391" y1="6.5" x2="68.1095" y2="17.8185" gradientUnits="userSpaceOnUse">
<stop stop-color="#82FFB5"/>
<stop offset="1" stop-color="#85F8FF"/>
</linearGradient>
<linearGradient id="paint2_linear_3439_45963" x1="6.06122" y1="2.39063" x2="10.0612" y2="16.3906" gradientUnits="userSpaceOnUse">
<stop stop-color="#56F3CC"/>
<stop offset="1" stop-color="#35D0C7"/>
</linearGradient>
<linearGradient id="paint3_linear_3439_45963" x1="5.06122" y1="0.890625" x2="11.0612" y2="17.8906" gradientUnits="userSpaceOnUse">
<stop stop-color="#C7FFF1"/>
<stop offset="1" stop-color="#8EEFE3"/>
</linearGradient>
<linearGradient id="paint4_linear_3439_45963" x1="6.26719" y1="3.27298" x2="9.32602" y2="15.8906" gradientUnits="userSpaceOnUse">
<stop stop-color="white" stop-opacity="0.49"/>
<stop offset="1" stop-color="white" stop-opacity="0"/>
</linearGradient>
<linearGradient id="paint5_linear_3439_45963" x1="6.26719" y1="3.27298" x2="9.32602" y2="15.8906" gradientUnits="userSpaceOnUse">
<stop stop-color="#B8EFFF"/>
<stop offset="1" stop-color="white" stop-opacity="0.85"/>
</linearGradient>
<linearGradient id="paint6_linear_3439_45963" x1="8.56122" y1="-0.108887" x2="8.56122" y2="9.39111" gradientUnits="userSpaceOnUse">
<stop stop-color="white" stop-opacity="0.69"/>
<stop offset="1" stop-color="white" stop-opacity="0"/>
</linearGradient>
<linearGradient id="paint7_linear_3439_45963" x1="8.56122" y1="18.8901" x2="8.56122" y2="9.39014" gradientUnits="userSpaceOnUse">
<stop stop-color="white" stop-opacity="0.69"/>
<stop offset="1" stop-color="white" stop-opacity="0"/>
</linearGradient>
<linearGradient id="paint8_linear_3439_45963" x1="18.0611" y1="9.39062" x2="8.56105" y2="9.39062" gradientUnits="userSpaceOnUse">
<stop stop-color="white" stop-opacity="0.69"/>
<stop offset="1" stop-color="white" stop-opacity="0"/>
</linearGradient>
<linearGradient id="paint9_linear_3439_45963" x1="-0.938416" y1="9.39062" x2="8.56158" y2="9.39063" gradientUnits="userSpaceOnUse">
<stop stop-color="white" stop-opacity="0.69"/>
<stop offset="1" stop-color="white" stop-opacity="0"/>
</linearGradient>
<linearGradient id="paint10_linear_3439_45963" x1="15.2788" y1="2.67296" x2="8.5613" y2="9.39048" gradientUnits="userSpaceOnUse">
<stop stop-color="white" stop-opacity="0.69"/>
<stop offset="1" stop-color="white" stop-opacity="0"/>
</linearGradient>
<linearGradient id="paint11_linear_3439_45963" x1="1.84376" y1="16.1081" x2="8.56127" y2="9.39058" gradientUnits="userSpaceOnUse">
<stop stop-color="white" stop-opacity="0.69"/>
<stop offset="1" stop-color="white" stop-opacity="0"/>
</linearGradient>
<linearGradient id="paint12_linear_3439_45963" x1="15.2789" y1="16.1081" x2="8.56136" y2="9.39058" gradientUnits="userSpaceOnUse">
<stop stop-color="white" stop-opacity="0.69"/>
<stop offset="1" stop-color="white" stop-opacity="0"/>
</linearGradient>
<linearGradient id="paint13_linear_3439_45963" x1="1.84382" y1="2.67296" x2="8.56133" y2="9.39048" gradientUnits="userSpaceOnUse">
<stop stop-color="white" stop-opacity="0.69"/>
<stop offset="1" stop-color="white" stop-opacity="0"/>
</linearGradient>
<linearGradient id="paint14_linear_3439_45963" x1="7.56116" y1="5.39011" x2="9.06143" y2="12.8908" gradientUnits="userSpaceOnUse">
<stop stop-color="white"/>
<stop offset="1" stop-color="#CBFCFF"/>
</linearGradient>
</defs>
</svg>
