<svg width="59" height="18" viewBox="0 0 59 18" fill="none" xmlns="http://www.w3.org/2000/svg">
<path fill-rule="evenodd" clip-rule="evenodd" d="M14.4255 16H57.0003C58.1048 16 59.0003 15.1046 59.0003 14V5C59.0003 3.89543 58.1048 3 57.0003 3H14.4256L15.5227 3.63339C16.5128 4.20502 17.1227 5.26143 17.1227 6.40468V12.5953C17.1227 13.7385 16.5128 14.7949 15.5227 15.3666L14.4255 16Z" fill="url(#paint0_linear_3027_160638)"/>
<path fill-rule="evenodd" clip-rule="evenodd" d="M14.4255 16H57.0003C58.1048 16 59.0003 15.1046 59.0003 14V5C59.0003 3.89543 58.1048 3 57.0003 3H14.4256L15.2917 3.5H57.0003C57.8287 3.5 58.5003 4.17157 58.5003 5V14C58.5003 14.8284 57.8287 15.5 57.0003 15.5H15.2916L14.4255 16Z" fill="url(#paint1_linear_3027_160638)"/>
<path d="M23.8545 9.656V10.3495C23.3035 10.53 22.7335 10.701 22.1255 10.8625V13C22.1255 13.551 21.831 13.8265 21.2515 13.8265H20.197L20.0545 13.171C20.387 13.1995 20.71 13.2185 21.0235 13.2185C21.2895 13.2185 21.4225 13.0855 21.4225 12.829V11.024C20.8145 11.157 20.197 11.2805 19.551 11.385L19.456 10.6915C20.1495 10.5775 20.805 10.4635 21.4225 10.3305V8.459H19.4655V7.8035H21.4225V6.5305C20.919 6.635 20.3965 6.7205 19.855 6.7965L19.7125 6.141C21.0615 5.989 22.2585 5.7135 23.3035 5.305L23.5315 5.951C23.0945 6.103 22.6195 6.2455 22.1255 6.3785V7.8035H24.4055C24.3485 7.034 24.32 6.1885 24.32 5.2575H25.004C25.0135 6.217 25.042 7.0625 25.099 7.8035H28.0345V8.459H25.156C25.2225 9.143 25.308 9.713 25.422 10.1785C25.479 10.4255 25.5455 10.644 25.612 10.853C26.068 10.302 26.4765 9.675 26.8185 8.972L27.4075 9.2855C26.9705 10.1785 26.4575 10.9385 25.859 11.575C25.992 11.898 26.125 12.1735 26.277 12.392C26.581 12.848 26.828 13.0855 27.0085 13.0855C27.1985 13.076 27.36 12.544 27.512 11.48L28.1105 11.7935C27.8825 13.1425 27.55 13.817 27.113 13.817C26.7235 13.817 26.315 13.532 25.878 12.962C25.688 12.7055 25.5075 12.4015 25.3555 12.0595C24.6715 12.6675 23.8925 13.1425 23.028 13.4845L22.6575 12.8955C23.5885 12.5535 24.396 12.05 25.0895 11.3945C24.9755 11.0715 24.871 10.72 24.776 10.3495C24.643 9.808 24.5385 9.181 24.4625 8.459H22.1255V10.169C22.743 10.0075 23.3225 9.8365 23.8545 9.656ZM26.049 5.362C26.733 5.818 27.3125 6.2645 27.7875 6.7205L27.2935 7.2145C26.8755 6.7775 26.315 6.3025 25.593 5.799L26.049 5.362ZM32.338 6.882V13.361H31.673V12.8195H29.944V13.6365H29.279V6.882H30.1625C30.3525 6.35 30.4855 5.799 30.571 5.229L31.255 5.324C31.141 5.8845 30.9985 6.407 30.8085 6.882H32.338ZM29.944 12.183H31.673V10.1025H29.944V12.183ZM29.944 9.485H31.673V7.528H29.944V9.485ZM33.991 9.086C34.675 9.8745 35.188 10.568 35.549 11.157L35.0075 11.537C34.618 10.91 34.0955 10.207 33.44 9.428L33.991 9.086ZM37.2495 6.8915C37.2495 10.0455 37.202 12.0025 37.107 12.7435C37.012 13.4655 36.575 13.836 35.777 13.836C35.587 13.836 35.264 13.817 34.808 13.798L34.6465 13.171C35.0455 13.19 35.3875 13.1995 35.682 13.1995C36.1285 13.1995 36.385 12.9525 36.461 12.468C36.518 11.936 36.556 10.2925 36.575 7.5565H33.9625C33.6965 8.155 33.383 8.6965 33.0125 9.181L32.604 8.6395C33.269 7.7085 33.7155 6.5685 33.9625 5.2195L34.637 5.305C34.523 5.8655 34.39 6.3975 34.219 6.8915H37.2495ZM45.543 11.005V13.9785H44.878V13.57H40.793V13.9785H40.128V11.005H45.543ZM40.793 12.9525H44.878V11.6225H40.793V12.9525ZM41.553 6.768L42.218 6.9105C42.0755 7.129 41.933 7.338 41.781 7.5375H45.2865V8.0885C44.897 8.63 44.3365 9.105 43.605 9.523C44.6405 9.9315 45.7995 10.1785 47.082 10.2735L46.93 10.891C45.41 10.777 44.0705 10.4445 42.8925 9.8745C41.7715 10.3875 40.356 10.7865 38.646 11.081L38.3895 10.473C39.919 10.226 41.192 9.9125 42.199 9.5135C41.7145 9.2285 41.268 8.9055 40.8595 8.5445C40.489 8.877 40.09 9.1715 39.672 9.4375L39.235 8.9055C40.1755 8.364 40.945 7.6515 41.553 6.768ZM42.902 9.2095C43.5575 8.8865 44.08 8.516 44.4695 8.117H41.287L41.2585 8.1455C41.762 8.5635 42.313 8.915 42.902 9.2095ZM46.607 5.951V7.7465H45.9135V6.5685H39.5865V7.7465H38.893V5.951H42.37C42.256 5.704 42.142 5.4855 42.0185 5.286L42.769 5.172C42.883 5.4 42.9875 5.666 43.1015 5.951H46.607ZM55.0905 7.0815H49.666V8.934H55.0905V7.0815ZM49.666 9.599C49.6185 11.2995 49.172 12.7625 48.317 13.988L47.8135 13.532C48.583 12.468 48.9725 11.081 48.9915 9.3805V6.407H52.0885C51.9175 6.008 51.737 5.6375 51.5375 5.2955L52.269 5.1815C52.44 5.5425 52.611 5.951 52.782 6.407H55.784V9.599H49.666Z" fill="#176C71"/>
<path d="M7.86122 1.98759C8.29438 1.7375 8.82806 1.7375 9.26122 1.98759L14.6224 5.08289C15.0556 5.33298 15.3224 5.79515 15.3224 6.29533V12.4859C15.3224 12.9861 15.0556 13.4483 14.6224 13.6984L9.26122 16.7937C8.82806 17.0437 8.29438 17.0437 7.86122 16.7937L2.5 13.6984C2.06684 13.4483 1.8 12.9861 1.8 12.4859V6.29533C1.8 5.79515 2.06684 5.33298 2.5 5.08289L7.86122 1.98759Z" fill="url(#paint2_linear_3027_160638)" stroke="url(#paint3_linear_3027_160638)" stroke-width="1.2"/>
<path opacity="0.4" d="M8.21132 3.0927C8.4279 2.96765 8.69474 2.96765 8.91132 3.0927L13.8405 5.93855C14.0571 6.0636 14.1905 6.29468 14.1905 6.54477V12.2365C14.1905 12.4866 14.0571 12.7177 13.8405 12.8427L8.91132 15.6886C8.69474 15.8136 8.4279 15.8136 8.21132 15.6886L3.28215 12.8427C3.06557 12.7177 2.93215 12.4866 2.93215 12.2365V6.54477C2.93215 6.29468 3.06557 6.0636 3.28215 5.93855L8.21132 3.0927Z" fill="url(#paint4_linear_3027_160638)"/>
<g opacity="0.5">
<mask id="mask0_3027_160638" style="mask-type:alpha" maskUnits="userSpaceOnUse" x="2" y="2" width="13" height="14">
<path d="M8.21132 3.0927C8.4279 2.96765 8.69474 2.96765 8.91132 3.0927L13.8405 5.93855C14.0571 6.0636 14.1905 6.29468 14.1905 6.54477V12.2365C14.1905 12.4866 14.0571 12.7177 13.8405 12.8427L8.91132 15.6886C8.69474 15.8136 8.4279 15.8136 8.21132 15.6886L3.28215 12.8427C3.06557 12.7177 2.93215 12.4866 2.93215 12.2365V6.54477C2.93215 6.29468 3.06557 6.0636 3.28215 5.93855L8.21132 3.0927Z" fill="url(#paint5_linear_3027_160638)"/>
</mask>
<g mask="url(#mask0_3027_160638)">
<path d="M6.56123 0.391113H10.5612L9.06123 9.39111H8.06123L6.56123 0.391113Z" fill="url(#paint6_linear_3027_160638)"/>
<path d="M6.56123 18.3901H10.5612L9.06123 9.39014H8.06123L6.56123 18.3901Z" fill="url(#paint7_linear_3027_160638)"/>
<path d="M17.5611 7.39062L17.5611 11.3906L8.56106 9.89062L8.56106 8.89062L17.5611 7.39062Z" fill="url(#paint8_linear_3027_160638)"/>
<path d="M-0.438408 7.39062L-0.438408 11.3906L8.56159 9.89063L8.56159 8.89063L-0.438408 7.39062Z" fill="url(#paint9_linear_3027_160638)"/>
<path d="M13.5111 1.6123L16.3395 4.44073L8.91486 9.74403L8.20775 9.03693L13.5111 1.6123Z" fill="url(#paint10_linear_3027_160638)"/>
<path d="M0.783104 14.3403L3.61153 17.1688L8.91483 9.74414L8.20773 9.03703L0.783104 14.3403Z" fill="url(#paint11_linear_3027_160638)"/>
<path d="M16.3395 14.3403L13.5111 17.1688L8.20782 9.74414L8.91493 9.03703L16.3395 14.3403Z" fill="url(#paint12_linear_3027_160638)"/>
<path d="M3.6116 1.6123L0.783168 4.44073L8.20779 9.74403L8.9149 9.03693L3.6116 1.6123Z" fill="url(#paint13_linear_3027_160638)"/>
</g>
</g>
<g filter="url(#filter0_d_3027_160638)">
<path fill-rule="evenodd" clip-rule="evenodd" d="M8.56141 9.01514C9.49339 9.01514 10.2489 8.25962 10.2489 7.32764C10.2489 6.39566 9.49339 5.64014 8.56141 5.64014C7.62943 5.64014 6.87391 6.39566 6.87391 7.32764C6.87391 8.25962 7.62943 9.01514 8.56141 9.01514ZM7.06116 9.57834C5.81852 9.57834 4.81116 10.5857 4.81116 11.8283V12.3908C4.81116 12.8051 5.14695 13.1408 5.56117 13.1408H11.5612C11.9754 13.1408 12.3112 12.8051 12.3112 12.3908V11.8283C12.3112 10.5857 11.3038 9.57834 10.0612 9.57834H9.70651C9.57721 9.57834 9.45704 9.64495 9.38851 9.75459L8.56116 11.0783L7.73382 9.75459C7.66529 9.64495 7.54512 9.57834 7.41582 9.57834H7.06116Z" fill="url(#paint14_linear_3027_160638)"/>
</g>
<defs>
<filter id="filter0_d_3027_160638" x="4.31116" y="5.14014" width="9.5" height="9.50049" filterUnits="userSpaceOnUse" color-interpolation-filters="sRGB">
<feFlood flood-opacity="0" result="BackgroundImageFix"/>
<feColorMatrix in="SourceAlpha" type="matrix" values="0 0 0 0 0 0 0 0 0 0 0 0 0 0 0 0 0 0 127 0" result="hardAlpha"/>
<feOffset dx="0.5" dy="0.5"/>
<feGaussianBlur stdDeviation="0.5"/>
<feComposite in2="hardAlpha" operator="out"/>
<feColorMatrix type="matrix" values="0 0 0 0 0.28125 0 0 0 0 0.833333 0 0 0 0 0.800209 0 0 0 1 0"/>
<feBlend mode="normal" in2="BackgroundImageFix" result="effect1_dropShadow_3027_160638"/>
<feBlend mode="normal" in="SourceGraphic" in2="effect1_dropShadow_3027_160638" result="shape"/>
</filter>
<linearGradient id="paint0_linear_3027_160638" x1="14.5035" y1="6.50001" x2="59.2174" y2="10.6747" gradientUnits="userSpaceOnUse">
<stop stop-color="#D9FFE7"/>
<stop offset="1" stop-color="#DFFDFE"/>
</linearGradient>
<linearGradient id="paint1_linear_3027_160638" x1="13.4565" y1="6.5" x2="58.89" y2="14.1546" gradientUnits="userSpaceOnUse">
<stop stop-color="#82FFB5"/>
<stop offset="1" stop-color="#85F8FF"/>
</linearGradient>
<linearGradient id="paint2_linear_3027_160638" x1="6.06122" y1="2.39063" x2="10.0612" y2="16.3906" gradientUnits="userSpaceOnUse">
<stop stop-color="#56F3CC"/>
<stop offset="1" stop-color="#35D0C7"/>
</linearGradient>
<linearGradient id="paint3_linear_3027_160638" x1="5.06122" y1="0.890625" x2="11.0612" y2="17.8906" gradientUnits="userSpaceOnUse">
<stop stop-color="#C7FFF1"/>
<stop offset="1" stop-color="#8EEFE3"/>
</linearGradient>
<linearGradient id="paint4_linear_3027_160638" x1="6.2672" y1="3.27298" x2="9.32602" y2="15.8906" gradientUnits="userSpaceOnUse">
<stop stop-color="white" stop-opacity="0.49"/>
<stop offset="1" stop-color="white" stop-opacity="0"/>
</linearGradient>
<linearGradient id="paint5_linear_3027_160638" x1="6.2672" y1="3.27298" x2="9.32602" y2="15.8906" gradientUnits="userSpaceOnUse">
<stop stop-color="#B8EFFF"/>
<stop offset="1" stop-color="white" stop-opacity="0.85"/>
</linearGradient>
<linearGradient id="paint6_linear_3027_160638" x1="8.56123" y1="-0.108887" x2="8.56123" y2="9.39111" gradientUnits="userSpaceOnUse">
<stop stop-color="white" stop-opacity="0.69"/>
<stop offset="1" stop-color="white" stop-opacity="0"/>
</linearGradient>
<linearGradient id="paint7_linear_3027_160638" x1="8.56123" y1="18.8901" x2="8.56123" y2="9.39014" gradientUnits="userSpaceOnUse">
<stop stop-color="white" stop-opacity="0.69"/>
<stop offset="1" stop-color="white" stop-opacity="0"/>
</linearGradient>
<linearGradient id="paint8_linear_3027_160638" x1="18.0611" y1="9.39062" x2="8.56106" y2="9.39062" gradientUnits="userSpaceOnUse">
<stop stop-color="white" stop-opacity="0.69"/>
<stop offset="1" stop-color="white" stop-opacity="0"/>
</linearGradient>
<linearGradient id="paint9_linear_3027_160638" x1="-0.938408" y1="9.39062" x2="8.56159" y2="9.39063" gradientUnits="userSpaceOnUse">
<stop stop-color="white" stop-opacity="0.69"/>
<stop offset="1" stop-color="white" stop-opacity="0"/>
</linearGradient>
<linearGradient id="paint10_linear_3027_160638" x1="15.2788" y1="2.67296" x2="8.56131" y2="9.39048" gradientUnits="userSpaceOnUse">
<stop stop-color="white" stop-opacity="0.69"/>
<stop offset="1" stop-color="white" stop-opacity="0"/>
</linearGradient>
<linearGradient id="paint11_linear_3027_160638" x1="1.84376" y1="16.1081" x2="8.56128" y2="9.39058" gradientUnits="userSpaceOnUse">
<stop stop-color="white" stop-opacity="0.69"/>
<stop offset="1" stop-color="white" stop-opacity="0"/>
</linearGradient>
<linearGradient id="paint12_linear_3027_160638" x1="15.2789" y1="16.1081" x2="8.56137" y2="9.39058" gradientUnits="userSpaceOnUse">
<stop stop-color="white" stop-opacity="0.69"/>
<stop offset="1" stop-color="white" stop-opacity="0"/>
</linearGradient>
<linearGradient id="paint13_linear_3027_160638" x1="1.84383" y1="2.67296" x2="8.56134" y2="9.39048" gradientUnits="userSpaceOnUse">
<stop stop-color="white" stop-opacity="0.69"/>
<stop offset="1" stop-color="white" stop-opacity="0"/>
</linearGradient>
<linearGradient id="paint14_linear_3027_160638" x1="7.56117" y1="5.39011" x2="9.06143" y2="12.8908" gradientUnits="userSpaceOnUse">
<stop stop-color="white"/>
<stop offset="1" stop-color="#CBFCFF"/>
</linearGradient>
</defs>
</svg>
