<svg width="32" height="16" viewBox="0 0 32 16" fill="none" xmlns="http://www.w3.org/2000/svg">
<rect width="32" height="16" rx="8" fill="#FE5B4C"/>
<path d="M8.02094 5.288V11H8.89294V6.704H8.92494L11.8769 11H12.7249V5.288H11.8529V9.536H11.8209L8.90094 5.288H8.02094ZM13.8491 5.288V11H18.0891V10.256H14.7211V8.44H17.7611V7.696H14.7211V6.032H17.9531V5.288H13.8491ZM18.4541 5.288L20.0941 11H21.0301L22.1901 6.592H22.2221L23.3821 11H24.3101L25.9581 5.288H24.9741L23.8621 9.736H23.8301L22.6621 5.288H21.7501L20.5821 9.736H20.5501L19.4381 5.288H18.4541Z" fill="white"/>
</svg>
