<svg width="59" height="18" viewBox="0 0 59 18" fill="none" xmlns="http://www.w3.org/2000/svg">
<path fill-rule="evenodd" clip-rule="evenodd" d="M14.4255 16H57.0003C58.1048 16 59.0003 15.1046 59.0003 14V5C59.0003 3.89543 58.1048 3 57.0003 3H14.4256L15.5227 3.63339C16.5128 4.20502 17.1227 5.26143 17.1227 6.40468V12.5953C17.1227 13.7385 16.5128 14.7949 15.5227 15.3666L14.4255 16Z" fill="url(#paint0_linear_3379_40257)"/>
<path fill-rule="evenodd" clip-rule="evenodd" d="M14.4255 16H57.0003C58.1048 16 59.0003 15.1046 59.0003 14V5C59.0003 3.89543 58.1048 3 57.0003 3H14.4256L15.2917 3.5H57.0003C57.8287 3.5 58.5003 4.17157 58.5003 5V14C58.5003 14.8284 57.8287 15.5 57.0003 15.5H15.2916L14.4255 16Z" fill="url(#paint1_linear_3379_40257)"/>
<path d="M22.1255 5.3335L22.7525 5.5805C22.0495 7.5755 21.128 9.0955 19.969 10.1405L19.437 9.675C20.6245 8.592 21.5175 7.148 22.1255 5.3335ZM25.365 10.3685C26.106 11.3945 26.733 12.4965 27.265 13.665L26.6285 13.95C26.486 13.627 26.3435 13.323 26.201 13.038C24.529 13.304 22.6575 13.494 20.5865 13.627L20.463 12.962C21.223 12.563 22.173 11.062 23.3225 8.459L23.9875 8.687C23.1705 10.492 22.3535 11.9075 21.5365 12.9335C23.085 12.8385 24.5385 12.677 25.897 12.4585C25.5265 11.7745 25.1465 11.1475 24.7475 10.5775L25.365 10.3685ZM25.2225 5.267C25.7735 7.034 26.7235 8.478 28.082 9.599L27.5975 10.1595C26.182 8.9815 25.194 7.452 24.643 5.59L25.2225 5.267ZM32.5945 6.6255C32.4235 6.901 32.2525 7.1575 32.0625 7.4045H36.8885C36.86 8.2405 36.8315 8.9815 36.8125 9.6275H37.62V10.264H36.784C36.746 10.9575 36.7175 11.518 36.689 11.955H37.468V12.544H36.6415C36.613 12.81 36.5845 12.9715 36.5655 13.0475C36.4705 13.3515 36.29 13.5795 36.024 13.7315C35.758 13.8645 35.378 13.931 34.865 13.931C34.6275 13.931 34.352 13.9405 34.0385 13.9405L33.839 13.3135C34.181 13.3325 34.4945 13.3515 34.7795 13.3515C35.036 13.3515 35.264 13.323 35.473 13.2755C35.682 13.209 35.834 13.0665 35.929 12.848C35.948 12.8005 35.967 12.696 35.986 12.544H31.464C31.616 11.784 31.749 11.024 31.844 10.264H30.894V9.6275H31.9105C31.9865 8.896 32.034 8.155 32.053 7.414C31.8535 7.6705 31.6445 7.908 31.426 8.1265L30.989 7.604C31.635 6.9865 32.1575 6.179 32.566 5.172L33.25 5.3145C33.155 5.552 33.0505 5.78 32.946 5.989H37.335V6.6255H32.5945ZM32.49 10.264C32.414 10.872 32.3285 11.442 32.224 11.955H36.043C36.0715 11.5275 36.1 10.967 36.138 10.264H32.49ZM36.1665 9.6275C36.1855 9.1335 36.2045 8.592 36.2235 8.0125H32.6705C32.642 8.5825 32.604 9.124 32.5565 9.6275H36.1665ZM33.9435 8.174C34.4185 8.478 34.8175 8.7915 35.1405 9.105L34.7035 9.542C34.4185 9.238 34.0195 8.9245 33.516 8.592L33.9435 8.174ZM33.858 10.378C34.333 10.72 34.7225 11.062 35.0455 11.404L34.599 11.841C34.314 11.518 33.9245 11.1665 33.4305 10.796L33.858 10.378ZM29.602 5.4C30.172 5.78 30.6565 6.1695 31.0555 6.5685L30.571 7.0625C30.2195 6.6825 29.735 6.2835 29.108 5.8655L29.602 5.4ZM29.45 7.7085C30.02 8.1075 30.5045 8.516 30.9035 8.915L30.419 9.3995C30.0675 9.0195 29.583 8.6205 28.956 8.1835L29.45 7.7085ZM30.4285 10.492L31.0175 10.72C30.6185 11.822 30.1625 12.8575 29.6685 13.8265L29.032 13.551C29.564 12.5535 30.0295 11.537 30.4285 10.492ZM45.543 11.005V13.9785H44.878V13.57H40.793V13.9785H40.128V11.005H45.543ZM40.793 12.9525H44.878V11.6225H40.793V12.9525ZM41.553 6.768L42.218 6.9105C42.0755 7.129 41.933 7.338 41.781 7.5375H45.2865V8.0885C44.897 8.63 44.3365 9.105 43.605 9.523C44.6405 9.9315 45.7995 10.1785 47.082 10.2735L46.93 10.891C45.41 10.777 44.0705 10.4445 42.8925 9.8745C41.7715 10.3875 40.356 10.7865 38.646 11.081L38.3895 10.473C39.919 10.226 41.192 9.9125 42.199 9.5135C41.7145 9.2285 41.268 8.9055 40.8595 8.5445C40.489 8.877 40.09 9.1715 39.672 9.4375L39.235 8.9055C40.1755 8.364 40.945 7.6515 41.553 6.768ZM42.902 9.2095C43.5575 8.8865 44.08 8.516 44.4695 8.117H41.287L41.2585 8.1455C41.762 8.5635 42.313 8.915 42.902 9.2095ZM46.607 5.951V7.7465H45.9135V6.5685H39.5865V7.7465H38.893V5.951H42.37C42.256 5.704 42.142 5.4855 42.0185 5.286L42.769 5.172C42.883 5.4 42.9875 5.666 43.1015 5.951H46.607ZM55.0905 7.0815H49.666V8.934H55.0905V7.0815ZM49.666 9.599C49.6185 11.2995 49.172 12.7625 48.317 13.988L47.8135 13.532C48.583 12.468 48.9725 11.081 48.9915 9.3805V6.407H52.0885C51.9175 6.008 51.737 5.6375 51.5375 5.2955L52.269 5.1815C52.44 5.5425 52.611 5.951 52.782 6.407H55.784V9.599H49.666Z" fill="#176C71"/>
<path d="M7.86122 1.98759C8.29438 1.7375 8.82806 1.7375 9.26122 1.98759L14.6224 5.08289C15.0556 5.33298 15.3224 5.79515 15.3224 6.29533V12.4859C15.3224 12.9861 15.0556 13.4483 14.6224 13.6984L9.26122 16.7937C8.82806 17.0437 8.29438 17.0437 7.86122 16.7937L2.5 13.6984C2.06684 13.4483 1.8 12.9861 1.8 12.4859V6.29533C1.8 5.79515 2.06684 5.33298 2.5 5.08289L7.86122 1.98759Z" fill="url(#paint2_linear_3379_40257)" stroke="url(#paint3_linear_3379_40257)" stroke-width="1.2"/>
<path opacity="0.4" d="M8.21132 3.0927C8.4279 2.96765 8.69474 2.96765 8.91132 3.0927L13.8405 5.93855C14.0571 6.0636 14.1905 6.29468 14.1905 6.54477V12.2365C14.1905 12.4866 14.0571 12.7177 13.8405 12.8427L8.91132 15.6886C8.69474 15.8136 8.4279 15.8136 8.21132 15.6886L3.28215 12.8427C3.06557 12.7177 2.93215 12.4866 2.93215 12.2365V6.54477C2.93215 6.29468 3.06557 6.0636 3.28215 5.93855L8.21132 3.0927Z" fill="url(#paint4_linear_3379_40257)"/>
<g opacity="0.5">
<mask id="mask0_3379_40257" style="mask-type:alpha" maskUnits="userSpaceOnUse" x="2" y="2" width="13" height="14">
<path d="M8.21132 3.0927C8.4279 2.96765 8.69474 2.96765 8.91132 3.0927L13.8405 5.93855C14.0571 6.0636 14.1905 6.29468 14.1905 6.54477V12.2365C14.1905 12.4866 14.0571 12.7177 13.8405 12.8427L8.91132 15.6886C8.69474 15.8136 8.4279 15.8136 8.21132 15.6886L3.28215 12.8427C3.06557 12.7177 2.93215 12.4866 2.93215 12.2365V6.54477C2.93215 6.29468 3.06557 6.0636 3.28215 5.93855L8.21132 3.0927Z" fill="url(#paint5_linear_3379_40257)"/>
</mask>
<g mask="url(#mask0_3379_40257)">
<path d="M6.56123 0.391113H10.5612L9.06123 9.39111H8.06123L6.56123 0.391113Z" fill="url(#paint6_linear_3379_40257)"/>
<path d="M6.56123 18.3901H10.5612L9.06123 9.39014H8.06123L6.56123 18.3901Z" fill="url(#paint7_linear_3379_40257)"/>
<path d="M17.5611 7.39062L17.5611 11.3906L8.56106 9.89062L8.56106 8.89062L17.5611 7.39062Z" fill="url(#paint8_linear_3379_40257)"/>
<path d="M-0.438408 7.39062L-0.438408 11.3906L8.56159 9.89063L8.56159 8.89063L-0.438408 7.39062Z" fill="url(#paint9_linear_3379_40257)"/>
<path d="M13.5111 1.6123L16.3395 4.44073L8.91486 9.74403L8.20775 9.03693L13.5111 1.6123Z" fill="url(#paint10_linear_3379_40257)"/>
<path d="M0.783104 14.3403L3.61153 17.1688L8.91483 9.74414L8.20773 9.03703L0.783104 14.3403Z" fill="url(#paint11_linear_3379_40257)"/>
<path d="M16.3395 14.3403L13.5111 17.1688L8.20782 9.74414L8.91493 9.03703L16.3395 14.3403Z" fill="url(#paint12_linear_3379_40257)"/>
<path d="M3.6116 1.6123L0.783168 4.44073L8.20779 9.74403L8.9149 9.03693L3.6116 1.6123Z" fill="url(#paint13_linear_3379_40257)"/>
</g>
</g>
<g filter="url(#filter0_d_3379_40257)">
<path fill-rule="evenodd" clip-rule="evenodd" d="M8.56141 9.01514C9.49339 9.01514 10.2489 8.25962 10.2489 7.32764C10.2489 6.39566 9.49339 5.64014 8.56141 5.64014C7.62943 5.64014 6.87391 6.39566 6.87391 7.32764C6.87391 8.25962 7.62943 9.01514 8.56141 9.01514ZM7.06116 9.57834C5.81852 9.57834 4.81116 10.5857 4.81116 11.8283V12.3908C4.81116 12.8051 5.14695 13.1408 5.56117 13.1408H11.5612C11.9754 13.1408 12.3112 12.8051 12.3112 12.3908V11.8283C12.3112 10.5857 11.3038 9.57834 10.0612 9.57834H9.70651C9.57721 9.57834 9.45704 9.64495 9.38851 9.75459L8.56116 11.0783L7.73382 9.75459C7.66529 9.64495 7.54512 9.57834 7.41582 9.57834H7.06116Z" fill="url(#paint14_linear_3379_40257)"/>
</g>
<defs>
<filter id="filter0_d_3379_40257" x="4.31116" y="5.14014" width="9.5" height="9.50049" filterUnits="userSpaceOnUse" color-interpolation-filters="sRGB">
<feFlood flood-opacity="0" result="BackgroundImageFix"/>
<feColorMatrix in="SourceAlpha" type="matrix" values="0 0 0 0 0 0 0 0 0 0 0 0 0 0 0 0 0 0 127 0" result="hardAlpha"/>
<feOffset dx="0.5" dy="0.5"/>
<feGaussianBlur stdDeviation="0.5"/>
<feComposite in2="hardAlpha" operator="out"/>
<feColorMatrix type="matrix" values="0 0 0 0 0.28125 0 0 0 0 0.833333 0 0 0 0 0.800209 0 0 0 1 0"/>
<feBlend mode="normal" in2="BackgroundImageFix" result="effect1_dropShadow_3379_40257"/>
<feBlend mode="normal" in="SourceGraphic" in2="effect1_dropShadow_3379_40257" result="shape"/>
</filter>
<linearGradient id="paint0_linear_3379_40257" x1="14.5035" y1="6.50001" x2="59.2174" y2="10.6747" gradientUnits="userSpaceOnUse">
<stop stop-color="#D9FFE7"/>
<stop offset="1" stop-color="#DFFDFE"/>
</linearGradient>
<linearGradient id="paint1_linear_3379_40257" x1="13.4565" y1="6.5" x2="58.89" y2="14.1546" gradientUnits="userSpaceOnUse">
<stop stop-color="#82FFB5"/>
<stop offset="1" stop-color="#85F8FF"/>
</linearGradient>
<linearGradient id="paint2_linear_3379_40257" x1="6.06122" y1="2.39063" x2="10.0612" y2="16.3906" gradientUnits="userSpaceOnUse">
<stop stop-color="#56F3CC"/>
<stop offset="1" stop-color="#35D0C7"/>
</linearGradient>
<linearGradient id="paint3_linear_3379_40257" x1="5.06122" y1="0.890625" x2="11.0612" y2="17.8906" gradientUnits="userSpaceOnUse">
<stop stop-color="#C7FFF1"/>
<stop offset="1" stop-color="#8EEFE3"/>
</linearGradient>
<linearGradient id="paint4_linear_3379_40257" x1="6.2672" y1="3.27298" x2="9.32602" y2="15.8906" gradientUnits="userSpaceOnUse">
<stop stop-color="white" stop-opacity="0.49"/>
<stop offset="1" stop-color="white" stop-opacity="0"/>
</linearGradient>
<linearGradient id="paint5_linear_3379_40257" x1="6.2672" y1="3.27298" x2="9.32602" y2="15.8906" gradientUnits="userSpaceOnUse">
<stop stop-color="#B8EFFF"/>
<stop offset="1" stop-color="white" stop-opacity="0.85"/>
</linearGradient>
<linearGradient id="paint6_linear_3379_40257" x1="8.56123" y1="-0.108887" x2="8.56123" y2="9.39111" gradientUnits="userSpaceOnUse">
<stop stop-color="white" stop-opacity="0.69"/>
<stop offset="1" stop-color="white" stop-opacity="0"/>
</linearGradient>
<linearGradient id="paint7_linear_3379_40257" x1="8.56123" y1="18.8901" x2="8.56123" y2="9.39014" gradientUnits="userSpaceOnUse">
<stop stop-color="white" stop-opacity="0.69"/>
<stop offset="1" stop-color="white" stop-opacity="0"/>
</linearGradient>
<linearGradient id="paint8_linear_3379_40257" x1="18.0611" y1="9.39062" x2="8.56106" y2="9.39062" gradientUnits="userSpaceOnUse">
<stop stop-color="white" stop-opacity="0.69"/>
<stop offset="1" stop-color="white" stop-opacity="0"/>
</linearGradient>
<linearGradient id="paint9_linear_3379_40257" x1="-0.938408" y1="9.39062" x2="8.56159" y2="9.39063" gradientUnits="userSpaceOnUse">
<stop stop-color="white" stop-opacity="0.69"/>
<stop offset="1" stop-color="white" stop-opacity="0"/>
</linearGradient>
<linearGradient id="paint10_linear_3379_40257" x1="15.2788" y1="2.67296" x2="8.56131" y2="9.39048" gradientUnits="userSpaceOnUse">
<stop stop-color="white" stop-opacity="0.69"/>
<stop offset="1" stop-color="white" stop-opacity="0"/>
</linearGradient>
<linearGradient id="paint11_linear_3379_40257" x1="1.84376" y1="16.1081" x2="8.56128" y2="9.39058" gradientUnits="userSpaceOnUse">
<stop stop-color="white" stop-opacity="0.69"/>
<stop offset="1" stop-color="white" stop-opacity="0"/>
</linearGradient>
<linearGradient id="paint12_linear_3379_40257" x1="15.2789" y1="16.1081" x2="8.56137" y2="9.39058" gradientUnits="userSpaceOnUse">
<stop stop-color="white" stop-opacity="0.69"/>
<stop offset="1" stop-color="white" stop-opacity="0"/>
</linearGradient>
<linearGradient id="paint13_linear_3379_40257" x1="1.84383" y1="2.67296" x2="8.56134" y2="9.39048" gradientUnits="userSpaceOnUse">
<stop stop-color="white" stop-opacity="0.69"/>
<stop offset="1" stop-color="white" stop-opacity="0"/>
</linearGradient>
<linearGradient id="paint14_linear_3379_40257" x1="7.56117" y1="5.39011" x2="9.06143" y2="12.8908" gradientUnits="userSpaceOnUse">
<stop stop-color="white"/>
<stop offset="1" stop-color="#CBFCFF"/>
</linearGradient>
</defs>
</svg>
