<svg width="14" height="14" viewBox="0 0 14 14" fill="none" xmlns="http://www.w3.org/2000/svg" color="#262A33">
<path d="M7 13C10.0376 13 12.5 10.5376 12.5 7.5C12.5 4.46243 10.0376 2 7 2C3.96243 2 1.5 4.46243 1.5 7.5C1.5 10.5376 3.96243 13 7 13Z" stroke="currentColor" stroke-width="1.2"/>
<path d="M7 12.9492C10.0376 12.9492 12.5 10.4868 12.5 7.44922C12.5 4.41165 10.0376 1.94922 7 1.94922C3.96243 1.94922 1.5 4.41165 1.5 7.44922C1.5 10.4868 3.96243 12.9492 7 12.9492Z" stroke="currentColor" stroke-width="1.2"/>
<path d="M7.00021 4.3798C7.91976 4.3798 8.66521 3.63436 8.66521 2.7148C8.66521 1.79525 7.91976 1.0498 7.00021 1.0498C6.08065 1.0498 5.33521 1.79525 5.33521 2.7148C5.33521 3.63436 6.08065 4.3798 7.00021 4.3798Z" fill="#F9FAFB" stroke="currentColor" stroke-width="1.2"/>
<path d="M2.269 11.4491C3.18856 11.4491 3.934 10.7037 3.934 9.78414C3.934 8.86459 3.18856 8.11914 2.269 8.11914C1.34945 8.11914 0.604004 8.86459 0.604004 9.78414C0.604004 10.7037 1.34945 11.4491 2.269 11.4491Z" fill="#F9FAFB" stroke="currentColor" stroke-width="1.2"/>
<path d="M11.7348 11.4491C12.6544 11.4491 13.3998 10.7037 13.3998 9.78414C13.3998 8.86459 12.6544 8.11914 11.7348 8.11914C10.8153 8.11914 10.0698 8.86459 10.0698 9.78414C10.0698 10.7037 10.8153 11.4491 11.7348 11.4491Z" fill="#F9FAFB" stroke="currentColor" stroke-width="1.2"/>
</svg>
