<svg width="16" height="16" viewBox="0 0 16 16" fill="none" xmlns="http://www.w3.org/2000/svg">
<path fill-rule="evenodd" clip-rule="evenodd" d="M3 3.33337V10.6667H6.44444L6.44444 10.6667H9.55556L9.55557 10.6667H13V3.33337H3ZM2.8 11.6667H6.2111L5.9 13H4V14H6.5068H9.4932H12V13H10.1L9.7889 11.6667H13.2C13.6418 11.6667 14 11.3085 14 10.8667V3.13337C14 2.69155 13.6418 2.33337 13.2 2.33337H2.8C2.35817 2.33337 2 2.69155 2 3.13337V10.8667C2 11.3085 2.35817 11.6667 2.8 11.6667ZM9.07314 13L8.76204 11.6667H7.23796L6.92686 13H9.07314Z" fill="#7D8085"/>
</svg>
