<svg width="16" height="16" viewBox="0 0 16 16" fill="none" xmlns="http://www.w3.org/2000/svg">
<path d="M15 1H1V15H15V1Z" fill="white" fill-opacity="0.01"/>
<path d="M6.54167 6.83333C7.66925 6.83333 8.58333 5.91925 8.58333 4.79167C8.58333 3.66409 7.66925 2.75 6.54167 2.75C5.41408 2.75 4.5 3.66409 4.5 4.79167C4.5 5.91925 5.41408 6.83333 6.54167 6.83333Z" stroke="#6BA9FF" stroke-width="1.2" stroke-linecap="square" stroke-linejoin="round"/>
<path d="M10.5105 3.04224C11.1034 3.3995 11.4999 4.04957 11.4999 4.79224C11.4999 5.53491 11.1034 6.18497 10.5105 6.54224" stroke="#6BA9FF" stroke-width="1.2" stroke-linecap="square" stroke-linejoin="round"/>
<path d="M2.16724 12.9006V13.2506H10.9172V12.9006C10.9172 11.5938 10.9172 10.9404 10.6629 10.4413C10.4392 10.0022 10.0823 9.64525 9.64321 9.42154C9.14408 9.16724 8.49069 9.16724 7.1839 9.16724H5.90057C4.59379 9.16724 3.94039 9.16724 3.44126 9.42154C3.00221 9.64525 2.64526 10.0022 2.42156 10.4413C2.16724 10.9404 2.16724 11.5938 2.16724 12.9006Z" stroke="#6BA9FF" stroke-width="1.2" stroke-linecap="square" stroke-linejoin="round"/>
<path d="M13.8336 13.2492V12.8992C13.8336 11.5924 13.8336 10.939 13.5793 10.4399C13.3556 10.0008 12.9986 9.64387 12.5596 9.42017" stroke="#6BA9FF" stroke-width="1.2" stroke-linecap="square" stroke-linejoin="round"/>
</svg>
