<svg width="12" height="12" viewBox="0 0 12 12" fill="none" xmlns="http://www.w3.org/2000/svg">
<path fill-rule="evenodd" clip-rule="evenodd" d="M4.00004 0C4.18414 0 4.33337 0.149238 4.33337 0.333333V1H7.66671V0.333333C7.66671 0.149238 7.81595 0 8.00004 0H8.66671C8.8508 0 9.00004 0.149238 9.00004 0.333333V1H11C11.3682 1 11.6667 1.31506 11.6667 1.7037V10.963C11.6667 11.3516 11.3682 11.6667 11 11.6667H1.00004C0.631851 11.6667 0.333374 11.3516 0.333374 10.963V1.7037C0.333374 1.31506 0.631851 1 1.00004 1H2.99971L3.00004 0.333333C3.00004 0.149238 3.14928 0 3.33337 0H4.00004ZM10.3334 6H1.66669V10.3333H10.3334V6ZM2.99969 2.33333H1.66669V4.66666H10.3334V2.33333H9.00002V2.99999C9.00002 3.18409 8.85078 3.33333 8.66669 3.33333H8.00002C7.81593 3.33333 7.66669 3.18409 7.66669 2.99999V2.33333H4.33335V2.99999C4.33335 3.18409 4.18412 3.33333 4.00002 3.33333H3.33335C3.14926 3.33333 3.00002 3.18409 3.00002 2.99999L2.99969 2.33333Z" fill="#A8AAAD"/>
</svg>
