<svg width="32" height="32" viewBox="0 0 32 32" fill="none" xmlns="http://www.w3.org/2000/svg">
<rect width="32" height="32" rx="16" fill="#4C6AFF"/>
<g clip-path="url(#clip0_3273_136688)">
<path d="M10.0002 10.0016H22.0002C22.177 10.0016 22.3465 10.0718 22.4716 10.1968C22.5966 10.3219 22.6668 10.4914 22.6668 10.6683V21.3349C22.6668 21.5117 22.5966 21.6813 22.4716 21.8063C22.3465 21.9313 22.177 22.0016 22.0002 22.0016H10.0002C9.82335 22.0016 9.65378 21.9313 9.52876 21.8063C9.40373 21.6813 9.3335 21.5117 9.3335 21.3349V10.6683C9.3335 10.4914 9.40373 10.3219 9.52876 10.1968C9.65378 10.0718 9.82335 10.0016 10.0002 10.0016ZM16.0402 15.7903L11.7655 12.1603L10.9022 13.1763L16.0488 17.5463L21.1028 13.1729L20.2308 12.1643L16.0408 15.7903H16.0402Z" fill="white"/>
</g>
<defs>
<clipPath id="clip0_3273_136688">
<rect width="16" height="16" fill="white" transform="translate(8 8)"/>
</clipPath>
</defs>
</svg>
