<svg width="617" height="167" viewBox="0 0 617 167" fill="none" xmlns="http://www.w3.org/2000/svg">
<path d="M30.278 6.088L29.438 6.606C30.67 8.048 31.636 9.35 32.35 10.526L33.204 9.938C32.532 8.846 31.552 7.558 30.278 6.088ZM35.094 12.948C36.158 14.418 37.012 15.804 37.67 17.12L38.44 16.35C37.656 14.894 36.69 13.438 35.542 11.982C35.626 11.772 35.696 11.562 35.766 11.352C36.354 9.504 36.648 7.264 36.648 4.604H35.598C35.584 7.306 35.29 9.532 34.702 11.282C33.932 13.354 32.35 15.062 29.97 16.434L30.642 17.26C32.686 16.084 34.17 14.642 35.094 12.948ZM26.806 15.804C28.444 15.202 29.984 14.488 31.412 13.662L31.132 12.682C30.054 13.326 28.976 13.872 27.884 14.32V4.968H26.848V14.082C26.848 14.404 26.722 14.656 26.47 14.852L26.806 15.804ZM39.77 5.304V6.298H45.118V17.428H46.14V9.476C47.4 10.148 48.968 11.1 50.83 12.332L51.432 11.436C49.64 10.288 47.876 9.28 46.14 8.412V6.298H52.216V5.304H39.77ZM55.8 5.038V9.896H64.312V5.038H55.8ZM63.318 9.042H56.794V7.894H63.318V9.042ZM56.794 7.068V5.906H63.318V7.068H56.794ZM59.65 11.856V16.042C59.356 15.986 59.104 15.916 58.88 15.846C58.152 15.58 57.48 14.964 56.892 13.984C57.074 13.522 57.228 13.032 57.368 12.514L56.416 12.346C55.954 14.096 55.072 15.496 53.784 16.532L54.442 17.358C55.282 16.672 55.982 15.818 56.528 14.782C57.088 15.706 57.732 16.322 58.446 16.644C59.272 16.994 60.84 17.176 63.15 17.176C63.948 17.19 64.844 17.204 65.852 17.204L66.132 16.252C65.306 16.28 64.284 16.294 63.08 16.294C62.156 16.294 61.344 16.252 60.672 16.196V14.334H64.704V13.438H60.672V11.856H66.202V10.932H53.812V11.856H59.65ZM77.822 4.562V17.414H78.83V4.562H77.822ZM69.59 9.168H74.406V5.122H68.316V6.046H73.412V8.23H68.75L68.022 12.402H73.538C73.538 14.04 73.454 15.118 73.3 15.636C73.132 16.126 72.502 16.378 71.438 16.378C70.99 16.378 70.542 16.35 70.094 16.322L70.346 17.26C70.794 17.288 71.228 17.316 71.662 17.316C73.188 17.26 74.056 16.84 74.252 16.056C74.448 15.328 74.546 13.802 74.546 11.492H69.1L69.59 9.168ZM83.982 9.448H87.538V11.898H83.982V9.448ZM83.926 12.822H87.538V16.924H88.574V12.822H92.382V15.258C92.382 15.846 92.116 16.14 91.612 16.14C91.136 16.14 90.618 16.112 90.058 16.084L90.324 17.078H91.934C92.914 17.078 93.404 16.588 93.404 15.608V5.122H82.974V11.842C82.946 13.76 82.484 15.342 81.588 16.588L82.358 17.274C83.254 16.098 83.772 14.614 83.926 12.822ZM92.382 11.898H88.574V9.448H92.382V11.898ZM92.382 8.51H88.574V6.102H92.382V8.51ZM87.538 6.102V8.51H83.982V6.102H87.538ZM100.656 6.984H98.402C98.682 6.284 98.892 5.514 99.06 4.688L98.052 4.548C97.926 5.388 97.73 6.2 97.45 6.984H96.148V16.938H97.128V15.734H99.676V16.532H100.656V6.984ZM97.128 14.796V11.73H99.676V14.796H97.128ZM97.128 10.82V7.936H99.676V10.82H97.128ZM103.092 10.232L102.28 10.736C103.246 11.884 104.016 12.92 104.59 13.844L105.388 13.284C104.856 12.416 104.1 11.394 103.092 10.232ZM107.894 6.998H103.428C103.68 6.27 103.876 5.486 104.044 4.66L103.05 4.534C102.686 6.522 102.028 8.202 101.048 9.574L101.65 10.372C102.196 9.658 102.658 8.86 103.05 7.978H106.9C106.872 12.01 106.816 14.432 106.732 15.216C106.62 15.93 106.242 16.294 105.584 16.294C105.15 16.294 104.646 16.28 104.058 16.252L104.296 17.176C104.968 17.204 105.444 17.232 105.724 17.232C106.9 17.232 107.544 16.686 107.684 15.622C107.824 14.53 107.894 11.646 107.894 6.998ZM113.242 7.432V12.78H116.784V16.014C116.784 16.294 116.616 16.434 116.308 16.434C115.902 16.434 115.482 16.406 115.034 16.364L115.244 17.358H116.658C117.414 17.358 117.792 16.98 117.792 16.252V12.78H121.04V7.432H117.148C117.288 7.012 117.4 6.578 117.484 6.13H122.062V5.136H110.666V10.61C110.638 13.2 110.274 15.23 109.574 16.7L110.33 17.372C111.184 15.678 111.632 13.424 111.688 10.61V6.13H116.476C116.406 6.578 116.308 7.012 116.168 7.432H113.242ZM120.06 11.87H114.222V10.526H120.06V11.87ZM114.222 9.658V8.356H120.06V9.658H114.222ZM114.25 13.438C113.634 14.572 112.906 15.552 112.052 16.364L112.892 16.952C113.746 16.084 114.488 15.062 115.132 13.858L114.25 13.438ZM119.934 13.424L119.122 13.928C120.046 15.048 120.788 16.084 121.32 17.008L122.16 16.434C121.642 15.58 120.9 14.572 119.934 13.424ZM125.296 4.506C125.184 5.444 125.058 6.354 124.918 7.236H123.63V8.202H124.75C124.498 9.616 124.204 10.932 123.868 12.15C124.512 12.766 125.114 13.354 125.674 13.928C125.142 14.992 124.47 15.888 123.644 16.644L124.274 17.442C125.114 16.658 125.8 15.734 126.36 14.67C126.906 15.258 127.368 15.818 127.76 16.336L128.432 15.552C128.012 14.992 127.466 14.376 126.808 13.69C127.48 12.038 127.872 10.092 127.984 7.824V7.236H125.912C126.038 6.424 126.164 5.542 126.29 4.59L125.296 4.506ZM126.094 12.962C125.73 12.598 125.352 12.234 124.946 11.856C125.226 10.89 125.492 9.672 125.758 8.202H127.032C126.934 9.98 126.626 11.562 126.094 12.962ZM135.376 11.45H129.16V17.414H130.126V16.574H134.41V17.414H135.376V11.45ZM130.126 15.622V12.374H134.41V15.622H130.126ZM128.614 10.19C130.896 10.05 132.968 9.84 134.83 9.574C134.998 9.924 135.152 10.288 135.32 10.666L136.258 10.218C135.586 8.748 134.858 7.404 134.088 6.172L133.22 6.592C133.626 7.236 134.018 7.95 134.41 8.72C132.996 8.944 131.498 9.112 129.93 9.21C130.77 8.132 131.596 6.69 132.436 4.87L131.484 4.548C130.28 7.292 129.272 8.86 128.46 9.28L128.614 10.19ZM137.896 6.928V7.936H140.052C140.682 10.092 141.802 11.968 143.426 13.564C141.914 14.936 139.982 15.93 137.63 16.56L138.162 17.442C140.542 16.756 142.53 15.678 144.126 14.208C145.638 15.51 147.542 16.588 149.866 17.456L150.412 16.616C148.172 15.79 146.31 14.754 144.826 13.494C146.198 12.01 147.234 10.148 147.92 7.936H150.104V6.928H144.756C144.308 5.962 143.832 5.136 143.3 4.464L142.292 4.828C142.852 5.486 143.314 6.186 143.692 6.928H137.896ZM141.046 7.936H146.87C146.282 9.868 145.372 11.506 144.126 12.864C142.67 11.464 141.648 9.826 141.046 7.936ZM154.668 4.478C153.996 6.662 152.932 8.608 151.448 10.288L151.77 11.366C152.302 10.806 152.792 10.218 153.24 9.602V17.414H154.234V8.062C154.794 7.068 155.256 6.018 155.62 4.912L154.668 4.478ZM157.02 5.402C156.712 7.264 156.138 8.846 155.284 10.134L155.928 10.974C156.446 10.246 156.88 9.42 157.23 8.496H159.61V11.87H155.494V12.836H159.61V17.344H160.618V12.836H164.356V11.87H160.618V8.496H163.838V7.516H160.618V4.604H159.61V7.516H157.552C157.748 6.9 157.902 6.228 158.014 5.528L157.02 5.402ZM168.5 7.474C168.248 7.474 168.052 7.558 167.884 7.74C167.716 7.894 167.646 8.09 167.646 8.342C167.646 8.58 167.716 8.776 167.884 8.944C168.052 9.112 168.248 9.196 168.5 9.196C168.738 9.196 168.948 9.112 169.116 8.944C169.284 8.776 169.368 8.58 169.368 8.342C169.368 8.09 169.284 7.894 169.116 7.74C168.948 7.558 168.738 7.474 168.5 7.474ZM168.5 12.598C168.248 12.598 168.052 12.682 167.884 12.864C167.716 13.018 167.646 13.214 167.646 13.466C167.646 13.704 167.716 13.9 167.884 14.068C168.052 14.236 168.248 14.32 168.5 14.32C168.738 14.32 168.948 14.236 169.116 14.068C169.284 13.9 169.368 13.704 169.368 13.466C169.368 13.214 169.284 13.018 169.116 12.864C168.948 12.682 168.738 12.598 168.5 12.598Z" fill="#7D8085"/>
<rect y="4" width="2" height="330" fill="#E1E6ED"/>
<path d="M25 40.7C24.448 40.7 23.98 40.892 23.596 41.276C23.212 41.66 23.02 42.128 23.02 42.68C23.02 43.232 23.212 43.7 23.596 44.096C23.98 44.48 24.448 44.672 25 44.672C25.552 44.672 26.02 44.48 26.416 44.096C26.8 43.7 26.992 43.232 26.992 42.68C26.992 42.128 26.8 41.66 26.416 41.276C26.02 40.892 25.552 40.7 25 40.7ZM33.3881 40.88H36.3641C35.5241 43.556 34.2401 45.656 32.4881 47.192L32.9321 47.984C34.3001 46.868 35.4281 45.368 36.3041 43.472C36.7001 44.312 37.3601 45.092 38.2961 45.812C37.3961 46.4 36.2801 46.94 34.9361 47.432L35.3921 48.236C36.8441 47.672 38.0681 47.048 39.0521 46.352C40.0601 47.012 41.3321 47.624 42.8681 48.188L43.3121 47.384C41.9201 46.904 40.7321 46.376 39.7601 45.8C40.7441 44.96 41.3921 44.024 41.7161 42.992V42.248H36.8081C36.9761 41.816 37.1201 41.36 37.2641 40.88H43.1081V40.052H37.4921C37.7081 39.164 37.9001 38.228 38.0561 37.22L37.1801 37.112C37.0361 38.144 36.8441 39.116 36.6041 40.052H34.5041L35.1881 37.688L34.3361 37.544L33.3881 40.88ZM36.9521 43.04H40.8401C40.5041 43.856 39.8921 44.612 39.0041 45.308C38.0441 44.612 37.3601 43.856 36.9521 43.04ZM40.0721 37.208L39.4961 37.772C40.3961 38.492 41.1041 39.164 41.6081 39.8L42.2201 39.188C41.6441 38.528 40.9361 37.868 40.0721 37.208ZM47.1401 37.124C46.5641 38.996 45.6521 40.664 44.3801 42.104L44.6561 43.028C45.1121 42.548 45.5321 42.044 45.9161 41.516V48.212H46.7681V40.196C47.2481 39.344 47.6441 38.444 47.9561 37.496L47.1401 37.124ZM49.1561 37.916C48.8921 39.512 48.4001 40.868 47.6681 41.972L48.2201 42.692C48.6641 42.068 49.0361 41.36 49.3361 40.568H51.3761V43.46H47.8481V44.288H51.3761V48.152H52.2401V44.288H55.4441V43.46H52.2401V40.568H55.0001V39.728H52.2401V37.232H51.3761V39.728H49.6121C49.7801 39.2 49.9121 38.624 50.0081 38.024L49.1561 37.916ZM62.4281 37.22H61.5521C61.5521 37.676 61.5401 38.312 61.5281 39.128C61.4201 42.584 59.7161 45.332 56.4161 47.36L56.9441 48.128C59.6081 46.412 61.3121 44.252 62.0321 41.636C62.8841 44.348 64.5401 46.508 66.9881 48.116L67.5521 47.36C64.7561 45.644 63.0161 43.148 62.3441 39.884C62.3921 39.14 62.4281 38.252 62.4281 37.22ZM70.9961 39.692C70.7801 39.692 70.6121 39.764 70.4681 39.92C70.3241 40.052 70.2641 40.22 70.2641 40.436C70.2641 40.64 70.3241 40.808 70.4681 40.952C70.6121 41.096 70.7801 41.168 70.9961 41.168C71.2001 41.168 71.3801 41.096 71.5241 40.952C71.6681 40.808 71.7401 40.64 71.7401 40.436C71.7401 40.22 71.6681 40.052 71.5241 39.92C71.3801 39.764 71.2001 39.692 70.9961 39.692ZM70.9961 44.084C70.7801 44.084 70.6121 44.156 70.4681 44.312C70.3241 44.444 70.2641 44.612 70.2641 44.828C70.2641 45.032 70.3241 45.2 70.4681 45.344C70.6121 45.488 70.7801 45.56 70.9961 45.56C71.2001 45.56 71.3801 45.488 71.5241 45.344C71.6681 45.2 71.7401 45.032 71.7401 44.828C71.7401 44.612 71.6681 44.444 71.5241 44.312C71.3801 44.156 71.2001 44.084 70.9961 44.084ZM25 62.7C24.448 62.7 23.98 62.892 23.596 63.276C23.212 63.66 23.02 64.128 23.02 64.68C23.02 65.232 23.212 65.7 23.596 66.096C23.98 66.48 24.448 66.672 25 66.672C25.552 66.672 26.02 66.48 26.416 66.096C26.8 65.7 26.992 65.232 26.992 64.68C26.992 64.128 26.8 63.66 26.416 63.276C26.02 62.892 25.552 62.7 25 62.7ZM33.0761 67.824C33.9881 67.584 34.8761 67.32 35.7161 67.02V70.128H36.5681V59.256H35.7161V66.18C35.1161 66.408 34.5161 66.612 33.9161 66.78V60.228H33.0761V66.804C33.0761 66.924 32.9801 67.02 32.8121 67.092L33.0761 67.824ZM39.0161 61.872H41.4281C41.3561 63.528 40.9721 64.968 40.2521 66.192C39.5561 65.208 39.0041 64.128 38.5721 62.952C38.7281 62.616 38.8721 62.256 39.0161 61.872ZM38.0681 63.888C38.5001 64.992 39.0641 66.012 39.7361 66.972C38.9921 67.956 37.9841 68.76 36.7241 69.384L37.2161 70.164C38.4641 69.492 39.4841 68.664 40.2761 67.668C41.0321 68.604 41.9321 69.468 42.9761 70.248L43.5641 69.552C42.5081 68.784 41.5961 67.908 40.8041 66.924C41.6921 65.532 42.1721 63.84 42.2561 61.872H43.2881V61.02H39.2801C39.4241 60.492 39.5561 59.916 39.6761 59.304L38.8121 59.16C38.4641 61.272 37.7921 62.964 36.8081 64.212L37.3481 64.872C37.6001 64.572 37.8401 64.248 38.0681 63.888ZM47.1401 59.124C46.5641 60.996 45.6521 62.664 44.3801 64.104L44.6561 65.028C45.1121 64.548 45.5321 64.044 45.9161 63.516V70.212H46.7681V62.196C47.2481 61.344 47.6441 60.444 47.9561 59.496L47.1401 59.124ZM49.1561 59.916C48.8921 61.512 48.4001 62.868 47.6681 63.972L48.2201 64.692C48.6641 64.068 49.0361 63.36 49.3361 62.568H51.3761V65.46H47.8481V66.288H51.3761V70.152H52.2401V66.288H55.4441V65.46H52.2401V62.568H55.0001V61.728H52.2401V59.232H51.3761V61.728H49.6121C49.7801 61.2 49.9121 60.624 50.0081 60.024L49.1561 59.916ZM62.4281 59.22H61.5521C61.5521 59.676 61.5401 60.312 61.5281 61.128C61.4201 64.584 59.7161 67.332 56.4161 69.36L56.9441 70.128C59.6081 68.412 61.3121 66.252 62.0321 63.636C62.8841 66.348 64.5401 68.508 66.9881 70.116L67.5521 69.36C64.7561 67.644 63.0161 65.148 62.3441 61.884C62.3921 61.14 62.4281 60.252 62.4281 59.22ZM70.9961 61.692C70.7801 61.692 70.6121 61.764 70.4681 61.92C70.3241 62.052 70.2641 62.22 70.2641 62.436C70.2641 62.64 70.3241 62.808 70.4681 62.952C70.6121 63.096 70.7801 63.168 70.9961 63.168C71.2001 63.168 71.3801 63.096 71.5241 62.952C71.6681 62.808 71.7401 62.64 71.7401 62.436C71.7401 62.22 71.6681 62.052 71.5241 61.92C71.3801 61.764 71.2001 61.692 70.9961 61.692ZM70.9961 66.084C70.7801 66.084 70.6121 66.156 70.4681 66.312C70.3241 66.444 70.2641 66.612 70.2641 66.828C70.2641 67.032 70.3241 67.2 70.4681 67.344C70.6121 67.488 70.7801 67.56 70.9961 67.56C71.2001 67.56 71.3801 67.488 71.5241 67.344C71.6681 67.2 71.7401 67.032 71.7401 66.828C71.7401 66.612 71.6681 66.444 71.5241 66.312C71.3801 66.156 71.2001 66.084 70.9961 66.084ZM25 84.7C24.448 84.7 23.98 84.892 23.596 85.276C23.212 85.66 23.02 86.128 23.02 86.68C23.02 87.232 23.212 87.7 23.596 88.096C23.98 88.48 24.448 88.672 25 88.672C25.552 88.672 26.02 88.48 26.416 88.096C26.8 87.7 26.992 87.232 26.992 86.68C26.992 86.128 26.8 85.66 26.416 85.276C26.02 84.892 25.552 84.7 25 84.7ZM36.4361 82.096H32.9801V91.228H33.8201V90.136H35.5961V90.94H36.4361V82.096ZM33.8201 89.332V86.44H35.5961V89.332H33.8201ZM33.8201 85.636V82.888H35.5961V85.636H33.8201ZM38.1641 85.672L37.4561 86.116C38.1761 87.22 38.7401 88.228 39.1601 89.128L39.8801 88.624C39.4841 87.784 38.9081 86.8 38.1641 85.672ZM40.9001 92.08C41.6441 92.08 42.0161 91.696 42.0161 90.94V84.232H43.4921V83.404H42.0161V81.292H41.1401V83.404H36.9881V84.232H41.1401V90.724C41.1401 91.096 40.9601 91.288 40.6121 91.288C39.9761 91.288 39.3161 91.264 38.6201 91.24L38.8001 92.08H40.9001ZM47.6681 84.448V90.04H52.2281V84.448H47.6681ZM51.4241 89.272H48.4841V87.628H51.4241V89.272ZM48.4841 86.86V85.216H51.4241V86.86H48.4841ZM53.5721 92.104C54.3761 92.104 54.7841 91.672 54.7841 90.832V81.796H49.2881V82.6H53.9441V90.592C53.9441 91.072 53.7521 91.324 53.3921 91.324L52.3481 91.3L52.5641 92.104H53.5721ZM45.1841 83.188V92.212H46.0241V83.188H45.1841ZM46.9241 81.088L46.1321 81.436C46.6721 82.084 47.1641 82.828 47.6201 83.668L48.3881 83.26C47.9681 82.468 47.4761 81.748 46.9241 81.088ZM58.9961 83.692C58.7801 83.692 58.6121 83.764 58.4681 83.92C58.3241 84.052 58.2641 84.22 58.2641 84.436C58.2641 84.64 58.3241 84.808 58.4681 84.952C58.6121 85.096 58.7801 85.168 58.9961 85.168C59.2001 85.168 59.3801 85.096 59.5241 84.952C59.6681 84.808 59.7401 84.64 59.7401 84.436C59.7401 84.22 59.6681 84.052 59.5241 83.92C59.3801 83.764 59.2001 83.692 58.9961 83.692ZM58.9961 88.084C58.7801 88.084 58.6121 88.156 58.4681 88.312C58.3241 88.444 58.2641 88.612 58.2641 88.828C58.2641 89.032 58.3241 89.2 58.4681 89.344C58.6121 89.488 58.7801 89.56 58.9961 89.56C59.2001 89.56 59.3801 89.488 59.5241 89.344C59.6681 89.2 59.7401 89.032 59.7401 88.828C59.7401 88.612 59.6681 88.444 59.5241 88.312C59.3801 88.156 59.2001 88.084 58.9961 88.084ZM25 106.7C24.448 106.7 23.98 106.892 23.596 107.276C23.212 107.66 23.02 108.128 23.02 108.68C23.02 109.232 23.212 109.7 23.596 110.096C23.98 110.48 24.448 110.672 25 110.672C25.552 110.672 26.02 110.48 26.416 110.096C26.8 109.7 26.992 109.232 26.992 108.68C26.992 108.128 26.8 107.66 26.416 107.276C26.02 106.892 25.552 106.7 25 106.7ZM37.5641 106.088V108.92H33.6761V109.724H37.5641V112.94H32.6801V113.792H43.3241V112.94H38.4401V109.724H42.3281V108.92H38.4401V106.088H42.9041V105.236H37.9601L38.4281 105.056C38.2601 104.48 38.0321 103.856 37.7321 103.172L36.8921 103.4C37.1801 103.988 37.4321 104.6 37.6361 105.236H33.1001V106.088H37.5641ZM52.8161 113.192C50.3561 113.192 48.7841 113.084 48.0881 112.868C48.0401 112.844 47.9801 112.82 47.9081 112.796V111.488H49.5521V110.72H47.9081V109.448H49.8521V108.656H44.7641V109.448H47.1401V112.364C46.7681 112.088 46.4201 111.704 46.1081 111.212C46.1681 110.852 46.2041 110.48 46.2281 110.072L45.4601 109.976C45.4001 111.344 45.0521 112.568 44.4041 113.66L45.0281 114.212C45.4121 113.564 45.7121 112.856 45.9281 112.088C46.4201 112.784 46.9841 113.276 47.6201 113.54C48.3401 113.852 50.1281 114.008 53.0081 114.008H55.3721L55.5161 113.144C54.9161 113.168 54.0161 113.192 52.8161 113.192ZM45.3041 103.664V107.852H49.3961V103.664H45.3041ZM48.5561 107.132H46.1441V106.112H48.5561V107.132ZM46.1441 105.44V104.384H48.5561V105.44H46.1441ZM50.0201 103.676V104.468H52.2641C52.2281 104.792 52.1801 105.116 52.1081 105.428H50.3921V110.276H51.1601V106.172H54.0641V110.276H54.8681V105.428H52.8881C52.9601 105.116 53.0081 104.804 53.0441 104.468H55.2041V103.676H50.0201ZM53.4761 110.312L52.9001 110.864C53.6801 111.488 54.2921 112.088 54.7361 112.64L55.3481 112.04C54.8441 111.464 54.2201 110.888 53.4761 110.312ZM52.2161 106.736V108.428C52.1921 109.328 52.0121 110.06 51.7001 110.624C51.3521 111.164 50.7521 111.596 49.8881 111.908L50.3561 112.652C51.2681 112.292 51.9401 111.8 52.3481 111.164C52.7561 110.48 52.9841 109.568 53.0081 108.428V106.736H52.2161ZM58.9961 105.692C58.7801 105.692 58.6121 105.764 58.4681 105.92C58.3241 106.052 58.2641 106.22 58.2641 106.436C58.2641 106.64 58.3241 106.808 58.4681 106.952C58.6121 107.096 58.7801 107.168 58.9961 107.168C59.2001 107.168 59.3801 107.096 59.5241 106.952C59.6681 106.808 59.7401 106.64 59.7401 106.436C59.7401 106.22 59.6681 106.052 59.5241 105.92C59.3801 105.764 59.2001 105.692 58.9961 105.692ZM58.9961 110.084C58.7801 110.084 58.6121 110.156 58.4681 110.312C58.3241 110.444 58.2641 110.612 58.2641 110.828C58.2641 111.032 58.3241 111.2 58.4681 111.344C58.6121 111.488 58.7801 111.56 58.9961 111.56C59.2001 111.56 59.3801 111.488 59.5241 111.344C59.6681 111.2 59.7401 111.032 59.7401 110.828C59.7401 110.612 59.6681 110.444 59.5241 110.312C59.3801 110.156 59.2001 110.084 58.9961 110.084Z" fill="#7D8085"/>
<rect x="81" y="37" width="230" height="10" rx="1" fill="#F0F3F5"/>
<rect x="81" y="59" width="230" height="10" rx="1" fill="#F0F3F5"/>
<rect x="81" y="81" width="120" height="10" rx="1" fill="#F0F3F5"/>
<rect x="81" y="103" width="160" height="10" rx="1" fill="#F0F3F5"/>
<rect x="22" y="133" width="595" height="12" rx="1" fill="#F0F3F5"/>
<rect x="22" y="155" width="595" height="12" rx="1" fill="#F0F3F5"/>
</svg>
