<svg xmlns="http://www.w3.org/2000/svg" width="16" height="16" viewBox="0 0 16 16" fill="none">
  <path d="M2 2.5C2 2.22386 2.22386 2 2.5 2H7C7.27614 2 7.5 2.22386 7.5 2.5V4.5C7.5 4.77614 7.27614 5 7 5H2.5C2.22386 5 2 4.77614 2 4.5V2.5Z" fill="#66E0CC"/>
  <path d="M2 6.5C2 6.22386 2.22386 6 2.5 6H7C7.27614 6 7.5 6.22386 7.5 6.5V13.5C7.5 13.7761 7.27614 14 7 14H2.5C2.22386 14 2 13.7761 2 13.5V6.5Z" fill="#00CCAA"/>
  <path d="M8.5 11.5C8.5 11.2239 8.72386 11 9 11H13.5C13.7761 11 14 11.2239 14 11.5V13.5C14 13.7761 13.7761 14 13.5 14H9C8.72386 14 8.5 13.7761 8.5 13.5V11.5Z" fill="#66E0CC"/>
  <path d="M8.5 2.5C8.5 2.22386 8.72386 2 9 2H13.5C13.7761 2 14 2.22386 14 2.5V9.5C14 9.77614 13.7761 10 13.5 10H9C8.72386 10 8.5 9.77614 8.5 9.5V2.5Z" fill="#00CCAA"/>
</svg>