<svg width="496" height="370" viewBox="0 0 496 370" fill="none" xmlns="http://www.w3.org/2000/svg">
<rect width="496" height="370" fill="white"/>
<path d="M201.373 24.5609C160.191 59.4415 123.718 87.1858 93.4827 104.981C-50.893 189.953 78.9758 385.631 239.421 369.003C415.682 350.736 479.703 209.165 418.2 91.8301C357.829 -23.344 242.553 -10.3183 201.373 24.5609Z" fill="#F8FAFF"/>
<rect width="96" height="86" transform="translate(214.301 34.5376)" fill="#F8FAFF"/>
<path d="M283.99 71.9003C283.836 69.8944 283.462 69.7177 281.478 69.9017C279.282 70.1054 277.426 69.0366 276.669 67.1328C275.892 65.1855 276.454 63.1601 278.165 61.7352C279.319 60.775 279.46 60.0063 278.414 58.9134C276.84 57.2692 275.199 55.683 273.487 54.1852C272.159 53.0254 271.54 53.1849 270.417 54.6155C269.045 56.3622 266.849 56.9056 264.854 56C262.985 55.1501 262.107 53.564 262.251 51.2952C262.349 49.74 261.892 49.2012 260.341 49.1037C259.131 49.0254 257.92 48.9774 256.783 48.9182C255.589 49.065 254.476 49.1772 253.373 49.3396C251.829 49.565 251.496 50.02 251.631 51.599C251.836 53.9944 250.837 55.8102 248.846 56.6603C246.916 57.486 244.918 56.9371 243.401 55.1676C242.503 54.1199 241.72 53.9755 240.728 54.9268C239.06 56.516 237.422 58.1518 235.902 59.887C234.604 61.3671 234.748 61.8629 236.248 63.0945C237.674 64.2664 238.293 65.7819 237.896 67.6302C237.489 69.5089 236.302 70.7286 234.446 71.1867C233.763 71.3537 233.013 71.2627 232.297 71.2653C231.321 71.268 230.706 71.72 230.578 72.6769C230.225 75.3318 230.211 77.9857 230.692 80.6196C230.881 81.6597 231.442 82.056 232.495 81.9783C233.05 81.9374 233.612 81.7989 234.156 81.8456C236.1 82.0118 237.627 83.2834 238.152 85.0961C238.676 86.8987 238.054 88.7533 236.494 90.0283C235.209 91.0776 235.068 91.7959 236.184 92.9685C237.731 94.5929 239.335 96.1729 241.03 97.6406C242.473 98.8897 243.021 98.7346 244.225 97.1818C245.877 95.048 248.836 94.7267 250.861 96.4323C252.219 97.5783 252.583 99.0433 252.404 100.754C252.273 102.017 252.737 102.738 253.844 102.747C256.329 102.765 258.821 102.742 261.3 102.562C262.914 102.443 263.233 101.864 263.052 100.238C262.786 97.8805 263.778 96.0143 265.759 95.1476C267.76 94.2738 269.788 94.8224 271.271 96.6394C272.179 97.7508 272.976 97.9052 274.005 96.9096C275.71 95.2628 277.368 93.5561 278.932 91.7766C280.069 90.4836 279.908 89.7963 278.539 88.7816C277.395 87.9356 276.75 86.8005 276.669 85.3789C276.501 82.4718 278.872 80.2344 281.818 80.4884C283.321 80.6168 284.058 80.18 284.091 78.8678C284.148 76.5464 284.169 74.212 283.99 71.9003ZM257.284 87.5565C250.82 87.5705 245.635 82.3781 245.719 75.9765C245.803 69.6591 251.015 64.3978 257.244 64.3432C263.681 64.2859 268.991 69.5102 268.924 75.8443C268.86 82.2624 263.607 87.5443 257.284 87.5565Z" fill="#DADEF0"/>
<circle cx="284.594" cy="89.1855" r="16.8008" fill="#F8FAFF"/>
<path d="M298.999 87.0677C298.916 85.9881 298.715 85.8929 297.647 85.992C296.465 86.1016 295.466 85.5264 295.058 84.5016C294.64 83.4535 294.942 82.3634 295.864 81.5964C296.485 81.0796 296.561 80.6658 295.998 80.0776C295.151 79.1926 294.267 78.3389 293.346 77.5327C292.631 76.9084 292.298 76.9942 291.693 77.7643C290.955 78.7045 289.773 78.9969 288.699 78.5095C287.693 78.052 287.22 77.1983 287.298 75.9771C287.351 75.1401 287.104 74.85 286.27 74.7976C285.618 74.7554 284.967 74.7296 284.355 74.6978C283.712 74.7768 283.113 74.8371 282.519 74.9245C281.688 75.0458 281.509 75.2908 281.582 76.1407C281.692 77.43 281.154 78.4073 280.083 78.8649C279.044 79.3093 277.969 79.0138 277.152 78.0614C276.669 77.4975 276.247 77.4198 275.713 77.9318C274.815 78.7872 273.934 79.6677 273.115 80.6016C272.417 81.3983 272.495 81.6652 273.302 82.328C274.069 82.9588 274.403 83.7745 274.189 84.7694C273.97 85.7806 273.331 86.437 272.332 86.6837C271.964 86.7735 271.561 86.7245 271.175 86.726C270.65 86.7274 270.319 86.9707 270.25 87.4857C270.06 88.9147 270.053 90.3431 270.312 91.7608C270.413 92.3207 270.715 92.534 271.282 92.4922C271.58 92.4702 271.883 92.3956 272.176 92.4207C273.222 92.5102 274.044 93.1946 274.327 94.1703C274.609 95.1405 274.274 96.1388 273.434 96.825C272.743 97.3898 272.667 97.7764 273.268 98.4076C274.1 99.2819 274.964 100.132 275.876 100.922C276.653 101.595 276.948 101.511 277.596 100.675C278.484 99.5269 280.077 99.3539 281.167 100.272C281.898 100.889 282.094 101.677 281.998 102.598C281.927 103.278 282.177 103.666 282.773 103.671C284.11 103.68 285.452 103.668 286.786 103.571C287.655 103.507 287.827 103.195 287.729 102.32C287.586 101.051 288.12 100.047 289.186 99.5805C290.263 99.1102 291.355 99.4054 292.153 100.383C292.642 100.982 293.071 101.065 293.625 100.529C294.542 99.6425 295.435 98.7239 296.277 97.7661C296.888 97.0701 296.802 96.7002 296.065 96.154C295.449 95.6987 295.102 95.0877 295.058 94.3225C294.968 92.7578 296.244 91.5535 297.83 91.6903C298.639 91.7593 299.035 91.5242 299.053 90.818C299.084 89.5685 299.095 88.312 298.999 87.0677ZM284.625 95.4946C281.145 95.5021 278.354 92.7073 278.399 89.2617C278.445 85.8614 281.25 83.0296 284.603 83.0002C288.067 82.9693 290.926 85.7813 290.89 89.1906C290.855 92.6451 288.028 95.4881 284.625 95.4946Z" fill="#D3D9F3"/>
<path d="M355.249 81.986L322.203 109.346C321.293 110.1 320.766 111.221 320.766 112.403V155.784C320.766 157.976 322.543 159.753 324.735 159.753H393.797C395.989 159.753 397.766 157.976 397.766 155.784V112.501C397.766 111.263 397.188 110.096 396.203 109.345L360.186 81.8868C358.718 80.7672 356.671 80.8083 355.249 81.986Z" fill="#445FE5"/>
<rect x="327.117" y="84.7368" width="65.8866" height="61.1234" rx="3.17525" fill="white"/>
<rect x="335.054" y="115.697" width="42.0722" height="3.17524" fill="#DBE7FF"/>
<rect x="335.054" y="110.139" width="50.0103" height="3.17524" fill="#DBE7FF"/>
<rect x="335.054" y="104.583" width="42.0722" height="3.17524" fill="#DBE7FF"/>
<rect x="335.054" y="99.0259" width="50.0103" height="3.17524" fill="#DBE7FF"/>
<rect x="335.054" y="93.4697" width="24.6082" height="3.17524" fill="#DBE7FF"/>
<path d="M356.879 137.715L322.037 111.493C321.514 111.1 320.766 111.473 320.766 112.128V155.784C320.766 157.976 322.543 159.753 324.735 159.753H393.797C395.989 159.753 397.766 157.976 397.766 155.784V112.128C397.766 111.473 397.018 111.1 396.494 111.493L361.652 137.715C360.239 138.778 358.292 138.778 356.879 137.715Z" fill="#7090FF"/>
<mask id="mask0_6897_242644" style="mask-type:alpha" maskUnits="userSpaceOnUse" x="320" y="111" width="78" height="49">
<path d="M356.879 137.716L322.037 111.494C321.514 111.101 320.766 111.474 320.766 112.128V155.785C320.766 157.977 322.543 159.754 324.735 159.754H393.797C395.989 159.754 397.766 157.977 397.766 155.785V112.128C397.766 111.474 397.018 111.101 396.494 111.494L361.652 137.716C360.239 138.779 358.292 138.779 356.879 137.716Z" fill="#27DACC"/>
</mask>
<g mask="url(#mask0_6897_242644)">
<path opacity="0.4" d="M345.771 129.193L324.734 147.451" stroke="white" stroke-width="1.58763"/>
<path opacity="0.4" d="M372.363 129.193L393.399 147.451" stroke="white" stroke-width="1.58763"/>
</g>
<path d="M73.0868 229.404C65.6394 216.677 69.6393 213.398 73.8422 213.738C78.8464 214.143 78.8219 224.764 76.1138 230.722C80.6962 218.909 92.9336 226.872 78.1751 238.246C76.8752 238.661 78.8755 243.094 80.0382 245.258C80.112 241.84 81.5877 235.179 86.9002 235.888C93.5408 236.773 89.7225 246.144 83.9488 249.021C85.3655 250.851 87.638 255.539 88.5972 257.654C88.5972 253.522 90.132 245.568 96.2709 246.808C103.133 249.021 94.6476 259.13 91.6962 260.237L94.5738 267.099C94.9182 265.131 96.2709 260.901 98.9272 259.72C102.247 258.245 109.331 264.516 97.7466 273.075C100.167 277.975 100.723 284.512 100.698 287.168H114.274C114.963 284.414 116.281 278.063 116.045 274.699C106.896 274.699 105.42 270.345 107.117 267.099C108.814 263.852 115.16 266.73 116.045 271.083C116.045 265.18 115.652 261.048 115.455 259.72C112.135 260.114 105.42 259.661 105.125 254.703C104.756 248.505 114.274 250.423 115.455 256.621C114.806 249.361 114.397 246.464 114.274 245.923C110.364 246.068 103.133 244.736 105.494 238.246C107.117 234.043 113.832 238.323 114.939 241.791C115.352 239.784 116.291 238.003 116.709 237.363C114.274 231.03 116.344 223.468 122.295 225.266C127.065 226.707 124.421 235.888 119.439 237.363C119.144 237.363 117.373 240.462 116.709 243.192C118.775 240.462 124.604 236.773 127.334 241.348C130.064 245.923 122.391 247.988 116.045 247.398C116.045 248.107 116.488 252.957 116.709 255.293C119.12 253.129 123.786 250.208 126.301 253.227C129.514 257.082 125.637 260.237 118.185 260.237C118.185 262.48 118.185 268.402 118.185 271.083C118.898 269.091 122.42 267.099 124.421 267.099C129.493 267.099 129.196 274.256 118.542 274.699C118.542 280.487 117.462 285.516 116.045 287.168H122.612L119.735 330.48H96.1233L93.9098 287.168H98.4107C98.1155 283.873 97.112 276.661 95.4593 274.182C88.5972 279.052 81.8828 279.568 81.2925 273.075C80.7022 266.582 91.6962 268.353 93.9098 270.714C92.4931 266.464 89.7778 262.745 88.5972 261.417C84.5637 263.754 76.2751 266.789 75.3897 260.237C74.5043 253.685 82.6944 255.441 86.9002 257.138C85.4491 255.17 82.296 250.969 81.2925 249.907C76.5503 253.227 67.3472 254.777 67.1996 248.062C67.0815 242.691 74.4674 243.955 78.1751 245.258C77.2705 243.881 75.3435 240.374 74.8713 237.363C70.6655 240.389 62.5628 242.773 61.8851 235.888C61.3172 230.119 71.8958 229.98 74.8713 234.264C74.7278 234.072 74.4321 232.137 73.0868 229.404Z" stroke="#889ADD" stroke-linejoin="round"/>
<path d="M117.127 330.334L120.104 287.145H122.808L119.472 330.334H117.127Z" fill="#576DBC"/>
<rect x="42.9746" y="329.98" width="382.547" height="12.1133" fill="#F8FAFF" stroke="#6575B1"/>
<rect x="42.9746" y="339.123" width="382.547" height="2.9707" fill="#6474B0" stroke="#6575B1"/>
<path d="M262.696 289.539L255.986 318.813C255.268 321.945 257.647 324.93 260.86 324.93H261.502" stroke="#6575B1" stroke-width="2"/>
<path d="M197.645 316.927L202.639 289.404H208.404L203.854 316.211C203.129 320.484 206.421 324.382 210.755 324.382H269.529C271.05 324.382 272.283 325.615 272.283 327.136C272.283 328.658 271.05 329.891 269.529 329.891H208.468C201.607 329.891 196.42 323.678 197.645 316.927Z" fill="white" stroke="#6575B1"/>
<path d="M208.748 290.051L261.583 290.055L259.386 299.608H207.197L208.748 290.051Z" fill="#DBE7FF"/>
<path d="M127.643 137.146H349.137C351.07 137.146 352.637 138.713 352.637 140.646V286.002C352.637 287.935 351.07 289.502 349.137 289.502H127.643C125.71 289.502 124.143 287.935 124.143 286.002V140.646C124.143 138.713 125.71 137.146 127.643 137.146Z" fill="white" stroke="#6575B1"/>
<path d="M127.643 137.146H349.137C351.07 137.146 352.637 138.713 352.637 140.646V267.48C352.637 269.413 351.07 270.98 349.137 270.98H127.643C125.71 270.98 124.143 269.413 124.143 267.48V140.646C124.143 138.713 125.71 137.146 127.643 137.146Z" fill="white" stroke="#6575B1"/>
<path d="M183.234 169.649C172.167 168.727 157.507 188.025 152.255 195.453L148.168 203.536H244.23H257C257 203.536 256.5 189.912 248 184.912C239.5 179.912 223.601 188.663 214.763 187.51C205.925 186.357 197.068 170.802 183.234 169.649Z" fill="url(#paint0_linear_6897_242644)"/>
<path d="M148.168 203.536L152.255 195.453C157.507 188.025 172.167 168.727 183.234 169.649C197.068 170.802 205.925 186.357 214.763 187.51C223.601 188.663 237 180.412 244.23 182.32C251.5 185.412 255.833 197.245 257.5 204.412" stroke="#27DACC" stroke-width="2" stroke-linecap="round" stroke-linejoin="round"/>
<circle cx="241.082" cy="181.615" r="5" fill="white" stroke="#27DACC" stroke-width="3" stroke-linecap="round" stroke-linejoin="round"/>
<circle cx="183.254" cy="169.617" r="5" fill="white" stroke="#27DACC" stroke-width="3" stroke-linecap="round" stroke-linejoin="round"/>
<circle cx="152.254" cy="194.348" r="5" fill="white" stroke="url(#paint1_linear_6897_242644)" stroke-width="3" stroke-linecap="round" stroke-linejoin="round"/>
<path d="M123.643 140.646C123.643 138.437 125.433 136.646 127.643 136.646H349.137C351.346 136.646 353.137 138.437 353.137 140.646V148.725H123.643V140.646Z" fill="#576DBC"/>
<ellipse cx="343.243" cy="142.686" rx="2.04199" ry="2.09375" fill="#FAFAFA"/>
<ellipse cx="335.751" cy="142.686" rx="2.04199" ry="2.09375" fill="#FAFAFA"/>
<ellipse cx="328.259" cy="142.686" rx="2.04199" ry="2.09375" fill="#FAFAFA"/>
<rect x="231.857" y="276.885" width="13.0645" height="6.00391" rx="3.00195" fill="#363B54"/>
<rect x="146.301" y="216.48" width="69" height="7.90039" rx="3.9502" fill="#DBE7FF"/>
<rect x="146.301" y="235.25" width="180" height="7.90039" rx="3.9502" fill="#DBE7FF"/>
<path d="M244.922 255.48L194.588 255.48H180.754M147.254 255.48H153.171H156.129M170.921 255.48H165.004H162.046" stroke="#6474B0" stroke-linecap="round" stroke-linejoin="round"/>
<rect x="92" y="106.705" width="60.8516" height="60.8516" rx="5" fill="#FFCB82"/>
<path d="M128.95 125.45C128.658 125.159 128.658 124.721 128.95 124.43L132.048 121.332C132.339 121.04 132.777 121.04 133.068 121.332L138.207 126.471C138.499 126.762 138.499 127.2 138.207 127.491L135.109 130.589C134.818 130.881 134.38 130.881 134.089 130.589L128.95 125.45ZM115.173 150.598L132.121 133.651C132.376 133.396 132.339 132.958 132.048 132.703L126.909 127.528C126.617 127.236 126.18 127.2 125.961 127.455L108.977 144.403L106.426 153.15L115.173 150.598Z" fill="white"/>
<path d="M195.293 118.873L305.161 118.873" stroke="#576DBC" stroke-dasharray="4 4"/>
<g filter="url(#filter0_d_6897_242644)">
<rect x="92" y="68.7051" width="117" height="30" rx="15" fill="white"/>
</g>
<path d="M128.624 86.3611C127.772 86.7931 126.776 87.1291 125.648 87.3811L125.756 88.2211C126.824 87.9571 127.784 87.5971 128.624 87.1531V86.3611ZM127.4 77.8771C126.968 79.2691 126.44 80.4931 125.84 81.5731C125.744 81.7291 125.624 81.8371 125.492 81.8851L125.708 82.6651C126.344 82.5691 126.98 82.4611 127.616 82.3291C127.004 83.4331 126.488 84.2131 126.056 84.6691C125.948 84.7651 125.816 84.8491 125.66 84.9091L125.9 85.6891C126.884 85.5451 127.904 85.2931 128.984 84.9331V84.1651C128.288 84.4051 127.604 84.6091 126.908 84.7531C127.556 83.9371 128.396 82.5571 129.404 80.6131L128.648 80.3371C128.432 80.7691 128.216 81.1771 128.024 81.5611C127.52 81.6691 127.004 81.7531 126.488 81.8251C127.064 80.9251 127.64 79.7131 128.204 78.1891L127.4 77.8771ZM135.248 88.8691C135.788 88.8691 136.064 88.5811 136.064 88.0291V83.2051H130.58V88.9171H131.288V86.2411H132.236V88.7011H132.872V86.2411H133.748V88.7011H134.384V86.2411H135.344V87.8611C135.344 88.1011 135.236 88.2211 135.02 88.2211L134.54 88.1971L134.732 88.8691H135.248ZM131.288 85.5211V83.9491H132.236V85.5211H131.288ZM132.872 83.9491H133.748V85.5211H132.872V83.9491ZM134.384 83.9491H135.344V85.5211H134.384V83.9491ZM135.224 79.8811V81.4171H130.544V79.8811H135.224ZM130.544 82.1611H136.016V79.1131H133.316C133.172 78.6331 133.016 78.2131 132.86 77.8411L131.96 77.9851C132.152 78.3211 132.32 78.7051 132.476 79.1131H129.74V82.0291C129.728 84.6091 129.248 86.7091 128.288 88.3411L128.912 88.8931C129.968 87.0211 130.508 84.7771 130.544 82.1611ZM139.88 81.2251V83.0131H138.632C138.932 82.2571 139.22 81.3811 139.484 80.3971H142.208V79.5811H139.688C139.796 79.0771 139.904 78.5611 140.012 78.0091L139.196 77.8891C139.076 78.4891 138.968 79.0531 138.848 79.5811H137.612V80.3971H138.656C138.368 81.4651 138.068 82.3531 137.756 83.0491L137.948 83.7931H139.88V85.6051C139.148 85.7251 138.368 85.8451 137.54 85.9411L137.648 86.7691C138.416 86.6731 139.16 86.5531 139.88 86.4331V88.9171H140.72V86.2651C141.248 86.1571 141.752 86.0371 142.232 85.9171V85.1251C141.764 85.2331 141.26 85.3411 140.72 85.4491V83.7931H142.052V83.0131H140.72V81.2251H139.88ZM143 78.3571V80.8651H147.752V78.3571H143ZM146.924 80.2051H143.828V79.0531H146.924V80.2051ZM143.096 82.3651V87.1771L141.944 87.2731L142.052 88.0411C143.732 87.8971 145.28 87.7291 146.72 87.5131V88.9291H147.548V87.3931L148.556 87.2131V86.4691C148.232 86.5171 147.896 86.5771 147.548 86.6371V82.3651H148.436V81.5971H142.232V82.3651H143.096ZM146.72 82.3651V83.4211H143.912V82.3651H146.72ZM143.912 87.0931V85.8811H146.72V86.7571C145.844 86.8771 144.908 86.9851 143.912 87.0931ZM143.912 85.1731V84.1291H146.72V85.1731H143.912ZM155.228 79.5931H153.008V77.8531H152.168V79.5931H149.948V88.3771H150.764V87.6211H154.412V88.3771H155.228V79.5931ZM150.764 86.8411V83.9011H152.168V86.8411H150.764ZM153.008 86.8411V83.9011H154.412V86.8411H153.008ZM150.764 83.1331V80.3851H152.168V83.1331H150.764ZM153.008 80.3851H154.412V83.1331H153.008V80.3851ZM156.236 78.5491V88.9171H157.064V79.3291H159.188C158.816 80.6131 158.432 81.7291 158.048 82.6771C158.912 83.9011 159.356 84.8851 159.368 85.6291C159.356 85.9651 159.296 86.1811 159.188 86.3011C159.068 86.4211 158.804 86.4811 158.396 86.5051C158.18 86.5051 157.916 86.4811 157.604 86.4451L157.856 87.3211C158.792 87.3211 159.416 87.1891 159.728 86.9371C160.016 86.6851 160.172 86.2531 160.172 85.6291C160.16 84.8611 159.74 83.8771 158.912 82.6771C159.332 81.6091 159.716 80.4451 160.076 79.1851V78.5491H156.236ZM164.144 77.8291C163.568 79.7011 162.656 81.3691 161.384 82.8091L161.66 83.7331C162.116 83.2531 162.536 82.7491 162.92 82.2211V88.9171H163.772V80.9011C164.252 80.0491 164.648 79.1491 164.96 78.2011L164.144 77.8291ZM166.16 78.6211C165.896 80.2171 165.404 81.5731 164.672 82.6771L165.224 83.3971C165.668 82.7731 166.04 82.0651 166.34 81.2731H168.38V84.1651H164.852V84.9931H168.38V88.8571H169.244V84.9931H172.448V84.1651H169.244V81.2731H172.004V80.4331H169.244V77.9371H168.38V80.4331H166.616C166.784 79.9051 166.916 79.3291 167.012 78.7291L166.16 78.6211ZM178.964 82.8211C180.092 83.9731 181.016 85.0651 181.712 86.0971L182.36 85.4371C181.508 84.2971 180.464 83.1331 179.216 81.9571C179.312 81.5611 179.384 81.1291 179.444 80.6731H182.876V87.3691C182.876 87.7531 182.684 87.9571 182.3 87.9571L180.464 87.9091L180.704 88.7731H182.588C183.356 88.7731 183.752 88.3651 183.752 87.5611V79.8331H179.54C179.588 79.2331 179.624 78.5731 179.624 77.8651H178.748C178.748 78.5611 178.712 79.2211 178.652 79.8331H174.26V88.8931H175.136V80.6731H178.556C178.472 81.2251 178.364 81.7291 178.232 82.1971C177.8 83.5291 176.912 84.6331 175.568 85.5211L176.144 86.2291C177.536 85.3171 178.472 84.1891 178.964 82.8211ZM191.144 77.8411L190.22 77.9971C190.364 78.2731 190.508 78.5731 190.652 78.9091H186.092V81.1051H186.932V79.7131H195.068V81.0451H195.908V78.9091H191.552C191.42 78.5131 191.288 78.1531 191.144 77.8411ZM190.688 81.6811C189.488 83.0011 187.796 84.0571 185.6 84.8731L186.056 85.5811C186.56 85.3891 187.052 85.1851 187.544 84.9451V88.9171H188.384V88.4131H193.748V88.9171H194.576V84.9931C194.984 85.1851 195.428 85.3771 195.908 85.5691L196.376 84.8611C194 83.9491 192.32 82.8931 191.348 81.6811H190.688ZM188.384 87.6211V85.7011H193.748V87.6211H188.384ZM187.568 84.9331C188.9 84.2731 190.052 83.4451 191.012 82.4371C191.828 83.3731 192.98 84.2131 194.444 84.9331H187.568ZM192.404 80.2171L191.852 80.7571C193.376 81.5611 194.576 82.3171 195.452 83.0371L196.052 82.4491C195.068 81.7051 193.844 80.9611 192.404 80.2171ZM189.56 80.2051C188.552 81.0451 187.328 81.7651 185.864 82.3891L186.38 83.0611C187.868 82.3891 189.116 81.6091 190.136 80.7211L189.56 80.2051Z" fill="#272E47"/>
<circle cx="107" cy="83.7051" r="12" fill="#7088FF"/>
<path d="M110.227 87.2324H106.068L109.467 82.9903C109.964 82.3823 110.255 81.6499 110.268 80.8899V80.7932C110.241 79.9226 109.895 79.1212 109.287 78.5132C108.665 77.8914 107.85 77.5597 106.993 77.5459C106.095 77.5321 105.252 77.8637 104.617 78.4994C103.981 79.1212 103.622 79.9641 103.622 80.8623H105.432C105.432 80.4477 105.584 80.0746 105.874 79.7844C106.164 79.4943 106.551 79.3423 106.966 79.3423C107.781 79.3561 108.444 80.0194 108.458 80.8346V80.8761C108.458 81.2077 108.334 81.5394 108.099 81.8157L103.663 87.2324V89.0288H110.227V87.2324Z" fill="white"/>
<g filter="url(#filter1_d_6897_242644)">
<rect x="316.711" y="43.4844" width="161.957" height="30" rx="15" fill="white"/>
</g>
<path d="M351.643 52.9084L351.043 53.4724C351.859 54.1084 352.495 54.7084 352.963 55.2844L353.551 54.6844C353.035 54.0964 352.399 53.5084 351.643 52.9084ZM350.251 56.3764V57.2044H351.919V61.9564C351.919 62.1484 351.823 62.3284 351.655 62.4964L351.991 63.2644C352.831 62.7124 353.635 62.0884 354.391 61.3804L354.151 60.4684C353.659 60.9364 353.191 61.3444 352.759 61.7044V56.3764H350.251ZM354.511 57.7804V58.6204H355.171C355.507 59.6644 356.119 60.6004 357.031 61.4404C356.131 62.0764 355.015 62.5924 353.683 62.9884L354.163 63.7204C355.567 63.2884 356.755 62.7244 357.715 62.0044C358.555 62.6524 359.611 63.2164 360.859 63.7204L361.327 62.9764C360.151 62.5444 359.155 62.0524 358.339 61.4884C359.215 60.6724 359.839 59.7004 360.223 58.5724V57.7804H354.511ZM355.987 58.6204H359.371C358.987 59.5084 358.411 60.2764 357.643 60.9484C356.851 60.2644 356.299 59.4844 355.987 58.6204ZM355.435 53.1484V54.4804C355.435 55.4284 354.907 56.1604 353.863 56.6764L354.439 57.3364C355.663 56.6404 356.287 55.6564 356.287 54.3844V53.9644H358.615V55.9204C358.615 56.6284 358.975 56.9884 359.719 56.9884H361.039V56.1964H359.935C359.623 56.1964 359.467 56.0404 359.467 55.7404V53.1484H355.435ZM362.563 56.0764V56.7364H367.135C367.087 56.9644 367.051 57.1924 367.003 57.4204H364.087V62.7124H362.347V63.4084H373.087V62.7124H371.347V57.4204H367.867C367.915 57.2044 367.951 56.9764 367.999 56.7364H372.871V56.0764H368.095L368.167 55.3804H372.055V53.1364H363.367V55.3804H367.303L367.231 56.0764H362.563ZM364.927 62.7124V61.9204H370.495V62.7124H364.927ZM364.927 61.3804V60.6244H370.495V61.3804H364.927ZM364.927 60.0724V59.3164H370.495V60.0724H364.927ZM364.927 58.7764V58.0204H370.495V58.7764H364.927ZM371.239 54.7684H369.451V53.7724H371.239V54.7684ZM368.659 54.7684H366.763V53.7724H368.659V54.7684ZM365.983 54.7684H364.195V53.7724H365.983V54.7684ZM374.791 61.3084C375.703 61.0684 376.591 60.8044 377.431 60.5044V63.6124H378.283V52.7404H377.431V59.6644C376.831 59.8924 376.231 60.0964 375.631 60.2644V53.7124H374.791V60.2884C374.791 60.4084 374.695 60.5044 374.527 60.5764L374.791 61.3084ZM380.731 55.3564H383.143C383.071 57.0124 382.687 58.4524 381.967 59.6764C381.271 58.6924 380.719 57.6124 380.287 56.4364C380.443 56.1004 380.587 55.7404 380.731 55.3564ZM379.783 57.3724C380.215 58.4764 380.779 59.4964 381.451 60.4564C380.707 61.4404 379.699 62.2444 378.439 62.8684L378.931 63.6484C380.179 62.9764 381.199 62.1484 381.991 61.1524C382.747 62.0884 383.647 62.9524 384.691 63.7324L385.279 63.0364C384.223 62.2684 383.311 61.3924 382.519 60.4084C383.407 59.0164 383.887 57.3244 383.971 55.3564H385.003V54.5044H380.995C381.139 53.9764 381.271 53.4004 381.391 52.7884L380.527 52.6444C380.179 54.7564 379.507 56.4484 378.523 57.6964L379.063 58.3564C379.315 58.0564 379.555 57.7324 379.783 57.3724ZM388.855 52.6084C388.279 54.4804 387.367 56.1484 386.095 57.5884L386.371 58.5124C386.827 58.0324 387.247 57.5284 387.631 57.0004V63.6964H388.483V55.6804C388.963 54.8284 389.359 53.9284 389.671 52.9804L388.855 52.6084ZM390.871 53.4004C390.607 54.9964 390.115 56.3524 389.383 57.4564L389.935 58.1764C390.379 57.5524 390.751 56.8444 391.051 56.0524H393.091V58.9444H389.563V59.7724H393.091V63.6364H393.955V59.7724H397.159V58.9444H393.955V56.0524H396.715V55.2124H393.955V52.7164H393.091V55.2124H391.327C391.495 54.6844 391.627 54.1084 391.723 53.5084L390.871 53.4004ZM404.143 52.7044H403.267C403.267 53.1604 403.255 53.7964 403.243 54.6124C403.135 58.0684 401.431 60.8164 398.131 62.8444L398.659 63.6124C401.323 61.8964 403.027 59.7364 403.747 57.1204C404.599 59.8324 406.255 61.9924 408.703 63.6004L409.267 62.8444C406.471 61.1284 404.731 58.6324 404.059 55.3684C404.107 54.6244 404.143 53.7364 404.143 52.7044ZM413.275 54.0604V55.1644C413.239 58.7884 412.231 61.4164 410.239 63.0604L410.899 63.6484C412.555 62.2564 413.587 60.2164 413.983 57.5524C414.523 58.8724 415.351 60.0484 416.467 61.1044C415.483 61.8364 414.247 62.4484 412.759 62.9524L413.263 63.7564C414.811 63.2284 416.119 62.5564 417.175 61.7164C418.087 62.4604 419.191 63.1204 420.487 63.7084L421.051 62.9404C419.827 62.4124 418.759 61.8004 417.847 61.1284C419.011 60.0004 419.767 58.6084 420.115 56.9764V56.4724H417.691C417.907 55.7164 418.135 54.8164 418.363 53.7724V53.2084H411.211V54.0604H413.275ZM417.127 60.5524C415.567 59.2084 414.583 57.6004 414.151 55.7284C414.151 55.5364 414.163 55.3564 414.163 55.1644V54.0604H417.415C417.127 55.4764 416.851 56.5324 416.611 57.2524H419.215C418.855 58.5004 418.159 59.6044 417.127 60.5524ZM423.103 56.3644H426.079C425.239 59.0404 423.955 61.1404 422.203 62.6764L422.647 63.4684C424.015 62.3524 425.143 60.8524 426.019 58.9564C426.415 59.7964 427.075 60.5764 428.011 61.2964C427.111 61.8844 425.995 62.4244 424.651 62.9164L425.107 63.7204C426.559 63.1564 427.783 62.5324 428.767 61.8364C429.775 62.4964 431.047 63.1084 432.583 63.6724L433.027 62.8684C431.635 62.3884 430.447 61.8604 429.475 61.2844C430.459 60.4444 431.107 59.5084 431.431 58.4764V57.7324H426.523C426.691 57.3004 426.835 56.8444 426.979 56.3644H432.823V55.5364H427.207C427.423 54.6484 427.615 53.7124 427.771 52.7044L426.895 52.5964C426.751 53.6284 426.559 54.6004 426.319 55.5364H424.219L424.903 53.1724L424.051 53.0284L423.103 56.3644ZM426.667 58.5244H430.555C430.219 59.3404 429.607 60.0964 428.719 60.7924C427.759 60.0964 427.075 59.3404 426.667 58.5244ZM429.787 52.6924L429.211 53.2564C430.111 53.9764 430.819 54.6484 431.323 55.2844L431.935 54.6724C431.359 54.0124 430.651 53.3524 429.787 52.6924ZM435.223 52.8724L434.635 53.4364C435.511 54.1204 436.195 54.7564 436.687 55.3444L437.311 54.7324C436.747 54.1084 436.051 53.4964 435.223 52.8724ZM442.243 63.4684H444.967L445.171 62.6044C444.859 62.6284 444.415 62.6404 443.839 62.6524C443.251 62.6644 442.675 62.6764 442.123 62.6764C441.175 62.6764 440.383 62.6644 439.747 62.6524C439.027 62.6284 438.487 62.5324 438.103 62.3644C437.767 62.2084 437.455 61.9564 437.167 61.6084C437.059 61.4884 436.963 61.4044 436.867 61.3324V56.8444H434.359V57.6364H436.063V61.2844C435.571 61.5004 435.007 62.1124 434.371 63.1204L435.019 63.6964C435.679 62.5924 436.159 62.0524 436.447 62.0524C436.591 62.0524 436.747 62.1484 436.915 62.3524C437.287 62.7844 437.719 63.0844 438.199 63.2284C438.679 63.3604 439.315 63.4324 440.095 63.4444C440.863 63.4564 441.583 63.4684 442.243 63.4684ZM437.983 57.4084V58.2244H440.695C440.335 59.4244 439.387 60.3844 437.875 61.1284L438.427 61.8244C440.203 60.8764 441.259 59.6764 441.595 58.2244H444.859V57.4084H441.751C441.823 56.9044 441.859 56.3044 441.883 55.6324H444.451V54.8404H442.891C443.227 54.2764 443.527 53.6284 443.791 52.8964L442.975 52.6084C442.711 53.4004 442.387 54.1444 442.015 54.8404H438.391V55.6324H441.031C441.007 56.3044 440.959 56.8924 440.887 57.4084H437.983ZM439.627 52.7044L438.847 53.0764C439.267 53.5804 439.663 54.1684 440.023 54.8164L440.755 54.4564C440.395 53.8204 440.023 53.2324 439.627 52.7044ZM442.147 58.9324L441.631 59.5084C442.543 60.1804 443.407 60.9604 444.247 61.8484L444.847 61.2004C444.043 60.3844 443.143 59.6284 442.147 58.9324ZM446.443 56.2564V57.0484H451.267V57.9844H447.535V61.1404H448.387V58.7404H451.267V59.7844C449.947 61.0684 448.339 62.0524 446.455 62.7484L446.959 63.5044C448.567 62.8324 450.007 61.8964 451.267 60.6844V63.7204H452.155V60.6364C453.451 61.8244 454.999 62.7604 456.799 63.4444L457.255 62.6644C455.167 61.9684 453.463 61.0204 452.155 59.7964V58.7404H455.227V60.0604C455.227 60.3004 455.107 60.4324 454.879 60.4324L454.099 60.3964L454.315 61.1644H455.131C455.767 61.1644 456.091 60.8524 456.091 60.2404V57.9844H452.155V57.0484H456.979V56.2564H452.155V55.4284H451.267V56.2564H446.443ZM447.991 54.4324H448.579C448.915 54.9124 449.203 55.4044 449.443 55.9324L450.223 55.6444C450.031 55.2724 449.779 54.8644 449.479 54.4324H451.507V53.6644H448.411C448.555 53.3644 448.687 53.0404 448.807 52.7044L447.979 52.5244C447.631 53.5084 447.079 54.4084 446.311 55.2244L447.055 55.6924C447.391 55.3084 447.703 54.8884 447.991 54.4324ZM453.007 54.4324H453.823C454.135 54.9124 454.423 55.4044 454.663 55.9324L455.419 55.6444C455.239 55.2724 454.999 54.8644 454.711 54.4324H456.943V53.6644H453.343C453.451 53.3524 453.547 53.0404 453.643 52.7164L452.803 52.5364C452.563 53.4484 452.167 54.2884 451.627 55.0444L452.359 55.5244C452.599 55.1884 452.815 54.8164 453.007 54.4324ZM468.319 59.1724H463.639V63.6244H464.479V63.0964H467.479V63.6244H468.319V59.1724ZM464.479 62.2804V59.9764H467.479V62.2804H464.479ZM459.427 62.1124H461.887V62.6644H462.631V58.6324L463.063 59.2084C464.215 58.7284 465.211 58.1644 466.051 57.5044C466.843 58.1284 467.791 58.6804 468.907 59.1724L469.279 58.4044C468.247 58.0084 467.371 57.5404 466.627 57.0004C467.395 56.2564 467.995 55.4044 468.403 54.4444V53.7844H465.151C465.283 53.4964 465.415 53.1964 465.559 52.8724L464.707 52.6924C464.167 53.9884 463.483 55.0324 462.643 55.8364L463.207 56.4964C463.543 56.1724 463.855 55.8124 464.143 55.4164C464.479 55.9564 464.911 56.4724 465.415 56.9524C464.659 57.5404 463.735 58.0564 462.631 58.4884V53.5324H458.647V62.6644H459.427V62.1124ZM461.887 61.3444H460.999V58.1644H461.887V61.3444ZM461.887 57.4084H460.999V54.3244H461.887V57.4084ZM460.303 54.3244V57.4084H459.427V54.3244H460.303ZM459.427 58.1644H460.303V61.3444H459.427V58.1644ZM465.979 56.4724C465.403 55.9684 464.947 55.4044 464.587 54.7804C464.611 54.7204 464.647 54.6604 464.695 54.6004H467.419C467.059 55.2724 466.579 55.8964 465.979 56.4724Z" fill="#272E47"/>
<circle cx="331.711" cy="58.4844" r="12" fill="#7088FF"/>
<path d="M332.907 56.9405L335.173 54.3979V52.6016H328.982V54.3979H332.589L330.281 57.1616V58.6263H331.995C332.989 58.6263 333.805 59.4416 333.805 60.4365C333.805 61.4314 332.989 62.2328 331.995 62.2328C331 62.2328 330.184 61.4314 330.184 60.4365H328.388C328.388 62.4263 330.005 64.043 331.995 64.043C333.984 64.043 335.601 62.4263 335.601 60.4365C335.601 58.7645 334.454 57.355 332.907 56.9405Z" fill="white"/>
<g filter="url(#filter2_d_6897_242644)">
<rect x="306" y="222.705" width="117" height="30" rx="15" fill="white"/>
</g>
<path d="M349.728 232.021C348.564 232.525 347.256 232.801 345.804 232.825V237.961C345.744 239.785 345.36 241.213 344.652 242.245L345.264 242.893C346.128 241.669 346.584 240.025 346.644 237.961V236.533H348.42V242.941H349.272V236.533H350.52V235.705H346.644V233.521C347.94 233.449 349.104 233.197 350.16 232.789L349.728 232.021ZM339.732 232.945V233.737H345.144V232.945H342.876C342.708 232.513 342.54 232.117 342.36 231.757L341.472 231.901C341.676 232.213 341.856 232.561 342.024 232.945H339.732ZM339.612 235.669V236.449H342.036V237.793H339.804V238.585H342.036V241.777C342.036 242.065 341.88 242.209 341.568 242.209C341.4 242.209 341.22 242.185 341.028 242.149L341.208 242.953H341.856C342.552 242.953 342.9 242.629 342.9 241.981V238.585H345.012V237.793H342.9V236.449H345.216V235.669H343.86C344.088 235.261 344.292 234.793 344.484 234.277L343.704 234.013C343.524 234.589 343.32 235.141 343.08 235.669H341.76C341.568 235.021 341.352 234.481 341.124 234.037L340.356 234.313C340.596 234.733 340.812 235.189 340.992 235.669H339.612ZM340.644 239.233C340.38 240.289 339.972 241.249 339.408 242.113L340.128 242.569C340.68 241.669 341.124 240.613 341.436 239.401L340.644 239.233ZM344.088 239.149L343.368 239.341C343.704 240.061 343.98 240.805 344.208 241.561L344.928 241.285C344.736 240.637 344.448 239.929 344.088 239.149ZM361.488 236.821V235.141H362.292V234.421H361.488V232.753H358.92V231.877H358.08V232.753H355.98V233.473H358.08V234.421H355.392V235.141H358.08V236.101H355.98V236.821H358.08V237.781H355.728V238.489H358.08V239.485H355.356V240.217H358.08V241.405H358.92V240.217H362.076V239.485H358.92V238.489H361.728V237.781H358.92V236.821H361.488ZM358.92 233.473H360.648V234.421H358.92V233.473ZM358.92 235.141H360.648V236.101H358.92V235.141ZM358.356 241.837C356.724 241.813 355.488 241.585 354.672 241.129C354.468 241.009 354.276 240.853 354.084 240.649C354.66 239.545 354.984 238.201 355.032 236.617V236.101H353.148C353.724 235.285 354.324 234.337 354.924 233.233V232.525H351.984V233.341H353.952C353.376 234.373 352.728 235.333 352.032 236.221V236.893H354.252C354.18 238.033 353.94 239.029 353.532 239.881C353.22 239.353 352.932 238.657 352.692 237.805L351.972 238.069C352.26 239.101 352.644 239.953 353.112 240.625C352.728 241.177 352.26 241.657 351.696 242.065L352.26 242.797C352.812 242.377 353.292 241.885 353.676 241.321C353.796 241.441 353.928 241.549 354.084 241.669C355.02 242.293 356.568 242.605 358.728 242.605H362.28L362.424 241.777C361.032 241.813 359.676 241.837 358.356 241.837ZM366.036 236.281V238.717H372.012V236.281H366.036ZM371.208 238.057H366.84V236.953H371.208V238.057ZM373.152 239.533H364.968V242.917H365.808V242.425H372.324V242.917H373.152V239.533ZM365.808 241.693V240.253H372.324V241.693H365.808ZM363.84 232.729V233.485H366.54V234.193H367.404V233.485H370.596V234.193H371.46V233.485H374.16V232.729H371.46V231.925H370.596V232.729H367.404V231.925H366.54V232.729H363.84ZM373.824 234.697H364.176V237.001H365.004V235.429H372.996V236.941H373.824V234.697ZM382.86 231.937V235.261H380.58V242.869H381.444V240.217H385.104V241.477C385.104 241.849 384.948 242.041 384.648 242.041L383.496 242.005L383.724 242.833H384.924C385.62 242.833 385.968 242.437 385.968 241.669V235.261H383.712V231.937H382.86ZM381.444 238.153H385.104V239.473H381.444V238.153ZM385.104 237.409H381.444V236.077H385.104V237.409ZM381 232.393L380.268 232.741C380.676 233.329 381.048 234.001 381.396 234.757L382.092 234.409C381.744 233.677 381.384 233.005 381 232.393ZM385.56 232.285C385.272 232.981 384.9 233.677 384.42 234.397L385.128 234.757C385.596 234.061 385.98 233.353 386.28 232.621L385.56 232.285ZM377.076 231.925C376.74 233.365 376.2 234.685 375.456 235.885L376.164 236.329C376.596 235.657 376.968 234.901 377.292 234.073H379.776V233.257H377.58C377.7 232.885 377.808 232.501 377.916 232.093L377.076 231.925ZM376.716 235.681V236.461H377.484V237.973H375.828V238.777H377.484V241.513C377.484 241.669 377.364 241.789 377.124 241.873L377.484 242.617C378.48 242.353 379.356 242.005 380.112 241.585L379.968 240.817C379.416 241.141 378.864 241.405 378.324 241.597V238.777H379.98V237.973H378.324V236.461H379.572V235.681H376.716ZM397.536 232.297C395.856 232.777 393.744 233.029 391.2 233.029L391.476 233.845C392.388 233.845 393.252 233.809 394.068 233.749V237.037H390.576V237.877H394.068V241.645H391.176V242.497H397.848V241.645H394.932V237.877H398.448V237.037H394.932V233.665C396.084 233.533 397.092 233.317 397.956 233.029L397.536 232.297ZM390.24 231.925C389.652 233.737 388.716 235.345 387.42 236.737L387.696 237.661C388.164 237.193 388.596 236.701 388.98 236.197V242.929H389.844V234.913C390.324 234.097 390.732 233.221 391.044 232.297L390.24 231.925ZM403.128 231.865C402.624 233.065 401.64 234.073 400.2 234.901L400.728 235.597C401.28 235.261 401.772 234.889 402.228 234.481C402.804 234.985 403.428 235.441 404.1 235.837C402.78 236.365 401.256 236.749 399.516 236.989L399.912 237.805C401.856 237.505 403.572 237.013 405.036 236.341C406.524 237.085 408.216 237.565 410.112 237.781L410.508 236.977C408.84 236.809 407.328 236.437 405.972 235.861C407.076 235.237 408.012 234.481 408.78 233.593V232.897H403.548C403.716 232.609 403.872 232.309 404.004 231.985L403.128 231.865ZM405.024 235.417C404.22 234.997 403.476 234.493 402.804 233.905L402.96 233.713H407.544C406.836 234.361 405.996 234.937 405.024 235.417ZM404.292 237.205C404.292 237.685 404.244 238.141 404.148 238.573H400.332V239.353H403.908C403.812 239.593 403.68 239.821 403.536 240.037C402.912 240.913 401.604 241.645 399.636 242.221L400.212 242.929C402.42 242.233 403.824 241.333 404.436 240.253C404.592 239.965 404.724 239.665 404.82 239.353H408.372C408.336 240.553 408.228 241.297 408.048 241.585C407.856 241.873 407.412 242.029 406.692 242.041L405.276 241.981L405.492 242.761C406.044 242.785 406.512 242.809 406.896 242.809C407.748 242.809 408.348 242.605 408.696 242.209C409.044 241.813 409.224 240.601 409.248 238.573H405.024C405.096 238.141 405.144 237.685 405.144 237.205H404.292Z" fill="#272E47"/>
<circle cx="321" cy="237.705" r="12" fill="#7088FF"/>
<path d="M321.905 243.029V231.808H320.855C320.192 232.872 319.363 233.453 318.175 233.715V234.918H320.095V243.029H321.905Z" fill="white"/>
<path d="M307 265C307 262.239 309.239 260 312 260H360C362.761 260 365 262.239 365 265V301C365 303.761 362.761 306 360 306H326C315.507 306 307 297.493 307 287V265Z" fill="#27DACC"/>
<path fill-rule="evenodd" clip-rule="evenodd" d="M335 291.25C335 291.802 335.448 292.25 336 292.25C336.552 292.25 337 291.802 337 291.25V284H344.25C344.802 284 345.25 283.552 345.25 283C345.25 282.448 344.802 282 344.25 282H337V274.75C337 274.198 336.552 273.75 336 273.75C335.448 273.75 335 274.198 335 274.75L335 282H327.75C327.198 282 326.75 282.448 326.75 283C326.75 283.552 327.198 284 327.75 284H335L335 291.25Z" fill="white"/>
<defs>
<filter id="filter0_d_6897_242644" x="82" y="62.7051" width="137" height="50" filterUnits="userSpaceOnUse" color-interpolation-filters="sRGB">
<feFlood flood-opacity="0" result="BackgroundImageFix"/>
<feColorMatrix in="SourceAlpha" type="matrix" values="0 0 0 0 0 0 0 0 0 0 0 0 0 0 0 0 0 0 127 0" result="hardAlpha"/>
<feOffset dy="4"/>
<feGaussianBlur stdDeviation="5"/>
<feColorMatrix type="matrix" values="0 0 0 0 0.184314 0 0 0 0 0.32549 0 0 0 0 0.52549 0 0 0 0.12 0"/>
<feBlend mode="normal" in2="BackgroundImageFix" result="effect1_dropShadow_6897_242644"/>
<feBlend mode="normal" in="SourceGraphic" in2="effect1_dropShadow_6897_242644" result="shape"/>
</filter>
<filter id="filter1_d_6897_242644" x="306.711" y="37.4844" width="181.957" height="50" filterUnits="userSpaceOnUse" color-interpolation-filters="sRGB">
<feFlood flood-opacity="0" result="BackgroundImageFix"/>
<feColorMatrix in="SourceAlpha" type="matrix" values="0 0 0 0 0 0 0 0 0 0 0 0 0 0 0 0 0 0 127 0" result="hardAlpha"/>
<feOffset dy="4"/>
<feGaussianBlur stdDeviation="5"/>
<feColorMatrix type="matrix" values="0 0 0 0 0.184314 0 0 0 0 0.32549 0 0 0 0 0.52549 0 0 0 0.12 0"/>
<feBlend mode="normal" in2="BackgroundImageFix" result="effect1_dropShadow_6897_242644"/>
<feBlend mode="normal" in="SourceGraphic" in2="effect1_dropShadow_6897_242644" result="shape"/>
</filter>
<filter id="filter2_d_6897_242644" x="296" y="216.705" width="137" height="50" filterUnits="userSpaceOnUse" color-interpolation-filters="sRGB">
<feFlood flood-opacity="0" result="BackgroundImageFix"/>
<feColorMatrix in="SourceAlpha" type="matrix" values="0 0 0 0 0 0 0 0 0 0 0 0 0 0 0 0 0 0 127 0" result="hardAlpha"/>
<feOffset dy="4"/>
<feGaussianBlur stdDeviation="5"/>
<feColorMatrix type="matrix" values="0 0 0 0 0.184314 0 0 0 0 0.32549 0 0 0 0 0.52549 0 0 0 0.12 0"/>
<feBlend mode="normal" in2="BackgroundImageFix" result="effect1_dropShadow_6897_242644"/>
<feBlend mode="normal" in="SourceGraphic" in2="effect1_dropShadow_6897_242644" result="shape"/>
</filter>
<linearGradient id="paint0_linear_6897_242644" x1="196.199" y1="169.617" x2="196.199" y2="208.055" gradientUnits="userSpaceOnUse">
<stop stop-color="#27DACC"/>
<stop offset="1" stop-color="white" stop-opacity="0"/>
</linearGradient>
<linearGradient id="paint1_linear_6897_242644" x1="156.914" y1="191.292" x2="148.492" y2="191.292" gradientUnits="userSpaceOnUse">
<stop stop-color="#30DCCE"/>
<stop offset="1" stop-color="#27DACC"/>
</linearGradient>
</defs>
</svg>
