<svg width="32" height="32" viewBox="0 0 32 32" fill="none" xmlns="http://www.w3.org/2000/svg">
<circle opacity="0.4" cx="16" cy="16" r="16" fill="#D6E6FC"/>
<path fill-rule="evenodd" clip-rule="evenodd" d="M15.1825 8.82422C11.1947 8.94783 8 12.2055 8 16.206C8 20.2849 11.321 23.5915 15.4176 23.5915C19.4684 23.5915 22.7608 20.3585 22.8339 16.3426H15.1825V8.82422Z" fill="#4C6AFF"/>
<path fill-rule="evenodd" clip-rule="evenodd" d="M23.998 14.9538C23.9884 14.6522 23.961 14.3551 23.917 14.0635C23.8971 13.9322 23.8739 13.8021 23.8474 13.6731C23.2129 10.5855 20.6916 8.18225 17.5354 7.70953C17.5097 7.70569 17.4839 7.70197 17.4581 7.69837C17.1683 7.65798 16.8731 7.63386 16.5737 7.62695V14.9538H23.998Z" fill="#94A6FF"/>
</svg>
