<svg width="60" height="60" viewBox="0 0 60 60" fill="none" xmlns="http://www.w3.org/2000/svg">
<path d="M1.875 30C1.875 33.6934 2.60247 37.3507 4.01589 40.763C5.4293 44.1753 7.50097 47.2757 10.1126 49.8874C12.7243 52.499 15.8247 54.5707 19.237 55.9841C22.6493 57.3975 26.3066 58.125 30 58.125C33.6934 58.125 37.3507 57.3975 40.763 55.9841C44.1753 54.5707 47.2757 52.499 49.8874 49.8874C52.499 47.2757 54.5707 44.1753 55.9841 40.763C57.3975 37.3507 58.125 33.6934 58.125 30C58.125 26.3066 57.3975 22.6493 55.9841 19.237C54.5707 15.8247 52.499 12.7243 49.8874 10.1126C47.2757 7.50097 44.1753 5.4293 40.763 4.01589C37.3507 2.60247 33.6934 1.875 30 1.875C26.3066 1.875 22.6493 2.60247 19.237 4.01589C15.8247 5.4293 12.7243 7.50097 10.1126 10.1126C7.50097 12.7243 5.4293 15.8247 4.01589 19.237C2.60247 22.6493 1.875 26.3066 1.875 30Z" fill="#19BE6B"/>
<path d="M16.5904 30.3673C16.5025 30.2794 16.4531 30.1602 16.4531 30.0359C16.4531 29.9115 16.5025 29.7923 16.5904 29.7044L18.5791 27.7157C18.6226 27.6722 18.6743 27.6376 18.7311 27.6141C18.788 27.5905 18.849 27.5784 18.9105 27.5784C18.9721 27.5784 19.0331 27.5905 19.0899 27.6141C19.1468 27.6376 19.1985 27.6722 19.242 27.7157L26.2441 34.7176L40.9939 19.9678C41.0818 19.8799 41.201 19.8306 41.3253 19.8306C41.4496 19.8306 41.5688 19.8799 41.6567 19.9678L43.6455 21.9566C43.7334 22.0445 43.7827 22.1638 43.7827 22.2881C43.7827 22.4124 43.7334 22.5316 43.6455 22.6195L26.5755 39.6895C26.4876 39.7774 26.3684 39.8268 26.244 39.8268C26.1197 39.8268 26.0005 39.7774 25.9126 39.6895L16.5903 30.3673H16.5904Z" fill="white"/>
</svg>
