<svg width="32" height="32" viewBox="0 0 32 32" fill="none" xmlns="http://www.w3.org/2000/svg">
<circle opacity="0.4" cx="16" cy="16" r="16" fill="#D6E6FC"/>
<path d="M10 11C10 10.1716 10.6716 9.5 11.5 9.5H20.5C21.3284 9.5 22 10.1716 22 11V13.4044L16.4946 15.3272C16.1744 15.4391 15.8256 15.4391 15.5054 15.3272L10 13.4044V11Z" fill="#94A6FF"/>
<path d="M9 14.7151C9 14.3678 9.34543 14.1263 9.67166 14.2455L14.97 16.1823C15.6352 16.4254 16.3648 16.4254 17.03 16.1823L22.3283 14.2455C22.6546 14.1263 23 14.3678 23 14.7151V21.5C23 22.3284 22.3284 23 21.5 23H10.5C9.67157 23 9 22.3284 9 21.5V14.7151Z" fill="#4C6AFF"/>
</svg>
