<svg width="32" height="32" viewBox="0 0 32 32" fill="none" xmlns="http://www.w3.org/2000/svg">
<circle opacity="0.4" cx="16" cy="16" r="16" fill="#D6E6FC"/>
<path opacity="0.9" fill-rule="evenodd" clip-rule="evenodd" d="M10.3289 15.2107C10.9306 13.424 13.4103 12.565 14.575 12.3589C16.6095 10.369 19.4177 8.66632 23.4642 10.3255L19.9268 13.1549C19.9179 13.1432 19.9089 13.1316 19.8997 13.1201C19.3136 12.3873 18.2444 12.2684 17.5116 12.8545C16.7788 13.4406 16.6599 14.5099 17.246 15.2427C17.2552 15.2542 17.2645 15.2655 17.2739 15.2767L14.3974 17.5774L13.0709 15.9188C12.9732 15.7966 12.993 15.6184 13.1152 15.5208C12.9435 15.5017 12.748 15.4716 12.5256 15.4374C11.9747 15.3526 11.2585 15.2424 10.3289 15.2107ZM17.2745 15.2773L14.3979 17.5782L15.7244 19.2369C15.8221 19.359 16.0003 19.3788 16.1224 19.2811C16.1033 19.4528 16.0897 19.6501 16.0742 19.8746L16.0742 19.8746C16.0358 20.4308 15.986 21.1537 15.8127 22.0676C17.6878 21.8732 19.0706 19.6426 19.5276 18.5517C21.9159 17.004 24.1938 14.6384 23.4645 10.3261L19.9272 13.1554C20.4818 13.8869 20.3552 14.9315 19.6341 15.5083C18.913 16.0851 17.8662 15.9791 17.2745 15.2773Z" fill="#4C6AFF"/>
<path d="M13.8847 20.108C13.274 20.5965 10.037 22.0978 9.50637 21.4343C8.92027 20.7015 11.1516 17.9427 11.7622 17.4542C12.3729 16.9658 13.343 17.1639 13.9291 17.8967C14.5152 18.6295 14.4953 19.6196 13.8847 20.108Z" fill="#94A6FF"/>
</svg>
