<svg width="38" height="46" viewBox="0 0 38 46" fill="none" xmlns="http://www.w3.org/2000/svg">
<g filter="url(#filter0_d_1229_47732)">
<circle cx="19" cy="23" r="13" fill="#0FD683"/>
<path fill-rule="evenodd" clip-rule="evenodd" d="M12.5 28.5C14.0902 26.5676 15.7656 25.4607 16.9998 25.2C18.2339 24.9393 19.3841 25.0181 20.5 25.2V28.5L25.7 23L20.5 17.5V20.8C18.4367 20.8162 16.4442 21.5424 14.9994 23C13.5545 24.4576 12.7214 26.3262 12.5 28.5Z" fill="white"/>
<path d="M12.5 28.5L12.886 28.8177C12.746 28.9879 12.511 29.0463 12.3075 28.9615C12.1041 28.8767 11.9802 28.6686 12.0025 28.4493L12.5 28.5ZM20.5 25.2L20.5804 24.7065L21 24.7749V25.2H20.5ZM20.5 28.5L20.8633 28.8435C20.7226 28.9923 20.5054 29.0403 20.3151 28.9646C20.1248 28.8889 20 28.7048 20 28.5H20.5ZM25.7 23L26.0633 22.6565C26.2455 22.8492 26.2455 23.1508 26.0633 23.3435L25.7 23ZM20.5 17.5H20C20 17.2952 20.1248 17.1111 20.3151 17.0354C20.5054 16.9597 20.7226 17.0077 20.8633 17.1565L20.5 17.5ZM20.5 20.8H21V21.2961L20.5039 21.3L20.5 20.8ZM14.9994 23L15.3545 23.352L15.3545 23.352L14.9994 23ZM12.1139 28.1823C13.7392 26.2073 15.5053 25.0046 16.8964 24.7108L17.1031 25.6892C16.026 25.9167 14.4413 26.9279 12.886 28.8177L12.1139 28.1823ZM16.8964 24.7108C18.2148 24.4323 19.4333 24.5195 20.5804 24.7065L20.4195 25.6935C19.3348 25.5167 18.2529 25.4463 17.1031 25.6892L16.8964 24.7108ZM21 25.2V28.5H20V25.2H21ZM20.1366 28.1565L25.3366 22.6565L26.0633 23.3435L20.8633 28.8435L20.1366 28.1565ZM25.3366 23.3435L20.1366 17.8435L20.8633 17.1565L26.0633 22.6565L25.3366 23.3435ZM21 17.5V20.8H20V17.5H21ZM20.5039 21.3C18.5529 21.3153 16.6934 22.0013 15.3545 23.352L14.6443 22.648C16.1951 21.0835 18.3205 20.3171 20.496 20.3L20.5039 21.3ZM15.3545 23.352C13.9981 24.7202 13.2084 26.4788 12.9974 28.5507L12.0025 28.4493C12.2343 26.1737 13.1108 24.1949 14.6443 22.648L15.3545 23.352Z" fill="white"/>
</g>
<defs>
<filter id="filter0_d_1229_47732" x="-6" y="-2" width="50" height="58" filterUnits="userSpaceOnUse" color-interpolation-filters="sRGB">
<feFlood flood-opacity="0" result="BackgroundImageFix"/>
<feColorMatrix in="SourceAlpha" type="matrix" values="0 0 0 0 0 0 0 0 0 0 0 0 0 0 0 0 0 0 127 0" result="hardAlpha"/>
<feOffset dy="4"/>
<feGaussianBlur stdDeviation="3"/>
<feComposite in2="hardAlpha" operator="out"/>
<feColorMatrix type="matrix" values="0 0 0 0 0.0588235 0 0 0 0 0.839216 0 0 0 0 0.513726 0 0 0 0.2 0"/>
<feBlend mode="normal" in2="BackgroundImageFix" result="effect1_dropShadow_1229_47732"/>
<feBlend mode="normal" in="SourceGraphic" in2="effect1_dropShadow_1229_47732" result="shape"/>
</filter>
</defs>
</svg>
