<svg width="38" height="47" viewBox="0 0 38 47" fill="none" xmlns="http://www.w3.org/2000/svg">
<g filter="url(#filter0_d_7135_255684)">
<circle cx="19" cy="23.002" r="13" fill="#3081F2"/>
<path fill-rule="evenodd" clip-rule="evenodd" d="M18.4508 17.2891C15.1491 17.3721 12.498 20.0747 12.498 23.3964C12.498 26.7705 15.2333 29.5058 18.6074 29.5058C21.9292 29.5058 24.6317 26.8547 24.7148 23.5529H18.4508V17.2891Z" fill="white"/>
<path fill-rule="evenodd" clip-rule="evenodd" d="M25.4989 22.6152C25.4925 22.349 25.4694 22.087 25.4308 21.83C25.4144 21.7214 25.3953 21.6138 25.3735 21.5071C24.8508 18.953 22.7743 16.965 20.1747 16.574C20.1535 16.5708 20.1323 16.5677 20.1111 16.5647C19.8752 16.5317 19.6351 16.5118 19.3916 16.5059V22.6152H25.4989Z" fill="white"/>
</g>
<defs>
<filter id="filter0_d_7135_255684" x="-6.00005" y="-2.00002" width="50.0001" height="58.0001" filterUnits="userSpaceOnUse" color-interpolation-filters="sRGB">
<feFlood flood-opacity="0" result="BackgroundImageFix"/>
<feColorMatrix in="SourceAlpha" type="matrix" values="0 0 0 0 0 0 0 0 0 0 0 0 0 0 0 0 0 0 127 0" result="hardAlpha"/>
<feOffset dy="4.00003"/>
<feGaussianBlur stdDeviation="3.00003"/>
<feComposite in2="hardAlpha" operator="out"/>
<feColorMatrix type="matrix" values="0 0 0 0 0.298039 0 0 0 0 0.415686 0 0 0 0 1 0 0 0 0.2 0"/>
<feBlend mode="normal" in2="BackgroundImageFix" result="effect1_dropShadow_7135_255684"/>
<feBlend mode="normal" in="SourceGraphic" in2="effect1_dropShadow_7135_255684" result="shape"/>
</filter>
</defs>
</svg>
