<svg width="38" height="46" viewBox="0 0 38 46" fill="none" xmlns="http://www.w3.org/2000/svg">
<g filter="url(#filter0_d_1229_47736)">
<circle cx="19" cy="23" r="13" fill="#599AF5"/>
<g clip-path="url(#clip0_1229_47736)">
<path fill-rule="evenodd" clip-rule="evenodd" d="M19.3569 19.2364C18.6129 19.666 18.358 20.6173 18.7876 21.3614L18.7876 21.3614L20.8084 20.1947C21.1804 19.9799 21.6561 20.1074 21.8709 20.4794L22.6487 21.8265C22.8634 22.1985 22.736 22.6742 22.364 22.889L20.3432 24.0557C20.7727 24.7997 21.7241 25.0546 22.468 24.625L25.1623 23.0695C25.9064 22.6399 26.1613 21.6886 25.7317 20.9445L24.1762 18.2502C23.7466 17.5062 22.7953 17.2513 22.0512 17.6809L19.3569 19.2364ZM12.9583 22.9309C12.2143 23.3605 11.9594 24.3118 12.389 25.0558L13.9445 27.7501C14.3741 28.4941 15.3254 28.7491 16.0694 28.3195L18.7637 26.7639C19.5078 26.3344 19.7627 25.383 19.3331 24.639L19.333 24.6388L17.312 25.8056C16.94 26.0203 16.4643 25.8929 16.2495 25.5209L15.4718 24.1737C15.257 23.8017 15.3844 23.326 15.7564 23.1113L17.7774 21.9445C17.3478 21.2006 16.3966 20.9458 15.6526 21.3753L12.9583 22.9309ZM17.262 23.2299C16.9272 23.4232 16.8125 23.8513 17.0058 24.1861C17.1991 24.5209 17.6272 24.6356 17.962 24.4423L20.791 22.809C21.1259 22.6157 21.2406 22.1876 21.0473 21.8528C20.854 21.518 20.4259 21.4033 20.091 21.5966L17.262 23.2299Z" fill="white"/>
</g>
</g>
<defs>
<filter id="filter0_d_1229_47736" x="-6" y="-2" width="50" height="58" filterUnits="userSpaceOnUse" color-interpolation-filters="sRGB">
<feFlood flood-opacity="0" result="BackgroundImageFix"/>
<feColorMatrix in="SourceAlpha" type="matrix" values="0 0 0 0 0 0 0 0 0 0 0 0 0 0 0 0 0 0 127 0" result="hardAlpha"/>
<feOffset dy="4"/>
<feGaussianBlur stdDeviation="3"/>
<feComposite in2="hardAlpha" operator="out"/>
<feColorMatrix type="matrix" values="0 0 0 0 0.34902 0 0 0 0 0.603922 0 0 0 0 0.960784 0 0 0 0.2 0"/>
<feBlend mode="normal" in2="BackgroundImageFix" result="effect1_dropShadow_1229_47736"/>
<feBlend mode="normal" in="SourceGraphic" in2="effect1_dropShadow_1229_47736" result="shape"/>
</filter>
<clipPath id="clip0_1229_47736">
<rect width="14" height="14" fill="white" transform="translate(12 16)"/>
</clipPath>
</defs>
</svg>
