<svg width="38" height="46" viewBox="0 0 38 46" fill="none" xmlns="http://www.w3.org/2000/svg">
<g filter="url(#filter0_d_1229_47734)">
<circle cx="19" cy="20" r="13" fill="#33D0DE"/>
<path fill-rule="evenodd" clip-rule="evenodd" d="M25.5 25.5C23.9098 23.5676 22.2344 22.4607 21.0002 22.2C19.7661 21.9393 18.6159 22.0181 17.5 22.2V25.5L12.3 20L17.5 14.5V17.8C19.5633 17.8162 21.5558 18.5424 23.0006 20C24.4455 21.4576 25.2786 23.3262 25.5 25.5Z" fill="white"/>
<path d="M25.5 25.5L25.114 25.8177C25.254 25.9879 25.489 26.0463 25.6925 25.9615C25.8959 25.8767 26.0198 25.6686 25.9975 25.4493L25.5 25.5ZM17.5 22.2L17.4196 21.7065L17 21.7749V22.2H17.5ZM17.5 25.5L17.1367 25.8435C17.2774 25.9923 17.4946 26.0403 17.6849 25.9646C17.8752 25.8889 18 25.7048 18 25.5H17.5ZM12.3 20L11.9367 19.6565C11.7545 19.8492 11.7545 20.1508 11.9367 20.3435L12.3 20ZM17.5 14.5H18C18 14.2952 17.8752 14.1111 17.6849 14.0354C17.4946 13.9597 17.2774 14.0077 17.1367 14.1565L17.5 14.5ZM17.5 17.8H17V18.2961L17.4961 18.3L17.5 17.8ZM23.0006 20L22.6455 20.352L22.6455 20.352L23.0006 20ZM25.8861 25.1823C24.2608 23.2073 22.4947 22.0046 21.1036 21.7108L20.8969 22.6892C21.974 22.9167 23.5587 23.9279 25.114 25.8177L25.8861 25.1823ZM21.1036 21.7108C19.7852 21.4323 18.5667 21.5195 17.4196 21.7065L17.5805 22.6935C18.6652 22.5167 19.7471 22.4463 20.8969 22.6892L21.1036 21.7108ZM17 22.2V25.5H18V22.2H17ZM17.8634 25.1565L12.6634 19.6565L11.9367 20.3435L17.1367 25.8435L17.8634 25.1565ZM12.6634 20.3435L17.8634 14.8435L17.1367 14.1565L11.9367 19.6565L12.6634 20.3435ZM17 14.5V17.8H18V14.5H17ZM17.4961 18.3C19.4471 18.3153 21.3066 19.0013 22.6455 20.352L23.3557 19.648C21.8049 18.0835 19.6795 17.3171 17.504 17.3L17.4961 18.3ZM22.6455 20.352C24.0019 21.7202 24.7916 23.4788 25.0026 25.5507L25.9975 25.4493C25.7657 23.1737 24.8892 21.1949 23.3557 19.648L22.6455 20.352Z" fill="white"/>
</g>
<defs>
<filter id="filter0_d_1229_47734" x="-6" y="-2" width="50" height="58" filterUnits="userSpaceOnUse" color-interpolation-filters="sRGB">
<feFlood flood-opacity="0" result="BackgroundImageFix"/>
<feColorMatrix in="SourceAlpha" type="matrix" values="0 0 0 0 0 0 0 0 0 0 0 0 0 0 0 0 0 0 127 0" result="hardAlpha"/>
<feOffset dy="4"/>
<feGaussianBlur stdDeviation="3"/>
<feComposite in2="hardAlpha" operator="out"/>
<feColorMatrix type="matrix" values="0 0 0 0 0.2 0 0 0 0 0.815686 0 0 0 0 0.870588 0 0 0 0.2 0"/>
<feBlend mode="normal" in2="BackgroundImageFix" result="effect1_dropShadow_1229_47734"/>
<feBlend mode="normal" in="SourceGraphic" in2="effect1_dropShadow_1229_47734" result="shape"/>
</filter>
</defs>
</svg>
