<svg width="270" height="153" viewBox="0 0 270 153" fill="none" xmlns="http://www.w3.org/2000/svg">
<g clip-path="url(#clip0_10173_170189)">
<rect width="252.618" height="152.555" rx="6.56151" fill="white"/>
<rect width="15.5836" height="152.555" fill="#232D47"/>
<rect x="15.5835" width="36.9085" height="152.555" fill="#F9FAFC"/>
<rect x="52.4922" width="200.946" height="152.555" fill="#F4F4F5"/>
<rect x="58.2334" y="22.1451" width="34.4479" height="30.7571" rx="2.56309" fill="#FEFEFE"/>
<path d="M78.5294 38.4957L77.3076 40.3198H78.168L78.9286 39.129L79.6927 40.3198H80.5496L79.3313 38.4957L80.5015 36.7474H79.641L78.9286 37.9038L78.2196 36.7474H77.3592L78.5294 38.4957ZM81.916 38.4957L80.6942 40.3198H81.5546L82.3152 39.129L83.0793 40.3198H83.9362L82.7179 38.4957L83.888 36.7474H83.0276L82.3152 37.9038L81.6062 36.7474H80.7458L81.916 38.4957ZM85.3026 38.4957L84.0808 40.3198H84.9412L85.7018 39.129L86.4658 40.3198H87.3228L86.1045 38.4957L87.2746 36.7474H86.4142L85.7018 37.9038L84.9928 36.7474H84.1324L85.3026 38.4957Z" fill="#262A33"/>
<g clip-path="url(#clip1_10173_170189)">
<path d="M73.0729 37.5235C73.1273 40.9042 71.0079 43.0214 67.6272 42.9692C64.2466 43.0214 62.1293 40.9042 62.1816 37.5235C62.1293 34.1429 64.2466 32.0256 67.6272 32.0779C71.0079 32.0256 73.1251 34.1429 73.0729 37.5235Z" fill="#6BA9FF"/>
<path d="M73.058 38.105C72.8924 35.698 71.2478 34.2168 68.7167 34.256C66.0135 34.2124 64.3167 35.9093 64.3602 38.6125C64.3188 41.1436 65.8022 42.7882 68.207 42.9538C71.0583 42.7795 72.8837 40.9541 73.058 38.105Z" fill="#5CA0FF"/>
<path d="M72.9832 38.7786C72.6673 37.3061 71.5041 36.4086 69.8051 36.4348C67.7771 36.4021 66.5051 37.6742 66.5377 39.7021C66.5116 41.4012 67.409 42.5643 68.8793 42.8802C71.1251 42.5143 72.6172 41.0222 72.9832 38.7786V38.7786Z" fill="#4D97FF"/>
<path d="M72.794 39.5846C72.4433 38.9573 71.7767 38.6001 70.8945 38.6131C69.5418 38.5914 68.6945 39.4387 68.7163 40.7914C68.701 41.6736 69.0604 42.3401 69.6856 42.6908C70.4223 42.4745 71.0928 42.0768 71.6359 41.5341C72.179 40.9915 72.5772 40.3211 72.794 39.5846V39.5846Z" fill="#3D8EFF"/>
<g clip-path="url(#clip2_10173_170189)">
<path d="M67.0468 38.305L65.5318 37.4841C65.3313 37.3755 65.3618 37.0788 65.5802 37.0133L69.0648 35.9679C69.2603 35.9093 69.4426 36.0916 69.3839 36.2871L68.3386 39.7716C68.273 39.99 67.9763 40.0205 67.8677 39.8201L67.0468 38.305ZM67.0468 38.305L67.7536 37.5982" stroke="white" stroke-width="0.48058" stroke-linejoin="round"/>
</g>
</g>
<rect x="96.7822" y="22.1451" width="34.4479" height="30.7571" rx="2.56309" fill="#FEFEFE"/>
<path d="M117.078 38.4957L115.856 40.3198H116.717L117.477 39.129L118.241 40.3198H119.098L117.88 38.4957L119.05 36.7474H118.19L117.477 37.9038L116.768 36.7474H115.908L117.078 38.4957ZM120.465 38.4957L119.243 40.3198H120.103L120.864 39.129L121.628 40.3198H122.485L121.267 38.4957L122.437 36.7474H121.576L120.864 37.9038L120.155 36.7474H119.295L120.465 38.4957ZM123.851 38.4957L122.63 40.3198H123.49L124.251 39.129L125.015 40.3198H125.872L124.653 38.4957L125.823 36.7474H124.963L124.251 37.9038L123.542 36.7474H122.681L123.851 38.4957Z" fill="#262A33"/>
<g clip-path="url(#clip3_10173_170189)">
<path d="M111.622 37.5235C111.676 40.9042 109.557 43.0214 106.176 42.9692C102.795 43.0214 100.678 40.9042 100.73 37.5235C100.678 34.1429 102.795 32.0256 106.176 32.0779C109.557 32.0256 111.674 34.1429 111.622 37.5235Z" fill="#4ED89D"/>
<path d="M111.607 38.105C111.441 35.698 109.797 34.2168 107.266 34.256C104.562 34.2124 102.865 35.9093 102.909 38.6125C102.868 41.1436 104.351 42.7882 106.756 42.9538C109.607 42.7795 111.433 40.9541 111.607 38.105Z" fill="#44D39C"/>
<path d="M111.532 38.7786C111.216 37.3061 110.053 36.4086 108.354 36.4348C106.326 36.4021 105.054 37.6742 105.087 39.7021C105.06 41.4012 105.958 42.5643 107.428 42.8802C109.674 42.5143 111.166 41.0222 111.532 38.7786V38.7786Z" fill="#3ACC97"/>
<path d="M111.343 39.5846C110.992 38.9573 110.326 38.6001 109.443 38.6131C108.091 38.5914 107.243 39.4387 107.265 40.7914C107.25 41.6736 107.609 42.3401 108.234 42.6908C108.971 42.4745 109.642 42.0768 110.185 41.5341C110.728 40.9915 111.126 40.3211 111.343 39.5846V39.5846Z" fill="#30C694"/>
<mask id="path-18-inside-1_10173_170189" fill="white">
<path fill-rule="evenodd" clip-rule="evenodd" d="M107.861 35.7955C107.811 35.6777 107.695 35.6013 107.567 35.6013H105.106C104.978 35.6013 104.862 35.6777 104.812 35.7955L104.125 37.3974C104.034 37.6088 104.189 37.844 104.419 37.844H108.254C108.484 37.844 108.639 37.6088 108.548 37.3974L107.861 35.7955ZM108.739 39.1256C108.739 39.3025 108.596 39.446 108.419 39.446H104.254C104.077 39.446 103.933 39.3025 103.933 39.1256V38.1644C103.933 37.9875 104.077 37.844 104.254 37.844H108.419C108.596 37.844 108.739 37.9875 108.739 38.1644V39.1256Z"/>
</mask>
<path d="M108.548 37.3974L108.107 37.5867L108.548 37.3974ZM105.106 36.0819H107.567V35.1207H105.106V36.0819ZM104.567 37.5867L105.253 35.9848L104.37 35.6062L103.684 37.2081L104.567 37.5867ZM108.254 37.3634H104.42V38.3246H108.254V37.3634ZM107.42 35.9848L108.107 37.5867L108.99 37.2081L108.303 35.6062L107.42 35.9848ZM104.254 39.9266H108.419V38.9654H104.254V39.9266ZM103.453 38.1644V39.1256H104.414V38.1644H103.453ZM108.419 37.3635H104.254V38.3246H108.419V37.3635ZM109.22 39.1256V38.1644H108.259V39.1256H109.22ZM108.419 38.3246C108.331 38.3246 108.259 38.2529 108.259 38.1644H109.22C109.22 37.7221 108.861 37.3635 108.419 37.3635V38.3246ZM104.414 38.1644C104.414 38.2529 104.342 38.3246 104.254 38.3246V37.3635C103.812 37.3635 103.453 37.7221 103.453 38.1644H104.414ZM108.419 39.9266C108.861 39.9266 109.22 39.5679 109.22 39.1256H108.259C108.259 39.0371 108.331 38.9654 108.419 38.9654V39.9266ZM104.254 38.9654C104.342 38.9654 104.414 39.0371 104.414 39.1256H103.453C103.453 39.568 103.812 39.9266 104.254 39.9266V38.9654ZM108.254 38.3246C108.829 38.3246 109.216 37.7367 108.99 37.2081L108.107 37.5867C108.061 37.481 108.139 37.3634 108.254 37.3634V38.3246ZM103.684 37.2081C103.457 37.7367 103.845 38.3246 104.42 38.3246V37.3634C104.535 37.3634 104.612 37.481 104.567 37.5867L103.684 37.2081ZM107.567 36.0819C107.503 36.0819 107.445 36.0437 107.42 35.9848L108.303 35.6062C108.177 35.3117 107.888 35.1207 107.567 35.1207V36.0819ZM105.106 35.1207C104.786 35.1207 104.496 35.3117 104.37 35.6062L105.253 35.9848C105.228 36.0437 105.17 36.0819 105.106 36.0819V35.1207Z" fill="white" mask="url(#path-18-inside-1_10173_170189)"/>
<line x1="104.254" y1="37.9241" x2="108.419" y2="37.9241" stroke="white" stroke-width="0.48058"/>
<path d="M105.855 37.0431L106.176 37.3635L106.977 36.5625" stroke="white" stroke-opacity="0.8" stroke-width="0.48058" stroke-linecap="round" stroke-linejoin="round"/>
</g>
<rect x="135.331" y="22.1451" width="34.4479" height="30.7571" rx="2.56309" fill="#FEFEFE"/>
<path d="M155.627 38.4957L154.405 40.3198H155.266L156.026 39.129L156.79 40.3198H157.647L156.429 38.4957L157.599 36.7474H156.739L156.026 37.9038L155.317 36.7474H154.457L155.627 38.4957ZM159.014 38.4957L157.792 40.3198H158.652L159.413 39.129L160.177 40.3198H161.034L159.816 38.4957L160.986 36.7474H160.125L159.413 37.9038L158.704 36.7474H157.843L159.014 38.4957ZM162.4 38.4957L161.178 40.3198H162.039L162.799 39.129L163.563 40.3198H164.42L163.202 38.4957L164.372 36.7474H163.512L162.799 37.9038L162.09 36.7474H161.23L162.4 38.4957Z" fill="#262A33"/>
<g clip-path="url(#clip4_10173_170189)">
<path d="M150.171 37.5235C150.225 40.9042 148.106 43.0214 144.725 42.9692C141.344 43.0214 139.227 40.9042 139.279 37.5235C139.227 34.1429 141.344 32.0256 144.725 32.0779C148.106 32.0256 150.223 34.1429 150.171 37.5235Z" fill="#F7A87C"/>
<path d="M150.156 38.105C149.99 35.698 148.345 34.2168 145.814 34.256C143.111 34.2124 141.414 35.9093 141.458 38.6125C141.416 41.1436 142.9 42.7882 145.305 42.9538C148.156 42.7795 149.981 40.9541 150.156 38.105Z" fill="#F79E6D"/>
<path d="M150.081 38.7786C149.765 37.3061 148.602 36.4086 146.903 36.4348C144.875 36.4021 143.603 37.6742 143.635 39.7021C143.609 41.4012 144.507 42.5643 145.977 42.8802C148.223 42.5143 149.715 41.0222 150.081 38.7786V38.7786Z" fill="#F7955E"/>
<path d="M149.892 39.5846C149.541 38.9573 148.874 38.6001 147.992 38.6131C146.639 38.5914 145.792 39.4387 145.814 40.7914C145.799 41.6736 146.158 42.3401 146.783 42.6908C147.52 42.4745 148.191 42.0768 148.734 41.5341C149.277 40.9915 149.675 40.3211 149.892 39.5846V39.5846Z" fill="#F78B4F"/>
<g clip-path="url(#clip5_10173_170189)">
<path d="M146.964 37.6294C146.726 38.0359 146.07 38.8853 144.725 38.8853C143.38 38.8853 142.724 38.0359 142.485 37.6294C142.446 37.5625 142.446 37.4849 142.485 37.418C142.724 37.0114 143.38 36.162 144.725 36.162C146.07 36.162 146.726 37.0114 146.964 37.418C147.003 37.4849 147.003 37.5625 146.964 37.6294Z" stroke="white" stroke-width="0.48058"/>
<circle cx="144.725" cy="37.5236" r="0.640773" stroke="white" stroke-opacity="0.8" stroke-width="0.48058"/>
</g>
</g>
<rect x="173.88" y="22.1451" width="34.4479" height="30.7571" rx="2.56309" fill="#FEFEFE"/>
<path d="M194.176 38.4957L192.954 40.3198H193.814L194.575 39.129L195.339 40.3198H196.196L194.978 38.4957L196.148 36.7474H195.288L194.575 37.9038L193.866 36.7474H193.006L194.176 38.4957ZM197.562 38.4957L196.341 40.3198H197.201L197.962 39.129L198.726 40.3198H199.583L198.364 38.4957L199.535 36.7474H198.674L197.962 37.9038L197.253 36.7474H196.392L197.562 38.4957ZM200.949 38.4957L199.727 40.3198H200.588L201.348 39.129L202.112 40.3198H202.969L201.751 38.4957L202.921 36.7474H202.061L201.348 37.9038L200.639 36.7474H199.779L200.949 38.4957Z" fill="#262A33"/>
<g clip-path="url(#clip6_10173_170189)">
<path d="M188.719 37.5235C188.774 40.9042 186.654 43.0214 183.274 42.9692C179.893 43.0214 177.776 40.9042 177.828 37.5235C177.776 34.1429 179.893 32.0256 183.274 32.0779C186.654 32.0256 188.772 34.1429 188.719 37.5235Z" fill="#AA90F4"/>
<path d="M188.704 38.105C188.539 35.698 186.894 34.2168 184.363 34.256C181.66 34.2124 179.963 35.9093 180.007 38.6125C179.965 41.1436 181.449 42.7882 183.853 42.9538C186.705 42.7795 188.53 40.9541 188.704 38.105Z" fill="#A78BF5"/>
<path d="M188.63 38.7786C188.314 37.3061 187.151 36.4086 185.452 36.4348C183.424 36.4021 182.152 37.6742 182.184 39.7021C182.158 41.4012 183.056 42.5643 184.526 42.8802C186.772 42.5143 188.264 41.0222 188.63 38.7786V38.7786Z" fill="#A587F9"/>
<path d="M188.44 39.5846C188.09 38.9573 187.423 38.6001 186.541 38.6131C185.188 38.5914 184.341 39.4387 184.363 40.7914C184.348 41.6736 184.707 42.3401 185.332 42.6908C186.069 42.4745 186.739 42.0768 187.282 41.5341C187.825 40.9915 188.224 40.3211 188.44 39.5846V39.5846Z" fill="#9E7FF4" fill-opacity="0.8"/>
<path fill-rule="evenodd" clip-rule="evenodd" d="M181.746 37.5072C181.746 37.4374 181.773 37.3707 181.819 37.3233L183.513 35.6056C183.58 35.5378 183.677 35.5198 183.761 35.5597C183.844 35.5996 183.898 35.6898 183.898 35.7895L183.898 36.5401C184.702 36.792 185.776 37.4588 185.854 38.9191C185.86 39.0204 185.809 39.1152 185.725 39.1595C185.642 39.2038 185.542 39.1887 185.473 39.1213C184.936 38.599 184.441 38.5029 183.898 38.4872L183.898 39.2248C183.898 39.3245 183.844 39.4148 183.761 39.4547C183.677 39.4946 183.58 39.4765 183.513 39.4087L181.819 37.6911C181.773 37.6436 181.746 37.577 181.746 37.5072ZM182.313 37.5072L183.44 38.6503L183.44 38.2336C183.44 38.167 183.464 38.1033 183.507 38.0562C183.55 38.0092 183.608 37.9828 183.669 37.9828C184.186 37.9828 184.722 38.0089 185.282 38.3546C184.995 37.5383 184.238 37.1356 183.617 36.9785C183.513 36.9522 183.44 36.8509 183.44 36.7342V36.364L182.313 37.5072Z" fill="white"/>
<path d="M182.508 35.7894L180.922 37.5237L182.508 39.258" stroke="white" stroke-opacity="0.8" stroke-width="0.48058" stroke-linecap="round" stroke-linejoin="round"/>
</g>
<rect x="212.429" y="22.1451" width="34.4479" height="30.7571" rx="2.56309" fill="#FEFEFE"/>
<path d="M232.725 38.4957L231.503 40.3198H232.364L233.124 39.129L233.888 40.3198H234.745L233.527 38.4957L234.697 36.7474H233.837L233.124 37.9038L232.415 36.7474H231.555L232.725 38.4957ZM236.112 38.4957L234.89 40.3198H235.75L236.511 39.129L237.275 40.3198H238.132L236.914 38.4957L238.084 36.7474H237.223L236.511 37.9038L235.802 36.7474H234.942L236.112 38.4957ZM239.498 38.4957L238.277 40.3198H239.137L239.898 39.129L240.662 40.3198H241.519L240.3 38.4957L241.47 36.7474H240.61L239.898 37.9038L239.189 36.7474H238.328L239.498 38.4957Z" fill="#262A33"/>
<g clip-path="url(#clip7_10173_170189)">
<path d="M227.269 37.5236C227.323 40.9042 225.204 43.0215 221.823 42.9692C218.442 43.0215 216.325 40.9042 216.377 37.5236C216.325 34.143 218.442 32.0257 221.823 32.078C225.204 32.0257 227.321 34.143 227.269 37.5236Z" fill="#F77C7C"/>
<path d="M227.254 38.105C227.088 35.6981 225.444 34.2169 222.913 34.2561C220.209 34.2125 218.512 35.9094 218.556 38.6126C218.515 41.1437 219.998 42.7883 222.403 42.9538C225.254 42.7796 227.08 40.9542 227.254 38.105Z" fill="#F77474"/>
<path d="M227.179 38.7786C226.863 37.3061 225.7 36.4087 224.001 36.4348C221.973 36.4021 220.701 37.6742 220.734 39.7022C220.707 41.4012 221.605 42.5644 223.075 42.8803C225.321 42.5143 226.813 41.0222 227.179 38.7786V38.7786Z" fill="#F56C6C"/>
<path d="M226.99 39.5847C226.639 38.9574 225.973 38.6001 225.09 38.6132C223.738 38.5914 222.89 39.4388 222.912 40.7915C222.897 41.6736 223.256 42.3402 223.881 42.6909C224.618 42.4746 225.289 42.0769 225.832 41.5342C226.375 40.9915 226.773 40.3212 226.99 39.5847V39.5847Z" fill="#F56161"/>
<path d="M221.456 38.5321C221.638 38.5519 222.163 38.555 223.032 38.542C222.983 38.6467 222.941 38.7421 222.906 38.8276C222.422 38.8276 221.971 38.8208 221.55 38.8078C221.298 38.8078 221.098 38.739 220.951 38.6009C220.888 38.6535 220.8 38.7452 220.688 38.8766L220.542 38.5321C220.548 38.5259 220.559 38.516 220.573 38.5024C220.629 38.4627 220.703 38.407 220.794 38.3351V37.6952H220.552V37.3898H221.098V38.3649C221.175 38.4435 221.277 38.4962 221.403 38.5222L221.277 38.3153C221.319 38.2695 221.343 38.197 221.351 38.0985V36.6612H222.759V37.6754L222.958 37.8922C222.944 37.899 222.927 37.9089 222.906 37.9219C222.765 38.0074 222.657 38.0663 222.58 38.0991C222.692 38.1778 222.8 38.2503 222.906 38.3159L222.685 38.5327C222.475 38.3816 222.279 38.2472 222.096 38.1288V38.3556C221.774 38.4206 221.561 38.4801 221.456 38.5321ZM220.594 36.73L220.867 36.5627C220.888 36.5826 220.916 36.6154 220.952 36.6612C221.036 36.7597 221.123 36.8713 221.214 36.9958L220.92 37.1729C220.808 37.0026 220.699 36.8551 220.594 36.73ZM222.433 37.0943V36.9369H221.666V37.0943H222.433ZM221.666 37.4982H222.433V37.3408H221.666V37.4982ZM222.033 38.0892C222.012 38.0694 221.981 38.0464 221.938 38.0204C221.896 37.9876 221.865 37.9647 221.844 37.9517L222.033 37.7745H221.665V38.1784C221.771 38.1449 221.893 38.1152 222.033 38.0892ZM222.601 37.7739H222.054C222.16 37.8327 222.254 37.8922 222.338 37.951C222.429 37.8922 222.517 37.8333 222.601 37.7739Z" fill="white" fill-opacity="0.8"/>
<path d="M224.066 37.5239C224.066 38.7625 223.062 39.7666 221.823 39.7666C220.585 39.7666 219.581 38.7625 219.581 37.5239C219.581 36.2853 220.585 35.2812 221.823 35.2812C222.338 35.2812 222.811 35.4543 223.19 35.7454" stroke="white" stroke-width="0.48058" stroke-linecap="round"/>
<path d="M222.784 36.251L223.588 36.0959L223.507 35.281" stroke="white" stroke-width="0.48058" stroke-linecap="round" stroke-linejoin="round"/>
</g>
<path d="M59.8985 11.4688H61.8998C61.342 13.1912 60.4972 14.5527 59.3654 15.5533L59.7673 16.2751C60.6613 15.5533 61.4077 14.5855 61.9982 13.3716C62.2607 13.8555 62.6625 14.3148 63.1957 14.7413C62.6133 15.094 61.908 15.4221 61.0878 15.7174L61.4979 16.4555C62.4411 16.0864 63.2367 15.6763 63.8846 15.2252C64.5572 15.6517 65.3938 16.0536 66.3862 16.4145L66.7881 15.6763C65.9105 15.3811 65.1559 15.0612 64.5326 14.7167C65.1395 14.1754 65.5414 13.5685 65.7547 12.8959V12.2398H62.4739C62.5559 11.9937 62.6461 11.7394 62.7282 11.4688H66.6815V10.7224H62.925C63.0644 10.1565 63.1875 9.54954 63.2859 8.90159L62.4903 8.80316C62.3919 9.47572 62.2689 10.1155 62.113 10.7224H60.8991L61.3256 9.20506L60.5465 9.07383L59.8985 11.4688ZM62.5641 12.9451H64.9673C64.7376 13.4208 64.3603 13.8719 63.8436 14.2902C63.2613 13.8801 62.8348 13.429 62.5641 12.9451ZM64.6638 8.81137L64.1389 9.32808C64.7458 9.79559 65.2051 10.2385 65.5332 10.665L66.0909 10.1073C65.7054 9.67256 65.2297 9.23786 64.6638 8.81137ZM69.3143 8.77036C68.9206 10.0334 68.3136 11.1407 67.4935 12.0921L67.7477 12.9205C68.002 12.6499 68.248 12.371 68.4777 12.0757V16.4063H69.2405V10.9439C69.5685 10.3697 69.8392 9.75458 70.0442 9.10663L69.3143 8.77036ZM70.6922 9.36089C70.5282 10.4107 70.2001 11.3047 69.7244 12.0347L70.2247 12.6827C70.52 12.2562 70.766 11.7887 70.9711 11.2719H72.2095V13.0353H69.8802V13.7899H72.2095V16.3735H72.9887V13.7899H75.1048V13.0353H72.9887V11.2719H74.8013V10.5092H72.9887V8.86878H72.2095V10.5092H71.2253C71.3155 10.1811 71.3894 9.8284 71.455 9.45932L70.6922 9.36089ZM82.6013 9.07383C81.4531 9.4019 80.0424 9.56594 78.361 9.56594L78.607 10.2959C79.1648 10.2959 79.6979 10.2713 80.2064 10.2385V12.2562H77.8935V13.0189H80.2064V15.3647H78.3036V16.1275H82.8966V15.3647H80.9856V13.0189H83.3067V12.2562H80.9856V10.1647C81.7401 10.0663 82.4127 9.92682 82.9868 9.72998L82.6013 9.07383ZM77.5818 8.83597C77.1799 10.0663 76.5566 11.1489 75.7036 12.0757L75.9578 12.9041C76.2285 12.6252 76.4827 12.3464 76.7206 12.0593V16.4227H77.4916V10.9603C77.8278 10.3943 78.0985 9.79559 78.3118 9.17225L77.5818 8.83597ZM86.3742 8.80316C86.0379 9.59875 85.39 10.2713 84.4304 10.8208L84.9061 11.4442C85.2424 11.2391 85.5458 11.0177 85.8247 10.7798C86.161 11.0587 86.5219 11.3211 86.9155 11.5508C86.0625 11.8707 85.0783 12.1003 83.9793 12.2398L84.3401 12.9697C85.636 12.7729 86.7843 12.453 87.7685 12.0101C88.7856 12.494 89.9338 12.8057 91.2051 12.9533L91.5578 12.2234C90.4752 12.1249 89.4991 11.9035 88.6215 11.5754C89.3187 11.1653 89.9174 10.6732 90.4095 10.1073V9.47572H86.8991C86.9976 9.30348 87.0878 9.11484 87.1698 8.91799L86.3742 8.80316ZM87.7603 11.1899C87.2436 10.9275 86.7679 10.6158 86.3414 10.2631C86.3496 10.2467 86.366 10.2303 86.3906 10.2057H89.2695C88.8266 10.583 88.3263 10.911 87.7603 11.1899ZM87.1698 12.5104C87.1698 12.8057 87.137 13.0846 87.0878 13.347H84.5452V14.0442H86.8499C86.8007 14.1508 86.7351 14.2574 86.6695 14.364C86.2594 14.93 85.3818 15.4057 84.0449 15.7994L84.5616 16.4309C86.0789 15.947 87.0386 15.3401 87.4487 14.6019C87.5471 14.4297 87.6291 14.241 87.7029 14.0442H89.9256C89.901 14.7659 89.8354 15.217 89.7288 15.3893C89.6222 15.5533 89.3597 15.6435 88.9414 15.6517C88.6789 15.6353 88.3345 15.6189 87.908 15.6025L88.1048 16.3079C88.4985 16.3325 88.843 16.3489 89.1219 16.3489C89.696 16.3489 90.1061 16.2013 90.3357 15.9224C90.5654 15.6435 90.6884 14.7823 90.7048 13.347H87.8752C87.9162 13.0846 87.9408 12.8057 87.9408 12.5104H87.1698Z" fill="#262A33"/>
<circle cx="7.7918" cy="11.0726" r="4.51104" fill="#D9D9D9"/>
<rect x="18.8643" y="9.84229" width="30.347" height="3.28076" rx="1.64038" fill="#EBEDF2"/>
<rect x="18.8643" y="18.0442" width="30.347" height="3.28076" rx="1.64038" fill="#EBEDF2"/>
<rect x="18.8643" y="26.246" width="30.347" height="3.28076" rx="1.64038" fill="#EBEDF2"/>
<rect x="18.8643" y="34.4479" width="30.347" height="3.28076" rx="1.64038" fill="#EBEDF2"/>
<rect x="59.0537" y="59.0536" width="187.823" height="18.8644" rx="1.64038" fill="white"/>
<path d="M79.578 64.908V66.24H82.8457V64.908H79.578ZM82.406 65.8791H80.0177V65.2755H82.406V65.8791ZM83.469 66.6862H78.9941V68.5366H79.4534V68.2675H83.0163V68.5366H83.469V66.6862ZM79.4534 67.8673V67.0799H83.0163V67.8673H79.4534ZM78.3773 62.9658V63.3792H79.8536V63.7663H80.326V63.3792H82.0714V63.7663H82.5438V63.3792H84.0202V62.9658H82.5438V62.5262H82.0714V62.9658H80.326V62.5262H79.8536V62.9658H78.3773ZM83.8365 64.0419H78.561V65.3017H79.0137V64.4422H83.3837V65.2689H83.8365V64.0419ZM88.7773 62.5328V64.3503H87.5306V68.5103H88.003V67.0602H90.0043V67.7492C90.0043 67.9526 89.919 68.0576 89.7549 68.0576L89.125 68.0379L89.2497 68.4906H89.9059C90.2864 68.4906 90.4767 68.2741 90.4767 67.8542V64.3503H89.2431V62.5328H88.7773ZM88.003 65.9316H90.0043V66.6534H88.003V65.9316ZM90.0043 65.5248H88.003V64.7965H90.0043V65.5248ZM87.7602 62.7821L87.36 62.9724C87.5831 63.2939 87.7865 63.6613 87.9768 64.0747L88.3573 63.8844C88.1671 63.4842 87.9702 63.1167 87.7602 62.7821ZM90.2536 62.7231C90.0961 63.1036 89.8927 63.4842 89.6303 63.8779L90.0174 64.0747C90.2733 63.6942 90.4833 63.307 90.6473 62.9068L90.2536 62.7231ZM85.6146 62.5262C85.4309 63.3136 85.1356 64.0354 84.7288 64.6915L85.1159 64.9343C85.3522 64.5668 85.5556 64.1535 85.7327 63.7007H87.091V63.2545H85.8902C85.9558 63.0511 86.0149 62.8412 86.0739 62.6181L85.6146 62.5262ZM85.4178 64.58V65.0065H85.8377V65.8332H84.9322V66.2728H85.8377V67.7689C85.8377 67.8542 85.7721 67.9198 85.6409 67.9657L85.8377 68.3725C86.3823 68.2282 86.8613 68.0379 87.2747 67.8082L87.1959 67.3883C86.8941 67.5654 86.5923 67.7098 86.297 67.8148V66.2728H87.2025V65.8332H86.297V65.0065H86.9794V64.58H85.4178ZM96.802 62.7296C95.8834 62.9921 94.7286 63.1299 93.3375 63.1299L93.4884 63.576C93.9871 63.576 94.4595 63.5564 94.9057 63.5236V65.3214H92.9963V65.7807H94.9057V67.841H93.3244V68.3069H96.9726V67.841H95.3782V65.7807H97.3007V65.3214H95.3782V63.4776C96.0081 63.4054 96.5592 63.2873 97.0317 63.1299L96.802 62.7296ZM92.8126 62.5262C92.4911 63.517 91.9793 64.3962 91.2706 65.1574L91.4216 65.6626C91.6775 65.4067 91.9137 65.1377 92.1236 64.8621V68.5431H92.5961V64.16C92.8585 63.7138 93.0816 63.2348 93.2522 62.7296L92.8126 62.5262ZM99.8597 62.4934C99.5841 63.1496 99.046 63.7007 98.2587 64.1535L98.5474 64.534C98.8492 64.3503 99.1182 64.1469 99.3676 63.9238C99.6825 64.1994 100.024 64.4487 100.391 64.6653C99.6694 64.954 98.8361 65.1639 97.8847 65.2952L98.1012 65.7413C99.1642 65.5773 100.102 65.3083 100.903 64.9408C101.717 65.3477 102.642 65.6101 103.678 65.7282L103.895 65.2886C102.983 65.1967 102.156 64.9933 101.415 64.6784C102.018 64.3372 102.53 63.9238 102.95 63.4383V63.0577H100.089C100.181 62.9002 100.266 62.7362 100.339 62.559L99.8597 62.4934ZM100.896 64.4356C100.457 64.206 100.05 63.9304 99.6825 63.6089L99.7678 63.5039H102.274C101.887 63.8582 101.428 64.1731 100.896 64.4356ZM100.496 65.4133C100.496 65.6757 100.47 65.9251 100.417 66.1613H98.3308V66.5878H100.286C100.234 66.719 100.162 66.8437 100.083 66.9618C99.7416 67.4408 99.0264 67.841 97.9503 68.156L98.2652 68.5431C99.4725 68.1625 100.24 67.6704 100.575 67.0799C100.66 66.9224 100.732 66.7584 100.785 66.5878H102.727C102.707 67.2439 102.648 67.6507 102.55 67.8082C102.445 67.9657 102.202 68.051 101.808 68.0576L101.034 68.0248L101.152 68.4513C101.454 68.4644 101.71 68.4775 101.92 68.4775C102.386 68.4775 102.714 68.366 102.904 68.1494C103.094 67.9329 103.193 67.2702 103.206 66.1613H100.896C100.936 65.9251 100.962 65.6757 100.962 65.4133H100.496ZM104.492 65.9513V66.3975H107.806V65.9513H104.492ZM110.171 63.0971C109.698 63.0971 109.311 63.2545 109.023 63.5695C108.734 63.8779 108.583 64.2978 108.583 64.8227H109.121C109.128 64.4094 109.226 64.0944 109.41 63.8844C109.58 63.6613 109.83 63.5564 110.151 63.5564C110.453 63.5564 110.696 63.6351 110.866 63.7926C111.037 63.9501 111.122 64.1666 111.122 64.4553C111.122 64.7571 110.998 65.0393 110.761 65.2952C110.637 65.4264 110.394 65.6167 110.027 65.8791C109.528 66.2203 109.193 66.5025 109.009 66.7125C108.695 67.0602 108.544 67.4473 108.544 67.8738H111.667V67.3948H109.206C109.292 67.0799 109.633 66.719 110.23 66.3188C110.715 65.9907 111.037 65.7348 111.201 65.5642C111.503 65.2361 111.66 64.8687 111.66 64.4619C111.66 64.055 111.516 63.7204 111.24 63.4711C110.958 63.2217 110.604 63.0971 110.171 63.0971ZM114.04 63.0971C113.475 63.0971 113.055 63.3398 112.773 63.8385C112.524 64.2584 112.399 64.8227 112.399 65.5314C112.399 66.24 112.524 66.8043 112.773 67.2243C113.055 67.7164 113.475 67.9657 114.04 67.9657C114.597 67.9657 115.017 67.7164 115.306 67.2243C115.555 66.8043 115.68 66.24 115.68 65.5314C115.68 64.8227 115.555 64.2584 115.306 63.8385C115.017 63.3398 114.597 63.0971 114.04 63.0971ZM114.04 63.5564C114.46 63.5564 114.761 63.7795 114.945 64.2322C115.076 64.5472 115.149 64.9802 115.149 65.5314C115.149 66.076 115.076 66.509 114.945 66.8306C114.761 67.2767 114.46 67.5064 114.04 67.5064C113.62 67.5064 113.318 67.2767 113.134 66.8306C113.003 66.509 112.937 66.076 112.937 65.5314C112.937 64.9802 113.003 64.5472 113.134 64.2322C113.318 63.7795 113.62 63.5564 114.04 63.5564ZM118.04 63.0971C117.567 63.0971 117.18 63.2545 116.891 63.5695C116.603 63.8779 116.452 64.2978 116.452 64.8227H116.99C116.996 64.4094 117.095 64.0944 117.278 63.8844C117.449 63.6613 117.698 63.5564 118.02 63.5564C118.322 63.5564 118.564 63.6351 118.735 63.7926C118.906 63.9501 118.991 64.1666 118.991 64.4553C118.991 64.7571 118.866 65.0393 118.63 65.2952C118.505 65.4264 118.263 65.6167 117.895 65.8791C117.397 66.2203 117.062 66.5025 116.878 66.7125C116.563 67.0602 116.412 67.4473 116.412 67.8738H119.536V67.3948H117.075C117.16 67.0799 117.502 66.719 118.099 66.3188C118.584 65.9907 118.906 65.7348 119.07 65.5642C119.372 65.2361 119.529 64.8687 119.529 64.4619C119.529 64.055 119.385 63.7204 119.109 63.4711C118.827 63.2217 118.473 63.0971 118.04 63.0971ZM121.974 63.0971C121.501 63.0971 121.114 63.2545 120.826 63.5695C120.537 63.8779 120.386 64.2978 120.386 64.8227H120.924C120.931 64.4094 121.029 64.0944 121.213 63.8844C121.383 63.6613 121.633 63.5564 121.954 63.5564C122.256 63.5564 122.499 63.6351 122.669 63.7926C122.84 63.9501 122.925 64.1666 122.925 64.4553C122.925 64.7571 122.801 65.0393 122.564 65.2952C122.44 65.4264 122.197 65.6167 121.83 65.8791C121.331 66.2203 120.996 66.5025 120.813 66.7125C120.498 67.0602 120.347 67.4473 120.347 67.8738H123.47V67.3948H121.009C121.095 67.0799 121.436 66.719 122.033 66.3188C122.519 65.9907 122.84 65.7348 123.004 65.5642C123.306 65.2361 123.463 64.8687 123.463 64.4619C123.463 64.055 123.319 63.7204 123.043 63.4711C122.761 63.2217 122.407 63.0971 121.974 63.0971ZM125.383 63.1889C125.226 63.3661 125.042 63.5236 124.819 63.6679C124.596 63.7991 124.373 63.891 124.163 63.9501V64.4881C124.603 64.3569 124.97 64.1469 125.265 63.8451V67.8738H125.803V63.1889H125.383ZM128.476 63.0971C127.912 63.0971 127.492 63.3398 127.21 63.8385C126.961 64.2584 126.836 64.8227 126.836 65.5314C126.836 66.24 126.961 66.8043 127.21 67.2243C127.492 67.7164 127.912 67.9657 128.476 67.9657C129.034 67.9657 129.454 67.7164 129.743 67.2243C129.992 66.8043 130.117 66.24 130.117 65.5314C130.117 64.8227 129.992 64.2584 129.743 63.8385C129.454 63.3398 129.034 63.0971 128.476 63.0971ZM128.476 63.5564C128.896 63.5564 129.198 63.7795 129.382 64.2322C129.513 64.5472 129.585 64.9802 129.585 65.5314C129.585 66.076 129.513 66.509 129.382 66.8306C129.198 67.2767 128.896 67.5064 128.476 67.5064C128.056 67.5064 127.754 67.2767 127.571 66.8306C127.44 66.509 127.374 66.076 127.374 65.5314C127.374 64.9802 127.44 64.5472 127.571 64.2322C127.754 63.7795 128.056 63.5564 128.476 63.5564ZM132.476 63.0971C132.004 63.0971 131.617 63.2545 131.328 63.5695C131.039 63.8779 130.888 64.2978 130.888 64.8227H131.426C131.433 64.4094 131.531 64.0944 131.715 63.8844C131.886 63.6613 132.135 63.5564 132.457 63.5564C132.758 63.5564 133.001 63.6351 133.172 63.7926C133.342 63.9501 133.428 64.1666 133.428 64.4553C133.428 64.7571 133.303 65.0393 133.067 65.2952C132.942 65.4264 132.699 65.6167 132.332 65.8791C131.833 66.2203 131.499 66.5025 131.315 66.7125C131 67.0602 130.849 67.4473 130.849 67.8738H133.972V67.3948H131.512C131.597 67.0799 131.938 66.719 132.535 66.3188C133.021 65.9907 133.342 65.7348 133.506 65.5642C133.808 65.2361 133.966 64.8687 133.966 64.4619C133.966 64.055 133.821 63.7204 133.546 63.4711C133.264 63.2217 132.909 63.0971 132.476 63.0971ZM134.6 63.1889V63.681H137.126L135.38 67.8738H135.951L137.677 63.6285V63.1889H134.6ZM138.293 65.9513V66.3975H141.606V65.9513H138.293ZM143.906 63.0971C143.342 63.0971 142.922 63.3398 142.64 63.8385C142.39 64.2584 142.266 64.8227 142.266 65.5314C142.266 66.24 142.39 66.8043 142.64 67.2243C142.922 67.7164 143.342 67.9657 143.906 67.9657C144.464 67.9657 144.884 67.7164 145.172 67.2243C145.422 66.8043 145.546 66.24 145.546 65.5314C145.546 64.8227 145.422 64.2584 145.172 63.8385C144.884 63.3398 144.464 63.0971 143.906 63.0971ZM143.906 63.5564C144.326 63.5564 144.628 63.7795 144.812 64.2322C144.943 64.5472 145.015 64.9802 145.015 65.5314C145.015 66.076 144.943 66.509 144.812 66.8306C144.628 67.2767 144.326 67.5064 143.906 67.5064C143.486 67.5064 143.184 67.2767 143.001 66.8306C142.869 66.509 142.804 66.076 142.804 65.5314C142.804 64.9802 142.869 64.5472 143.001 64.2322C143.184 63.7795 143.486 63.5564 143.906 63.5564ZM147.381 63.1889C147.224 63.3661 147.04 63.5236 146.817 63.6679C146.594 63.7991 146.371 63.891 146.161 63.9501V64.4881C146.6 64.3569 146.968 64.1469 147.263 63.8451V67.8738H147.801V63.1889H147.381Z" fill="#262A33"/>
<path d="M78.0508 71.8911L78.9514 73.0869L77.9426 74.4353H78.4101L79.1729 73.3773L79.9307 74.4353H80.3982L79.3894 73.0869L80.29 71.8911H79.8274L79.1729 72.7966L78.5134 71.8911H78.0508ZM80.5547 71.8911L81.4552 73.0869L80.4464 74.4353H80.9139L81.6767 73.3773L82.4345 74.4353H82.902L81.8932 73.0869L82.7938 71.8911H82.3312L81.6767 72.7966L81.0172 71.8911H80.5547ZM83.1717 72.9934V73.328H85.6568V72.9934H83.1717ZM86.0381 71.8911L86.9386 73.0869L85.9298 74.4353H86.3973L87.1601 73.3773L87.9179 74.4353H88.3855L87.3766 73.0869L88.2772 71.8911H87.8146L87.1601 72.7966L86.5007 71.8911H86.0381ZM88.5419 71.8911L89.4425 73.0869L88.4336 74.4353H88.9011L89.6639 73.3773L90.4218 74.4353H90.8893L89.8804 73.0869L90.781 71.8911H90.3184L89.6639 72.7966L89.0045 71.8911H88.5419ZM91.1589 72.9934V73.328H93.6441V72.9934H91.1589ZM94.0253 71.8911L94.9259 73.0869L93.917 74.4353H94.3845L95.1473 73.3773L95.9052 74.4353H96.3727L95.3639 73.0869L96.2644 71.8911H95.8018L95.1473 72.7966L94.4879 71.8911H94.0253ZM96.5291 71.8911L97.4297 73.0869L96.4209 74.4353H96.8884L97.6511 73.3773L98.409 74.4353H98.8765L97.8677 73.0869L98.7682 71.8911H98.3057L97.6511 72.7966L96.9917 71.8911H96.5291Z" fill="#747A8C"/>
<rect x="62.3345" y="62.3344" width="12.3028" height="12.3028" rx="1.64038" fill="#EBEDF2"/>
<rect x="59.0537" y="82.0189" width="187.823" height="18.8644" rx="1.64038" fill="white"/>
<path d="M83.679 85.6949C82.7604 85.9573 81.6055 86.0951 80.2145 86.0951L80.3654 86.5413C80.8641 86.5413 81.3365 86.5216 81.7827 86.4888V88.2867H79.8733V88.746H81.7827V90.8063H80.2014V91.2722H83.8496V90.8063H82.2551V88.746H84.1777V88.2867H82.2551V86.4429C82.885 86.3707 83.4362 86.2526 83.9086 86.0951L83.679 85.6949ZM79.6896 85.4915C79.3681 86.4823 78.8563 87.3615 78.1476 88.1226L78.2985 88.6279C78.5544 88.372 78.7907 88.103 79.0006 87.8274V91.5084H79.473V87.1253C79.7355 86.6791 79.9586 86.2001 80.1292 85.6949L79.6896 85.4915ZM86.7366 85.4587C86.4611 86.1148 85.923 86.666 85.1356 87.1187L85.4243 87.4993C85.7262 87.3156 85.9952 87.1122 86.2445 86.8891C86.5595 87.1647 86.9007 87.414 87.2681 87.6305C86.5464 87.9192 85.713 88.1292 84.7616 88.2604L84.9782 88.7066C86.0411 88.5426 86.9794 88.2736 87.7799 87.9061C88.5936 88.3129 89.5187 88.5754 90.5554 88.6935L90.772 88.2539C89.8599 88.162 89.0332 87.9586 88.2917 87.6437C88.8954 87.3025 89.4072 86.8891 89.8271 86.4035V86.023H86.9663C87.0582 85.8655 87.1435 85.7014 87.2156 85.5243L86.7366 85.4587ZM87.7734 87.4009C87.3337 87.1712 86.9269 86.8956 86.5595 86.5741L86.6448 86.4691H89.1513C88.7642 86.8235 88.3048 87.1384 87.7734 87.4009ZM87.3731 88.3785C87.3731 88.641 87.3469 88.8903 87.2944 89.1266H85.2078V89.5531H87.1631C87.1106 89.6843 87.0385 89.809 86.9597 89.9271C86.6185 90.4061 85.9033 90.8063 84.8272 91.1213L85.1422 91.5084C86.3495 91.1278 87.1172 90.6357 87.4518 90.0452C87.5371 89.8877 87.6093 89.7237 87.6618 89.5531H89.604C89.5843 90.2092 89.5253 90.616 89.4269 90.7735C89.3219 90.931 89.0791 91.0163 88.6854 91.0228L87.9112 90.99L88.0293 91.4165C88.3311 91.4296 88.587 91.4428 88.797 91.4428C89.2628 91.4428 89.5909 91.3312 89.7812 91.1147C89.9715 90.8982 90.0699 90.2355 90.083 89.1266H87.7734C87.8127 88.8903 87.839 88.641 87.839 88.3785H87.3731ZM94.0855 87.0597V88.6082H91.9596V89.0478H94.0855V90.8063H91.415V91.2722H97.2351V90.8063H94.5645V89.0478H96.6905V88.6082H94.5645V87.0597H97.0054V86.5938H94.3021L94.558 86.4954C94.4661 86.1804 94.3414 85.8392 94.1774 85.4652L93.7181 85.5899C93.8756 85.9114 94.0134 86.2461 94.1249 86.5938H91.6447V87.0597H94.0855ZM102.425 90.9441C101.08 90.9441 100.221 90.885 99.84 90.7669C99.8137 90.7538 99.7809 90.7407 99.7416 90.7276V90.0124H100.64V89.5924H99.7416V88.8969H100.805V88.4638H98.0224V88.8969H99.3216V90.4914C99.1182 90.3404 98.9279 90.1305 98.7573 89.8614C98.7901 89.6646 98.8098 89.4612 98.823 89.2381L98.403 89.1856C98.3702 89.9336 98.1799 90.6029 97.8256 91.2L98.1668 91.5018C98.3768 91.1475 98.5408 90.7604 98.6589 90.3404C98.9279 90.721 99.2363 90.99 99.5841 91.1344C99.9778 91.305 100.955 91.3903 102.53 91.3903H103.823L103.902 90.9178C103.573 90.931 103.081 90.9441 102.425 90.9441ZM98.3177 85.7343V88.0242H100.555V85.7343H98.3177ZM100.096 87.6305H98.777V87.0728H100.096V87.6305ZM98.777 86.7054V86.1279H100.096V86.7054H98.777ZM100.896 85.7408V86.1739H102.123C102.104 86.351 102.077 86.5282 102.038 86.6988H101.1V89.3496H101.52V87.1056H103.108V89.3496H103.547V86.6988H102.465C102.504 86.5282 102.53 86.3576 102.55 86.1739H103.731V85.7408H100.896ZM102.786 89.3693L102.471 89.6712C102.898 90.0124 103.232 90.3404 103.475 90.6423L103.81 90.3142C103.534 89.9992 103.193 89.6843 102.786 89.3693ZM102.097 87.414V88.3392C102.084 88.8313 101.986 89.2315 101.815 89.5399C101.625 89.8352 101.297 90.0714 100.824 90.242L101.08 90.6488C101.579 90.452 101.946 90.183 102.169 89.8352C102.392 89.4612 102.517 88.9625 102.53 88.3392V87.414H102.097ZM106.198 86.0623C105.726 86.0623 105.339 86.2198 105.05 86.5348C104.761 86.8431 104.61 87.2631 104.61 87.788H105.148C105.155 87.3746 105.253 87.0597 105.437 86.8497C105.608 86.6266 105.857 86.5216 106.178 86.5216C106.48 86.5216 106.723 86.6004 106.894 86.7578C107.064 86.9153 107.15 87.1319 107.15 87.4206C107.15 87.7224 107.025 88.0045 106.789 88.2604C106.664 88.3917 106.421 88.582 106.054 88.8444C105.555 89.1856 105.22 89.4678 105.037 89.6777C104.722 90.0255 104.571 90.4126 104.571 90.8391H107.694V90.3601H105.234C105.319 90.0452 105.66 89.6843 106.257 89.284C106.743 88.956 107.064 88.7001 107.228 88.5295C107.53 88.2014 107.688 87.8339 107.688 87.4271C107.688 87.0203 107.543 86.6857 107.268 86.4363C106.985 86.187 106.631 86.0623 106.198 86.0623Z" fill="#262A33"/>
<path d="M78.0508 94.8564L78.9514 96.0522L77.9426 97.4006H78.4101L79.1729 96.3426L79.9307 97.4006H80.3982L79.3894 96.0522L80.29 94.8564H79.8274L79.1729 95.7619L78.5134 94.8564H78.0508ZM80.5547 94.8564L81.4552 96.0522L80.4464 97.4006H80.9139L81.6767 96.3426L82.4345 97.4006H82.902L81.8932 96.0522L82.7938 94.8564H82.3312L81.6767 95.7619L81.0172 94.8564H80.5547ZM83.1717 95.9587V96.2934H85.6568V95.9587H83.1717ZM86.0381 94.8564L86.9386 96.0522L85.9298 97.4006H86.3973L87.1601 96.3426L87.9179 97.4006H88.3855L87.3766 96.0522L88.2772 94.8564H87.8146L87.1601 95.7619L86.5007 94.8564H86.0381ZM88.5419 94.8564L89.4425 96.0522L88.4336 97.4006H88.9011L89.6639 96.3426L90.4218 97.4006H90.8893L89.8804 96.0522L90.781 94.8564H90.3184L89.6639 95.7619L89.0045 94.8564H88.5419ZM91.1589 95.9587V96.2934H93.6441V95.9587H91.1589ZM94.0253 94.8564L94.9259 96.0522L93.917 97.4006H94.3845L95.1473 96.3426L95.9052 97.4006H96.3727L95.3639 96.0522L96.2644 94.8564H95.8018L95.1473 95.7619L94.4879 94.8564H94.0253ZM96.5291 94.8564L97.4297 96.0522L96.4209 97.4006H96.8884L97.6511 96.3426L98.409 97.4006H98.8765L97.8677 96.0522L98.7682 94.8564H98.3057L97.6511 95.7619L96.9917 94.8564H96.5291Z" fill="#747A8C"/>
<rect x="62.3345" y="85.2997" width="12.3028" height="12.3028" rx="1.64038" fill="#EBEDF2"/>
<rect x="59.0537" y="104.984" width="187.823" height="18.8644" rx="1.64038" fill="white"/>
<path d="M83.679 108.66C82.7604 108.923 81.6055 109.06 80.2145 109.06L80.3654 109.507C80.8641 109.507 81.3365 109.487 81.7827 109.454V111.252H79.8733V111.711H81.7827V113.772H80.2014V114.238H83.8496V113.772H82.2551V111.711H84.1777V111.252H82.2551V109.408C82.885 109.336 83.4362 109.218 83.9086 109.06L83.679 108.66ZM79.6896 108.457C79.3681 109.448 78.8563 110.327 78.1476 111.088L78.2985 111.593C78.5544 111.337 78.7907 111.068 79.0006 110.793V114.474H79.473V110.091C79.7355 109.644 79.9586 109.165 80.1292 108.66L79.6896 108.457ZM86.7366 108.424C86.4611 109.08 85.923 109.631 85.1356 110.084L85.4243 110.465C85.7262 110.281 85.9952 110.078 86.2445 109.854C86.5595 110.13 86.9007 110.379 87.2681 110.596C86.5464 110.885 85.713 111.095 84.7616 111.226L84.9782 111.672C86.0411 111.508 86.9794 111.239 87.7799 110.871C88.5936 111.278 89.5187 111.541 90.5554 111.659L90.772 111.219C89.8599 111.127 89.0332 110.924 88.2917 110.609C88.8954 110.268 89.4072 109.854 89.8271 109.369V108.988H86.9663C87.0582 108.831 87.1435 108.667 87.2156 108.49L86.7366 108.424ZM87.7734 110.366C87.3337 110.137 86.9269 109.861 86.5595 109.539L86.6448 109.434H89.1513C88.7642 109.789 88.3048 110.104 87.7734 110.366ZM87.3731 111.344C87.3731 111.606 87.3469 111.856 87.2944 112.092H85.2078V112.518H87.1631C87.1106 112.65 87.0385 112.774 86.9597 112.892C86.6185 113.371 85.9033 113.772 84.8272 114.087L85.1422 114.474C86.3495 114.093 87.1172 113.601 87.4518 113.011C87.5371 112.853 87.6093 112.689 87.6618 112.518H89.604C89.5843 113.175 89.5253 113.581 89.4269 113.739C89.3219 113.896 89.0791 113.982 88.6854 113.988L87.9112 113.955L88.0293 114.382C88.3311 114.395 88.587 114.408 88.797 114.408C89.2628 114.408 89.5909 114.297 89.7812 114.08C89.9715 113.863 90.0699 113.201 90.083 112.092H87.7734C87.8127 111.856 87.839 111.606 87.839 111.344H87.3731ZM94.0855 110.025V111.574H91.9596V112.013H94.0855V113.772H91.415V114.238H97.2351V113.772H94.5645V112.013H96.6905V111.574H94.5645V110.025H97.0054V109.559H94.3021L94.558 109.461C94.4661 109.146 94.3414 108.805 94.1774 108.431L93.7181 108.555C93.8756 108.877 94.0134 109.211 94.1249 109.559H91.6447V110.025H94.0855ZM102.425 113.909C101.08 113.909 100.221 113.85 99.84 113.732C99.8137 113.719 99.7809 113.706 99.7416 113.693V112.978H100.64V112.558H99.7416V111.862H100.805V111.429H98.0224V111.862H99.3216V113.457C99.1182 113.306 98.9279 113.096 98.7573 112.827C98.7901 112.63 98.8098 112.427 98.823 112.203L98.403 112.151C98.3702 112.899 98.1799 113.568 97.8256 114.165L98.1668 114.467C98.3768 114.113 98.5408 113.726 98.6589 113.306C98.9279 113.686 99.2363 113.955 99.5841 114.1C99.9778 114.27 100.955 114.356 102.53 114.356H103.823L103.902 113.883C103.573 113.896 103.081 113.909 102.425 113.909ZM98.3177 108.7V110.99H100.555V108.7H98.3177ZM100.096 110.596H98.777V110.038H100.096V110.596ZM98.777 109.671V109.093H100.096V109.671H98.777ZM100.896 108.706V109.139H102.123C102.104 109.316 102.077 109.494 102.038 109.664H101.1V112.315H101.52V110.071H103.108V112.315H103.547V109.664H102.465C102.504 109.494 102.53 109.323 102.55 109.139H103.731V108.706H100.896ZM102.786 112.335L102.471 112.636C102.898 112.978 103.232 113.306 103.475 113.608L103.81 113.28C103.534 112.965 103.193 112.65 102.786 112.335ZM102.097 110.379V111.305C102.084 111.797 101.986 112.197 101.815 112.505C101.625 112.801 101.297 113.037 100.824 113.207L101.08 113.614C101.579 113.417 101.946 113.148 102.169 112.801C102.392 112.427 102.517 111.928 102.53 111.305V110.379H102.097ZM106.178 109.028C105.732 109.028 105.371 109.152 105.096 109.408C104.807 109.664 104.636 110.018 104.597 110.471H105.129C105.161 110.156 105.266 109.913 105.45 109.743C105.627 109.572 105.87 109.494 106.185 109.494C106.487 109.494 106.73 109.566 106.9 109.723C107.058 109.868 107.143 110.071 107.143 110.333C107.143 110.596 107.058 110.799 106.894 110.944C106.73 111.081 106.493 111.154 106.178 111.154H105.818V111.574H106.198C106.526 111.574 106.776 111.646 106.959 111.803C107.143 111.961 107.235 112.177 107.235 112.459C107.235 112.735 107.136 112.965 106.953 113.148C106.749 113.339 106.48 113.437 106.146 113.437C105.85 113.437 105.608 113.352 105.411 113.194C105.181 113.004 105.056 112.722 105.043 112.354H104.499C104.538 112.879 104.722 113.28 105.056 113.555C105.339 113.778 105.699 113.896 106.146 113.896C106.631 113.896 107.025 113.759 107.327 113.483C107.622 113.214 107.773 112.866 107.773 112.44C107.773 112.164 107.694 111.934 107.537 111.751C107.392 111.567 107.182 111.436 106.907 111.35C107.419 111.18 107.674 110.826 107.674 110.301C107.674 109.907 107.537 109.599 107.268 109.369C106.992 109.139 106.625 109.028 106.178 109.028Z" fill="#262A33"/>
<path d="M78.0508 117.822L78.9514 119.018L77.9426 120.366H78.4101L79.1729 119.308L79.9307 120.366H80.3982L79.3894 119.018L80.29 117.822H79.8274L79.1729 118.727L78.5134 117.822H78.0508ZM80.5547 117.822L81.4552 119.018L80.4464 120.366H80.9139L81.6767 119.308L82.4345 120.366H82.902L81.8932 119.018L82.7938 117.822H82.3312L81.6767 118.727L81.0172 117.822H80.5547ZM83.1717 118.924V119.259H85.6568V118.924H83.1717ZM86.0381 117.822L86.9386 119.018L85.9298 120.366H86.3973L87.1601 119.308L87.9179 120.366H88.3855L87.3766 119.018L88.2772 117.822H87.8146L87.1601 118.727L86.5007 117.822H86.0381ZM88.5419 117.822L89.4425 119.018L88.4336 120.366H88.9011L89.6639 119.308L90.4218 120.366H90.8893L89.8804 119.018L90.781 117.822H90.3184L89.6639 118.727L89.0045 117.822H88.5419ZM91.1589 118.924V119.259H93.6441V118.924H91.1589ZM94.0253 117.822L94.9259 119.018L93.917 120.366H94.3845L95.1473 119.308L95.9052 120.366H96.3727L95.3639 119.018L96.2644 117.822H95.8018L95.1473 118.727L94.4879 117.822H94.0253ZM96.5291 117.822L97.4297 119.018L96.4209 120.366H96.8884L97.6511 119.308L98.409 120.366H98.8765L97.8677 119.018L98.7682 117.822H98.3057L97.6511 118.727L96.9917 117.822H96.5291Z" fill="#747A8C"/>
<rect x="62.3345" y="108.265" width="12.3028" height="12.3028" rx="1.64038" fill="#EBEDF2"/>
<rect x="59.0537" y="127.95" width="187.823" height="18.8644" rx="1.64038" fill="white"/>
<path d="M83.679 131.625C82.7604 131.888 81.6055 132.026 80.2145 132.026L80.3654 132.472C80.8641 132.472 81.3365 132.452 81.7827 132.419V134.217H79.8733V134.677H81.7827V136.737H80.2014V137.203H83.8496V136.737H82.2551V134.677H84.1777V134.217H82.2551V132.373C82.885 132.301 83.4362 132.183 83.9086 132.026L83.679 131.625ZM79.6896 131.422C79.3681 132.413 78.8563 133.292 78.1476 134.053L78.2985 134.558C78.5544 134.303 78.7907 134.034 79.0006 133.758V137.439H79.473V133.056C79.7355 132.61 79.9586 132.131 80.1292 131.625L79.6896 131.422ZM86.7366 131.389C86.4611 132.045 85.923 132.597 85.1356 133.049L85.4243 133.43C85.7262 133.246 85.9952 133.043 86.2445 132.82C86.5595 133.095 86.9007 133.345 87.2681 133.561C86.5464 133.85 85.713 134.06 84.7616 134.191L84.9782 134.637C86.0411 134.473 86.9794 134.204 87.7799 133.837C88.5936 134.244 89.5187 134.506 90.5554 134.624L90.772 134.184C89.8599 134.093 89.0332 133.889 88.2917 133.574C88.8954 133.233 89.4072 132.82 89.8271 132.334V131.954H86.9663C87.0582 131.796 87.1435 131.632 87.2156 131.455L86.7366 131.389ZM87.7734 133.331C87.3337 133.102 86.9269 132.826 86.5595 132.505L86.6448 132.4H89.1513C88.7642 132.754 88.3048 133.069 87.7734 133.331ZM87.3731 134.309C87.3731 134.572 87.3469 134.821 87.2944 135.057H85.2078V135.484H87.1631C87.1106 135.615 87.0385 135.74 86.9597 135.858C86.6185 136.337 85.9033 136.737 84.8272 137.052L85.1422 137.439C86.3495 137.058 87.1172 136.566 87.4518 135.976C87.5371 135.818 87.6093 135.654 87.6618 135.484H89.604C89.5843 136.14 89.5253 136.547 89.4269 136.704C89.3219 136.862 89.0791 136.947 88.6854 136.953L87.9112 136.921L88.0293 137.347C88.3311 137.36 88.587 137.373 88.797 137.373C89.2628 137.373 89.5909 137.262 89.7812 137.045C89.9715 136.829 90.0699 136.166 90.083 135.057H87.7734C87.8127 134.821 87.839 134.572 87.839 134.309H87.3731ZM94.0855 132.99V134.539H91.9596V134.978H94.0855V136.737H91.415V137.203H97.2351V136.737H94.5645V134.978H96.6905V134.539H94.5645V132.99H97.0054V132.524H94.3021L94.558 132.426C94.4661 132.111 94.3414 131.77 94.1774 131.396L93.7181 131.521C93.8756 131.842 94.0134 132.177 94.1249 132.524H91.6447V132.99H94.0855ZM102.425 136.875C101.08 136.875 100.221 136.816 99.84 136.698C99.8137 136.684 99.7809 136.671 99.7416 136.658V135.943H100.64V135.523H99.7416V134.828H100.805V134.394H98.0224V134.828H99.3216V136.422C99.1182 136.271 98.9279 136.061 98.7573 135.792C98.7901 135.595 98.8098 135.392 98.823 135.169L98.403 135.116C98.3702 135.864 98.1799 136.533 97.8256 137.131L98.1668 137.432C98.3768 137.078 98.5408 136.691 98.6589 136.271C98.9279 136.652 99.2363 136.921 99.5841 137.065C99.9778 137.236 100.955 137.321 102.53 137.321H103.823L103.902 136.848C103.573 136.862 103.081 136.875 102.425 136.875ZM98.3177 131.665V133.955H100.555V131.665H98.3177ZM100.096 133.561H98.777V133.003H100.096V133.561ZM98.777 132.636V132.059H100.096V132.636H98.777ZM100.896 131.671V132.104H102.123C102.104 132.282 102.077 132.459 102.038 132.629H101.1V135.28H101.52V133.036H103.108V135.28H103.547V132.629H102.465C102.504 132.459 102.53 132.288 102.55 132.104H103.731V131.671H100.896ZM102.786 135.3L102.471 135.602C102.898 135.943 103.232 136.271 103.475 136.573L103.81 136.245C103.534 135.93 103.193 135.615 102.786 135.3ZM102.097 133.345V134.27C102.084 134.762 101.986 135.162 101.815 135.471C101.625 135.766 101.297 136.002 100.824 136.173L101.08 136.579C101.579 136.383 101.946 136.114 102.169 135.766C102.392 135.392 102.517 134.893 102.53 134.27V133.345H102.097ZM106.684 132.085L104.322 135.195V135.707H106.677V136.77H107.189V135.707H107.95V135.267H107.189V132.085H106.684ZM106.657 132.787H106.677V135.267H104.774L106.657 132.787Z" fill="#262A33"/>
<path d="M78.0508 140.787L78.9514 141.983L77.9426 143.331H78.4101L79.1729 142.273L79.9307 143.331H80.3982L79.3894 141.983L80.29 140.787H79.8274L79.1729 141.692L78.5134 140.787H78.0508ZM80.5547 140.787L81.4552 141.983L80.4464 143.331H80.9139L81.6767 142.273L82.4345 143.331H82.902L81.8932 141.983L82.7938 140.787H82.3312L81.6767 141.692L81.0172 140.787H80.5547ZM83.1717 141.889V142.224H85.6568V141.889H83.1717ZM86.0381 140.787L86.9386 141.983L85.9298 143.331H86.3973L87.1601 142.273L87.9179 143.331H88.3855L87.3766 141.983L88.2772 140.787H87.8146L87.1601 141.692L86.5007 140.787H86.0381ZM88.5419 140.787L89.4425 141.983L88.4336 143.331H88.9011L89.6639 142.273L90.4218 143.331H90.8893L89.8804 141.983L90.781 140.787H90.3184L89.6639 141.692L89.0045 140.787H88.5419ZM91.1589 141.889V142.224H93.6441V141.889H91.1589ZM94.0253 140.787L94.9259 141.983L93.917 143.331H94.3845L95.1473 142.273L95.9052 143.331H96.3727L95.3639 141.983L96.2644 140.787H95.8018L95.1473 141.692L94.4879 140.787H94.0253ZM96.5291 140.787L97.4297 141.983L96.4209 143.331H96.8884L97.6511 142.273L98.409 143.331H98.8765L97.8677 141.983L98.7682 140.787H98.3057L97.6511 141.692L96.9917 140.787H96.5291Z" fill="#747A8C"/>
<rect x="62.3345" y="131.23" width="12.3028" height="12.3028" rx="1.64038" fill="#EBEDF2"/>
</g>
<g filter="url(#filter0_d_10173_170189)">
<rect x="39" y="54" width="221" height="32" rx="2" fill="white"/>
<rect x="39.25" y="54.25" width="220.5" height="31.5" rx="1.75" stroke="#EBEDF2" stroke-width="0.5"/>
</g>
<line x1="69" y1="73" x2="158" y2="73" stroke="#FFB54C" stroke-width="2"/>
<path d="M71.1317 64.1579V66.1559H76.0331V64.1579H71.1317ZM75.3737 65.6146H71.7911V64.7091H75.3737V65.6146ZM76.9682 66.8252H70.2557V69.6007H70.9447V69.1972H76.289V69.6007H76.9682V66.8252ZM70.9447 68.5968V67.4157H76.289V68.5968H70.9447ZM69.3306 61.2446V61.8647H71.5451V62.4454H72.2537V61.8647H74.8718V62.4454H75.5804V61.8647H77.7949V61.2446H75.5804V60.5852H74.8718V61.2446H72.2537V60.5852H71.5451V61.2446H69.3306ZM77.5193 62.8587H69.6061V64.7485H70.2853V63.4591H76.8402V64.6992H77.5193V62.8587ZM84.9306 60.595V63.3213H83.0605V69.5613H83.7692V67.3862H86.7711V68.4196C86.7711 68.7247 86.6431 68.8822 86.3971 68.8822L85.4522 68.8527L85.6392 69.5318H86.6234C87.1943 69.5318 87.4797 69.207 87.4797 68.5771V63.3213H85.6294V60.595H84.9306ZM83.7692 65.6933H86.7711V66.776H83.7692V65.6933ZM86.7711 65.0831H83.7692V63.9906H86.7711V65.0831ZM83.405 60.969L82.8046 61.2545C83.1393 61.7367 83.4444 62.2879 83.7298 62.908L84.3007 62.6225C84.0152 62.0221 83.72 61.471 83.405 60.969ZM87.1451 60.8804C86.9089 61.4513 86.6037 62.0221 86.2101 62.6127L86.7907 62.908C87.1746 62.3371 87.4896 61.7564 87.7356 61.156L87.1451 60.8804ZM80.1866 60.5852C79.911 61.7662 79.4681 62.8489 78.8579 63.8331L79.4386 64.1973C79.7929 63.6461 80.098 63.0261 80.3637 62.3469H82.4011V61.6777H80.6C80.6984 61.3726 80.787 61.0576 80.8755 60.723L80.1866 60.5852ZM79.8913 63.6658V64.3056H80.5212V65.5457H79.163V66.2051H80.5212V68.4492C80.5212 68.5771 80.4228 68.6755 80.226 68.7444L80.5212 69.3546C81.3381 69.1381 82.0566 68.8527 82.6767 68.5082L82.5586 67.8783C82.1058 68.144 81.6531 68.3606 81.2102 68.518V66.2051H82.5684V65.5457H81.2102V64.3056H82.2338V63.6658H79.8913ZM96.9677 60.8903C95.5897 61.284 93.8575 61.4907 91.7709 61.4907L91.9973 62.1599C92.7453 62.1599 93.454 62.1304 94.1232 62.0812V64.778H91.2591V65.4669H94.1232V68.5574H91.7513V69.2562H97.2236V68.5574H94.8319V65.4669H97.7157V64.778H94.8319V62.0123C95.7767 61.904 96.6035 61.7269 97.3121 61.4907L96.9677 60.8903ZM90.9836 60.5852C90.5013 62.0714 89.7336 63.3902 88.6706 64.5319L88.897 65.2898C89.2808 64.9059 89.6352 64.5024 89.9501 64.089V69.6105H90.6588V63.0359C91.0525 62.3666 91.3871 61.6481 91.643 60.8903L90.9836 60.5852ZM101.554 60.536C101.141 61.5202 100.334 62.3469 99.1526 63.0261L99.5857 63.5969C100.038 63.3213 100.442 63.0162 100.816 62.6816C101.288 63.095 101.8 63.469 102.351 63.7938C101.269 64.2268 100.019 64.5418 98.5916 64.7386L98.9164 65.4079C100.511 65.1618 101.918 64.7583 103.119 64.2071C104.34 64.8174 105.727 65.211 107.282 65.3882L107.607 64.7288C106.239 64.591 104.999 64.2859 103.887 63.8134C104.792 63.3016 105.56 62.6816 106.19 61.9533V61.3824H101.899C102.036 61.1462 102.164 60.9001 102.273 60.6344L101.554 60.536ZM103.109 63.4493C102.45 63.1048 101.84 62.6914 101.288 62.2092L101.416 62.0517H105.176C104.595 62.5832 103.906 63.0556 103.109 63.4493ZM102.509 64.9158C102.509 65.3095 102.469 65.6835 102.391 66.0378H99.2609V66.6775H102.194C102.115 66.8744 102.007 67.0614 101.889 67.2386C101.377 67.957 100.304 68.5574 98.6901 69.0298L99.1625 69.6105C100.973 69.0397 102.125 68.3015 102.627 67.4157C102.755 67.1795 102.863 66.9334 102.942 66.6775H105.855C105.826 67.6618 105.737 68.272 105.589 68.5082C105.432 68.7444 105.068 68.8724 104.477 68.8822L103.316 68.833L103.493 69.4727C103.946 69.4924 104.33 69.5121 104.645 69.5121C105.343 69.5121 105.836 69.3448 106.121 69.02C106.406 68.6952 106.554 67.7011 106.574 66.0378H103.109C103.168 65.6835 103.208 65.3095 103.208 64.9158H102.509ZM108.503 65.7228V66.3921H113.473V65.7228H108.503ZM117.021 61.4415C116.312 61.4415 115.732 61.6777 115.299 62.1501C114.866 62.6127 114.639 63.2426 114.639 64.03H115.446C115.456 63.4099 115.604 62.9375 115.879 62.6225C116.135 62.2879 116.509 62.1304 116.991 62.1304C117.444 62.1304 117.808 62.2485 118.064 62.4847C118.32 62.7209 118.448 63.0457 118.448 63.4788C118.448 63.9315 118.261 64.3548 117.907 64.7386C117.72 64.9355 117.356 65.2209 116.804 65.6146C116.056 66.1264 115.554 66.5496 115.279 66.8645C114.806 67.3862 114.58 67.9669 114.58 68.6066H119.265V67.8881H115.574C115.702 67.4157 116.214 66.8744 117.11 66.274C117.838 65.7819 118.32 65.398 118.566 65.1421C119.019 64.65 119.255 64.0989 119.255 63.4886C119.255 62.8784 119.039 62.3765 118.625 62.0025C118.202 61.6285 117.671 61.4415 117.021 61.4415ZM122.824 61.4415C121.978 61.4415 121.348 61.8056 120.925 62.5536C120.551 63.1835 120.364 64.03 120.364 65.0929C120.364 66.1559 120.551 67.0023 120.925 67.6322C121.348 68.3704 121.978 68.7444 122.824 68.7444C123.661 68.7444 124.291 68.3704 124.724 67.6322C125.098 67.0023 125.285 66.1559 125.285 65.0929C125.285 64.03 125.098 63.1835 124.724 62.5536C124.291 61.8056 123.661 61.4415 122.824 61.4415ZM122.824 62.1304C123.454 62.1304 123.907 62.4651 124.182 63.1442C124.379 63.6166 124.487 64.2662 124.487 65.0929C124.487 65.9098 124.379 66.5594 124.182 67.0417C123.907 67.711 123.454 68.0555 122.824 68.0555C122.194 68.0555 121.741 67.711 121.466 67.0417C121.269 66.5594 121.171 65.9098 121.171 65.0929C121.171 64.2662 121.269 63.6166 121.466 63.1442C121.741 62.4651 122.194 62.1304 122.824 62.1304ZM128.824 61.4415C128.115 61.4415 127.535 61.6777 127.102 62.1501C126.669 62.6127 126.442 63.2426 126.442 64.03H127.249C127.259 63.4099 127.407 62.9375 127.682 62.6225C127.938 62.2879 128.312 62.1304 128.794 62.1304C129.247 62.1304 129.611 62.2485 129.867 62.4847C130.123 62.7209 130.251 63.0457 130.251 63.4788C130.251 63.9315 130.064 64.3548 129.71 64.7386C129.523 64.9355 129.159 65.2209 128.607 65.6146C127.859 66.1264 127.358 66.5496 127.082 66.8645C126.61 67.3862 126.383 67.9669 126.383 68.6066H131.068V67.8881H127.377C127.505 67.4157 128.017 66.8744 128.913 66.274C129.641 65.7819 130.123 65.398 130.369 65.1421C130.822 64.65 131.058 64.0989 131.058 63.4886C131.058 62.8784 130.842 62.3765 130.428 62.0025C130.005 61.6285 129.474 61.4415 128.824 61.4415ZM134.726 61.4415C134.017 61.4415 133.436 61.6777 133.003 62.1501C132.57 62.6127 132.344 63.2426 132.344 64.03H133.151C133.161 63.4099 133.308 62.9375 133.584 62.6225C133.84 62.2879 134.214 62.1304 134.696 62.1304C135.149 62.1304 135.513 62.2485 135.769 62.4847C136.025 62.7209 136.153 63.0457 136.153 63.4788C136.153 63.9315 135.966 64.3548 135.611 64.7386C135.424 64.9355 135.06 65.2209 134.509 65.6146C133.761 66.1264 133.259 66.5496 132.983 66.8645C132.511 67.3862 132.285 67.9669 132.285 68.6066H136.97V67.8881H133.279C133.407 67.4157 133.918 66.8744 134.814 66.274C135.542 65.7819 136.025 65.398 136.271 65.1421C136.724 64.65 136.96 64.0989 136.96 63.4886C136.96 62.8784 136.743 62.3765 136.33 62.0025C135.907 61.6285 135.375 61.4415 134.726 61.4415ZM139.84 61.5792C139.603 61.845 139.328 62.0812 138.993 62.2977C138.659 62.4946 138.324 62.6324 138.009 62.7209V63.528C138.668 63.3312 139.22 63.0162 139.663 62.5635V68.6066H140.47V61.5792H139.84ZM144.479 61.4415C143.633 61.4415 143.003 61.8056 142.579 62.5536C142.205 63.1835 142.018 64.03 142.018 65.0929C142.018 66.1559 142.205 67.0023 142.579 67.6322C143.003 68.3704 143.633 68.7444 144.479 68.7444C145.316 68.7444 145.945 68.3704 146.379 67.6322C146.753 67.0023 146.94 66.1559 146.94 65.0929C146.94 64.03 146.753 63.1835 146.379 62.5536C145.945 61.8056 145.316 61.4415 144.479 61.4415ZM144.479 62.1304C145.109 62.1304 145.562 62.4651 145.837 63.1442C146.034 63.6166 146.142 64.2662 146.142 65.0929C146.142 65.9098 146.034 66.5594 145.837 67.0417C145.562 67.711 145.109 68.0555 144.479 68.0555C143.849 68.0555 143.396 67.711 143.121 67.0417C142.924 66.5594 142.825 65.9098 142.825 65.0929C142.825 64.2662 142.924 63.6166 143.121 63.1442C143.396 62.4651 143.849 62.1304 144.479 62.1304ZM150.479 61.4415C149.77 61.4415 149.19 61.6777 148.757 62.1501C148.323 62.6127 148.097 63.2426 148.097 64.03H148.904C148.914 63.4099 149.062 62.9375 149.337 62.6225C149.593 62.2879 149.967 62.1304 150.449 62.1304C150.902 62.1304 151.266 62.2485 151.522 62.4847C151.778 62.7209 151.906 63.0457 151.906 63.4788C151.906 63.9315 151.719 64.3548 151.365 64.7386C151.178 64.9355 150.814 65.2209 150.262 65.6146C149.514 66.1264 149.012 66.5496 148.737 66.8645C148.264 67.3862 148.038 67.9669 148.038 68.6066H152.723V67.8881H149.032C149.16 67.4157 149.672 66.8744 150.568 66.274C151.296 65.7819 151.778 65.398 152.024 65.1421C152.477 64.65 152.713 64.0989 152.713 63.4886C152.713 62.8784 152.497 62.3765 152.083 62.0025C151.66 61.6285 151.129 61.4415 150.479 61.4415ZM153.664 61.5792V62.3174H157.453L154.835 68.6066H155.691L158.28 62.2387V61.5792H153.664Z" fill="#262A33"/>
<path d="M68.8273 76.2203L70.0857 77.8914L68.676 79.7756H69.3293L70.3952 78.2971L71.4542 79.7756H72.1075L70.6977 77.8914L71.9562 76.2203H71.3098L70.3952 77.4856L69.4737 76.2203H68.8273ZM72.3261 76.2203L73.5845 77.8914L72.1748 79.7756H72.8281L73.8939 78.2971L74.953 79.7756H75.6062L74.1965 77.8914L75.455 76.2203H74.8085L73.8939 77.4856L72.9725 76.2203H72.3261ZM75.983 77.7607V78.2283H79.4557V77.7607H75.983ZM79.9885 76.2203L81.2469 77.8914L79.8372 79.7756H80.4905L81.5564 78.2971L82.6154 79.7756H83.2687L81.8589 77.8914L83.1174 76.2203H82.471L81.5564 77.4856L80.6349 76.2203H79.9885ZM83.4873 76.2203L84.7457 77.8914L83.336 79.7756H83.9893L85.0551 78.2971L86.1142 79.7756H86.7674L85.3577 77.8914L86.6162 76.2203H85.9697L85.0551 77.4856L84.1337 76.2203H83.4873ZM87.1442 77.7607V78.2283H90.6169V77.7607H87.1442ZM91.1497 76.2203L92.4081 77.8914L90.9984 79.7756H91.6517L92.7176 78.2971L93.7766 79.7756H94.4299L93.0201 77.8914L94.2786 76.2203H93.6322L92.7176 77.4856L91.7961 76.2203H91.1497ZM94.6485 76.2203L95.9069 77.8914L94.4972 79.7756H95.1505L96.2163 78.2971L97.2754 79.7756H97.9286L96.5189 77.8914L97.7774 76.2203H97.1309L96.2163 77.4856L95.2949 76.2203H94.6485Z" fill="#747A8C"/>
<rect x="45.5615" y="61.5615" width="19.6845" height="17.7161" rx="1.3123" fill="#EBEDF2"/>
<rect x="48.022" y="63.2019" width="14.7634" height="2.46057" rx="0.328076" fill="white"/>
<rect x="48.022" y="67.3028" width="3.28076" height="9.84227" rx="0.328076" fill="white"/>
<rect x="52.9434" y="67.3028" width="9.84227" height="9.84227" rx="0.328076" fill="white"/>
<defs>
<filter id="filter0_d_10173_170189" x="29" y="48" width="241" height="52" filterUnits="userSpaceOnUse" color-interpolation-filters="sRGB">
<feFlood flood-opacity="0" result="BackgroundImageFix"/>
<feColorMatrix in="SourceAlpha" type="matrix" values="0 0 0 0 0 0 0 0 0 0 0 0 0 0 0 0 0 0 127 0" result="hardAlpha"/>
<feOffset dy="4"/>
<feGaussianBlur stdDeviation="5"/>
<feColorMatrix type="matrix" values="0 0 0 0 0.184314 0 0 0 0 0.32549 0 0 0 0 0.52549 0 0 0 0.1 0"/>
<feBlend mode="normal" in2="BackgroundImageFix" result="effect1_dropShadow_10173_170189"/>
<feBlend mode="normal" in="SourceGraphic" in2="effect1_dropShadow_10173_170189" result="shape"/>
</filter>
<clipPath id="clip0_10173_170189">
<rect width="252.618" height="152.555" rx="6.56151" fill="white"/>
</clipPath>
<clipPath id="clip1_10173_170189">
<rect width="10.8931" height="10.8931" fill="white" transform="translate(62.1807 32.0771)"/>
</clipPath>
<clipPath id="clip2_10173_170189">
<rect width="5.12618" height="5.12618" fill="white" transform="translate(64.4233 37.3037) rotate(-45)"/>
</clipPath>
<clipPath id="clip3_10173_170189">
<rect width="10.8931" height="10.8931" fill="white" transform="translate(100.729 32.0771)"/>
</clipPath>
<clipPath id="clip4_10173_170189">
<rect width="10.8931" height="10.8931" fill="white" transform="translate(139.278 32.0771)"/>
</clipPath>
<clipPath id="clip5_10173_170189">
<rect width="5.12618" height="5.12618" fill="white" transform="translate(142.162 34.9606)"/>
</clipPath>
<clipPath id="clip6_10173_170189">
<rect width="10.8931" height="10.8931" fill="white" transform="translate(177.827 32.0771)"/>
</clipPath>
<clipPath id="clip7_10173_170189">
<rect width="10.8931" height="10.8931" fill="white" transform="translate(216.376 32.0771)"/>
</clipPath>
</defs>
</svg>
