<svg width="16" height="16" viewBox="0 0 16 16" fill="none" xmlns="http://www.w3.org/2000/svg">
<path fill-rule="evenodd" clip-rule="evenodd" d="M8.5999 2.00039C8.5999 1.66902 8.33127 1.40039 7.9999 1.40039C7.66853 1.40039 7.3999 1.66902 7.3999 2.00039V7.40039H1.9999C1.66853 7.40039 1.3999 7.66902 1.3999 8.00039C1.3999 8.33176 1.66853 8.60039 1.9999 8.60039H7.3999V14.0004C7.3999 14.3318 7.66853 14.6004 7.9999 14.6004C8.33127 14.6004 8.5999 14.3318 8.5999 14.0004V8.60039H13.9999C14.3313 8.60039 14.5999 8.33176 14.5999 8.00039C14.5999 7.66902 14.3313 7.40039 13.9999 7.40039H8.5999V2.00039Z" fill="#626E85"/>
</svg>
