<svg xmlns="http://www.w3.org/2000/svg" width="12" height="12" fill="none"><path d="M7.6152 9.93548C7.6032 9.94748 7.59119 9.95348 7.57319 9.95948C7.38119 10.0615 7.1472 9.98948 7.0452 9.80348L6.5832 8.94548C6.5712 8.92748 6.5652 8.90948 6.5592 8.88548C6.4872 8.69348 6.5712 8.48348 6.7392 8.38148C6.7392 8.38148 6.74519 8.38148 6.74519 8.37548C6.76319 8.36348 6.7872 8.35148 6.8112 8.34548C7.8252 7.86548 8.44919 7.21748 8.67719 6.40148C8.69519 6.33548 8.6592 6.26348 8.5932 6.24548C8.5812 6.24548 8.5692 6.23948 8.55719 6.23948H7.0752C6.6612 6.23948 6.3252 5.90348 6.3252 5.48948V2.77148C6.3252 2.35748 6.6612 2.02148 7.0752 2.02148H9.6972C10.1112 2.02148 10.4472 2.35748 10.4472 2.77148V6.23948C10.4412 6.99548 9.6912 8.61548 7.6152 9.93548Z" fill="#B7C3FF"/><path d="M2.38193 9.95948C2.39993 9.95348 2.41193 9.94748 2.42393 9.93548C4.49993 8.61548 5.24993 6.99548 5.24993 6.23948V2.77148C5.24993 2.35748 4.91393 2.02148 4.49993 2.02148H1.87793C1.46393 2.02148 1.12793 2.35748 1.12793 2.77148V5.48348C1.12793 5.89748 1.46393 6.23348 1.87793 6.23348H3.36593C3.37793 6.23348 3.38993 6.23948 3.40193 6.23948C3.46793 6.25748 3.50393 6.32948 3.48593 6.39548C3.25793 7.21148 2.63393 7.85948 1.61993 8.33948C1.59593 8.34548 1.57193 8.35748 1.55393 8.36948C1.55393 8.37548 1.54793 8.37548 1.54793 8.37548C1.37993 8.47748 1.29593 8.68748 1.36793 8.87948C1.37393 8.90348 1.37993 8.92148 1.39193 8.93948L1.85393 9.80348C1.95593 9.98948 2.18993 10.0615 2.38193 9.95948Z" fill="#B7C3FF"/></svg>