<svg xmlns="http://www.w3.org/2000/svg" width="16" height="16" viewBox="0 0 16 16" fill="none">
  <rect x="2" y="2.5" width="12" height="11" rx="0.5" fill="#7088FF" stroke="#7088FF"/>
  <path fill-rule="evenodd" clip-rule="evenodd" d="M10.7854 7.25807C11.4207 7.25807 11.9358 6.75259 11.9358 6.12904C11.9358 5.50549 11.4207 5 10.7854 5C10.15 5 9.63496 5.50549 9.63496 6.12904C9.63496 6.75259 10.15 7.25807 10.7854 7.25807ZM3.65785 10.7992C3.2268 11.4482 3.69217 12.3159 4.47132 12.3159H11.5149C12.3219 12.3159 12.7806 11.3924 12.2929 10.7493L11.3496 9.50541C10.9518 8.98073 10.1592 8.9922 9.77671 9.52816L8.8329 10.8505L7.07012 8.12933C6.68786 7.53923 5.82603 7.53432 5.43707 8.12003L3.65785 10.7992Z" fill="white"/>
</svg>