<svg width="24" height="24" viewBox="0 0 24 24" fill="none" xmlns="http://www.w3.org/2000/svg" color="#626E85">
<path d="M8.67302 19.4998C14.4278 19.5334 19.1362 14.7657 19.1689 8.85634C19.1689 8.80598 19.1689 8.7724 19.1689 8.72204V8.2184C19.8883 7.68119 20.5095 7.02647 21 6.27102C20.3297 6.5732 19.6104 6.77465 18.8747 6.87538C19.6431 6.40532 20.2316 5.64987 20.5095 4.7769C19.7902 5.21338 18.9891 5.53235 18.1717 5.70023C16.782 4.17254 14.4441 4.0886 12.9564 5.53235C11.9918 6.45568 11.5831 7.83228 11.8774 9.15852C8.91826 9.00743 6.15531 7.56368 4.2752 5.1966C3.31063 6.92574 3.80109 9.12495 5.41962 10.2329C4.84741 10.2162 4.29155 10.0483 3.78474 9.76289V9.81325C3.78474 11.6095 4.9782 13.154 6.69482 13.5401C6.15531 13.6912 5.59945 13.708 5.05995 13.6073C5.55041 15.135 6.92371 16.159 8.47684 16.2094C7.16894 17.2838 5.56676 17.8714 3.88283 17.8882C3.58856 17.8882 3.29428 17.8546 3 17.8043C4.68392 18.9122 6.64578 19.4998 8.65668 19.483" fill="currentColor"/>
</svg>
