<svg width="14" height="4" viewBox="0 0 14 4" fill="none" xmlns="http://www.w3.org/2000/svg">
<path fill-rule="evenodd" clip-rule="evenodd" d="M2.86523 2C2.86523 2.69036 2.30559 3.25 1.61523 3.25C0.924878 3.25 0.365234 2.69036 0.365234 2C0.365234 1.30964 0.924878 0.75 1.61523 0.75C2.30559 0.75 2.86523 1.30964 2.86523 2ZM8.24985 2C8.24985 2.69036 7.69021 3.25 6.99985 3.25C6.30949 3.25 5.74985 2.69036 5.74985 2C5.74985 1.30964 6.30949 0.75 6.99985 0.75C7.69021 0.75 8.24985 1.30964 8.24985 2ZM12.3845 3.25C13.0748 3.25 13.6345 2.69036 13.6345 2C13.6345 1.30964 13.0748 0.75 12.3845 0.75C11.6941 0.75 11.1345 1.30964 11.1345 2C11.1345 2.69036 11.6941 3.25 12.3845 3.25Z" fill="#626E85"/>
</svg>
