<svg width="16" height="16" viewBox="0 0 16 16" fill="none" xmlns="http://www.w3.org/2000/svg">
<path d="M8 14H3C2.72386 14 2.5 13.7761 2.5 13.5V2.5C2.5 2.22386 2.72386 2 3 2H13C13.2761 2 13.5 2.22386 13.5 2.5V8" stroke="#3F465C" stroke-linecap="round"/>
<path d="M5 5H11" stroke="#3F465C" stroke-linecap="round"/>
<path d="M5 8H8" stroke="#3F465C" stroke-linecap="round"/>
<path d="M12.5186 11.6172V12.6172H13.5186" stroke="#3F465C" stroke-linecap="round" stroke-linejoin="round"/>
<path d="M12.5 15C13.8807 15 15 13.8807 15 12.5C15 11.1193 13.8807 10 12.5 10C11.1193 10 10 11.1193 10 12.5C10 13.8807 11.1193 15 12.5 15Z" stroke="#3F465C"/>
</svg>
