<svg width="56" height="56" viewBox="0 0 56 56" fill="none" xmlns="http://www.w3.org/2000/svg">
<circle cx="28" cy="28" r="28" fill="#E5E5E7"/>
<path d="M39 14H17V42H39V14Z" fill="white" fill-opacity="0.01"/>
<path d="M28.0833 25.6667C30.3385 25.6667 32.1667 23.8385 32.1667 21.5833C32.1667 19.3282 30.3385 17.5 28.0833 17.5C25.8282 17.5 24 19.3282 24 21.5833C24 23.8385 25.8282 25.6667 28.0833 25.6667Z" stroke="white" stroke-width="2.33333" stroke-linecap="square" stroke-linejoin="round"/>
<path d="M19.3345 37.8002V38.5002H36.8345V37.8002C36.8345 35.1866 36.8345 33.8798 36.3259 32.8816C35.8784 32.0035 35.1645 31.2895 34.2864 30.8421C33.2882 30.3335 31.9814 30.3335 29.3678 30.3335H26.8011C24.1876 30.3335 22.8808 30.3335 21.8825 30.8421C21.0044 31.2895 20.2905 32.0035 19.8431 32.8816C19.3345 33.8798 19.3345 35.1866 19.3345 37.8002Z" stroke="white" stroke-width="2.33333" stroke-linecap="square" stroke-linejoin="round"/>
</svg>
