<svg width="16" height="16" viewBox="0 0 16 16" fill="none" xmlns="http://www.w3.org/2000/svg" color="#3F465C">
<g clip-path="url(#clip0_13599_41046)">
<path d="M8 14.5C11.5899 14.5 14.5 11.5899 14.5 8C14.5 4.41015 11.5899 1.5 8 1.5C4.41015 1.5 1.5 4.41015 1.5 8C1.5 11.5899 4.41015 14.5 8 14.5Z" stroke="currentColor" stroke-width="1.2"/>
<path d="M5.2169 10.7689H4.01082L5.91898 5.00781H7.36302L9.26187 10.7689H7.96647L7.54548 9.37308L7.5639 9.36752H7.538H5.65467V9.34881L5.6472 9.37303L5.2169 10.7689ZM6.63949 6.17845L6.65838 6.17285H6.632H6.57333V6.15343L6.56585 6.17843L5.88918 8.43843L5.89667 8.44067L5.90415 8.44291L5.92276 8.44848H7.30133V8.44067V8.43285V8.41316L6.63949 6.17845ZM11.3642 5.00781V10.7689H10.1525V5.00781H11.3642Z" fill="currentColor" stroke="currentColor" stroke-width="0.015625"/>
</g>
<defs>
<clipPath id="clip0_13599_41046">
<rect width="16" height="16" fill="white"/>
</clipPath>
</defs>
</svg>
