<svg width="16" height="16" viewBox="0 0 16 16" fill="none" xmlns="http://www.w3.org/2000/svg">
    <path fill-rule="evenodd" clip-rule="evenodd" d="M7.9334 5.33334V4.73334H6.7334V5.33334V8.06667V8.66667V9.26667L7.3334 9.26667H10.6667H11.2667V8.06667H10.6667H7.9334V5.33334Z" fill="#3C3F47"/>
    <path fill-rule="evenodd" clip-rule="evenodd" d="M1.40002 8.00002C1.40002 4.35495 4.35494 1.40002 8.00002 1.40002C9.69062 1.40002 11.2328 2.03605 12.4 3.08066V2.33336V1.73336L13.6 1.73336V2.33336L13.6 4.0667V4.46536L13.6401 4.51873L13.6 4.54885V5.2667L13 5.2667L12.4 5.2667H10.6667H10.0667V4.0667L10.6667 4.0667H11.7C10.7331 3.15668 9.4316 2.60002 8.00002 2.60002C5.01768 2.60002 2.60002 5.01769 2.60002 8.00002C2.60002 10.9824 5.01768 13.4 8.00002 13.4C10.9824 13.4 13.4 10.9824 13.4 8.00002V7.40002H14.6V8.00002C14.6 11.6451 11.6451 14.6 8.00002 14.6C4.35494 14.6 1.40002 11.6451 1.40002 8.00002Z" fill="#3C3F47"/>
</svg>
    