<svg width="32" height="32" viewBox="0 0 32 32" fill="none" xmlns="http://www.w3.org/2000/svg">
    <rect width="32" height="32" rx="16" fill="#00CCAA"/>
    <path d="M14.9911 10.5366H12.4951L9.80707 12.4246L9.24707 15.2566L11.9351 13.3686L10.2231 21.9286H12.7191L14.9911 10.5366Z" fill="white"/>
    <path d="M24.1162 15.5926C24.1162 13.8006 22.8522 13.2246 21.9562 13.2246C21.2522 13.2246 20.5642 13.4646 20.0362 13.8806L20.7082 10.5366H18.2122L15.9402 21.9286H18.4362L19.4762 16.7286C19.6682 15.7686 20.2282 15.4806 20.8042 15.4806C21.1242 15.4806 21.5242 15.7206 21.5242 16.2966C21.5242 16.4246 21.5082 16.5846 21.4762 16.7286L20.4362 21.9286H22.9322L24.0042 16.5846C24.0682 16.2966 24.1162 15.9446 24.1162 15.5926Z" fill="white"/>
    </svg>
    