<svg width="32" height="32" viewBox="0 0 32 32" fill="none" xmlns="http://www.w3.org/2000/svg">
    <circle cx="16" cy="16" r="16" fill="#00C4D6"/>
    <path d="M10 17.75C10.9665 17.75 11.75 16.9665 11.75 16C11.75 15.0335 10.9665 14.25 10 14.25C9.0335 14.25 8.25 15.0335 8.25 16C8.25 16.9665 9.0335 17.75 10 17.75Z" fill="white"/>
    <path d="M16 17.75C16.9665 17.75 17.75 16.9665 17.75 16C17.75 15.0335 16.9665 14.25 16 14.25C15.0335 14.25 14.25 15.0335 14.25 16C14.25 16.9665 15.0335 17.75 16 17.75Z" fill="white"/>
    <path d="M22 17.75C22.9665 17.75 23.75 16.9665 23.75 16C23.75 15.0335 22.9665 14.25 22 14.25C21.0335 14.25 20.25 15.0335 20.25 16C20.25 16.9665 21.0335 17.75 22 17.75Z" fill="white"/>
    </svg>
    