<svg width="32" height="32" viewBox="0 0 32 32" fill="none" xmlns="http://www.w3.org/2000/svg">
    <rect width="32" height="32" rx="16" fill="#4C6AFF"/>
    <path d="M15.9029 13.4004C15.9029 11.5124 14.7349 10.4404 12.8629 10.4404C10.6229 10.4404 9.16692 11.5764 8.78292 13.8324H11.2789C11.5029 12.9684 12.0149 12.6964 12.5589 12.6964C13.0709 12.6964 13.3749 13.0004 13.3749 13.5444C13.3749 14.1204 13.0709 14.4564 12.4469 15.0804L7.75892 19.6884L7.29492 21.9284H14.3989L14.8629 19.6724H10.9429L14.0309 16.6804C14.6549 16.0724 15.9029 15.0644 15.9029 13.4004Z" fill="white"/>
    <path d="M24.116 15.5924C24.116 13.8004 22.852 13.2244 21.956 13.2244C21.252 13.2244 20.564 13.4644 20.036 13.8804L20.708 10.5364H18.212L15.94 21.9284H18.436L19.476 16.7284C19.668 15.7684 20.228 15.4804 20.804 15.4804C21.124 15.4804 21.524 15.7204 21.524 16.2964C21.524 16.4244 21.508 16.5844 21.476 16.7284L20.436 21.9284H22.932L24.004 16.5844C24.068 16.2964 24.116 15.9444 24.116 15.5924Z" fill="white"/>
    </svg>
    