<svg width="32" height="32" viewBox="0 0 32 32" fill="none" xmlns="http://www.w3.org/2000/svg">
<rect width="32" height="32" rx="4" fill="#F6F7FA"/>
<path d="M21.9998 16C21.9998 16.1344 21.9953 16.2678 21.9866 16.4C21.7808 19.5272 19.1791 22 15.9998 22C13.7789 22 11.8399 20.7934 10.8024 19M9.99976 16C9.99976 15.8656 10.0042 15.7322 10.0129 15.6C10.2187 12.4728 12.8205 10 15.9998 10C18.2225 10 20.163 11.2087 21.1998 13.0047" stroke="#6F7485" stroke-linecap="round" stroke-linejoin="round"/>
<path d="M9.50932 16.4468H10.4892L9.99927 16.9368L9.50932 16.4468Z" stroke="#6F7485"/>
<path d="M22.4897 15.5532L21.5098 15.5532L21.9998 15.0632L22.4897 15.5532Z" stroke="#6F7485"/>
</svg>
