<svg width="16" height="16" viewBox="0 0 16 16" fill="none" xmlns="http://www.w3.org/2000/svg">
<path d="M13.5586 14H2.44139C2.18923 14 1.97653 13.8122 1.94525 13.562L1.07025 6.56202C1.03295 6.26359 1.26564 6 1.56639 6H14.4336C14.7344 6 14.9671 6.26359 14.9297 6.56202L14.0547 13.562C14.0235 13.8122 13.8108 14 13.5586 14Z" stroke="#3F465C"/>
<path d="M2 6.5V3C2 2.72386 2.22386 2.5 2.5 2.5H5.58579C5.851 2.5 6.10536 2.60536 6.29289 2.79289L6.70711 3.20711C6.89464 3.39464 7.149 3.5 7.41421 3.5H13.5C13.7761 3.5 14 3.72386 14 4V6.5" stroke="#3F465C"/>
</svg>
