<svg width="20" height="20" viewBox="0 0 20 20" fill="none" xmlns="http://www.w3.org/2000/svg">
<path d="M10 2C5.58172 2 2 5.58172 2 10C2 14.4183 5.58172 18 10 18C14.4183 18 18 14.4183 18 10C18 5.58172 14.4183 2 10 2Z" fill="#FFB54C"/>
<path fill-rule="evenodd" clip-rule="evenodd" d="M9.15059 13.7996C9.15059 14.0757 9.37444 14.2996 9.65059 14.2996L10.3506 14.2996C10.6267 14.2996 10.8506 14.0757 10.8506 13.7996L10.8506 13.0996C10.8506 12.8234 10.6267 12.5996 10.3506 12.5996L9.65059 12.5996C9.37444 12.5996 9.15059 12.8234 9.15059 13.0996L9.15059 13.7996ZM9.15059 10.95C9.15059 11.2261 9.37444 11.45 9.65059 11.45L10.3506 11.45C10.6267 11.45 10.8506 11.2261 10.8506 10.95L10.8506 6.24995C10.8506 5.97381 10.6267 5.74995 10.3506 5.74995L9.65059 5.74995C9.37444 5.74995 9.15059 5.97381 9.15059 6.24995L9.15059 10.95Z" fill="white"/>
</svg>
