<svg width="20" height="20" viewBox="0 0 20 20" fill="none" xmlns="http://www.w3.org/2000/svg">
<path d="M2 10C2 5.58172 5.58172 2 10 2C14.4183 2 18 5.58172 18 10C18 14.4183 14.4183 18 10 18C5.58172 18 2 14.4183 2 10Z" fill="#F74F4F"/>
<path fill-rule="evenodd" clip-rule="evenodd" d="M12.5367 13.0316C12.3414 13.2269 12.0248 13.2269 11.8296 13.0316L6.96818 8.1702C6.77292 7.97494 6.77292 7.65836 6.96818 7.4631L7.46315 6.96812C7.65841 6.77286 7.975 6.77286 8.17026 6.96812L13.0316 11.8295C13.2269 12.0248 13.2269 12.3414 13.0316 12.5366L12.5367 13.0316Z" fill="white"/>
<path fill-rule="evenodd" clip-rule="evenodd" d="M13.0316 7.46338C13.2269 7.65864 13.2269 7.97523 13.0316 8.17049L8.17026 13.0319C7.975 13.2271 7.65841 13.2271 7.46315 13.0319L6.96818 12.5369C6.77292 12.3416 6.77292 12.0251 6.96818 11.8298L11.8296 6.96841C12.0248 6.77314 12.3414 6.77314 12.5367 6.96841L13.0316 7.46338Z" fill="white"/>
</svg>
