<svg width="20" height="20" viewBox="0 0 20 20" fill="none" xmlns="http://www.w3.org/2000/svg">
<path d="M10 18C5.58172 18 2 14.4183 2 10C2 5.58172 5.58172 2 10 2C14.4183 2 18 5.58172 18 10C18 14.4183 14.4183 18 10 18Z" fill="#FE5B4C"/>
<path fill-rule="evenodd" clip-rule="evenodd" d="M9.15059 13.7498C9.15059 14.0259 9.37444 14.2498 9.65059 14.2498L10.3506 14.2498C10.6267 14.2498 10.8506 14.0259 10.8506 13.7498L10.8506 13.0498C10.8506 12.7736 10.6267 12.5498 10.3506 12.5498L9.65059 12.5498C9.37444 12.5498 9.15059 12.7736 9.15059 13.0498L9.15059 13.7498ZM9.15059 10.9001C9.15059 11.1763 9.37444 11.4001 9.65059 11.4001L10.3506 11.4001C10.6267 11.4001 10.8506 11.1763 10.8506 10.9001L10.8506 6.20015C10.8506 5.924 10.6267 5.70015 10.3506 5.70015L9.65059 5.70015C9.37444 5.70015 9.15059 5.924 9.15059 6.20015L9.15059 10.9001Z" fill="white"/>
</svg>
