<svg width="20" height="20" viewBox="0 0 20 20" fill="none" xmlns="http://www.w3.org/2000/svg">
<path d="M10 18C14.4183 18 18 14.4183 18 10C18 5.58172 14.4183 2 10 2C5.58172 2 2 5.58172 2 10C2 14.4183 5.58172 18 10 18Z" fill="#0FD683"/>
<path fill-rule="evenodd" clip-rule="evenodd" d="M8.97323 12.6916C9.10433 12.6941 9.23622 12.6453 9.33627 12.5452L13.3668 8.51472C13.562 8.31946 13.562 8.00288 13.3668 7.80762L13.0132 7.45406C12.818 7.2588 12.5014 7.2588 12.3061 7.45406L8.96513 10.795L7.6938 9.52371C7.49854 9.32845 7.18196 9.32845 6.98669 9.52371L6.63314 9.87726C6.43788 10.0725 6.43788 10.3891 6.63314 10.5844L8.59454 12.5458C8.69857 12.6498 8.83703 12.6984 8.97323 12.6916Z" fill="white"/>
</svg>
