<svg width="20" height="20" viewBox="0 0 20 20" fill="none" xmlns="http://www.w3.org/2000/svg">
<path d="M2 10C2 5.58172 5.58172 2 10 2V2C14.4183 2 18 5.58172 18 10V10C18 14.4183 14.4183 18 10 18V18C5.58172 18 2 14.4183 2 10V10Z" fill="#FFB54C"/>
<path fill-rule="evenodd" clip-rule="evenodd" d="M13.5 10.3499C13.5 10.626 13.2761 10.8499 13 10.8499H7C6.72386 10.8499 6.5 10.626 6.5 10.3499V9.6499C6.5 9.37376 6.72386 9.1499 7 9.1499H13C13.2761 9.1499 13.5 9.37376 13.5 9.6499V10.3499Z" fill="white"/>
</svg>
