<svg width="16" height="17" viewBox="0 0 16 17" fill="none" xmlns="http://www.w3.org/2000/svg">
<path fill-rule="evenodd" clip-rule="evenodd" d="M5.11264 9.05078C5.23835 11.5322 6.27701 13.3976 7.07298 14.4796C4.3608 14.059 2.24914 11.8218 2.02054 9.05078H5.11264ZM6.11408 9.05078C6.21207 10.7854 6.80608 12.1844 7.40632 13.1792C7.61297 13.5217 7.81914 13.8141 8.00368 14.0531C8.18652 13.8177 8.39051 13.5297 8.59501 13.1922C9.19423 12.2031 9.78932 10.8032 9.88658 9.05078H6.11408ZM9.88705 8.05078H6.11419C6.21248 6.3236 6.80605 4.92494 7.4067 3.92779C7.61623 3.57994 7.8253 3.28328 8.01188 3.04152C8.19281 3.27142 8.3945 3.55305 8.59681 3.88439C9.19402 4.86252 9.79116 6.26379 9.88705 8.05078ZM10.888 9.05078C10.7636 11.5444 9.73133 13.4012 8.93607 14.4782C11.6439 14.054 13.7511 11.8188 13.9795 9.05078H10.888ZM13.9795 8.05078H10.8884C10.7667 5.534 9.74672 3.69345 8.95297 2.62604C11.6527 3.05689 13.7516 5.28857 13.9795 8.05078ZM15 8.55078V8.05078H14.9824C14.726 4.41821 11.698 1.55089 8.0002 1.55078H8C4.30212 1.55078 1.27396 4.41814 1.01758 8.05078H1V8.55078V9.05078H1.01758C1.27396 12.6834 4.30212 15.5508 8 15.5508H8.0002C11.698 15.5507 14.726 12.6834 14.9824 9.05078H15V8.55078ZM2.02054 8.05078C2.24924 5.27851 4.36266 3.04064 7.07654 2.62141C6.2803 3.70556 5.23902 5.57456 5.11272 8.05078H2.02054Z" fill="#C9CBD6"/>
<circle cx="12" cy="12.5508" r="3.5" fill="white" stroke="#C9CBD6"/>
<path d="M12 13.1309V10.8533" stroke="#C9CBD6" stroke-linecap="round" stroke-linejoin="round"/>
<path d="M12 14.4453L12 14.4492" stroke="#C9CBD6" stroke-linecap="round" stroke-linejoin="round"/>
</svg>
