<svg width="16" height="17" viewBox="0 0 16 17" fill="none" xmlns="http://www.w3.org/2000/svg">
<path fill-rule="evenodd" clip-rule="evenodd" d="M5.11264 9C5.23835 11.4814 6.27701 13.3468 7.07298 14.4288C4.3608 14.0082 2.24914 11.7711 2.02054 9H5.11264ZM6.11408 9C6.21207 10.7346 6.80608 12.1336 7.40632 13.1284C7.61297 13.4709 7.81914 13.7634 8.00368 14.0024C8.18652 13.7669 8.39051 13.479 8.59501 13.1414C9.19423 12.1523 9.78932 10.7524 9.88658 9H6.11408ZM9.88705 8H6.11419C6.21248 6.27282 6.80605 4.87416 7.4067 3.877C7.61623 3.52916 7.8253 3.2325 8.01188 2.99074C8.19281 3.22064 8.3945 3.50227 8.59681 3.83361C9.19402 4.81174 9.79116 6.21301 9.88705 8ZM10.888 9C10.7636 11.4937 9.73133 13.3504 8.93607 14.4274C11.6439 14.0032 13.7511 11.768 13.9795 9H10.888ZM13.9795 8H10.8884C10.7667 5.48322 9.74672 3.64267 8.95297 2.57526C11.6527 3.00611 13.7516 5.23779 13.9795 8ZM15 8.5V8H14.9824C14.726 4.36743 11.698 1.5001 8.0002 1.5H8C4.30212 1.5 1.27396 4.36736 1.01758 8H1V8.5V9H1.01758C1.27396 12.6326 4.30212 15.5 8 15.5H8.0002C11.698 15.4999 14.726 12.6326 14.9824 9H15V8.5ZM2.02054 8C2.24924 5.22773 4.36266 2.98986 7.07654 2.57063C6.2803 3.65478 5.23902 5.52378 5.11272 8H2.02054Z" fill="#00C4D6"/>
<circle cx="12" cy="12.5" r="3.5" fill="white" stroke="#00C4D6"/>
<path d="M10.8047 12.7656L11.8653 13.8263L13.6331 12.0585" stroke="#00C4D6" stroke-linecap="round" stroke-linejoin="round"/>
</svg>
