<svg width="12" height="12" viewBox="0 0 12 12" fill="none" xmlns="http://www.w3.org/2000/svg">
<path fill-rule="evenodd" clip-rule="evenodd" d="M7.25075 1.01021C7.59246 0.668473 8.14651 0.668473 8.48823 1.01021L10.2362 2.75832C10.5779 3.10002 10.5779 3.65401 10.2362 3.99572L4.83987 9.39239C4.68764 9.54463 4.48463 9.6354 4.26967 9.64735L2.00039 9.77343C1.85836 9.78132 1.71969 9.72834 1.6191 9.62775C1.51852 9.52716 1.46554 9.38849 1.47343 9.24646L1.5995 6.97703C1.61144 6.76208 1.7022 6.55909 1.85441 6.40686L7.25075 1.01021ZM7.86949 1.80569L7.43948 2.23573L9.01073 3.80704L9.44072 3.37702L7.86949 1.80569ZM2.59531 7.08018L6.73239 2.94285L8.30364 4.51416L4.16651 8.65154L2.50288 8.74396L2.59531 7.08018ZM1.5 10.5737C1.22386 10.5737 1 10.7975 1 11.0737C1 11.3498 1.22386 11.5737 1.5 11.5737H10.5C10.7761 11.5737 11 11.3498 11 11.0737C11 10.7975 10.7761 10.5737 10.5 10.5737H1.5Z" fill="#C9CBD6"/>
</svg>
