<svg width="16" height="16" viewBox="0 0 16 16" fill="none" xmlns="http://www.w3.org/2000/svg">
<path d="M16 0H0V16H16V0Z" fill="white" fill-opacity="0.01"/>
<path d="M14.6667 6.32176C12.4084 4.18166 9.37297 3.33529 6.5 3.78269" stroke="white" stroke-width="1.33333" stroke-linecap="round" stroke-linejoin="round"/>
<path d="M12.6667 8.59967C11.7622 7.69517 10.6605 7.1081 9.5 6.83847" stroke="white" stroke-width="1.33333" stroke-linecap="round" stroke-linejoin="round"/>
<path d="M3.3335 8.59967C3.77603 8.15713 4.2658 7.79057 4.78653 7.5" stroke="white" stroke-width="1.33333" stroke-linecap="round" stroke-linejoin="round"/>
<path d="M5.3335 10.7712C5.8131 10.2916 6.3897 9.96823 7.00016 9.80099" stroke="white" stroke-width="1.33333" stroke-linecap="round" stroke-linejoin="round"/>
<path fill-rule="evenodd" clip-rule="evenodd" d="M7.99984 13.3333C8.46007 13.3333 8.83317 12.9602 8.83317 12.5C8.83317 12.0398 8.46007 11.6667 7.99984 11.6667C7.5396 11.6667 7.1665 12.0398 7.1665 12.5C7.1665 12.9602 7.5396 13.3333 7.99984 13.3333Z" fill="white"/>
<path d="M13.3332 13.3333L2.6665 2.66666" stroke="white" stroke-width="1.33333" stroke-linecap="round" stroke-linejoin="round"/>
<path d="M1.3335 6.32171C1.52976 6.13571 1.7319 5.95948 1.9393 5.79305C2.1223 5.64615 2.3094 5.50688 2.50016 5.37521" stroke="white" stroke-width="1.33333" stroke-linecap="round" stroke-linejoin="round"/>
</svg>
