<svg width="54" height="54" viewBox="0 0 54 54" fill="none" xmlns="http://www.w3.org/2000/svg">
<g filter="url(#filter0_d_5223_254981)">
<circle cx="27" cy="23" r="20" fill="#9965FE"/>
<path fill-rule="evenodd" clip-rule="evenodd" d="M19 15.5C18.4477 15.5 18 15.9477 18 16.5V27.7108C18 28.2631 18.4477 28.7108 19 28.7108H24L26.6463 31.3593C26.8415 31.5548 27.1584 31.5548 27.3536 31.3593L30 28.7108H35C35.5523 28.7108 36 28.2631 36 27.7108V16.5C36 15.9477 35.5523 15.5 35 15.5H19Z" fill="white"/>
<rect x="21.5" y="21.2399" width="2.4" height="2.40197" rx="1.2" fill="#9965FE"/>
<rect x="25.8" y="21.2399" width="2.4" height="2.40197" rx="1.2" fill="#9965FE"/>
<rect x="30.1" y="21.2399" width="2.4" height="2.40197" rx="1.2" fill="#9965FE"/>
</g>
<defs>
<filter id="filter0_d_5223_254981" x="0" y="0" width="54" height="54" filterUnits="userSpaceOnUse" color-interpolation-filters="sRGB">
<feFlood flood-opacity="0" result="BackgroundImageFix"/>
<feColorMatrix in="SourceAlpha" type="matrix" values="0 0 0 0 0 0 0 0 0 0 0 0 0 0 0 0 0 0 127 0" result="hardAlpha"/>
<feOffset dy="4"/>
<feGaussianBlur stdDeviation="3.5"/>
<feComposite in2="hardAlpha" operator="out"/>
<feColorMatrix type="matrix" values="0 0 0 0 0.354361 0 0 0 0 0.068177 0 0 0 0 0.9625 0 0 0 0.24 0"/>
<feBlend mode="normal" in2="BackgroundImageFix" result="effect1_dropShadow_5223_254981"/>
<feBlend mode="normal" in="SourceGraphic" in2="effect1_dropShadow_5223_254981" result="shape"/>
</filter>
</defs>
</svg>
