<svg width="16" height="16" viewBox="0 0 16 16" fill="none" xmlns="http://www.w3.org/2000/svg">
<path fill-rule="evenodd" clip-rule="evenodd" d="M2.5 2.5C2.5 2.23478 2.60536 1.98043 2.79289 1.79289C2.98043 1.60536 3.23478 1.5 3.5 1.5H12.5C12.7652 1.5 13.0196 1.60536 13.2071 1.79289C13.3946 1.98043 13.5 2.23478 13.5 2.5V14C13.5 14.0853 13.4782 14.1691 13.4367 14.2436C13.3951 14.318 13.3352 14.3806 13.2627 14.4254C13.1901 14.4702 13.1073 14.4957 13.0221 14.4995C12.937 14.5033 12.8522 14.4852 12.776 14.447L8 12.06L3.224 14.448C3.1477 14.4862 3.06287 14.5043 2.97761 14.5005C2.89235 14.4967 2.80948 14.4711 2.7369 14.4262C2.66433 14.3813 2.60445 14.3185 2.56298 14.2439C2.52152 14.1693 2.49983 14.0853 2.5 14V2.5Z" fill="#6F7485"/>
</svg>
