<svg width="54" height="54" viewBox="0 0 54 54" fill="none" xmlns="http://www.w3.org/2000/svg">
<g filter="url(#filter0_d_5345_268423)">
<circle cx="27" cy="23" r="20" fill="#33D0DE"/>
<g clip-path="url(#clip0_5345_268423)">
<path d="M38 14H18V34H38V14Z" fill="white" fill-opacity="0.01"/>
<path d="M27 14.6667V18.0001" stroke="white" stroke-width="2" stroke-linecap="square" stroke-linejoin="round"/>
<path fill-rule="evenodd" clip-rule="evenodd" d="M27 23L35.3333 24.6667L32.8333 26.3333L35.3333 28.8333L32.8333 31.3333L30.3333 28.8333L28.6667 31.3333L27 23Z" fill="white"/>
<path fill-rule="evenodd" clip-rule="evenodd" d="M26.0848 22.6732C26.0149 22.3233 26.3233 22.0149 26.6732 22.0848L36.8777 24.1257C37.0961 24.1694 37.1527 24.4554 36.9674 24.5789L34.1414 26.4629L36.5119 28.8334L32.8334 32.5119L30.4629 30.1414L28.5789 32.9674C28.4554 33.1527 28.1694 33.0961 28.1257 32.8777L26.0848 22.6732Z" fill="white"/>
<path d="M32.8922 17.1074L30.5352 19.4644" stroke="white" stroke-width="2" stroke-linecap="square" stroke-linejoin="round"/>
<path d="M21.1072 28.8926L23.4642 26.5355" stroke="white" stroke-width="2" stroke-linecap="square" stroke-linejoin="round"/>
<path d="M18.6667 23H22.0001" stroke="white" stroke-width="2" stroke-linecap="square" stroke-linejoin="round"/>
<path d="M21.1072 17.1074L23.4642 19.4644" stroke="white" stroke-width="2" stroke-linecap="square" stroke-linejoin="round"/>
</g>
</g>
<defs>
<filter id="filter0_d_5345_268423" x="0" y="0" width="54" height="54" filterUnits="userSpaceOnUse" color-interpolation-filters="sRGB">
<feFlood flood-opacity="0" result="BackgroundImageFix"/>
<feColorMatrix in="SourceAlpha" type="matrix" values="0 0 0 0 0 0 0 0 0 0 0 0 0 0 0 0 0 0 127 0" result="hardAlpha"/>
<feOffset dy="4"/>
<feGaussianBlur stdDeviation="3.5"/>
<feComposite in2="hardAlpha" operator="out"/>
<feColorMatrix type="matrix" values="0 0 0 0 0.2 0 0 0 0 0.815686 0 0 0 0 0.870588 0 0 0 0.23 0"/>
<feBlend mode="normal" in2="BackgroundImageFix" result="effect1_dropShadow_5345_268423"/>
<feBlend mode="normal" in="SourceGraphic" in2="effect1_dropShadow_5345_268423" result="shape"/>
</filter>
<clipPath id="clip0_5345_268423">
<rect width="20" height="20" fill="white" transform="translate(18 14)"/>
</clipPath>
</defs>
</svg>
