<svg width="54" height="54" viewBox="0 0 54 54" fill="none" xmlns="http://www.w3.org/2000/svg">
<g filter="url(#filter0_d_5345_270799)">
<circle cx="27" cy="23" r="20" fill="#27DA90"/>
<path fill-rule="evenodd" clip-rule="evenodd" d="M27.0002 15.3962C24.0185 15.3962 21.8821 16.6475 20.4431 18.2117C19.0208 19.7576 18.279 21.606 18.0274 22.8645L18.0002 23L18.0274 23.1356C18.279 24.394 19.0208 26.2425 20.4431 27.7884C21.8821 29.3526 24.0185 30.6038 27.0002 30.6038C29.982 30.6038 32.1184 29.3526 33.5574 27.7884C34.9797 26.2425 35.7214 24.394 35.9731 23.1356L36.0002 23L35.9731 22.8645C35.7214 21.606 34.9797 19.7576 33.5574 18.2117C32.1184 16.6475 29.982 15.3962 27.0002 15.3962ZM27.0004 26.871C29.1383 26.871 30.8714 25.1379 30.8714 23.0001C30.8714 20.8622 29.1383 19.1292 27.0004 19.1292C24.8625 19.1292 23.1294 20.8622 23.1294 23.0001C23.1294 25.1379 24.8625 26.871 27.0004 26.871Z" fill="white"/>
<ellipse cx="27.0004" cy="23.0001" rx="2.1875" ry="2.18745" fill="white"/>
</g>
<defs>
<filter id="filter0_d_5345_270799" x="0" y="0" width="54" height="54" filterUnits="userSpaceOnUse" color-interpolation-filters="sRGB">
<feFlood flood-opacity="0" result="BackgroundImageFix"/>
<feColorMatrix in="SourceAlpha" type="matrix" values="0 0 0 0 0 0 0 0 0 0 0 0 0 0 0 0 0 0 127 0" result="hardAlpha"/>
<feOffset dy="4"/>
<feGaussianBlur stdDeviation="3.5"/>
<feComposite in2="hardAlpha" operator="out"/>
<feColorMatrix type="matrix" values="0 0 0 0 0.152941 0 0 0 0 0.854902 0 0 0 0 0.564706 0 0 0 0.26 0"/>
<feBlend mode="normal" in2="BackgroundImageFix" result="effect1_dropShadow_5345_270799"/>
<feBlend mode="normal" in="SourceGraphic" in2="effect1_dropShadow_5345_270799" result="shape"/>
</filter>
</defs>
</svg>
