<svg width="16" height="16" viewBox="0 0 16 16" fill="none" xmlns="http://www.w3.org/2000/svg">
<g id="&#233;&#128;&#154;&#231;&#148;&#168;_&#228;&#188;&#129;&#228;&#184;&#154;">
<path id="Union" fill-rule="evenodd" clip-rule="evenodd" d="M6.34986 2.2501C6.34986 1.75304 6.7528 1.3501 7.24986 1.3501H13.7499C14.2469 1.3501 14.6499 1.75304 14.6499 2.2501V13.3502H15.0002C15.3591 13.3502 15.6502 13.6412 15.6502 14.0002C15.6502 14.3592 15.3591 14.6502 15.0002 14.6502H0.999609C0.640624 14.6502 0.349609 14.3592 0.349609 14.0002C0.349609 13.6412 0.640624 13.3502 0.999609 13.3502H1.34986V6.2501C1.34986 5.75304 1.7528 5.3501 2.24986 5.3501H6.34986V2.2501ZM6.34986 10.6501V13.3501H2.64986V6.6501H6.34986V9.3501H3.99986C3.64087 9.3501 3.34986 9.64111 3.34986 10.0001C3.34986 10.3591 3.64087 10.6501 3.99986 10.6501H6.34986ZM13.3499 13.3501H7.64986L7.64986 10.0009L7.64986 10.0001L7.64986 9.9993V6.0001V5.3501L7.64986 2.6501H13.3499V13.3501ZM8.34985 5.0001C8.34985 4.64111 8.64087 4.3501 8.99985 4.3501H11.9999C12.3588 4.3501 12.6499 4.64111 12.6499 5.0001C12.6499 5.35908 12.3588 5.6501 11.9999 5.6501H8.99985C8.64087 5.6501 8.34985 5.35908 8.34985 5.0001ZM8.99985 7.3501C8.64087 7.3501 8.34985 7.64111 8.34985 8.0001C8.34985 8.35908 8.64087 8.6501 8.99985 8.6501H11.9999C12.3588 8.6501 12.6499 8.35908 12.6499 8.0001C12.6499 7.64111 12.3588 7.3501 11.9999 7.3501H8.99985ZM8.99985 10.3501C8.64087 10.3501 8.34985 10.6411 8.34985 11.0001C8.34985 11.3591 8.64087 11.6501 8.99985 11.6501H11.9999C12.3588 11.6501 12.6499 11.3591 12.6499 11.0001C12.6499 10.6411 12.3588 10.3501 11.9999 10.3501H8.99985Z" fill="#3F465C"/>
</g>
</svg>
