<svg width="16" height="16" viewBox="0 0 16 16" fill="none" xmlns="http://www.w3.org/2000/svg">
<g clip-path="url(#clip0_15172_127507)">
<path d="M8 14.5C11.5899 14.5 14.5 11.5899 14.5 8C14.5 4.41015 11.5899 1.5 8 1.5C4.41015 1.5 1.5 4.41015 1.5 8C1.5 11.5899 4.41015 14.5 8 14.5Z" stroke="#3F465C" stroke-width="1.3"/>
<path d="M8.24053 8.02945V12.0619H6.9287V8.02945H6.92088V8.02164H6.10779V6.69772H6.92088V6.68991H6.9287V5.87982C6.9287 5.33429 7.0103 4.86632 7.24008 4.53486C7.46944 4.204 7.84742 4.00781 8.4437 4.00781H9.8588V5.32855H8.86434C8.6117 5.32855 8.45506 5.41268 8.36195 5.5422C8.26921 5.67122 8.24053 5.84391 8.24053 6.01918L8.24053 6.69055H8.24834H8.25615L9.78425 6.69055L9.78302 6.69836L9.57484 8.02164H8.24834V8.02945H8.24053Z" fill="#3F465C" stroke="#3F465C" stroke-width="0.015625"/>
</g>
<defs>
<clipPath id="clip0_15172_127507">
<rect width="16" height="16" fill="white"/>
</clipPath>
</defs>
</svg>
