<svg width="16" height="16" viewBox="0 0 16 16" fill="none" xmlns="http://www.w3.org/2000/svg">
<path d="M6.3457 5.30005L7.98207 6.93641L9.61843 5.30005" stroke="#3F465C" stroke-width="1.2" stroke-linecap="round"/>
<path d="M5.7998 7.48181L10.1634 7.48181" stroke="#3F465C" stroke-width="1.2" stroke-linecap="round"/>
<path d="M5.7998 9.6637L10.1634 9.6637" stroke="#3F465C" stroke-width="1.2" stroke-linecap="round"/>
<path d="M7.98145 6.9364V11.3" stroke="#3F465C" stroke-width="1.2" stroke-linecap="round"/>
<path d="M13.9995 8C13.9995 8.13441 13.9951 8.26779 13.9864 8.4C13.7806 11.5272 11.1788 14 7.99951 14C5.77867 14 3.83963 12.7934 2.8022 11M1.99951 8C1.99951 7.86559 2.00393 7.73221 2.01263 7.6C2.21847 4.47279 4.82022 2 7.99951 2C10.2223 2 12.1628 3.20869 13.1995 5.00466" stroke="#3F465C" stroke-width="1.2" stroke-linecap="round" stroke-linejoin="round"/>
<path d="M1.50907 8.44681H2.48897L1.99902 8.93676L1.50907 8.44681Z" stroke="#3F465C"/>
<path d="M14.4895 7.55319L13.5096 7.55319L13.9995 7.06324L14.4895 7.55319Z" stroke="#3F465C"/>
</svg>
