<svg width="16" height="16" viewBox="0 0 16 16" fill="none" xmlns="http://www.w3.org/2000/svg">
<g id="&#233;&#128;&#154;&#231;&#148;&#168;_&#228;&#186;&#186;&#229;&#145;&#152;2">
<path id="Union" fill-rule="evenodd" clip-rule="evenodd" d="M9.91934 2.1501C9.63972 2.1501 9.37628 2.2117 9.14032 2.32145C8.81483 2.47286 8.42822 2.33172 8.27682 2.00623C8.12542 1.68073 8.26655 1.29413 8.59205 1.14273C8.99622 0.954732 9.44646 0.850098 9.91934 0.850098C11.659 0.850098 13.0693 2.2604 13.0693 4.0001C13.0693 5.32575 12.2507 6.45862 11.0938 6.9237C10.7607 7.05759 10.3821 6.89613 10.2482 6.56305C10.1143 6.22997 10.2758 5.85141 10.6089 5.71751C11.2902 5.44361 11.7693 4.77703 11.7693 4.0001C11.7693 2.97837 10.9411 2.1501 9.91934 2.1501ZM4.6501 5.5001C4.6501 4.47837 5.47837 3.6501 6.5001 3.6501C7.52182 3.6501 8.3501 4.47837 8.3501 5.5001C8.3501 6.52182 7.52182 7.3501 6.5001 7.3501C5.47837 7.3501 4.6501 6.52182 4.6501 5.5001ZM6.5001 2.3501C4.7604 2.3501 3.3501 3.7604 3.3501 5.5001C3.3501 7.23979 4.7604 8.6501 6.5001 8.6501C8.23979 8.6501 9.6501 7.23979 9.6501 5.5001C9.6501 3.7604 8.23979 2.3501 6.5001 2.3501ZM2.1501 12.0001C2.1501 10.9784 2.97837 10.1501 4.0001 10.1501H9.0001C10.0218 10.1501 10.8501 10.9784 10.8501 12.0001V13.3501H2.1501V12.0001ZM4.0001 8.8501C2.2604 8.8501 0.850098 10.2604 0.850098 12.0001V13.5001C0.850098 14.1352 1.36497 14.6501 2.0001 14.6501H11.0001C11.6352 14.6501 12.1501 14.1352 12.1501 13.5001V12.0001C12.1501 10.2604 10.7398 8.8501 9.0001 8.8501H4.0001ZM10.8497 7.3501C10.4907 7.3501 10.1997 7.64111 10.1997 8.0001C10.1997 8.35908 10.4907 8.6501 10.8497 8.6501H12.4196C13.4414 8.6501 14.2696 9.47837 14.2696 10.5001V11.8501H13.4997C13.1407 11.8501 12.8497 12.1411 12.8497 12.5001C12.8497 12.8591 13.1407 13.1501 13.4997 13.1501H14.4196C15.0548 13.1501 15.5696 12.6352 15.5696 12.0001V10.5001C15.5696 8.7604 14.1593 7.3501 12.4196 7.3501H10.8497Z" fill="#3F465C"/>
</g>
</svg>
