<svg width="16" height="16" viewBox="0 0 16 16" fill="none" xmlns="http://www.w3.org/2000/svg">
<g id="&#233;&#128;&#154;&#231;&#148;&#168;_&#228;&#186;&#167;&#229;&#147;&#129;&#231;&#174;&#161;&#231;&#144;&#134;">
<path id="Union" fill-rule="evenodd" clip-rule="evenodd" d="M7.42478 0.581317C7.78059 0.375889 8.21896 0.375889 8.57478 0.581317L14.387 3.93698L14.712 4.12462V4.4999V11.2112C14.712 11.6221 14.4928 12.0017 14.137 12.2071L8.32478 15.5628L7.99978 15.7505L7.67478 15.5628L1.8626 12.2071C1.50679 12.0017 1.2876 11.6221 1.2876 11.2112V4.4999V4.12462L1.6126 3.93698L7.42478 0.581317ZM7.99978 1.75045L3.26399 4.48466L8.0001 7.24739L12.7359 4.48485L7.99978 1.75045ZM2.5876 11.1246V5.59511L7.3501 8.37324V13.8742L2.5876 11.1246ZM8.6501 13.8739L13.412 11.1246V5.59549L8.6501 8.37324V13.8739Z" fill="#3F465C"/>
</g>
</svg>
