<svg width="16" height="16" viewBox="0 0 16 16" fill="none" xmlns="http://www.w3.org/2000/svg">
<g id="&#233;&#128;&#154;&#231;&#148;&#168;_&#232;&#181;&#132;&#233;&#135;&#145;2_&#233;&#157;&#162;">
<circle id="Ellipse 942" cx="8" cy="8" r="7" stroke="#3F465C" stroke-width="1.3"/>
<path id="Union" fill-rule="evenodd" clip-rule="evenodd" d="M6.59216 4.6921C6.38063 4.48056 6.03767 4.48056 5.82613 4.6921C5.6146 4.90363 5.6146 5.2466 5.82613 5.45813L7.26509 6.89709H5.61735C5.3182 6.89709 5.07568 7.1396 5.07568 7.43876C5.07568 7.73791 5.3182 7.98042 5.61735 7.98042H7.43909V9.26073H5.61735C5.3182 9.26073 5.07568 9.50324 5.07568 9.8024C5.07568 10.1016 5.3182 10.3441 5.61735 10.3441H7.43909V11.5751C7.43909 11.8743 7.6816 12.1168 7.98075 12.1168C8.27991 12.1168 8.52242 11.8743 8.52242 11.5751V10.3441H10.3446C10.6438 10.3441 10.8863 10.1016 10.8863 9.8024C10.8863 9.50324 10.6438 9.26073 10.3446 9.26073H8.52242V7.98042H10.3446C10.6438 7.98042 10.8863 7.73791 10.8863 7.43876C10.8863 7.1396 10.6438 6.89709 10.3446 6.89709H8.69866L10.1376 5.45813C10.3492 5.2466 10.3492 4.90363 10.1376 4.6921C9.92608 4.48056 9.58312 4.48056 9.37159 4.6921L7.98187 6.08181L6.59216 4.6921Z" fill="#3F465C"/>
</g>
</svg>
