<svg width="16" height="16" viewBox="0 0 16 16" fill="none" xmlns="http://www.w3.org/2000/svg">
<g id="&#233;&#128;&#154;&#231;&#148;&#168;_&#230;&#149;&#176;&#230;&#141;&#174;&#231;&#187;&#159;&#232;&#174;&#161;">
<path id="Union" fill-rule="evenodd" clip-rule="evenodd" d="M2.5001 2.3501C2.85908 2.3501 3.1501 2.64111 3.1501 3.0001V12.3501H13.5001C13.8591 12.3501 14.1501 12.6411 14.1501 13.0001C14.1501 13.3591 13.8591 13.6501 13.5001 13.6501H2.5001H1.8501V13.0001V3.0001C1.8501 2.64111 2.14111 2.3501 2.5001 2.3501ZM12.0001 4.4502C12.3591 4.4502 12.6501 4.74121 12.6501 5.1002V10.6002C12.6501 10.9592 12.3591 11.2502 12.0001 11.2502C11.6411 11.2502 11.3501 10.9592 11.3501 10.6002V5.1002C11.3501 4.74121 11.6411 4.4502 12.0001 4.4502ZM5.4499 9.1002C5.4499 8.74121 5.15889 8.4502 4.7999 8.4502C4.44092 8.4502 4.1499 8.74121 4.1499 9.1002V10.6002C4.1499 10.9592 4.44092 11.2502 4.7999 11.2502C5.15889 11.2502 5.4499 10.9592 5.4499 10.6002V9.1002ZM7.20029 5.9502C7.55928 5.9502 7.85029 6.24121 7.85029 6.6002V10.6002C7.85029 10.9592 7.55928 11.2502 7.20029 11.2502C6.84131 11.2502 6.55029 10.9592 6.55029 10.6002V6.6002C6.55029 6.24121 6.84131 5.9502 7.20029 5.9502ZM10.2497 7.6002C10.2497 7.24121 9.95869 6.9502 9.59971 6.9502C9.24072 6.9502 8.94971 7.24121 8.94971 7.6002V10.6002C8.94971 10.9592 9.24072 11.2502 9.59971 11.2502C9.95869 11.2502 10.2497 10.9592 10.2497 10.6002V7.6002Z" fill="#3F465C"/>
</g>
</svg>
