<svg width="16" height="16" viewBox="0 0 16 16" fill="none" xmlns="http://www.w3.org/2000/svg">
<path d="M2.06125 6.5C2.06125 4.84703 3.31379 3.46299 4.95856 3.29851L10.3764 2.75672C10.5825 2.73612 10.7613 2.89792 10.7613 3.10499V9.89501C10.7613 10.1021 10.5825 10.2639 10.3764 10.2433L4.95856 9.70149C3.31379 9.53701 2.06125 8.15297 2.06125 6.5Z" stroke="#3F465C" stroke-width="1.3"/>
<path d="M4.06125 11.5V9.71824L7.76125 10.0882V11.5C7.76125 12.5217 6.93298 13.35 5.91125 13.35C4.88953 13.35 4.06125 12.5217 4.06125 11.5Z" stroke="#3F465C" stroke-width="1.3"/>
<path d="M13.4113 3.71375L14.4113 2.71375" stroke="#3F465C" stroke-width="1.3" stroke-linecap="round"/>
<path d="M13.4113 9.16016L14.4113 10.1602" stroke="#3F465C" stroke-width="1.3" stroke-linecap="round"/>
<path d="M13.2336 6.43695H14.5888" stroke="#3F465C" stroke-width="1.3" stroke-linecap="round"/>
</svg>
