<svg width="16" height="16" viewBox="0 0 16 16" fill="none" xmlns="http://www.w3.org/2000/svg">
<path d="M6 2H15V12H6V2Z" stroke="#6F7485" stroke-width="1.2" stroke-linejoin="round"/>
<path d="M11.0116 6.82558H12.5C12.7791 6.82558 13 6.59302 13 6.32558C13 6.04651 12.7791 5.82558 12.5 5.82558H11.3372L12.314 4.84884C12.5 4.66279 12.5 4.33721 12.314 4.13953C12.1279 3.95349 11.8023 3.95349 11.6047 4.13953L10.5 5.25581L9.39535 4.13953C9.19767 3.95349 8.88372 3.97674 8.68605 4.17442C8.51163 4.36047 8.51163 4.65116 8.68605 4.84884L9.66279 5.82558H8.5C8.22093 5.82558 8 6.05814 8 6.32558C8 6.60465 8.22093 6.82558 8.5 6.82558H9.98837V7.81395H8.5C8.22093 7.81395 8 8.04651 8 8.31395C8 8.59302 8.22093 8.81395 8.5 8.81395H9.98837V9.38372C9.98837 9.66279 10.2093 9.88372 10.4884 9.88372C10.7674 9.88372 10.9884 9.65116 10.9884 9.38372V8.81395H12.4767C12.7558 8.81395 12.9767 8.5814 12.9767 8.31395C12.9767 8.03488 12.7558 7.81395 12.4767 7.81395H10.9884V6.82558H11.0116Z" fill="#6F7485"/>
<path d="M6 5H6.6V4.4H6V5ZM1 12H0.4C0.4 12.3314 0.668629 12.6 1 12.6L1 12ZM6 12V12.6C6.33137 12.6 6.6 12.3314 6.6 12H6ZM6 4.4H4.01462V5.6H6V4.4ZM6.6 12V5H5.4V12H6.6ZM1 12.6H6V11.4H1V12.6ZM2.71264 5.07002L0.698027 7.89048L1.67451 8.58797L3.68912 5.7675L2.71264 5.07002ZM0.4 8.82047V12H1.6V8.82047H0.4ZM0.698027 7.89048C0.504197 8.16184 0.4 8.48699 0.4 8.82047H1.6C1.6 8.7371 1.62605 8.65581 1.67451 8.58797L0.698027 7.89048ZM4.01462 4.4C3.4979 4.4 3.01298 4.64955 2.71264 5.07002L3.68912 5.7675C3.76421 5.66239 3.88544 5.6 4.01462 5.6V4.4Z" fill="#6F7485"/>
<path d="M4 14C5.10457 14 6 13.1046 6 12H4H2C2 13.1046 2.89543 14 4 14Z" stroke="#6F7485" stroke-width="1.2" stroke-linejoin="round"/>
<path d="M12 14C13.1046 14 14 13.1046 14 12H12H10C10 13.1046 10.8954 14 12 14Z" stroke="#6F7485" stroke-width="1.2" stroke-linejoin="round"/>
</svg>
