<svg width="16" height="16" viewBox="0 0 16 16" fill="none" xmlns="http://www.w3.org/2000/svg">
<g id="whatsapp">
<path id="Vector" d="M2.97374 11.5013L3.06984 11.2152L2.91326 10.9572C2.33279 10.0005 2.04307 8.95975 2.04307 7.82135C2.04307 6.99828 2.20385 6.2152 2.52571 5.4666C2.85222 4.70719 3.28624 4.06142 3.82569 3.52197C4.36513 2.98253 5.0109 2.54851 5.77031 2.222C6.51891 1.90014 7.30199 1.73936 8.12507 1.73936C8.94814 1.73936 9.73122 1.90014 10.4798 2.222C11.2392 2.54851 11.885 2.98253 12.4244 3.52198C12.9639 4.06142 13.3979 4.70719 13.7244 5.4666C14.0463 6.2152 14.2071 6.99828 14.2071 7.82135C14.2071 8.64443 14.0463 9.42751 13.7244 10.1761C13.3979 10.9355 12.9639 11.5813 12.4244 12.1207C11.885 12.6602 11.2392 13.0942 10.4798 13.4207C9.73122 13.7426 8.94814 13.9034 8.12507 13.9034C7.07402 13.9034 6.09597 13.6513 5.18064 13.145L4.93472 13.009L4.66719 13.095L2.16878 13.898L2.97374 11.5013Z" stroke="#3F465C" stroke-width="1.3"/>
<path id="Vector_2" d="M10.8084 9.08936C10.3054 8.82736 10.0152 8.69635 9.93791 8.69635H9.93641C9.85875 8.69635 9.70391 8.84069 9.47191 9.12936C9.23991 9.41802 9.07925 9.56235 8.98991 9.56235C8.93025 9.56235 8.86475 9.54152 8.79341 9.49985C8.22808 9.21385 7.77875 8.91319 7.44541 8.59785C7.04075 8.21719 6.73725 7.80952 6.53491 7.37486C6.50525 7.32719 6.49041 7.28252 6.49041 7.24086C6.49041 7.18152 6.59308 7.04319 6.79841 6.82586C7.00375 6.60852 7.10641 6.43736 7.10641 6.31236C7.10641 6.27069 7.03208 6.04752 6.88341 5.64286C6.73475 5.23819 6.63658 4.97636 6.58891 4.85736C6.54125 4.73236 6.49508 4.65052 6.45041 4.61186C6.40575 4.57319 6.32691 4.55386 6.21391 4.55386C6.17225 4.55386 6.11575 4.54936 6.04441 4.54036C5.97308 4.53136 5.91958 4.52686 5.88391 4.52686C5.71725 4.52686 5.56241 4.59236 5.41941 4.72336C4.99708 5.12202 4.77691 5.59219 4.75891 6.13386V6.20536C4.75291 6.72302 4.96425 7.30036 5.39291 7.93736C5.84525 8.60436 6.28575 9.15502 6.71441 9.58935C7.14308 10.0237 7.64908 10.3749 8.23241 10.6429C9.02408 11.0119 9.58958 11.1964 9.92891 11.1964C10.2086 11.1967 10.5121 11.1179 10.8394 10.9599C11.1667 10.8019 11.3781 10.6069 11.4734 10.3749C11.5747 10.1189 11.6254 9.89269 11.6254 9.69635C11.6254 9.63669 11.6194 9.59202 11.6074 9.56235C11.5777 9.50902 11.3114 9.35136 10.8084 9.08936Z" fill="#3F465C"/>
</g>
</svg>
