<svg width="16" height="16" viewBox="0 0 16 16" fill="none" xmlns="http://www.w3.org/2000/svg">
<g id="&#233;&#128;&#154;&#231;&#148;&#168;_WhatsApp B">
<path id="Union" fill-rule="evenodd" clip-rule="evenodd" d="M5.49521 12.5767L5.00338 12.3047L4.46831 12.4767L3.19449 12.8861L3.58991 11.7087L3.78211 11.1365L3.46896 10.6205C2.95102 9.76688 2.69307 8.84297 2.69307 7.82184C2.69307 7.08636 2.83614 6.39069 3.12286 5.72383C3.41887 5.03534 3.80774 4.45965 4.28531 3.98208C4.76287 3.50452 5.33856 3.11565 6.02705 2.81964C6.69392 2.53292 7.38959 2.38984 8.12507 2.38984C8.86055 2.38984 9.55622 2.53292 10.2231 2.81964C10.9116 3.11565 11.4873 3.50452 11.9648 3.98208C12.4424 4.45965 12.8313 5.03534 13.1273 5.72383C13.414 6.3907 13.5571 7.08637 13.5571 7.82184C13.5571 8.55732 13.414 9.25299 13.1273 9.91986C12.8313 10.6083 12.4424 11.184 11.9648 11.6616C11.4873 12.1392 10.9116 12.528 10.2231 12.824C9.55621 13.1108 8.86054 13.2538 8.12507 13.2538C7.18363 13.2538 6.31388 13.0295 5.49521 12.5767ZM2.08506 14.6081C1.69466 14.7336 1.32754 14.3616 1.4581 13.9729L2.35757 11.2948C1.71457 10.2352 1.39307 9.07751 1.39307 7.82184C1.39307 6.91118 1.57157 6.04068 1.92857 5.21034C2.28557 4.38001 2.76473 3.66418 3.36607 3.06284C3.9674 2.46151 4.68323 1.98234 5.51357 1.62534C6.3439 1.26834 7.2144 1.08984 8.12507 1.08984C9.03573 1.08984 9.90623 1.26834 10.7366 1.62534C11.5669 1.98234 12.2827 2.46151 12.8841 3.06284C13.4854 3.66418 13.9646 4.38001 14.3216 5.21034C14.6786 6.04068 14.8571 6.91118 14.8571 7.82184C14.8571 8.73251 14.6786 9.60301 14.3216 10.4333C13.9646 11.2637 13.4854 11.9795 12.8841 12.5808C12.2827 13.1822 11.5669 13.6613 10.7366 14.0183C9.90623 14.3753 9.03573 14.5538 8.12507 14.5538C6.9644 14.5538 5.87807 14.274 4.86607 13.7143L2.08506 14.6081ZM6.29986 5.00024H6.49982H8.89982C9.72824 5.00024 10.3998 5.67182 10.3998 6.50024C10.3998 7.00345 10.152 7.44878 9.77182 7.72088C10.2937 8.0229 10.633 8.60201 10.5938 9.25006C10.541 10.121 9.81929 10.8002 8.94679 10.8002H6.29982C6.13413 10.8002 5.99982 10.6659 5.99982 10.5002V8.00024V7.52226V5.30024C5.99982 5.13456 6.13418 5.00024 6.29986 5.00024ZM7.12264 6.00024C7.11663 6.00024 7.11176 6.00512 7.11176 6.01113V7.30024H8.64979C9.00878 7.30024 9.29979 7.00923 9.29979 6.65024C9.29979 6.29126 9.00878 6.00024 8.64979 6.00024H7.12264ZM7.11176 8.38699C7.11176 8.38071 7.11685 8.37561 7.12314 8.37561H8.68752C9.08091 8.37561 9.39982 8.69452 9.39982 9.08791C9.39982 9.4813 9.08091 9.80021 8.68752 9.80021H7.11176V8.38699Z" fill="#3F465C"/>
</g>
</svg>
