<svg width="16" height="16" viewBox="0 0 16 16" fill="none" xmlns="http://www.w3.org/2000/svg">
<g id="&#233;&#128;&#154;&#231;&#148;&#168;_&#231;&#186;&#191;&#231;&#180;&#162;">
<path id="Union" fill-rule="evenodd" clip-rule="evenodd" d="M9.9999 3.6501C9.9999 2.37984 11.0297 1.3501 12.2999 1.3501C13.5701 1.3501 14.5999 2.37984 14.5999 3.6501C14.5999 4.69461 13.9036 5.5765 12.9499 5.85696V11.8348C12.9499 13.3849 11.7016 14.6501 10.1513 14.6501C8.60092 14.6501 7.35265 13.3849 7.35265 11.8348V4.16816C7.35265 3.325 6.67573 2.6501 5.85129 2.6501C5.02681 2.6501 4.3499 3.32501 4.3499 4.16816V10.11C5.30363 10.3904 5.9999 11.2723 5.9999 12.3168C5.9999 13.5871 4.97015 14.6168 3.6999 14.6168C2.42965 14.6168 1.3999 13.5871 1.3999 12.3168C1.3999 11.2723 2.09617 10.3904 3.0499 10.11V4.16816C3.0499 2.61652 4.2994 1.3501 5.85129 1.3501C7.40316 1.3501 8.65265 2.61653 8.65265 4.16816V11.8348C8.65265 12.6764 9.32833 13.3501 10.1513 13.3501C10.9742 13.3501 11.6499 12.6764 11.6499 11.8348V5.85696C10.6962 5.5765 9.9999 4.69461 9.9999 3.6501ZM12.2999 2.6501C11.7476 2.6501 11.2999 3.09782 11.2999 3.6501C11.2999 4.20237 11.7476 4.6501 12.2999 4.6501C12.8522 4.6501 13.2999 4.20237 13.2999 3.6501C13.2999 3.09782 12.8522 2.6501 12.2999 2.6501ZM3.6999 11.3168C3.14762 11.3168 2.6999 11.7646 2.6999 12.3168C2.6999 12.8691 3.14762 13.3168 3.6999 13.3168C4.25218 13.3168 4.6999 12.8691 4.6999 12.3168C4.6999 11.7646 4.25218 11.3168 3.6999 11.3168Z" fill="#3F465C"/>
</g>
</svg>
