<svg width="16" height="16" viewBox="0 0 16 16" fill="none" xmlns="http://www.w3.org/2000/svg">
<g id="Frame 1410110783">
<path id="Ellipse 914" d="M13.9869 4.87898C12.8602 2.72217 10.6021 1.25 8.00018 1.25C5.39771 1.25 3.13924 2.72279 2.01277 4.88036M2.0127 11.1195C3.13914 13.2771 5.39766 14.75 8.00018 14.75C10.6027 14.75 12.8612 13.2771 13.9877 11.1195" stroke="#3F465C" stroke-width="1.3" stroke-linecap="round" stroke-linejoin="round"/>
<path id="Vector 926" d="M0.714355 6.59985L1.45951 9.45177C1.47174 9.49855 1.53664 9.50246 1.5544 9.45748L2.68229 6.59985L3.73516 9.45049C3.75212 9.4964 3.81812 9.49313 3.83045 9.44577L4.5715 6.59985" stroke="#3F465C" stroke-width="1.1" stroke-linecap="round" stroke-linejoin="round"/>
<path id="Vector 927" d="M6.07129 6.59985L6.81645 9.45177C6.82867 9.49855 6.89358 9.50246 6.91133 9.45748L8.03922 6.59985L9.09209 9.45049C9.10905 9.4964 9.17505 9.49313 9.18738 9.44577L9.92843 6.59985" stroke="#3F465C" stroke-width="1.1" stroke-linecap="round" stroke-linejoin="round"/>
<path id="Vector 928" d="M11.4287 6.59985L12.1739 9.45177C12.1861 9.49855 12.251 9.50246 12.2688 9.45748L13.3966 6.59985L14.4495 9.45049C14.4665 9.4964 14.5325 9.49313 14.5448 9.44577L15.2859 6.59985" stroke="#3F465C" stroke-width="1.1" stroke-linecap="round" stroke-linejoin="round"/>
</g>
</svg>
