<svg width="16" height="16" viewBox="0 0 16 16" fill="none" xmlns="http://www.w3.org/2000/svg">
<g id="&#229;&#175;&#188;&#232;&#136;&#170;_&#229;&#143;&#145;&#228;&#187;&#182;">
<path id="Vector 643" d="M2.33333 2.92438H1.73148V3.17686L1.91161 3.35377L2.33333 2.92438ZM7.95062 8.44136L7.52889 8.87075C7.76348 9.10115 8.13957 9.10063 8.37352 8.86959L7.95062 8.44136ZM1.5 6.56636C1.16761 6.56636 0.898148 6.83582 0.898148 7.16821C0.898148 7.5006 1.16761 7.77006 1.5 7.77006V6.56636ZM3.81481 7.77006C4.14721 7.77006 4.41667 7.5006 4.41667 7.16821C4.41667 6.83582 4.14721 6.56636 3.81481 6.56636V7.77006ZM1.5 9.30556C1.16761 9.30556 0.898148 9.57501 0.898148 9.90741C0.898148 10.2398 1.16761 10.5093 1.5 10.5093V9.30556ZM5.66667 10.5093C5.99906 10.5093 6.26852 10.2398 6.26852 9.90741C6.26852 9.57501 5.99906 9.30556 5.66667 9.30556V10.5093ZM2.75772 3.10185H13.537V1.89815H2.75772V3.10185ZM13.3981 2.96296V12.2222H14.6019V2.96296H13.3981ZM13.537 12.0833H2.7963V13.287H13.537V12.0833ZM2.93519 12.2222V12.0833H1.73148V12.2222H2.93519ZM1.91161 3.35377L7.52889 8.87075L8.37234 8.01197L2.75506 2.49499L1.91161 3.35377ZM8.37352 8.86959L13.9599 3.35261L13.1141 2.49616L7.52771 8.01313L8.37352 8.86959ZM1.5 7.77006H3.81481V6.56636H1.5V7.77006ZM1.5 10.5093H5.66667V9.30556H1.5V10.5093ZM2.7963 12.0833C2.873 12.0833 2.93519 12.1455 2.93519 12.2222H1.73148C1.73148 12.8103 2.20822 13.287 2.7963 13.287V12.0833ZM13.3981 12.2222C13.3981 12.1455 13.4603 12.0833 13.537 12.0833V13.287C14.1251 13.287 14.6019 12.8103 14.6019 12.2222H13.3981ZM13.537 3.10185C13.4603 3.10185 13.3981 3.03967 13.3981 2.96296H14.6019C14.6019 2.37488 14.1251 1.89815 13.537 1.89815V3.10185ZM2.75772 1.89815C2.19094 1.89815 1.73148 2.35761 1.73148 2.92438H2.93519C2.93519 3.0224 2.85573 3.10185 2.75772 3.10185V1.89815Z" fill="#3F465C"/>
</g>
</svg>
