<svg width="39" height="52" viewBox="0 0 39 52" fill="none" xmlns="http://www.w3.org/2000/svg">
<g filter="url(#filter0_d_844_10235)">
<circle cx="19.6" cy="27" r="13" fill="#FE6C5E"/>
</g>
<g filter="url(#filter1_d_844_10235)">
<path fill-rule="evenodd" clip-rule="evenodd" d="M13.6 22C13.6 21.4477 14.0477 21 14.6 21H22.6C23.1523 21 23.6 21.4477 23.6 22V29C23.6 29.5523 23.1523 30 22.6 30H17.5142C17.249 30 16.9947 30.1054 16.8071 30.2929L15.5268 31.5732C15.3693 31.7307 15.1 31.6192 15.1 31.3964V30.25C15.1 30.1119 14.9881 30 14.85 30H14.6C14.0477 30 13.6 29.5523 13.6 29V22ZM17.6 31C17.6 31.5523 18.0477 32 18.6 32H21.6858C21.951 32 22.2054 32.1054 22.3929 32.2929L23.6732 33.5732C23.8307 33.7307 24.1 33.6192 24.1 33.3964V32.25C24.1 32.1119 24.2119 32 24.35 32H24.6C25.1523 32 25.6 31.5523 25.6 31V25C25.6 24.4477 25.1523 24 24.6 24V30.5C24.6 30.7761 24.3761 31 24.1 31H17.6ZM19.6607 23.7326C19.8559 23.5373 20.1725 23.5373 20.3678 23.7326C20.563 23.9279 20.563 24.2445 20.3678 24.4397L19.3071 25.5004L20.3678 26.561C20.563 26.7563 20.563 27.0729 20.3678 27.2681C20.1725 27.4634 19.8559 27.4634 19.6607 27.2681L18.6 26.2075L17.5393 27.2681C17.3441 27.4634 17.0275 27.4634 16.8322 27.2681C16.637 27.0729 16.637 26.7563 16.8322 26.561L17.8929 25.5004L16.8322 24.4397C16.637 24.2445 16.637 23.9279 16.8322 23.7326C17.0275 23.5373 17.3441 23.5373 17.5393 23.7326L18.6 24.7933L19.6607 23.7326Z" fill="white"/>
</g>
<defs>
<filter id="filter0_d_844_10235" x="0.600006" y="12" width="38" height="38" filterUnits="userSpaceOnUse" color-interpolation-filters="sRGB">
<feFlood flood-opacity="0" result="BackgroundImageFix"/>
<feColorMatrix in="SourceAlpha" type="matrix" values="0 0 0 0 0 0 0 0 0 0 0 0 0 0 0 0 0 0 127 0" result="hardAlpha"/>
<feOffset dy="4"/>
<feGaussianBlur stdDeviation="3"/>
<feComposite in2="hardAlpha" operator="out"/>
<feColorMatrix type="matrix" values="0 0 0 0 1 0 0 0 0 0.262745 0 0 0 0 0.192157 0 0 0 0.2 0"/>
<feBlend mode="normal" in2="BackgroundImageFix" result="effect1_dropShadow_844_10235"/>
<feBlend mode="normal" in="SourceGraphic" in2="effect1_dropShadow_844_10235" result="shape"/>
</filter>
<filter id="filter1_d_844_10235" x="6.60001" y="16" width="26" height="26" filterUnits="userSpaceOnUse" color-interpolation-filters="sRGB">
<feFlood flood-opacity="0" result="BackgroundImageFix"/>
<feColorMatrix in="SourceAlpha" type="matrix" values="0 0 0 0 0 0 0 0 0 0 0 0 0 0 0 0 0 0 127 0" result="hardAlpha"/>
<feOffset dy="2"/>
<feGaussianBlur stdDeviation="3"/>
<feComposite in2="hardAlpha" operator="out"/>
<feColorMatrix type="matrix" values="0 0 0 0 1 0 0 0 0 0.261743 0 0 0 0 0.190952 0 0 0 1 0"/>
<feBlend mode="normal" in2="BackgroundImageFix" result="effect1_dropShadow_844_10235"/>
<feBlend mode="normal" in="SourceGraphic" in2="effect1_dropShadow_844_10235" result="shape"/>
</filter>
</defs>
</svg>
