<svg width="39" height="52" viewBox="0 0 39 52" fill="none" xmlns="http://www.w3.org/2000/svg">
<g filter="url(#filter0_d_495_25532)">
<circle cx="20" cy="27" r="13" fill="#A259FF"/>
</g>
<g filter="url(#filter1_d_495_25532)">
<path fill-rule="evenodd" clip-rule="evenodd" d="M25 22C25.5523 22 26 22.4477 26 23V31C26 31.5523 25.5523 32 25 32H22.0001C21.6853 32 21.3889 32.1482 21.2001 32.4L20.4001 33.4667C20.2001 33.7333 19.8001 33.7333 19.6001 33.4667L18.8001 32.4C18.6112 32.1482 18.3148 32 18.0001 32H15C14.4477 32 14 31.5523 14 31V23C14 22.4477 14.4477 22 15 22H25ZM19.4604 23.5H20.5318L23.1423 30.2872L23.109 30.3H22.0758L21.3835 28.5H18.6088L17.9165 30.3H16.8833L16.85 30.2872L19.4604 23.5ZM19.9961 24.8928L20.9989 27.5H18.9934L19.9961 24.8928Z" fill="white"/>
</g>
<defs>
<filter id="filter0_d_495_25532" x="1" y="12" width="38" height="38" filterUnits="userSpaceOnUse" color-interpolation-filters="sRGB">
<feFlood flood-opacity="0" result="BackgroundImageFix"/>
<feColorMatrix in="SourceAlpha" type="matrix" values="0 0 0 0 0 0 0 0 0 0 0 0 0 0 0 0 0 0 127 0" result="hardAlpha"/>
<feOffset dy="4"/>
<feGaussianBlur stdDeviation="3"/>
<feComposite in2="hardAlpha" operator="out"/>
<feColorMatrix type="matrix" values="0 0 0 0 0.494118 0 0 0 0 0.0941176 0 0 0 0 1 0 0 0 0.2 0"/>
<feBlend mode="normal" in2="BackgroundImageFix" result="effect1_dropShadow_495_25532"/>
<feBlend mode="normal" in="SourceGraphic" in2="effect1_dropShadow_495_25532" result="shape"/>
</filter>
<filter id="filter1_d_495_25532" x="11" y="18" width="18" height="18" filterUnits="userSpaceOnUse" color-interpolation-filters="sRGB">
<feFlood flood-opacity="0" result="BackgroundImageFix"/>
<feColorMatrix in="SourceAlpha" type="matrix" values="0 0 0 0 0 0 0 0 0 0 0 0 0 0 0 0 0 0 127 0" result="hardAlpha"/>
<feOffset/>
<feGaussianBlur stdDeviation="1"/>
<feComposite in2="hardAlpha" operator="out"/>
<feColorMatrix type="matrix" values="0 0 0 0 0.492783 0 0 0 0 0.0946447 0 0 0 0 1 0 0 0 1 0"/>
<feBlend mode="normal" in2="BackgroundImageFix" result="effect1_dropShadow_495_25532"/>
<feBlend mode="normal" in="SourceGraphic" in2="effect1_dropShadow_495_25532" result="shape"/>
</filter>
</defs>
</svg>
