<svg width="38" height="52" viewBox="0 0 38 52" fill="none" xmlns="http://www.w3.org/2000/svg">
<g filter="url(#filter0_d_1321_11303)">
<g clip-path="url(#clip0_1321_11303)">
<rect x="6" y="14" width="26" height="26" rx="13" fill="#4C6AFF"/>
<g filter="url(#filter1_d_1321_11303)">
<g filter="url(#filter2_d_1321_11303)">
<path fill-rule="evenodd" clip-rule="evenodd" d="M13.4 22C13.4 21.4477 13.8477 21 14.4 21H24.4C24.9523 21 25.4 21.4477 25.4 22V30C25.4 30.5523 24.9523 31 24.4 31H14.4C13.8477 31 13.4 30.5523 13.4 30V22ZM15.4 32.5C15.4 32.7761 15.6239 33 15.9 33H22.9C23.1761 33 23.4 32.7761 23.4 32.5C23.4 32.2239 23.1761 32 22.9 32H15.9C15.6239 32 15.4 32.2239 15.4 32.5ZM17.5464 25.5607C17.7417 25.3654 18.0583 25.3654 18.2535 25.5607L19.8393 27.1464C20.4251 27.7322 21.3749 27.7322 21.9607 27.1464L23.7535 25.3536C23.9488 25.1583 23.9488 24.8417 23.7535 24.6464C23.5583 24.4512 23.2417 24.4512 23.0464 24.6464L21.2535 26.4393C21.0583 26.6346 20.7417 26.6346 20.5464 26.4393L18.9607 24.8536C18.3749 24.2678 17.4251 24.2678 16.8393 24.8536L15.0464 26.6464C14.8512 26.8417 14.8512 27.1583 15.0464 27.3536C15.2417 27.5488 15.5583 27.5488 15.7535 27.3536L17.5464 25.5607Z" fill="white"/>
</g>
</g>
</g>
</g>
<defs>
<filter id="filter0_d_1321_11303" x="0" y="12" width="38" height="38" filterUnits="userSpaceOnUse" color-interpolation-filters="sRGB">
<feFlood flood-opacity="0" result="BackgroundImageFix"/>
<feColorMatrix in="SourceAlpha" type="matrix" values="0 0 0 0 0 0 0 0 0 0 0 0 0 0 0 0 0 0 127 0" result="hardAlpha"/>
<feOffset dy="4"/>
<feGaussianBlur stdDeviation="3"/>
<feComposite in2="hardAlpha" operator="out"/>
<feColorMatrix type="matrix" values="0 0 0 0 0.0708333 0 0 0 0 0.27525 0 0 0 0 1 0 0 0 0.2 0"/>
<feBlend mode="normal" in2="BackgroundImageFix" result="effect1_dropShadow_1321_11303"/>
<feBlend mode="normal" in="SourceGraphic" in2="effect1_dropShadow_1321_11303" result="shape"/>
</filter>
<filter id="filter1_d_1321_11303" x="6.39999" y="16" width="26" height="26" filterUnits="userSpaceOnUse" color-interpolation-filters="sRGB">
<feFlood flood-opacity="0" result="BackgroundImageFix"/>
<feColorMatrix in="SourceAlpha" type="matrix" values="0 0 0 0 0 0 0 0 0 0 0 0 0 0 0 0 0 0 127 0" result="hardAlpha"/>
<feOffset dy="2"/>
<feGaussianBlur stdDeviation="3"/>
<feComposite in2="hardAlpha" operator="out"/>
<feColorMatrix type="matrix" values="0 0 0 0 0.101896 0 0 0 0 0.252416 0 0 0 0 1 0 0 0 1 0"/>
<feBlend mode="normal" in2="BackgroundImageFix" result="effect1_dropShadow_1321_11303"/>
<feBlend mode="normal" in="SourceGraphic" in2="effect1_dropShadow_1321_11303" result="shape"/>
</filter>
<filter id="filter2_d_1321_11303" x="10.8286" y="20.1429" width="17.1429" height="17.1429" filterUnits="userSpaceOnUse" color-interpolation-filters="sRGB">
<feFlood flood-opacity="0" result="BackgroundImageFix"/>
<feColorMatrix in="SourceAlpha" type="matrix" values="0 0 0 0 0 0 0 0 0 0 0 0 0 0 0 0 0 0 127 0" result="hardAlpha"/>
<feOffset dy="1.71429"/>
<feGaussianBlur stdDeviation="1.28571"/>
<feComposite in2="hardAlpha" operator="out"/>
<feColorMatrix type="matrix" values="0 0 0 0 0.0124289 0 0 0 0 0.368808 0 0 0 0 0.865979 0 0 0 0.66 0"/>
<feBlend mode="normal" in2="BackgroundImageFix" result="effect1_dropShadow_1321_11303"/>
<feBlend mode="normal" in="SourceGraphic" in2="effect1_dropShadow_1321_11303" result="shape"/>
</filter>
<clipPath id="clip0_1321_11303">
<rect x="6" y="14" width="26" height="26" rx="13" fill="white"/>
</clipPath>
</defs>
</svg>
