<svg width="39" height="52" viewBox="0 0 39 52" fill="none" xmlns="http://www.w3.org/2000/svg">
<g filter="url(#filter0_d_495_25548)">
<circle cx="19.4" cy="27" r="13" fill="#00CCAA"/>
</g>
<g filter="url(#filter1_d_495_25548)">
<circle cx="19.8" cy="24" r="3" fill="white"/>
<path d="M13.8 32C13.8 29.7909 15.5909 28 17.8 28H21.8C24.0092 28 25.8 29.7909 25.8 32C25.8 33.1046 24.9046 34 23.8 34H15.8C14.6955 34 13.8 33.1046 13.8 32Z" fill="white"/>
<rect x="11.8" y="26" width="4" height="1" rx="0.5" fill="white"/>
<path fill-rule="evenodd" clip-rule="evenodd" d="M14.6285 24.3787C14.4332 24.1834 14.1166 24.1834 13.9214 24.3787C13.7261 24.5739 13.7261 24.8905 13.9214 25.0858L15.3356 26.5L13.9214 27.9142C13.7261 28.1095 13.7261 28.4261 13.9214 28.6213C14.1166 28.8166 14.4332 28.8166 14.6285 28.6213L16.3962 26.8536C16.5915 26.6583 16.5915 26.3417 16.3962 26.1464C16.3961 26.1463 16.396 26.1462 16.3959 26.1461L14.6285 24.3787Z" fill="white"/>
</g>
<defs>
<filter id="filter0_d_495_25548" x="0.400024" y="12" width="38" height="38" filterUnits="userSpaceOnUse" color-interpolation-filters="sRGB">
<feFlood flood-opacity="0" result="BackgroundImageFix"/>
<feColorMatrix in="SourceAlpha" type="matrix" values="0 0 0 0 0 0 0 0 0 0 0 0 0 0 0 0 0 0 127 0" result="hardAlpha"/>
<feOffset dy="4"/>
<feGaussianBlur stdDeviation="3"/>
<feComposite in2="hardAlpha" operator="out"/>
<feColorMatrix type="matrix" values="0 0 0 0 0 0 0 0 0 0.781641 0 0 0 0 0.651368 0 0 0 0.2 0"/>
<feBlend mode="normal" in2="BackgroundImageFix" result="effect1_dropShadow_495_25548"/>
<feBlend mode="normal" in="SourceGraphic" in2="effect1_dropShadow_495_25548" result="shape"/>
</filter>
<filter id="filter1_d_495_25548" x="5.80005" y="16" width="26" height="26" filterUnits="userSpaceOnUse" color-interpolation-filters="sRGB">
<feFlood flood-opacity="0" result="BackgroundImageFix"/>
<feColorMatrix in="SourceAlpha" type="matrix" values="0 0 0 0 0 0 0 0 0 0 0 0 0 0 0 0 0 0 127 0" result="hardAlpha"/>
<feOffset dy="2"/>
<feGaussianBlur stdDeviation="3"/>
<feComposite in2="hardAlpha" operator="out"/>
<feColorMatrix type="matrix" values="0 0 0 0 0 0 0 0 0 0.781641 0 0 0 0 0.651368 0 0 0 1 0"/>
<feBlend mode="normal" in2="BackgroundImageFix" result="effect1_dropShadow_495_25548"/>
<feBlend mode="normal" in="SourceGraphic" in2="effect1_dropShadow_495_25548" result="shape"/>
</filter>
</defs>
</svg>
