<svg width="16" height="16" viewBox="0 0 16 16" fill="none" xmlns="http://www.w3.org/2000/svg">
<path d="M10.5858 2H5.41421C5.149 2 4.89464 2.10536 4.70711 2.29289L2.29289 4.70711C2.10536 4.89464 2 5.149 2 5.41421V10.5858C2 10.851 2.10536 11.1054 2.29289 11.2929L4.70711 13.7071C4.89464 13.8946 5.149 14 5.41421 14H10.5858C10.851 14 11.1054 13.8946 11.2929 13.7071L13.7071 11.2929C13.8946 11.1054 14 10.851 14 10.5858V5.41421C14 5.149 13.8946 4.89464 13.7071 4.70711L11.2929 2.29289C11.1054 2.10536 10.851 2 10.5858 2Z" stroke="#7D8085" stroke-width="1.2"/>
<path d="M6.57397 8.90169L6.06326 6.72753H6.04283L5.53212 8.90169H6.57397ZM4 11L5.62405 5H6.49225L8.11631 11H7.07446L6.76804 9.71067H5.34827L5.04184 11H4Z" fill="#7D8085"/>
<path d="M8.62933 11V5H10.1717C10.7709 5 11.2237 5.13483 11.5301 5.40449C11.8434 5.67416 12 6.05618 12 6.55056V9.35674C12 9.91854 11.8332 10.3343 11.4995 10.6039C11.1727 10.868 10.6994 11 10.0797 11H8.62933ZM9.67117 5.80899V10.191H10.1512C10.444 10.191 10.6517 10.132 10.7743 10.014C10.8969 9.89045 10.9582 9.69944 10.9582 9.44101V6.55056C10.9582 6.31461 10.9003 6.13202 10.7845 6.00281C10.6688 5.8736 10.4577 5.80899 10.1512 5.80899H9.67117Z" fill="#7D8085"/>
</svg>
