<svg width="16" height="16" viewBox="0 0 16 16" fill="none" xmlns="http://www.w3.org/2000/svg">
<path fill-rule="evenodd" clip-rule="evenodd" d="M11.4129 9.65275L13.415 9.39586C13.8066 9.34561 14.0999 9.01229 14.0999 8.6175V2.17979C14.0999 1.71443 13.6695 1.3684 13.215 1.46837L11.0947 1.93477C10.0563 2.16317 8.97311 2.07118 7.98814 1.67097C7.01567 1.27583 5.96636 1.12572 4.93138 1.22677L5.83663 2.40359C6.41673 2.43433 6.9914 2.56124 7.53643 2.7827C8.74636 3.27432 10.077 3.38731 11.3525 3.10675L12.8999 2.76637V8.25212L11.1238 8.48001C10.9332 8.50447 10.742 8.52176 10.5507 8.53193L11.4129 9.65275ZM4.41407 2.52241C4.36011 2.53445 4.30629 2.54736 4.25261 2.56113L3.0999 2.85695V8.08355L4.04651 7.94184C5.34438 7.74755 6.66912 7.84197 7.92632 8.21837C8.27156 8.32173 8.62275 8.40055 8.97729 8.4546L9.96691 9.7411C9.16076 9.72536 8.35843 9.60037 7.58214 9.36795C6.49404 9.04218 5.34747 8.96046 4.22416 9.12862L3.0999 9.29692V14.5H1.8999V8.78005V2.69989C1.8999 2.24446 2.20835 1.84685 2.64949 1.73365L3.61645 1.4855L4.41407 2.52241Z" fill="#7D8085"/>
<path d="M2.5 1L12.5 14" stroke="#7D8085" stroke-width="1.2"/>
</svg>
