<svg width="16" height="16" viewBox="0 0 16 16" fill="none" xmlns="http://www.w3.org/2000/svg">
<path d="M5 2H11" stroke="#7D8085" stroke-width="1.2"/>
<path fill-rule="evenodd" clip-rule="evenodd" d="M13.1 5.09999H15V3.89999H1V5.09999H2.9V13.2C2.9 13.9732 3.5268 14.6 4.3 14.6H11.7C12.4732 14.6 13.1 13.9732 13.1 13.2V5.09999ZM11.9 5.09999H4.1V13.2C4.1 13.3105 4.18954 13.4 4.3 13.4H11.7C11.8105 13.4 11.9 13.3105 11.9 13.2V5.09999ZM7.15147 9.00003L5.57574 7.42429L6.42426 6.57577L8 8.1515L9.57574 6.57577L10.4243 7.42429L8.84853 9.00003L10.4243 10.5758L9.57574 11.4243L8 9.84856L6.42426 11.4243L5.57574 10.5758L7.15147 9.00003Z" fill="#7D8085"/>
</svg>
