<svg width="140" height="64" viewBox="0 0 140 64" fill="none" xmlns="http://www.w3.org/2000/svg">
<rect x="0.25" y="0.25" width="139.5" height="63.5" rx="3.75" fill="#F2F5FF"/>
<path d="M38.032 37.624H33.436C33.676 37.216 33.868 36.76 34 36.28L33.124 36.16C33.004 36.664 32.8 37.144 32.536 37.624H29.968V47.188H30.844V46.444H37.156V47.188H38.032V37.624ZM30.844 45.616V43.66H37.156V45.616H30.844ZM30.844 42.868V41.032H37.156V42.868H30.844ZM30.844 40.24V38.452H37.156V40.24H30.844ZM42.484 39.76V40.576H45.628V45.808C45.508 45.784 45.388 45.748 45.28 45.712C44.416 45.436 43.696 44.788 43.12 43.756C43.336 43.132 43.528 42.448 43.672 41.704L42.832 41.56C42.424 43.624 41.656 45.268 40.504 46.492L41.056 47.176C41.74 46.48 42.316 45.616 42.784 44.584C43.276 45.364 43.924 45.94 44.716 46.312C45.772 46.756 47.5 46.984 49.924 46.984H51.268L51.424 46.12C50.776 46.168 50.152 46.192 49.54 46.192C48.34 46.18 47.332 46.108 46.492 45.988V43.504H50.068V42.688H46.492V40.576H49.54V39.76H42.484ZM50.908 37.42H46.552C46.384 36.928 46.192 36.484 46 36.088L45.076 36.232C45.292 36.592 45.496 36.988 45.676 37.42H41.092V40.036H41.932V38.212H50.068V39.976H50.908V37.42ZM57.052 36.196L56.236 36.568C56.98 37.408 57.652 38.368 58.264 39.448L59.044 39.052C58.468 38.02 57.808 37.06 57.052 36.196ZM61.228 36.76C60.724 39.364 59.668 41.5 58.06 43.168C56.548 41.752 55.372 39.976 54.532 37.852L53.74 38.296C54.64 40.456 55.864 42.28 57.424 43.78C56.128 44.908 54.532 45.784 52.636 46.396L53.116 47.176C55.084 46.528 56.752 45.604 58.108 44.392C59.476 45.544 61.072 46.468 62.92 47.164L63.46 46.36C61.66 45.736 60.1 44.872 58.756 43.768C60.436 42.028 61.54 39.76 62.08 36.952L61.228 36.76ZM64.768 38.224V39.088H66.616C67.156 40.936 68.116 42.544 69.508 43.912C68.212 45.088 66.556 45.94 64.54 46.48L64.996 47.236C67.036 46.648 68.74 45.724 70.108 44.464C71.404 45.58 73.036 46.504 75.028 47.248L75.496 46.528C73.576 45.82 71.98 44.932 70.708 43.852C71.884 42.58 72.772 40.984 73.36 39.088H75.232V38.224H70.648C70.264 37.396 69.856 36.688 69.4 36.112L68.536 36.424C69.016 36.988 69.412 37.588 69.736 38.224H64.768ZM67.468 39.088H72.46C71.956 40.744 71.176 42.148 70.108 43.312C68.86 42.112 67.984 40.708 67.468 39.088ZM76.864 38.404V39.232H80.788C79.9 41.356 78.46 43.096 76.444 44.44L76.936 45.244C79.072 43.672 80.584 41.668 81.472 39.232H81.556V43.912H79.084V44.74H81.556V47.2H82.444V44.74H85.012V43.912H82.444V39.232H82.54C83.356 41.404 84.82 43.36 86.932 45.088L87.52 44.344C85.456 42.844 84.016 41.14 83.212 39.232H87.124V38.404H82.444V36.232H81.556V38.404H76.864ZM96.808 43.072C96.448 44.2 96.04 45.172 95.572 45.988H88.948V46.792H99.076V45.988H96.496C96.952 45.196 97.336 44.296 97.648 43.3L96.808 43.072ZM91.072 43.216L90.292 43.468C90.676 44.164 90.988 44.896 91.228 45.664L92.008 45.46C91.732 44.62 91.42 43.864 91.072 43.216ZM93.844 42.976L93.052 43.228C93.364 43.972 93.616 44.752 93.82 45.568L94.588 45.364C94.372 44.464 94.12 43.672 93.844 42.976ZM90.892 41.824V42.592H97.12V41.824H90.892ZM90.412 37.996H91.324C91.54 38.464 91.72 38.956 91.876 39.46L92.668 39.172C92.548 38.812 92.38 38.416 92.188 37.996H93.916V37.228H90.76C90.868 36.94 90.976 36.652 91.072 36.34L90.232 36.16C89.896 37.264 89.356 38.272 88.612 39.184L89.356 39.652C89.752 39.148 90.1 38.596 90.412 37.996ZM95.464 37.996H96.508C96.772 38.5 97.012 39.028 97.228 39.568L98.02 39.28C97.864 38.872 97.66 38.452 97.396 37.996H99.304V37.228H95.8C95.896 36.94 95.992 36.652 96.088 36.34L95.26 36.16C95.008 37.096 94.6 37.936 94.036 38.704L94.768 39.172C95.02 38.812 95.248 38.416 95.464 37.996ZM93.724 39.184C92.344 40.204 90.616 41.056 88.552 41.752L88.96 42.496C91.048 41.764 92.728 40.9 94 39.892C95.392 40.972 97.06 41.836 99.028 42.508L99.448 41.764C97.492 41.14 95.764 40.276 94.276 39.184H93.724ZM104.26 46.456H109.624V47.164H110.5V42.1H105.496C107.752 41.056 109.3 39.712 110.164 38.068V37.3H105.484C105.724 36.976 105.94 36.64 106.132 36.28L105.184 36.172C104.464 37.444 103.084 38.524 101.032 39.4L101.608 40.144C102.88 39.544 103.912 38.872 104.728 38.116H109.168C108.604 39.1 107.716 39.952 106.492 40.684C105.976 40.24 105.256 39.736 104.344 39.172L103.6 39.64C104.512 40.156 105.232 40.636 105.76 41.08C104.38 41.776 102.652 42.328 100.576 42.76L101.032 43.588C101.872 43.384 102.652 43.168 103.396 42.928V47.164H104.26V46.456ZM109.624 45.616H104.26V42.904H109.624V45.616Z" fill="#4E5A70"/>
<path d="M64.5 14.8C64.5 14.3582 64.8582 14 65.3 14H74.7C75.1418 14 75.5 14.3582 75.5 14.8V25.2C75.5 25.6418 75.1418 26 74.7 26H70H65.3C64.8582 26 64.5 25.6418 64.5 25.2V14.8Z" stroke="#626E85" stroke-width="1.2"/>
<path d="M67 17H73M67 20H70.5" stroke="#626E85" stroke-width="1.2"/>
<rect x="0.25" y="0.25" width="139.5" height="63.5" rx="3.75" stroke="#4C6AFF" stroke-width="0.5"/>
</svg>
