<svg width="16" height="16" viewBox="0 0 16 16" fill="none" xmlns="http://www.w3.org/2000/svg">
<path fill-rule="evenodd" clip-rule="evenodd" d="M3.7999 1.39996C3.0267 1.39996 2.3999 2.02676 2.3999 2.79996V13.2C2.3999 13.9732 3.0267 14.6 3.7999 14.6H9.66853C10.0398 14.6 10.3959 14.4525 10.6585 14.1899L13.1899 11.6585C13.4524 11.396 13.5999 11.0399 13.5999 10.6686V10.0109C13.6 10.0072 13.6 10.0036 13.6 9.99994C13.6 9.99629 13.6 9.99266 13.5999 9.98903V2.79996C13.5999 2.02676 12.9731 1.39996 12.1999 1.39996H3.7999ZM12.3999 9.39994V2.79996C12.3999 2.68951 12.3104 2.59996 12.1999 2.59996H3.7999C3.68945 2.59996 3.5999 2.68951 3.5999 2.79996V13.2C3.5999 13.3104 3.68945 13.4 3.7999 13.4H8.4V10.7999C8.4 10.0267 9.0268 9.39994 9.8 9.39994H12.3999ZM9.6 13.4H9.66853C9.72157 13.4 9.77245 13.3789 9.80995 13.3414L12.3413 10.81C12.3788 10.7725 12.3999 10.7216 12.3999 10.6686V10.5999H9.8C9.68954 10.5999 9.6 10.6895 9.6 10.7999V13.4Z" fill="#7D8085"/>
</svg>
