<svg width="25" height="11" viewBox="0 0 25 11" fill="none" xmlns="http://www.w3.org/2000/svg">
<path d="M0.25 2C0.25 1.0335 1.0335 0.25 2 0.25H23C23.9665 0.25 24.75 1.0335 24.75 2V9C24.75 9.9665 23.9665 10.75 23 10.75H0.25V2Z" fill="#FE5B4C"/>
<path d="M6.19918 2.69C5.85918 2.69 5.54918 2.77 5.26918 2.93C4.98918 3.08 4.75918 3.3 4.57918 3.59V2.83H3.77918V8H4.57918V4.88C4.60918 4.41 4.75918 4.04 5.03918 3.76C5.29918 3.5 5.60918 3.37 5.96918 3.37C6.86918 3.37 7.32918 3.87 7.32918 4.88V8H8.12918V4.82C8.12918 3.4 7.47918 2.69 6.19918 2.69ZM11.4951 2.69C10.7451 2.69 10.1551 2.96 9.71512 3.5C9.27512 4.01 9.06512 4.65 9.06512 5.41C9.06512 6.25 9.28512 6.91 9.74512 7.41C10.1851 7.89 10.7851 8.14 11.5251 8.14C12.1951 8.14 12.7451 7.94 13.1751 7.56C13.5251 7.24 13.7551 6.84 13.8751 6.34H13.0751C12.9451 6.7 12.7751 6.97 12.5551 7.15C12.2951 7.36 11.9451 7.47 11.5251 7.47C11.0351 7.47 10.6451 7.31 10.3651 6.99C10.0851 6.67 9.93512 6.22 9.89512 5.64H13.9751C13.9551 4.74 13.7551 4.03 13.3751 3.53C12.9551 2.97 12.3251 2.69 11.4951 2.69ZM11.5151 3.36C12.4951 3.36 13.0451 3.91 13.1451 5.02H9.91512C9.96512 4.51 10.1251 4.11 10.4051 3.81C10.6851 3.51 11.0551 3.36 11.5151 3.36ZM14.342 2.83L16.102 8H16.852L18.072 3.84L19.272 8H20.032L21.792 2.83H20.912L19.642 7.02L18.442 2.83H17.692L16.492 7.02L15.222 2.83H14.342Z" fill="white"/>
<path d="M0.25 2C0.25 1.0335 1.0335 0.25 2 0.25H23C23.9665 0.25 24.75 1.0335 24.75 2V9C24.75 9.9665 23.9665 10.75 23 10.75H0.25V2Z" stroke="#FE5B4C" stroke-width="0.5"/>
</svg>
