<svg width="16" height="16" viewBox="0 0 16 16" fill="none" xmlns="http://www.w3.org/2000/svg">
<path d="M11.2237 2.52071L11.0948 1.93472L11.2237 2.52071ZM11.2003 9.07508L11.1239 8.47996L11.2003 9.07508ZM2.79873 2.31477L2.94787 2.89594L2.79873 2.31477ZM13.3742 2.04767L13.2453 1.46167L13.3742 2.04767ZM12.9 8.64892V2.14878H14.1V8.64892H12.9ZM2.41117 8.18661L4.04661 7.94179L4.22426 9.12857L2.58883 9.37339L2.41117 8.18661ZM11.1239 8.47996L13.2936 8.20156L13.4463 9.3918L11.2767 9.6702L11.1239 8.47996ZM4.25271 2.56108L2.94787 2.89594L2.64959 1.7336L3.95443 1.39875L4.25271 2.56108ZM13.5031 2.63366L11.3526 3.1067L11.0948 1.93472L13.2453 1.46167L13.5031 2.63366ZM3.1 2.69984V8.78H1.9V2.69984H3.1ZM3.1 8.78V14.5H1.9V8.78H3.1ZM11.3526 3.1067C10.0771 3.38726 8.74645 3.27427 7.53652 2.78265L7.98824 1.67092C8.97321 2.07113 10.0564 2.16312 11.0948 1.93472L11.3526 3.1067ZM3.95443 1.39875C5.29348 1.05512 6.70749 1.15052 7.98824 1.67092L7.53652 2.78265C6.4939 2.35901 5.34279 2.28134 4.25271 2.56108L3.95443 1.39875ZM7.92641 8.21832C8.96218 8.52842 10.0515 8.61756 11.1239 8.47996L11.2767 9.6702C10.0376 9.82919 8.77896 9.7262 7.58223 9.3679L7.92641 8.21832ZM4.04661 7.94179C5.34447 7.74751 6.66922 7.84193 7.92641 8.21832L7.58223 9.3679C6.49413 9.04213 5.34757 8.96041 4.22426 9.12857L4.04661 7.94179ZM2.94787 2.89594C3.0374 2.87296 3.1 2.79227 3.1 2.69984H1.9C1.9 2.24441 2.20845 1.84681 2.64959 1.7336L2.94787 2.89594ZM12.9 2.14878C12.9 2.46596 13.1934 2.70179 13.5031 2.63366L13.2453 1.46167C13.6843 1.36512 14.1 1.69932 14.1 2.14878H12.9ZM14.1 8.64892C14.1 9.02571 13.8201 9.34385 13.4463 9.3918L13.2936 8.20156C13.0686 8.23044 12.9 8.42202 12.9 8.64892H14.1Z" fill="#7D8085"/>
</svg>
