<svg width="16" height="16" viewBox="0 0 16 16" fill="none" xmlns="http://www.w3.org/2000/svg">
  <path d="M10.8207 3.20562L10.7133 2.71729L10.8207 3.20562ZM10.8003 8.94069L10.7366 8.44476L10.8003 8.94069ZM3.44889 3.02542L3.3246 2.54111L3.44889 3.02542ZM12.7024 2.79171L12.8099 3.28003L12.7024 2.79171ZM12.6987 8.6971L12.6351 8.20116L12.6987 8.6971ZM12.3125 8.5678V2.88018H13.3125V8.5678H12.3125ZM3.11348 8.18801L4.54448 7.97379L4.69253 8.96277L3.26152 9.17699L3.11348 8.18801ZM10.7366 8.44476L12.6351 8.20116L12.7624 9.19303L10.8639 9.43663L10.7366 8.44476ZM4.71491 3.21673L3.57317 3.50973L3.3246 2.54111L4.46634 2.24812L4.71491 3.21673ZM12.8099 3.28003L10.9281 3.69394L10.7133 2.71729L12.595 2.30338L12.8099 3.28003ZM3.6875 3.36236V8.6825H2.6875V3.36236H3.6875ZM3.6875 8.6825V13.6875H2.6875V8.6825H3.6875ZM10.9281 3.69394C9.817 3.93835 8.65787 3.83992 7.60387 3.41166L7.9803 2.48521C8.84684 2.83731 9.7998 2.91823 10.7133 2.71729L10.9281 3.69394ZM4.46634 2.24812C5.63282 1.94877 6.8646 2.03188 7.9803 2.48521L7.60387 3.41166C6.68661 3.03896 5.67392 2.97063 4.71491 3.21673L4.46634 2.24812ZM7.92844 8.21498C8.83809 8.48732 9.7948 8.56561 10.7366 8.44476L10.8639 9.43663C9.78319 9.57529 8.68541 9.48547 7.64163 9.17297L7.92844 8.21498ZM4.54448 7.97379C5.67648 7.80434 6.83192 7.88669 7.92844 8.21498L7.64163 9.17297C6.68602 8.88686 5.67906 8.81509 4.69253 8.96277L4.54448 7.97379ZM3.57317 3.50973C3.64045 3.49246 3.6875 3.43182 3.6875 3.36236H2.6875C2.6875 2.97527 2.94967 2.63733 3.3246 2.54111L3.57317 3.50973ZM12.3125 2.88018C12.3125 3.14174 12.5544 3.33622 12.8099 3.28003L12.595 2.30338C12.9635 2.22232 13.3125 2.50288 13.3125 2.88018H12.3125ZM13.3125 8.5678C13.3125 8.88492 13.0769 9.15267 12.7624 9.19303L12.6351 8.20116C12.4507 8.22483 12.3125 8.38184 12.3125 8.5678H13.3125Z" fill="#A8AAAD" />
</svg>