<svg width="32" height="32" viewBox="0 0 32 32" fill="none" xmlns="http://www.w3.org/2000/svg">
<path fill-rule="evenodd" clip-rule="evenodd" d="M24.4516 2.87103C24.4516 2.35438 24.0328 1.93555 23.5162 1.93555C22.9995 1.93555 22.5807 2.35438 22.5807 2.87103V7.54845H17.9033C17.3866 7.54845 16.9678 7.96728 16.9678 8.48393C16.9678 9.00059 17.3866 9.41942 17.9033 9.41942H22.5807V14.0968C22.5807 14.6135 22.9995 15.0323 23.5162 15.0323C24.0328 15.0323 24.4516 14.6135 24.4516 14.0968V9.41942H29.1291C29.6457 9.41942 30.0645 9.00059 30.0645 8.48393C30.0645 7.96728 29.6457 7.54845 29.1291 7.54845H24.4516V2.87103Z" fill="#94A6FF"/>
<rect x="2" y="2.87109" width="11.2258" height="11.2258" rx="1.87097" stroke="#94A6FF" stroke-width="2"/>
<rect x="2" y="18.7734" width="11.2258" height="11.2258" rx="1.87097" stroke="#94A6FF" stroke-width="2"/>
<rect x="17.9033" y="18.7734" width="11.2258" height="11.2258" rx="1.87097" stroke="#94A6FF" stroke-width="2"/>
</svg>
