<svg width="16" height="16" viewBox="0 0 16 16" fill="none" xmlns="http://www.w3.org/2000/svg">
<path fill-rule="evenodd" clip-rule="evenodd" d="M14.0001 2.5999H2.00012V1.3999H14.0001V2.5999ZM8.60012 5.16595L9.70213 5.95309L8.60012 6.79739V5.16595ZM8.73635 3.78856L10.6982 5.18992L13.3167 3.18377L14.0465 4.13633L14.0465 4.1364L13.9509 4.0116L2.72483 12.6124L2.09063 11.7846L7.40012 7.71677V5.16593L1.34885 9.48827L0.651367 8.51178L7.26388 3.78856C7.70429 3.47398 8.29593 3.47398 8.73635 3.78856ZM7.40012 10.2902V15H8.60012V9.37081L7.40012 10.2902ZM11.4404 7.19472L14.6514 9.48827L15.3489 8.51178L12.4365 6.43155L11.4404 7.19472Z" fill="#3C3F47"/>
</svg>
