<svg width="16" height="16" viewBox="0 0 16 16" fill="none" xmlns="http://www.w3.org/2000/svg">
<circle cx="7.99984" cy="9.33333" r="5.33333" stroke="#AA90F4"/>
<circle cx="8.00016" cy="9.33342" r="2.66667" stroke="#AA90F4"/>
<path d="M12.6229 3.41011L13.057 3.65818L12.6229 3.41011ZM5.10095 5.41852L3.81154 3.16204L2.94329 3.65818L4.23271 5.91465L5.10095 5.41852ZM3.8335 3.24473V1.66659H2.8335V3.24473H3.8335ZM3.66683 1.83325H12.3335V0.833252H3.66683V1.83325ZM12.1668 1.66659V3.24473H13.1668V1.66659H12.1668ZM12.1888 3.16204L10.8994 5.41852L11.7676 5.91465L13.057 3.65818L12.1888 3.16204ZM12.1668 3.24473C12.1668 3.21573 12.1744 3.18722 12.1888 3.16204L13.057 3.65818C13.129 3.53226 13.1668 3.38975 13.1668 3.24473H12.1668ZM12.3335 1.83325C12.2414 1.83325 12.1668 1.75863 12.1668 1.66659H13.1668C13.1668 1.20635 12.7937 0.833252 12.3335 0.833252V1.83325ZM3.8335 1.66659C3.8335 1.75863 3.75888 1.83325 3.66683 1.83325V0.833252C3.20659 0.833252 2.8335 1.20635 2.8335 1.66659H3.8335ZM3.81154 3.16204C3.82593 3.18722 3.8335 3.21573 3.8335 3.24473H2.8335C2.8335 3.38975 2.87134 3.53227 2.94329 3.65818L3.81154 3.16204Z" fill="#AA90F4"/>
<path d="M6 1V4.33333" stroke="#AA90F4"/>
<path d="M10 1V4.33333" stroke="#AA90F4"/>
</svg>
