<svg width="27" height="14" viewBox="0 0 27 14" fill="none" xmlns="http://www.w3.org/2000/svg">
  <path d="M3.84288 0.825195H1.59743L0 5.46998H1.03041V13.7501L3.14959 12.8395V2.79167L3.84288 0.825195Z" fill="white"/>
  <path d="M17.0075 3.39161H25.9012L26.5147 1.74891H17.4042L17.6281 0.825195H15.3839L14.5 4.63673H16.7061L17.0075 3.39161Z" fill="white"/>
  <path d="M14.3042 13.3733H16.558L19.5992 8.20117H17.3537L14.3042 13.3733Z" fill="white"/>
  <path d="M11.943 4.883L12.5577 3.24031H7.54267L7.86311 0.657227H5.74392L5.42229 3.24031H3.46631V4.883H5.2174L4.1596 13.3738H6.28831L7.34016 4.883H11.943Z" fill="white"/>
  <path d="M26.1041 7.61438L26.7176 5.97168H14.1729V7.61438H21.2713V11.4342C21.2713 11.4342 21.2118 13.196 22.9152 13.3733H25.7896L26.6211 11.7509H24.1231C24.1231 11.7509 23.2321 11.7902 23.2321 10.9391V7.61438H26.1041Z" fill="white"/>
  <path d="M10.5562 10.9394V5.46973H8.59547V11.4334C8.59547 11.4334 8.53591 13.1952 10.2394 13.3725H12.0417L12.8731 11.7501H11.4473C11.4473 11.7513 10.5562 11.7905 10.5562 10.9394Z" fill="white"/>
  <path d="M11.3627 2.28331C11.5594 1.80894 11.3339 1.2651 10.8592 1.0686C10.3845 0.872108 9.84028 1.09737 9.64364 1.57174C9.447 2.04611 9.67243 2.58995 10.1471 2.78645C10.6219 2.98294 11.1661 2.75768 11.3627 2.28331Z" fill="white"/>
  <path d="M20.6434 0L18.7403 4.66712L19.8463 4.95757L18.2227 7.62279L23.5176 3.80887H21.2067L24.1645 0H20.6434Z" fill="#FEB34E"/>
</svg>
