<svg width="27" height="14" viewBox="0 0 27 14" fill="none" xmlns="http://www.w3.org/2000/svg">
  <path d="M3.84288 0.825195H1.59743L0 5.46998H1.03041V13.7501L3.14959 12.8395V2.79167L3.84288 0.825195Z" fill="#386EE7"/>
  <path d="M17.0075 3.39161H25.9012L26.5147 1.74891H17.4042L17.6281 0.825195H15.3839L14.5 4.63673H16.7061L17.0075 3.39161Z" fill="#386EE7"/>
  <path d="M14.3037 13.3738H16.5575L19.5987 8.20166H17.3532L14.3037 13.3738Z" fill="#386EE7"/>
  <path d="M11.9435 4.883L12.5582 3.24031H7.54316L7.8636 0.657227H5.74441L5.42278 3.24031H3.4668V4.883H5.21789L4.16009 13.3738H6.2888L7.34065 4.883H11.9435Z" fill="#386EE7"/>
  <path d="M26.1041 7.61389L26.7176 5.97119H14.1729V7.61389H21.2713V11.4338C21.2713 11.4338 21.2118 13.1955 22.9152 13.3729H25.7896L26.6211 11.7504H24.1231C24.1231 11.7504 23.2321 11.7897 23.2321 10.9386V7.61389H26.1041Z" fill="#386EE7"/>
  <path d="M10.5567 10.9399V5.47021H8.59596V11.4339C8.59596 11.4339 8.5364 13.1957 10.2398 13.373H12.0422L12.8736 11.7506H11.4477C11.4477 11.7517 10.5567 11.791 10.5567 10.9399Z" fill="#386EE7"/>
  <path d="M11.3632 2.28331C11.5599 1.80894 11.3344 1.2651 10.8597 1.0686C10.385 0.872108 9.84077 1.09737 9.64413 1.57174C9.44749 2.04611 9.67292 2.58995 10.1476 2.78645C10.6223 2.98294 11.1666 2.75768 11.3632 2.28331Z" fill="#386EE7"/>
  <path d="M20.6434 0L18.7403 4.66712L19.8463 4.95757L18.2227 7.62279L23.5176 3.80887H21.2067L24.1645 0H20.6434Z" fill="#FEB34E"/>
</svg>
