<svg width="16" height="16" viewBox="0 0 16 16" fill="none" xmlns="http://www.w3.org/2000/svg">
    <path d="M8 14.6C11.6451 14.6 14.6 11.6451 14.6 8C14.6 4.35492 11.6451 1.4 8 1.4C4.35492 1.4 1.4 4.35492 1.4 8C1.4 11.6451 4.35492 14.6 8 14.6Z" stroke="#A8AAAD" stroke-width="1.2" stroke-linecap="round" stroke-linejoin="round" />
    <path d="M8.19 3.992C7.376 3.992 6.738 4.223 6.265 4.685C5.781 5.147 5.55 5.785 5.55 6.599H6.804C6.804 6.126 6.892 5.763 7.079 5.51C7.299 5.213 7.64 5.07 8.113 5.07C8.487 5.07 8.784 5.169 8.993 5.378C9.191 5.587 9.301 5.873 9.301 6.236C9.301 6.511 9.202 6.775 9.004 7.017L8.872 7.171C8.157 7.809 7.728 8.271 7.585 8.568C7.431 8.865 7.365 9.228 7.365 9.646V9.8H8.63V9.646C8.63 9.382 8.685 9.14 8.795 8.92C8.894 8.722 9.037 8.535 9.235 8.381C9.763 7.919 10.082 7.622 10.181 7.512C10.445 7.16 10.588 6.709 10.588 6.159C10.588 5.488 10.368 4.96 9.928 4.575C9.488 4.179 8.905 3.992 8.19 3.992ZM7.992 10.339C7.75 10.339 7.552 10.416 7.398 10.57C7.222 10.724 7.145 10.922 7.145 11.164C7.145 11.406 7.222 11.604 7.398 11.758C7.552 11.912 7.75 12 7.992 12C8.234 12 8.432 11.923 8.608 11.769C8.762 11.615 8.85 11.406 8.85 11.164C8.85 10.922 8.762 10.724 8.608 10.57C8.443 10.416 8.234 10.339 7.992 10.339Z" fill="#A8AAAD" />
</svg>