<svg width="16" height="16" viewBox="0 0 16 16" fill="none" xmlns="http://www.w3.org/2000/svg">
    <path d="M13.3333 8L15 10H10" stroke="#3C3F47" stroke-linejoin="round"/>
    <path d="M11.5 14L10 12L15 12" stroke="#3C3F47" stroke-linejoin="round"/>
    <path fill-rule="evenodd" clip-rule="evenodd" d="M2.2999 1.90039C1.5267 1.90039 0.899902 2.52719 0.899902 3.30039V12.7004C0.899902 13.4736 1.5267 14.1004 2.2999 14.1004H8.4999V12.9004H2.2999C2.18945 12.9004 2.0999 12.8108 2.0999 12.7004V3.86472L6.97559 7.92779C7.56894 8.42225 8.43082 8.42225 9.02418 7.92779L13.8999 3.86468V6.90039H15.0999V3.30039C15.0999 2.52719 14.4731 1.90039 13.6999 1.90039H2.2999ZM12.9426 3.10039H3.05717L7.74381 7.00592C7.89215 7.12954 8.10762 7.12954 8.25596 7.00592L12.9426 3.10039Z" fill="#3C3F47"/>
</svg>
