<svg width="16" height="16" viewBox="0 0 16 16" fill="none" xmlns="http://www.w3.org/2000/svg">
<path d="M3.19423 14.0877L2.90977 13.5594L3.19423 14.0877ZM2.04809 2.84452L1.47294 3.01542L2.04809 2.84452ZM13.1919 7.29562L12.9074 7.82391L13.1919 7.29562ZM13.1919 8.70438L12.9074 8.17609L13.1919 8.70438ZM13.4763 6.76734L3.47869 1.38399L2.90977 2.44056L12.9074 7.82391L13.4763 6.76734ZM1.47294 3.01542L3.00485 8.1709L4.15515 7.8291L2.62323 2.67362L1.47294 3.01542ZM3.00485 7.8291L1.47294 12.9846L2.62323 13.3264L4.15515 8.1709L3.00485 7.8291ZM3.47869 14.616L13.4763 9.23266L12.9074 8.17609L2.90977 13.5594L3.47869 14.616ZM3.58 8.6H6.7V7.4H3.58V8.6ZM1.47294 12.9846C1.11818 14.1785 2.38206 15.2065 3.47869 14.616L2.90977 13.5594C2.75311 13.6438 2.57255 13.4969 2.62323 13.3264L1.47294 12.9846ZM3.47869 1.38399C2.38206 0.793503 1.11818 1.82152 1.47294 3.01542L2.62323 2.67362C2.57255 2.50306 2.75311 2.3562 2.90977 2.44056L3.47869 1.38399ZM12.9074 7.82391C13.0477 7.89942 13.0477 8.10058 12.9074 8.17609L13.4763 9.23266C14.458 8.70406 14.458 7.29594 13.4763 6.76734L12.9074 7.82391Z" fill="#7D8085"/>
</svg>
