<svg width="16" height="16" viewBox="0 0 16 16" fill="none" xmlns="http://www.w3.org/2000/svg">
<path d="M7.45387 1.70051C7.6671 1.23178 8.33291 1.23177 8.54615 1.7005L9.92604 4.73364C10.1021 5.12056 10.4696 5.38548 10.8924 5.4301L14.2699 5.78658C14.7863 5.84108 14.9943 6.48134 14.6086 6.82897L12.0902 9.09855C11.772 9.38531 11.6308 9.81994 11.7196 10.239L12.423 13.5554C12.5308 14.0634 11.9862 14.4591 11.5363 14.1996L8.5996 12.5058C8.22855 12.2918 7.77156 12.2918 7.40051 12.5058L4.46377 14.1996C4.01395 14.4591 3.46931 14.0634 3.57706 13.5554L4.28048 10.239C4.36935 9.81994 4.22813 9.38531 3.90993 9.09855L1.39152 6.82897C1.00577 6.48134 1.2138 5.84108 1.73021 5.78658L5.10773 5.4301C5.53046 5.38548 5.89804 5.12055 6.07406 4.73362L7.45387 1.70051Z" stroke="#7D8085" stroke-width="1.2"/>
</svg>
