<svg width="16" height="16" viewBox="0 0 16 16" fill="none" xmlns="http://www.w3.org/2000/svg">
<g clip-path="url(#clip0_237_80934)">
<path fill-rule="evenodd" clip-rule="evenodd" d="M4.32766 10.1691L4.2134 10.8353L4.55823 10.654L4.35708 11.8268C3.71861 11.9225 3.10788 11.3654 3.22779 10.6663L3.45839 9.32176L4.32766 10.1691ZM7.39581 3.06226L6.99976 2.25977L6.07192 4.13978C5.7806 4.73007 5.21746 5.1392 4.56604 5.23386L2.49133 5.53533L3.08194 6.11104C2.83309 6.35921 2.65623 6.66882 2.56357 7.00223L1.79332 6.25142C1.1998 5.67288 1.52731 4.66491 2.34753 4.54573L4.42225 4.24425C4.74796 4.19693 5.02952 3.99236 5.17518 3.69721L6.10303 1.8172C6.46984 1.07395 7.52968 1.07395 7.8965 1.8172L8.19639 2.42485C7.88936 2.5574 7.61098 2.76987 7.39581 3.06226ZM10.1478 4.32716L10.148 4.32718L10.6852 5.41575L10.6851 5.41573L10.1478 4.32716ZM11.0424 5.9894L11.0423 5.98945C11.1887 6.12465 11.3743 6.21501 11.577 6.24447L12.1308 6.32493L12.1308 6.32492L11.5772 6.24447C11.3744 6.21501 11.1888 6.12462 11.0424 5.9894ZM12.4942 5.36722L11.721 5.25486L11.3493 4.50174L11.652 4.54573C12.1178 4.61341 12.4247 4.96771 12.4942 5.36722Z" fill="#262A33" fill-opacity="0.6"/>
<path d="M9.05163 4.03827C9.23504 3.66665 9.76496 3.66664 9.94837 4.03827L11.0232 6.21603C11.2416 6.65874 11.664 6.9656 12.1526 7.03659L14.5559 7.38581C14.966 7.4454 15.1297 7.94939 14.833 8.23866L13.0939 9.9338C12.7404 10.2784 12.5791 10.7749 12.6625 11.2615L13.0731 13.6551C13.1431 14.0635 12.7144 14.375 12.3476 14.1822L10.198 13.0521C9.76102 12.8223 9.23897 12.8223 8.80199 13.0521L6.65241 14.1822C6.2856 14.375 5.85688 14.0635 5.92694 13.6551L6.33747 11.2615C6.42093 10.7749 6.2596 10.2784 5.90608 9.9338L4.16703 8.23866C3.87027 7.94939 4.03403 7.4454 4.44414 7.38581L6.84744 7.03659C7.336 6.9656 7.75835 6.65874 7.97684 6.21603L9.05163 4.03827Z" stroke="#262A33" stroke-opacity="0.6"/>
</g>
<defs>
<clipPath id="clip0_237_80934">
<rect width="16" height="16" fill="white"/>
</clipPath>
</defs>
</svg>
