<svg width="16" height="16" viewBox="0 0 16 16" fill="none" xmlns="http://www.w3.org/2000/svg">
  <path d="M8 2.4C8.33137 2.4 8.6 2.66863 8.6 3C8.6 3.33137 8.33137 3.6 8 3.6V2.4ZM12.4 8C12.4 7.66863 12.6686 7.4 13 7.4C13.3314 7.4 13.6 7.66863 13.6 8H12.4ZM5 12.4H11V13.6H5V12.4ZM3.6 5V11H2.4V5H3.6ZM8 3.6H5V2.4H8V3.6ZM12.4 11V8H13.6V11H12.4ZM2.4 5C2.4 3.56406 3.56406 2.4 5 2.4V3.6C4.2268 3.6 3.6 4.2268 3.6 5H2.4ZM11 12.4C11.7732 12.4 12.4 11.7732 12.4 11H13.6C13.6 12.4359 12.4359 13.6 11 13.6V12.4ZM5 13.6C3.56406 13.6 2.4 12.4359 2.4 11H3.6C3.6 11.7732 4.2268 12.4 5 12.4V13.6Z" fill="#599AF5"/>
  <path d="M6.45412 6.41296C6.23754 6.16216 5.85866 6.13441 5.60785 6.35099C5.35705 6.56756 5.32931 6.94645 5.54588 7.19725L6.45412 6.41296ZM7.89537 9L7.44125 9.39215C7.54935 9.51733 7.70433 9.59233 7.86957 9.59945C8.03482 9.60656 8.19567 9.54514 8.31412 9.42971L7.89537 9ZM12.4188 5.42971C12.6561 5.19844 12.661 4.81857 12.4297 4.58125C12.1984 4.34393 11.8186 4.33902 11.5812 4.57029L12.4188 5.42971ZM5.54588 7.19725L7.44125 9.39215L8.34948 8.60785L6.45412 6.41296L5.54588 7.19725ZM8.31412 9.42971L12.4188 5.42971L11.5812 4.57029L7.47662 8.57029L8.31412 9.42971Z" fill="#599AF5"/>
</svg>
