<svg width="16" height="16" viewBox="0 0 16 16" fill="none" xmlns="http://www.w3.org/2000/svg">
<g clip-path="url(#clip0_11481_193281)">
<path d="M8 14.5C11.5899 14.5 14.5 11.5899 14.5 8C14.5 4.41015 11.5899 1.5 8 1.5C4.41015 1.5 1.5 4.41015 1.5 8C1.5 11.5899 4.41015 14.5 8 14.5Z" stroke="#3F465C" stroke-linejoin="round"/>
<path d="M4.66602 8.75C5.08023 8.75 5.41602 8.41421 5.41602 8C5.41602 7.58579 5.08023 7.25 4.66602 7.25C4.2518 7.25 3.91602 7.58579 3.91602 8C3.91602 8.41421 4.2518 8.75 4.66602 8.75Z" fill="#3F465C"/>
<path d="M8 8.75C8.41421 8.75 8.75 8.41421 8.75 8C8.75 7.58579 8.41421 7.25 8 7.25C7.58579 7.25 7.25 7.58579 7.25 8C7.25 8.41421 7.58579 8.75 8 8.75Z" fill="#3F465C"/>
<path d="M11.334 8.75C11.7482 8.75 12.084 8.41421 12.084 8C12.084 7.58579 11.7482 7.25 11.334 7.25C10.9198 7.25 10.584 7.58579 10.584 8C10.584 8.41421 10.9198 8.75 11.334 8.75Z" fill="#3F465C"/>
</g>
<defs>
<clipPath id="clip0_11481_193281">
<rect width="16" height="16" fill="white"/>
</clipPath>
</defs>
</svg>
