<svg width="16" height="16" viewBox="0 0 16 16" fill="none" xmlns="http://www.w3.org/2000/svg">
<path d="M1.5 5V4.4C1.16863 4.4 0.9 4.66863 0.9 5H1.5ZM1.5 11H0.9C0.9 11.3314 1.16863 11.6 1.5 11.6L1.5 11ZM8 11H8.6C8.6 10.6686 8.33137 10.4 8 10.4V11ZM8 14H7.4C7.4 14.2383 7.54105 14.454 7.75936 14.5496C7.97767 14.6452 8.23185 14.6025 8.40697 14.4409L8 14ZM14.5 8L14.907 8.44088C15.03 8.3273 15.1 8.16746 15.1 8C15.1 7.83254 15.03 7.6727 14.907 7.55912L14.5 8ZM8 2L8.40697 1.55912C8.23185 1.39747 7.97767 1.35479 7.75936 1.45037C7.54105 1.54596 7.4 1.76168 7.4 2H8ZM8 5V5.6C8.33137 5.6 8.6 5.33137 8.6 5H8ZM0.9 5V11H2.1V5H0.9ZM1.5 11.6H8V10.4H1.5V11.6ZM7.4 11V14H8.6V11H7.4ZM8.40697 14.4409L14.907 8.44088L14.093 7.55912L7.59303 13.5591L8.40697 14.4409ZM14.907 7.55912L8.40697 1.55912L7.59303 2.44088L14.093 8.44088L14.907 7.55912ZM7.4 2V5H8.6V2H7.4ZM8 4.4H1.5V5.6H8V4.4Z" fill="#7D8085"/>
</svg>
