<svg width="16" height="16" viewBox="0 0 16 16" fill="none" xmlns="http://www.w3.org/2000/svg">
<path fill-rule="evenodd" clip-rule="evenodd" d="M9.67687 2.89844H2.2999C1.5267 2.89844 0.899902 3.52524 0.899902 4.29844V12.6984C0.899902 13.4716 1.5267 14.0984 2.2999 14.0984H13.6999C14.4731 14.0984 15.0999 13.4716 15.0999 12.6984V6.80033C14.7459 7.06618 14.3399 7.26649 13.8999 7.38323V12.6984C13.8999 12.8089 13.8104 12.8984 13.6999 12.8984H2.2999C2.18945 12.8984 2.0999 12.8089 2.0999 12.6984V4.78621L7.22332 8.20183C7.69358 8.51533 8.30622 8.51533 8.77648 8.20183L10.8901 6.79277C10.565 6.54682 10.2843 6.24544 10.0619 5.90269L8.11084 7.20337C8.04366 7.24815 7.95614 7.24815 7.88896 7.20337L3.23157 4.09844H9.50136C9.50045 4.06574 9.5 4.03292 9.5 4C9.5 3.61515 9.56212 3.2448 9.67687 2.89844Z" fill="#7D8085"/>
<circle cx="13" cy="4" r="1.9" stroke="#7D8085" stroke-width="1.2"/>
</svg>
