<svg width="16" height="16" viewBox="0 0 16 16" fill="none" xmlns="http://www.w3.org/2000/svg">
<path d="M8 2C9.40195 2 10.5385 3.14615 10.5385 4.54811V4.54811C10.5385 5.0579 10.3857 5.55896 10.1 5.98113L9.70374 6.56644C9.69629 6.57745 9.69231 6.59044 9.69231 6.60373V7.03605C9.69231 7.74143 10.1913 8.34828 10.8834 8.4846L11.9769 8.7C12.8619 8.87432 13.5 9.65033 13.5 10.5523V12H2.5V10.5523C2.5 9.65033 3.13807 8.87432 4.02308 8.7L5.11663 8.4846C5.80871 8.34828 6.30769 7.74143 6.30769 7.03605V6.60373C6.30769 6.59044 6.30371 6.57745 6.29626 6.56644L5.90005 5.98113C5.61427 5.55897 5.46154 5.0579 5.46154 4.54811V4.54811C5.46154 3.14615 6.59805 2 8 2V2Z" stroke="#7D8085" stroke-width="1.2" stroke-linecap="round" stroke-linejoin="round"/>
<path d="M2.5 14.5H13.5" stroke="#7D8085" stroke-width="1.2"/>
</svg>
