<svg width="16" height="16" viewBox="0 0 16 16" fill="none" xmlns="http://www.w3.org/2000/svg">
<circle cx="8" cy="8" r="6" stroke="#7A8599"/>
<path d="M8.39179 8.10449H10.7426L10.4814 9.14927H8.39179V13.8508H7.34701V9.14927H5.25745V8.10449H7.34701V7.12658C7.34701 6.19515 7.44418 5.85717 7.62597 5.51657C7.80411 5.18005 8.0793 4.90485 8.41582 4.72671C8.75642 4.54492 9.09441 4.44775 10.0258 4.44775C10.2985 4.44775 10.5378 4.47387 10.7426 4.52611V5.49254H10.0258C9.33419 5.49254 9.12366 5.53328 8.90896 5.64821C8.75015 5.73284 8.63209 5.8509 8.54747 6.0097C8.43254 6.22441 8.39179 6.43493 8.39179 7.12658V8.10449Z" fill="#7A8599"/>
</svg>
