<svg width="16" height="16" viewBox="0 0 16 16" fill="none" xmlns="http://www.w3.org/2000/svg">
<circle cx="6.5" cy="5.5" r="2.5" stroke="#7A8599"/>
<path d="M11.5 13.5V12C11.5 10.6193 10.3807 9.5 9 9.5H4C2.61929 9.5 1.5 10.6193 1.5 12V13.5C1.5 13.7761 1.72386 14 2 14H11C11.2761 14 11.5 13.7761 11.5 13.5Z" stroke="#7A8599"/>
<path d="M8.86609 1.73199C9.18615 1.58312 9.54299 1.5 9.91925 1.5C11.3 1.5 12.4192 2.61929 12.4192 4C12.4192 5.05129 11.7703 5.95102 10.8512 6.3205" stroke="#7A8599" stroke-linecap="round"/>
<path d="M10.8496 8H12.4195C13.8002 8 14.9195 9.11929 14.9195 10.5V12C14.9195 12.2761 14.6957 12.5 14.4195 12.5H13.4996" stroke="#7A8599" stroke-linecap="round"/>
</svg>
