<svg width="28" height="18" viewBox="0 0 28 18" fill="none" xmlns="http://www.w3.org/2000/svg">
<rect x="0.5" y="0.500366" width="26.3332" height="16.9993" rx="3.5" fill="#F6F7FA"/>
<rect x="0.5" y="0.500366" width="26.3332" height="16.9993" rx="3.5" stroke="#EBEDF2"/>
<path d="M18.6665 4.00037C18.8298 4.00039 18.9874 4.06034 19.1094 4.16884C19.2315 4.27735 19.3094 4.42687 19.3285 4.58903L19.3332 4.66703V8.95303C19.3332 10.1917 18.5372 11.2577 17.4505 11.3297L17.3332 11.3337H10.2765L11.8045 12.8624C11.9241 12.9823 11.9935 13.1433 11.9987 13.3126C12.0038 13.4819 11.9444 13.6468 11.8324 13.7739C11.7203 13.9009 11.5642 13.9806 11.3955 13.9966C11.2269 14.0127 11.0585 13.964 10.9245 13.8604L10.8619 13.805L8.19519 11.1384C8.07021 11.0133 8 10.8438 8 10.667C8 10.4903 8.07021 10.3207 8.19519 10.1957L10.8619 7.52903C10.9818 7.40947 11.1428 7.34005 11.3121 7.33488C11.4814 7.32971 11.6463 7.38918 11.7734 7.5012C11.9004 7.61322 11.9801 7.7694 11.9961 7.93802C12.0122 8.10663 11.9635 8.27504 11.8599 8.40903L11.8045 8.4717L10.2765 10.0004H17.3332C17.6392 10.0004 17.9572 9.6157 17.9959 9.06503L17.9999 8.95303V4.66703C17.9999 4.49022 18.0701 4.32065 18.1951 4.19563C18.3201 4.0706 18.4897 4.00037 18.6665 4.00037Z" fill="#6F7485"/>
</svg>
