<svg width="20" height="20" viewBox="0 0 20 20" fill="none" xmlns="http://www.w3.org/2000/svg">
<path fill-rule="evenodd" clip-rule="evenodd" d="M10.6004 5.4999C10.6004 5.16853 10.3318 4.8999 10.0004 4.8999C9.66902 4.8999 9.40039 5.16853 9.40039 5.4999V9.3999H5.50039C5.16902 9.3999 4.90039 9.66853 4.90039 9.9999C4.90039 10.3313 5.16902 10.5999 5.50039 10.5999H9.40039V14.4999C9.40039 14.8313 9.66902 15.0999 10.0004 15.0999C10.3318 15.0999 10.6004 14.8313 10.6004 14.4999V10.5999H14.5004C14.8318 10.5999 15.1004 10.3313 15.1004 9.9999C15.1004 9.66853 14.8318 9.3999 14.5004 9.3999H10.6004V5.4999Z" fill="#626E85"/>
<circle cx="10" cy="10" r="9.4" stroke="#626E85" stroke-width="1.2"/>
</svg>
